<?xml version="1.0" encoding="UTF-8"?>
<svg id="Layer_1" xmlns="http://www.w3.org/2000/svg" version="1.1" viewBox="0 0 512 512">
  <!-- Generator: Adobe Illustrator 29.5.1, SVG Export Plug-In . SVG Version: 2.1.0 Build 141)  -->
  <path d="M284.23,241.51c15.87-2.7,7.66,23.36,17.22,24.72,10.1,1.43,8.84-20.77,20.71-19.12,10.46,1.45,3.49,15.74,10.81,17.66,10.16,2.67,32.7.7,46.24,3.32,6.1,1.18,18.1,4.7,23.85,7.03,5.16,2.09,21.52,13.12,24.19,13.23,3.9.16,11.53-7.58,16.81-8.82,8.75-2.05,35.67,5.16,27.94,17.38-7.24,11.44-22.05-13.76-33.31,8.13-5.14,10-2.8,15.92-13.28,24.91-5.55,4.76-27.45,14.47-34.69,16.5-6.65,1.87-37.9,5-40.92,8.64-3.9,4.71,4.61,16.49-.49,26.33-7.85,15.16-37.5,17.61-51.27,20.23-52.46,10.01-101.13,11.49-146.29-23.12-5.87-4.5-11.52-14.03-17.03-16.28-7.92-3.23-39.8-15.15-46.72-15.84-8.72-.87-17.51,8.73-20.68-3.69-2.06-8.06,8.19-15.08,15.2-15.2,8.23-.15,42.28,17.24,47.9,16.25,1-.18,11.59-10.31,15.89-12.61,12.7-6.8,36.52-12.58,50.91-14.9,5.41-.87,34.71-1.58,36.94-4.5,3.77-4.95-9.67-15.47-10.32-23.23-.51-6.11,4.19-11.06-1.91-16.71-12.22-11.33-28.15,13.55-38.84,9.58-5.92-2.2-4.04-9.67-16.02-10.78-14.55-1.35-28.42,13.11-34.88,9.68-12.35-6.55,8.28-24.25,15.98-26.09,4.8-1.15,21.13-1.3,26.11-.55,5.53.84,9.25,5.25,14.7,4.83,8.83-.68,18.15-10.07,31.5-7.96,11.24,1.77,20.98,22.87,27.71,23.29,2.18.14,30.33-4.82,31.47-5.95,5.02-4.95-9.72-23.92,4.59-26.35h-.02ZM361.64,296.62c2.06,3.07,48.82-1.39,26.29-10.44-10.21-4.1-29.21,6.09-26.29,10.44ZM408.57,300.06c-8.36.98-20.13,4.57-29.48,5.49s-47.9.81-52.04,7.27c-5.29,8.25,17.23,5.98,22.01,5.76,16.37-.75,33.41-1.36,49.55-2.45,4.54-.31,11.24,1.53,14.6.78,8.29-1.85,6.83-18.2-4.63-16.86h0ZM342.78,325.31c-29.43.73-49.55,5.41-73.24,23.45-3.79,2.89-13.47,9.37-3.4,11.25,3.19.59,44.32,1.9,46.4.88,5.11-2.51-2.63-5.32-4.07-7.46-2.86-4.24-5.68-13.07.71-15.45,2.07-.77,34.36.78,41.45.05,4.05-.42,32.17-5.1,32.1-9.32-.06-3.49-35.09-3.53-39.95-3.41h0ZM250.97,368.33c-6.63.67-27.36,10.65-12.36,13.53,7.91,1.52,64.07,1.94,73.07.92,3.64-.41,15.93-3.19,7.69-7.74-9.09-5.03-56.92-7.87-68.4-6.71h0Z"/>
  <path d="M225.13,106.49c2.43-2.28-12.65-19.53-4.08-30.49,10.16-13,18.36,17.32,17.04,25.14-.66,3.89-6.1,6.13-5.3,8.58.99,3.02,17.26,8.2,21.04,10.71,3.18,2.11,8.22,9.25,11.07,10.06,8.46,2.42,18.71-9.7,24.9-10.18,6.72-.52,12.19,7.98,17.82,8.16,3.92.12,10.17-4.66,14.96-5.39,15.63-2.36,16.7,7.43,25.63,7.83s11.66-10.51,25.13-8.92c16.47,1.95,26.42,32.1,12.45,30.62-8.36-.88-7.02-14.29-19.7-12.84-6.78.77-18.6,12.91-25.1,12.19-5.47-.61-6.74-9.63-12.33-11.37-7.9-2.46-17.63,8.49-24.26,8.09-6.72-.4-8.41-10.81-15.44-10.48-4.4.2-17.83,10.63-22.37,13.4-3.76,2.29-8.27,2.4-11.68,4.57-4.81,3.08-4.6,8.05-10.25,10.06-5.24,1.87-45.01,6.24-51.6,6.1-9.25-.2-17.13-3.77-26.06-4.89-16.28-2.05-20.9,1.53-38.31-7.19-8.08-4.05-23.08-19.99-27.05-20.89-6.18-1.4-13.25,5.14-15.51,3.34-3.33-2.66,5.84-16.49,8.59-18.34,8.34-5.6,11.83.35,19.95-1.19,4.74-.9,15.62-9.14,21.68-11.63,8.73-3.58,19.79-6.56,29.17-7.39s57.43,4.36,59.61,2.32v.02ZM209.49,123.77c-2.37.37-12.15,4.62-6.58,6.95,2.03.85,18.3-1.19,18.95-2.72,2.12-5-10.17-4.57-12.38-4.23h.01ZM196.48,139.19c-8.73.73-17.52,4.77-25.58,6.92-.79.21-21.26,1.53-8.56,4.88,4.38,1.16,41.96,6.81,46.12,6.74,3.64-.06,42.06-5.27,30.09-13.89-1.75-1.26-37.63-5.02-42.07-4.65h0Z"/>
  <path d="M301.26,185.48c13.65-4.95,19.1,36.68-.19,35.59-10.46-.59-3.95-9.78-3.69-13.48.32-4.57-1.29-20.24,3.88-22.11Z"/>
  <path d="M380.11,384.52c14.55-2.67,12.74,32.82-2.59,31.51-9.64-.82-4.76-30.17,2.59-31.51Z"/>
  <path d="M392.28,213.12c6.59-2.19,19.33,12.65,21.39,17.24,2.67,5.95-3.87,10.48-9.39,10.28-6.77-.25-20.66-24.63-12-27.52h0Z"/>
  <path d="M262.27,72.55c19.03-5.78,7.25,30.9-8.12,26.45-11.65-3.37,4.43-25.33,8.12-26.45Z"/>
  <path d="M101.38,244.79c15.65-5.54,12.08,30.14,2.26,30.8-11.17.75-8.51-28.59-2.26-30.8Z"/>
  <path d="M272.85,194.41c11.39-3.39,19,23.88,7.75,26.48-12.92,2.99-14.45-24.48-7.75-26.48Z"/>
  <path d="M428.03,213.12c15.88-3.66,9.54,26.37-5.67,23.23-11.17-2.3-.43-21.82,5.67-23.23Z"/>
  <path d="M343.53,190.32c13.03-1.52,7.05,29.06-6.51,24.87-10.39-3.21.13-24.13,6.51-24.87Z"/>
  <path d="M63.18,255.36c9.26-3.26,28.21,24.63,6.45,22.54-9.17-.88-13.86-19.93-6.45-22.54h0Z"/>
  <path d="M155,430.06c1.27-.46,4.03-.4,5.35.01,1.79.56,16.12,18.03,11.14,22.16-11.88,9.84-25.99-18.72-16.49-22.17Z"/>
  <path d="M415.85,378.04c13.25-3.37-11.19,36.09-13.61,22.94-.5-2.71,10.75-22.21,13.61-22.94Z"/>
  <path d="M193.22,430.05c11.96-3.56,12.34,21.9-.58,16.47-4.71-1.98-4.68-14.91.58-16.47Z"/>
  <path d="M237.9,433.32c10.78-3.49,14.38,11.16,5.15,14.07-12.05,3.8-11.4-12.05-5.15-14.07Z"/>
</svg>