<?xml version="1.0" encoding="UTF-8"?>
<svg id="Layer_1" xmlns="http://www.w3.org/2000/svg" version="1.1" viewBox="0 0 512 512">
  <!-- Generator: Adobe Illustrator 29.5.1, SVG Export Plug-In . SVG Version: 2.1.0 Build 141)  -->
  <path d="M189.88,118.74c11.35-11.47,29.23-19.7,44.75-13.29,4.6,1.9,15.66,10.19,17.85,10.6,7.99,1.51,15.02-7.7,23.67-8.66,5.95-.66,15.49.68,21.17,2.55,4.77,1.57,8.11,6.02,12.76.54,9.28-10.93,10.29-26.98,29.34-26.04,12.93.63,23,5.76,31.17,15.46,8.78,10.43,19.05,33.54,21.95,46.81.78,3.57.38,9.77,1.59,12.64,1.32,3.14,13.42,13.96,16.66,18.91,3.69,5.66,4.98,15.91,11.54,18.5,3.31,1.31,9.01.79,13.26,1.76,27.1,6.16,33.06,43.98,30.45,67.13-1.21,10.68-9.55,25.95-18.01,32.58-2.92,2.28-8.84,2.79-6.68,8.35,1.8,3.59,18.22-1.77,12.41,9.24-3.64,6.9-12.76,6.24-15.5,11.36-2.28,4.27.38,10.7-1,16.39-1.1,4.51-7.26,14.36-12.9,11.61-6.51-3.17-.18-27.93-5.26-29.56-2.57-.82-6.9,4.52-9.5,6.1-7.64,4.64-16.14,3.51-18.99,13.42-2.25,7.8-3.2,17.22-.07,24.9,4.77,11.72,20.8.39,23.23,9.24,3.87,14.09-31.59,9.7-38.7,10.39-3.5.34-11.61,1.29-8.44,6.66.64,1.08,10.22,8.98,11.63,9.71,3.49,1.8,14.8,2.66,15.71,4.05,3.61,5.51-5.42,13.81-10.48,14.87-9.73,2.03-13.68-7.14-19.97-12.08-6.31-4.94-22.24-9.22-29.8-6.08-12.39,5.15-9.67,22.43-20.59,25.25-12.12,3.13-30.61.79-43.24.17-7.56-.37-13.22-.72-20.67-1.46-8.65-.86-15.55,3.33-23.64,3.14-4.16-.1-6.01-2.5-9.47-2.5-6,0-9.26,9.19-16.61.87-7.4-8.37-9.73-17.85-23.75-16.64-13.22,1.14-13.1,22.6-23.49,20.45-12.33-2.56,2.07-25.36,7.74-29.88,12.18-9.72,31.16-6.24,42.28,3.53,3.38,2.97,4.72,6.74,7.49,9.9,7.63,8.67,10.67,1.65,20.57.79,19.02-1.65,38.58,1.07,57.68-.02,4.04-.23,16.77-1.47,19.41-3.51,3.87-6.46,10.21-13.99,13.53-20.46,3.93-7.67,3.5-16.12,2.14-24.54s-4.4-12.18-12.69-14.17c-10.18-2.45-9.6,6.14-15.7,10.09-3.69,2.39-10.35,2.18-11.08,7.91-.44,3.47,1.52,12.68,3.33,15.73,3.56,5.99,10.14,3.29,13,6.76,7.82,9.5-15.79,13.13-21.83,11.56-9.8-2.56-7.46-15.21-9.02-22.59-2.42-11.41-10.3-23.8-21.23-28.56-6.71-2.92-20.13-4.69-21.06,5.39-.26,2.79,3.25,15.09,4.3,18.48.59,1.89,1.17,4.68,2.7,5.99,3.38,2.9,13.24.91,11.93,8.58-1.05,6.15-16.1,5.98-20.58,4.81-10.64-2.78-11.33-22.13-13.47-30.79-3.45-13.94-10.74-24.46-20.09-35.24-3.01-3.47-6.5-7.18-11.1-3.17-5.34,4.66-1.67,22.57.45,28.83,3.16,9.33,16.03,4.02,17.32,12.74,1.36,9.22-7.92,6.11-13.69,6.76-7.64.86-32.29,9.8-30.58-5.27.61-5.36,8.89-5.07,9.46-14.32.2-3.25-2.25-22.12-3.29-24.96-1.54-4.22-14.97-14.29-19.23-14.81-6.61-.81-7.1,3.58-6.44,8.87.54,4.32,3.92,19.16,6.47,21.97s12.38,8.1,8.41,13.08c-2.15,2.7-12.23-.11-16.21.39-6.25.78-12.86,6.5-19.72,2.99-3.94-2.01-5.72-7.71-4.03-11.74,2.13-5.11,13.99-2.47,12.88-12.06-.4-3.44-8.8-17.28-11.3-20.38-7.65-9.5-28.75-12.88-32.46-25.24-2.92-9.72,6.09-17.06,2.39-27.69-4.12-11.86-10.54-21.63-11.48-35.16-1.63-23.5-.21-42.18,21.11-55.63,6.31-3.98,13.26-2.84,17.3-10.37,4.52-8.42,4.92-25.69,7.69-35.78,1.92-6.97,5.67-12.71,7.32-19.55,2.28-9.48,2.97-21.24,5.93-30.43,1.13-3.51,3.55-7.66,7.51-8.3,12.43-2.01,11.54,7.41,15.23,15.51,2.44,5.36,6.13,10.27,8.43,15.28,2.85,6.23,3.54,13.32,6.59,19.49,9.9,20.06,16.03-.77,23.34-8.16h-.03ZM338,102.05c-8.9,1.51-13.71,20.99-19.94,28.28-9.85,11.53-10.82,4.83-19.9-1.46-6.85-4.74-10.86-6.67-19.63-5.67-7.79.89-27.61,17.49-15.44,21.77,2.77.98,13.04,1.91,16.25,1.94,9.85.09,20.82-4.06,30.02-4.02,4.86.02,9.69,2.64,14.31,3.15,6.21.69,24.4-.95,27.56,6.42,3.5,8.15-9.88,9.37-14.96,9.5-7.43.19-12.81-2.69-19.77-3.22-8.78-.67-15.54,1.79-23.75,2.39-17.26,1.25-32.22-4.55-49.81-3.18-2.44.19-9.92,1.19-10.57,3.73-.27,1.05,4.68,7.66,5.85,8.95,4.72,5.23,11.33,7.1,18.28,7.8,26.77,2.69,54.34-1.33,80.56.07,3.28.17,7.2,1.71,10.25,1.68,7.94-.09,11.8-9.78,16.18-14.71,6.38-7.19,12.29-5.23,10.88-17.17-1.41-11.9-9.96-33.11-19.63-40.44-4.27-3.24-11.31-6.74-16.73-5.82h0ZM138.8,114.63c-3.07.85-6.73,8.59-7.47,11.56-.95,3.79-.6,7.79-1.22,11.42-1.9,11.1-7.29,22.78-7.74,34.2-.21,5.26,1.59,7.94,5.63,11.02,13.48,10.26,16.22-1.62,23.64-9.45,6.32-6.67,9.76-3.13,8.62-15.69-.63-6.86-10.23-34.19-14.52-39.23-1.59-1.86-4.25-4.58-6.94-3.83h0ZM217.85,118.66c-4.53.76-17.97,9.49-20.75,13.23-4.67,6.28-1.13,9.06,5.13,10.71,7.1,1.87,14.54.94,21.79,1.13,4.63.12,22.5,3.41,22.56-4.3.02-2.65-6.94-12.68-9.16-14.64-4.55-4.04-13.58-7.14-19.57-6.13ZM189.37,154.21c-4.55,1.04-6.23,7.2-6.15,11.29.18,9.47,8.46,13.13,13.9,19.36,2.83,3.25,6.8,12.38,11.67,10.94,5.5-1.63,8.21-19.73,9.83-24.98,1.3-4.21,6.32-8.79.67-11.28-4.78-2.11-25.3-6.37-29.92-5.32h0ZM378.28,175.55c-1.49.34-2.76,1.46-3.73,2.59-2.44,2.81-7.61,11.14-9.8,14.7-5.24,8.53-16.31,29.59-10.61,38.94,3.81,6.25,9.71.58,13.31-3.04,4.77-4.79,12.14-13.59,16.58-18.99,1.87-2.28,12.67-16.26,13.1-17.73,2.75-9.29-10.35-18.39-18.84-16.46h-.01ZM165.7,186.61c-4.92.7-14.45,11.72-15.45,16.2-.7,3.1,1.15,18.16,2.64,20.74,4.67,8.11,13.27-8.75,15.39-11.41,1.99-2.49,12.94-13.36,13.26-14.41,2.34-7.68-9.91-11.98-15.83-11.13h0ZM251.03,190.57c-6.39,1.47-5.76,9.31-5.29,14.44.5,5.45,4.48,20.02,10.92,10.94,2.06-2.9,9.25-17.36,8.85-20.37-.61-4.61-10.83-5.85-14.48-5.01h0ZM300.9,192.15c-14.9.83-7.43,19.47.15,15.22.72-.41,5.96-8.59,6.19-9.65.96-4.42-2.62-5.78-6.34-5.57ZM101.65,193.74c-10.3,2.12-16.35,17.86-17.16,27.1-.54,6.19,1.94,25.39,4.84,30.71,4.19,7.68,13.08.13,19.48-1.65,5.65-1.57,10.78-2.49,16.61-1.25s10.29,6.35,16.26,3.29c8.02-4.1-.79-12.56-2.49-17.07-2.11-5.6-2.55-12.15-5.03-17.89-1.74-4.01-8.67-15.04-11.4-18.64-4.23-5.58-14.71-5.93-21.11-4.61h0ZM227.31,199.18c-3.48.91-7.28,12.05-9.1,15.48-1.55,2.92-4.14,5.15-5.58,8.64-2,4.85-2.27,10.33-4.54,15.22-4.95,10.63-18.42,15.52-12.3,29.08,7.58,16.78,14.5,6.93,26.03,4.41,4.68-1.02,7.57-.18,11.58-.27,9.04-.2,7.83-13.32,7.62-20.12-.4-13.13-4.05-20.22-6.78-31.95-.9-3.85-1.42-21.92-6.93-20.49ZM318.72,211.23c-8.13,8.23-13.63,20.78-8.33,31.88,3.64,7.64,6.78,5.46,12.73,2.15,5.62-3.13,11.26-6.72,12.66-13.42.89-4.25,2.19-20.32,1.29-24.11-2.21-9.32-14.46-.44-18.35,3.49h0ZM428.9,215.89c-3.14.81-5.32,5.05-6.35,7.87-7.5,20.59-7.28,36.62.45,56.91,6.4,16.81,20.04,6.7,25.63-4.75,5.06-10.36,4.15-26.99,1.42-38.11-2.04-8.33-10.8-24.61-21.15-21.93h0ZM263.35,291.34c3.17,3.91,12.25-.51,16.76-.56,8.56-.08,16.84,7.09,22.69-2.6,8.75-14.5.01-20.78-5.29-32.98-5.51-12.67-7.55-23.43-16.03-35.35-3.39-4.76-5.68-4.63-8.48.59-5.36,10-5.52,24.34-6.83,35.07-.88,7.22-6.95,30.74-2.82,35.84h0ZM163.29,249.84c-4.29,1.28-9.63,13.55-10.63,17.82s-3.47,17.83-3.39,21.89c.19,9.07,6.55,9.74,11.44,2.76,4.36-6.22,4.19-15.98,11.23-20.39,2.45-1.54,7.45-2.07,8.19-6.07,1.33-7.21-8.98-18.35-16.83-16.01h0ZM390.17,256.96c-4.93.82-14.9,13.69-17.33,18.27-3.18,6.01-5.19,12.99-4.6,19.89.36,4.24,3.85,16.42,6.67,19.41.87.93,13.39,7.96,14.64,8.29,7.75,2.06,12.62-2.11,15.98-8.58,6.54-12.59,4.15-28.02-.58-40.81-2.32-6.29-6.45-17.85-14.78-16.46h0ZM115.1,264.1c-11.98,2.04-20.09,21.63-16.83,32.26,1.58,5.15,20.66,13.46,26.13,13.45,4.11,0,10.1-2.16,10.66-6.85.27-2.27-.86-4.13-.85-6.25.07-9.22,7.41-20.55-2.36-27.62-4.36-3.16-11.36-5.91-16.76-5h.01ZM329.35,285.41c-8.2.78-14.24,11.86-16.82,18.82-2.77,7.46-1.15,7.83-1.13,14.61.02,5.07-2.72,9.2-1.28,14.65.64,2.43,9.75,12.95,11.98,14.1,2.99,1.55,4.83.95,7.84.14,4.1-1.1,20.51-8.06,23.54-10.44,11.96-9.44,4.81-28.36-2.32-38.51-5.56-7.92-10.95-14.38-21.82-13.35v-.02ZM224.19,287.03c-5.68.77-16.88,8.57-19.73,13.46-3.41,5.84-8.03,26.78,3.67,25.03,3.73-.56,14.17-13.08,17.42-16.58,1.16-1.25,2.84-1.86,4-3.11,1.42-1.53,6.23-8.06,6.87-9.74,2.71-7.09-6.66-9.81-12.23-9.05h0ZM279.52,306.76c-4.72.67-13.7,6.46-16.81,10.1-7.85,9.18-10.97,29.33,1.8,35.36,7.9,3.73,17.62,4.59,23.11-3.34,6.78-9.79,12.79-34.1-.5-40.62-2.61-1.28-4.65-1.92-7.6-1.51h0ZM370.4,340.7c-1.85.47-8.02,6.11-10.62,7.63-12.73,7.46-22.25,4.63-20,24.26.48,4.17,2.29,7.01,6.7,7.53s18.36.36,22.33-1.41c3.75-1.68,4.67-5.52,4.98-9.25.51-6.02.66-18.68-.01-24.55-.21-1.87-.86-4.85-3.39-4.21h.01Z"/>
</svg>