<?xml version="1.0" encoding="UTF-8"?>
<svg id="Layer_1" xmlns="http://www.w3.org/2000/svg" version="1.1" viewBox="0 0 512 512">
  <!-- Generator: Adobe Illustrator 29.5.1, SVG Export Plug-In . SVG Version: 2.1.0 Build 141)  -->
  <path d="M364.28,208.31c3.97-2.9,11.81-2,14.29,2.62,5.43,10.14-6.69,21.2,1.9,28.1,3.64,2.92,24.41,7.49,30.78,10.22,17.55,7.52,49.53,39.7,61.71,55.28,1.56,2,11.94,16.96,12.01,18.04.44,6.96-10.05,19.73-18.34,19.37-1.26-.05-21.93-5.87-24.39-6.69-14.88-5.01-31.2-14.29-40.47-27.52-14.62-20.87-13.76-51.71-46.29-50.75-15.8.46-42.71,16.95-54.42,27.56-1.63,1.48-17.37,19.81-17.91,21.08-4.11,9.65,7.5,25.51,16.37,25.5,4.18,0,19.34-12.34,27.28-14.84,16.59-5.23,31.58-1.93,44.77,9.66,2.03,1.79,22.08,25.64,22.68,27.3,2.13,5.85-2.73,14.81-8.2,16.32-8.45,2.33-11.54-7.86-17.11-12-3.61-2.68-30.71-21.13-32.65-21.33-11.28-1.11-22.28,15.59-31.94,20.59-20.96,10.85-54.15-9.1-69.34-24.32-7.34-7.36-16.4-27.41-24.47-28.53-15.27-2.1-52.46,14.06-62.48,25.55-6.12,7.02-11.97,23.24-22.8,24.27-17.31,1.65,4.83-31.19,8.35-35.72,12.97-16.66,60.59-33.81,81.89-33.04,17.73.64,34.59,13.31,44.3,13.78,9.28.45,31.95-30.55,39.67-37.85,6.78-6.42,23.35-12.63,23.58-22.39.13-5.56-8.99-22.61,5.35-21.53,13.95,1.05,6.09,25.09,22.89,20.74,10.64-2.75,8.37-26.08,13.01-29.47Z"/>
  <path d="M306.76,69.29c25.05-2.82,60.06,24.8,78.23,41.23,5.34,4.82,19.23,20.09,16.04,27.05-.51,1.11-8.81,7.75-10.02,8.03-11.94,2.82-52.6-8.67-63.69-15.42-30.83-18.77-4.19-52.78-57.3-31.63-4.55,1.81-13.38,6.02-17.33,8.67-6.38,4.29-25.7,22.09-21.76,29.36,5.08,5.11,30.8,27.14,32.56,31.45,6.35,15.53-12.69,21.99-24.98,20.95-9.1-.77-35.41-13.38-42.84-19.15-23.67-18.39-1.89-49.28-47.05-43.71-25.07,3.1-45.68,45.04-57.04,42.88-13.47-2.56,7.79-25.91,11.46-30.46,3.95-4.89,23.61-23.16,24.2-24.79,3.55-9.63-8.8-27.5,8.13-25.67,9.76,1.06,7.31,8.85,10.78,14.27,5.23,8.18,13.09,4.31,20.69,6.31,7.1,1.86,42.53,14.8,45.65,14.44,5.74-.66,18.55-22.48,26.02-28.06,15.05-11.24,49.73-23.68,68.23-25.76Z"/>
  <path d="M311.09,457.87c6.63,4.11,11.17-13.99,13.05-16.25,5.9-7.11,15.99-4.26,15.93,5.84-.02,2.7-16.19,35.03-17.64,36.44-9.17,8.82-15.26-1.39-21.42-3.45-28.21-9.44-32.45-7.97-52.98-32.01-3.65-4.27-6.31-12.8-9.97-16.02-11.6-10.22-44.19,8.31-52.59,18.52-4.12,5.02-10.58,26.4-21.86,18.93-16.98-11.25,26.06-46.37,27.2-50.62,2.73-10.15-19.52-24.21-9.84-32.81,10.37-9.2,16.04,10.18,20.51,15.57,12.51,15.08,17.3,5.42,32,5.9,28.25.92,49.55,8.9,67.54,31.54,3.19,4.02,9.17,17.87,10.06,18.43Z"/>
  <path d="M121.74,225.23c13.38-4.29,12.29,8.19,10.56,16.55-1.14,5.54-15.67,36.31-19.05,37.93-9.18,4.4-15.56-2.58-13.99-11.98.35-2.07,17-36.02,18.21-37.79s2.07-4.01,4.27-4.72Z"/>
  <path d="M69.75,232.22c19.73-4.67,23.05,47.53,6.64,46.76-8-.38-3.85-14.27-4.65-20.19-1.11-8.25-13.93-23.74-1.99-26.57Z"/>
  <path d="M255.8,24.23c16.61-.59-1.83,32.34-7.52,33.58-21.62,4.74-9.39-32.99,7.52-33.58Z"/>
  <path d="M32.77,249.17c8.63-1.58,24.84,14.08,24.31,23.3-1.61,27.98-43.82-19.73-24.31-23.3Z"/>
  <path d="M362.78,441.19c19.36-1.46,4.55,34.05-10.82,30.3-16.84-4.1,3.88-29.78,10.82-30.3Z"/>
  <path d="M212.72,28.24c11.54-4.64,25.02,24.88,11.55,28.6-7.75,2.14-17.77-26.1-11.55-28.6Z"/>
</svg>