<?xml version="1.0" encoding="UTF-8"?>
<svg id="Layer_1" xmlns="http://www.w3.org/2000/svg" version="1.1" viewBox="0 0 512 512">
  <!-- Generator: Adobe Illustrator 29.5.1, SVG Export Plug-In . SVG Version: 2.1.0 Build 141)  -->
  <path d="M273.22,72.49c8.96-.44,10.76,7.67,15.47,13.07,12.92,14.81,29.79,13.79,45.69,20.54,8.67,3.68,11.92,10.11,21.99,12.78,5.6,1.48,14.3,2.81,20.07,2.25,9.44-.91,16.42-9.65,25.07-10.54,5.89-.61,9.63,3.36,6.35,8.87-.55.93-14.41,14.07-15.68,14.94-3.99,2.74-10.65,3.94-15.57,6.78-8.13,4.69-19.4,14.8-13,25.09,2.48,3.99,26.88,18.02,32.4,20.58,12.29,5.72,25.26,4.41,37.71,9.48,5.89,2.4,27.23,14,31.99,17.68,14.78,11.45-6.14,15.19-13.23,18.75-23.39,11.72-78.41,43.77-64.42,76.29,7.32,17.02,51.47,14.42,55.5,27.28,3.56,11.37-14.52,14.25-21.91,18.74-5.46,3.31-9.68,8.35-14.69,11.8-26.63,18.33-49.01,31.04-66.34,60.32-4.92,8.32-3.82,15.64-15.85,17.26-8.19,1.11-17.14-3.12-25.41-4.48-13.34-2.19-26.93-2.74-40.34-4.37-15.45-1.87-28.31-5.99-44.72-3.93-6.26.78-9.92,5.23-16.62,4.88-7.82-.41-11.74-5.14-17.84-7.87-14.31-6.42-28.65-3.5-43.44-5.4-16.2-2.09-17.58-13.83-.88-14.91,6.6-.43,13.02,1.87,19.53.49,3.35-.71,10.37-6.51,14.56-8.62,7.13-3.58,15.21-5.16,22.12-8.51,5.22-2.54,32.97-23.31,34.67-27.41,2.47-5.95-1.65-7.9-6.38-9.76-14.8-5.83-31.46-8.05-46.79-14.47-13.35-5.59-32.26-17-45.09-21.14-13.71-4.42-30.76-6-44.5-10.14-5.36-1.61-31.97-12.98-35.44-15.88s-5.57-8.58-1.13-11.1c7.94-4.5,18.46,4.36,25.75,1.74,3.5-1.26,8.09-7.14,11.89-9.63,5.75-3.76,12.98-5.51,18.58-8.74,6.76-3.9,18.24-12.26,25.15-17.07,17.77-12.37,14.88-17.52-3.77-25.88-8.13-3.65-14.63-4.13-22.28-6.7-4.22-1.42-7.86-5.69-11.73-6.48-8.2-1.66-28.53,1.69-32.4-5.67-7.21-13.71,22.82-8.57,29.3-9.4s10.95-7.85,16.2-11.12c4.2-2.62,9.1-3.88,13.43-6.44,10.92-6.46,21.62-15.28,32.61-22.03,4.75-2.92,10.81-4.8,15.42-7.76,26.92-17.33-14-18.11-23.03-24.69-8.84-6.45-10.94-10.49-23.38-13.04-4.31-.88-15.59,1.03-15.71-6.25-.17-10.42,12.01-9.61,19.12-8.75,9.56,1.15,18.81,7.08,28.19,5.64,2.45-.38,5.71-2.24,8.72-2.87,29.99-6.3,61.6-10.75,91.14-17.31,7.12-1.58,15.68-6.54,22.97-6.89ZM169.26,269.98c.26.5,4.45,2.31,5.39,2.47,10.77,1.85,39.24,1.5,51.17,1.05,8.15-.3,16.78-2.81,24.82-3.33,22.52-1.46,46.16-.26,68.65-.82,6.29-.16,13.58-2.71,19.93-3.32,14.87-1.44,38.49,2.88,50.82-6.3,7.4-5.51,18.98-15.56,26.13-21.88,6.65-5.88,6.41-10.44-3.29-11.57-10.19-1.19-34.31-.98-44.73-.03-9.52.87-20.68,6.52-29.79,7.47-17.26,1.79-35.69-.44-53-.02-6.17.15-27.67,3.28-31.83,1.27-3.28-1.58-1-4.85,1.34-6.1,9.78-5.21,42.51-1.67,55.39-2.56,7.04-.49,15.07-2.66,22.34-3.32,12.84-1.17,37.07-.89,48.61-5.2s-3.83-11.42-8.86-13.06c-4.61-1.5-28.78-6.61-33.15-6.67-10.66-.13-22.09,4.98-32.3,5.85-9.59.82-20.78-.78-30.59.04s-19.14,4.55-28.27,5.67c-2.47.3-20.89,1.19-21.85.54l-.74-2.42c.8-2.65,13.29-3.3,16.5-4.21,15.8-4.45,23.96-8.5,41.76-9.57,14.87-.89,29.16-2.16,43.92-3.27,5.22-.39,17.24.9,20.89-.64,8.78-3.69-5.88-15.09-3.9-21.23,1.67-5.99,10.43-22.9,9.91-28.15-1.02-10.26-22.01-8.67-29-9.97-7.36-1.37-15.45-8.62-23.79-10.98-10.83-3.05-39.63-2.43-50.06,1.62-6.87,2.67-6.9,5.58-15.97,4.8-10.69-.92-12.94-11.11-24.75-9.08-12.76,2.19.67,29.59,8.75,31.72,4.81,1.26,12.69,2.6,17.91,3.61,2.1.41,13.97-.02,13.44,3.1-1.07,6.31-25.65,2.36-31.03,2.92-5.01.52-16.97,4.25-21.07,7.08-2.41,1.66-8.21,6.8-4.68,9.54,2.06,1.6,32.64.59,38.19.72,6.64.16,14.87,1.74,21.45,1.73,7.41-.01,34.24-4.34,38.6,1.13,2.67,3.35-1.43,3.84-4.02,4.39-17.3,3.7-24.52,1.1-40.55-1.22-9.91-1.43-15.38.75-24.64,1.43-17.36,1.28-34.87,1.86-52.12,3.35-6.33.55-29.42,9.06-34.32,12.87-8.8,6.85,6.51,15.13,11.92,18.59,15.57,9.95,33.28,14.2,25.43,37.8-1.28,3.85-7.02,10.22-4.93,14.16ZM358.48,274.54c-43.6,2.84-87.43,5.1-131,6.34-12.71.36-22.75-.67-34.81-.86-10.58-.17-22,2.01-33.15,1.75-3.28-.08-7.52-1.68-10.64-1.59-8.68.24-25.85,9.96-31.16,16.88,0,4.64,18.27,8.85,22.18,9.31,25.7,2.98,44.86-2.19,69.34-4.74,42.09-4.38,84.64-5.19,126.62-8.3,9.44-.7,24.14-1.47,31.46-7.47,11.05-9.06.61-11.94-8.84-11.32ZM317.93,304.35c-12.54.97-16.48,1.27-29.24.59-19.07-1.02-38.85,6.37-58.75,5.77-3.65-.11-8.83-1.58-12.43-1.63-8.16-.11-28.85,3.38-36.24,6.8-1.98.92-4.24,1.98-4.76,4.37,0,1.47,3.45,4.36,4.71,5.24,14.36,9.98,34.16.89,50.37.98,23.02,3.8,46.39-8.98,67.11-11.53,12.26-1.51,25.12,1.12,37.58-3.82,1.85-.74,5.77-2.45,4.98-4.91-1-3.11-19.78-2.13-23.33-1.86ZM361.8,316.77c-10.62.54-20.52,4.3-30.89,5.52-14.91,1.76-29.5.39-44.45,4.39-7.47,2-13.9,5.69-21.99,6.99-6.69,1.08-21.69.06-26.29,2.68-4.34,2.46-2.62,4.16.02,6.67,6.12,5.82,26.65,12.91,28.4,20.44s-1.83,15.15-5.77,21.19c-3.72,5.7-19.44,18.28-4.32,20.36,9.67,1.33,34.54-1.43,45.44-2.43,9.93-.91,28-6.08,38.72-8.46,5.55-1.23,20.34-12.15,23.77-16.8,11.19-15.19-13.25-4.04-17.74-2.84-12.24,3.27-24.98,1.31-37.18,2.56-8.67.89-24.44,10.85-28.71-.48,0-1.01.68-1.48,1.27-2.14,5.32-5.96,43.41-5.63,53.93-8.15,7.31-1.75,28.9-12.71,34.23-10.43,6.49,2.77,2.29,12.08,16.5,3.21,2.38-1.49,17.2-13.56,9.61-14.42-10.33,1.69-21.86,5.28-32.27,5.84-9.93.53-20.38-1.41-30.69-.89-9.57.48-20.93,3.68-30.65,2.57-6.54-.75-7.58-6.38-.84-8.4,20.7-6.19,54.99,1.79,74.74-8.04,6.29-3.13,2.73-9.63-.59-13.83-4.61-5.81-7.26-5.49-14.24-5.13ZM318.75,407c-16.59.5-32.7,4.57-49.11,6.35-2.43.26-18.33-1.72-12.43,4.19,2.48,2.49,31.16,5.01,37.04,6.01,7.39,1.25,13.97,5.09,21.72,3.83,5.96-.96,14.52-11.39,12.71-17.56-1.26-4.3-6.72-2.93-9.92-2.83Z"/>
  <path d="M288.9,142.04c6.45-1.1,20.61-.18,16.33,9.72-1.52,3.52-14.63,4.64-18.21,4.17-9.86-1.29-7.28-12.33,1.88-13.89Z"/>
  <path d="M192.02,233.91c4.19-1.22,20.93-.83,22.99,3.99,4.38,10.29-22.91,9.06-26.11,3.76-1.78-2.95.14-6.88,3.12-7.75Z"/>
</svg>