<?xml version="1.0" encoding="UTF-8"?>
<svg id="Layer_1" data-name="Layer 1" xmlns="http://www.w3.org/2000/svg" viewBox="0 0 512 512">
  <path d="M217.94,66.94c4.17-.86,7.73,1.13,10.46,4.16,3.23,3.59,10.06,15.67,13.25,20.65,6.94,10.82,13.25,22.29,20.8,32.82,5.07,7.08,15.02,22.13,24.68,20.23,5.76-1.13,15.56-25.35,19.48-30.98,2.42-3.48,5.97-6.92,10.5-6.91,2.79.01,14.26,4.3,17.24,5.68,11.1,5.14,8.03,14.48,11.13,24.35,3.76,11.94,22.83,30.36,33.78,36.4,7.81,4.31,18.2,5.78,25.18,9.51,7.76,4.15,5.47,10.75,2.96,17.58-4.8,13.05-13.61,23.84-28.35,16.49-20.14-10.04-49.45-38.56-56.6-60.1-2.94-8.86-2.54-23.76-14.44-10.84-4.68,5.08-9.54,12.58-8.67,19.75,1.11,9.16,19.17,23.79,26.05,29.93,21.15,18.89,45.03,38.26,67.86,55.14,7.72,5.7,15.77,9.53,23.17,16.25,6.06,5.5,18.82,18.89,8.56,25.87-6.03,4.1-13.83,8.66-21.15,8.01-14.73-1.32-16.1-.33-30.07,1.49-13.96,1.81-38.49,1.2-51.72-3.28-15.99-5.41-40.99-31.14-51.41-44.79-30-39.29-33.89-93.79-50.89-139.13-5.14-13.7-10.48-7.06-16.13,1.28-6.41,9.47-13.48,23.85-18.5,34.33-2.38,4.97-3.33,11.17-6.25,15.82-2.26,3.6-8.24,7.43-8.81,11.74s5.25,9.42,7.72,13.49c5.09,8.38,10.51,19.11,11.22,28.99.61,8.46-3.38,20.51-1,27.81.63,1.95,9.72,13.82,11.61,15.99,7.52,8.62,14.29,9.19,21.7,20.88,3.01,4.75,5.81,16.65,13.29,8.57,4.7-5.08,8.13-19.33,12.57-26.06,5.09-7.7,11.88-7.45,18.28-1.42,9.9,9.32,20.19,26.19,29.2,37.04,17.75,21.38,39.57,39.71,61.11,57.16,4.78,3.87,17.35,10.31,17.77,16.2.74,10.55-17.3,26.47-14.85,38.44,1.04,5.06,20.71,21.44,7.75,25.45-8.98,2.78-20.11-7.73-25.68-13.83-25.78-28.24-47.33-60.35-63.35-95.14-4.7-10.21-7.18-24.61-14.32-32.99-6.62-7.76-11.51-1.61-15.59,4.87-4.12,6.53-14.86,25.71-17.26,32.41-4.98,13.89,9.28,10.22,18.51,12.55,11.16,2.81,18.72,10.87,21.24,22.13,1.12,4.99.4,11.68,3.01,15.91s10.48,6.75,14.8,9.64c7.86,5.25,20.29,15.15,27.36,21.53,4.05,3.65,12.6,10.61,8.72,16.63-5.79,8.97-16.75-6.32-20.97-9.89-2.96-2.5-17.88-13.45-20.66-14.04-11.93-2.51-9.85,9-18.98,9.9-3.83.38-11.65-1.39-14.74-3.78-6.77-5.25-4.98-19.27-5.93-27.19-.58-4.84-2.16-19.84-4.71-22.89-4.29-5.15-8.6-.27-12.4,1.03-3.97,1.36-9.87,1.9-13.25,4.1-2.23,1.45-13.72,14.94-16.56,18.13-6.53,7.35-11.12,17.99-22.86,18.2-6.14.11-9.73-4.78-6.27-10.27,1.86-2.95,11.62-9.41,14.96-12.63,22.45-21.62,11.08-40.3,9.06-66.66-.91-11.92,2.46-34.5-4.75-44.14-5.32-7.1-15.4-1.18-23.41-4.97-7.19-3.4-7.16-9.15-5.53-16.09,2.54-10.79,14.7-34.79,8.77-44.71-4.77-7.99-13.96,4.55-17.72,7.38-11.16,8.38-20.68,16.9-30.32,27.24-5.4,5.79-17.6,24.51-25.94,23.66-5.79-.59-7.73-8.68-4.41-13.01,8.41-8.97,18.46-16.2,26.83-25.21,11.25-12.1,18.57-26.46,27.71-40.1,4.48-6.69,18.24-22.12,18.73-29.42.77-11.51-17.11-12.65-25.22-10.97-12.33,2.56-19.27,18.1-28.41,24.42-3.12,2.16-6.63,3.7-9.4.09-3.04-3.98-.07-8.49,1.97-12.25,10.99-20.36,31.57-29.84,54.41-27.58,10.92,1.08,16.55,12.72,24.98-1.06,10.57-17.28,18.24-37.36,29.19-55.17,2.22-3.61,5.41-8.91,9.89-9.83Z"/>
</svg>