<?xml version="1.0" encoding="UTF-8"?>
<svg width="512" height="512" id="Layer_1" xmlns="http://www.w3.org/2000/svg" version="1.1" viewBox="0 0 512 512">
  <!-- Generator: Adobe Illustrator 29.5.1, SVG Export Plug-In . SVG Version: 2.1.0 Build 141)  -->
  <path d="M240.27,67.97c17.8-4.12,18.31,28.16,20.6,38.21,2,8.74,5.91,16.95,8.4,25.49,3.31,11.38,2.31,30.26,14.7,35.77,20.83,9.26,37.28,6.47,53,27.75,21.8,29.51,8.68,47.48-4.08,77.15-2.31,5.37-7.87,11.1-8.71,16.53-1.01,6.49,3.85,51.12,6.59,56.73,10.24,21,76.55,9.21,57.52,51.37-12.1,26.81-64.07,38.45-90.56,41.38-8.24.91-17.49-2.58-26.59-2.08-27.98,1.54-32.22,12.47-66.72,4.67-64.43-14.56-59.71-60.15-48.54-112,2.59-12.01,13.37-33.82,7.04-45.51-5.49-10.15-15.11-13.34-21.06-29.41-4.5-12.14-14.72-51.32-8.1-61.83,11.77-18.66,42.15-19.7,57.69-27.4,10.42-5.16,33.4-57.07,37.7-69.74,2.25-6.64,2.51-25.1,11.12-27.09ZM241.73,113.37c-3.81.95-7.79,15.04-9.2,18.97-6.32,17.62-13.11,51.95-20.25,66.27-5.15,10.33-18.18,2.64-14.52,13.24,4.93,14.26,47.96,12.24,60.36,10.97,4.63-.47,18.6-3.57,19.7-9.16,3.06-15.5-29.24,4.05-32.17-7.94-2.34-9.58,26.68-8.18,24.43-22.21-2.03-12.63-21.71,5.74-25.13-3.72s14.12-9.24,13.44-18.64c-.68-9.45-16.94.73-19.23-8.07-1.68-6.45,11.71-10.27,12.86-18.56.69-4.96-3.65-22.81-10.29-21.15ZM173.95,184.08c-5.99.91-27.11,12.94-28.48,19.1-1.26,5.63,7.87,49.22,10.84,55.15,7.47,14.92,41.11,29.04,56.73,31.96s77.32-5.65,92.58-12.75c15.12-7.04,27.84-47.33,14.53-61.19-4.17-1.59-17.98-17.78-20.33-17.91-11.14-.63,10.37,12.02,11,12.82,5.36,6.81-2.67,14.33-4.51,20.82-1.56,5.53-2.85,29.39-12.67,26.67-7.35-2.03-3.33-14.91-8.9-17.79-3-1.55-15.2-2.07-18.59-1.46-12.67,2.27-3.01,21.24-18.61,26.1-27.34,8.52-13.81-28.32-35.55-26.96-13.56.85-.77,19.82-10.27,22.29-9.02,2.34-12.04-17.57-15.33-22.58-8.86-13.5-38.89-16.64-15.89-40.41,2.84-2.94,25.01-17.11,3.45-13.85ZM183.31,297.26c-5.93,1.81-12.62,37.36-13.98,44.41-1.81,9.37-9.79,46.11-3.54,52.1,1.93,1.84,4.02,2.21,5.8-.09,1.21-1.57,6.15-21.76,8.19-26.41,2.63-5.99,4.94-10.94,9.85-15.39,8.63-7.83,31.12-14.45,38.73-3.37,9.5,13.83,11.94,42.28,12.16,58.57.07,5.07-4.25,17.96,4.1,19.66,4.69.95,44.95-14.47,43.45-18.95-1.38-4.1-36.49,11.63-38.83-.17-1.5-7.59,22.35-9.78,27.85-11.54,3.27-1.04,43.03-12.56,30.13-20.44-7.53-4.6-45.48,15.37-57.19,11.04-19.22-7.12,26.5-13.77,28.51-14.38,4.67-1.43,33.04-12.96,27.62-19.39-5.71-6.78-45.07,19.42-55.78,14.69-4.71-2.08-5.48-7.83-1.23-10.99,6.12-4.53,33.04-5.61,39.68-13.68,8.33-10.13-21.62-4.51-25.32-3.69-4.31.95-22.08,10.72-24.34,2.75-2.55-8.99,30.08-5.28,18.99-15.34-1.18-1.07-22.46-7.41-26.82-9.23-9.32-3.91-34.62-18.4-42.04-19.96-1.87-.39-4.13-.75-5.99-.18ZM193.35,381.51c-5.71,1.53-7.67,25.87-6.63,30.98,2.4,11.73,21.41,15.22,20.47,7.72-.19-1.48-6.33-7.42-7.85-11.69-2.75-7.75-.86-20.24-3.03-25.09-.55-1.22-1.47-2.32-2.97-1.92Z"/>
</svg>