<?xml version="1.0" encoding="UTF-8"?>
<svg id="Layer_1" xmlns="http://www.w3.org/2000/svg" version="1.1" viewBox="0 0 512 512">
  <!-- Generator: Adobe Illustrator 29.5.1, SVG Export Plug-In . SVG Version: 2.1.0 Build 141)  -->
  <path d="M363,170.79c-1.16,2.04-12.46,3.29-15.45,3.49-30.71,2.02-62.44-1.83-93.16,2.14-3.83.49-20.1,3.31-20.09,8.1,3.43,7.12,15.74,10.14,23.06,8.94,9.88-1.62,13.73-3.36,25.03-1.77,4.64.65,13.09,4.3,16.29,4.15,3.77-.18,10.05-3.66,14.26-4.19,6.09-.77,16.55-.98,21.01,3.7-.04,2.38-13.01,3.71-15.64,3.84-6.87.34-14-1.79-20.05.53-4.46,3.48,8.38,7.28,9.5,11.02,3.19,10.65-10.4,10.15-16.29,11.42-4.85,1.05-25.88,4.53-27.38,7.27-1.82,3.33,5.58,4.35,7.62,4.36,17.64.05,38.07-1.67,56.29-2.18,4.4-.12,9.3-2.23,14.04-2.19s12.39,1.63,17.66,1.93c2.79,1.1,3.42,4.11,1.36,6.26-3.07,3.05-34.79,1.28-41.76,1.55-43.15,1.68-86.48,3.72-129.82,3.39-5.05.66-25.11,9.39-27.78,13.37-6.06,9.05,16.31,7.28,21.18,7.1,26.23-.96,52.78-3.46,79.02-4.37,20.48-.71,39.02,3.15,58.48,2.17,1.75-.09,14.75.01,8.51,3.09-2.57,1.27-12.51,2.14-16.05,2.36-9.96.61-20.43-.64-30.36-.03-29.14,1.76-58.42,4.14-87.68,5.45-8.54.38-22.4-.39-30.28,1.12-6.26,1.21-4.15,5.48,2.24,6.36,11.42,1.57,28.4,1.85,39.95,1.18,10.72-.63,23.39-3.81,34.71-3.28,15.22.72,33.92,4.77,48.86,5.03,5.59.1,30.85-8.83,31.83-.11.51,4.54-6.88,4.63-10.31,4.9-7.7.6-27.24-2.36-32.44,1.12-3.7,2.48.5,7.62-.85,12.14-2.08,7-26.04,8.28-32.48,9.76-5.58,1.28-28.42,6.54-31.56,8.5-1.11.69-2,1.57-2.85,2.54,1.74,1.98,4.55,2.43,7.02,2.7,28.44,3.15,60.38-4.5,89.93-4.37,14.08.06,23.68.19,37.88-1.02,5.43-.46,22.21-1.61,14.6,7.02-8.8.83-17.73,2.09-26.54,2.7-32.58,2.24-66.93,2.36-99.66,3.22-10.4.27-21.62-.52-31.35.06-5.67.34-19.06,1.57-16.6,10.03,2.11,7.25,14.02,4.05,18.71,3.99,22.92-.29,47.38-2.79,69.36-2.13,25.04.75,41.04-2.35,64.97-4.31,7.3-.6,22.77-2.27,29.21-1.06,3.9.73,7,5.39,2.67,8.03-5.75,3.5-32.82,1.16-41.61,1.7-28.75,1.77-56.26,5.24-85.62,5.45-7.88.06-16.35-1.9-24.89-1.17-4.22.36-11.52.78-8.64,6.55,1.79,3.59,30.49,13.9,35.47,12.7,12.28-2.96,16.7-2.96,29.57-3.01,19.79-.08,39.57-2.29,59.56-3.16,5.57-.24,23.4-4.34,25.28,2.89.55,4.23-4.62,5.36-7.99,5.73-13.34,1.49-29.54-.77-43.36-.04-6.53.35-18.42,1.41-24.77,2.3s-10.48,4.78-2.81,8.03c10.85,4.59,27.65,7.56,39.25,9.49,12.1,2,8.08,10.5-1.88,11.63-17.82,2.03-31.74-8.67-48.14-12.5-7.5-1.75-15.25-.93-22.74-3.25-5.83-1.81-10.05-5.9-15.56-8.26-16.94-7.28-42.81-11.96-54.25-26.97-15.7-20.62.39-33.22,18.12-42.34,4.93-2.54,17.85-5.86,3.14-9.24-20.87-4.79-40.44-1.82-56.58-19.23-9.32-10.06-13.64-17.32-1.57-27.62,26.76-22.84,62.07-29.32,96.49-34.55,4.9-.74,30.77-1.45,31.82-6.1-.19-2.59-3.06-3.77-5.1-4.63-18.44-7.78-41.73-5.47-49.87-27.02-3.01-7.98-3.29-10.03-.1-17.99,7.1-17.71,22.01-23.7,38.09-31.21,18.18-8.5,47.21-22.03,66.52-24.43,5.06-.63,12-1.7,9.83,5.46-1.55,5.11-20.1,7.45-25.55,9.13-4.27,1.32-25.15,7.79-20.37,14.44,3.8,2.06,8.76.63,13.06,1.02,5.02.45,12.46,2.17,17.22,2.05,8.13-.21,19.74-4.51,29.31-4.27,2.2.06,4.75.96,6.61,2.15,4.25,6.1-16.06,8.36-19.58,8.71-26.73,2.68-56.43.7-83.06,5.74-6,1.13-13.59,3.55-16.29,9.74-2.98,6.84,4.82,6.41,9.53,6.24,31.23-1.17,61.94-4.14,93.09-4.38,7.47-.06,17.32-1.5,23.84-1.17,3.22.16,8.04,2.33,5.72,6.4ZM246.25,287.95c-7.38-.82-19.54-5.64-23.82,2.68.38,1.72,6.16,2.43,7.82,2.42,1.57-.01,18.91-1.91,16-5.1Z"/>
</svg>