<?xml version="1.0" encoding="UTF-8"?>
<svg id="Layer_1" xmlns="http://www.w3.org/2000/svg" version="1.1" viewBox="0 0 512 512">
  <!-- Generator: Adobe Illustrator 29.5.1, SVG Export Plug-In . SVG Version: 2.1.0 Build 141)  -->
  <path d="M248.25,178.54c4-.66,5.8.15,8.64,2.89,11.85,11.43,21.8,41.68,38.59,46.4,6.21,1.75,19.96,3.9,25.54.51,1.68-1.02,10.8-9.86,13-12,5.19-5.05,21.39-25.08,27.04-26.01,6.9-1.13,9.44,6.25,10.14,11.77,1.26,9.93.33,21.02,1.29,30.7.69,6.94,3.57,10.94,9.29,14.71,13.72,9.03,37.17,14.93,50.63,24.36,2.88,2.02,7.02,6.35,7.14,9.97.27,7.64-7.66,8.52-13.63,6.52-9.57-3.21-22.04-13.57-31.42-18.57-8.38-4.47-35.64-14.6-37.81-24.19-1.22-5.41,1.98-23.22-3.21-25.85-4.5-2.27-16.11,13.18-20.06,16-13.62,9.7-36.51,8.71-51.95,4.08-10.34-3.1-11.46-10.84-16.56-18.43-2.21-3.29-9.35-14.81-11.38-16.61s-4.52-2.1-7.02-.95c-4.82,2.22-13.57,30.6-17.81,37.17-8.65,13.4-25.71,11.53-39.57,13.42-12.58,1.72-20.13,8.38-30.13-3.11-4.33-4.97-14.58-25.02-20.26-12.29-6.65,14.9-5.61,31.97-19.2,42.79-2.5,1.99-19.28,12.71-22.02,13.97-2.52,1.16-14.43,5.13-16.75,5.27-6.06.36-9.06-4.21-6.71-9.75,2.51-5.95,36.64-19.43,41.32-27.66l16.1-50.89c6.31-10.35,13.07-4.62,19.02,2.08,5.12,5.77,18.67,27.07,24.97,29.02,8.92,2.77,26.54-5.64,36.53-5.57,7.07-2.6,12.01-21.43,15.35-28.65s10.73-24.98,16.13-28.86c1.55-1.11,2.84-1.92,4.79-2.24Z"/>
</svg>