<?xml version="1.0" encoding="UTF-8"?>
<svg id="Layer_1" xmlns="http://www.w3.org/2000/svg" version="1.1" viewBox="0 0 512 512">
  <!-- Generator: Adobe Illustrator 29.5.1, SVG Export Plug-In . SVG Version: 2.1.0 Build 141)  -->
  <path d="M225.69,149.26c9.11-1.54,11.89,3.42,17.84,3.69,8.92.4,11.34-8.49,19.84,3.15,4.62,6.34,6.85,24.85,4.53,32.36-.84,2.72-1.37,3.61-3.46,5.54-17.4,16.09-43.32,28.62-61.5,44.49-3.33,2.14-4.18,6.78-2.06,10.08,2,3.1,20.33,6.94,25.74,9.25,13.55,5.81,35.74,19.23,42.71,32.28,5.9,11.04,3.82,17.33,6.05,27.94,1.66,7.88,9.38,20.79,11.1,29.89,2.18,11.56-6.65,18.24-12.26,3.27-5.22-13.93-5.53-34.45-13.1-46.9-3.76-6.19-12.52-8.69-10.97-.06,1.2,6.67,7.8,18.48,10.09,25.94,1.18,3.84,1.11,8.23,2.16,11.83,2.18,7.46,11.96,26.33,5.02,31.94-5.32,4.3-11.39-4.75-15.96-8-21.43-15.24-49.81-26.94-71.85-42.14-2.69-1.86-5.7-4.77-5.71-8.32-.02-4.42,5.03-14.88,10.33-13.38,2.98.84,3.63,6.34,5.25,8.82,5.78,8.86,21.64,14.8,30.79,20.2,2.85,1.68,5.78,5.09,8.97,7.03,3.02,1.84,17.84,10.27,19.57,5.16.57-2.16-.04-4.11-.56-6.17-1.21-4.82-6.68-17.26-9.14-21.85-9.65-18.03-29.23-23.68-45.84-33.15-5.18-2.96-19.34-10.65-22.81-14.18-4.5-4.58-8.06-15.8-12.69-22.3-2.9-4.07-15.82-21.78-20.29-11.66-2.13,4.83,1.08,21.2,1.51,27.43s-1.11,10.85.42,17.59c.51,2.26,2.26,4.41,2.52,6.54.61,5.08-5.83,18.55-12.43,17.42-3.25-.56-9.03-12.41-9.49-15.59-1.15-7.96,4.83-7.66,7.37-12.5s1.98-27.82,1.57-34.41c-.61-9.67-7.02-33.12-2.44-40.46,2.19-3.51,5.94-4.1,8.46-6.54,7.31-7.1,13.63-17.8,20.5-24.5,5.47-5.33,14.37-9.24,20.09-14.9,10.85-5.13,13.69,10.69,23.89,9.95,8.04-.58,15.99-13.08,26.24-14.81ZM224.66,166.23c-3.94.91-14.31,10.03-13.73,14.22,1.51,11.12,30.76-6.32,21.62-13.53-2.18-1.34-5.44-1.25-7.89-.69ZM176.72,171.18c-2.73.44-10.37,7.07-12.77,9.32-4.04,3.8-8.47,10.84-12.48,13.52-5.23,3.49-13.94,2.55-11.05,12.04,2.31,7.6,10.27,11.14,15.08,15.91,2.5,2.48,13.28,14.59,14.91,17.08,5.51,8.4,3.89,19.49,15.3,24.7,2.23,1.02,4.84,1.04,6.93,2.06,7.04,3.43,19.73,12.01,26.27,13.72,12.61,3.3,6.2-9.95-.59-13.4-5.2-2.64-13.88-1.29-19.44-2.55-12.4-2.82-22.81-28.73-30.51-38.48-2.96-3.75-12.91-11.6-13.99-15.04-2.94-9.35,6.6-11.22,11.9-15.21,3.63-2.74,13.58-11.07,15.12-14.86,1.75-4.3.65-9.66-4.7-8.8Z"/>
  <path d="M376.71,272.28c6.06-.65,11.86-.85,15,5.45,2.64,5.29,7.61,28.09,8.93,35.06,1.25,6.61,1.04,21.83,5.25,25.75,3.16,2.95,8.76,2.63,5.09,9.01-4.34,7.54-10.35,2.75-16.57,3.4-2.93.31-4.94,2.32-7.98,2.14-4.43-.27-4.46-4.45-7.43-6.66-5.57-4.15-8.86,1.48-14.56,1.65-4.57.14-7.24-2.69-12.03-2.15-4.43.5-6.5,5.18-9.97,5.17-4.31,0-8.98-8.46-15.97-8.18-6.63.26-10.48,10.55-14.97,10.12-3.31-.32-6.48-5.6-3.14-8.15,2.04-1.56,6.61-.57,9.86-2.13,2.41-1.16,4-4.07,6.39-5.61,2.92-1.88,6.13-2.63,8.68-4.32,5.71-3.8,7.84-15.67,10.8-22.19,4.89-10.77,12.07-20.3,16.86-31.13,3.6-5.05,9.88-6.59,15.76-7.23ZM368.66,285.23c-7.31,1.53-11.34,13.67-13.75,20.24-3.05,8.32-13.43,33.58,4.32,28.31,1.19-.35,3.32-2.7,4.22-3.77,1.95-2.29,18.55-27.31,19-28.99,2.59-9.7-3.48-17.96-13.8-15.8ZM382.68,320.14c-10.51,2.08-15.57,23.91,2.31,18.4,6.56-2.02,5.89-20.02-2.31-18.4Z"/>
  <path d="M326.65,135.23c6.89-1.6,13.88,4.36,18.76,8.81,6.05,5.51,9.62,12.63,14.98,18.02,3.86,3.88,10.15,7.8,14.56,11.44,2.51,2.07,11.28,11.25,13,11.99,6.54,2.81,11.57-5.59,15.07-1.07,3.6,4.64-1.75,8.37-3.27,11.91-1.33,3.09-2.99,11.06-5.25,12.75-4.15,3.12-5.27-2.9-8.05-5.1-8.6-6.8-12.96,4.51-17.97,4.07-4.22-.37-4.92-9.18-14.3-5.29-2.2.91-3.29,3.91-5.8,4.27-2.84.4-5.34-1.59-8.03-1.95-12.4-1.64-9.35,9.33-13.4,11.49-9.12-.91-3.45-13.98-4.07-19.96-1.31-12.61-10.77-24.9-9.98-39.14.4-7.12,6.24-20.5,13.74-22.25ZM327.67,147.19c-9.25,2.7-5.22,28.07-1.92,34.53,3.81,7.47,10.96,7.02,13.38-1.03s2.31-37.51-11.45-33.5ZM349.61,168.17c-2.22.78-8.4,12.46-8.7,15.32-1.32,12.68,9.11,17.81,15.86,6.85,4.08-6.63,3.47-25.89-7.16-22.17Z"/>
  <path d="M154.68,285.17c12.65-3.75,7.98,31.29-.77,21.38-2.62-2.97-3.64-20.07.77-21.38Z"/>
  <path d="M98.69,290.17c5.76-1.73,19.15,13.28,10.26,17.33-6.02,2.74-18.01-15-10.26-17.33Z"/>
  <path d="M298.6,213.13c10.14-3.25,9.31,17.47-1.69,2.37-.16-1.13.69-2.05,1.69-2.37Z"/>
</svg>