<?xml version="1.0" encoding="UTF-8"?>
<svg id="Layer_1" xmlns="http://www.w3.org/2000/svg" version="1.1" viewBox="0 0 512 512">
  <!-- Generator: Adobe Illustrator 29.5.1, SVG Export Plug-In . SVG Version: 2.1.0 Build 141)  -->
  <path d="M255.14,98.25c5.06-1.5,4.04,7.67,4.65,10.17,1.23,4.99,2.95,10.52,8.03,12.97,3.17,1.53,16.96,5.17,20.23,4.81,5.83-.64,9.62-9.36,13.54-6.59,3.51,2.48-2.49,7.39-3,10.11-1.33,6.98,4.47,11.6,9.47,15.42,5.87,4.48,16.65,6.01,8.51,14.55-6.13,6.43-33.23,19.5-34.51,22.49-2.23,5.19,4.53,10.69,7.96,14,17.05,16.49,32.12,25.89,50.85,39.14,14.21,10.05-12.23,18.51-16.23,28.43-2.89,7.16,2.07,27.94,8.99,31.81,4.84,2.71,22,3.51,29.87,6.13,10.49,3.49,27.86,13.1,23.82,26.75-2.57,8.69-38.82,20.79-47.78,23.2-11.09,2.98-22.54,3.52-33.05,5.94-4.68,1.08-9.05,4.81-13.89,6.1-7.72,2.06-33.92,2.89-40.56-.51-9.91-5.07-6.97-10.47-10.24-17.75-2.04-4.54-8.27-5.08-10.64-9.35-1.85-3.32-2.35-20.59-10.48-12.31-7.57,7.71,4.32,24.02-14.51,21.3-6.82-.99-13.23-9.17-18.64-13.34-6.74-5.2-10.08-1.93-8.83-13.96,1.29-12.4,9-34.86,6.86-46.07-1.49-7.79-24.52-14.35-20.76-26.82.82-2.71,17.52-12.9,21.24-15.75,10.93-8.37,38.37-29.09,42.75-41.23,2-5.54.49-7.37-3.88-10.56-8.35-6.09-22.28-9.68-29.83-15.16-13.69-9.94,17.46-15.26,16.5-29.47-.21-3.14-3.15-7.61-.56-9.62,3.18-2.47,7.88,2.83,10.5,3.64,6.57,2.03,10.67-2.43,16.37-4.72,4.64-1.86,12.47-2,14.23-7.77,1.13-3.69-.98-14.78,3.06-15.98ZM234.25,134.37c-3.36.76-7.39,5.84-10.38,7.64-6.31,3.81-17.38,4.62-14.12,15.45,1.6,5.34,20.95,13.01,26.39,13.59,17.42,1.84,7.87-9.19,6.5-19.49-.84-6.37,2.71-19.7-8.39-17.19ZM276.24,138.36c-3.56,1.06-3.21,10.31-3.99,14.03-.88,4.19-5.58,14.52-1.32,17.88s28.18-3.02,32.15-7.04c5.25-5.31,1.65-8.68-2.55-12.57-3.97-3.67-19.18-13.82-24.29-12.3ZM254.53,208.18c2.08-2.84,21.92-3.75,16.74-15.22s-21.68-13.27-30.39-5.44c-8,7.2-14.6,17.63-22.34,25.15s-17.05,13.6-25.48,20.52c-12.63,10.36-17.11,15.06-1.46,26.39,18.8,13.63,40.01,10.13,61.4,11.59,4.68.32,10.4,2.75,15.02,2.76,10.66.02,16.66-6.51,25.12-10.65,4.15-2.03,8.79-2.71,13.06-4.94,2.43-1.27,16.46-11.04,17.37-12.62,3.9-6.78-1.5-11.5-8.47-10.51-3.93.55-19.71,11.49-22.57,8.95-2.52-2.24,13.49-10.25,14.34-12.24,3.27-7.67-7.43-13.44-13.75-12.67-3.71.45-18.07,7.06-19.07,6.92-4.27-.58,3.56-5.51,4.01-5.98,8.33-8.67,5.59-12.52-6.02-12.01-3.1.14-14.95,2.89-16.04,2.73-1.01-.15-1.97-2.03-1.46-2.73ZM199.24,278.37c-2.58.76-4.58,5.16-5.43,7.56-1.66,4.7-4.05,19.66-4.28,24.76-.32,6.99,8.38,23.88,16.98,19.95,5.73-2.62,9.02-30.97,23.27-27.24,2.35.61,12.8,10.54,14.17,12.82,5.45,9.12,3.9,33.23,16.54,35.54,3.07.56,17.22-2.26,20.72-3.42,4.5-1.49,27.15-14.3,28.16-17.91,2.17-7.77-15.64-4.1-4.79-11.71,2.85-2,16.38-6,12.03-11.15-3.87-4.58-18.19,5.42-18.07.08.02-.98,9.22-8.01,9.83-10.22,2.4-8.57-14.73-3.7-19.4-6.31-27.94,5.31-55.65-10.96-82.96-12.94-2.04-.15-4.87-.37-6.78.19Z"/>
</svg>