<?xml version="1.0" encoding="UTF-8"?>
<svg id="Layer_1" xmlns="http://www.w3.org/2000/svg" version="1.1" viewBox="0 0 512 512">
  <!-- Generator: Adobe Illustrator 29.5.1, SVG Export Plug-In . SVG Version: 2.1.0 Build 141)  -->
  <defs>
    <style>
      .st0 {
        fill: #fff3cc;
      }
    </style>
  </defs>
  <path class="st0" d="M390.37,260.68c-1.86-.75-3.68-1.37-5.42-1.89.02-.19.03-.37.05-.56,1.69-20.78,2.49-36.47-2.68-49.25-6.88-17.05-23.63-28.07-42.68-28.07-3.09,0-6.2.29-9.27.87-8.14,1.53-13.22,4.96-15.94,6.8-3.74,2.51-7.97,6.11-13.6,13.9-4.12-2.63-8.37-4.72-12.44-6.19-8.47-3.05-15.97-4.07-21.29-4.68-1.01-3.05-2.14-6.71-3.31-10.54-4.8-15.63-10.77-35.07-20.46-52.02-18.74-32.77-42.76-39.65-59.61-39.65-.55,0-1.1,0-1.65.02-.34,0-.67.02-1.01.04-19.81.78-36.6,8.77-48.61,23.14-25.62,30.66-21.81,80.89-15.62,121.22.77,5.03,1.9,9.49,2.89,13.42,1.06,4.2,1.8,7.23,1.94,9.39-2.39,5.82-6.22,17.92.46,30.81,2.81,5.42,9.77,14.97,24.78,17.95,3.81.76,7.91,1.13,12.55,1.13s9.36-.37,14.02-.88c-13.34,27.26-10.74,73.1.64,93.97,7.98,14.64,23.35,23.19,42.17,23.46.37,0,.75,0,1.15,0,9.35,0,26.6-1.62,42.92-4.03,30.28-4.47,40.68-8.97,46.85-12.78,13.69-8.45,20.71-22.15,18.77-36.65-.94-7.03-3.83-13.42-8.61-19.14,8.23-.44,16.95-.47,26.07-.5,12.06-.04,24.53-.07,36.79-1.11,39.51-3.37,48.43-24.04,50.23-36.06,3.18-21.26-11.8-40.75-40.08-52.12ZM261.53,297.45c-.34,3.98-.15,8,.54,11.97-1.69-3.56-3.67-7.15-6.07-10.64,1.64-.36,3.5-.81,5.52-1.33Z"/>
</svg>