<?xml version="1.0" encoding="UTF-8"?>
<svg id="Layer_1" xmlns="http://www.w3.org/2000/svg" version="1.1" viewBox="0 0 512 512">
  <!-- Generator: Adobe Illustrator 29.5.1, SVG Export Plug-In . SVG Version: 2.1.0 Build 141)  -->
  <defs>
    <style>
      .st0 {
        fill: #fff3cc;
      }
    </style>
  </defs>
  <path class="st0" d="M440.89,334.92c-1.99-6.85-5.67-11.67-9.29-14.99-.08-.85-.16-1.67-.22-2.36-.33-3.6-.63-7-1.27-10.36-.25-1.3-6.07-31.87-11.55-42.86-7.09-14.22-20.64-22.38-37.19-22.38-2.98,0-5.65.24-7.91.49-16.5,1.8-28.93,8.4-36.94,19.64-1.18,1.65-2.19,3.42-3.01,5.28-1.73,3.92-4.28,8.23-6.98,12.79-3.14,5.31-6.7,11.33-9.76,18.08-1.51,3.32-2.64,6.69-3.64,9.67-.16.48-.34,1.03-.54,1.59-1.32.67-2.74,1.47-4.24,2.43-1.02.66-1.94,1.34-2.8,2.01-.39-.95-.71-1.79-.87-2.32-.34-1.72-.48-3.44-.68-5.79-.56-6.82-1.41-17.13-8.22-29.86-8.88-16.62-27.3-29.57-40.98-37.42,6.31-4.15,12.63-8.44,18.69-13.08.22.46.44.92.67,1.36,2.69,13.81,14.85,24.24,29.45,24.24,6.44,0,12.38-1.86,17.36-5.08.98.18,1.98.33,2.99.43.99.1,1.99.15,2.98.15,4.91,0,9.76-1.2,14.12-3.53,3.26-1.74,5.9-3.81,8.04-5.99,1.17-.05,2.34-.16,3.53-.33,1.48-.21,2.87-.51,4.2-.88,2.65,1.03,5.65,1.79,9.02,2.09.97.08,1.95.13,2.92.13,3.49,0,6.64-.53,9.46-1.35,5.08,2.51,10.04,3.25,14.12,3.25h0c7.19,0,14.17-2.39,20.11-6.85,9.29-6.95,12.45-17.01,14.53-23.72,14.34-21.36,3.47-38.52-.26-43.33-6.4-8.26-15.96-13-26.25-13-1.12,0-2.21.06-3.25.16-1.19-1.13-2.19-2.03-3.18-2.85-2.39-1.98-4.8-3.73-7.12-5.43-1.77-1.29-4.45-3.25-5.26-4.03-.87-.87-2.32-2.84-3.72-4.75-3.05-4.14-6.84-9.29-12.32-14.29-5.55-5.06-18.54-16.91-36.63-16.91-2.52,0-5.03.24-7.5.7-.56.1-1.12.21-1.68.34-16.4,3.83-27.24,17.78-32.72,31.76-8.79-11.73-19.49-17.69-31.81-17.69-4.18,0-7.81.75-10.68,1.6-3.87-1.38-9.14-2.72-15.59-2.72-2.07,0-4.19.14-6.32.41-.67.07-1.34.16-2.01.27-8.74,1.47-15.72,5.27-21.18,9.06-5.05-3.07-11.65-5.64-19.83-5.64-5.77,0-11.47,1.31-16.95,3.9-3.07,1.45-5.85,3.39-8.26,5.78-.86.81-3.73,2.67-5.63,3.91-4.24,2.75-9.52,6.18-14.32,10.86-4.95,4.83-9.13,10.32-12.82,15.16-2.13,2.8-4.32,5.68-6.17,7.76-3.53,2.06-9.74,6.14-14.47,13.72-9.25,14.83-6.1,33.48-3.32,49.93.5,2.94,1.18,6.96,1.27,8.28.3,4.75.38,12.17.22,17.7-3.12.04-6.2.5-9.17,1.39-16.38,4.92-26.04,20.47-23.49,37.79,2.74,18.62,19.87,38.55,41.02,38.55,4.81,0,9.45-1,13.81-2.99,1.38-.63,2.71-1.34,3.97-2.1,1.63.24,3.29.36,4.94.36,2.82,0,5.61-.34,8.33-1.01,3.67,2.84,8.01,4.85,12.74,5.74,2.93,3.97,6.69,7.59,11.21,10.71,12.1,8.35,25.28,15.42,38.02,22.26,12.08,6.49,23.51,12.63,32.86,19.19.3.28.72.68,1.05,1,4.79,4.59,14.77,14.13,29.89,14.13,8,0,15.57-2.7,21.89-7.81,2.67-2.16,5.95-5.45,8.62-10.12,3.04-1.3,5.9-3.05,8.48-5.2,1.71.45,3.47.77,5.26.94,1.04.1,2.09.15,3.13.15,7,0,12.69-2.09,17.17-4.75,3.75,1.62,8.22,2.8,13.41,2.8h.11c6.12,0,11.19-1.61,15.11-3.54,1.95.31,4.14.52,6.55.52.41,0,.83,0,1.22-.02,1-.03,1.96-.1,2.9-.19,5.76,3.61,11.64,4.88,16.43,5.17.73.04,1.45.06,2.15.06,4.41,0,8.19-.81,11.05-1.7,1.77.24,3.9.45,6.29.45,13.78,0,25.74-7.05,32.83-19.35,6.54-11.37,5.73-21.28,3.91-27.59Z"/>
</svg>