<?xml version="1.0" encoding="UTF-8"?>
<svg id="Layer_1" xmlns="http://www.w3.org/2000/svg" version="1.1" viewBox="0 0 512 512">
  <!-- Generator: Adobe Illustrator 29.5.1, SVG Export Plug-In . SVG Version: 2.1.0 Build 141)  -->
  <defs>
    <style>
      .st0 {
        fill: #fff3cc;
      }
    </style>
  </defs>
  <path class="st0" d="M400.71,288.76c-9.98-8.81-21.67-13.52-27.74-15.54-3.7-1.23-7.7-2.09-11.77-2.8,6.96-6.57,14.1-16.14,13.81-29.75-.14-6.81-2.52-19.74-16.83-29.85-3.56-2.52-7-4.9-10.33-7.22-7.37-5.12-13.92-9.67-20.26-14.57,4.35-2.91,7.83-5.65,10.69-8.65,11.81-12.39,11.82-25.01,10.78-31.42-2.06-12.71-10.28-20.09-16.55-24.2,1.08-11.5-3.94-22.82-13.61-29.66-5.59-3.95-12.13-6.04-18.92-6.04-4.83,0-9.02,1.03-12.56,2.48-4.46-14.06-16.94-23.46-31.25-23.46-3.21,0-6.43.47-9.56,1.4-1.06.31-2.08.68-3.08,1.1-9.84,4.03-16.98,12.58-19.68,23.62-3.16-1.05-6.81-1.77-10.93-1.77-7.43,0-14.46,2.41-20.3,6.95-4.31,3.34-12.66,11.69-12.59,26.04-7.15,5.34-18.42,15.16-18.44,31.7,0,6.65,2.04,19.3,15.86,29.33,2.56,1.85,5.24,3.46,7.95,4.9-4.31,3.6-9.74,7.94-16.57,13.16l-.94.72c-.7.5-2.83,1.92-4.39,2.96-14.79,9.82-23.71,15.75-27.43,28.02-3.92,12.99-.92,26.73,8.23,37.7,3.38,4.05,7.2,7.29,10.61,9.91-.71,3.71-1.64,7.87-2.33,10.93-1.58,7.02-3.08,13.65-3.73,19.91-.76,7.3-3.07,29.51,20.66,41.11.03.02.07.03.1.05.62.55,1.59,1.45,2.35,2.16,6.27,5.86,15.74,14.71,29.92,16.77,2.85.41,5.48.61,8.05.61h0c3.66,0,7.18-.45,10.5-1.31,3.51,5.52,9.05,11.28,17.92,15.82,5.09,2.61,13.43,5.6,32.82,5.6,4.37,0,19.38-.2,29.14-2.81,5.77-1.54,10.33-3.99,13.35-5.62.32-.17.7-.38,1.04-.56,3.16-.65,6.8-1.17,10.61-1.72,6.63-.96,14.14-2.04,22-4.16,5.57-1.5,18.18-5.54,30.12-10.56,17.11-7.19,33.63-16.17,38.64-33.1,5.09-17.19-.66-35.2-15.37-48.19Z"/>
</svg>