<?xml version="1.0" encoding="UTF-8"?>
<svg width="512" height="512" id="Layer_1" xmlns="http://www.w3.org/2000/svg" version="1.1" viewBox="0 0 512 512">
  <!-- Generator: Adobe Illustrator 29.5.1, SVG Export Plug-In . SVG Version: 2.1.0 Build 141)  -->
  <path d="M296.42,142.91c9.04,8.51,13.39,20.89,12.53,33.32-.75,10.86-9.18,15.34-1.47,26.15,16.63,23.31,21.77-18.52,24.62-27.02.9-2.67,8.94-22.52,9.8-23.45,5.04-5.43,19.63-.79,21.46,6.29.94,3.65-.17,7.42.69,11.01,1.86,7.8,14.58,41.3,18.82,47.08s12.56,5.3,18.64,7.84c7.44,3.11,24.14,16.21,26.51,23.99,5.22,17.16-6.67,18.83,15,29.35,19.39,9.42,66.14,20.87,48.15,52.63-7.01,12.37-31.44,18.15-33.01,24.88-2.78,11.89,25.95,17.15,14.97,33.44-10.13,15.02-36.8,17.99-52.04,23.71-10.87,4.08-21.95,15.21-33.66,21.15-24.43,12.38-52.02,21.4-77.94,6.68-8.34-4.74-17.62-19.72-23.27-21.69-13.42-4.68-42.01-5.5-56.9-7.15-19.46-2.16-38.47-6.11-58.6-4.88-9.66.59-28.86,18.61-39.68,24.36-37.01,19.65-94.52,14.27-103.51-33.88l13.52-84.31c-.98-7.17-16.35-14.15-20.56-24.39-3.43-8.34-4.84-34.47-1.46-42.71,5.22-12.72,33.18-20.98,40.46-32.21,7.87-12.15,14.58-51.47,20.73-58.72,13.94-16.44,20.27,27.78,22.68,35.24,7.2,22.3,11.21,36.7,35.24,15.9,19.9-17.22,7.67-29.79,8.25-51.44.53-20.08,31.52-21.45,41.33-32,2.49-2.68,13.72-22.83,15.9-27.21,3.78-7.59,6.55-21.94,12.82-26.6,3.57-2.65,11.33-4.84,15.63-3.52,7.3,2.23,19.5,47.64,27.36,57.01s26.24,10.97,37.05,21.15ZM225.64,79.37c-4.84.69-9.99,17.57-12.43,22.07-8.09,14.87-27.22,43.28-24.95,60.65,1.05,7.98,26.63,15.15,33.83,16.05s34.32-4.18,33.97-13.59c-.37-9.92-31.3-2.76-25.96-13.57,4.55-9.22,26.47,3.7,25.88-6.69s-28.8-3.39-31.72-8.97c-4.76-9.11,20.77-3.7,21.28-10.21.41-5.18-16.71-4.71-18.4-9.95-2.08-6.45,10.17-1.46,12.08-8,1.64-5.63-6.58-28.76-13.59-27.77ZM172.13,145.26c-5.26,0-11.71,6.47-12.54,11.55-.7,4.26.85,29.33,2.27,32.91,6.33,16,43.02,31.29,59.32,31.18,24.75-.17,77.61-19.99,74.78-50.73-.51-5.59-5.69-16.07-10.71-18.85-9.55-5.29-3.37,7.65-5.37,14.33-1.19,3.98-6.87,9.09-9.35,12.82-2.17,3.25-3.1,8.96-5.87,11.37-6.65,5.78-17.13-3.57-26.76,7.72-4.35,5.1-4.1,15.03-12.82,13.97-5.44-.66-14.29-13.11-22.84-15.99-6.34-2.13-13.31-.67-18.21-3.34-9.54-5.2-13.36-18.69-11.78-28.89.55-3.51,10-18.06-.11-18.04ZM346.98,176.69c-4.53,1.33-6.76,17.88-8.29,22.5-3.39,10.22-16.17,39.72-15.52,48.42,1.3,17.26,45.2,23.92,50.13,11.45,3.83-9.69-15.72-2.64-13.83-11.96,1.36-6.68,17.17-3.72,16.61-11.66-.78-10.89-23.31-5.15-25.4-11.03-2.55-7.17,13.07-6.54,13.11-10.6.03-2.98-7.04-4.03-7.89-6.92-1.14-3.88,2.57-6.96,2.97-10.91.57-5.69-4.24-21.54-11.9-19.3ZM85.24,185.31c-2.24.61-4.25,5.79-5.05,7.9-2.85,7.52-17.79,50.83-17.57,55.68.86,19.04,39.92,20.31,39.18,12.01-.5-5.55-21.35-1.42-15.42-11.01,4.09-6.61,22.58-.41,21.6-7.75-.8-5.93-28.21-4.09-24.09-13.83,2.5-5.89,17.39,1.09,17.54-5.93s-14.5-3.02-15.9-8.71,9.4-5.57,9.79-12.77c.23-4.33-4.45-17.13-10.07-15.59ZM157.3,206.26c-5.03.93-16.54,11.29-15.22,17.38.92,4.24,14.51,10.81,18.5,10.51,5.37-.39,15.73-10.82,14.7-16.61-.9-5.07-12.63-12.27-17.98-11.29ZM292.17,210.58c-4.35.77-16.77,9.89-9.31,13.95,10,5.44,26.37-16.97,9.31-13.95ZM305.13,232.1c-15.52,1.11-16.04,36.64-12.48,47.29,20.17,60.34,133.23,39.2,123.41-27.34-1.1-7.42-20.23-22.94-22.11-14.18-1.08,5.03,7.04,8.53,7.96,13.55.4,2.16-2.2,24.6-3.04,25.82-5.73,8.4-10.75-6.88-21.25-3.39-13.58,4.5-7.91,19.77-19.07,18.52-7.13-.8-5.95-9.81-10.83-13.22-2.86-2-16.23-5.65-19.39-4.08-4.29,2.14-.56,11.77-9.55,8.99-7.24-2.24-8.16-16.03-10.32-21.7-2.21-5.79-7.87-8.47-5.98-15.62.59-2.23,12.96-15.37,2.65-14.63ZM124.03,233.96c-8.66,3.3,13.01,14.12,14.36,15.55,8.12,8.61-1.17,11.67-4.87,18.57-2.74,5.11-4.91,23.32-14.22,17.76-4.98-2.98,0-12.57-10.04-11.22-12.69,1.71-5.03,19.41-16.67,19.5-19.92.16-11.26-22.44-28.47-19.07-7.79,1.53-.46,14.99-10.15,12.68-8.27-1.97-5.1-16.34-7.44-22.74-.77-2.12-9.2-15.07-10.68-15.19-14.38-1.2-7.93,34.95,1.57,43.39,30.43,27.06,83.16,25.89,110.82-4.85,9.46-10.51,13.16-36.77,1.41-45.79-3.6-2.76-21.8-10.06-25.62-8.6ZM180.68,393.77l4.59-46.23c4.12-34.32,56.47-27.01,70.22-2.65,8.12,14.38,4.29,47.02,12.21,57.99,4.12,5.72,21.92,7.87,25.69-1.42,7.12-17.52,7.97-41.61,10.05-60.16,1.87-16.72,10.08-27.71-8.01-40.06-8.47-5.78-12.88-1.78-21.9-2.74-16.91-1.79-7.24-16.88-16.77-20.18-23.25-8.06-10.97,25.46-31.91,18.97-11.93-3.7-3.55-24.39-19.52-20.83-8.59,1.91-5.34,11.42-6.89,16.51s-13.06,4.96-17.01,4.02c-4.68-1.12-6.88-7.39-9.96-8.51-8.66-3.15-22.72,15.1-22.55,23.76.14,7.25,14.45,70.88,17.49,77.37,2.58,5.52,10.43,9.49,14.27,4.14ZM55.68,318.33c-3.93.9-4.74,5.36-5.7,8.47-4.15,13.44-12.54,68.56-9.1,80.57,5.61,19.55,51.75,27.01,68.13,18.5,16.72-8.69-18.12-8.2-5.69-16.16,1.35-.86,26.15-8.19,30.47-9.56,3.98-1.25,21.37-1.29,17.8-9.26-2.73-6.1-20.57,3.58-25.3,4.22-2.96.4-20.15.47-22.13-.51-3.28-1.62-2.38-5.31.52-6.93,3.87-2.16,21.8-3.07,28.41-4.84,2.35-.63,20.89-5.74,13.02-10.47-3.57-2.15-32.96,5.33-40.65,3.69-3.63-.77-4.64-3.46-2.24-6.47,3.59-4.49,38.9-1.76,42.21-10.13,5.89-14.9-29-2.43-33.92-1.9-3.22.34-15.73,1.26-15.69-3.93.06-7.9,35.16-2.94,22.25-14.18-8.12-7.07-17.42-6.29-26.49-9.23-6.13-1.99-32.22-12.71-35.9-11.87ZM320.49,331.27c-4.33,1.11-5.41,8.46-6.29,12.18-2.68,11.33-2.14,23.2-4.18,34.62-3.3,18.48-18.5,44.56,7.57,53.76,13.88,4.9,30.62,4.96,43.95-1.63s3.24-7.6,3.43-12.55c.38-9.84,49.25-7.11,43.49-24.34-2.5-7.49-19.26.65-24.85,1.69-4.09.76-23.36,4.62-24.16-.16-1.55-9.32,37.74-5.98,36.4-16.56-.81-6.39-31.17,2.28-36.66.88-2.96-.75-3.66-3.75-1.92-6.19,4.81-6.76,39.77-5.24,42.1-13.32,2.67-9.23-20.22-4.71-25.35-3.79-3.73.66-17.31,8.36-18.26,1.42-1.14-8.34,22.82-2.63,18.83-12.61l-48.21-13.36c-1.73-.21-4.22-.44-5.87-.02ZM209.05,338.07c-4.4.59-11.51,4.84-10.32,9.96,1.05,4.5,16.06,3.22,14.78,11.08-1.22,7.5-16.14.64-18.77,7.76-3.73,10.11,9.2,9.91,9.51,15.73.29,5.29-9.16,5.64-8.62,10.4.46,4.07,25.73,14.61,27.71-1.22.75-6.03-.84-37.09-1.91-43.64-1.21-7.46-4.29-11.16-12.39-10.07ZM236.75,347.26c-4.92,1.36-2.93,13.13,1.06,13.41,8.45.6,7.16-15.69-1.06-13.41ZM236.73,366.3c-5.81,1.26-4.66,35.16,4.16,33.82,4.77-.72-.43-5.71.61-9.27,1.37-4.7,9.5-4,8.31-11.94-.42-2.79-10.97-13.07-13.08-12.61Z"/>
  <path d="M278.63,326.32c8-2.09,9.39,18.82,3.5,19.61-6.87.93-9.04-18.17-3.5-19.61Z"/>
  <path d="M165.91,319.57c9.48-2.69,9.71,21.53-1.03,15.54-5.24-2.92-4.01-14.11,1.03-15.54Z"/>
</svg>