<?xml version="1.0" encoding="UTF-8"?>
<svg id="Layer_1" xmlns="http://www.w3.org/2000/svg" version="1.1" viewBox="0 0 512 512">
  <!-- Generator: Adobe Illustrator 29.5.1, SVG Export Plug-In . SVG Version: 2.1.0 Build 141)  -->
  <path d="M162.72,103.31c22.16-3.76,34.57,11.62,47.13,25.91,5.65,6.43,9.82,4.89,16.9,8.07,5.72,2.57,14.89,11.16,19.83,11.95,10.26,1.64,20.78-7.95,30.2-11.33,6.7-2.41,14.35-3.72,21.23-6.01,25.29-8.41,40.54-17.53,68.48-11,11.67,2.73,17.24,4.57,22.82,15.77,10.31,20.7,12.27,44.64,21.68,64.59,5.01,10.62,5.52,9.11,15.03,13.73,16.39,7.97,33.03,22.42,43.23,37.74,3.68,5.52,8.18,14.85.86,19.49-7.03,4.45-12.41-8.79-15.99-13.44-6.33-8.21-22.3-27.06-32.37-28.93-7.2-1.34-12.99,1.1-17.6-6.62-6.49-10.86-9.46-29.81-13.09-42.16-.77-2.62-7.11-22.08-11.16-13.44-1.42,3.02,1.33,15.57,1.7,19.88,1.51,17.79,3.78,25.76,7.37,42.58,2.54,11.93,2.53,24.44,8.15,35.74,5.73,11.54,17.81,4.62,27.12,10.71,4.81,3.15,17.87,20,20.79,25.37,2.3,4.22,4.29,10.14-.95,13.14-8.43,4.83-16.52-12.89-20.54-18.14s-9.01-11.82-16.41-8.21c-4.33,2.11-7.57,13.38-13.46,7.05-2.55-2.74-2.86-7.94-4.37-11.53-1.74-4.13-4.98-7.42-6.55-11.61-2.61-6.98-2.74-14.8-4.55-21.93-2.38-9.38-8.66-24.03-14.13-32.03-2.26-3.3-9.39-12.63-11.99-15.26-4.87-4.92-11.01-2.18-15.13,2.27-5.61,6.07-2.07,12.4.86,18.81,5.03,11.02,10.44,21.83,15.91,32.52,6.92,13.53,10.51,27.35,16.39,41.13,3.44,8.04,8.73,16.36,11.85,24.48,2.23,5.81,2.91,12.24,5.54,17.92,4.25,9.16,15.04,18.32,19.21,28.47,3.74,9.11-2.85,19.09-10.31,9.55-5.55-7.1-12.18-19.76-20.17-24.48-13.63-8.05-15.74,3.18-24.72,4.69-10.76,1.82-11.33-16.33-13.61-23.88-3.27-10.83-9.6-26.34-15.6-35.86-1.64-2.61-4.1-5.52-7.48-5.06-5.81.8-16.33,13.74-20.61,18.06s-12.62,8.56-12.01,15.75c.49,5.87,12.06,22.02,15.52,28.37s6.08,13.79,9.29,19.47c3.78,6.69,10.53,4.82,17.24,6.97,8.81,2.83,27.39,10.02,33.8,16.14,5.63,5.38,16.64,25.33,15.67,32.86-.44,3.37-3.44,7.42-7.25,5.65-6.79-3.15-9.78-18.22-13.76-24.08-3.96-5.83-27.3-19.09-34.2-18.61-4.93.34-7.69,4.42-13.4,2.64-5.59-1.75-8.66-15.41-11.17-20.61-3.17-6.55-9.59-16.41-13.9-22.42-2.25-3.14-8.22-11.19-10.82-13.4-4.27-3.65-9.23-1.22-10.49,3.95-2.11,8.72,8.39,18.27,11.75,25.81,3.27,7.32,5.3,16.2,8.58,23.96,2.1,4.95,6.4,10.41,7.1,15.6.7,5.19.02,12.33-6.96,10.76-4.48-1.01-18.1-20.29-22.1-24.83-3.52-3.99-7.79-7.39-11.37-11.33-3.93-4.32-12.63-17.82-18.16-18.22-7.53-.55-11.42,7.95-10.03,14.63,2.34,11.28,23.74,29.18,31.04,38.58,2.98,7.98-3.07,14.34-11.09,13.37-7.28-.88-36.06-21.95-44.87-27.04-1.9-1.1-6.65-4.15-8.35-4.51-11-2.31-18.01,11.2-28.17,13.1-4.97.93-12.21.02-10.45-6.65,1.14-4.34,11.66-8.06,15.64-10.85,6.33-4.43,9.8-10.8,15.27-15,4.4-3.38,14.54-11.55,18.61-13.93,3.12-1.83,6.67-2.55,9.89-4.49,4.35-2.61,7.1-6.63,10.85-9.58,16.06-12.64,34.92-23.92,51-36.79,9.7-7.76,29.52-25.02,36.71-34.43,9.43-12.36-6.74-15.46-16.26-16.24-8.98-.74-32,3.18-36.59-5.78-4.85-9.46,11.06-14.17,16.8-17.82,10.84-6.9,27.7-18.73,37.53-26.8,4.96-4.07,8.81-9.37,14.19-13.05,4.44-3.04,9.71-4.6,13.88-8.07,3.82-3.17,7.07-8.14,10.94-11.76,8.52-7.97,14.4-10.69,20.72-21.66,8.08-14.03,11.59-27.89-9.36-29.77-14.17-1.27-25.45,1.91-38.78,5.84-22.49,6.64-40.7,13.4-61.47,24.05s-21.52-9.12-37.54-10.93-12.87,22.9-23.21,21.01c-8.57-1.56-4.21-17.88-2.63-23.52,1.84-6.54,5.92-8.25,1.62-15.65-6.63-11.4-24.82-21.03-36.25-10.66-6.96,6.31-8.35,12.72-12.46,20.08-5.82,10.39-13.28,6.43-11.03-5.74,1.99-10.75,18.02-31.22,28.97-33.08Z"/>
  <path d="M124.92,324.31c10.51-.95,20.58,6.41,28.17,13.03,4.69,4.1,12.25,10.78,7.56,17.41-6.63,9.35-16.88-6.51-21.93-10.6-10.91-8.84-18.79-2.16-26.47,6.84-3.75,4.4-7.38,15.24-14.82,10.99-12.62-7.2,9.4-29.28,16.38-33.65,3.21-2.01,7.34-3.68,11.12-4.03Z"/>
</svg>