<?xml version="1.0" encoding="UTF-8"?>
<svg width="512" height="512" id="Layer_1" xmlns="http://www.w3.org/2000/svg" version="1.1" viewBox="0 0 512 512">
  <!-- Generator: Adobe Illustrator 29.5.1, SVG Export Plug-In . SVG Version: 2.1.0 Build 141)  -->
  <path d="M172.74,63.26c32.62-2.25,59.8,1.85,91.38,7.48,11.16,1.99,16.75,1.63,27.57,1.76,6.47.08,11.74,3.71,17.47,5.65,11.92,4.04,27.7,7.88,38.75,12.9,5.29,2.41,9.1,6.38,13.88,9.17,10.56,6.17,29.56,13.36,33.04,25.76,2.71,9.65,2.1,38.16.37,48.5-3.52,21.16-9.47,29.86-17.96,47.99-6.47,13.81-1.79,20.62-.22,34.16,1.07,9.17,1.25,18.57,2.5,27.7,1.92,14.01,2.03,16.24,15.11,22.23,19.51,8.94,67.27,20.75,75.05,41.76,5.85,15.79-3.13,32.18-12.43,44.74-4.48,6.05-29.06,20.45-36.95,25.03-8.12,4.71-15.77,4.78-24.51,7.28-10.99,3.14-24.35,7.82-35.32,11.57s-20.49,11.07-33,9.89c-2.26-.21-4.34-1.3-6.45-1.5-10.95-1.05-18.8,4.97-30.14,3.92-6.81-.63-15.19-5.75-21.84-7.56-8-2.18-23.56-.78-32.06.47-6.66.98-15.27,6.64-21.09,3.41-6.4-3.55-6.54-7.78-16.33-8.3-16.83-.91-31.82,6.23-46.92,7.17-13.17.82-27.95-7.94-38.11-15.91-19.15-15.03-44.97-35.75-55.39-58.24-6.75-14.57.7-42.44.17-58.91-1.39-20.55,5.69-43.21,4.72-63.59-.55-11.56-13.61-32.93-18.07-44.7-6.48-17.11-9.57-47.78-5.39-65.4,2.86-12.07,8.68-13.03,16.74-19.81,6.85-5.76,12.32-14.71,19.44-21.09,21.39-19.17,67.6-31.57,96-33.53ZM228.34,91.84c-10.46,1.64-10.81,13.9-10.17,22.46.75,10.08,3.69,13.3,13.9,13.9,9.21.55,13.68-1.55,15.17-11.11.63-4.05.96-14.58-.02-18.34-2.02-7.76-12.45-7.93-18.88-6.92ZM187.01,93.43c-11.84,1.62-15.04,7.89-14.14,19.29,1,12.75,7.3,15.71,19.48,14.66,11.38-.99,12.79-8.39,12.36-18.69-.52-12.27-5.32-16.95-17.7-15.26ZM271.21,95c-1.31.27-3.65,1.59-4.57,2.58-3.18,3.44-7.46,24.15-6.17,28.46,1.98,6.67,18.74,9.56,23.31,4.56,3.51-3.83,3.45-21.73,2.24-26.94-1.67-7.21-7.75-10.12-14.81-8.66ZM144.88,98.18c-3.51.56-11.17,4.63-12.84,7.81-2.97,5.64,2.68,25.47,8.62,27.81s16.68-1.34,19.35-6.99c1.96-4.16.07-13.11-.98-17.73-2.07-9.06-3.62-12.6-14.14-10.9ZM306.97,100.56c-1.25.26-3.72,1.61-4.58,2.57-3.3,3.69-4.86,25.7-3.57,30.64,1.9,7.29,16.92,13.73,23.7,11.73,3.52-1.03,5.52-7.09,6.52-10.17,1.72-5.33,5.37-20.44,3.84-25.3-2.2-6.98-19.63-10.77-25.91-9.48ZM107.52,110.86c-10.97,2.43-6.6,25.6-4.32,33.39,2.83,9.69,5.89,15.2,16.25,7.96,9.28-6.49,6.58-14.43,3.6-23.83-2-6.33-7.17-19.36-15.53-17.51ZM189.43,145.91c-18.41,1.12-35.08,5.89-50.45,16.29-4.31,2.92-6.38,6.85-.98,10.02,2.66,1.56,23.28,7.92,26.62,8.34,10.9,1.37,38,1.11,49.19.06,5.55-.52,11.88-3.07,17.58-3.87,11.9-1.67,44.21-3.37,52.7-10.87,1.35-1.2,2.12-2.11,2.4-3.98,1.54-10.35-15.56-10.15-22.38-11.7-5.19-1.18-12.08-3.87-17.01-4.45-14.96-1.75-42.15-.8-57.68.15ZM372.14,152.92c-9.72,3.83-4.5,13.49-6.76,21.13-.6,2.03-7.47,13.36-9.04,15.59-3.05,4.31-6.32,5.91-11.75,4.07s-7.53-11.28-13.2-12.26c-4.09-.71-19.88,5.74-22.99,8.72-8.24,7.93-4.22,34.14-20.47,29.99-8.89-2.27-.37-17.39-9.29-20.11-4.89-1.49-23.4.58-28.3,2.77-12.29,5.5-4.62,26.2-18.99,31.87-7.15,2.82-22.64,2.59-30.01.54-14.44-4.01-9.87-26.24-19.39-31.46-4.04-2.21-20.49-3.59-24.43-1.59-10.38,5.27,4.04,20.35-2.82,26.58-4.57,4.14-12.46.62-15.05-4.14-5.71-10.46,1.56-24.95-12.2-29.12-4.61-1.4-28.6-6.93-31.83-5.97-7.36,2.18,3.61,17.74-5.1,20.33-13.37,3.97-21.27-19.02-22.47-28.85-.34-2.78.38-5.95-.06-8.68-1.15-7.24-11.4-9.92-11.1,2.3s14.66,49.8,23.03,58.09c5.64,5.58,35.02,16.34,43.58,18.4,48.35,11.65,105.15,17.96,153.52,4.61,13.02-3.59,29.54-9.95,42.31-14.9,36.37-14.1,58.95-39.45,57.51-80.32-.1-2.77-.92-8.13-4.68-7.59ZM331.3,316.79c4.48-3.92,7.09-1.98,11.94-2.76s18.87-3.95,18.86-10.63c-.02-7.65-13.36-3.22-17.55-1.58-5.72,2.25-11.81,8.7-18.09,6.13-2.74-1.12-4.68-4.77-4.19-7.7.85-5.06,20.4-11.67,8.8-14.4-6.21-1.46-20.33-.38-27.5-.38-13.34,0-27-1.29-40.48-2.36-35.95-2.85-69.34-7.1-105-12.6-14.05-2.17-27.6-3.23-41.64-6.83-7.1-1.82-24.1-10.25-29.75-9.15-4.89.95-6.96,8.88-7.56,13.11-2.3,16.22-2.17,35.88-3.16,52.47-1.26,21.36-7.39,43.09,7.14,61.14,6.38,7.93,44.4,39.09,53.31,42.83,7.22,3.03,10.15-1.61,11.47-8.2,5.27-26.28-1.8-61.59,21.01-81.5,27.9-24.36,71.09-22.35,92.03,9.7,10.69,16.35,9.2,25.3,14.05,42.37,1.59,5.6,4.64,10.24,6.36,15.89,1.98,6.49,2.71,17.93,5.35,23.26,4.08,8.23,19.6,1.21,26.03-1.42,9.66-3.95,20.34-10.1,27.05-18.25,15.23-18.49-14.41-11.31-7.07-25.35,3.31-6.34,28.91-11.8,35.66-21.55,2.15-3.1,2.93-10.09-1.36-11.35-8.71-2.56-21.91,12.94-32.4,10.93-5.31-1.02-4.06-7.18-.81-10.3,5.46-5.25,19.13-9.68,26.08-15.24,4.38-3.51,8.28-9.39-.57-8.53s-17.51,6.89-24.14,7.71c-10.23,1.27-10.04-10.07-3.88-15.46ZM197.36,338.93c-6.24.63-19.66,9.11-21.12,15.49-2.35,10.26,7.5,9.57,8.52,15.77,1.86,11.33-11.14,10.64-12.5,15.22-2.43,8.15,13.78,7.06,12.6,17.34-.75,6.6-9.08,5.1-13.57,7.11-5.67,2.54-8.43,10.17-2.77,13.91,5.11,3.38,14,.5,19.87,0,11.3-.95,20.14,2.75,21.83-12.34s-.03-44.96-2.48-60.26c-1.03-6.42-2.09-13.1-10.38-12.26ZM230.68,343.68c-5.29,1.6-5.89,12.25-6.16,16.9-.67,11.35.34,22.92.86,34.17.32,6.87-1.27,23.6,4.77,27.81,3.99,2.78,18.96,2.53,24.19,2.01,3.05-.3,8.95-1.76,10.32-4.78,3.41-7.47-12.59-8.97-13.87-15.49-1.65-8.38,5.81-9.65,6.31-15.97.48-6.06-5.95-7.33-9.53-10.21-9.7-7.82,1.06-13.24-1.15-21.89-1.26-4.95-10.11-14.24-15.74-12.54Z"/>
  <path d="M127.09,341.66c-5.8-5.8-2.77-10.13-2.63-16.77.16-8.16-3.05-27.05,7.06-29.49,12.16-2.93,10.7,18.02,10.38,25.47-.2,4.69-.84,12.81-1.79,17.28-1.73,8.12-7.28,9.24-13.02,3.5Z"/>
  <path d="M290.29,294.4c4.96-1.03,8.44,3.7,8.95,8.21.74,6.52.93,27.93-.04,34.12-1.59,10.11-13.62,3.92-16.24-3.54-2.05-5.84-2.26-21.78-1.01-28.02.74-3.73,4.32-9.94,8.34-10.78Z"/>
</svg>