<?xml version="1.0" encoding="UTF-8"?>
<svg id="Layer_1" xmlns="http://www.w3.org/2000/svg" version="1.1" viewBox="0 0 512 512">
  <!-- Generator: Adobe Illustrator 29.5.1, SVG Export Plug-In . SVG Version: 2.1.0 Build 141)  -->
  <path d="M368.68,240.32c28.51-4.09,58.92,31.87,51.17,60.37-2.42,8.91-25.98,37.49-24.24,43.5,1.65,5.68,29.7-2.3,34.36,6.67,6.01,11.6-20.97,11.4-27.01,10.3-3.46-.63-8.81-5.1-10.89-4.69-5.04.99-7.04,17.56-11.44,22.08-5.43,5.57-13.64,2.05-15.48,6.26-.59,1.35-1.12,27.47-.25,29.47,3.35,7.71,18.03,3.86,24.01,8.6,13.1,10.38-19.08,12.29-24.02,13.52-4.46,1.11-8.07,6.61-13.21,3.64-6.97-4.04.52-44.96-3.7-47.33-7.08-3.99-11.07,21.26-14.89,26.95-10.98,16.36-20.64,7.92-31.69,13.47-5.77,2.9-6.21,11.47-.44,14.16,1.84.85,44.97,3.3,32.01,14.08-1.95,1.62-38.87,1.63-42.55.64-13.43-3.61-8.34-21.37-14-29.48-2.74-3.93-13.26-10.42-17.94-15.51-2.78-3.03-11.01-16.3-12.9-17.21-5.77-2.8-6.68,6.78-15.01,5.86-2.73-.3-12.1-6.92-13.11-9.51-3.14-8.01,3.34-7.9,5.93-11.77,3.8-5.67,5.37-20.14,4.11-26.71-1.66-8.64-18.66-16.39-21.55-24.44-8.11-22.61,35.4-57.53,56.26-57.16,9.7.17,21.96,9.82,26.72,9.18s7.78-8.81,11.36-12.12c20.55-19.01,24.11,2.3,38.53-2.46,6.17-2.03,12.84-27.91,29.85-30.35ZM371.18,257.04c-18.53,3.78-35.34,59.67-8.99,50.37,4.76-1.68,30.75-30.16,31.47-34.65,1.5-9.25-14.29-17.39-22.48-15.72ZM315.99,282.96c-22.3,4.58-10.93,45.19-18.66,54.93-7.42,9.35-10.8-2.79-16.28-4.49-14.62-4.54-18.56,14.93-11.19,24.56,6.65,8.68,20.6,1.89,29.83,2.79,11.1,1.08,31.02,14.52,38.47,13.79,2.8-.27,22.71-8.67,25.46-10.51,12.26-8.17,20.97-36.96.42-38.43-7.87-.56-21.18,7.12-27.36,2.33-5.67-4.39-.99-13.91-1.22-19.61-.41-10.01-6.58-28.01-19.47-25.36ZM259.15,293.02c-11.72,1.59-38.34,21.93-35.36,34.93,1.56,6.84,17.41,17.53,24.07,15.69,4.99-1.37,4.77-10.87,6.84-14.94,8.09-15.95,38.1-6.04,29.07-25.62-4.3-9.32-15.54-11.3-24.61-10.07ZM249.95,364.04c-9.59,1.22-8.63,26.68-6.89,27.43,7.6-2.36,25.99-29.86,6.89-27.43ZM291.8,376.62c-2.45.13-18.47,8.48-20.87,10.13-17.74,12.18,2.05,31.87,10.37,29.66,3.88-1.03,4.24-7.21,6.11-9.83,4.93-6.93,27.69-31.15,4.39-29.96Z"/>
  <path d="M151.3,108.64c7.27-3.11,13.77-51.75,30.26-35.35,1.45,1.44,17.22,32.57,18.82,36.38,2.89,6.9,10.89,31.28,7.82,37.07-6.35,11.99-20.93-1.3-21.68,17.7-1.29,33.04,21.73,16.92,38.56,31.82,1.39,8.55-27.76,7.04-33.04,6.2-26.93-4.32-12.4-42.15-25.14-45.11-14.52-3.38-4.49,14.23-3.94,18.16,2.67,19.07-15.54,13.03-18.39,20.5-.58,1.53-2.51,25.11-2.12,26.78,2.47,10.76,31.5,3.34,40.55,9.62,5.8,4.03,1.92,9.59-3.72,10.85-3.37.75-42.75,1.64-46.67,1.08-19.46-2.79,8.03-37.48-9-50.37-8.14-6.17-20.64-2.69-22.93-16.37-3.12-18.65,22-70.99,23.67-92.96,18.24-18.59,18.14,27.78,26.95,24.01ZM173.82,98.96c-3.08.89-25.86,38.27-6.63,40.63,3.45.42,21.33.14,23.12-2.37,3.75-5.26-6.85-41.06-16.49-38.26ZM128.6,131.48c-2.47.26-23.62,39.25-11.64,44.88,6.32,2.97,26.58,3.97,27.05-6.9.17-3.82-9.54-30.47-11.73-34.34-.69-1.21-1.92-3.82-3.68-3.64Z"/>
  <path d="M325.21,74.75c38.74-5.04,63.85,21.06,40.5,57.23-4.94,7.65-14.25,10.2-14.43,20.74-.45,27.39,12.14,17.21,27.5,23.56,6.53,2.7,7.28,9.06.76,12.17-4.2,2-42.55,2.69-46.21.68-13.09-7.2,4.45-13.84,5.29-21.61,3.5-32.36-38.87-20.4-43.22-44.99-3.89-21.99,5.82-44.66,29.82-47.78ZM331.09,89c-28.62,2.75-30.5,44.15,2.12,43.72,11.43-.15,26.46-14.86,26.45-25.99-.01-16.49-15.35-19-28.57-17.72Z"/>
  <path d="M125.31,329.78c12.76-4.16,9.27,15.62.61,14.8-6.01-.57-6.23-12.97-.61-14.8Z"/>
  <path d="M95.23,328.89c6.48-1.65,13.15,12.93,6.88,15.34-7.01,2.7-14.61-13.37-6.88-15.34Z"/>
  <path d="M300.07,173.38c9.86-3.58,9.92,12.71,3.83,13.92s-9.6-11.82-3.83-13.92Z"/>
  <path d="M95.21,224.36c4.86-1.03,9.38,3.89,8.66,8.65-1.55,10.28-18.22-2.96-8.66-8.65Z"/>
  <path d="M243.23,444.35c7.86-2.62,10.28,7.97,5.22,10.23-7.13,3.19-11.91-8.01-5.22-10.23Z"/>
  <path d="M193.07,388.3c7.76-1.97,9.16,8.07,3.78,9.68-7.1,2.13-9.97-8.11-3.78-9.68Z"/>
</svg>