<?xml version="1.0" encoding="UTF-8"?>
<svg id="Layer_1" xmlns="http://www.w3.org/2000/svg" version="1.1" viewBox="0 0 512 512">
  <!-- Generator: Adobe Illustrator 29.5.1, SVG Export Plug-In . SVG Version: 2.1.0 Build 141)  -->
  <path d="M259.25,122.7c65.37-4.44,89.76,27.05,141.53,50.82,11.42,5.24,44.25,11.43,47.04,23.8,2.38,10.56-8.28,17.24,4.87,22.44,6.27,2.48,13.64.98,19.51,4.39s9.2,13.81-.69,13.57c-2.57-.06-29.99-6.36-34.42-7.47-13.95-3.5-42.42-17.53-52.66-18.17-27.28-1.72,15.74,15.46,18.82,20.43,13.36,21.53-41.96-4.97-45.71-6.35-17.81-6.59-47.98-13.08-66.95-14.13-6.47-.36-37.92,3.04-39.7,2.15-5.23-2.6,2.11-7.38,5.62-8.01,19.69-3.58,36.32.15,54.56-.05,41.99-.47-3.95-14.24-7.67-21.41-11.13-21.44,31.28.53,36.91,2.34,15.58,5.01,31.62,7.98,47.28,12.46,6.65,1.9,51.3,20.5,54.44,12.95,3.71-8.93-38.69-18.02-43.83-20.14-22.09-9.13-45.08-28.22-67.4-38.43-93.86-42.92-159.63,22.47-243.34,53.09-8.19,3-53.48,15.84-53.48.4,0-2.81,1.71-5.1,4.15-6.2,6.68-3.02,28.03-4.15,39.08-7.86,8.3-2.79,16.19-8,24.06-10.93,8.8-3.27,40.27-9.85,45.01-18.14,5.34-9.32-17.06-17.5-24.32-20-6.63-2.27-27.42-1.39-26.51-12.84.85-10.62,32.42-1.11,39.15,1.05,12.3,3.95,23.18,11.9,35.6,15.61,26.87-8.24,61.07-23.45,89.02-25.35Z"/>
  <path d="M446.15,262.66c8.75-.34,30.89-.74,33.93,10.8,3.33,12.61-27.82,5.02-34.89,5.23-18.81.56-56.49,9.68-75.01,15.53-39.15,12.37-65.02,43.25-109.46,45.87-11.3.67-41.25-1.13-52.2-3.32-48.66-9.75-83.07-43.98-134.84-49.5-8.34-.89-44.32,1.61-48.51-4.4-12.1-17.3,43.24-13.31,50.36-12.81,52.86,3.66,95.46,43.38,148.69,51.86,66.44,10.59,75.92-12.32,127.9-37.21,24.68-11.82,66.63-20.97,94.02-22.04Z"/>
  <path d="M163.71,359.8c-19.99-8.54-39.62-29.11-59.31-36.69-6.04-2.32-29.81-5.25-30.87-8.4-2.47-7.33,7.62-7.21,12.21-7.43,35.14-1.69,68.31,34.11,99.39,45.19,6.43,2.29,22.92,2.6,25.67,8.46,3.1,6.58-2.74,7.19-1.59,11.79.59,2.36,17.45,14.23,2.86,15.82-15.87,1.72-83.55-15.49-96.64-25.25-6.45-4.81-3.81-9.87,3.63-10.45,8.01-.62,22.93,8.26,33.35,9.31,2.15.22,13.62,1.93,11.29-2.34Z"/>
  <path d="M272.05,355.69c4.49-.08,15.69-.43,13.66,7.63-1.68,6.69-14.96,4.16-19.68,5.12-6.15,1.25-30.02,11.62-24.35-5.59,1.96-5.96,24.58-7.07,30.37-7.17Z"/>
  <path d="M203.76,217.42c15.68-1.81,14.05,9.72,2.09,11.47-14.82,2.17-15.52-9.92-2.09-11.47Z"/>
</svg>