<?xml version="1.0" encoding="UTF-8"?>
<svg width="512" height="512" id="Layer_1" xmlns="http://www.w3.org/2000/svg" version="1.1" viewBox="0 0 512 512">
  <!-- Generator: Adobe Illustrator 29.5.1, SVG Export Plug-In . SVG Version: 2.1.0 Build 141)  -->
  <path d="M89.67,218.95c-6-10.77,6.17-27.76,16.99-29.87,12.54-2.44,20.68,11.42,29.92,10.86,8.69-.53,14.27-16.52,22.21-14.19,6.14,1.79,8.42,19.61,16.08,18.61,9.05-1.19,10.9-20.3,21.08-20.3,11.3,0,20.37,32.36,32.17,33.49,26.97,2.59,10.46-36.19,19.86-40.81,21.83-10.73,7.16,35.62,16.01,40.06,11.28,5.67,7.35-13.16,8.73-20.14.94-4.73,6.14-18.36,11.38-19.15,13.95-2.12,3.18,20.87,3.91,29.65.6,7.2,8.39,15.28,4.97,19.36-1.11,1.35-2.52,1.9-4.2,2.22-12.31,2.37-34.08-.74-48.01.03-5.73.32-15.05,1.06-20.67,1.6-4.88.47-11.12,8.17-13.4-2.74-1.62-7.74,1.66-12.94-5.94-19.67-13.62-12.07-12.09,21.48-28.99,22.44-10.22.58-8.72-18.81-14.52-20.67-8.72-2.8-13.4,17.43-23.56,15.53-5.02-.94-3.37-15.25-13.22-20.29-20.24-10.36-13.65,16.89-30.81,13.99Z"/>
  <path d="M320.18,345.55c-1.67-5.1-2.13-20.52-8.89-20.65-8.75.35-21.21,24.41-29.65,20.07-5.71-2.93-2.49-29.56-22.47-24.14-15.24,4.13-8.13,23.95-24.89,26.37-10.68,1.54-31.33-3.26-43.11-3.25-8.24,0-21.87,8.02-28.15-.54-9.47-12.92,20.29-11.53,27.12-12.32,4.5-2.72-12.66-34.99,6.6-26.2,11.29,5.16,2.75,27.7,23.24,28.12,15.3.32,15.79-13.64,26.38-21.78,18.39-14.12,27.08-.06,42.72,8.52,5.46.54,12.59-11.79,22.01-10.87,8.55.84,14.54,12,19.62,12.46,8.33.75,28.7-22.73,39.71-10.79,3.13,3.39,13.56,28.43,13.52,32.78-.05,5.81-6.06,8.32-10.54,10.11l-3.82-2c-3.57-4.94,1.14-28.71-10.36-29.8-12.62-1.2-22.85,27.99-39.05,23.94Z"/>
  <path d="M238.53,399.98c9.71.88,15.28-8.86,23.03-14.31,4.18-2.94,17.98-11.43,22.34-11.16,12.55.77,16.4,22.25,16.99,31.97,4.8,1.25,7.65-2.93,11.93-3.31s9.35,1.77,14.35,1.82c9.42.09,18.64-2.3,27.37-1.73,3.27.21,12.02.94,12.04,5.65.03,9.95-18.16,3.71-23.13,4.07-6.83.49-18.67,5.78-26.03,6.27-4.77.32-8.54-1.89-12.44-1.51-3.57.35-7.05,4.48-11.13,3.08-7.69-5.89-6.09-32.65-17.58-31.58-9.54.89-31.68,37.36-41.8,36.57-8.19-1.8-4.66-9.94-6.46-16.11-.79-2.71-5.24-14.08-6.53-15.89-10.99-15.39-30.42,25.53-43.27,16.04-3.47-2.56-5.82-12.24-12.88-15.92-16.68-8.69-19.86,15.31-29.35,18.32-18.88,5.99.26-27.82,10.76-32.52,20.55-9.19,29.37,11.55,40.83,10.45,9.86-.95,23.12-16.88,30.94-17.31,8.09-.45,18.81,19.53,20.03,27.11Z"/>
  <path d="M419.81,229.93c5.88,5.34,17.14-11.7,25.95-12.49,12.63-1.13,32.34,20.73,32.78,33.12.12,3.4-7.14,21.84-10.68,22.84l-5.29-.54c-9.06-8.58,3.42-17.2-1.2-27.67-1.17-2.66-9.85-9.66-12.5-10.06-8.9-1.34-12.67,11.88-19.12,16.08-21.24,13.83-17.14-18.62-28.57-18.92-6.78-.18-11.02,25.37-19.82,26.57-14.38-.03-28.52-1.53-42.96-1.32-5.84.08-9.35,3.74-15.11-.77-7.84-6.13.47-9.72,1.48-16.05,1.33-8.29-3.41-25.55,11.29-22.38,9.87,6.28-1.02,20.56,7.33,26.34,4.9,3.39,25.34,2.35,30.96-.81,9.53-5.37,9.5-26.58,25.37-29.21,12.86-2.13,14.56,10.28,20.08,15.28Z"/>
  <path d="M307.46,156.92c9.08-4.65,18.81.98,27.9,1.45,3.4.18,6.39-1.22,9.25-1.06,13.12.73,49.53,6.25,58.84-1.27,6.12-4.94,9.36-27.91,20.71-20.97,6.74,4.12-2.48,12.93,1.94,18.12,6.74,1.56,16.51,4.43,21.18-2.95,5.46-8.64,2.25-33.15,17.31-30.04,15.02,3.09-1.2,23.62-.44,30.89.52,4.95,13.56,10.73,4.72,17.55-1.52,1.17-11.65,4.95-13.88,5.32-11.78,1.97-15.57-7.79-28.45-7.75-11.26.03-15.92,9.48-22.4,9.89-4.85.31-7.43-2.72-11.33-3.26-26.08-3.64-52.97.44-76.67-3.4-6.77-1.1-10.42-5.69-8.68-12.52Z"/>
  <path d="M302.65,70.04c23.98,8.54,51.84-2.38,75.12,9.27l-.3,6.69c-7.78,4.81-13.85-2.08-21.33-3-9.33-1.15-18.18,1.86-27.32,1.74-37.19-.51-75-2.3-112.02-3.32-4.69-.13-18.19-1.06-22.09-1.93-5.34-1.19-9.58-5.6-5.54-10.47,1.48-1.42,4.72-1.86,6.79-2.01,12.3-.92,30.59,3.3,43.32,2.99,13.77-.33,2.16-13.63,4.14-19.51,12.6-12.96,18.3,13.34,27.09,18.86,14.96,9.38,11.1-4.56,15.26-11.81,1.17-2.04,9.17-12.42,11.05-14.58,3.29-3.77,6.45-6.92,11.36-3.28,10.73,7.95-9.31,20.07-5.51,30.35Z"/>
  <path d="M81.84,298.04c3.98-4.04,9.29-1.28,11.2,3.22,3.97,9.35-4.05,19.3,2.74,26.1,5.6,5.61,31.73-2.93,23.4,13.68-2.33,1.85-17.1-.61-22.5-.14-4.3.38-9.58,3.12-12.89,3-2.92-.11-5.13-2.72-8.03-2.94-6.44-.49-14.99.99-20.69-.11-5.89-1.14-9.34-12.79-12.36-18.07-2.57-4.49-18.14-22.29-3.68-22.09,13.72.19,15.27,36.31,36.65,24,10.85-6.25.5-20.89,6.17-26.64Z"/>
  <path d="M133.1,107.47c2.74-2.69,19.71-.99,24.41-.39,6.62.84,14.84,4.48,20.99,4.64,7.53.2,16.9-3.78,24.02-4.47,11.86-1.14,22.04,1.93,33.48,3.01,7.39.7,27.49-3.72,26.53,7.2s-33.85,2.87-40.97,2.44c-15.72-.94-26.7,5-36.73,4.83-4.93-.08-10.88-2.89-16.12-3.22-8.78-.55-32.74,2.93-36.86-6.49-1.21-2.11-.36-5.95,1.26-7.55Z"/>
  <path d="M149.91,254.81c20.14-2.26,50.96.69,70.43,5.62,6.54,1.66,15.61-1.87,16.4,9.06-2.45,7.85-34.86-1.79-42.34-2.34-11.81-.86-28.19-.58-40.15,0-7.49.36-42.41,9.33-42.42-2.34-.01-9.3,22.11-6.74,27.9-7.37,3.47-.38,6.9-2.25,10.18-2.62Z"/>
  <path d="M319.71,113.94c12.09-1.62,33.62-.58,45.88,1.24,6.85,1.02,10.08,5.63,5.04,11.26-6.03,4.7-23.69-2.04-32.18-1.87-6.25.13-9.52,2.54-14.52,3.18-19.12,2.46-24.73-11.07-4.22-13.82Z"/>
  <path d="M213.9,437.18c9.71-2.67,11.37,10.67,9.72,17.86-.44,1.92-11.91,21.28-13.16,22.05-1.56.96-2.83,1.95-4.82,1.57l-4.95-3.3c-3.85-8.25,7.08-16.45,8.48-21.97,1.27-4.98-1.81-14.42,4.72-16.22Z"/>
  <path d="M84.08,88.04c9.04-3.74,23.14,20.32,23.12,26.27-.03,6.41-5.82,8.91-11.31,6.36s-19.79-29.94-11.8-32.64Z"/>
  <path d="M407.66,386.01c11.51-3.48,9.45,7.09,4.32,13.96-1.37,1.83-18.65,17.98-19.89,18.54-4.69,2.16-10.29,1.28-9.65-4.72.56-5.19,8.27-7.91,11.27-11.28,3.58-4.02,8.63-14.9,13.95-16.52Z"/>
  <path d="M398.12,336.33c1.6-.27,26.16,1.56,27.7,2.06,5.96,1.95,6.59,8.83,1.52,11.29-4.09,1.99-26.44,1.14-30.86-1.16-6.02-3.14-5.89-10.92,1.64-12.19Z"/>
  <path d="M183.56,440.54c3.39,10.11,5.01,21.14,1.83,31.48-9.66,8.05-22.04-27.07-11.07-32.74l9.24,1.26Z"/>
</svg>