<?xml version="1.0" encoding="UTF-8"?>
<svg id="Layer_1" xmlns="http://www.w3.org/2000/svg" version="1.1" viewBox="0 0 512 512">
  <!-- Generator: Adobe Illustrator 29.5.1, SVG Export Plug-In . SVG Version: 2.1.0 Build 141)  -->
  <path d="M132.19,159.82c2.99-.6,6.15.62,7.6,3.31.77,1.43,4.57,14.08,4.64,15.5.15,3.16-2.51,3.85-5.14,3.5-5.5-.72-16.45-20.43-7.1-22.31Z"/>
  <path d="M364.13,260.98c14.39-3.24,5.74,25.1-5.36,17.86-7.28-4.75-.27-16.59,5.36-17.86Z"/>
  <path d="M296.71,252.93c10.51-3.04,12.46,21.13,1.41,21.59-7.85.33-6.66-20.07-1.41-21.59Z"/>
  <path d="M227.72,365.29c10.74-1.46,4.32,15.45-1.43,17.9-12.69,5.41-10.57-16.27,1.43-17.9Z"/>
  <path d="M325.6,252.94c12.52-3.77,7.77,20.16-3.34,18.31-8.7-1.44-1.5-16.86,3.34-18.31Z"/>
  <path d="M185.93,366.93c2.92-.87,6.21-.26,8.67,1.44,4.41,3.06,10.23,9.35,3.54,13.17-9.6,5.49-19.08-12.58-12.21-14.61Z"/>
  <path d="M160.24,156.63c12.25-3.77,11.54,25.43.61,19.15-4.65-2.67-5.08-17.77-.61-19.15Z"/>
</svg>