<?xml version="1.0" encoding="UTF-8"?>
<svg width="512" height="512" id="Layer_1" xmlns="http://www.w3.org/2000/svg" version="1.1" viewBox="0 0 512 512">
  <!-- Generator: Adobe Illustrator 29.5.1, SVG Export Plug-In . SVG Version: 2.1.0 Build 141)  -->
  <path d="M164.75,109.97c6.8-1.06,18.81,1.71,22.95,7.61,4.55,6.49,3.13,13.25,4.85,19.92,2.1,8.15,9.68,7.16,16.24,9.08,10.7,3.13,14.73,6.93,22.17,14.72,3.6,3.77,11.82,15.02,16.47,16.01,12.12,2.59,9.05-13.26,10.01-20.88s3.96-18.65,12.93-19.55c4.47-.45,19.88,4.4,23.52,7.19,9.28,7.13-1.11,24.05,9.46,31.83,5.98,4.41,24.46,8.76,32.35,11.69,9.96,3.7,14.35,7.77,22.8,12.98,17.41,10.74,37.64,19.42,47.81,38.62,5.19,9.8,5.14,17.89,15.17,24.46,11.9,7.79,23.97,15.29,34.89,24.56,13.96,11.84,12.24,23.97.86,37.16-11.32,13.12-40.99,31.47-57.52,36.61-9.26,2.88-21.91,3.12-30.56,7.42-3.75,1.87-6.88,5.36-10.65,7.52-5.03,2.88-14.95,7.21-20.21,3.51s-4.16-8.84-5.65-14.17c-.5-1.78-1.54-5.06-3.91-4.26-2.31,4.19-.69,8.68-4.73,12.36-3.69,3.36-14.13,4.58-19.27,6.61-3.48,1.38-11.24,6.27-13.23,9.34-1.37,2.13-1.38,5.52-2.63,7.83-2.63,4.86-8.12,5.29-13.05,5.11-14.02-.5-27.87-2.75-41.85-3.84-15.86-1.24-31.97-.43-47.62-3.58-44.32-8.91-88.24-27.36-123.02-56.45-32.49-27.17-13.9-54.04-6.92-88.36,11.38-23.77,34.25-43.12,58.18-53.58,5.84-2.55,22.45-6.7,25.76-10.57.67-.78,1.21-1.87,1.57-2.83,5.63-15.24,7-35.23,9.26-51.29,1.14-8.08,4.12-21.31,13.55-22.78ZM169.13,123.17c-1.52.34-3.5,2.09-4.26,3.44-1.75,3.11-2.59,15.95-2.12,19.77.65,5.38,2.89,5.4,7.29,3.56,7.95-3.34,12.8-8.01,11.33-17.23-.82-5.18-6.69-10.81-12.24-9.55ZM273.73,151.79c-.71.21-1.83,1.48-2.28,2.13-1.9,2.73-2.84,13.48-3.06,17.31-.19,3.27-.77,9.21,3.56,9.67,3.62.39,11.1-3.8,12.88-6.99,1.48-2.66,1.55-10.55,1.13-13.64-.77-5.67-6.47-10.15-12.22-8.47ZM185.12,159.52c-5.24.89-12.23,9.03-15.49,13.14-5.94,7.47-27.32,38.09-28.36,45.96-.74,5.57,1.16,8.77,5.44,12.08,5.34,4.12,10.31,2.63,15.81-.18,21.63-11.01,22.07-25.04,31.88-44.64,2.09-4.17,4.72-8.67,7.14-12.68,2.2-3.66,8.62-9.4,1.46-12.57-3.33-1.47-14.23-1.73-17.89-1.11ZM218.69,177.68c-4.36.9-6.41,7.31-8.64,10.62-4.22,6.27-17.11,22.15-7.14,28.03,2.28,1.34,12.39,5.72,14.61,5.76,4.34.07,11.94-8.12,14.81-11.49,7.49-8.77,7.53-13.14,1.26-22.75-3.22-4.94-8.26-11.54-14.91-10.16ZM287.51,190.34c-1.65.28-5.52,2.19-6.17,3.73-2.24,5.33,4.32,11.98,6.76,16.33,4.24,7.54,8.42,16.19,11.53,24.26,2.16,5.62,3.34,18.04,11.37,17.16,4.5-.49,17.85-9.85,20.4-13.75,3.02-4.62,1.34-10.92-1.12-15.34-7.66-13.81-24.82-35.44-42.76-32.39ZM263.88,205.76c-7.56.53-21.25,12.47-25.45,18.64-2.54,3.73-3.84,6.64-.87,10.69,7.58,10.32,26.31,21.86,29.69,34.71,2.88,10.93-12.06,13.73-13.17,24.75-1.76,17.51,10.73,11.13,21.26,9.7,4.29-.58,8.68-.64,12.98-1.33,9.66-1.54,35.11-8.51,40.53-16.72,1.99-3.02,3.31-13.63,3.42-17.51.39-13.69-10.26-4.33-16.17-1.84-8.06,3.39-14.69,3.26-19.19-5.23-5.27-9.94-6.95-23.75-12.82-35.08-3.74-7.22-11-21.41-20.22-20.77ZM390.01,292.1c-2.48-1.69-9.23,5.23-10.71,7.1-3.84,4.85-6.98,17.75-15.16,15.18-5.02-1.58-3.21-6.33-1.3-9.61,8.07-13.88,23.71-24.54,27.03-41.24,2.4-12.04,4.13-21.66-6.42-30.11-2.21-1.77-9-6.22-10.35-1.53-.79,2.74.11,9.05-.19,12.47-2.4,27.35-20.21,44.7-42.7,58.04-14.27,8.46-21.6,8.82-37.18,11.82-12.78,2.46-19.7,4.74-33.16,4.78-10.94.04-21.65.65-32.48.55-33.15-.3-68.67.57-100.49-9.06-11.73-3.55-27.74-15.25-38.5-22.06-4.21-2.66-13.51-11.39-16.7-12.47-7.67-2.58-6.49,6.61-2.83,11.09,3.91,4.79,14.94,8.72,8.16,16.51-1.52,1.75-4.81,2.49-3.85,5.58.85,2.72,9.53,8.69,11.88,11.81,3.13,4.16,3.49,9.92-2.93,9.98-3.38.03-11.56-4.22-5.34,3.25,20.46,24.54,75.82,44.38,106.7,50.75,10.94,2.25,27.26.69,38.92,1.27s35.64,5.23,45.99,2.49c8.12-2.15,7.65-7.96,9.75-14.47,5.86-18.16,13.83-37.85,35.72-39.7,12.94-1.09,24.39,5.6,28.68,17.97,2.12,6.12,1.83,15.29,11.33,9.38,8.78-5.46,15.98-14.18,23.49-21.1,7.67-7.07,18.1-14.11,23.57-23.22,1.55-2.58,7.08-12.67,7.57-15,.6-2.89-.84-7.35-4.15-5.82-2.34,1.08-5.74,9.92-7.72,12.66-3.16,4.37-20.29,21.36-24.6,23.85-8.1,4.68-13.34,1.1-6.77-7.32,8.37-10.71,19.43-14.19,24.03-28.27.3-.93,1.53-4.99.69-5.56ZM194.26,272.98c6.8-6.8,17.27-15.01,26.76-17s19.79-.02,6.33-11.25c-7.7-6.42-19.54-14-29.73-13.25-13.9,1.02-31.77,13.24-43.15,21.26-3.74,2.64-13.08,13.72-14.62,17.86-3.3,8.84,7.57,16.04,14.2,19.9,4.67,2.72,15.32,8.51,20.39,5.89s14.78-18.39,19.81-23.41ZM239.02,304.53c3.06-2.92,2.73-14.53,2.38-18.79-.82-10.08-5.91-16.29-16.63-14.99-9.97,1.21-26.49,16.57-31.72,24.98-6.83,10.99,3.37,12.56,12.32,11.77,7.88-.7,7.76-6.84,10.62-12.5,2.25-4.45,8.11-13.38,13.88-8.19,4.98,4.48.79,12.45,3.05,16.77,1.37,2.62,3.99,2.96,6.1.95Z"/>
  <path d="M283.66,261.35c3.13-.61,6.03,1.59,6.78,4.53-.92,5.48.78,19.23-1.98,23.4-2.38,3.59-7.78,1.46-9.91-1.61-3.65-5.24-2.94-24.77,5.11-26.33Z"/>
  <path d="M218.69,187.59c10.03-1.86,8.41,15.32.97,15.86-8.26.6-9.18-14.34-.97-15.86Z"/>
</svg>