<?xml version="1.0" encoding="UTF-8"?>
<svg id="Layer_1" xmlns="http://www.w3.org/2000/svg" version="1.1" viewBox="0 0 512 512">
  <!-- Generator: Adobe Illustrator 29.5.1, SVG Export Plug-In . SVG Version: 2.1.0 Build 141)  -->
  <path d="M253.29,34.37c7.95-.62,12.81,5.54,17.72,10.78,19.32,20.57,33.39,53.88,30.38,82.4-2.6,24.57-26.86,66.61-1.81,87.01,8.01,6.52,11.54,4.34,20.17,5.82,5.39.93,11.86,4.35,18.5,5.49,39.87,6.86,88.53-8.59,124.26-26.18,5.24-2.58,15.28-11.81,21.01-6.1,7.39,7.37-2.9,13.49-8.38,16.73-31.62,18.66-80.66,31.63-117.17,34.81-6.09.53-12.81-.6-18.88.12-7.19.86-13.23,6.76-20.15,6.92-9.65.22-26.44-5.4-37.91-6.07-9.23-.54-22.62-.38-31.59,1.49-6.41,1.33-15.3,7.26-21.34,3.45-6.65-4.19-.32-12.38,4.69-15.1,14.62-7.93,28.86-7.03,44.08-8.91,7.1-.88,8.13-2.22,5.16-8.93-5.03-11.39-11.57-16.51-24.16-17.83-7.58-.8-37.69,4.02-32.94-11.16,3.34-10.67,32.9-3.97,42.12-4.9,8.1-.81,5.4-6.55,6.7-12.3,1.19-5.3,6.7-22.17,5.56-26.04-1.55-5.27-12.29-1.77-16.28-1.67-25.38.6-51.71-2.13-76.91-5.16-9.45-1.14-19.22-6.42-28.11.13-5.42,3.99-17.72,20.03-22.45,21.55-3.98,1.28-8.88.23-9.86-4.29-2.48-11.46,16.99-24.37,24.33-31.24,3.58-3.35,9.01-11.86,13.18-12.81,7.48-1.7,30.33,4.55,39.8,5.78,17.03,2.21,55.14,6.97,70.51,3.55,10.73-2.39,13.3-4.18,11.7-15.78-2.18-15.86-8.26-9.91-17.96-7.48-7.03,1.76-24.3,5.68-30.15,1.6-4.23-2.95-3.14-9.1,1.01-11.74,11.05-7.03,46.7,1.49,27.78-25.05-3.13-4.4-19.67-19.88-20.24-21.79-1.5-5.02,3.34-6.75,7.61-7.08Z"/>
  <path d="M309.23,31.33c4.81-1,7.92,2.6,10.78,5.82,11.69,13.18,24.51,30.97,27.04,48.95.56,3.98-.29,16.79,2.4,18.59,4.08,2.73,15.22-8.18,19.72-10.36,10.31-5,15.95,3.14,23.39,9.25,4.86,4,14.19,7.7,10.19,16.33-5.26,11.34-28.18-10.77-37.21-2.22-6.44,9.32-21.36,13.18-20.97,25.8.25,7.93,4.71,12.75,12.11,14.97,24.04,7.2,57.45-13.38,79.82-20.79,8.22-2.72,12.91.32,17.01,7.95,7.47,13.91-14.03,16.05-23.27,19.78-27.7,11.18-49.82,24.47-80.75,14.25-7.44-2.46-10.33-5.38-13.85-12.15-10.44-20.07-4.73-31.43-4.11-51.8.24-7.76-6.41-28.75-9.85-36.22-5.23-11.35-21.73-24.8-20.09-37.73.51-4,3.38-9.53,7.64-10.41Z"/>
  <path d="M227.23,333.35c11.48-2.38,20.43,6.26,28.29,13.25,3.6,3.2,16.68,18.36,18.93,19.06,6.8,2.11,13.1-1.9,19.56-2.54,8.38-.83,20-.05,27.86,3.12,3.68,1.49,18.87,10.21,21.17,12.82,3.33,3.78,3.85,10.84-1.49,12.6-7.63,2.52-19.1-8.92-26.78-11.33-7.69-2.41-16.35-2.63-24.09-.55-8.3,2.23-17.92,10.07-26.47,8.1-3.74-.86-9.4-8.46-12.69-11.3-5.71-4.92-17.72-16.84-23.06-19.93-8.3-4.81-18.39,6.23-23.37,12.53-3.32,4.21-5.59,10.16-9.04,13.95-2.35,2.58-24.43,20.27-26.81,21.18-9.38,3.58-13.9-5.23-8.72-12.71,6.72-9.72,24.54-20.48,32.02-30.97,5.9-8.11,25.34-25.36,34.69-27.29Z"/>
</svg>