<?xml version="1.0" encoding="UTF-8"?>
<svg id="Layer_1" xmlns="http://www.w3.org/2000/svg" version="1.1" viewBox="0 0 512 512">
  <!-- Generator: Adobe Illustrator 29.5.1, SVG Export Plug-In . SVG Version: 2.1.0 Build 141)  -->
  <path d="M250.84,36.62c7.51-2.25,16.29,10.88,20.11,16.47,30.18,44.13-4.94,71.91-14.53,114.11-16.32,71.82,58.14,99.48,107,130.38,26.09,16.5,52.26,34.61,78.77,50.22,5,2.95,20.19,9.18,22.33,12.67,1.88,3.06,1.65,7.21-1.46,9.37-11.44,7.92-34.12-16.4-45.58-17.41-3.54-.31-21.05,2.34-25.75,3.08-6.45,1.02-23.92,6.75-28.63,4.39-5.48-5.36-1.45-10.81,3.68-14.35,8.81-6.08,28.15-7.31,11.66-19.99-10.74-8.26-29.82-19.19-41.99-26-1.94-1.08-6.18-3.56-8.05-3.95-4.74-.98-24.75.34-30.81.73-8.24.54-13.23,1.81-20.47,5.52-4.87,2.5-14.51,11.82-18.46,2.5s12.04-17.49,18.79-20.16c3.98-1.57,19.09-3.57,16.21-9.8-2.22-4.8-16.69-12.95-21.45-16.6-30.36-23.34-36.72-28.95-77.62-28.45-6.77.08-12.72,2.86-19.82-1.09-8.08-4.5-21.01-26.03-28.12-33.87-7.43-8.19-10.25-10.54-18.48-1.46s-26.55,47.81-34.76,49.31c-7.05,1.29-8.2-6.13-6.48-11.57,2.48-7.84,15.17-26.92,20.19-34.8,5.48-8.61,20.1-31.94,27.72-36.27,17.74-10.08,20.94,7.85,29.08,19.52,5.98,8.59,24.6,31.2,34.15,33.84,6.76,1.87,15.52,1.32,22.55,1.44,4.21.07,8.38,2.59,12.6-1.41,4.17-5.47-3.61-27.1-7.66-32.52-2.93-3.94-8.64-6.92-13.08-8.92-7.36-3.33-23.34-4.42-21.34-14.61,2.52-12.86,29.86,2.61,35.56,3.42,12.89,1.83,12.92-17.22,3.36-24.38-7.14-5.35-27.45-5.76-23.73-17.87s31.02,6.77,38.37,2.37c3.84-2.3,13.62-30.6,13.47-35.52-.21-7.04-5.69-9.74-11.6-11.47-12.54-3.69-51.9-5.68-62.37,1.51-4.02,2.76-5.94,8.11-11.58,8.5s-9.42-3.74-14.94-4.12c-6.3-.44-9.99,2.63-15.18,2.99-11.26.79-10.15-10.33-2.31-15.38,8.6-5.54,17.93-2.54,27.19-3.8,8.3-1.13,16.21-6.86,25.26-7.73,12.46-1.21,35.83,2.51,46.32-.67,8.72-2.65,4.52-15.93,11.88-18.14Z"/>
  <path d="M309.85,33.6c9.47-1.94,22.19,19.56,25.45,27.13,9.26,21.49,1.63,47.9-7.02,68.36-7.63,18.06-28.32,47.42-17.2,66.85,7.62,13.31,15.09-.3,21.55-5.51,11.18-9.01,19.17-8.56,31.49-12.5,14.72-4.71,23.39-33.67,38.27-30.3,5.22,1.18,12.38,14.28,16.2,18.8,4.18,4.96,13.31,14.98,19.27,16.72s19.56-.66,20.32,7.75-7.59,8.46-13.71,9.39c-7.71,1.16-20.85,2.85-27.3-1.44-7.01-4.67-13.11-19.37-18.51-22.48-8.27-4.76-14.75,8.08-19.51,12.58-9.31,8.8-19.43,4.35-30.41,9.58-25.69,12.25-2.98,29.61,13.87,32.95,8.36-3.41,19.49-4.59,27.47-7.6,4.76-1.79,7.75-5.87,11.97-8.03,8.18-4.19,39.89-8.77,41.13,4.03,1.14,11.68-19.33,6.12-28.1,9-5.85,1.92-8.12,7.73-12.63,10.37-5.5,3.22-14.43.26-15.24,7.45.62,2.4,11.55,9.16,14.16,9.92,17.22,5.06,29.14-11.41,45.34-13.1,7.81-.81,33.41-2.37,34.46,8.36,1.16,11.88-15.83,6.43-22.58,6.43-4.01,0-13.53,1.31-16.85,3.24-6.11,3.56-9.18,9.28-2.59,14.29,16.68,12.72,40.42,19.8,51.58,40.41,6.33,11.69-2.16,14.37-12.42,11.42-24.81-7.14-61.44-24.84-83.88-38.1-11.02-6.51-20.99-16.06-31.6-23.39-18.9-13.06-40.47-24.54-58.63-38.36-8.74-6.65-19.78-14.84-19.1-26.88.29-5.07,5.95-24.31,7.73-30.31,9.6-32.34,42.97-72.81,26.46-106.89-2.75-5.68-23.09-27.34-9.44-30.14Z"/>
  <path d="M305.76,366.74c4.86,4.54,8.54,11.31,15.12,14.38,8.66,4.04,37.42,3.54,40.7,11.29,1.77,4.19.5,8.74-4.19,9.77-8.4,1.84-51.46-4.9-59.97-8.59-12.88-5.58-30.7-33.29-37.04-34.94-6.9-1.8-11.55,2.89-16.27,7.24-6.29,5.79-12.53,11.81-8.88,20.91,4.35,10.85,18.24,4.9,27.38,5.62,6.96.54,26.07,5.03,23.09,15.01-2.49,8.35-16.3,1.68-22.2,1.1-2.51-.25-5.37-.33-7.87-.11-8.89.79-16.66,8.31-25.56,5.54-1.64-.51-20.73-18.15-23.95-21.03-6.33-5.66-11.68-16.37-21.36-11.39-11.39,5.87-17.43,28.78-27.67,35.32-6.65,4.25-11.75-1.59-10.73-8.69,1.88-13.13,30.39-48.7,42.57-53.44,14.39-5.6,20.11,14.36,33.25,10.24,1.42-.44,11.84-10.08,13.95-12.03,4.59-4.24,21.81-23.45,25.71-24.32,8.7-1.93,12.47,8.17,17.25,13.33,8.32,8.98,17.78,16.51,26.67,24.82Z"/>
</svg>