<?xml version="1.0" encoding="UTF-8"?>
<svg id="Layer_1" xmlns="http://www.w3.org/2000/svg" version="1.1" viewBox="0 0 512 512">
  <!-- Generator: Adobe Illustrator 29.5.1, SVG Export Plug-In . SVG Version: 2.1.0 Build 141)  -->
  <path d="M248.82,29.2c3.11-.65,5.03.27,7.3,2.28s11.55,14.93,13.79,18.21c16.84,24.65,17.16,43.26,21.44,71.55,2.06,13.61,1.37,18.08,1.68,31.31.19,8.06,3.53,19.85,1.57,27.48-15.37,28.4-29.05,58.8-45.35,86.63-12.31,21.01-39.82,57.36-42.04,80.95-3.16,33.55,16.24,80.41,34.45,108.28,3.27,5,14.17,13.93,15.19,17.83,2.36,9.04-7.05,11.85-13.72,7.7-1.8-1.12-9.85-10.37-11.46-12.54-17.3-23.43-35.73-66.82-39.33-95.66-.72-5.75,1.13-18.3-2.7-22.3-1.75-1.82-9.67-4.92-12.88-7.11-6.35-4.33-26.31-23.92-31.41-24.65-4-.58-12.75,7.14-15.28,10.3-4.29,5.36-6.87,15.72-12.02,18.97-8.02,5.06-10.28-2.97-15.61-6.28-4.02-2.5-14.1-4.23-18.83-4.25-6.77-.03-27.55,5.48-27.55-6.42,0-8.06,11.4-8.08,17.56-8.49,13.02-.86,20.3,1.52,32.07,2.91,9.8,1.16,12.59-7.51,19.51-13.32,6.17-5.18,19.15-15.02,27.17-13.37,6.57,1.36,22.26,17.01,28.97,21.01,3.21,1.28,5.89,1.54,8.22-1.27,5.03-6.07,7.7-20.81,12.7-28.3,1.5-2.25,3.99-3.7,5.27-5.73,9.94-15.75,18.8-32.21,29.46-47.53l.59-8.39c-15.87-12.35-33.48-22.28-49.37-34.61-4.63-3.59-11.02-8.07-15.14-11.86s-5.3-10.82-12.71-7.78c-5.25,2.16-17.43,14.58-21.77,19.22-4.56,4.88-10.06,17.11-18.24,13.27-12.8-6,10.74-24.44,10.84-29.74.07-4.22-14.72-18.75-18.6-19.51-7.74-1.5-8.25,5.89-13.41,7.54-8.68,2.79-11.37-4.38-9.82-11.83,1.21-5.86,15.04-20.83,21.29-20.76,8.75.11,30.7,22.13,39.2,26.84,8.96,1.96,18.45-10.34,30.56-7.6,5.54,1.26,17.07,13.75,22.23,17.76,11.69,9.06,24.22,17.2,36.38,25.61,6.57,4.54,11.81,13.85,18.29,3.13,5.05-8.37,16.11-43.69,16.71-53.36.28-4.57-.92-6.57-4.58-9.18-3.44-2.45-25.43-13.26-29.08-13.95-7.42-1.4-9.49,5.6-16.31,3.34-8.32-2.76-1.13-24.34,3.99-28.12,9-6.63,31.33,9.54,39.81,14.35,10.45,2.7,4.41-17.47,2.98-23.01-2.08-8.08-6.31-20.09-11.32-26.68-4.64-6.11-12.19-10.25-14.91-18.09-1.7-4.89-2.27-13.47,4.23-14.82Z"/>
  <path d="M299.81,29.27c11.39-1.95,13.19,2.65,18.43,11.08,23.43,37.72,33.33,82.19,20.32,125.65-6.85,22.88-17.73,47.55-27.61,69.37-1.93,4.27-10.53,16.14-7.43,20.67,2.29,3.35,13.85-3.95,17.03-5.08,14.56-5.15,28.73-6.4,42.82-14.17,7.1-3.92,19.19-16.49,27.25-11.86,6.39,3.67,26.54,37.06,26.53,44.55-.02,8.85-12.83,12.58-19.83,9.74-8.88-3.61-14.01-26.88-20.28-29.75-4.59-2.1-19.58,8.96-24.59,11.39-15.68,7.63-21.51,7.38-37.64,10.35-2.67.49-23.85,9.02-26.44,10.56-7.88,4.68-19.4,29.11-21.78,38.21-1.33,5.07-5.49,24.86,1.2,26.83,8.02-.63,14.25-4.36,22.82-3.88,6.33.35,16.07,5.81,20.73,4.87s17.87-16.21,24.2-19.86c11.86-6.84,17.54.16,26.06,8.01,6.73,6.19,12.63,16.32,21.41,18.58,5.33,1.37,15.41-.04,16.88,7.18,2.4,11.76-11.5,8.48-17.33,8.27-4.46-.16-9.45.48-13.75-.25-10.09-1.72-24.52-21.21-32.16-20.75-6.41.39-15.33,15.92-23.34,16.81-5.87.65-13.85-5.59-19.97-6.57-7.48-1.2-25.81,2.6-27.2,11.31-.77,4.84,3.58,25.83,7.93,27.94s15.19-2.03,20.52-2.48c8.41-.71,34.49,1.48,30.05,15.03-2.7,8.26-14.91,1.52-20.07.94-11.98-1.34-25.31-.25-19.98,14.98,6.61,18.92,15.19,27.24,28.01,40.98,6.94,7.43,3.08,16.66-7.27,13.26-19.39-6.37-41.88-60.83-48.28-79.7-10.31-30.41-13.63-76.36,1.85-105.18,13.21-24.59,28.38-46.78,40.34-72.64,23.43-50.67,46.04-103.85,11.64-155.98-5.01-7.59-34.73-34.39-11.08-38.43Z"/>
</svg>