<?xml version="1.0" encoding="UTF-8"?>
<svg id="Layer_1" xmlns="http://www.w3.org/2000/svg" version="1.1" viewBox="0 0 512 512">
  <!-- Generator: Adobe Illustrator 29.5.1, SVG Export Plug-In . SVG Version: 2.1.0 Build 141)  -->
  <path d="M252.4,31.95c5.98-.92,11.06,8.48,13.7,12.9,8.93,14.9,14.76,32.41,23.41,47.59,12.46,21.88,31.55,40.01,35.08,65.91.55,4.05-.04,7.77.74,12.26,1.69,9.67,8.37,19.18,10.24,28.75,2.86,14.6-.87,24.89-.99,37.9-.06,6.34,2.99,9.33-.71,16.19-4.14,7.68-12.63,7.89-18.23,12.76-3.72,3.24-4.09,7.41-8.05,10.95-2.4,2.15-7.71,5.56-10.62,7.38-12.67,7.92-31.11,17.5-42.62,26.37-3.51,2.71-4.77,5.92-7.64,8.36-6.52,5.54-26.13,6.78-35.08,8.92-30.15,7.21-67.77,24.07-97.63,35.36-11.4,4.31-23.21,16.06-35.51,14.98-4.31-.38-23.12-8.45-25.21-11.87-6.11-9.99,10.64-14.74,17.45-17.38,38.71-15.01,70.39-21.94,108.57-41.41,5.28-2.69,21.45-6.75,21.48-13.62l-1.1-3.01-45.5-24.54c-3.15,0-13.51,8.89-16.51,11.54-5.71,5.03-15.62,17.78-21.06,20.92s-11.79-.49-10.75-6.66c1.4-8.3,22.13-24.52,28.84-30.24,7.51-6.41,19.29-20.06,30.24-18.27,12.86,2.1,35.57,20.82,47.21,27.79,5.95,3.57,26.37,10.09,32.56,8.5,3.84-.99,8.37-4.99,12.9-6.09,4.32-1.05,7.95-.5,12.75-2.25,7.32-2.68,27.71-12.56,34.34-16.65s16.21-15.31,8.9-21.97c-12.39-11.28-51.28-9.96-62.48,2.39-3.04,3.35-5.02,12.65-11.47,10.65-8.36-2.6-5.12-14.95-.98-20.1,3.56-4.43,14.41-9.3,1.04-13.04-10.94-3.06-20.4.09-30.24-.67s-12.05-11.01-2.63-14.13c11-3.64,33.16-1.48,44.11,2.56,6.25,2.31,9.99,6.42,15.02,8.97,5.88,2.97,21.91,0,30.09.91,5.57.62,19.11,7.14,22.6,5.41,5.64-2.8-1.14-22.15-2.74-27.28-2.55-8.2-6.23-18.42-9.8-26.2-5.44-11.86-9.01-15.66-21.48-20.51-6.28-2.45-31-4.34-24.86-14.89,5.32-9.14,23.11,1.88,26.39-3.62,3.77-6.33-5.65-20.41-11.46-23.56-7.57-4.1-22.01-3.29-29.73.37-4.94,2.35-9.37,8.91-15.29,4.65-10.37-7.46,7.95-18.06,14.76-20.19,4.94-1.54,18.75-2.04,20.06-7.01,1.6-6.08-15.03-30.17-17.65-37.03-1.11-3.62,1.87-8.5,5.52-9.06Z"/>
  <path d="M308.42,29.92c2.77-.54,5.62,1.19,7.68,2.92,11.58,19.6,27.35,37.66,38.74,57.25,6.44,11.07,13.04,25.33,19,37,15.92,31.18,29.73,63.14,43.76,95.22.49,1.95,1.1,3.9,1.13,5.95.12,6.7-9.85,31.48-14.1,36.97-3.87,5-8.05,9.96-11.99,15-2.87,3.66-19.43,18.22-7.45,20.49,5.85,1.11,16.33.34,22.97,1.03,8.4.87,26.12,2.25,33.34,4.66,6.39,2.13,8.37,9.01,2.09,12.76-6.03,3.59-27.18-1.07-35.38-1.46s-18.84-.45-27.03.05c-12.49.77-24.97,5.05-37.99,7-14.11,2.12-35.78,15.06-49.83,21.16-36.19,15.71-72.4,31.94-108.69,47.29-22.07,9.33-44.08,15.59-66.22,23.77-6.75,2.49-12.58,7.69-20.24,7.84-10.75.2-12.38-9.04-3.19-14.27,13.83-7.87,34.48-11.78,49.65-17.34,37.15-13.6,74.05-31.65,110.35-47.63,33.71-14.84,93.92-34.7,116.66-63.32,5.14-6.46,19.51-29.56,20.03-37.02.3-4.3-3.4-23.47-4.71-28.29-4.26-15.69-20.06-40.09-27.83-55.16-5.33-10.34-17.75-33.29-20.7-43.29s.2-11.94-5.97-23.03c-9.25-16.6-20.5-32.41-30.3-48.69-3.75-5.63-.4-15.56,6.24-16.84Z"/>
  <path d="M349.47,414.02c11.09-.62,39.22.14,45.07,11.34,3.29,6.28-4.4,15.14-10.47,15.33-6.42.2-12.13-10.29-19.12-11.73-4.56-.94-27.78.04-30.82,2.72-6.42,5.65,12.27,10.75,2.47,20.48-8.58,8.52-25.67-2.15-35.4-5.44-21.48-7.27-33.7-11.76-53.84,3.19-5.76,4.27-12.08,18.76-19.04,14.71-11.59-6.74,5.53-23.27,12.04-27.71,5.38-3.68,21.22-13.72,26.79-14.21,12.87-1.14,30.66,2.49,41.95.95,4.29-.58,9.23-3.88,13.8-5.19,8.71-2.5,17.52-3.92,26.57-4.42Z"/>
</svg>