<?xml version="1.0" encoding="UTF-8"?>
<svg id="Layer_1" xmlns="http://www.w3.org/2000/svg" version="1.1" viewBox="0 0 512 512">
  <!-- Generator: Adobe Illustrator 29.5.1, SVG Export Plug-In . SVG Version: 2.1.0 Build 141)  -->
  <path d="M309.93,34.67c3.72-.82,6.98.33,9.3,3.28,1.74,2.21,8.28,15.72,9.83,19.16,2.68,5.95,6.72,17.03,7.69,23.3,1.07,6.91-2.22,18.55,7.01,19.99,6.22.97,14.35-.45,20.92.08,8.26.65,43.08,6.85,35.39,20.37-4.45,7.81-15.51,1.24-21.67-.09-12.72-2.75-38.43-7.9-47.61,2.79-18.72,21.79,2.16,16.3,16.62,20.2,7.2,1.94,25.42,9,19.67,19.1-4.92,8.63-18.7-1.35-25.83-2.94-32.38-7.23-54.45,5.3-83.82,12.26-49.26,11.68-143.69,6.85-186.89-21.52-5.08-3.34-10.91-9.82-4.83-15.22,7.27-6.45,22.12,5.34,29.54,8.5,42.63,18.19,114.18,22.11,159.18,11.23,26.17-6.33,55.62-25.12,58.76-54.23,1.14-10.56,1.36-20.94-1.95-31.01-2.23-6.78-10.37-18.89-10.1-24.95.17-3.74,5.23-9.53,8.79-10.32Z"/>
  <path d="M250.95,34.65c8.15-1.67,12.92,9.41,14.98,15.61,3.64,10.94,5.85,39.36,2.74,50.16-10.6,36.81-40.1,39.51-73.99,38.08s-63.15-7.07-94.12-22.86c-8.82-4.49-19.94-12.38-12.17-23.52,6.28-9.01,18.06.61,25.17,3.52,31.64,12.97,86.51,22.24,118.35,7.02,3.32-1.59,8.85-4.78,6.81-9.17-.57-1.23-18.32-15.01-21.03-16.99-2.29-1.68-5.88-4.87-8.45-5.56-8.31-2.25-16.99,6.07-24.99,8.07-8.57,2.13-35.06,1.28-43.02-2.03s-7.97-14.11.56-15.44c11.85-1.85,26.18,3.05,38.49.5,2.89-.6,12.94-5.39,15.98-7.02,8.1-4.32,10.77-11.39,21.66-5.74,6.4,3.33,24.59,21.44,31.65,19.09,8.81-2.93-13.94-30.57,1.38-33.71Z"/>
  <path d="M227.92,232.67c14.68-3.33,22.7,13.98,31.76,22.82,14.2,13.86,33.93-.69,44.45,5.54,5.69,3.37,5.28,11.33-.65,14.2-7.3,3.54-37.18,4.29-45.53,2.98-3.53-.55-13.06-3.93-16.07-5.93-4.34-2.87-12.24-14.41-16.94-13.67-3.29.51-14.2,13.34-14.71,16.42-1.23,7.56,9.58,10.52,15.49,10.5,5.58-.01,15.35-3.74,18.06,4.88,4.65,14.78-23.82,12.75-32.12,10.09-17-5.44-16.29-10.48-37.65-6.76-7.3,1.27-16.87,6.59-23.22,5.65-8.52-1.26-26.17-17.04-33.2-22.81-4.21-2.65-7.03-.21-9.79,2.95-5.71,6.52-16.69,31.63-22.53,33.49-6.27,1.99-10.45-2.9-10.09-9.03.38-6.48,15.02-29.57,19.62-35.44,7.08-9.04,20.43-22.01,32.85-20.02,13.51,2.16,24.76,30.07,35.94,29.84,2.9-.06,16.9-2.34,19.87-3.15,7.76-2.1,18.72-18.83,24.71-25.28,3.65-3.93,15.26-16.24,19.73-17.26Z"/>
</svg>