<?xml version="1.0" encoding="UTF-8"?>
<svg id="Layer_1" xmlns="http://www.w3.org/2000/svg" version="1.1" viewBox="0 0 512 512">
  <!-- Generator: Adobe Illustrator 29.5.1, SVG Export Plug-In . SVG Version: 2.1.0 Build 141)  -->
  <path d="M351.52,113.17c8.05-.07,19.55,13.47,27.31,18.15,7.6,4.58,26.54,13.08,35,14.08,11.32,1.33,28.53-13.51,37.4-8.48,6.47,3.67,3.74,15.32-.9,19.87-5.67,5.57-19.58,14.06-26.76,19.23-4.36,3.13-9.96,5.6-14.23,8.77-11.36,8.45-44.24,45.84-48.53,58.46-5.74,16.89,1.78,41.35,13.52,54.54,16.89,18.96,41.27,39.17,64.83,49.16,5.79,2.46,22.6,5.51,22.6,12.32,0,7.69-10.67,7.03-15.98,6.05-6.97-1.3-18.95-9.52-24.43-9.59-3.44-.04-6.49,2.73-10,3.08-10.74,1.07-18.04-4.14-30.04,1.93-6.11,3.09-15.72,16.68-21.94,8.01-5.71-7.97,10.54-19.09,16.79-22.15,3.73-1.83,17.94-4.11,18.62-6.45,1.79-6.21-17.06-10.93-21.45-11.36-19.05-1.85-36.78.64-51.01,13.96-4.21,3.94-9.99,15.87-16.49,8.55-6.62-7.46,5.52-18.41,11.01-23.03,9.75-8.2,21.1-12.23,33.63-14.37,4.08-.7,12.41,1.6,12.46-4.6.03-3.33-10.17-17.1-12.6-21.5-4.81-8.72-17.59-31.75-17.55-40.51.02-4.82,3.6-9.65,1.55-14.48-1.6-3.76-10.48-6.43-13.97-9.02-5.72-4.24-21.74-22.46-26.21-23.78-1.65-.49-3.95-.51-5.58,0-2.62.8-19.1,22.83-22.11,26.87-6.13,8.23-12.59,25.64-24.84,23.68-18.92-3.04-22.55-11.79-44.41-2.94-8.07,3.27-26.38,14.77-33.06,15.93-5.25.91-13.13.39-14.86-5.74-2.22-7.83,9.99-8.56,14.59-10.53,18.15-7.78,34.83-20.49,55.5-18.48,5.94.58,14.9,5.48,19.87,2.86,3.72-1.95,8.69-11.22,5.5-15.24l-30.08-27.99c-2.24-.85-4.42.12-6.29,1.37-5.37,3.57-26.39,32.76-32.76,17.72-1.15-2.71-.29-4.87,1.27-7.22,4.19-6.33,16.62-16.08,22.51-22.48,7.83-8.5,6.61-15.31,20.84-9.86,14.14,5.41,28.74,18.37,42.24,23.75,15.59,6.21,17.21-21.23,28.67-19.7,4.48.6,10.37,9.37,14.25,12.78,4.83,4.25,13.03,9.94,18.56,13.44,3.95,2.5,18.47,11.09,22.17,10.43,4.97-.88,14.09-17.68,17.76-22.33,7.05-8.92,16.05-15.61,22.85-24.25l-.34-2.23-35.25-27.84c-6.72-1.49-17.07,8.3-22.95,11.63-7.09,4.01-16.81,9.85-20.25-1.33,0-2.53,3.08-5.42,5-6.93,5.37-4.22,25.84-17.8,31.58-20.42,1.94-.88,4.94-1.77,7.02-1.79Z"/>
  <path d="M476.57,191.01c8.41-.97,13.58,4.95,6.8,11.83-10.76,10.91-41,19.96-54.86,30.13-9.82,7.2-15.28,15.43-8.08,26.74,6.56,10.29,22.8,27.23,32.88,34.11,6.17,4.21,27.23,15.27,29.79,21.25,3.7,8.66-16.07,14.45-21.99,11.93-15.67-11.17-48.1-21.3-56.45-39.54-6.96-15.21-7.06-31.76-.99-47.34,9.23-23.71,52.8-35.74,72.9-49.11Z"/>
  <path d="M166.6,315.01c9.76-2.03,22.28,12.55,30.74,17.79,3.15,1.95,8.61,5.72,12.15,5.95,11.77.75,16.6-22.62,32.39-10.49,4.34,3.33,27.98,26.68,30.43,30.56,3.14,4.99,1.44,12.78-4.42,14.54-4.44,1.34-10.73-3.32-14.34-5.78-4.92-3.34-21.98-19.04-26.1-18.8-9.23.54-17.51,20.38-24.87,24.18-4.45,2.3-25.56,6.11-31.31,6.7-12.9,1.32-15.4-9.82-3.36-14.37,5.07-1.92,18.22-2.28,21-4.99s.21-6.3-1.5-8.55c-1.44-1.88-10.41-9.8-12.6-11.4-1.71-1.24-4.48-3.18-6.57-3.3-9.31-.54-20.3,23.39-30.32,16.18-9.11-6.56,8.61-19.37,13.49-24.46,4.54-4.74,7.45-12.17,15.22-13.79Z"/>
</svg>