<?xml version="1.0" encoding="UTF-8"?>
<svg id="Layer_1" xmlns="http://www.w3.org/2000/svg" version="1.1" viewBox="0 0 512 512">
  <!-- Generator: Adobe Illustrator 29.5.1, SVG Export Plug-In . SVG Version: 2.1.0 Build 141)  -->
  <path d="M169.34,128.29c17.17-2.47,15.03,8.3,24.22,15.25,7.63,5.77,24.09.16,33.52-.51,11.75-.83,28.07-1.75,39.33.65,24.82,5.3,28.96,25.88,49.45,36.54,7.82,4.06,24.63-.67,32.94-3.45,18.33-6.15,34.65-16.91,52.07-24.92,8.24-3.79,32.13-14.84,39.61-16.38,8.04-1.65,13.68,2.27,12.84,10.76-.89,8.97-10.1,14.08-17.42,17.65-23.2,11.3-51.97,23.32-76.1,32.89-27.03,10.72-54.93,19.28-81.95,30.04-12.15,8.42-13.94,24.27-22.29,35.71-6.82,9.34-23.88,24.93-34.33,29.67-6.3,2.86-13.66,4.04-19.72,7.27-4.19,2.23-7.36,5.93-12.26,7.74-15,5.56-36.39-1.81-32.23,21.87,1.93,10.98,20.62,37.72,27.53,48.46,16.45,25.6,35.22,53.9,55.5,76.48,4.45,4.95,19.24,15.57,17.34,22.26-2.08,7.3-10.73,2.43-14.3-.3-27.7-21.17-68.28-85.71-86.93-117.05-14.03-23.57-24.23-45.18-.92-67.74,20.07-9.05,46.57-12.93,65.02-24.96,2.65-1.73,5.91-3.96,5.34-7.64-3.57-9.77-29.14-4.64-27.04-17,1.55-9.13,22.63-2.58,28.52-.57,5.56,1.9,13.09,7.31,18.53,5.57,5.88-1.88,11.56-19.93,15.51-25.49,3.25-4.57,18.18-13.68,9.35-18.48s-26.28-.06-35.95,1.88c-4.1.82-8.57,3.04-12.58,3.43-13.93,1.37-20.45-15.52-4.61-19.62,15.44-3.99,47.24-3.1,62.85.59,4.09.96,18.35,7.83,20.93,4.2,2.42-6-3.79-7.78-7.09-11.04-4.89-4.82-14.49-17.14-18.96-20.04-6.78-4.4-11.52-1.96-17.97-1.95s-13.53-.41-20.03-.03c-14.07.83-42.98,7.52-54.56,1.55-9.11-4.69-7.93-14.36-20.95-4.07-7.47,5.91-15.18,23.88-25.91,17.93-11.39-6.31,6.06-25.46,11.41-31.43,5.73-6.39,13.46-14.45,22.27-15.72Z"/>
  <path d="M475.27,192.24c4.34-.9,8.88-.58,10.31,4.31.18,1.76-.7,3.04-1.58,4.41-5.21,8.12-35.46,16.23-45.69,20.29-35.19,13.96-74.34,27.99-108.41,43.57-7.13,3.26-34.24,16.28-35.35,23.73-1.42,9.5,20.39,6.01,26.52,6.46,9.13.67,22.02,5.36,30.57,3.54,9.61-2.05,27.04-26.32,36.46-33.52,10.26-7.84,14.17-3.75,22.49,3.46,9.62,8.34,21.87,26.92,33.58,29.41,6.24,1.32,23.1-1.02,24.38,5.63,2.18,11.26-13.09,8.42-20.23,9.72-11.83,2.16-14.61,11.69-27.69,3.18-9.32-6.06-18.11-21.16-27.1-26.89-4.53-2.88-7.5-1.36-11.45,1.45-6.38,4.55-19.9,23.56-25.21,24.78-6.89,1.58-11.12-1.97-17.28-3.3-20.84-4.51-49.92-4.94-70.27,1.76-7.84,2.58-15.16,7.08-22.77,10.22-6.7,2.77-27.51,8.29-30.04,13.95-2.42,5.43,1.08,13.47,6.59,14.55,8.04,1.58,38.3-13.33,42.98-3.99,8.37,16.7-32.26,6.35-28.31,24.29,3.04,13.82,20.59,1.3,28.01-.57s21.51-3.21,26.21,4.38c7.64,12.34-14.63,8.32-19.83,9-11.06,1.44-15.88,8.65-9.99,18.82,4.64,8.01,18,23.75,24.43,31.56,5.54,6.73,12.59,15.27,18.46,21.54,3.93,4.19,17.17,14.64,18.76,18.24.7,1.59,1.24,3.04.26,4.71-3.42,7.65-19.87-1.08-24.81-4.17-13.35-8.35-44.28-37.69-53.51-50.48-14.88-20.63-39.74-60.12-47.22-83.76-3.43-10.82-1.99-13.97,8.36-18.72,16.02-7.34,36.18-10.2,50.99-21,9.67-7.05,18.83-19.72,28.15-27.85,11.22-9.78,26.58-17.7,40.16-23.83,48.01-21.65,100.51-38.05,149.06-58.91Z"/>
</svg>