<?xml version="1.0" encoding="UTF-8"?>
<svg id="Layer_1" xmlns="http://www.w3.org/2000/svg" version="1.1" viewBox="0 0 512 512">
  <!-- Generator: Adobe Illustrator 29.5.1, SVG Export Plug-In . SVG Version: 2.1.0 Build 141)  -->
  <path d="M165.86,65.37c8.74-2.02,22.07,7.27,29.61,11.96,3.16,1.96,6.09,5.67,9.61,7.39,5,2.44,9.73,1.55,13.81,3.19,4.69,1.88,4.43,8.3,6.92,9.12,6.1,1.99,13.61-9.24,22.38-6.43,5.88,1.88,18.68,20.23,28.67,22.32,6.7,1.4,10.21-1.67,16.03-2.51,12.61-1.82,19.34-2.04,31.48,2,5.96,1.98,32.13,10.18,20.28,19.77-7.3,5.91-22.72-5.53-31.29-6.77-6.23-.9-16.01-.6-21.94,1.53-10.63,3.83-10.19,15.13-24.59,8.01-9.26-4.58-19.17-13.34-27.97-19.02-5.04-1.93-7.27-.78-11.19,2.24-2.67,2.06-14.79,12.96-15.79,15.25-1.97,4.52,2.14,6.14,5.57,7.9,16.96,8.71,41.61,12.59,59.94,19.05,13.05,4.6,34.07,18.21,46.97,16.5,6.81-.9,11.43-5.11,17.31-6.68,5.1-1.36,9.44-.55,14.25-1.74,7.32-1.8,13.8-8.58,20.9-11.09,15.63-5.51,30.56-8.04,46.95-15.05,7.54-3.22,17.88-11.07,25.84-10.2,4.72.52,7.34,3.4,6.31,8.29-.23,1.09-8.13,13.07-9.4,14.66-5.72,7.23-32.41,19.46-42.07,23.92-28.54,13.2-67.12,29.05-98.37,19.66-6.6-1.99-10.39-6.11-16.46-8.54-12.17-4.87-28.31-6.92-41.28-10.72-38.84-11.37-104.04-37.59-137.75-59.23-7.37-4.73-23.04-14.62-23.51-23.56-.75-14.11,16.33-6.85,23.72-3.64,4.33,1.88,11.3,7.71,15.56,7.01,3.4-.56,17.72-14.38,21.29-17.8,4.23-4.05,12.34-15.47,18.17-16.82ZM164.91,88.32c-3.05.5-18.17,14.48-19.81,17.27-1.01,1.72-1.39,2.86-.79,4.85.5,1.61,1.92,2.07,3.14,2.89,5.7,3.84,26.66,14.02,33.14,15.86,3.88,1.1,8.19,1.85,11.93-.18,3.36-4.98,22.25-17.31,23.46-21.57,2.2-7.74-13.41-4.17-17.32-4.22-11.75-.15-27.26-15.98-33.75-14.91Z"/>
  <path d="M67.52,144.78c-6.09-6.66-3.63-15.32,5.9-13.43,4.7.93,17.89,12.32,23.43,15.59,62.18,36.69,139.5,63.78,210.27,78.7,33.34,7.03,59.84,7.33,93.03.02,20.09-4.42,43.43-16.74,62.34-25.65,5.08-2.4,20.86-14.75,23.42-3.15,1.55,7.03-3.7,9.75-8.78,12.79-32.25,19.3-75.23,34.36-112.61,38.37-25.34,2.72-54.59-8.98-79.16-11.61-9.9-1.06-6.77.71-12.89,4.55s-15.02.62-22.81,1.18c-11.01.79-26.01,5.45-36.2,9.8-7.56,3.23-9.71,7.86-19.76,6.13-3.13-.54-4.67-3.13-7.26-3.73-15.17-3.53-17.51,23.88-28.69,22.77-5.08-.5-5.95-5.1-5.62-9.47.61-7.97,16.82-27.31,24.08-30.95,14.29-7.16,18.94,2.24,29.14,1.22,1.47-.15,26.74-8.31,28.06-9.01,5.12-2.7,1.41-5.45-2.26-7.28-25.66-12.78-82.18-16.5-108.37-4.37-4.44,2.06-13.96,11.06-17.88,2.64-5.18-11.16,11.03-17.06,18.74-19.78,5.23-1.84,15.04-3.29,18.79-5.2,8.46-4.32-8.39-9.5-11.95-11.6-6.65-3.95-12.88-8.52-19.66-12.34-13.1-7.37-32.86-14.77-43.31-26.19Z"/>
  <path d="M355.9,342.31c7.26-1.01,16.53,8.09,21.26,13.28s11.27,12.91,6.41,20.47c-7.47,11.63-25.33-12.16-33.88-10.97-7.75,1.08-2.12,12.64-6.59,16.49-8.62,7.42-16.12-9.86-22.91-12.02-11.68-3.71-33.24,6.58-43.36,12.74-4.46,2.72-16.47,15.19-20.94,5.57s15.58-21.04,22.88-24.64c18.64-9.2,27.82-10.33,47.98-8.23,13.25,1.38,17.99-11.14,29.16-12.7Z"/>
</svg>