<?xml version="1.0" encoding="UTF-8"?>
<svg id="Layer_1" xmlns="http://www.w3.org/2000/svg" version="1.1" viewBox="0 0 512 512">
  <!-- Generator: Adobe Illustrator 29.5.1, SVG Export Plug-In . SVG Version: 2.1.0 Build 141)  -->
  <path d="M408.79,193.73l1.54,2.52-1.04,1.98-38.46,19.52c-3.74-.36-5.98-10.36-8.02-14.05-3.6-6.53-12.72-17.18-20.95-15.95-3.48.52-13.75,8.8-17.9,11.13-23.52,13.22-39.91,7.23-63.67,14.32-3.47,1.03-17.08,5.7-14.54,10.51,6.98,6.76,17.72,3.75,25.81,5.23,3.98.72,9.11,4.94,13.5,6.49,17.33,6.11,38.49,8.45,56.44,13.55,45.3,12.89,89.11,29.55,128.69,55.29,7.95,5.17,27.34,18.98,8.28,24.12-17.1,4.61-22.49-2.89-36.52-8.87-20.84-8.89-37.21-16.42-57.29-26.7-58.32-29.87-118.73-34.31-181.86-48.11-25.52,2.67-51.43,3.79-76.86,7.12-13.75,1.8-12.48,6.12-10.13,17.88,14,70.05,73.4,141.54,124.48,189.48,8.08,7.59,16.83,14.57,25.47,21.52,5.03,11.62-5.28,13.26-14.15,8.16-10.96-6.3-31.71-28.71-41.33-38.66-48.77-50.48-97.99-112.3-110.67-183.3-1.78-9.97-5.06-22.64,3.78-29.64,13.17-10.42,62.99-18.19,80.38-18.61,11.96-.29,20.95,4.03,32.02,3.03,14.72-1.33,23.9-16.37,36.24-21.76,21.23-9.26,46.41-2.26,67.18-15.81,6.68-4.36,20.8-20.11,27.63-21.37,8.59-1.58,24.43,12.17,30.94,17.96,3.56,3.16,9.3,12.99,15,12.99h16Z"/>
  <path d="M194.12,266.02c13.52-1.27,25.79,1.8,38.7,1.79,17.71-.02,26.13,1.71,43.28,6.63,28.23,8.09,59.14,21.07,86.19,32.79,25.58,11.09,41.46,21,64.7,35.28,8.83,5.43,23.78,11.6,31.24,17.75,8.26,6.82,2.69,15.51-6.97,12.96-5.6-1.47-26.08-13.95-32.26-17.72-14.1-8.59-24.73-17.31-40.33-24.66-26.81-12.63-61.5-27.24-89.56-36.42-21.87-7.16-65.66-14.99-88.31-13.75-15.57.85-9.56,9.87-5.95,20.02,2.88,8.08,17.07,43.57,23.51,46.52,3.71,1.7,11.9-5.2,15.99-6.99,17.92-7.83,28.41-8.01,47.19-2.23,5.09,1.57,13.79,3.56,11.61,10.99-2.89,9.87-21.61,1.46-28.44.85-10.37-.93-38.6,4.69-33.61,19.61.91,2.73,15.27,21.58,17.48,22.5,8.29,3.43,17.06-7.01,25.33-8.15,10.87-1.49,39.47,3.19,46.41-3.58,8.4-8.19,14.38-31.87,22.93-36.05,9.53-4.66,14.78,5.59,21.04,11.06,7.35,6.43,15.93,12.57,23.02,18.97,6.14,5.54,12.93,10.8,6,19.02-4.72,5.6-9.88,5.49-15.5,1.48-7.56-5.38-15.86-16.03-23.6-21.4-15.94-11.06-17.54,22-28.87,24.93-14.66,3.79-49.42-5.28-60.03,6.96-2.35,2.71-2.25,3.78-.84,6.84,1.45,3.14,12.39,15.79,15.57,16.48,5.22,1.14,8.67-2.21,13.25-3.33,10.76-2.64,24.5-4.93,35.53-5.47,6.87-.34,24.53-2.28,24.53,7.49,0,9.65-13.48,6.96-19.53,7.51s-32.69,2.65-35.59,6.39c-1.4,1.81-1.39,4.36.04,6.15,4.91,5.47,23.94,19.5,24.99,25.99,1.18,7.33-.34,16.07-9.41,15.49-18.03-1.15-32.04-25.83-42.55-38.51-14.51-17.52-33.16-36.89-45.38-55.61-4.98-7.63-8.36-16.08-13.17-23.82-14.4-23.19-39.95-54.73-44.96-82.03-3.34-18.2,11.45-21.35,26.35-22.75Z"/>
</svg>