<?xml version="1.0" encoding="UTF-8"?>
<svg id="Layer_1" xmlns="http://www.w3.org/2000/svg" version="1.1" viewBox="0 0 512 512">
  <!-- Generator: Adobe Illustrator 29.5.1, SVG Export Plug-In . SVG Version: 2.1.0 Build 141)  -->
  <path d="M460.11,268.54c4.21,3.49,21.86,5.76,9.72,15.85-12.79,10.63-26.15-5.76-36.73-11.33-9.16-4.83-19.38-.55-25.22,7.16.95,5.62,31.68,13.36,37.9,16.15,12.71,5.71,26.69,12.77,37.04,21.95,5.04,4.47,5.35,12.12-1.77,13.37-6.02,1.06-20.01-8.69-26.27-11.32-18.25-7.69-39.05-9.98-57.49-16.5s-22.1-11.39-42.99-13c-30.02-2.32-33.96,6.58-58.95,14.02-11.91,3.55-37.24,2.63-50.01.95-10.37-1.36-26.58-7.83-36.01-7.04-6.18.52-38.57,22.46-46.83,27.22-19.94,11.5-40.37,21.56-60.69,32.3-7.86,4.16-28.09,18.33-35.51,18.57-4.55.15-15.55-4.78-16.31-9.77-.89-5.8,9.58-11.92,13.92-14.69,15.2-9.71,31.33-18.11,45.42-29.58,4.83-3.94,6.71-6.65.2-10.2-2.35-1.28-29.33-11.63-31.18-11.83-12.19-1.29-22.07,14.06-28.78,12.88-6.11-1.08-6.59-7.28-3.28-11.89,3.73-5.21,21.17-16.49,27.26-17.73,10.52-2.14,16.81,5.5,25.29,9.25,5.04,2.23,34.95,13.51,38.38,13.42,1.74-.05,4.55-1.07,6.28-1.72,18.48-7,37.52-23.45,57.82-25.17,14.42-1.22,26.27,3.15,39.93,4.03,15.87,1.03,70.61-5.86,84.07-13.01,3.5-1.86,6.82-5.63,10.56-7.44,16.51-7.96,27.5,4.17,43.28,6.37,9.17-4.08,19.34-4.82,28.6-8.48,5.98-2.37,19.23-12.03,23.61-12.47,3.91-.39,14.99,6.03,18.34,8.55,4,2.99,7.25,8.53,10.37,11.12Z"/>
  <path d="M322.59,110.07c3.75-.52,7.09,1.34,10.17,3.36,12.41,8.13,28.36,29.63,41.99,33,4.53,1.12,16.77.61,11.93,9.79-4.22,8.02-21.14,6.15-28.42,3.69-11.53-3.9-31.4-27.72-39.96-28.11-5.81-.27-18.73,9.87-23.01,14.04-2.88,2.81-5.05,3.91-4.45,8.44.46,3.48,19.39,22.38,22.67,23.38,5.06,1.55,14.45-2.71,20.52-2.52,11.01.34,21.58,7.6,31.75,10.25,8.75,2.28,23.19-.16,25.95,9.98,0,9.95-19.73,6.32-25.97,5.03-13.08-2.7-27.59-13.94-40.66-8.73-6.7,2.67-7.59,7-16.79,6.21-11.47-.99-34.97-25-43.01-34-5.67-6.34-8.56-17.33-19.21-13.23-2.93,1.13-6.47,5.06-9.58,6.41s-6.38,1.36-9.39,2.61c-5.61,2.33-16.51,17.6-20.72,23.28-4.99,6.73-14.02,23.37-19.07,27.93s-12.73,2.58-12.47-4.41c.2-5.46,15.45-25.92,19.54-31.51,16.23-22.18,35.52-41.68,54.45-61.53,14.44-10.71,18.08,20.82,29.35,20.41,1.94-.07,23.77-11.79,27.29-13.77,5.37-3.02,10.28-9.05,17.07-10Z"/>
  <path d="M350.6,322.12c24.16-2.73,71.67,9.95,92.52,22.91,5.12,3.18,18.21,10.17,11.71,17.33-6.01,6.61-20.45-5.69-26.99-9.04-17.63-9.03-58.63-18.74-78.06-16.03-17.79,2.48-32.48,14.87-50.46,16.53-12.75,1.18-32.06.18-44.97-.99-14.43-1.32-36.03-9.78-47.98-.96-6.85,5.05-17.18,14.45-23.54,20.46-1.87,1.77-12.63,10.79-5.48,11.55,6.67.71,14.28-8.74,23-3.04,3.09,2.01,14.12,15.57,15.06,18.99s-.59,6.89-3.85,8.28c-7.18,3.06-12.33-8.75-16.73-10.75-6.23-2.83-22.63,4.65-29.76,6.2-8.58,1.87-18.15,1-25.49,2.5-4.21.86-13.26,6.86-18.05,8.95-5.78,2.51-22.71,10.81-27.43,11.63-5.15.89-10.75-3.29-8.51-8.52,3.25-7.56,25.7-14.44,33.62-18.42,21.9-11.02,52.79-36.02,71.16-52.83,5.08-4.65,5.97-9.09,13.2-11.8,16-6,33.56,1.22,49.78,2.76,15.47,1.47,42.6,3.11,56.74-2.23,13.23-5,25.81-11.82,40.51-13.48Z"/>
</svg>