<?xml version="1.0" encoding="UTF-8"?>
<svg id="Layer_1" xmlns="http://www.w3.org/2000/svg" version="1.1" viewBox="0 0 512 512">
  <!-- Generator: Adobe Illustrator 29.5.1, SVG Export Plug-In . SVG Version: 2.1.0 Build 141)  -->
  <path d="M345.89,71.22c5.09-.79,17.39,1.47,21.25,5.26l25.05,36.97c2.54,4.77-2,10.17-7.08,9.14-3.48-.7-9-6.84-11.39-9.7-4.02-4.82-12.03-21.32-18.01-20.91-1.13.08-16.98,9.97-19.49,11.57-5.41,3.44-20.15,15.32-24.82,16.23-14.76,2.9-16.34-24.59-33.65-17.71-12.32,4.9-15.5,11.16-24.05,18.94-9.05,8.24-18.08-4.78-27.49-6.59-10.25-1.97-33.91,5.48-42.38,11.7-9.48,6.96,7.94,16.35,13.47,19.22,6.78,3.52,14.35,5.5,21.23,8.76,6.31,3,26.86,16.65,31.24,16.82,4.96.19,11.5-9.2,15.39-12.47,5.37-4.52,13.23-9.5,19.65-12.34s20.92-8.96,25.24-1.51c5.26,9.08-12.88,12.14-18.24,14.51-6.82,3.02-24.17,12.01-21.45,21.14.59,1.97,15.99,13.49,18.46,14.56,10.43,4.52,12.58-3.87,19.42-9.26,7.67-6.03,28.64-15.24,37.9-11.07,4.43,2,4.97,7.75,1.07,11.05-5.05,4.27-37.11,5.63-31.53,19.39,2.14,5.28,26.41,22.46,32.06,23.03,7.86.8,10.19-10.72,13.6-16.29,12.15-19.85,40.26-37.23,64.01-30.41,6.71,1.93,23.3,13.34,13.76,20.19-5.79,4.15-9.58-2.08-14.6-4.34-16.75-7.55-39.3,5.9-49,19.74-16.7,23.83,5.41,26.33,21.51,34.75,6.09,3.18,15.51,7.98,19.56,13.44,2.02,2.72,3.04,6.79,5.57,9.43,5.13,5.34,18.88,7.09,26.66,10.33,7.03,2.93,26.63,12.69,30.17,18.82,1.85,3.2,1.88,7.09,3.59,10.41,3.31,6.43,13.51,12.46-.94,16.99-28.86-13.46-55.99-31.01-84.44-45.6-14.65-7.51-30.33-13.67-44.71-21.28-26.56-14.06-51.34-33.62-77.65-48.34-56.73-31.73-118.15-62.52-170.56-101.41-5.4-4.01-16.42-12.14-14.66-19.41,2.75-11.35,21.95-14.47,30.11-7.04,9.14,8.31,19.23,22.91,28.95,30.04s15.77-1.37,25.13-5.85c13.36-6.39,37.08-14.55,51.73-13.02,7.65.8,13.3,6.02,20.92,4.66,12.55-6.49,29.35-22.47,44.26-17.84,6.54,2.03,10.14,10.15,16.69,8.87,13.47-6.7,24.74-17.71,38.49-23.58Z"/>
  <path d="M65.92,132.14c4.86-.88,11.42,7.36,15.34,10.26,57.09,42.2,128.58,71.75,190.57,106.4,33.26,18.59,66.1,42.33,99.01,61.97,25.14,15,51.67,28.09,76.6,43.39,4.33,2.66,12.13,7.06,8.58,13.17-2.76,4.75-8.25,4.14-12.56,1.81-33.71-18.6-66.54-38.68-99.4-58.58-39.07-23.67-75.41-45.76-115.92-67.05-11.97-6.29-40.6-24.98-51.69-27.29-17.81-3.71-34.43,19.44-54.33,15.33-7.12-1.47-15.76-10.42-22.99-8.11-7.07,2.26-17.27,28.29-22.95,35.05-7.33,8.73-15.22,2.27-12.22-7.23,2.08-6.56,12.02-22.46,16.19-28.8,5.28-8.03,12.1-15.48,17.52-23.48,6.29-4.71,11.65,1.14,17.54,3.47,4.03,1.6,9.23,4.08,13.46,4.54,6.22.68,28.93.61,15.84-8.84-14.85-10.71-36.52-19.81-52.64-30.35-7.09-4.64-30.23-19.88-31.52-27.56-.58-3.47,2.1-7.46,5.57-8.09Z"/>
  <path d="M245.89,306.17c1.68-.33,2.84-.32,4.52,0,6.92,1.35,19.54,19.93,25.23,25.8,8.17,8.44,9.4,11.01,22.02,11.97,5.74.44,12.33-.68,17.89.1,11.28,1.58,11.13,13.54-.91,14.91-8.57.97-35.37-.87-43.48-3.51-10.22-3.32-23.67-24.23-29.74-25.33-.92-.17-1.61-.17-2.52,0-2.82.51-21.67,19.56-22.49,22.59-2.82,10.47,18.95,18.65,9.27,27.27-3.73,3.33-7.09,1.95-11.04,0-14.39-7.08-37.45-26.53-50.94-37.05-3.93-3.07-4.68-7.18-11-5.96-8.67,1.68-22.6,30.73-26.01,39-3.54,8.59-4.41,22.73-14.01,25.91-13.42.02-1.2-27.6,1.32-33.6,11.76-27.97,34.15-67.22,68.5-43.15,5.91,4.14,15.64,16.93,22.12,15.84,6.01-1.01,28.1-32.21,41.28-34.8Z"/>
</svg>