<?xml version="1.0" encoding="UTF-8"?>
<svg id="Layer_1" xmlns="http://www.w3.org/2000/svg" version="1.1" viewBox="0 0 512 512">
  <!-- Generator: Adobe Illustrator 29.5.1, SVG Export Plug-In . SVG Version: 2.1.0 Build 141)  -->
  <path d="M140.55,328.03c15.74.07,21.71,2.41,35.2,9.21,14.83,7.48,17.76,9.41,28.47,21.53,8,9.05,10.69,1.44,17.18-2.84,11.58-7.65,29.98-12.03,43.81-11.15,3.33.21,7.89,2.06,10.95,1.91,6.4-.3,17.74-6.16,26.08-6.91,9.69-.87,20.85.38,29.85,4.11,6.6,2.73,22.75,13.48,15.64,21.39-6.28,7-12.09-2.29-16.68-5.35-7.05-4.7-18.57-5.99-26.87-5.21-19.22,1.81-.71,15.79-8.44,24.56-7.41,8.4-11.71-5.43-14.38-9.66-9.01-14.28-33.5-10.7-46.62-4.33-17.91,8.69-7.72,16.46,1.47,26.49,6.72,7.33,21.51,24.1,28.49,29.51,9.5,7.37,16.48-2.1,26.61-3.44,8.01-1.06,21.35.41,29.21,2.61,6.02,1.69,26.17,9.91,16.72,18.32-5.41,4.81-15.88-2.97-22.49-4.55-9.42-2.25-40.44-4.2-25.07,12.07,7.45,7.89,22.89,18.23,28.47,26.52,2.55,3.79,4.01,7.58.59,11.45-6.63,7.49-12.96-4.8-17.65-7.38-3.12-1.72-7.31-1.69-10.76-3.24-14.97-6.75-41.15-46.75-56.07-60.91-21.96-20.84-59.59-52.22-88.3-60.68-27.2-8.02-45.65,16.5-69.71,16.7-13.55.12-23.81-14.78-10.56-21.54,7.25-3.7,22.31-6.55,30.82-9.17,16.99-5.24,25.05-10.09,44.05-10Z"/>
  <path d="M122.51,398.03c50.68-5.04,77.87,28.38,112.2,59.23,5.4,4.85,22.74,14.48,17.89,22.87-5.2,9-16.72-2.62-21.89-6.87-25.73-21.17-68.56-72.85-105.2-58.24-6.81,2.72-22.65,12.48-29.17,11.71-6.84-.81-10.82-7.46-6.59-13.48,6.51-9.26,21.96-14.15,32.77-15.22Z"/>
  <path d="M167.48,164.04c12.39-1.56,36.18-1.05,46.93,5.55,5.99,3.68,17.33,18.1,7.02,22.46-6.95,2.94-9.8-5.6-13.68-8.81-4.97-4.11-15.29-5.21-21.55-4.48-10.86,1.26-1.15,9.53-6.46,15.54-5.69,6.42-10.48-1.42-14.69-4.35-14.66-10.19-41.5-6.76-56.02,2.63-5.5,3.56-17.11,23.46-22.54,10.95-4.62-10.65,12.75-22.8,20.88-26.6,16.71-7.83,25.83-6.12,42.77-8.23,5.2-.65,11.85-3.97,17.34-4.66Z"/>
  <path d="M343.48,203.06c14.68-1.57,22.51,6.42,32.75,6.77,5.2.18,15.37-3.59,21.98-4.04,7.46-.5,20.18-.57,26.42,3.56,4.96,3.29,8.84,10.72,3.59,15.45-6.09,5.49-10.91-2.99-17.08-3.96-3.96-.62-18.86-1.04-20.25,3.63-1.29,4.34,1.81,9.93-3.82,13.19-7.45,4.32-12.72-8-16.83-11.92-10.2-9.75-27.25-8.92-39.76-4.69-5.55,1.88-15.74,10.33-20.03,9.57-2.63-.47-5.57-3.73-5.73-6.42-.75-12.49,29.39-20.14,38.76-21.14Z"/>
</svg>