<?xml version="1.0" encoding="UTF-8"?>
<svg id="Layer_1" xmlns="http://www.w3.org/2000/svg" version="1.1" viewBox="0 0 512 512">
  <!-- Generator: Adobe Illustrator 29.5.1, SVG Export Plug-In . SVG Version: 2.1.0 Build 141)  -->
  <path d="M170.55,76.85c3.62-.53,4.83-.05,7.94,1.58,3.94,2.06,21.64,17.69,23.71,21.28,3.41,5.93-.74,11.29-7.04,11.87-12.82,1.18-21.79-14.26-30.8-12.91-4.84.72-21.78,13.73-13.53,19.43,10.8,5.06,20.3,12.61,30.66,18.34,5.69,3.15,12.09,7.24,18.75,6.14,3.24-.53,18.82-11.75,22.46-14.53,3.61-2.75,18.04-16.33,20.03-16.97,9.7-3.11,17.87,9.56,25.47,8.54,3.33-.44,16.89-11.14,21.28-13.78s19.3-11.62,23.26-12.73c5.08-1.41,8.82.38,12.97,3.09,2.7,1.76,14.21,12.18,15.31,14.7,4.04,9.28-8.21,10.5-14.67,9.65-11.9-1.58-12.71-10.62-26.26-4.1-15.55,7.48-26.85,17.56-4.75,27.11,8.86-.99,19.37,0,27.94-.93,7.41-.8,18-8.23,21.42,3.49-1.33,7.04-8.59,7.5-13.61,10.31-2.68,1.51-5.24,4.24-7.62,5.38-8.09,3.88-41.53,1.49-50.21-2.18s-16.08-17.22-23.44-23.55c-4.73-4.06-7.09-4.24-12.35-1.28-2.58,1.45-17.5,12.06-19.18,13.81-2.13,2.22-3.4,4.94-2,7.98.92,1.99,31.48,21.03,36.41,24.59,12.02,8.68,35.78,25.76,43.49,37.5,3.31,5.04,8.62,18.31,7.12,23.93-1.03,3.88-10.62,12.77-6.58,15.53,1.66,1.13,13.01.24,16.42.57,6.64.64,18.43,5.06,23.09,4.92,5.04-.16,16.45-7.02,23.53-8.55,13.03-2.82,35.5.43,48.22,4.78,9.55,3.26,12.8,11.99,1.26,14.78-14.17-1.57-37.43-10.22-50.76-3.84-12.13,5.81,6.53,14.83-2.2,22.79-7.52,6.86-14.12-7.93-19.19-11.84-7.49-5.78-21.54-8.6-30.87-8.21-25.04,1.06-39.12,16.45-56.97,31.01-5.94,4.85-27.02,19.73-29.02,25.97-1.85,5.76,5.64,22.02,11.27,22.88,3.53.54,16.29-7.52,21.32-9.28,11.09-3.88,24.7-6.58,36.44-5.52,5.64.51,25.83,4.15,23.11,13-2.85,9.29-18.16,2.45-25.06,1.94-9.87-.72-21.81,1.47-31.05,5.01-24.3,9.31-12.44,18.55-2.67,33.71,2.02,3.13,6.56,13.59,9.21,14.78,5.84,2.64,11.58-2.3,16.98-3.99,7.29-2.27,26.41-5.89,32.52-1.51,6.95,4.97,1.77,11.98-5.11,12.93-10.52,1.45-38.57-1.34-24.82,18,11.09,15.61,27.6,28.36,40.28,42.71,3.11,7.63-3.12,12.51-10.57,8.56-4.92-2.6-13.27-7.82-18.02-10.97-19-12.59-28.98-34.49-43.29-51.7-17.92-21.55-38.62-43.25-53.8-67.18-3.72-5.87-9.65-13.99-3.7-20.36,29.85-23.64,56.34-51.23,79.49-81.49,4.97-6.5,10.81-12.49,5.88-20.82-6.23-10.52-43.71-32.43-55.93-40.06-36.57-22.82-73.47-43.85-108.22-69.76-6.03-4.5-24.92-17.16-23.53-25.07,3.03-17.22,32.29,11.96,41.13,8.05,9.73-5.74,27.87-26.02,38.46-27.57Z"/>
  <path d="M72.55,131.78c6.08-1.08,17.31,12.45,22.34,16.26,6.87,5.19,15.69,9.21,22.82,14.17,32.68,22.75,63.74,47.43,95.16,71.82,6.1,4.73,23.55,13.63,22.88,21.96-.4,5.04-10.69,16.44-14.45,20.63-11.86,13.25-26.31,23.83-38.54,36.46-3.72,3.84-13.99,14.68-16.43,18.57-1.95,3.1-1.91,6.88-1.55,10.46,1.77,17.29,43.82,75.37,56.18,91.79,11.96,15.89,24.7,28.31,39.68,41.31,3.23,5.43-1.83,11.42-7.87,9.93-6.59-1.62-23.36-17.96-28.5-23.55-4.51-4.9-14.35-19.87-18.78-22.21-3.17-1.67-7.3-1.84-10.69-3.31-8.77-3.8-23.81-14.13-32.57-15.42-11.23-1.66-10.82,10.06-18.4,11.55-6.24,1.23-9.99-3.98-8.82-9.87,1.09-5.52,17-25.34,22.34-25.71,3.92-.27,29.53,18.06,19.64-.73-8.35-15.88-20-27.72-25.91-46.08-1.35-4.18-1.37-9.42-2.78-13.22-1.21-3.29-4.85-5.83-5.45-9.54-2.42-14.89,11.83-17.18,18.4-27.49,3.22-5.05,1.66-7.17-2.76-10.15-2.5-1.68-17.65-10.23-19.95-11.04-1.44-.51-2.56-1.03-4.18-.8-4.2.6-16.22,19.59-20.51,23.57-6.06,5.62-27.85,13.53-32.92,4.83-5.79-9.94,13.08-11.09,17.86-12.89,12.43-4.69,24.44-35.18,34.99-38.01,3.24-.87,4.55-.41,7.58.49,11.89,3.52,38.14,21.58,49.39,14.5,1.68-1.06,16.28-15.28,16.63-16.42,1.04-3.39-.31-5.21-2.55-7.57-9.56-10.04-32.14-25.82-44.12-34.87-14.22-10.76-30-22.05-44.59-32.4-12.49-8.85-38.62-22.2-46.74-34.25-3.21-4.76-3.54-11.58,3.17-12.78Z"/>
</svg>