<?xml version="1.0" encoding="UTF-8"?>
<svg id="Layer_1" xmlns="http://www.w3.org/2000/svg" version="1.1" viewBox="0 0 512 512">
  <!-- Generator: Adobe Illustrator 29.5.1, SVG Export Plug-In . SVG Version: 2.1.0 Build 141)  -->
  <defs>
    <style>
      .st0 {
        fill: #fff3cc;
      }
    </style>
  </defs>
  <path class="st0" d="M314.9,435.15c-15.46,0-28.01-5.07-38.09-9.14-4.54-1.84-8.84-3.57-12.4-4.4-1.15-.27-3.49-.45-5.75-.63-5.23-.41-11.73-.91-19.05-3.18-7.07-2.19-12.42-5.56-15.96-7.79-.9-.57-2.13-1.34-2.61-1.58-3.52-1.51-8.12-3.07-12.98-4.72-17.53-5.96-39.35-13.37-53.24-31.61-13.64-17.91-13.7-34.02-11.36-44.39.53-2.36,1.22-4.6,2.05-6.75-8.19-3.69-16.45-9.15-24.16-17.46-5.84-6.31-17.99-19.42-16.89-38.2.71-12.16,6.72-23.14,17.84-32.64,20.23-17.27,43.1-26.75,67.33-32.94-.93-1.87-1.79-3.85-2.58-5.94-5.09-13.48-6.46-23.33.12-39.75,11.11-27.7,33.85-38.24,50.45-45.93l2.79-1.3c25.99-12.15,53.24-24.25,75.51-27.02l.39-.05c2.02-.25,5.07-.64,8.46-.64,16.08,0,24.82,8.54,28.59,13.62,3.94,5.31,6.12,11.63,6.43,18.29,2.12.92,4.17,2.01,6.11,3.26,3.32,2.12,6.19,4.88,8.44,8.12,4.19,6.01,6.21,12.95,5.96,19.87,3.78,2.9,6.94,6.5,9.21,10.66,5.58,10.19,5.41,22.44-.48,32.76-.59,1.04-1.24,2.04-1.94,2.98-4.72,6.54-11.59,10.81-21.59,13.26,1.76.35,3.49.86,5.17,1.52,10.62,4.19,18.39,13.24,20.8,24.22,2.4,10.98-.88,22.46-8.78,30.71-.17.18-.34.35-.51.52-6.18,6.15-13.51,8.73-22.31,9.8-1.09,5.25-3.58,10.45-7.78,14.88-.05,1.48-.19,2.94-.43,4.38.45,0,.9-.01,1.36-.01,23.08,0,32.92,11.05,37.1,20.32,1.34,2.98,2.21,6.05,2.61,9.16,5.42,5.05,9.24,11.72,10.61,19.17,2.26,12.33-2.56,24.61-12.4,32.37-.12,7.35-2.6,14.39-7.19,20.24-5.93,7.55-14.46,12.2-25.37,13.83-2.29,16.48-16.7,29.53-35.66,31.68-2.59.29-5.24.45-7.86.45Z"/>
</svg>