<?xml version="1.0" encoding="UTF-8"?>
<svg id="Layer_1" xmlns="http://www.w3.org/2000/svg" version="1.1" viewBox="0 0 512 512">
  <!-- Generator: Adobe Illustrator 29.5.1, SVG Export Plug-In . SVG Version: 2.1.0 Build 141)  -->
  <defs>
    <style>
      .st0 {
        fill: #fff3cc;
      }
    </style>
  </defs>
  <path class="st0" d="M459.26,235.37c-6.7-18.34-25.92-29.5-37.98-32.89,6.24-23.01-7.73-40.66-15.3-50.21-1.26-1.59-3.04-3.84-4.02-5.28-.14-1.37-.23-3.14-.32-4.86-.25-4.69-.57-10.54-1.98-16.85-5.89-26.31-24.66-43.31-47.82-43.31-2.97,0-6,.29-8.97.85-13.13,2.47-24.96,12.14-30.86,20.65-.61.89-1.17,1.76-1.69,2.62-7.68.24-14.63,1.93-21.18,5.14-10.18,4.97-30.4,24.85-30.57,25.04-6.43,6.68-14.82,19.91-17.24,23.8-1.57,2.53-2.96,4.85-4.19,7.01-11.48-13.16-26.69-27.59-40.42-34.02-6.38-2.99-13.01-4.9-18.93-6.57-1.15-4.13-2.82-8.89-5.71-13.62-7.3-11.93-19.52-18.77-33.53-18.77-2.02,0-4.1.15-6.18.43-.58.08-1.15.18-1.72.29-12.38,2.27-23.98,10.52-30.59,21.84-2.96,5.06-16.75,40.7-17.89,49.09-.48,3.53-.44,6.7-.21,9.31-3.71,5.13-8.07,11.9-9.12,20.98-2.18,18.78,8.81,30.22,13.75,35,.58,2.86.73,6.61.89,10.79.56,14.7,1.51,39.3,27.12,57.2,3.94,2.75,39.21,26.91,64.5,27h.26c10.01,0,21.72-2.06,33.49-5.2-1.63,6.91-2.76,13.51-2.78,13.61-1.49,10.55-.19,19.45,3.87,26.44.64,1.1,1.33,2.14,2.09,3.13,1.51,2,3.12,3.62,4.67,4.94,0,.32,0,.64,0,.94.08,10.2.21,25.61,10.6,40.11,17.02,23.77,61.83,36.43,87.64,36.43,5.78,0,11.12-.59,15.86-1.74,7.86-1.92,26.53-9.44,34.19-12.58,27.88-11.44,32.33-14.89,34.97-16.94,17.52-13.57,17.69-28.91,16.24-36.84-3.47-18.93-19.85-26.27-29.98-29.66,1.99-6.06,3.07-13.1,1.95-21.06-1.48-10.5-6.84-21.34-12.9-30.51,3.27-.91,6.46-1.76,9.57-2.43,1.4-.3,5.14-.85,8.43-1.34,27.52-4.05,46.36-7.81,57.16-22.68,7.49-10.33,9.25-23.18,4.84-35.27Z"/>
</svg>