<?xml version="1.0" encoding="UTF-8"?>
<svg id="Layer_1" xmlns="http://www.w3.org/2000/svg" version="1.1" viewBox="0 0 512 512">
  <!-- Generator: Adobe Illustrator 29.5.1, SVG Export Plug-In . SVG Version: 2.1.0 Build 141)  -->
  <defs>
    <style>
      .st0 {
        fill: #fff3cc;
      }
    </style>
  </defs>
  <path class="st0" d="M80.11,331.08c-12.64,0-24.19-6.04-30.9-16.17-6.77-10.23-7.81-23.43-2.77-35.32,5.24-12.43,16.3-18.45,31.6-26.78,3.22-1.75,7.91-4.31,11.31-6.35l13.52-42.75c.73-2.3,1.73-4.51,2.99-6.57,11.03-18.1,26.91-20.05,33.23-20.05,18,0,29.51,12.95,33.84,17.83,2.46,2.78,4.99,6.22,8.19,10.59,1.36,1.85,3.44,4.69,5.47,7.34.79-.21,1.56-.41,2.25-.59,1.91-.51,3.89-1.03,5.93-1.53.62-1.6,1.2-3.18,1.64-4.37,1.22-3.31,2.38-6.43,3.71-9.31.43-.92.92-2.03,1.48-3.26,7.71-17.17,13.98-29.9,24.38-37.37,3.77-2.7,8.97-5.9,16.49-7.31.3-.06.6-.11.9-.16,2.52-.42,4.88-.62,7.21-.62,15.21,0,24.19,8.67,27.14,11.52,7.25,6.99,12.61,15.87,17.79,24.45,2.81,4.65,7.31,12.11,10.13,15.12.71.14,1.5.27,2.3.39,1.5-1.42,3.25-3.1,5.16-4.96.75-.74,3.08-3.33,4.78-5.23,14.74-16.42,24.48-26.6,38.31-28.88,2.09-.34,4.18-.51,6.24-.51,16.77,0,35.19,11.78,38.53,38.11.9,7.08.96,14.01,1,20.11.02,2.14.03,4.22.09,6.16,4.26,2.18,9.96,4.5,15.52,6.77,10.98,4.48,22.33,9.12,32.05,15.92,4.52,3.17,19.29,14.94,19.91,33.54.36,10.26-3.23,19.88-10.13,27.02-7.1,7.36-17.06,11.42-28.04,11.42-4.97,0-10.15-.85-14.98-2.47-9.68-3.25-18.69-9.27-26.63-14.59-3.47-2.32-7.06-4.72-9.37-5.96-.99-.53-3.6-1.72-5.91-2.78-13.51-6.18-29.4-13.45-39.09-25.27-9.05,3.31-19.31,5.01-30.38,5.02-10.87,0-21.99-1.61-32.16-4.66-8.36-2.51-14.55-6.55-19.19-10.91-14.99,22.83-39.1,24.71-53.53,25.84-2.58.2-5.01.39-6.94.66-1.36.19-3.08.64-5.08,1.16-4.44,1.16-9.97,2.6-16.71,2.6-4.65,0-10.39-.74-16.49-3.24-3.63,7.14-8.83,14.37-16.68,20.61-3.64,2.89-22.49,15.14-28.18,17.76-.14.07-17.73,7.37-27.48,7.96-.83.05-1.66.07-2.46.07Z"/>
</svg>