<?xml version="1.0" standalone="no"?>
<!DOCTYPE svg PUBLIC "-//W3C//DTD SVG 1.1//EN" "http://www.w3.org/Graphics/SVG/1.1/DTD/svg11.dtd" >
<svg xmlns="http://www.w3.org/2000/svg" xmlns:xlink="http://www.w3.org/1999/xlink" version="1.1">
<metadata>
Created by FontForge 20201107 at Thu Jul 17 00:25:38 2025
 By 
Copyright 2006, 2009 for TeX Gyre extensions by B. Jackowski and J.M. Nowacki (on behalf of TeX users groups). This work is released under the GUST Font License --  see http://tug.org/fonts/licenses/GUST-FONT-LICENSE.txt for details.
</metadata>
<defs>
<font id="TeXGyreSchola-Regular" horiz-adv-x="681" >
  <font-face 
    font-family="TeXGyreSchola"
    font-weight="400"
    font-stretch="normal"
    units-per-em="2048"
    panose-1="0 0 5 0 0 0 0 0 0 0"
    ascent="1634"
    descent="-414"
    x-height="954"
    cap-height="1479"
    bbox="-952 -680 2748 2324"
    underline-thickness="124"
    underline-position="-212"
    unicode-range="U+0020-FB04"
  />
<missing-glyph horiz-adv-x="573" 
 />
    <glyph glyph-name="I_J" unicode="IJ" horiz-adv-x="2023" 
d="M760 0h-678v96h41q67 0 99.5 2.5t54 14t26 28.5t4.5 52v1093q0 46 -12.5 64.5t-48 25t-123.5 6.5h-41v97h678v-97h-41q-87 0 -122 -6.5t-47.5 -25t-12.5 -64.5v-1093q0 -35 4.5 -52t25.5 -28.5t53.5 -14t98.5 -2.5h41v-96zM1942 1382h-39q-67 0 -100 -2.5t-54 -13.5
t-26 -28t-5 -52v-737q0 -135 -18.5 -233.5t-53.5 -165.5t-91.5 -107t-127.5 -57t-167 -17q-192 0 -300 97.5t-108 250.5q0 109 58 179.5t147 70.5q67 0 110 -41t43 -106q0 -63 -37 -105.5t-92 -42.5q-27 0 -75 11h-7q-10 0 -17 -9.5t-7 -23.5q0 -72 74 -128t174 -56
q182 0 241 178q27 82 27 323v719q0 46 -12.5 64.5t-47.5 25t-122 6.5h-39v97h672v-97z" />
    <glyph glyph-name="i_j" unicode="ij" horiz-adv-x="1196" 
d="M637 0h-531v74h25q68 0 96.5 7.5t37.5 26t9 62.5v571q0 65 -16 84t-72 19h-104v88l385 22v-784q0 -44 9 -62.5t38 -26t98 -7.5h25v-74zM473 1249q0 -43 -30.5 -72.5t-73.5 -29.5q-40 0 -70.5 30.5t-30.5 71.5t31 72t72 31t71.5 -31t30.5 -72zM1114 145
q0 -173 -18.5 -265.5t-65.5 -160.5q-44 -62 -118 -97.5t-160 -35.5q-103 0 -166.5 46.5t-63.5 121.5q0 53 33 88t82 35q43 0 74.5 -29t31.5 -67q0 -17 -14 -49q-10 -25 -10 -33q0 -11 15 -19t36 -8q32 0 65 20.5t48 51.5q22 44 30.5 111t8.5 192v694q0 66 -15.5 84.5
t-72.5 18.5h-119v88l399 22v-809zM1120 1249q0 -43 -30.5 -72.5t-73.5 -29.5q-40 0 -70.5 30.5t-30.5 71.5t31 72t72 31t71.5 -31t30.5 -72z" />
    <glyph glyph-name="f_k" unicode="fk" horiz-adv-x="1814" 
d="M1835 0h-541v74h39q51 0 70.5 7.5t19.5 27.5q0 11 -14 36l-244 342l-125 -118v-199q0 -46 6.5 -63t34 -25t95.5 -8h28v-74h-518v74h29q51 0 76.5 2.5t39 15.5t15.5 27.5t2 50.5v1051q-32 -29 -76 -29q-47 0 -80 31t-33 77q0 16 7.5 38t15.5 37.5t8 17.5q0 34 -69 34
q-104 0 -156.5 -84t-52.5 -272v-117h225v-88h-225v-696q0 -62 27.5 -79t127.5 -17h37v-74h-547v74h29q51 0 76.5 2.5t39 15.5t15.5 27.5t2 50.5v696h-180v88h180v64q0 252 105 371.5t294 119.5h422v-1013l277 266q47 47 47 80q0 39 -96 39h-64v73h539v-73
q-104 -12 -180.5 -51.5t-165.5 -127.5l-92 -90l290 -397q63 -80 108.5 -107t131.5 -34v-74z" />
    <glyph glyph-name="f_f" unicode="ff" horiz-adv-x="1282" 
d="M1520 1317q0 -55 -32 -90t-83 -35q-47 0 -80 31t-33 77q0 16 8 38t15.5 37.5t7.5 17.5q0 34 -70 34q-104 0 -156.5 -84t-52.5 -272v-117h226v-88h-226v-696q0 -61 28 -78.5t128 -17.5h37v-74h-547v74h29q51 0 76.5 2.5t39 15.5t15.5 27.5t2 50.5v696h-440v-696
q0 -62 27.5 -79t127.5 -17h37v-74h-547v74h29q51 0 76.5 2.5t39 15.5t15.5 27.5t2 50.5v696h-180v88h180v64q0 252 105 371.5t294 119.5q125 0 197 -51.5t72 -140.5q0 -55 -32 -90t-83 -35q-47 0 -80 31t-33 77q0 16 7.5 38t15.5 37.5t8 17.5q0 34 -69 34q-104 0 -156.5 -84
t-52.5 -272v-117h440v64q0 252 105 371.5t294 119.5q125 0 197 -51.5t72 -140.5z" />
    <glyph glyph-name="f_i" unicode="fi" horiz-adv-x="1251" 
d="M1204 0h-518v74h29q52 0 77.5 2.5t39.5 15.5t16 27.5t2 50.5v555q0 55 -1.5 79t-12 40.5t-25.5 19t-49 2.5h-342v-698q0 -35 2 -49t15.5 -27t39 -15.5t76.5 -2.5h29v-74h-519v74h29q52 0 77.5 2.5t39.5 15.5t16 27.5t2 50.5v696h-194v88h194v19q0 137 37.5 240.5t106 167
t159.5 95t203 31.5q139 0 221 -53.5t82 -144.5q0 -56 -35.5 -89.5t-93.5 -33.5q-54 0 -90.5 31t-36.5 75q0 19 8.5 42.5t17.5 40t9 18.5q0 32 -96 32q-142 0 -220.5 -103.5t-78.5 -324.5v-43h309q93 0 313 15v-801q0 -45 6.5 -61.5t33.5 -24.5t94 -8h28v-74z" />
    <glyph glyph-name="f_l" unicode="fl" horiz-adv-x="1251" 
d="M1208 0h-530v74h35q51 0 76.5 2.5t39 15.5t15.5 27.5t2 50.5v1026q-27 -8 -45 -8q-42 0 -69 28t-27 72q0 14 17 46.5t17 54.5q0 17 -23 27.5t-59 10.5q-127 0 -189 -83.5t-62 -272.5v-117h225v-88h-225v-696q0 -62 27.5 -79t127.5 -17h37v-74h-547v74h29q51 0 76.5 2.5
t39 15.5t15.5 27.5t2 50.5v696h-180v88h180v64q0 246 127 368.5t408 122.5h290v-1339q0 -46 6.5 -63t34 -25t95.5 -8h34v-74z" />
    <glyph glyph-name="f_f_i" unicode="&#xfb00;i" horiz-adv-x="1851" 
d="M1837 0h-518v74h29q52 0 77.5 2.5t39.5 15.5t16 27.5t2 50.5v555q0 55 -1.5 79t-12 40.5t-25.5 19t-49 2.5h-342v-698q0 -35 2 -49t15.5 -27t39 -15.5t76.5 -2.5h28v-74h-518v74h29q52 0 77.5 2.5t39.5 15.5t16 27.5t2 50.5v696h-448v-696q0 -62 27.5 -79t127.5 -17h37
v-74h-547v74h29q51 0 76.5 2.5t39 15.5t15.5 27.5t2 50.5v696h-180v88h180v64q0 252 105 371.5t294 119.5q125 0 197 -51.5t72 -140.5q0 -55 -32 -90t-83 -35q-47 0 -80 31t-33 77q0 16 7.5 38t15.5 37.5t8 17.5q0 34 -69 34q-104 0 -156.5 -84t-52.5 -272v-117h448v19
q0 137 37.5 240.5t106 167t159.5 95t203 31.5q139 0 221 -53.5t82 -144.5q0 -56 -35.5 -89.5t-93.5 -33.5q-54 0 -90.5 31t-36.5 75q0 19 8.5 42.5t17.5 40t9 18.5q0 32 -96 32q-142 0 -220.5 -103.5t-78.5 -324.5v-43h309q92 0 313 15v-801q0 -35 2 -49t15.5 -27t39 -15.5
t76.5 -2.5h29v-74z" />
    <glyph glyph-name="f_f_l" unicode="ffl" horiz-adv-x="1851" 
d="M1841 0h-530v74h35q51 0 76.5 2.5t39 15.5t15.5 27.5t2 50.5v1026q-27 -8 -45 -8q-42 0 -69.5 28t-27.5 72q0 14 17.5 46.5t17.5 54.5q0 17 -23 27.5t-59 10.5q-127 0 -189.5 -83.5t-62.5 -272.5v-117h226v-88h-226v-696q0 -61 28 -78.5t128 -17.5h37v-74h-547v74h29
q51 0 76.5 2.5t39 15.5t15.5 27.5t2 50.5v696h-434v-696q0 -62 27.5 -79t127.5 -17h37v-74h-547v74h29q51 0 76.5 2.5t39 15.5t15.5 27.5t2 50.5v696h-180v88h180v64q0 252 105 371.5t294 119.5q125 0 197 -51.5t72 -140.5q0 -55 -32 -90t-83 -35q-47 0 -80 31t-33 77
q0 16 7.5 38t15.5 37.5t8 17.5q0 34 -69 34q-104 0 -156.5 -84t-52.5 -272v-117h434v64q0 246 126.5 368.5t407.5 122.5h291v-1339q0 -36 2 -50.5t16 -27.5t39.5 -15.5t77.5 -2.5h35v-74z" />
    <glyph glyph-name=".notdef" horiz-adv-x="573" 
 />
    <glyph glyph-name=".null" horiz-adv-x="0" 
 />
    <glyph glyph-name="nonmarkingreturn" horiz-adv-x="682" 
 />
    <glyph glyph-name="space" unicode=" " horiz-adv-x="569" 
 />
    <glyph glyph-name="exclam" unicode="!" horiz-adv-x="606" 
d="M432 1313q0 -84 -37 -266q-29 -145 -38.5 -266t-10.5 -390h-80q-3 279 -11.5 396t-37.5 260q-37 182 -37 268q0 192 127 192q125 0 125 -194zM434 100q0 -54 -37.5 -91.5t-91.5 -37.5q-53 0 -90 37.5t-37 91.5q0 53 37.5 90t91.5 37q53 0 90 -37.5t37 -89.5z" />
    <glyph glyph-name="quotedbl" unicode="&#x22;" horiz-adv-x="796" 
d="M301 1419q0 -23 -2 -33l-63 -366h-46l-63 366q-2 12 -2 35q0 37 25.5 61.5t62.5 24.5q38 0 63 -25t25 -63zM672 1419q0 -23 -2 -33l-64 -366h-45l-63 366q-2 12 -2 33q0 38 25.5 63t62.5 25q38 0 63 -25t25 -63z" />
    <glyph glyph-name="numbersign" unicode="#" horiz-adv-x="1138" 
d="M1073 852h-223l-39 -270h207v-115h-223l-68 -467h-133l68 467h-252l-68 -467h-133l67 467h-208v115h225l39 270h-209v115h225l64 438h133l-64 -438h252l64 438h133l-64 -438h207v-115zM717 852h-252l-39 -270h252z" />
    <glyph glyph-name="dollar" unicode="$" horiz-adv-x="1138" 
d="M1044 414q0 -193 -115.5 -308t-318.5 -126v-246h-96v243q-194 9 -308 96.5t-114 229.5q0 76 41.5 126t104.5 50q53 0 88.5 -36.5t35.5 -90.5q0 -44 -20.5 -73t-73.5 -60q-16 -8 -16 -22q0 -47 76 -85.5t186 -45.5v571q-215 64 -305 153t-90 248q0 160 104 262t291 125
v215h96v-213q167 -12 270 -95t103 -206q0 -67 -34 -105t-93 -38q-56 0 -89.5 32.5t-33.5 86.5q0 35 15 57.5t59 54.5q12 12 12 21q0 32 -63 62.5t-146 37.5v-506q133 -45 208.5 -79.5t130.5 -82t75 -106.5t20 -147zM514 860v471q-109 -9 -178.5 -72.5t-69.5 -154.5
q0 -89 56.5 -144.5t191.5 -99.5zM893 340q0 102 -70 166.5t-213 103.5v-542q126 14 204.5 89t78.5 183z" />
    <glyph glyph-name="percent" unicode="%" horiz-adv-x="1705" 
d="M1331 1479l-848 -1479h-102l737 1292q-56 -33 -99.5 -46t-96.5 -13q-61 0 -129 24q6 -46 6 -65q0 -96 -37.5 -193t-98.5 -172t-143.5 -122.5t-165.5 -47.5q-114 0 -188 72t-74 182q0 89 41.5 186t107 174.5t154 128t174.5 50.5q62 0 104.5 -22t82.5 -74q78 -45 149 -45
q99 0 185 43.5t147 126.5h94zM723 1202q0 44 -12 84q-76 26 -125 84q-64 -22 -97.5 -55.5t-91.5 -134.5q-72 -126 -99.5 -196.5t-27.5 -127.5q0 -54 32 -87.5t83 -33.5q80 0 159 69t129 178.5t50 219.5zM1622 578q0 -83 -34.5 -178.5t-91.5 -177.5t-142 -136.5t-176 -54.5
q-115 0 -191 70.5t-76 177.5q0 123 66.5 249t177 209.5t227.5 83.5q104 0 172 -68.5t68 -174.5zM1544 573q0 69 -37 117.5t-90 48.5q-47 0 -90 -35.5t-90 -113.5q-152 -245 -152 -363q0 -49 33.5 -82.5t81.5 -33.5q80 0 160.5 68.5t132 176.5t51.5 217z" />
    <glyph glyph-name="ampersand" unicode="&#x26;" horiz-adv-x="1669" 
d="M1587 334q-23 -171 -120 -264t-238 -93q-85 0 -151 31.5t-140 106.5q-101 -77 -192.5 -111.5t-200.5 -34.5q-101 0 -186 34.5t-140 93t-85 133.5t-30 157q0 138 91.5 255t263.5 200q-47 102 -66.5 170t-19.5 135q0 163 98.5 262.5t259.5 99.5q143 0 231.5 -76.5
t88.5 -199.5q0 -134 -83.5 -220.5t-271.5 -170.5q180 -330 330 -508q66 76 104.5 159.5t38.5 149.5q0 49 -37.5 72.5t-125.5 23.5h-41v88h577v-88h-43q-87 -3 -139 -55l-11 -11t-9.5 -11t-8.5 -11t-10 -15t-11 -18t-14 -26t-17.5 -33t-24 -43.5t-29.5 -54.5
q-36 -66 -55 -93.5t-80 -103.5q116 -125 225 -125q67 0 115 55t67 152zM887 1229q0 84 -45.5 138t-116.5 54q-69 0 -114.5 -56.5t-45.5 -145.5q0 -108 88 -291q122 61 178 129.5t56 171.5zM874 184q-129 150 -201 261t-175 313q-93 -54 -133.5 -114.5t-40.5 -145.5
q0 -154 104.5 -271.5t239.5 -117.5q51 0 94.5 16t111.5 59z" />
    <glyph glyph-name="quotesingle" unicode="'" horiz-adv-x="417" 
d="M297 1419q0 -23 -2 -33l-64 -366h-45l-63 366q-2 12 -2 35q0 37 25.5 61.5t62.5 24.5q38 0 63 -25t25 -63z" />
    <glyph glyph-name="parenleft" unicode="(" 
d="M571 -252q-170 104 -282 244t-163.5 298t-51.5 339q0 276 123.5 499.5t373.5 378.5v-75q-153 -135 -219.5 -321.5t-66.5 -481.5q0 -296 66.5 -483t219.5 -322v-76z" />
    <glyph glyph-name="parenright" unicode=")" 
d="M608 629q0 -277 -124 -503t-373 -378v76q154 135 220 321.5t66 483.5q0 295 -66.5 481.5t-219.5 321.5v75q250 -151 373.5 -377t123.5 -501z" />
    <glyph glyph-name="asterisk" unicode="*" horiz-adv-x="1024" 
d="M907 877q0 -34 -25.5 -57t-60.5 -23q-28 0 -47.5 12.5t-42.5 44.5q-41 57 -67 82.5t-68 50.5l-64 37v-74q0 -48 8 -78t40 -106q16 -40 16 -64q0 -32 -27 -60t-59 -28t-59 28.5t-27 62.5q0 21 16 61q33 74 41 104t8 80v74l-63 -37q-43 -27 -68.5 -52t-66.5 -83
q-23 -31 -42.5 -43t-47.5 -12q-35 0 -60.5 23t-25.5 57q0 86 106 98q71 7 104 16.5t78 34.5l64 35l-64 37q-40 24 -75 33.5t-107 17.5q-106 9 -106 98q0 32 25.5 56t60.5 24q28 0 47.5 -12.5t42.5 -44.5q41 -57 68 -83.5t67 -49.5l63 -37v74q0 50 -7.5 78.5t-39.5 103.5
q-16 40 -16 61q0 34 26 62t58 28q33 0 59.5 -27.5t26.5 -62.5q0 -15 -5.5 -32t-29.5 -74q-29 -65 -29 -137v-74l64 37q42 25 68 50.5t67 82.5q23 32 42.5 44.5t47.5 12.5q35 0 60.5 -23t25.5 -57q0 -86 -106 -98q-72 -8 -106.5 -17.5t-76.5 -33.5l-63 -37l63 -37
q39 -23 71 -31t112 -18q106 -12 106 -98z" />
    <glyph glyph-name="plus" unicode="+" horiz-adv-x="1241" 
d="M1159 430h-457v-457h-163v457h-457v164h457v457h163v-457h457v-164z" />
    <glyph glyph-name="comma" unicode="," horiz-adv-x="569" 
d="M446 18q0 -107 -65.5 -203t-202.5 -190l-47 58q207 145 207 278q0 19 -14 19h-7q-6 -3 -32 -3q-63 0 -101.5 33t-38.5 88q0 52 38.5 87.5t95.5 35.5q75 0 121 -55.5t46 -147.5z" />
    <glyph glyph-name="hyphen" unicode="-" 
d="M596 399h-510v170h510v-170z" />
    <glyph glyph-name="period" unicode="." horiz-adv-x="569" 
d="M408 100q0 -54 -37.5 -91.5t-91.5 -37.5q-53 0 -90 37.5t-37 91.5q0 53 37.5 90t91.5 37q53 0 90 -37.5t37 -89.5z" />
    <glyph glyph-name="slash" unicode="/" horiz-adv-x="569" 
d="M618 1507l-546 -1536h-119l547 1536h118z" />
    <glyph glyph-name="zero" unicode="0" horiz-adv-x="1138" 
d="M1053 694q0 -211 -62 -376t-173 -257t-253 -92q-136 0 -245.5 94t-171.5 261.5t-62 375.5q0 158 37.5 296t102.5 236t157.5 154t198.5 56q140 0 248.5 -100.5t165.5 -270t57 -377.5zM823 731q0 210 -16 317.5t-57 178.5q-76 127 -183 127q-59 0 -111 -43t-87 -121
q-31 -66 -43.5 -167t-12.5 -280q0 -251 15.5 -369t58.5 -190q76 -127 182 -127q58 0 111 43t88 119q31 67 43 181.5t12 330.5z" />
    <glyph glyph-name="one" unicode="1" horiz-adv-x="1138" 
d="M1016 0h-811v96h133q66 0 98.5 2.5t53.5 14t25.5 28.5t4.5 52v880q0 91 -19 110t-108 19h-180v88q139 0 266 44t180 108h74q-14 -203 -14 -344v-846q0 -85 1.5 -100.5t12.5 -26.5q23 -29 170 -29h113v-96z" />
    <glyph glyph-name="two" unicode="2" horiz-adv-x="1138" 
d="M1034 442l-39 -442h-923v57q122 162 200 252l281 299q128 136 185 245.5t57 223.5q0 129 -72.5 203t-198.5 74q-113 0 -197.5 -65.5t-84.5 -145.5q0 -20 11 -28.5t69 -33.5q33 -13 53 -45t20 -71q0 -56 -35 -90.5t-92 -34.5q-73 0 -118.5 60t-45.5 157q0 163 133 274
t328 111q200 0 330.5 -113.5t130.5 -286.5q0 -149 -98 -280q-33 -45 -102.5 -106t-211.5 -171q-98 -77 -155.5 -129.5t-163.5 -162.5h459q95 0 122.5 23.5t47.5 121.5l20 104h90z" />
    <glyph glyph-name="three" unicode="3" horiz-adv-x="1138" 
d="M1020 385q0 -189 -134 -302.5t-356 -113.5q-197 0 -320.5 93.5t-123.5 242.5q0 80 40.5 130t104.5 50q57 0 94 -36.5t37 -92.5q0 -74 -79 -120q-31 -19 -38 -26t-7 -20q0 -47 86 -90t182 -43q137 0 212 87t75 245q0 152 -60 231.5t-174 79.5q-4 0 -15.5 -1t-44 -2
t-85.5 -1q-64 0 -64 52q0 55 66 55q18 0 65.5 -3t61.5 -3q110 0 167.5 74t57.5 216q0 131 -57.5 199t-167.5 68q-86 0 -161 -38t-75 -81q0 -18 27 -37q35 -25 49 -48t14 -56q0 -55 -33.5 -89t-87.5 -34q-59 0 -97 40t-38 103q0 140 121 234t301 94q190 0 304 -96t114 -256
q0 -240 -272 -336q159 -44 235 -134.5t76 -234.5z" />
    <glyph glyph-name="four" unicode="4" horiz-adv-x="1138" 
d="M1079 358h-248v-165v-29t2.5 -22t5.5 -18t11.5 -11.5t19.5 -9t29.5 -4t40.5 -3t55 -0.5h29v-96h-598v96h43q33 0 55 0.5t40.5 3t29.5 4t19.5 9t11.5 11.5t5.5 18t2.5 22v29v165h-576v115l697 969h88q-8 -123 -9.5 -175t-1.5 -235v-559h248v-115zM633 473v621l-451 -621
h451z" />
    <glyph glyph-name="five" unicode="5" horiz-adv-x="1138" 
d="M1028 459q0 -226 -141.5 -358t-382.5 -132q-184 0 -298 97.5t-114 238.5q0 72 43 122t105 50q55 0 92 -36.5t37 -90.5q0 -41 -17.5 -66.5t-64.5 -54.5q-37 -21 -37 -45q0 -47 79 -87t171 -40q159 0 232 99.5t73 289.5q0 175 -78 275t-215 100q-118 0 -221 -73
q-12 -125 -92 -125q-29 0 -47.5 19t-18.5 50q0 45 57 105q44 384 56 645q161 -38 242.5 -50t179.5 -12q88 0 142.5 11t129.5 43q13 8 27 8q16 0 16 -19q0 -20 -31 -73q-105 -174 -368 -174q-108 0 -248 34l-35 -348q84 35 141.5 48.5t122.5 13.5q207 0 335 -128t128 -337z
" />
    <glyph glyph-name="six" unicode="6" horiz-adv-x="1138" 
d="M1057 459q0 -131 -60.5 -243t-169 -179.5t-241.5 -67.5q-227 0 -363.5 181t-136.5 481q0 159 40.5 304t114.5 258.5t189 181t254 67.5q145 0 240.5 -70t95.5 -176q0 -64 -38 -105.5t-97 -41.5q-54 0 -89.5 34t-35.5 86q0 37 31 97q10 18 10 28q0 28 -30.5 44t-84.5 16
q-98 0 -175.5 -60.5t-121.5 -169.5q-33 -79 -47 -156.5t-29 -271.5q72 97 153 141t185 44q174 0 290 -120.5t116 -301.5zM834 444q0 146 -63.5 229t-174.5 83q-125 0 -196.5 -91t-71.5 -249q0 -152 76.5 -255.5t185.5 -103.5q112 0 178 105t66 282z" />
    <glyph glyph-name="seven" unicode="7" horiz-adv-x="1138" 
d="M1040 1374q-5 -12 -9.5 -23.5t-7 -18t-3.5 -7.5l-92 -192q-150 -331 -199 -494.5t-49 -345.5q0 -12 1 -38t1 -40q0 -133 -30.5 -188.5t-104.5 -55.5q-60 0 -94.5 41.5t-34.5 110.5q0 127 96 369q15 38 26 64t30.5 67.5t33.5 70t55.5 111t75.5 151.5l139 281l-126 -2
q-43 0 -187 7t-209 7q-44 0 -62.5 -27t-41.5 -128l-37 -162l-90 14l63 496q335 -21 537 -21q154 0 319 13v-60z" />
    <glyph glyph-name="eight" unicode="8" horiz-adv-x="1138" 
d="M1051 412q0 -197 -136 -320t-368 -123q-212 0 -337.5 103t-125.5 272q0 128 70.5 214t228.5 147q-122 65 -176.5 148t-54.5 198q0 169 122.5 280t309.5 111q177 0 292 -92.5t115 -233.5q0 -100 -54.5 -177t-170.5 -140q149 -67 217 -160t68 -227zM840 1104
q0 113 -72 181.5t-190 68.5q-121 0 -195 -60t-74 -157q0 -90 57 -152t181 -106l135 -50q88 74 123 135t35 140zM887 326q0 101 -52 165t-169 105l-189 68q-120 -55 -171.5 -129.5t-51.5 -190.5q0 -135 80 -211t223 -76q151 0 240.5 73t89.5 196z" />
    <glyph glyph-name="nine" unicode="9" horiz-adv-x="1138" 
d="M1051 766q0 -128 -25 -245.5t-75.5 -218t-121.5 -175t-168.5 -116.5t-211.5 -42q-141 0 -236.5 68.5t-95.5 169.5q0 62 40.5 104.5t98.5 42.5q51 0 86 -35t35 -86q0 -22 -5 -37.5t-24 -52.5q-12 -24 -12 -34q0 -23 32 -37.5t83 -14.5q103 0 183 63t120 177
q27 76 39.5 148.5t33.5 265.5q-84 -105 -159 -146t-183 -41q-175 0 -290 120.5t-115 303.5q0 136 62 249.5t170 179t237 65.5q229 0 365.5 -183.5t136.5 -492.5zM809 973q0 172 -69 276.5t-183 104.5q-117 0 -185.5 -100t-68.5 -269q0 -163 63.5 -250.5t180.5 -87.5
t189.5 85t72.5 241z" />
    <glyph glyph-name="colon" unicode=":" horiz-adv-x="569" 
d="M432 100q0 -54 -37.5 -91.5t-91.5 -37.5q-53 0 -90 37.5t-37 91.5q0 53 37.5 90t91.5 37q53 0 90 -37.5t37 -89.5zM432 842q0 -54 -37.5 -91.5t-91.5 -37.5q-53 0 -90 37.5t-37 91.5q0 53 37.5 90t91.5 37q53 0 90 -37.5t37 -89.5z" />
    <glyph glyph-name="semicolon" unicode=";" horiz-adv-x="569" 
d="M463 18q0 -107 -65.5 -203t-202.5 -190l-48 58q207 145 207 278q0 19 -14 19h-6q-6 -3 -33 -3q-63 0 -101 33t-38 88q0 53 38 88t95 35q75 0 121.5 -55.5t46.5 -147.5zM434 840q0 -54 -37.5 -91.5t-91.5 -37.5q-53 0 -90 37.5t-37 91.5q0 53 37.5 90t91.5 37
q53 0 90 -37.5t37 -89.5z" />
    <glyph glyph-name="less" unicode="&#x3c;" horiz-adv-x="1241" 
d="M1077 -20l-948 458v148l948 458v-180l-725 -352l725 -352v-180z" />
    <glyph glyph-name="equal" unicode="=" horiz-adv-x="1241" 
d="M1159 614h-1077v164h1077v-164zM1159 246h-1077v164h1077v-164z" />
    <glyph glyph-name="greater" unicode="&#x3e;" horiz-adv-x="1241" 
d="M1077 438l-948 -458v180l725 352l-725 352v180l948 -458v-148z" />
    <glyph glyph-name="question" unicode="?" horiz-adv-x="909" 
d="M842 1151q0 -106 -48 -183t-198 -208q-98 -86 -125 -151.5t-27 -217.5h-90v66q0 124 29 207q5 15 9 24.5l8 19t11.5 21.5t13 21.5t21 31t27.5 38t39 54t49 68.5q66 92 66 221q0 119 -60.5 185.5t-169.5 66.5q-73 0 -130.5 -31t-57.5 -71q0 -9 23 -34t46 -58t23 -62
q0 -47 -34 -79.5t-83 -32.5q-57 0 -95 45t-38 112q0 132 113.5 217.5t286.5 85.5q175 0 283 -98t108 -258zM522 98q0 -54 -37.5 -91.5t-91.5 -37.5q-53 0 -90 37.5t-37 91.5q0 53 37.5 90t91.5 37q53 0 90 -37.5t37 -89.5z" />
    <glyph glyph-name="at" unicode="@" horiz-adv-x="1509" 
d="M1444 891q0 -141 -66.5 -278.5t-175.5 -224.5t-225 -87q-63 0 -102 36.5t-39 96.5q0 25 2 41q-60 -89 -110 -125.5t-112 -36.5q-107 0 -181.5 85.5t-74.5 219.5q0 91 36 181.5t93 159t132.5 111t150.5 42.5q58 0 99.5 -35t60.5 -98l33 115h180l-150 -592q-8 -33 -8 -62
q0 -22 15 -35.5t38 -13.5q62 0 132 73t117.5 188.5t47.5 224.5q0 101 -41 197t-110.5 168.5t-169 116.5t-209.5 44q-129 0 -241.5 -50t-192 -137.5t-125 -211t-45.5 -265.5q0 -191 78.5 -342.5t218.5 -236t317 -84.5q153 0 277.5 78.5t210.5 230.5h125q-75 -174 -249.5 -294
t-379.5 -120q-149 0 -281 58.5t-227 159t-150 241t-55 299.5q0 218 94.5 397t257 280t357.5 101q175 0 324 -82.5t236 -224.5t87 -309zM893 881q0 68 -24.5 107.5t-67.5 39.5q-51 0 -100.5 -52.5t-82.5 -127.5t-53 -155t-20 -138q0 -75 26 -117.5t72 -42.5q59 0 119 82.5
t95.5 196t35.5 207.5z" />
    <glyph glyph-name="A" unicode="A" horiz-adv-x="1478" 
d="M1497 0h-635v96h86q57 0 92 14.5t35 39.5q0 14 -16 55l-111 274h-542l-68 -180q-19 -52 -19 -86q0 -117 166 -117h41v-96h-542v96h28q76 0 112.5 38.5t92.5 178.5l471 1194h86l522 -1280q36 -88 61.5 -109.5t100.5 -21.5h39v-96zM905 590l-231 581l-228 -581h459z" />
    <glyph glyph-name="B" unicode="B" horiz-adv-x="1478" 
d="M1372 401q0 -188 -151 -294.5t-416 -106.5h-744v96h37q67 0 100 2.5t54 14t26 28.5t5 52v1093q0 35 -5 52t-26 28t-54 13.5t-100 2.5h-37v97h736q235 0 366 -92.5t131 -268.5q0 -130 -83.5 -221t-247.5 -125q209 -37 309 -128t100 -243zM1057 1092q0 149 -75.5 219.5
t-252.5 70.5h-82q-79 0 -107 -21t-28 -81v-467h182q196 0 279.5 64t83.5 215zM1120 408q0 170 -95.5 239.5t-332.5 69.5h-180v-492q0 -85 20.5 -107t98.5 -22h86q218 0 310.5 67.5t92.5 244.5z" />
    <glyph glyph-name="C" unicode="C" horiz-adv-x="1478" 
d="M1368 506q-35 -258 -186.5 -397.5t-397.5 -139.5q-199 0 -357 96.5t-246.5 269.5t-88.5 390q0 157 56 302.5t149.5 250.5t221.5 168t267 63q103 0 178.5 -28.5t184.5 -108.5l82 121h108v-592h-90q-63 213 -116 305q-59 98 -150.5 152.5t-198.5 54.5q-211 0 -316.5 -178.5
t-105.5 -517.5q0 -330 110 -490.5t337 -160.5q378 0 463 456z" />
    <glyph glyph-name="D" unicode="D" horiz-adv-x="1593" 
d="M1499 748q0 -364 -188.5 -556t-562.5 -192h-689v96h39q86 0 122 7t48.5 25.5t12.5 64.5v1093q0 35 -5 52t-26 28t-53.5 13.5t-98.5 2.5h-39v97h652q332 0 497 -105q140 -92 215.5 -255t75.5 -371zM1229 739q0 340 -117 491.5t-379 151.5h-106q-77 0 -97 -19.5t-20 -94.5
v-1059q0 -75 20 -94t97 -19h139q248 0 355.5 149.5t107.5 493.5z" />
    <glyph glyph-name="E" unicode="E" horiz-adv-x="1478" 
d="M1358 547l-41 -547h-1258v96h37q67 0 100 2.5t54 14t26 28.5t5 52v1093q0 35 -5 52t-26 28t-54 13.5t-100 2.5h-37v97h1260v-525h-88q-15 93 -32.5 156.5t-44.5 113.5t-60 79t-85 47.5t-113.5 25t-150.5 6.5h-106q-83 0 -106 -18t-23 -84v-467h49q146 0 213 65t74 216h96
v-672h-96q-2 53 -6.5 89.5t-16 72.5t-32 58.5t-52.5 40.5t-78.5 26t-109.5 8h-41v-522q0 -61 32 -80t115 -19h136q121 0 200 22t133.5 78t85.5 137t56 214h90z" />
    <glyph glyph-name="F" unicode="F" horiz-adv-x="1366" 
d="M1307 954h-90q-15 91 -32 153.5t-44 112.5t-60.5 79.5t-85 49t-113 26.5t-149.5 7h-94q-83 0 -106 -18t-23 -84v-467h49q146 0 213 65t74 216h96v-672h-96q-2 64 -8.5 106t-24.5 81t-50 61t-84.5 34.5t-127.5 12.5h-41v-524q0 -35 4.5 -52t26 -28.5t54 -14t99.5 -2.5h68
v-96h-703v96h37q67 0 100 2.5t54 14t26 28.5t5 52v1093q0 35 -5 52t-26 28t-54 13.5t-100 2.5h-37v97h1248v-525z" />
    <glyph glyph-name="G" unicode="G" horiz-adv-x="1593" 
d="M1581 578h-31q-146 0 -172 -29q-9 -10 -10.5 -26.5t-1.5 -100.5v-451h-86l-76 185q-100 -100 -198.5 -143.5t-227.5 -43.5q-144 0 -271.5 55t-220 151.5t-146.5 236t-54 301.5q0 153 52.5 297t144 254.5t227 177.5t291.5 67q112 0 192.5 -30.5t180.5 -110.5l79 125h107
v-575h-88q-127 495 -479 495q-214 0 -325.5 -178.5t-111.5 -521.5q0 -317 113.5 -482t329.5 -165q169 0 262.5 101t93.5 288q0 31 -1.5 48.5t-9 33.5t-17.5 22.5t-33.5 11.5t-50.5 6t-74 1h-39v96h651v-96z" />
    <glyph glyph-name="H" unicode="H" horiz-adv-x="1705" 
d="M1647 0h-672v96h37q67 0 99.5 2.5t54 14t26 28.5t4.5 52v518h-686v-518q0 -35 4.5 -52t26 -28.5t54 -14t99.5 -2.5h39v-96h-674v96h37q67 0 100 2.5t54 14t26 28.5t5 52v1093q0 35 -5 52t-26 28t-54 13.5t-100 2.5h-37v97h674v-97h-39q-88 0 -123.5 -6.5t-48 -25
t-12.5 -64.5v-465h686v465q0 46 -12.5 64.5t-48 25t-123.5 6.5h-29v97h664v-97h-37q-67 0 -100 -2.5t-54 -13.5t-26 -28t-5 -52v-1093q0 -35 5 -52t26 -28.5t54 -14t100 -2.5h37v-96z" />
    <glyph glyph-name="I" unicode="I" horiz-adv-x="833" 
d="M756 0h-678v96h41q67 0 99.5 2.5t54 14t26 28.5t4.5 52v1093q0 46 -12.5 64.5t-48 25t-123.5 6.5h-41v97h678v-97h-41q-66 0 -98.5 -2.5t-53.5 -13.5t-26 -28t-5 -52v-1093q0 -46 12.5 -64.5t48.5 -25.5t122 -7h41v-96z" />
    <glyph glyph-name="J" unicode="J" horiz-adv-x="1138" 
d="M1100 1382h-39q-88 0 -123.5 -6.5t-48 -25t-12.5 -64.5v-737q0 -135 -18.5 -233.5t-53.5 -165.5t-92 -107t-128 -57t-167 -17q-192 0 -300 97.5t-108 250.5q0 109 58 179.5t147 70.5q68 0 111 -41.5t43 -105.5q0 -63 -37 -105.5t-92 -42.5q-28 0 -76 11h-6
q-10 0 -17.5 -9.5t-7.5 -23.5q0 -72 74 -128t174 -56q183 0 242 178q26 79 26 323v719q0 46 -12.5 64.5t-47.5 25t-122 6.5h-39v97h672v-97z" />
    <glyph glyph-name="K" unicode="K" horiz-adv-x="1593" 
d="M1645 0h-701v96h64q75 0 107 11t32 36t-41 86l-356 523l-238 -240v-319q0 -35 4.5 -52t26 -28.5t54 -14t99.5 -2.5h39v-96h-674v96h37q67 0 100 2.5t54 14t26 28.5t5 52v1093q0 35 -5 52t-26 28t-54 13.5t-100 2.5h-37v97h674v-97h-39q-88 0 -123.5 -6.5t-48 -25
t-12.5 -64.5v-616l502 504q45 45 72.5 85t27.5 62q0 32 -31.5 46.5t-101.5 14.5h-51v97h631v-97q-92 0 -183 -42.5t-164 -120.5l-305 -306l496 -714q45 -67 79.5 -85t121.5 -18h39v-96z" />
    <glyph glyph-name="L" unicode="L" horiz-adv-x="1366" 
d="M1323 561l-43 -561h-1208v96h37q67 0 99.5 2.5t54 14t26 28.5t4.5 52v1093q0 46 -12.5 64.5t-48 25t-123.5 6.5h-37v97h671v-97h-36q-67 0 -100 -2.5t-54 -13.5t-26 -28t-5 -52v-1091q0 -61 32.5 -80t115.5 -19h86q102 0 176.5 18.5t125.5 53t85.5 93.5t54.5 129t35 171
h90z" />
    <glyph glyph-name="M" unicode="M" horiz-adv-x="1933" 
d="M1870 0h-672v96h37q88 0 123.5 6.5t48 25t12.5 65.5v1155l-456 -1348h-82l-488 1348v-906q0 -87 6 -143t20.5 -96.5t43 -62t67 -31.5t99.5 -13v-96h-584v96q77 3 121 17.5t71.5 54.5t36.5 102.5t9 171.5v844q0 35 -5 52t-26 28t-54 13.5t-100 2.5h-39v97h529l393 -1092
l375 1092h514v-97h-37q-88 0 -123.5 -6.5t-48 -25t-12.5 -64.5v-1093q0 -47 12.5 -65.5t48 -25t123.5 -6.5h37v-96z" />
    <glyph glyph-name="N" unicode="N" horiz-adv-x="1669" 
d="M1626 1382q-51 -2 -86 -8.5t-63 -23t-44 -40t-26.5 -63.5t-14 -90t-3.5 -123v-1063h-86l-914 1233v-760q0 -88 6 -144t20.5 -97t43 -62.5t67 -31.5t99.5 -13v-96h-584v96q77 3 121 17.5t71.5 55t36.5 103t9 172.5v871q-28 38 -69 52.5t-120 14.5h-51v97h422l817 -1088
v643q0 88 -6 144t-20.5 97t-43 62.5t-67 31.5t-99.5 13v97h584v-97z" />
    <glyph glyph-name="O" unicode="O" horiz-adv-x="1593" 
d="M1501 739q0 -162 -54 -305t-147 -245t-224 -161t-279 -59q-197 0 -358.5 100.5t-254 276.5t-92.5 391q0 156 52 297t144 246t226.5 167t290.5 62q194 0 353.5 -101.5t251 -278t91.5 -390.5zM1231 739q0 674 -428 674q-221 0 -331 -163.5t-110 -506.5q0 -348 109 -512.5
t326 -164.5q216 0 325 164t109 509z" />
    <glyph glyph-name="P" unicode="P" horiz-adv-x="1366" 
d="M1329 1073q0 -121 -59 -215t-168 -147q-62 -29 -144 -41.5t-219 -12.5h-231v-464q0 -35 4.5 -52t26 -28.5t54 -14t99.5 -2.5h53v-96h-688v96h37q67 0 100 2.5t54 14t26 28.5t5 52v1093q0 35 -5 52t-26 28t-54 13.5t-100 2.5h-37v97h717q277 0 416 -105.5t139 -300.5z
M1077 1065q0 163 -76.5 240t-236.5 77h-131q-85 0 -105 -16.5t-20 -87.5v-524h248q163 0 242 76.5t79 234.5z" />
    <glyph glyph-name="Q" unicode="Q" horiz-adv-x="1593" 
d="M1532 -41q0 -162 -69 -254t-193 -92q-126 0 -199.5 101.5t-79.5 285.5q-92 -31 -182 -31q-196 0 -361 102t-260.5 278.5t-95.5 387.5q0 149 53.5 289.5t145 247t224 171t280.5 64.5q194 0 357 -100t257 -273t94 -380q0 -401 -323 -668q53 -168 93.5 -238.5t84.5 -70.5
q38 0 56 40.5t26 139.5h92zM1233 743q0 333 -105 501.5t-329 168.5q-95 0 -169.5 -34t-124.5 -94t-82.5 -146t-46.5 -185t-14 -217q0 -349 121 -510q-2 16 -2 37q0 123 83 201t212 78t219.5 -77t130.5 -222q59 96 83 208t24 291zM983 111v20q0 151 -56.5 233t-160.5 82
q-85 0 -138 -56t-53 -146q0 -84 57 -131t159 -47q106 0 192 45z" />
    <glyph glyph-name="R" unicode="R" horiz-adv-x="1478" 
d="M1460 328q-4 -184 -66 -271.5t-188 -87.5q-121 0 -183 76.5t-79 249.5l-10 104q-18 176 -93 247t-218 71h-119v-524q0 -35 4.5 -52t26 -28.5t54 -14t99.5 -2.5h37v-96h-672v96h37q67 0 99.5 2.5t54 14t26 28.5t4.5 52v1093q0 46 -12.5 64.5t-48 25t-123.5 6.5h-37v97h709
q258 0 399.5 -96t141.5 -271q0 -155 -108 -245.5t-329 -121.5q121 -31 185.5 -102t99.5 -213l33 -129q27 -109 46 -142.5t56 -33.5q41 0 61.5 48t26.5 155h86zM1051 1110q0 140 -71.5 206t-223.5 66h-111q-69 0 -96 -4.5t-36 -17t-9 -45.5v-502h225q160 0 241 69.5t81 227.5
z" />
    <glyph glyph-name="S" unicode="S" horiz-adv-x="1290" 
d="M1208 420q0 -206 -134 -328.5t-359 -122.5q-134 0 -230.5 34.5t-199.5 119.5l-92 -139h-80l-9 583h89q23 -120 59 -199.5t100 -150.5q72 -80 157.5 -117t199.5 -37q84 0 140 18.5t107 63.5q93 84 93 205q0 122 -95 195q-32 24 -62 35t-147 41l-194 49q-226 59 -319 151.5
t-93 259.5q0 192 124 310t325 118q226 0 373 -141l81 123h76l25 -533h-88q-41 158 -123 275q-125 178 -342 178q-130 0 -210.5 -67t-80.5 -175q0 -93 65.5 -154.5t202.5 -96.5l219 -56q122 -31 190 -60t109 -69q123 -120 123 -313z" />
    <glyph glyph-name="T" unicode="T" horiz-adv-x="1366" 
d="M1327 909h-88q-24 172 -68 281q-38 92 -110 142t-166 50q-51 0 -73.5 -17.5t-22.5 -55.5v-1116q0 -35 4.5 -52t25.5 -28.5t53.5 -14t98.5 -2.5h53v-96h-702v96h53q67 0 99.5 2.5t54 14t26 28.5t4.5 52v1116q0 38 -22.5 55.5t-73.5 17.5q-211 0 -291 -227
q-35 -101 -55 -246h-88l31 570h1226z" />
    <glyph glyph-name="U" unicode="U" horiz-adv-x="1669" 
d="M1636 1382q-51 -2 -86 -8.5t-63 -23t-44 -40t-26.5 -63.5t-14 -90t-3.5 -123v-465q0 -315 -147 -457.5t-433 -142.5q-128 0 -230.5 26t-178.5 78.5t-117 138.5t-41 200v874q0 46 -12.5 64.5t-47.5 25t-122 6.5h-35v97h670v-97h-39q-67 0 -100 -2.5t-54 -13.5t-26 -28
t-5 -52v-745q0 -114 19 -196t63.5 -143.5t121.5 -91.5t189 -30q116 0 198 36.5t128.5 105.5t67 157t20.5 203v452q0 88 -6 144t-20 97t-42.5 62.5t-67 31.5t-99.5 13v97h583v-97z" />
    <glyph glyph-name="V" unicode="V" horiz-adv-x="1478" 
d="M1497 1382h-37q-85 0 -122.5 -38t-84.5 -162l-471 -1213h-82l-518 1299q-29 70 -59 92t-98 22h-41v97h639v-97h-82q-69 0 -98 -11.5t-29 -39.5q0 -21 16 -61l375 -953l317 844q25 70 25 115q0 50 -44 78t-122 28h-39v97h555v-97z" />
    <glyph glyph-name="W" unicode="W" horiz-adv-x="2009" 
d="M1999 1382h-29q-82 0 -115.5 -40.5t-70.5 -170.5l-361 -1202h-84l-331 1018l-303 -1018h-89l-442 1334q-19 54 -38.5 66.5t-84.5 12.5h-39v97h578v-97h-92q-50 0 -69 -9t-19 -32q0 -21 10 -51l295 -917l237 786l-53 160q-12 37 -39 50t-90 13h-47v97h592v-97h-33
q-69 0 -102 -7.5t-39 -17t-6 -30.5q0 -11 14 -57l283 -897l245 831q13 37 13 72q0 56 -34.5 81t-121.5 25h-37v97h502v-97z" />
    <glyph glyph-name="X" unicode="X" horiz-adv-x="1441" 
d="M1466 0h-671v96h57q66 0 94 3t35.5 10t7.5 24q0 23 -26 64l-306 432l-237 -344q-33 -51 -33 -90q0 -46 36 -72.5t97 -26.5h51v-96h-581v96h28q76 -1 129.5 36.5t118.5 127.5l332 461l-403 584q-35 50 -65.5 63.5t-106.5 13.5h-35v97h633v-97h-78q-58 0 -78.5 -5.5
t-20.5 -20.5q0 -18 23 -51l272 -394l222 322q28 40 28 70q0 43 -25 61t-96 18h-49v97h563v-97h-32q-82 0 -139.5 -38.5t-141.5 -153.5l-272 -371l430 -616q38 -55 59.5 -74t51.5 -26t100 -7h28v-96z" />
    <glyph glyph-name="Y" unicode="Y" horiz-adv-x="1441" 
d="M1460 1382h-33q-90 0 -141.5 -43t-124.5 -176l-305 -551v-419q0 -29 3.5 -44.5t12 -27.5t31.5 -16.5t52 -6.5t83 -2h54v-96h-703v96h53q67 0 100 2.5t54 14t26 28.5t5 52v395l-443 700q-35 57 -67.5 75.5t-98.5 18.5h-45v97h658v-97h-121q-80 0 -80 -39q0 -21 23 -57
l344 -555l254 453q34 61 34 106q0 49 -37 70.5t-122 21.5h-47v97h581v-97z" />
    <glyph glyph-name="Z" unicode="Z" horiz-adv-x="1251" 
d="M1178 569l-37 -569h-1092v74l838 1308h-266q-107 0 -172.5 -17t-115 -66t-78 -127t-54.5 -211h-92l41 518h1015v-74l-841 -1309h340q100 0 178 28t116 79q44 56 72.5 140t50.5 226h97z" />
    <glyph glyph-name="bracketleft" unicode="[" 
d="M608 -221h-473v1700h473v-76h-289v-1550h289v-74z" />
    <glyph glyph-name="backslash" unicode="\" horiz-adv-x="1241" 
d="M1090 0h-119l-819 1509h118z" />
    <glyph glyph-name="bracketright" unicode="]" 
d="M545 -221h-471v76h286v1550h-286v74h471v-1700z" />
    <glyph glyph-name="asciicircum" unicode="^" horiz-adv-x="1241" 
d="M1135 651h-179l-333 637l-338 -637h-179l429 828h174z" />
    <glyph glyph-name="underscore" unicode="_" horiz-adv-x="1024" 
d="M1024 -274h-1024v124h1024v-124z" />
    <glyph glyph-name="grave" unicode="`" 
d="M496 1073h-84l-326 199q-23 13 -37 35.5t-14 44.5q0 29 21 50t50 21q24 0 44.5 -12.5t58.5 -50.5z" />
    <glyph glyph-name="a" unicode="a" horiz-adv-x="1138" 
d="M1112 104q0 -44 -59.5 -81t-128.5 -37q-72 0 -114 33.5t-67 111.5q-66 -78 -158 -120t-198 -42q-135 0 -216 65.5t-81 174.5q0 151 143 236.5t500 146.5v80q0 128 -55 176.5t-166 48.5q-73 0 -127.5 -24t-54.5 -56q0 -2 22.5 -45t22.5 -65q0 -46 -31.5 -75.5t-79.5 -29.5
q-54 0 -86.5 34.5t-32.5 92.5q0 110 114 183t286 73q94 0 160 -14.5t118 -50t77.5 -100.5t25.5 -161v-411q0 -77 17.5 -109.5t60.5 -32.5q4 0 37.5 11.5t50.5 11.5q8 0 14 -7.5t6 -17.5zM733 410v94q-178 -30 -271.5 -64.5t-129 -80t-35.5 -121.5q0 -69 46.5 -114.5
t115.5 -45.5q66 0 130.5 35t102.5 92q26 40 33.5 76.5t7.5 128.5z" />
    <glyph glyph-name="b" unicode="b" horiz-adv-x="1138" 
d="M1065 483q0 -221 -125.5 -367.5t-314.5 -146.5q-185 0 -308 162l-100 -160h-78q37 166 37 529v796q0 66 -15.5 84.5t-72.5 18.5h-72v88l353 22v-684q58 88 121 124t157 36q184 0 301 -140.5t117 -361.5zM850 463q0 201 -62.5 309.5t-177.5 108.5q-123 0 -187.5 -109
t-64.5 -313q0 -189 68.5 -295.5t189.5 -106.5q112 0 173 106t61 300z" />
    <glyph glyph-name="c" unicode="c" horiz-adv-x="909" 
d="M872 270q-66 -163 -152 -232t-222 -69q-190 0 -309 137t-119 355q0 229 128.5 376.5t327.5 147.5q136 0 228 -70.5t92 -173.5q0 -61 -35.5 -100t-89.5 -39t-88.5 32t-34.5 83q0 27 8.5 46t32.5 48q12 18 12 25q0 25 -34 43t-80 18q-114 0 -183 -114t-69 -300
q0 -180 71.5 -284.5t194.5 -104.5q79 0 135.5 48.5t106.5 158.5z" />
    <glyph glyph-name="d" unicode="d" horiz-adv-x="1175" 
d="M1135 0l-357 -14v161q-50 -92 -117.5 -135t-164.5 -43q-179 0 -293.5 140t-114.5 358q0 221 117.5 369.5t290.5 148.5q89 0 157 -36.5t125 -114.5v462q0 66 -16 84.5t-72 18.5h-121v88l402 22v-1271q0 -97 22 -123.5t105 -26.5h37v-88zM776 473q0 151 -39 246
q-28 70 -82.5 112.5t-117.5 42.5t-116 -40.5t-79 -108.5q-39 -101 -39 -283q0 -170 62 -266t170 -96q110 0 175.5 107t65.5 286z" />
    <glyph glyph-name="e" unicode="e" horiz-adv-x="1024" 
d="M952 260q-125 -291 -417 -291q-207 0 -335 133.5t-128 348.5q0 230 130.5 382t327.5 152q188 0 305 -146.5t117 -377.5h-663q0 -188 76 -284.5t208 -96.5q103 0 174 50.5t134 168.5zM733 625q0 123 -56.5 197.5t-150.5 74.5q-98 0 -166.5 -95t-68.5 -253h358
q49 0 66.5 16t17.5 60z" />
    <glyph glyph-name="f" unicode="f" 
d="M887 1317q0 -55 -32 -90t-83 -35q-47 0 -80 31t-33 77q0 16 7.5 38t15.5 37.5t8 17.5q0 34 -69 34q-104 0 -156.5 -84t-52.5 -272v-117h225v-88h-225v-696q0 -62 27.5 -79t127.5 -17h37v-74h-547v74h29q51 0 76.5 2.5t39 15.5t15.5 27.5t2 50.5v696h-180v88h180v64
q0 252 105 371.5t294 119.5q125 0 197 -51.5t72 -140.5z" />
    <glyph glyph-name="g" unicode="g" horiz-adv-x="1099" 
d="M1110 895q0 -41 -27 -69.5t-65 -28.5q-30 0 -51.5 16.5t-30 35.5t-16.5 35.5t-15 16.5q-23 0 -69 -49q42 -51 58.5 -95t16.5 -106q0 -101 -50 -178.5t-142 -118.5q-51 -23 -99 -29.5t-194 -9.5q-103 -3 -148 -24.5t-45 -67.5q0 -39 25 -53q28 -13 60 -16q27 -2 83 -2h209
q183 0 260 -29q57 -23 90 -81t33 -134q0 -324 -514 -324q-206 0 -319 55t-113 156q0 128 189 195q-72 25 -105 67t-33 109q0 85 46 133.5t149 71.5q-80 37 -126 110t-46 164q0 154 110 247t293 93q76 0 132.5 -17.5t121.5 -60.5q71 65 109.5 86t87.5 21q60 0 97.5 -33
t37.5 -86zM723 649q0 119 -52 183.5t-149 64.5q-103 0 -159 -66.5t-56 -187.5q0 -115 56 -182.5t151 -67.5q98 0 153.5 68t55.5 188zM850 -147q0 49 -35.5 80.5t-97.5 37.5q-31 4 -213 4h-152q-74 -38 -104.5 -75t-30.5 -88q0 -69 70.5 -106.5t199.5 -37.5q172 0 267.5 48.5
t95.5 136.5z" />
    <glyph glyph-name="h" unicode="h" horiz-adv-x="1251" 
d="M1214 0h-518v74h29q52 0 77.5 2.5t39.5 15.5t16 27.5t2 50.5v412q0 141 -45 206q-23 31 -64 51.5t-81 20.5q-66 0 -129 -43t-95 -112q-36 -74 -36 -242v-293q0 -36 2 -50.5t16 -27.5t39.5 -15.5t77.5 -2.5h28v-74h-518v74h29q51 0 76.5 2.5t39 15.5t15.5 27.5t2 50.5
v1126q0 66 -15.5 84.5t-72.5 18.5h-98v88l379 22v-723q69 103 147 151t176 48q92 0 165.5 -42t111.5 -116q28 -52 35.5 -97.5t7.5 -156.5v-403q0 -36 2 -50.5t15.5 -27.5t39 -15.5t76.5 -2.5h28v-74z" />
    <glyph glyph-name="i" unicode="i" horiz-adv-x="645" 
d="M592 0h-531v74h25q68 0 96.5 7.5t37.5 26t9 62.5v571q0 65 -16 84t-72 19h-104v88l385 22v-784q0 -44 9 -62.5t38 -26t98 -7.5h25v-74zM428 1249q0 -43 -30.5 -72.5t-73.5 -29.5q-40 0 -70.5 30.5t-30.5 71.5t31 72t72 31t71.5 -31t30.5 -72z" />
    <glyph glyph-name="j" unicode="j" horiz-adv-x="606" 
d="M424 145q0 -173 -18.5 -265.5t-65.5 -160.5q-44 -62 -118.5 -97.5t-160.5 -35.5q-103 0 -166 46.5t-63 121.5q0 53 33 88t82 35q43 0 74.5 -29t31.5 -67q0 -17 -14 -49q-10 -25 -10 -33q0 -11 15 -19t36 -8q32 0 65 20.5t48 51.5q22 44 30 110.5t8 192.5v694
q0 66 -15.5 84.5t-72.5 18.5h-118v88l399 22v-809zM430 1249q0 -43 -30.5 -72.5t-73.5 -29.5q-40 0 -70.5 30.5t-30.5 71.5t31 72t72 31t71.5 -31t30.5 -72z" />
    <glyph glyph-name="k" unicode="k" horiz-adv-x="1214" 
d="M1202 0h-540v74h38q51 0 71 7.5t20 27.5q0 10 -15 36l-244 342l-124 -118v-199q0 -36 2 -50.5t16 -27.5t39.5 -15.5t77.5 -2.5h28v-74h-518v74h29q51 0 76.5 2.5t39 15.5t15.5 27.5t2 50.5v1126q0 66 -15.5 84.5t-72.5 18.5h-98v88l379 22v-1013l276 266q47 47 47 80
q0 39 -96 39h-64v73h539v-73q-104 -12 -180.5 -51.5t-165.5 -127.5l-92 -90l291 -397q63 -80 108 -107t131 -34v-74z" />
    <glyph glyph-name="l" unicode="l" horiz-adv-x="645" 
d="M588 0h-531v74h35q51 0 76.5 2.5t39 15.5t15.5 27.5t2 50.5v1126q0 66 -15.5 84.5t-70.5 18.5h-100v88l379 22v-1339q0 -36 2 -50.5t16 -27.5t39.5 -15.5t77.5 -2.5h35v-74z" />
    <glyph glyph-name="m" unicode="m" horiz-adv-x="1820" 
d="M1778 0h-518v74h28q52 0 77.5 2.5t39.5 15.5t16 27.5t2 50.5v418q0 110 -24 170q-20 48 -59.5 75t-90.5 27q-107 0 -171 -91t-64 -245v-354q0 -36 2 -50.5t15.5 -27.5t39 -15.5t76.5 -2.5h29v-74h-519v74h29q52 0 77.5 2.5t39.5 15.5t16 27.5t2 50.5v440q0 128 -41 183
q-19 29 -57 48t-78 19q-100 0 -166.5 -90.5t-66.5 -226.5v-371q0 -37 2 -51.5t15.5 -28t39 -16t76.5 -2.5h28v-74h-516v74h29q51 0 76.5 2.5t39 16t15.5 28t2 51.5v569q0 66 -15.5 84.5t-72.5 18.5h-84v88l365 22v-157q60 97 131.5 142.5t163.5 45.5q102 0 179 -56t103 -149
q66 106 143 155.5t177 49.5q150 0 241 -117q40 -53 53 -99t13 -140v-457q0 -37 2 -51.5t15.5 -28t39 -16t76.5 -2.5h29v-74z" />
    <glyph glyph-name="n" unicode="n" horiz-adv-x="1251" 
d="M1214 0h-518v74h29q52 0 77.5 2.5t39.5 15.5t16 27.5t2 50.5v414q0 142 -45 204q-23 31 -64 51.5t-81 20.5q-66 0 -129 -43t-95 -112q-36 -74 -36 -240v-295q0 -36 2 -50.5t16 -27.5t39.5 -15.5t77.5 -2.5h28v-74h-518v74h29q51 0 76.5 2.5t39 15.5t15.5 27.5t2 50.5v571
q0 66 -15.5 84.5t-72.5 18.5h-74v88l355 22v-166q131 197 323 197q91 0 165 -42t112 -116q28 -52 35.5 -97.5t7.5 -156.5v-403q0 -36 2 -50.5t15.5 -27.5t39 -15.5t76.5 -2.5h28v-74z" />
    <glyph glyph-name="o" unicode="o" horiz-adv-x="1024" 
d="M954 477q0 -139 -59 -256t-160.5 -184.5t-222.5 -67.5q-184 0 -313 147.5t-129 358.5q0 141 59 258.5t161.5 184.5t225.5 67q119 0 220 -68t159.5 -185t58.5 -255zM739 477q0 202 -58 311t-165 109q-231 0 -231 -422q0 -203 58.5 -310.5t168.5 -107.5t168.5 108t58.5 312
z" />
    <glyph glyph-name="p" unicode="p" horiz-adv-x="1175" 
d="M1096 481q0 -220 -118 -366t-296 -146q-94 0 -156.5 38.5t-113.5 127.5v-379q0 -62 25 -79t124 -17h29v-74h-533v74h29q51 0 76.5 2.5t39 15.5t15.5 27.5t2 50.5v985q0 66 -15.5 84.5t-72.5 18.5h-74v88l355 22v-145q54 93 120.5 134.5t161.5 41.5q111 0 203.5 -66.5
t145.5 -182.5t53 -255zM881 494q0 180 -59 280t-165 100q-117 0 -182 -108t-65 -299q0 -176 66 -281.5t175 -105.5t169.5 108.5t60.5 305.5z" />
    <glyph glyph-name="q" unicode="q" horiz-adv-x="1138" 
d="M1122 -414h-532v74h26q99 0 125.5 17t26.5 79v363q-61 -85 -122.5 -117.5t-156.5 -32.5q-180 0 -297.5 137.5t-117.5 348.5q0 149 57 270.5t157.5 190.5t223.5 69q190 0 311 -170l97 139h75q-27 -124 -32 -174l-2 -147v-877q0 -36 2 -50.5t15.5 -27.5t39 -15.5t76.5 -2.5
h28v-74zM768 500q0 164 -43 258q-29 65 -81.5 102t-113.5 37q-241 0 -241 -430q0 -185 62.5 -286t176.5 -101q240 0 240 420z" />
    <glyph glyph-name="r" unicode="r" horiz-adv-x="909" 
d="M891 821q0 -63 -34.5 -101t-90.5 -38q-50 0 -81.5 32t-31.5 81q0 29 7.5 48t29.5 44q-131 -15 -205 -189q-79 -181 -79 -426v-102q0 -62 27.5 -79t125.5 -17h39v-74h-547v74h29q52 0 77.5 2.5t39.5 15.5t16 27.5t2 50.5v571q0 66 -15.5 84.5t-72.5 18.5h-84v88l363 22
v-254q50 135 130 210t177 75q81 0 129.5 -45t48.5 -119z" />
    <glyph glyph-name="s" unicode="s" horiz-adv-x="948" 
d="M862 285q0 -143 -91.5 -229.5t-242.5 -86.5q-155 0 -280 101l-72 -84h-72v387h82q37 -153 126 -234.5t218 -81.5q91 0 148 46t57 118q0 61 -48.5 97t-170.5 65l-108 25q-93 22 -138 41t-80 51q-71 65 -71 188q0 134 82 215.5t217 81.5q144 0 250 -82l59 74h72v-344h-72
q-25 71 -46 109t-54 71q-85 82 -199 82q-84 0 -137 -39.5t-53 -101.5q0 -34 19 -64t52 -45q28 -15 46.5 -20.5t103.5 -24.5l102 -22q94 -20 136 -37t79 -49q86 -71 86 -207z" />
    <glyph glyph-name="t" unicode="t" horiz-adv-x="796" 
d="M766 326q0 -100 -32.5 -179t-102.5 -128.5t-168 -49.5q-180 0 -234 133q-15 35 -19.5 83t-4.5 159v522h-168v80q246 18 276 414h84v-406h301v-88h-301v-559q0 -122 25.5 -167.5t95.5 -45.5q151 0 160 279h86q2 -20 2 -47z" />
    <glyph glyph-name="u" unicode="u" horiz-adv-x="1251" 
d="M1217 0l-373 -14v170q-68 -98 -143.5 -142.5t-176.5 -44.5q-92 0 -163.5 34t-112.5 97q-23 35 -31 77.5t-8 121.5v442q0 66 -15.5 84.5t-72.5 18.5h-78v88l358 22v-624q0 -84 5.5 -113.5t25.5 -58.5q42 -64 143 -64q75 0 134.5 38t91.5 106q43 94 43 251v252
q0 66 -15.5 84.5t-72.5 18.5h-105v88l385 22v-716q0 -98 22 -124t107 -26h52v-88z" />
    <glyph glyph-name="v" unicode="v" horiz-adv-x="1099" 
d="M1081 881h-28q-56 0 -91 -42.5t-79 -150.5l-291 -719h-72l-352 824q-24 55 -45.5 71.5t-77.5 16.5h-29v73h484v-73h-29q-63 0 -87 -10.5t-24 -36.5q0 -21 11 -43l233 -543l189 475q14 35 18 86q0 72 -111 72h-28v73h409v-73z" />
    <glyph glyph-name="w" unicode="w" horiz-adv-x="1593" 
d="M1563 881h-27q-52 0 -78 -30.5t-61 -125.5l-287 -756h-63l-250 647l-244 -647h-72l-307 811q-22 61 -42.5 81t-63.5 20h-37v73h450v-73h-37q-46 0 -65 -10.5t-19 -36.5q0 -14 9 -46l198 -514l181 478l-19 53q-15 45 -36 60.5t-70 15.5h-35v73h459v-73h-50
q-51 0 -68.5 -9.5t-17.5 -37.5q0 -22 9 -43l200 -527l174 467q17 53 17 76q0 39 -23.5 56.5t-77.5 17.5h-34v73h387v-73z" />
    <glyph glyph-name="x" unicode="x" horiz-adv-x="1099" 
d="M1083 0h-516v74h27q57 0 76.5 8t19.5 29q0 24 -26 61l-156 207l-172 -207q-17 -17 -17 -43q0 -29 19.5 -42t81.5 -13h31v-74h-433v74h33q42 0 80.5 26t83.5 80l236 275l-250 315q-52 65 -83 86t-87 25v73h485v-73h-33q-47 0 -66.5 -8.5t-19.5 -28.5t21 -45l157 -201
l130 154q40 49 40 84q0 45 -92 45h-39v73h424v-73h-30q-38 0 -70.5 -20.5t-71.5 -65.5l-233 -273l258 -348q41 -56 76 -78t88 -22h28v-74z" />
    <glyph glyph-name="y" unicode="y" horiz-adv-x="1099" 
d="M1087 881h-24q-57 0 -88.5 -34.5t-71.5 -131.5l-233 -578q-69 -171 -108.5 -251t-86.5 -144q-121 -164 -282 -164q-80 0 -133.5 45.5t-53.5 112.5q0 56 34.5 91.5t88.5 35.5q44 0 74 -26t30 -66q0 -13 -7 -39.5t-7 -32.5q0 -9 9.5 -15t23.5 -6q49 0 113 73t122 192l35 71
l-334 756q-28 62 -57 86.5t-78 24.5h-26v73h487v-73h-43q-52 0 -73 -12t-21 -40q0 -16 12 -43l225 -526l187 463q20 50 20 82q0 40 -26 58t-84 18h-33v73h409v-73z" />
    <glyph glyph-name="z" unicode="z" horiz-adv-x="985" 
d="M891 367l-14 -367h-797v74l559 792h-178q-126 0 -186 -60t-74 -198h-82l18 346h740v-73l-560 -793h209q138 0 203 63.5t80 215.5h82z" />
    <glyph glyph-name="braceleft" unicode="{" 
d="M608 -221h-53q-95 0 -150.5 25.5t-84.5 93t-29 188.5v238q0 56 -2 93t-9.5 65t-15 43t-26 28t-34.5 19t-48 17q-14 4 -21 7v66q83 27 103 42q38 27 48 101q5 44 5 129v237q0 121 29 188.5t84.5 93.5t150.5 26h53v-70q-100 -6 -133 -58t-33 -200v-266q0 -105 -26.5 -155
t-110.5 -101q84 -51 110.5 -101t26.5 -155v-267q0 -148 33 -200t133 -58v-69z" />
    <glyph glyph-name="bar" unicode="|" horiz-adv-x="1241" 
d="M702 -221h-163v1700h163v-1700z" />
    <glyph glyph-name="braceright" unicode="}" 
d="M547 596q-84 -27 -105 -42q-38 -27 -48 -101q-5 -44 -5 -129v-238q0 -92 -15.5 -152.5t-49.5 -94.5t-81 -47t-118 -13h-51v69q98 6 131 58t33 200v267q0 105 26.5 155t110.5 101q-84 51 -110.5 101t-26.5 155v266q0 148 -33 200t-131 58v70h51q95 0 150 -25t84.5 -93
t29.5 -190v-237q0 -111 14 -161t37.5 -67t95.5 -40q7 -3 11 -4v-66z" />
    <glyph glyph-name="asciitilde" unicode="~" horiz-adv-x="1241" 
d="M1137 557q-57 -100 -135 -159.5t-152 -59.5q-77 0 -203 63l-94 48q-57 28 -87.5 40t-41 14t-35.5 3q-43 0 -89 -35t-87 -98l-109 78q57 100 135 159.5t152 59.5q38 0 80.5 -14t122.5 -52l94 -45q84 -41 109 -49.5t55 -7.5q43 0 89 35t87 98z" />
    <glyph glyph-name="uni00A0" unicode="&#xa0;" 
 />
    <glyph glyph-name="exclamdown" unicode="&#xa1;" horiz-adv-x="606" 
d="M426 -360q0 -193 -127 -193q-125 0 -125 195q0 84 37 266q29 145 38.5 265.5t10.5 389.5h80q3 -279 11.5 -395.5t37.5 -259.5q37 -182 37 -268zM428 854q0 -53 -37.5 -90t-91.5 -37q-53 0 -90 37.5t-37 89.5q0 54 37.5 91.5t91.5 37.5q53 0 90 -37.5t37 -91.5z" />
    <glyph glyph-name="cent" unicode="&#xa2;" horiz-adv-x="1138" 
d="M981 272q-103 -303 -381 -303q-43 0 -106 13l-107 -271h-88l117 297q-128 56 -199.5 174.5t-71.5 276.5q0 232 135 379t349 147q83 0 159 -27l95 240h88l-109 -276q43 -31 72 -83.5t29 -101.5q0 -54 -40 -93.5t-94 -39.5q-43 0 -79 31l-203 -520q55 -17 92 -17
q94 0 157.5 49.5t104.5 153.5zM752 862q-38 35 -115 35q-131 0 -205 -107.5t-74 -297.5q0 -238 115 -336z" />
    <glyph glyph-name="sterling" unicode="&#xa3;" horiz-adv-x="1138" 
d="M1100 301q-35 -161 -123 -246.5t-217 -85.5q-147 0 -314 121q-60 -65 -113.5 -93t-119.5 -28q-78 0 -128 46t-50 118q0 78 53 127t139 49q67 0 174 -47q15 61 15 90q0 121 -68 314h-274v96h245q-31 110 -41 163t-10 111q0 182 112 294t294 112q157 0 259.5 -82.5
t102.5 -208.5q0 -75 -41.5 -123.5t-105.5 -48.5q-54 0 -88.5 34t-34.5 87q0 43 20 68t76 53q31 13 31 34q0 37 -59 68t-129 31q-109 0 -171.5 -64t-62.5 -178q0 -45 10.5 -100t57.5 -250h346v-96h-328q21 -105 21 -179q0 -158 -56 -270q83 -40 137 -55t111 -15
q99 0 157 41.5t101 143.5zM365 154q-92 71 -158 71q-35 0 -61.5 -25.5t-26.5 -60.5q0 -37 29.5 -62.5t70.5 -25.5q45 0 79.5 24t66.5 79z" />
    <glyph glyph-name="currency" unicode="&#xa4;" horiz-adv-x="1138" 
d="M1085 295l-104 -105l-104 105q-132 -102 -302 -102q-172 0 -309 106l-108 -109l-105 105l109 108q-107 144 -107 310q0 80 27 159t76 142l-105 102l105 107l104 -105q136 103 301 103t309 -107l109 109l104 -107l-108 -106q106 -136 106 -310q0 -169 -102 -301zM915 707
q0 143 -101.5 244.5t-244.5 101.5t-244.5 -101.5t-101.5 -244.5q0 -141 101.5 -244t240.5 -103q147 0 248.5 101t101.5 246z" />
    <glyph glyph-name="yen" unicode="&#xa5;" horiz-adv-x="1138" 
d="M1141 1382h-29q-64 0 -94.5 -38.5t-89.5 -180.5l-199 -483h207v-96h-236v-176h236v-97h-236v-59q0 -81 1.5 -98t9.5 -29q17 -29 129 -29h39v-96h-584v96h39q93 0 115 16t22 83v116h-238v97h238v176h-238v96h195l-281 608q-30 62 -46.5 78t-61.5 16h-41v97h477v-97h-49
q-31 0 -44 -8.5t-13 -30.5q0 -25 16 -57l256 -555l186 453q27 68 25 108q0 47 -22.5 68.5t-71.5 21.5h-35v97h418v-97z" />
    <glyph glyph-name="brokenbar" unicode="&#xa6;" horiz-adv-x="1241" 
d="M702 799h-163v680h163v-680zM702 -221h-163v680h163v-680z" />
    <glyph glyph-name="section" unicode="&#xa7;" horiz-adv-x="1024" 
d="M918 578q0 -121 -76 -204t-185 -83q-20 0 -36 2q115 -93 162.5 -163.5t47.5 -162.5q0 -116 -88 -193t-221 -77q-119 0 -206 67.5t-87 159.5q0 47 33 80t80 33q49 0 81 -29.5t32 -73.5q0 -29 -12.5 -48.5t-43.5 -43.5q-16 -13 -16 -22q0 -20 41 -38t88 -18
q77 0 127.5 40.5t50.5 101.5q0 55 -36.5 103t-149.5 141l-160 131q-123 101 -174 183.5t-51 180.5q0 114 74 191t182 77h35q-120 116 -157.5 174.5t-37.5 149.5q0 118 84.5 194t216.5 76q118 0 204.5 -67t86.5 -158q0 -47 -33 -80t-80 -33q-49 0 -80.5 29t-31.5 72
q0 23 18 48.5t35.5 43t17.5 22.5q0 22 -39.5 39t-89.5 17q-72 0 -120 -41t-48 -103q0 -42 32 -86t108 -108l225 -189q87 -76 142 -163t55 -172zM782 492q0 62 -45 127.5t-145 148.5q-113 90 -191 90q-63 0 -105 -42.5t-42 -106.5q0 -57 29.5 -103.5t115.5 -124.5
q148 -137 244 -137q55 0 97 44.5t42 103.5z" />
    <glyph glyph-name="dieresis" unicode="&#xa8;" 
d="M240 1249q0 -42 -31 -72t-74 -30q-40 0 -70 30.5t-30 71.5t30.5 72t71.5 31t72 -31t31 -72zM647 1249q0 -43 -30.5 -72.5t-73.5 -29.5q-40 0 -70.5 30.5t-30.5 71.5t31 72t72 31t71.5 -31t30.5 -72z" />
    <glyph glyph-name="copyright" unicode="&#xa9;" horiz-adv-x="1509" 
d="M1470 684q0 -193 -96 -357.5t-260.5 -260t-357.5 -95.5q-145 0 -277 56.5t-227.5 152t-152 227.5t-56.5 277t56.5 277t152 228t227.5 153t277 57q193 0 357.5 -96t260.5 -261t96 -358zM1380 684q0 169 -83.5 313t-227.5 228t-313 84t-312.5 -84t-227 -228t-83.5 -313
t83.5 -312.5t227 -227t312.5 -83.5t313 83.5t227.5 227t83.5 312.5zM1126 567q-20 -138 -107.5 -212t-230.5 -74q-175 0 -289 111t-114 284q0 168 120.5 288.5t285.5 120.5q59 0 101 -13.5t103 -53.5l45 59h70v-315h-61q-37 117 -66 160q-32 50 -83 77t-112 27
q-227 0 -227 -354q0 -168 58.5 -250t183.5 -82q213 0 258 238z" />
    <glyph glyph-name="ordfeminine" unicode="&#xaa;" horiz-adv-x="684" 
d="M674 969q0 -26 -39.5 -49t-83.5 -23q-46 0 -73 20t-42 66q-93 -96 -233 -96q-88 0 -140.5 38.5t-52.5 104.5q0 90 92.5 142t325.5 88v49q0 72 -35 102.5t-110 30.5q-48 0 -82.5 -13.5t-34.5 -33.5q0 -3 14.5 -29.5t14.5 -36.5q0 -28 -20.5 -45.5t-51.5 -17.5
q-35 0 -56.5 20.5t-21.5 54.5q0 66 74 110t186 44q122 0 185 -41.5t63 -153.5v-247q0 -44 11.5 -64t37.5 -20q2 0 24 7t33 7q15 0 15 -14zM428 1151v57q-164 -26 -223.5 -60t-59.5 -101q0 -41 30.5 -69t74.5 -28q78 0 128 48t50 153zM580 674h-533v82h533v-82z" />
    <glyph glyph-name="guillemotleft" unicode="&#xab;" horiz-adv-x="872" 
d="M795 799q0 -6 -14.5 -30.5t-35.5 -57t-47 -70t-47 -68t-37 -53.5l-16 -22q126 -179 160.5 -232.5t34.5 -68.5q0 -9 -8 -16t-17 -7q-1 -1 -4 0t-4 0.5t-4 1.5t-4 2.5t-4 3t-4.5 3.5t-4.5 4l-5 5l-5.5 5.5l-5.5 5.5l-178 174l-84 80q-27 27 -41 39l225 217q82 79 99 93.5
t28 14.5q9 0 16 -7.5t7 -16.5zM451 197q0 -9 -8 -16t-17 -7q-1 -1 -4 0t-4 0.5t-4 1.5t-4 2.5t-4 3t-4.5 3.5t-4.5 4l-5 5l-5.5 5.5l-5.5 5.5l-178 174l-84 80q-27 27 -41 39l303 295q37 28 47 30q9 0 16 -7.5t7 -16.5q0 -3 -0.5 -6.5t-2.5 -8.5t-5 -10t-7.5 -13t-9.5 -15
t-13 -18.5t-14.5 -21t-18 -25.5t-20.5 -30l-104 -153q126 -179 160.5 -232.5t34.5 -68.5z" />
    <glyph glyph-name="logicalnot" unicode="&#xac;" horiz-adv-x="1241" 
d="M1159 778v-450h-164v286h-913v164h1077z" />
    <glyph glyph-name="uni00AD" unicode="&#xad;" 
d="M596 399h-510v170h510v-170z" />
    <glyph glyph-name="registered" unicode="&#xae;" horiz-adv-x="1509" 
d="M1470 684q0 -193 -96 -357.5t-260.5 -260t-357.5 -95.5q-145 0 -277 56.5t-227.5 152t-152 227.5t-56.5 277t56.5 277t152 228t227.5 153t277 57q193 0 357.5 -96t260.5 -261t96 -358zM1380 684q0 169 -83.5 313t-227.5 228t-313 84t-312.5 -84t-227 -228t-83.5 -313
t83.5 -312.5t227 -227t312.5 -83.5t313 83.5t227.5 227t83.5 312.5zM1159 483q-1 -100 -37.5 -147t-111.5 -47q-74 0 -112.5 40.5t-47.5 133.5l-6 53q-10 87 -50 123.5t-116 36.5h-55v-266q0 -30 15 -37.5t77 -7.5h24v-60h-387v60h23q62 0 78 7.5t16 37.5v565q0 29 -15.5 36
t-78.5 7h-23v61h406q151 0 234 -50.5t83 -143.5q0 -154 -231 -191q60 -19 93 -56t52 -106l19 -65q15 -55 23 -71.5t24 -16.5q23 0 32.5 24t12.5 80h59zM909 883q0 70 -37 102.5t-118 32.5h-64q-47 0 -57 -4.5t-10 -24.5v-254h116q85 0 127.5 35t42.5 113z" />
    <glyph glyph-name="macron" unicode="&#xaf;" 
d="M662 1194h-642v111h642v-111z" />
    <glyph glyph-name="degree" unicode="&#xb0;" horiz-adv-x="819" 
d="M717 1092q0 -132 -89 -223t-218 -91t-218.5 92t-89.5 224q0 130 91.5 220.5t222.5 90.5q127 0 214 -90.5t87 -222.5zM600 1092q0 81 -54.5 138.5t-131.5 57.5q-83 0 -140 -57t-57 -139q0 -81 57.5 -139t135.5 -58q80 0 135 57t55 140z" />
    <glyph glyph-name="plusminus" unicode="&#xb1;" horiz-adv-x="1241" 
d="M1159 594h-457v-283h-163v283h-457v164h457v456h163v-456h457v-164zM1159 0h-1077v164h1077v-164z" />
    <glyph glyph-name="two.superior" unicode="&#xb2;" 
d="M653 868l-24 -276h-602v45q21 25 47 58q33 42 57 67t158 158l43 43q80 78 115.5 142t35.5 130q0 73 -43.5 114.5t-120.5 41.5q-67 0 -119.5 -36t-52.5 -81q0 -5 15.5 -13.5t34 -18t34 -30t15.5 -45.5q0 -35 -25 -57.5t-63 -22.5q-49 0 -80 38t-31 98q0 100 86 167.5
t213 67.5q129 0 213 -69t84 -175q0 -87 -51.5 -153t-208.5 -180q-62 -45 -94.5 -72.5t-95.5 -87.5h278q55 0 70.5 13t27.5 67l15 67h69z" />
    <glyph glyph-name="three.superior" unicode="&#xb3;" 
d="M643 825q0 -114 -88 -183t-231 -69q-126 0 -206.5 58t-80.5 149q0 51 28 83t72 32q37 0 62.5 -24.5t25.5 -59.5q0 -29 -13.5 -45.5t-53.5 -40.5q-4 -2 -6.5 -5t-3.5 -5l-1 -2q0 -25 53 -48.5t109 -23.5q85 0 129.5 48.5t44.5 139.5q0 177 -141 177q-8 1 -15 0.5t-31 -1.5
t-46 -1q-45 0 -45 38q0 39 49 39q19 0 29 -2l49 -2q68 -3 102.5 39t34.5 125q0 73 -34.5 111.5t-100.5 38.5q-49 0 -95 -20t-46 -42q0 -5 27.5 -34t27.5 -50q0 -35 -23.5 -57.5t-60.5 -22.5q-40 0 -66 26t-26 66q0 86 78.5 143.5t195.5 57.5q124 0 198 -58.5t74 -156.5
q0 -70 -38.5 -115t-116.5 -84q86 -23 133 -80t47 -139z" />
    <glyph glyph-name="acute" unicode="&#xb4;" 
d="M647 1352q0 -22 -14 -44.5t-37 -35.5l-326 -199h-84l287 287q38 38 58.5 50.5t43.5 12.5q29 0 50.5 -21t21.5 -50z" />
    <glyph glyph-name="uni00B5" unicode="&#xb5;" horiz-adv-x="1251" 
d="M1217 0l-373 -14v170q-66 -98 -141.5 -142.5t-174.5 -44.5q-150 0 -239 111q0 -76 3 -102.5t21 -86.5q39 -138 39 -188q0 -67 -28 -109.5t-72 -42.5t-73 42t-29 106q0 37 5 66.5t29 119.5q25 92 25 156v700q0 66 -15.5 84.5t-72.5 18.5h-78v88l358 22v-624
q0 -84 5.5 -113.5t25.5 -58.5q42 -64 143 -64q75 0 134.5 38t91.5 106q43 94 43 251v252q0 66 -15.5 84.5t-72.5 18.5h-105v88l385 22v-716q0 -98 22 -124t107 -26h52v-88z" />
    <glyph glyph-name="paragraph" unicode="&#xb6;" horiz-adv-x="1241" 
d="M1141 -295h-735v74h8q116 0 141 28q9 12 10.5 31t1.5 119v707h-61q-198 0 -302 104t-104 303q0 193 92 300.5t263 107.5h686v-74q-90 -4 -111.5 -20t-21.5 -76v-1352q0 -100 2 -119t12 -31q10 -13 31.5 -18t87.5 -10v-74zM567 731v674q-106 0 -147 -55.5t-41 -196.5v-168
q0 -126 38.5 -190t125.5 -64h24zM874 -219v1624h-174v-1624h174z" />
    <glyph glyph-name="periodcentered" unicode="&#xb7;" horiz-adv-x="569" 
d="M412 512q0 -52 -37 -89.5t-90 -37.5t-90 37.5t-37 89.5t37 89.5t90 37.5t90 -37.5t37 -89.5z" />
    <glyph glyph-name="cedilla" unicode="&#xb8;" 
d="M485 -262q0 -78 -68.5 -128t-176.5 -50q-97 0 -181 34l29 68q74 -24 125 -24q54 0 85.5 22t31.5 59q0 35 -27 57.5t-70 22.5q-27 0 -69 -10l-19 10l91 211h71l-49 -139q43 6 59 6q75 0 121.5 -38.5t46.5 -100.5z" />
    <glyph glyph-name="one.superior" unicode="&#xb9;" 
d="M602 592h-522v72h88q88 0 102 14q6 6 6 70v485q0 51 -9.5 60.5t-63.5 9.5h-121v67q92 0 173.5 25t115.5 63h57q-10 -118 -10 -209v-501q0 -62 6 -70q14 -14 100 -14h78v-72z" />
    <glyph glyph-name="ordmasculine" unicode="&#xba;" horiz-adv-x="614" 
d="M596 1184q0 -132 -81.5 -214.5t-211.5 -82.5q-125 0 -204 85t-79 218q0 129 83.5 217t207.5 88q120 0 202.5 -89.5t82.5 -221.5zM457 1202q0 116 -38 178t-108 62q-151 0 -151 -256q0 -120 37.5 -183t109.5 -63q150 0 150 262zM575 674h-532v82h532v-82z" />
    <glyph glyph-name="guillemotright" unicode="&#xbb;" horiz-adv-x="872" 
d="M453 498l-125 -119l-99 -96l-79 -78q-27 -31 -48 -31q-9 0 -15.5 7t-6.5 16q0 15 34.5 69.5t159.5 231.5q-125 180 -159.5 233.5t-34.5 67.5q0 9 7.5 16.5t16.5 7.5q20 0 46 -30l118 -117zM795 498l-125 -119l-99 -96l-79 -78q-27 -31 -48 -31q-9 0 -15.5 7t-6.5 16
q0 15 34.5 69.5t159.5 231.5q-125 180 -159.5 233.5t-34.5 67.5q0 9 7.5 16.5t16.5 7.5q20 0 46 -30l118 -117z" />
    <glyph glyph-name="onequarter" unicode="&#xbc;" horiz-adv-x="1708" 
d="M1456 1450l-1028 -1450h-111l1029 1450h110zM1628 211h-158v-90q0 -35 15.5 -41t105.5 -8v-72h-391v72h23q75 0 91.5 7.5t16.5 41.5v90h-362v76l442 579h66q-7 -119 -7 -250v-323h158v-82zM602 592h-522v72h88q77 0 92.5 11t15.5 73v485q0 51 -9.5 60.5t-63.5 9.5h-121
v67q92 0 173.5 25t115.5 63h57q-10 -118 -10 -209v-501q0 -62 15 -73t91 -11h78v-72zM1331 293v338l-260 -338h260z" />
    <glyph glyph-name="onehalf" unicode="&#xbd;" horiz-adv-x="1708" 
d="M1444 1450l-1028 -1450h-111l1028 1450h111zM602 592h-522v72h88q77 0 92.5 11t15.5 73v485q0 51 -9.5 60.5t-63.5 9.5h-121v67q92 0 173.5 25t115.5 63h57q-10 -118 -10 -209v-501q0 -62 15 -73t91 -11h78v-72zM1681 276l-24 -276h-602v45q128 158 229 252
q122 112 174.5 190t52.5 156q0 73 -43 114.5t-120 41.5q-67 0 -119.5 -36t-52.5 -81q0 -5 24.5 -17t49 -35t24.5 -55q0 -35 -25 -57t-63 -22q-49 0 -80 37.5t-31 97.5q0 100 86 167.5t213 67.5q129 0 213 -68.5t84 -174.5q0 -88 -51.5 -154t-208.5 -180q-60 -43 -93 -71
t-97 -89h278q55 0 70.5 13t27.5 67l15 67h69z" />
    <glyph glyph-name="threequarters" unicode="&#xbe;" horiz-adv-x="1708" 
d="M1477 1450l-1028 -1450h-111l1028 1450h111zM1628 211h-158v-90q0 -35 15.5 -41t105.5 -8v-72h-391v72h23q75 0 91.5 7.5t16.5 41.5v90h-362v76l442 579h66q-7 -119 -7 -250v-323h158v-82zM664 825q0 -114 -88.5 -183t-231.5 -69q-126 0 -206.5 58t-80.5 149
q0 51 28.5 83t72.5 32q37 0 62.5 -24.5t25.5 -59.5q0 -29 -13.5 -45.5t-54.5 -40.5q-4 -2 -6.5 -5t-3.5 -5v-2q0 -25 53 -48.5t109 -23.5q85 0 129.5 48.5t44.5 139.5q0 87 -36.5 132t-105.5 45q-8 1 -15 0.5t-31 -1.5t-46 -1q-45 0 -45 38q0 39 49 39q19 0 29 -2l49 -2
q68 -3 102.5 39t34.5 125q0 73 -34.5 111.5t-100.5 38.5q-49 0 -95 -20t-46 -42q0 -5 27.5 -34t27.5 -50q0 -35 -23.5 -57.5t-60.5 -22.5q-40 0 -66 26t-26 66q0 86 79 143.5t196 57.5q124 0 198 -58.5t74 -156.5q0 -70 -39 -115t-117 -84q86 -23 133.5 -80t47.5 -139z
M1331 293v338l-260 -338h260z" />
    <glyph glyph-name="questiondown" unicode="&#xbf;" horiz-adv-x="909" 
d="M858 -250q0 -132 -113 -217.5t-286 -85.5q-175 0 -283 98t-108 258q0 107 48 184t197 208q69 60 99 104t41.5 101t11.5 163h90v-65q0 -124 -29 -207q-5 -13 -7.5 -21t-8 -19.5t-8 -17t-12 -20t-14.5 -22.5t-21 -30t-27 -37.5t-35.5 -50t-44.5 -61.5q-65 -90 -65 -221
q0 -119 60.5 -185.5t168.5 -66.5q73 0 130.5 31.5t57.5 71.5q0 9 -23 34t-46 57.5t-23 61.5q0 47 34 80t83 33q57 0 95 -45t38 -113zM643 856q0 -53 -37.5 -90t-91.5 -37q-52 0 -89.5 37.5t-37.5 89.5q0 54 37.5 91.5t91.5 37.5q53 0 90 -37.5t37 -91.5z" />
    <glyph glyph-name="Agrave" unicode="&#xc0;" horiz-adv-x="1478" 
d="M1497 0h-635v96h86q57 0 92 14.5t35 39.5q0 14 -16 55l-111 274h-542l-68 -180q-19 -52 -19 -86q0 -117 166 -117h41v-96h-542v96h28q76 0 112.5 38.5t92.5 178.5l471 1194h86l522 -1280q36 -88 61.5 -109.5t100.5 -21.5h39v-96zM905 590l-231 581l-228 -581h459z
M940 1575h-100l-391 180q-62 30 -62 72q0 26 25.5 44.5t60.5 18.5q28 0 53 -11.5t70 -45.5z" />
    <glyph glyph-name="Aacute" unicode="&#xc1;" horiz-adv-x="1478" 
d="M1497 0h-635v96h86q57 0 92 14.5t35 39.5q0 14 -16 55l-111 274h-542l-68 -180q-19 -52 -19 -86q0 -117 166 -117h41v-96h-542v96h28q76 0 112.5 38.5t92.5 178.5l471 1194h86l522 -1280q36 -88 61.5 -109.5t100.5 -21.5h39v-96zM905 590l-231 581l-228 -581h459z
M1075 1827q0 -42 -61 -72l-391 -180h-101l344 258q45 34 70 45.5t53 11.5q35 0 60.5 -18.5t25.5 -44.5z" />
    <glyph glyph-name="Acircumflex" unicode="&#xc2;" horiz-adv-x="1478" 
d="M1497 0h-635v96h86q57 0 92 14.5t35 39.5q0 14 -16 55l-111 274h-542l-68 -180q-19 -52 -19 -86q0 -117 166 -117h41v-96h-542v96h28q76 0 112.5 38.5t92.5 178.5l471 1194h86l522 -1280q36 -88 61.5 -109.5t100.5 -21.5h39v-96zM905 590l-231 581l-228 -581h459z
M1116 1579h-90l-295 186l-297 -186h-88l307 307h156z" />
    <glyph glyph-name="Atilde" unicode="&#xc3;" horiz-adv-x="1478" 
d="M1497 0h-635v96h86q57 0 92 14.5t35 39.5q0 14 -16 55l-111 274h-542l-68 -180q-19 -52 -19 -86q0 -117 166 -117h41v-96h-542v96h28q76 0 112.5 38.5t92.5 178.5l471 1194h86l522 -1280q36 -88 61.5 -109.5t100.5 -21.5h39v-96zM905 590l-231 581l-228 -581h459z
M1071 1841q-10 -97 -71.5 -157t-149.5 -60q-40 0 -72 10t-110 47q-63 29 -107 29q-74 0 -96 -86h-72q20 96 75 151.5t130 55.5q36 0 64.5 -8.5t111.5 -46.5q88 -39 121 -39q35 0 65 30t39 74h72z" />
    <glyph glyph-name="Adieresis" unicode="&#xc4;" horiz-adv-x="1478" 
d="M1497 0h-635v96h86q57 0 92 14.5t35 39.5q0 14 -16 55l-111 274h-542l-68 -180q-19 -52 -19 -86q0 -117 166 -117h41v-96h-542v96h28q76 0 112.5 38.5t92.5 178.5l471 1194h86l522 -1280q36 -88 61.5 -109.5t100.5 -21.5h39v-96zM905 590l-231 581l-228 -581h459z
M631 1733q0 -43 -31 -73t-74 -30q-40 0 -70 31t-30 72t30.5 71.5t71.5 30.5t72 -30.5t31 -71.5zM1038 1733q0 -43 -30.5 -73t-73.5 -30q-40 0 -70 31t-30 72t30.5 71.5t71.5 30.5t71.5 -30.5t30.5 -71.5z" />
    <glyph glyph-name="Aring" unicode="&#xc5;" horiz-adv-x="1478" 
d="M1497 0h-635v96h86q57 0 92 14.5t35 39.5q0 14 -16 55l-111 274h-542l-68 -180q-19 -52 -19 -86q0 -117 166 -117h41v-96h-542v96h28q76 0 112.5 38.5t92.5 178.5l471 1194h86l522 -1280q36 -88 61.5 -109.5t100.5 -21.5h39v-96zM905 590l-231 581l-228 -581h459z
M936 1765q0 -86 -60 -145t-147 -59q-82 0 -141.5 60t-59.5 144q0 83 60 143t143 60q85 0 145 -60t60 -143zM862 1765q0 53 -38 91t-91 38q-54 0 -92.5 -38t-38.5 -91q0 -54 38 -92.5t91 -38.5q55 0 93 38t38 93z" />
    <glyph glyph-name="AE" unicode="&#xc6;" horiz-adv-x="2048" 
d="M1972 547l-41 -547h-1196v96h39q67 0 99.5 2.5t54 14t26 28.5t4.5 52v358h-489l-145 -266q-29 -54 -29 -95q0 -49 32 -71.5t109 -22.5h41v-96h-477v96q54 11 93 47.5t89 126.5l506 910q27 52 27 92q0 63 -33 86.5t-135 23.5h-55v97h1419l28 -525h-88q-16 94 -33.5 158
t-45 113.5t-60.5 78.5t-85 47.5t-112.5 24.5t-148.5 6h-49q-83 0 -106 -18t-23 -84v-467h57q125 0 187 66t69 215h96v-672h-96q-2 80 -12.5 129t-38 89.5t-79.5 58.5t-134 18h-49v-522q0 -61 32 -80t115 -19h72q98 0 167 15.5t120 46t86 86.5t58.5 126.5t45.5 176.5h88z
M958 662v665q0 30 -4 38.5t-16 8.5q-10 0 -17 -7.5t-18 -29.5l-375 -675h430z" />
    <glyph glyph-name="Ccedilla" unicode="&#xc7;" horiz-adv-x="1478" 
d="M1368 506q-35 -256 -185.5 -396.5t-389.5 -140.5q-43 0 -84 4l-39 -104q46 6 61 6q73 0 119.5 -38.5t46.5 -100.5q0 -78 -69 -128t-179 -50q-100 0 -178 34l29 68q77 -25 127 -25q52 0 83 22.5t31 59.5q0 35 -26.5 57.5t-69.5 22.5q-29 0 -70 -12l-16 10l80 189
q-162 27 -288 135.5t-192.5 267t-66.5 338.5q0 157 56 302.5t149.5 250.5t221.5 168t267 63q103 0 178.5 -28.5t184.5 -108.5l82 121h108v-592h-90q-63 213 -116 305q-59 98 -150.5 152.5t-198.5 54.5q-211 0 -316.5 -178.5t-105.5 -517.5q0 -330 110 -490.5t337 -160.5
q378 0 463 456z" />
    <glyph glyph-name="Egrave" unicode="&#xc8;" horiz-adv-x="1478" 
d="M1358 547l-41 -547h-1258v96h37q67 0 100 2.5t54 14t26 28.5t5 52v1093q0 35 -5 52t-26 28t-54 13.5t-100 2.5h-37v97h1260v-525h-88q-15 93 -32.5 156.5t-44.5 113.5t-60 79t-85 47.5t-113.5 25t-150.5 6.5h-106q-83 0 -106 -18t-23 -84v-467h49q146 0 213 65t74 216h96
v-672h-96q-2 53 -6.5 89.5t-16 72.5t-32 58.5t-52.5 40.5t-78.5 26t-109.5 8h-41v-522q0 -61 32 -80t115 -19h136q121 0 200 22t133.5 78t85.5 137t56 214h90zM948 1575h-100l-391 180q-62 30 -62 72q0 26 25.5 44.5t60.5 18.5q28 0 53 -11.5t70 -45.5z" />
    <glyph glyph-name="Eacute" unicode="&#xc9;" horiz-adv-x="1478" 
d="M1358 547l-41 -547h-1258v96h37q67 0 100 2.5t54 14t26 28.5t5 52v1093q0 35 -5 52t-26 28t-54 13.5t-100 2.5h-37v97h1260v-525h-88q-15 93 -32.5 156.5t-44.5 113.5t-60 79t-85 47.5t-113.5 25t-150.5 6.5h-106q-83 0 -106 -18t-23 -84v-467h49q146 0 213 65t74 216h96
v-672h-96q-2 53 -6.5 89.5t-16 72.5t-32 58.5t-52.5 40.5t-78.5 26t-109.5 8h-41v-522q0 -61 32 -80t115 -19h136q121 0 200 22t133.5 78t85.5 137t56 214h90zM1083 1827q0 -42 -61 -72l-391 -180h-101l344 258q45 34 70 45.5t53 11.5q35 0 60.5 -18.5t25.5 -44.5z" />
    <glyph glyph-name="Ecircumflex" unicode="&#xca;" horiz-adv-x="1478" 
d="M1358 547l-41 -547h-1258v96h37q67 0 100 2.5t54 14t26 28.5t5 52v1093q0 35 -5 52t-26 28t-54 13.5t-100 2.5h-37v97h1260v-525h-88q-15 93 -32.5 156.5t-44.5 113.5t-60 79t-85 47.5t-113.5 25t-150.5 6.5h-106q-83 0 -106 -18t-23 -84v-467h49q146 0 213 65t74 216h96
v-672h-96q-2 53 -6.5 89.5t-16 72.5t-32 58.5t-52.5 40.5t-78.5 26t-109.5 8h-41v-522q0 -61 32 -80t115 -19h136q121 0 200 22t133.5 78t85.5 137t56 214h90zM1124 1579h-90l-295 186l-297 -186h-88l308 307h155z" />
    <glyph glyph-name="Edieresis" unicode="&#xcb;" horiz-adv-x="1478" 
d="M1358 547l-41 -547h-1258v96h37q67 0 100 2.5t54 14t26 28.5t5 52v1093q0 35 -5 52t-26 28t-54 13.5t-100 2.5h-37v97h1260v-525h-88q-15 93 -32.5 156.5t-44.5 113.5t-60 79t-85 47.5t-113.5 25t-150.5 6.5h-106q-83 0 -106 -18t-23 -84v-467h49q146 0 213 65t74 216h96
v-672h-96q-2 53 -6.5 89.5t-16 72.5t-32 58.5t-52.5 40.5t-78.5 26t-109.5 8h-41v-522q0 -61 32 -80t115 -19h136q121 0 200 22t133.5 78t85.5 137t56 214h90zM639 1733q0 -43 -30.5 -73t-73.5 -30q-40 0 -70.5 31t-30.5 72t31 71.5t72 30.5t71.5 -30.5t30.5 -71.5z
M1047 1733q0 -43 -31 -73t-74 -30q-40 0 -70 31t-30 72t30.5 71.5t71.5 30.5t72 -30.5t31 -71.5z" />
    <glyph glyph-name="Igrave" unicode="&#xcc;" horiz-adv-x="833" 
d="M756 0h-678v96h41q67 0 99.5 2.5t54 14t26 28.5t4.5 52v1093q0 46 -12.5 64.5t-48 25t-123.5 6.5h-41v97h678v-97h-41q-66 0 -98.5 -2.5t-53.5 -13.5t-26 -28t-5 -52v-1093q0 -46 12.5 -64.5t48.5 -25.5t122 -7h41v-96zM625 1575h-101l-391 180q-61 30 -61 72
q0 26 25.5 44.5t60.5 18.5q28 0 53 -11.5t70 -45.5z" />
    <glyph glyph-name="Iacute" unicode="&#xcd;" horiz-adv-x="833" 
d="M756 0h-678v96h41q67 0 99.5 2.5t54 14t26 28.5t4.5 52v1093q0 46 -12.5 64.5t-48 25t-123.5 6.5h-41v97h678v-97h-41q-66 0 -98.5 -2.5t-53.5 -13.5t-26 -28t-5 -52v-1093q0 -46 12.5 -64.5t48.5 -25.5t122 -7h41v-96zM762 1827q0 -42 -62 -72l-391 -180h-100l344 258
q45 34 70 45.5t53 11.5q35 0 60.5 -18.5t25.5 -44.5z" />
    <glyph glyph-name="Icircumflex" unicode="&#xce;" horiz-adv-x="833" 
d="M756 0h-678v96h41q67 0 99.5 2.5t54 14t26 28.5t4.5 52v1093q0 46 -12.5 64.5t-48 25t-123.5 6.5h-41v97h678v-97h-41q-66 0 -98.5 -2.5t-53.5 -13.5t-26 -28t-5 -52v-1093q0 -46 12.5 -64.5t48.5 -25.5t122 -7h41v-96zM803 1579h-90l-295 186l-297 -186h-88l307 307h156
z" />
    <glyph glyph-name="Idieresis" unicode="&#xcf;" horiz-adv-x="833" 
d="M756 0h-678v96h41q67 0 99.5 2.5t54 14t26 28.5t4.5 52v1093q0 46 -12.5 64.5t-48 25t-123.5 6.5h-41v97h678v-97h-41q-66 0 -98.5 -2.5t-53.5 -13.5t-26 -28t-5 -52v-1093q0 -46 12.5 -64.5t48.5 -25.5t122 -7h41v-96zM315 1733q0 -43 -30.5 -73t-73.5 -30q-40 0 -70 31
t-30 72t30.5 71.5t71.5 30.5t71.5 -30.5t30.5 -71.5zM723 1733q0 -43 -31 -73t-74 -30q-40 0 -70 31t-30 72t31 71.5t72 30.5t71.5 -30.5t30.5 -71.5z" />
    <glyph glyph-name="Eth" unicode="&#xd0;" horiz-adv-x="1593" 
d="M1499 739q0 -358 -189.5 -548.5t-561.5 -190.5h-689v96h39q86 0 122 7t48.5 25.5t12.5 64.5v524h-222v96h222v473q0 35 -5 52t-26 28t-53.5 13.5t-98.5 2.5h-39v97h652q335 0 497 -105q138 -89 214.5 -256.5t76.5 -378.5zM1229 739q0 340 -116.5 491.5t-377.5 151.5h-108
q-77 0 -97 -19.5t-20 -94.5v-455h369v-96h-369v-508q0 -75 20 -94t97 -19h139q249 0 356 148.5t107 494.5z" />
    <glyph glyph-name="Ntilde" unicode="&#xd1;" horiz-adv-x="1669" 
d="M1626 1382q-51 -2 -86 -8.5t-63 -23t-44 -40t-26.5 -63.5t-14 -90t-3.5 -123v-1063h-86l-914 1233v-760q0 -88 6 -144t20.5 -97t43 -62.5t67 -31.5t99.5 -13v-96h-584v96q77 3 121 17.5t71.5 55t36.5 103t9 172.5v871q-28 38 -69 52.5t-120 14.5h-51v97h422l817 -1088
v643q0 88 -6 144t-20.5 97t-43 62.5t-67 31.5t-99.5 13v97h584v-97zM1174 1841q-10 -97 -72 -157t-150 -60q-40 0 -72 10t-110 47q-63 29 -106 29q-35 0 -61 -22.5t-36 -63.5h-71q20 96 74.5 151.5t129.5 55.5q36 0 65 -9t112 -46q88 -39 120 -39q35 0 65.5 30t39.5 74h72z
" />
    <glyph glyph-name="Ograve" unicode="&#xd2;" horiz-adv-x="1593" 
d="M1501 739q0 -162 -54 -305t-147 -245t-224 -161t-279 -59q-197 0 -358.5 100.5t-254 276.5t-92.5 391q0 156 52 297t144 246t226.5 167t290.5 62q194 0 353.5 -101.5t251 -278t91.5 -390.5zM1231 739q0 674 -428 674q-221 0 -331 -163.5t-110 -506.5q0 -348 109 -512.5
t326 -164.5q216 0 325 164t109 509zM1006 1575h-101l-391 180q-61 30 -61 72q0 26 25.5 44.5t60.5 18.5q28 0 53 -11.5t70 -45.5z" />
    <glyph glyph-name="Oacute" unicode="&#xd3;" horiz-adv-x="1593" 
d="M1501 739q0 -162 -54 -305t-147 -245t-224 -161t-279 -59q-197 0 -358.5 100.5t-254 276.5t-92.5 391q0 156 52 297t144 246t226.5 167t290.5 62q194 0 353.5 -101.5t251 -278t91.5 -390.5zM1231 739q0 674 -428 674q-221 0 -331 -163.5t-110 -506.5q0 -348 109 -512.5
t326 -164.5q216 0 325 164t109 509zM1141 1827q0 -42 -62 -72l-391 -180h-100l344 258q45 34 70 45.5t53 11.5q35 0 60.5 -18.5t25.5 -44.5z" />
    <glyph glyph-name="Ocircumflex" unicode="&#xd4;" horiz-adv-x="1593" 
d="M1501 739q0 -162 -54 -305t-147 -245t-224 -161t-279 -59q-197 0 -358.5 100.5t-254 276.5t-92.5 391q0 156 52 297t144 246t226.5 167t290.5 62q194 0 353.5 -101.5t251 -278t91.5 -390.5zM1231 739q0 674 -428 674q-221 0 -331 -163.5t-110 -506.5q0 -348 109 -512.5
t326 -164.5q216 0 325 164t109 509zM1182 1579h-90l-295 186l-297 -186h-88l307 307h155z" />
    <glyph glyph-name="Otilde" unicode="&#xd5;" horiz-adv-x="1593" 
d="M1501 739q0 -162 -54 -305t-147 -245t-224 -161t-279 -59q-197 0 -358.5 100.5t-254 276.5t-92.5 391q0 156 52 297t144 246t226.5 167t290.5 62q194 0 353.5 -101.5t251 -278t91.5 -390.5zM1231 739q0 674 -428 674q-221 0 -331 -163.5t-110 -506.5q0 -348 109 -512.5
t326 -164.5q216 0 325 164t109 509zM1137 1841q-10 -97 -72 -157t-150 -60q-40 0 -72 10t-110 47q-63 29 -106 29q-35 0 -61 -22.5t-36 -63.5h-71q20 96 75 151.5t130 55.5q36 0 64.5 -8.5t111.5 -46.5q88 -39 121 -39q35 0 65 30t39 74h72z" />
    <glyph glyph-name="Odieresis" unicode="&#xd6;" horiz-adv-x="1593" 
d="M1501 739q0 -162 -54 -305t-147 -245t-224 -161t-279 -59q-197 0 -358.5 100.5t-254 276.5t-92.5 391q0 156 52 297t144 246t226.5 167t290.5 62q194 0 353.5 -101.5t251 -278t91.5 -390.5zM1231 739q0 674 -428 674q-221 0 -331 -163.5t-110 -506.5q0 -348 109 -512.5
t326 -164.5q216 0 325 164t109 509zM696 1733q0 -43 -30.5 -73t-73.5 -30q-40 0 -70 31t-30 72t30.5 71.5t71.5 30.5t71.5 -30.5t30.5 -71.5zM1104 1733q0 -43 -31 -73t-74 -30q-40 0 -70 31t-30 72t30.5 71.5t71.5 30.5t72 -30.5t31 -71.5z" />
    <glyph glyph-name="multiply" unicode="&#xd7;" horiz-adv-x="1241" 
d="M1059 188l-115 -114l-323 321l-324 -321l-115 114l322 324l-322 324l115 114l324 -321l323 321l115 -114l-322 -324z" />
    <glyph glyph-name="Oslash" unicode="&#xd8;" horiz-adv-x="1593" 
d="M1501 750q0 -149 -52 -290t-142.5 -250t-225 -175t-288.5 -66q-228 0 -418 150l-203 -275h-111l248 336q-101 106 -160 255.5t-59 301.5q0 149 54 289.5t146.5 247t226.5 171t284 64.5q214 0 397 -129l133 181h111l-176 -240q110 -110 172.5 -262t62.5 -309zM1110 1262
q-113 151 -315 151q-214 0 -324.5 -175t-110.5 -515q0 -250 62 -389zM1231 762q0 145 -16.5 240.5t-55.5 175.5l-690 -932q115 -180 330 -180q432 0 432 696z" />
    <glyph glyph-name="Ugrave" unicode="&#xd9;" horiz-adv-x="1669" 
d="M1636 1382q-51 -2 -86 -8.5t-63 -23t-44 -40t-26.5 -63.5t-14 -90t-3.5 -123v-465q0 -315 -147 -457.5t-433 -142.5q-128 0 -230.5 26t-178.5 78.5t-117 138.5t-41 200v874q0 46 -12.5 64.5t-47.5 25t-122 6.5h-35v97h670v-97h-39q-67 0 -100 -2.5t-54 -13.5t-26 -28
t-5 -52v-745q0 -114 19 -196t63.5 -143.5t121.5 -91.5t189 -30q116 0 198 36.5t128.5 105.5t67 157t20.5 203v452q0 88 -6 144t-20 97t-42.5 62.5t-67 31.5t-99.5 13v97h583v-97zM1042 1575h-100l-391 180q-62 30 -62 72q0 26 25.5 44.5t60.5 18.5q28 0 53 -11.5t70 -45.5z
" />
    <glyph glyph-name="Uacute" unicode="&#xda;" horiz-adv-x="1669" 
d="M1636 1382q-51 -2 -86 -8.5t-63 -23t-44 -40t-26.5 -63.5t-14 -90t-3.5 -123v-465q0 -315 -147 -457.5t-433 -142.5q-128 0 -230.5 26t-178.5 78.5t-117 138.5t-41 200v874q0 46 -12.5 64.5t-47.5 25t-122 6.5h-35v97h670v-97h-39q-67 0 -100 -2.5t-54 -13.5t-26 -28
t-5 -52v-745q0 -114 19 -196t63.5 -143.5t121.5 -91.5t189 -30q116 0 198 36.5t128.5 105.5t67 157t20.5 203v452q0 88 -6 144t-20 97t-42.5 62.5t-67 31.5t-99.5 13v97h583v-97zM1180 1827q0 -42 -62 -72l-391 -180h-100l344 258q45 34 70 45.5t53 11.5q35 0 60.5 -18.5
t25.5 -44.5z" />
    <glyph glyph-name="Ucircumflex" unicode="&#xdb;" horiz-adv-x="1669" 
d="M1636 1382q-51 -2 -86 -8.5t-63 -23t-44 -40t-26.5 -63.5t-14 -90t-3.5 -123v-465q0 -315 -147 -457.5t-433 -142.5q-128 0 -230.5 26t-178.5 78.5t-117 138.5t-41 200v874q0 46 -12.5 64.5t-47.5 25t-122 6.5h-35v97h670v-97h-39q-67 0 -100 -2.5t-54 -13.5t-26 -28
t-5 -52v-745q0 -114 19 -196t63.5 -143.5t121.5 -91.5t189 -30q116 0 198 36.5t128.5 105.5t67 157t20.5 203v452q0 88 -6 144t-20 97t-42.5 62.5t-67 31.5t-99.5 13v97h583v-97zM1221 1579h-91l-294 186l-297 -186h-88l307 307h155z" />
    <glyph glyph-name="Udieresis" unicode="&#xdc;" horiz-adv-x="1669" 
d="M1636 1382q-51 -2 -86 -8.5t-63 -23t-44 -40t-26.5 -63.5t-14 -90t-3.5 -123v-465q0 -315 -147 -457.5t-433 -142.5q-128 0 -230.5 26t-178.5 78.5t-117 138.5t-41 200v874q0 46 -12.5 64.5t-47.5 25t-122 6.5h-35v97h670v-97h-39q-67 0 -100 -2.5t-54 -13.5t-26 -28
t-5 -52v-745q0 -114 19 -196t63.5 -143.5t121.5 -91.5t189 -30q116 0 198 36.5t128.5 105.5t67 157t20.5 203v452q0 88 -6 144t-20 97t-42.5 62.5t-67 31.5t-99.5 13v97h583v-97zM733 1733q0 -43 -30.5 -73t-73.5 -30q-40 0 -70.5 31t-30.5 72t31 71.5t72 30.5t71.5 -30.5
t30.5 -71.5zM1141 1733q0 -43 -31 -73t-74 -30q-40 0 -70 31t-30 72t30.5 71.5t71.5 30.5t72 -30.5t31 -71.5z" />
    <glyph glyph-name="Yacute" unicode="&#xdd;" horiz-adv-x="1441" 
d="M1460 1382h-33q-90 0 -141.5 -43t-124.5 -176l-305 -551v-419q0 -29 3.5 -44.5t12 -27.5t31.5 -16.5t52 -6.5t83 -2h54v-96h-703v96h53q67 0 100 2.5t54 14t26 28.5t5 52v395l-443 700q-35 57 -67.5 75.5t-98.5 18.5h-45v97h658v-97h-121q-80 0 -80 -39q0 -21 23 -57
l344 -555l254 453q34 61 34 106q0 49 -37 70.5t-122 21.5h-47v97h581v-97zM1085 1827q0 -42 -61 -72l-391 -180h-101l345 258q45 35 69.5 46t52.5 11q35 0 60.5 -18.5t25.5 -44.5z" />
    <glyph glyph-name="Thorn" unicode="&#xde;" horiz-adv-x="1366" 
d="M1329 776q0 -205 -177 -310.5t-523 -105.5h-117v-167q0 -35 4.5 -52t25.5 -28.5t53.5 -14t98.5 -2.5h41v-96h-678v96h41q54 0 84 2t52.5 7t31.5 17.5t13 28t4 44.5v1091q0 35 -5 52t-26 28t-54 13.5t-100 2.5h-41v97h678v-97h-41q-87 0 -122 -6.5t-47.5 -25t-12.5 -64.5
v-110h135q342 0 512 -106t170 -294zM1077 780q0 161 -94 231t-321 70h-46q-72 0 -88 -16.5t-16 -89.5v-522h94q267 0 369 70.5t102 256.5z" />
    <glyph glyph-name="germandbls" unicode="&#xdf;" horiz-adv-x="1175" 
d="M1096 397q0 -190 -93.5 -309t-242.5 -119q-112 0 -178 51.5t-66 137.5q0 57 31 91t82 34q46 0 78 -31.5t32 -77.5q0 -18 -4 -30.5t-20 -43.5q-4 -12 -4 -20q0 -15 11 -24t28 -9q58 0 94.5 97.5t36.5 254.5q0 206 -65 302.5t-208 105.5q-32 2 -44.5 10.5t-12.5 30.5
q0 26 17 35.5t59 9.5q104 0 151 59.5t47 192.5q0 137 -51 207.5t-149 70.5q-100 0 -155.5 -74.5t-55.5 -207.5v-1141h-355v74h29q51 0 76.5 2.5t39 16t15.5 28t2 51.5v838q0 144 16.5 215.5t63.5 136.5q53 71 137.5 109t188.5 38q178 0 284.5 -97t106.5 -259
q0 -106 -50 -177.5t-167 -131.5q295 -112 295 -447z" />
    <glyph glyph-name="agrave" unicode="&#xe0;" horiz-adv-x="1138" 
d="M1112 104q0 -44 -59.5 -81t-128.5 -37q-72 0 -114 33.5t-67 111.5q-66 -78 -158 -120t-198 -42q-135 0 -216 65.5t-81 174.5q0 151 143 236.5t500 146.5v80q0 128 -55 176.5t-166 48.5q-73 0 -127.5 -24t-54.5 -56q0 -2 22.5 -45t22.5 -65q0 -46 -31.5 -75.5t-79.5 -29.5
q-54 0 -86.5 34.5t-32.5 92.5q0 110 114 183t286 73q94 0 160 -14.5t118 -50t77.5 -100.5t25.5 -161v-411q0 -77 17.5 -109.5t60.5 -32.5q4 0 37.5 11.5t50.5 11.5q8 0 14 -7.5t6 -17.5zM733 410v94q-178 -30 -271.5 -64.5t-129 -80t-35.5 -121.5q0 -69 46.5 -114.5
t115.5 -45.5q66 0 130.5 35t102.5 92q26 40 33.5 76.5t7.5 128.5zM700 1073h-84l-325 199q-23 13 -37 35.5t-14 44.5q0 29 21 50t50 21q24 0 44.5 -12.5t58.5 -50.5z" />
    <glyph glyph-name="aacute" unicode="&#xe1;" horiz-adv-x="1138" 
d="M1112 104q0 -44 -59.5 -81t-128.5 -37q-72 0 -114 33.5t-67 111.5q-66 -78 -158 -120t-198 -42q-135 0 -216 65.5t-81 174.5q0 151 143 236.5t500 146.5v80q0 128 -55 176.5t-166 48.5q-73 0 -127.5 -24t-54.5 -56q0 -2 22.5 -45t22.5 -65q0 -46 -31.5 -75.5t-79.5 -29.5
q-54 0 -86.5 34.5t-32.5 92.5q0 110 114 183t286 73q94 0 160 -14.5t118 -50t77.5 -100.5t25.5 -161v-411q0 -77 17.5 -109.5t60.5 -32.5q4 0 37.5 11.5t50.5 11.5q8 0 14 -7.5t6 -17.5zM733 410v94q-178 -30 -271.5 -64.5t-129 -80t-35.5 -121.5q0 -69 46.5 -114.5
t115.5 -45.5q66 0 130.5 35t102.5 92q26 40 33.5 76.5t7.5 128.5zM850 1352q0 -22 -14 -44.5t-37 -35.5l-326 -199h-84l287 287q38 38 58.5 50.5t43.5 12.5q29 0 50.5 -21t21.5 -50z" />
    <glyph glyph-name="acircumflex" unicode="&#xe2;" horiz-adv-x="1138" 
d="M1112 104q0 -44 -59.5 -81t-128.5 -37q-72 0 -114 33.5t-67 111.5q-66 -78 -158 -120t-198 -42q-135 0 -216 65.5t-81 174.5q0 151 143 236.5t500 146.5v80q0 128 -55 176.5t-166 48.5q-73 0 -127.5 -24t-54.5 -56q0 -2 22.5 -45t22.5 -65q0 -46 -31.5 -75.5t-79.5 -29.5
q-54 0 -86.5 34.5t-32.5 92.5q0 110 114 183t286 73q94 0 160 -14.5t118 -50t77.5 -100.5t25.5 -161v-411q0 -77 17.5 -109.5t60.5 -32.5q4 0 37.5 11.5t50.5 11.5q8 0 14 -7.5t6 -17.5zM733 410v94q-178 -30 -271.5 -64.5t-129 -80t-35.5 -121.5q0 -69 46.5 -114.5
t115.5 -45.5q66 0 130.5 35t102.5 92q26 40 33.5 76.5t7.5 128.5zM864 1079h-73l-246 207l-248 -207h-74l256 340h129z" />
    <glyph glyph-name="atilde" unicode="&#xe3;" horiz-adv-x="1138" 
d="M1112 104q0 -44 -59.5 -81t-128.5 -37q-72 0 -114 33.5t-67 111.5q-66 -78 -158 -120t-198 -42q-135 0 -216 65.5t-81 174.5q0 151 143 236.5t500 146.5v80q0 128 -55 176.5t-166 48.5q-73 0 -127.5 -24t-54.5 -56q0 -2 22.5 -45t22.5 -65q0 -46 -31.5 -75.5t-79.5 -29.5
q-54 0 -86.5 34.5t-32.5 92.5q0 110 114 183t286 73q94 0 160 -14.5t118 -50t77.5 -100.5t25.5 -161v-411q0 -77 17.5 -109.5t60.5 -32.5q4 0 37.5 11.5t50.5 11.5q8 0 14 -7.5t6 -17.5zM733 410v94q-178 -30 -271.5 -64.5t-129 -80t-35.5 -121.5q0 -69 46.5 -114.5
t115.5 -45.5q66 0 130.5 35t102.5 92q26 40 33.5 76.5t7.5 128.5zM883 1358q-10 -97 -71.5 -157t-149.5 -60q-40 0 -72.5 10t-110.5 47q-63 29 -106 29q-35 0 -61 -22.5t-36 -63.5h-71q20 96 75 151.5t130 55.5q35 0 63 -9t113 -47q88 -39 121 -39q35 0 65 30.5t39 74.5h72z
" />
    <glyph glyph-name="adieresis" unicode="&#xe4;" horiz-adv-x="1138" 
d="M1112 104q0 -44 -59.5 -81t-128.5 -37q-72 0 -114 33.5t-67 111.5q-66 -78 -158 -120t-198 -42q-135 0 -216 65.5t-81 174.5q0 151 143 236.5t500 146.5v80q0 128 -55 176.5t-166 48.5q-73 0 -127.5 -24t-54.5 -56q0 -2 22.5 -45t22.5 -65q0 -46 -31.5 -75.5t-79.5 -29.5
q-54 0 -86.5 34.5t-32.5 92.5q0 110 114 183t286 73q94 0 160 -14.5t118 -50t77.5 -100.5t25.5 -161v-411q0 -77 17.5 -109.5t60.5 -32.5q4 0 37.5 11.5t50.5 11.5q8 0 14 -7.5t6 -17.5zM733 410v94q-178 -30 -271.5 -64.5t-129 -80t-35.5 -121.5q0 -69 46.5 -114.5
t115.5 -45.5q66 0 130.5 35t102.5 92q26 40 33.5 76.5t7.5 128.5zM442 1249q0 -43 -30.5 -72.5t-73.5 -29.5q-40 0 -70 30.5t-30 71.5t30.5 72t71.5 31t71.5 -31t30.5 -72zM850 1249q0 -42 -31 -72t-74 -30q-40 0 -70 30.5t-30 71.5t31 72t72 31t71.5 -31t30.5 -72z" />
    <glyph glyph-name="aring" unicode="&#xe5;" horiz-adv-x="1138" 
d="M1112 104q0 -44 -59.5 -81t-128.5 -37q-72 0 -114 33.5t-67 111.5q-66 -78 -158 -120t-198 -42q-135 0 -216 65.5t-81 174.5q0 151 143 236.5t500 146.5v80q0 128 -55 176.5t-166 48.5q-73 0 -127.5 -24t-54.5 -56q0 -2 22.5 -45t22.5 -65q0 -46 -31.5 -75.5t-79.5 -29.5
q-54 0 -86.5 34.5t-32.5 92.5q0 110 114 183t286 73q94 0 160 -14.5t118 -50t77.5 -100.5t25.5 -161v-411q0 -77 17.5 -109.5t60.5 -32.5q4 0 37.5 11.5t50.5 11.5q8 0 14 -7.5t6 -17.5zM733 410v94q-178 -30 -271.5 -64.5t-129 -80t-35.5 -121.5q0 -69 46.5 -114.5
t115.5 -45.5q66 0 130.5 35t102.5 92q26 40 33.5 76.5t7.5 128.5zM748 1251q0 -86 -60 -145t-147 -59q-82 0 -141.5 60t-59.5 144q0 83 60 143t143 60q85 0 145 -60t60 -143zM674 1251q0 53 -38 91t-91 38q-54 0 -92.5 -38t-38.5 -91q0 -54 38 -92.5t91 -38.5q55 0 93 38
t38 93z" />
    <glyph glyph-name="ae" unicode="&#xe6;" horiz-adv-x="1630" 
d="M1554 260q-69 -149 -171 -220t-248 -71q-90 0 -177 29t-143 80q-13 10 -72 72q-80 -97 -164.5 -139t-201.5 -42q-138 0 -220.5 64t-82.5 170q0 205 241 297q77 30 142.5 46t232.5 46v94q0 116 -44.5 163.5t-153.5 47.5q-72 0 -124.5 -23t-52.5 -55q0 -11 15 -28
q30 -43 30 -84q0 -46 -31.5 -75.5t-78.5 -29.5q-56 0 -88.5 34.5t-32.5 92.5q0 107 112.5 181.5t276.5 74.5q106 0 189.5 -31t126.5 -86q126 117 296 117q95 0 177.5 -42t136.5 -118q51 -69 79.5 -156t28.5 -171v-37h-665q2 -93 12.5 -147.5t36.5 -98.5q82 -135 238 -135
q101 0 172.5 51t134.5 168zM690 395v109q-128 -22 -187.5 -37.5t-101.5 -38.5q-120 -68 -120 -182q0 -74 43 -122t110 -48q63 0 121.5 30.5t93.5 81.5q26 40 33.5 76t7.5 131zM1331 625q0 122 -56.5 196t-150.5 74q-145 0 -206 -182q-29 -80 -29 -164h358q49 0 66.5 16
t17.5 60z" />
    <glyph glyph-name="ccedilla" unicode="&#xe7;" horiz-adv-x="909" 
d="M872 270q-61 -158 -151 -229.5t-225 -71.5l-39 -98q44 6 59 6q75 0 121.5 -38.5t46.5 -100.5q0 -78 -68.5 -128t-177.5 -50q-96 0 -180 34l31 68q71 -24 125 -24q51 0 82.5 22t31.5 59q0 35 -26.5 57.5t-69.5 22.5q-22 0 -70 -10l-16 10l76 176q-160 26 -256 159t-96 327
q0 229 128.5 376.5t327.5 147.5q136 0 228 -70.5t92 -173.5q0 -61 -35.5 -100t-89.5 -39t-88.5 32t-34.5 83q0 27 8.5 46t32.5 48q12 18 12 25q0 25 -34 43t-80 18q-114 0 -183 -114t-69 -300q0 -180 71.5 -284.5t194.5 -104.5q79 0 135.5 48.5t106.5 158.5z" />
    <glyph glyph-name="egrave" unicode="&#xe8;" horiz-adv-x="1024" 
d="M952 260q-125 -291 -417 -291q-207 0 -335 133.5t-128 348.5q0 230 130.5 382t327.5 152q188 0 305 -146.5t117 -377.5h-663q0 -188 76 -284.5t208 -96.5q103 0 174 50.5t134 168.5zM733 625q0 123 -56.5 197.5t-150.5 74.5q-98 0 -166.5 -95t-68.5 -253h358
q49 0 66.5 16t17.5 60zM686 1073h-84l-326 199q-23 13 -37 35.5t-14 44.5q0 29 21.5 50t50.5 21q23 0 43.5 -12.5t58.5 -50.5z" />
    <glyph glyph-name="eacute" unicode="&#xe9;" horiz-adv-x="1024" 
d="M952 260q-125 -291 -417 -291q-207 0 -335 133.5t-128 348.5q0 230 130.5 382t327.5 152q188 0 305 -146.5t117 -377.5h-663q0 -188 76 -284.5t208 -96.5q103 0 174 50.5t134 168.5zM733 625q0 123 -56.5 197.5t-150.5 74.5q-98 0 -166.5 -95t-68.5 -253h358
q49 0 66.5 16t17.5 60zM836 1352q0 -22 -14.5 -44.5t-37.5 -35.5l-325 -199h-84l287 287q38 38 58.5 50.5t43.5 12.5q29 0 50.5 -21t21.5 -50z" />
    <glyph glyph-name="ecircumflex" unicode="&#xea;" horiz-adv-x="1024" 
d="M952 260q-125 -291 -417 -291q-207 0 -335 133.5t-128 348.5q0 230 130.5 382t327.5 152q188 0 305 -146.5t117 -377.5h-663q0 -188 76 -284.5t208 -96.5q103 0 174 50.5t134 168.5zM733 625q0 123 -56.5 197.5t-150.5 74.5q-98 0 -166.5 -95t-68.5 -253h358
q49 0 66.5 16t17.5 60zM850 1079h-74l-246 207l-247 -207h-74l256 340h129z" />
    <glyph glyph-name="edieresis" unicode="&#xeb;" horiz-adv-x="1024" 
d="M952 260q-125 -291 -417 -291q-207 0 -335 133.5t-128 348.5q0 230 130.5 382t327.5 152q188 0 305 -146.5t117 -377.5h-663q0 -188 76 -284.5t208 -96.5q103 0 174 50.5t134 168.5zM733 625q0 123 -56.5 197.5t-150.5 74.5q-98 0 -166.5 -95t-68.5 -253h358
q49 0 66.5 16t17.5 60zM428 1249q0 -43 -30.5 -72.5t-73.5 -29.5q-40 0 -70.5 30.5t-30.5 71.5t31 72t72 31t71.5 -31t30.5 -72zM836 1249q0 -42 -31 -72t-74 -30q-40 0 -70 30.5t-30 71.5t30.5 72t71.5 31t72 -31t31 -72z" />
    <glyph glyph-name="igrave" unicode="&#xec;" horiz-adv-x="645" 
d="M592 0h-531v74h25q68 0 96.5 7.5t37.5 26t9 62.5v571q0 65 -16 84t-72 19h-104v88l385 22v-784q0 -44 9 -62.5t38 -26t98 -7.5h25v-74zM481 1073h-84l-325 199q-23 13 -37.5 35.5t-14.5 44.5q0 29 21.5 50t50.5 21q24 0 44.5 -12.5t58.5 -50.5z" />
    <glyph glyph-name="iacute" unicode="&#xed;" horiz-adv-x="645" 
d="M592 0h-531v74h25q68 0 96.5 7.5t37.5 26t9 62.5v571q0 65 -16 84t-72 19h-104v88l385 22v-784q0 -44 9 -62.5t38 -26t98 -7.5h25v-74zM631 1352q0 -22 -14 -44.5t-37 -35.5l-326 -199h-84l287 287q38 38 58.5 50.5t43.5 12.5q29 0 50.5 -21t21.5 -50z" />
    <glyph glyph-name="icircumflex" unicode="&#xee;" horiz-adv-x="645" 
d="M592 0h-531v74h25q68 0 96.5 7.5t37.5 26t9 62.5v571q0 65 -16 84t-72 19h-104v88l385 22v-784q0 -44 9 -62.5t38 -26t98 -7.5h25v-74zM645 1079h-74l-245 207l-248 -207h-74l256 340h129z" />
    <glyph glyph-name="idieresis" unicode="&#xef;" horiz-adv-x="645" 
d="M592 0h-531v74h25q68 0 96.5 7.5t37.5 26t9 62.5v571q0 65 -16 84t-72 19h-104v88l385 22v-784q0 -44 9 -62.5t38 -26t98 -7.5h25v-74zM223 1249q0 -43 -30.5 -72.5t-73.5 -29.5q-40 0 -70.5 30.5t-30.5 71.5t31 72t72 31t71.5 -31t30.5 -72zM631 1249q0 -42 -31 -72
t-74 -30q-40 0 -70 30.5t-30 71.5t30.5 72t71.5 31t72 -31t31 -72z" />
    <glyph glyph-name="eth" unicode="&#xf0;" horiz-adv-x="1024" 
d="M954 483q0 -142 -58.5 -260.5t-160 -186t-223.5 -67.5q-121 0 -222.5 67.5t-160.5 184.5t-59 256t59 256t161 184.5t224 67.5q36 0 88 -10q-58 70 -93.5 106t-150.5 142l-241 -140l-47 78l209 121l-187 123l53 80q131 -59 248 -135l250 147l51 -76l-215 -127
q252 -185 363.5 -378.5t111.5 -432.5zM739 477q0 202 -58 311t-165 109q-231 0 -231 -422q0 -203 58.5 -310.5t168.5 -107.5t168.5 108t58.5 312z" />
    <glyph glyph-name="ntilde" unicode="&#xf1;" horiz-adv-x="1251" 
d="M1214 0h-518v74h29q52 0 77.5 2.5t39.5 15.5t16 27.5t2 50.5v414q0 142 -45 204q-23 31 -64 51.5t-81 20.5q-66 0 -129 -43t-95 -112q-36 -74 -36 -240v-295q0 -36 2 -50.5t16 -27.5t39.5 -15.5t77.5 -2.5h28v-74h-518v74h29q51 0 76.5 2.5t39 15.5t15.5 27.5t2 50.5v571
q0 66 -15.5 84.5t-72.5 18.5h-74v88l355 22v-166q131 197 323 197q91 0 165 -42t112 -116q28 -52 35.5 -97.5t7.5 -156.5v-403q0 -36 2 -50.5t15.5 -27.5t39 -15.5t76.5 -2.5h28v-74zM965 1358q-10 -97 -72 -157t-150 -60q-40 0 -72 10t-110 47q-63 29 -106 29
q-35 0 -61 -22.5t-36 -63.5h-71q20 96 75 151.5t130 55.5q35 0 63 -9t113 -47q88 -39 120 -39q35 0 65.5 30.5t39.5 74.5h72z" />
    <glyph glyph-name="ograve" unicode="&#xf2;" horiz-adv-x="1024" 
d="M954 477q0 -139 -59 -256t-160.5 -184.5t-222.5 -67.5q-184 0 -313 147.5t-129 358.5q0 141 59 258.5t161.5 184.5t225.5 67q119 0 220 -68t159.5 -185t58.5 -255zM739 477q0 202 -58 311t-165 109q-231 0 -231 -422q0 -203 58.5 -310.5t168.5 -107.5t168.5 108t58.5 312
zM672 1073h-84l-326 199q-23 13 -37 35.5t-14 44.5q0 29 21.5 50t50.5 21q23 0 43.5 -12.5t58.5 -50.5z" />
    <glyph glyph-name="oacute" unicode="&#xf3;" horiz-adv-x="1024" 
d="M954 477q0 -139 -59 -256t-160.5 -184.5t-222.5 -67.5q-184 0 -313 147.5t-129 358.5q0 141 59 258.5t161.5 184.5t225.5 67q119 0 220 -68t159.5 -185t58.5 -255zM739 477q0 202 -58 311t-165 109q-231 0 -231 -422q0 -203 58.5 -310.5t168.5 -107.5t168.5 108t58.5 312
zM821 1352q0 -22 -14 -44.5t-37 -35.5l-326 -199h-84l287 287q38 38 58.5 50.5t44.5 12.5q29 0 50 -21t21 -50z" />
    <glyph glyph-name="ocircumflex" unicode="&#xf4;" horiz-adv-x="1024" 
d="M954 477q0 -139 -59 -256t-160.5 -184.5t-222.5 -67.5q-184 0 -313 147.5t-129 358.5q0 141 59 258.5t161.5 184.5t225.5 67q119 0 220 -68t159.5 -185t58.5 -255zM739 477q0 202 -58 311t-165 109q-231 0 -231 -422q0 -203 58.5 -310.5t168.5 -107.5t168.5 108t58.5 312
zM836 1079h-74l-246 207l-248 -207h-73l256 340h129z" />
    <glyph glyph-name="otilde" unicode="&#xf5;" horiz-adv-x="1024" 
d="M954 477q0 -139 -59 -256t-160.5 -184.5t-222.5 -67.5q-184 0 -313 147.5t-129 358.5q0 141 59 258.5t161.5 184.5t225.5 67q119 0 220 -68t159.5 -185t58.5 -255zM739 477q0 202 -58 311t-165 109q-231 0 -231 -422q0 -203 58.5 -310.5t168.5 -107.5t168.5 108t58.5 312
zM854 1358q-10 -97 -71.5 -157t-149.5 -60q-40 0 -72 10t-110 47q-63 29 -107 29q-74 0 -96 -86h-72q20 96 75 151.5t130 55.5q35 0 63 -9t113 -47q88 -39 121 -39q35 0 65 30.5t39 74.5h72z" />
    <glyph glyph-name="odieresis" unicode="&#xf6;" horiz-adv-x="1024" 
d="M954 477q0 -139 -59 -256t-160.5 -184.5t-222.5 -67.5q-184 0 -313 147.5t-129 358.5q0 141 59 258.5t161.5 184.5t225.5 67q119 0 220 -68t159.5 -185t58.5 -255zM739 477q0 202 -58 311t-165 109q-231 0 -231 -422q0 -203 58.5 -310.5t168.5 -107.5t168.5 108t58.5 312
zM414 1249q0 -42 -31 -72t-74 -30q-40 0 -70 30.5t-30 71.5t30.5 72t71.5 31t72 -31t31 -72zM821 1249q0 -43 -30.5 -72.5t-73.5 -29.5q-40 0 -70.5 30.5t-30.5 71.5t31 72t72 31t71.5 -31t30.5 -72z" />
    <glyph glyph-name="divide" unicode="&#xf7;" horiz-adv-x="1241" 
d="M1159 430h-1077v164h1077v-164zM748 883q0 -54 -37 -90.5t-90 -36.5t-90 36.5t-37 90.5q0 53 37 90t90 37t90 -37t37 -90zM748 143q0 -54 -37 -90.5t-90 -36.5t-90 36.5t-37 90.5q0 53 37 90t90 37t90 -37t37 -90z" />
    <glyph glyph-name="oslash" unicode="&#xf8;" horiz-adv-x="1024" 
d="M954 467q0 -219 -125.5 -358.5t-322.5 -139.5q-108 0 -182 39l-101 -194h-102l125 243q-85 73 -130.5 181.5t-45.5 236.5q0 140 59 257.5t160.5 185t222.5 67.5q96 0 186 -47l103 199h102l-129 -250q85 -72 132.5 -183.5t47.5 -236.5zM647 838q-56 59 -133 59
q-229 0 -229 -428q0 -153 39 -260zM739 496q0 142 -37 249l-323 -628q51 -60 131 -60q229 0 229 439z" />
    <glyph glyph-name="ugrave" unicode="&#xf9;" horiz-adv-x="1251" 
d="M1217 0l-373 -14v170q-68 -98 -143.5 -142.5t-176.5 -44.5q-92 0 -163.5 34t-112.5 97q-23 35 -31 77.5t-8 121.5v442q0 66 -15.5 84.5t-72.5 18.5h-78v88l358 22v-624q0 -84 5.5 -113.5t25.5 -58.5q42 -64 143 -64q75 0 134.5 38t91.5 106q43 94 43 251v252
q0 66 -15.5 84.5t-72.5 18.5h-105v88l385 22v-716q0 -98 22 -124t107 -26h52v-88zM778 1073h-84l-325 199q-23 13 -37.5 35.5t-14.5 44.5q0 29 21.5 50t50.5 21q24 0 44.5 -12.5t58.5 -50.5z" />
    <glyph glyph-name="uacute" unicode="&#xfa;" horiz-adv-x="1251" 
d="M1217 0l-373 -14v170q-68 -98 -143.5 -142.5t-176.5 -44.5q-92 0 -163.5 34t-112.5 97q-23 35 -31 77.5t-8 121.5v442q0 66 -15.5 84.5t-72.5 18.5h-78v88l358 22v-624q0 -84 5.5 -113.5t25.5 -58.5q42 -64 143 -64q75 0 134.5 38t91.5 106q43 94 43 251v252
q0 66 -15.5 84.5t-72.5 18.5h-105v88l385 22v-716q0 -98 22 -124t107 -26h52v-88zM928 1352q0 -22 -14 -44.5t-37 -35.5l-326 -199h-84l287 287q38 38 58.5 50.5t43.5 12.5q29 0 50.5 -21t21.5 -50z" />
    <glyph glyph-name="ucircumflex" unicode="&#xfb;" horiz-adv-x="1251" 
d="M1217 0l-373 -14v170q-68 -98 -143.5 -142.5t-176.5 -44.5q-92 0 -163.5 34t-112.5 97q-23 35 -31 77.5t-8 121.5v442q0 66 -15.5 84.5t-72.5 18.5h-78v88l358 22v-624q0 -84 5.5 -113.5t25.5 -58.5q42 -64 143 -64q75 0 134.5 38t91.5 106q43 94 43 251v252
q0 66 -15.5 84.5t-72.5 18.5h-105v88l385 22v-716q0 -98 22 -124t107 -26h52v-88zM942 1079h-74l-245 207l-248 -207h-74l256 340h129z" />
    <glyph glyph-name="udieresis" unicode="&#xfc;" horiz-adv-x="1251" 
d="M1217 0l-373 -14v170q-68 -98 -143.5 -142.5t-176.5 -44.5q-92 0 -163.5 34t-112.5 97q-23 35 -31 77.5t-8 121.5v442q0 66 -15.5 84.5t-72.5 18.5h-78v88l358 22v-624q0 -84 5.5 -113.5t25.5 -58.5q42 -64 143 -64q75 0 134.5 38t91.5 106q43 94 43 251v252
q0 66 -15.5 84.5t-72.5 18.5h-105v88l385 22v-716q0 -98 22 -124t107 -26h52v-88zM520 1249q0 -43 -30.5 -72.5t-73.5 -29.5q-40 0 -70.5 30.5t-30.5 71.5t31 72t72 31t71.5 -31t30.5 -72zM928 1249q0 -42 -31 -72t-74 -30q-40 0 -70 30.5t-30 71.5t30.5 72t71.5 31t72 -31
t31 -72z" />
    <glyph glyph-name="yacute" unicode="&#xfd;" horiz-adv-x="1099" 
d="M1087 881h-24q-57 0 -88.5 -34.5t-71.5 -131.5l-233 -578q-69 -171 -108.5 -251t-86.5 -144q-121 -164 -282 -164q-80 0 -133.5 45.5t-53.5 112.5q0 56 34.5 91.5t88.5 35.5q44 0 74 -26t30 -66q0 -13 -7 -39.5t-7 -32.5q0 -9 9.5 -15t23.5 -6q49 0 113 73t122 192l35 71
l-334 756q-28 62 -57 86.5t-78 24.5h-26v73h487v-73h-43q-52 0 -73 -12t-21 -40q0 -16 12 -43l225 -526l187 463q20 50 20 82q0 40 -26 58t-84 18h-33v73h409v-73zM901 1352q0 -22 -14 -44.5t-37 -35.5l-326 -199h-84l287 287q38 38 58.5 50.5t43.5 12.5q29 0 50.5 -21
t21.5 -50z" />
    <glyph glyph-name="thorn" unicode="&#xfe;" horiz-adv-x="1175" 
d="M1096 481q0 -220 -118 -366t-296 -146q-94 0 -156.5 38.5t-113.5 127.5v-379q0 -62 25 -79t124 -17h29v-74h-533v74h29q51 0 76.5 2.5t39 15.5t15.5 27.5t2 50.5v1540q0 66 -15.5 84.5t-72.5 18.5h-74v90l355 20v-702q54 94 120.5 136t161.5 42q111 0 203.5 -67
t145.5 -183t53 -254zM881 494q0 179 -59.5 279.5t-164.5 100.5q-116 0 -181.5 -108.5t-65.5 -298.5q0 -176 66 -281.5t175 -105.5t169.5 108.5t60.5 305.5z" />
    <glyph glyph-name="ydieresis" unicode="&#xff;" horiz-adv-x="1099" 
d="M1087 881h-24q-57 0 -88.5 -34.5t-71.5 -131.5l-233 -578q-69 -171 -108.5 -251t-86.5 -144q-121 -164 -282 -164q-80 0 -133.5 45.5t-53.5 112.5q0 56 34.5 91.5t88.5 35.5q44 0 74 -26t30 -66q0 -13 -7 -39.5t-7 -32.5q0 -9 9.5 -15t23.5 -6q49 0 113 73t122 192l35 71
l-334 756q-28 62 -57 86.5t-78 24.5h-26v73h487v-73h-43q-52 0 -73 -12t-21 -40q0 -16 12 -43l225 -526l187 463q20 50 20 82q0 40 -26 58t-84 18h-33v73h409v-73zM494 1249q0 -42 -31 -72t-74 -30q-40 0 -70 30.5t-30 71.5t30.5 72t71.5 31t72 -31t31 -72zM901 1249
q0 -43 -30.5 -72.5t-73.5 -29.5q-40 0 -70.5 30.5t-30.5 71.5t31 72t72 31t71.5 -31t30.5 -72z" />
    <glyph glyph-name="Amacron" unicode="&#x100;" horiz-adv-x="1478" 
d="M1497 0h-635v96h86q57 0 92 14.5t35 39.5q0 14 -16 55l-111 274h-542l-68 -180q-19 -52 -19 -86q0 -117 166 -117h41v-96h-542v96h28q76 0 112.5 38.5t92.5 178.5l471 1194h86l522 -1280q36 -88 61.5 -109.5t100.5 -21.5h39v-96zM905 590l-231 581l-228 -581h459z
M1053 1677h-641v111h641v-111z" />
    <glyph glyph-name="amacron" unicode="&#x101;" horiz-adv-x="1138" 
d="M1112 104q0 -44 -59.5 -81t-128.5 -37q-72 0 -114 33.5t-67 111.5q-66 -78 -158 -120t-198 -42q-135 0 -216 65.5t-81 174.5q0 151 143 236.5t500 146.5v80q0 128 -55 176.5t-166 48.5q-73 0 -127.5 -24t-54.5 -56q0 -2 22.5 -45t22.5 -65q0 -46 -31.5 -75.5t-79.5 -29.5
q-54 0 -86.5 34.5t-32.5 92.5q0 110 114 183t286 73q94 0 160 -14.5t118 -50t77.5 -100.5t25.5 -161v-411q0 -77 17.5 -109.5t60.5 -32.5q4 0 37.5 11.5t50.5 11.5q8 0 14 -7.5t6 -17.5zM733 410v94q-178 -30 -271.5 -64.5t-129 -80t-35.5 -121.5q0 -69 46.5 -114.5
t115.5 -45.5q66 0 130.5 35t102.5 92q26 40 33.5 76.5t7.5 128.5zM864 1194h-641v111h641v-111z" />
    <glyph glyph-name="Abreve" unicode="&#x102;" horiz-adv-x="1478" 
d="M1497 0h-635v96h86q57 0 92 14.5t35 39.5q0 14 -16 55l-111 274h-542l-68 -180q-19 -52 -19 -86q0 -117 166 -117h41v-96h-542v96h28q76 0 112.5 38.5t92.5 178.5l471 1194h86l522 -1280q36 -88 61.5 -109.5t100.5 -21.5h39v-96zM905 590l-231 581l-228 -581h459z
M1079 1878q0 -130 -99 -210.5t-251 -80.5q-151 0 -248.5 80.5t-97.5 210.5h88q9 -84 77 -130t183 -46t182 46t76 130h90z" />
    <glyph glyph-name="abreve" unicode="&#x103;" horiz-adv-x="1138" 
d="M1112 104q0 -44 -59.5 -81t-128.5 -37q-72 0 -114 33.5t-67 111.5q-66 -78 -158 -120t-198 -42q-135 0 -216 65.5t-81 174.5q0 151 143 236.5t500 146.5v80q0 128 -55 176.5t-166 48.5q-73 0 -127.5 -24t-54.5 -56q0 -2 22.5 -45t22.5 -65q0 -46 -31.5 -75.5t-79.5 -29.5
q-54 0 -86.5 34.5t-32.5 92.5q0 110 114 183t286 73q94 0 160 -14.5t118 -50t77.5 -100.5t25.5 -161v-411q0 -77 17.5 -109.5t60.5 -32.5q4 0 37.5 11.5t50.5 11.5q8 0 14 -7.5t6 -17.5zM733 410v94q-178 -30 -271.5 -64.5t-129 -80t-35.5 -121.5q0 -69 46.5 -114.5
t115.5 -45.5q66 0 130.5 35t102.5 92q26 40 33.5 76.5t7.5 128.5zM834 1382q0 -125 -83.5 -208.5t-207.5 -83.5t-206.5 84t-82.5 210v27h74q8 -93 64.5 -143.5t152.5 -50.5q95 0 151 51t64 143h74v-29z" />
    <glyph glyph-name="Aogonek" unicode="&#x104;" horiz-adv-x="1478" 
d="M1497 -295q0 -72 -61 -130t-183 -58q-97 0 -165 62t-68 167q0 63 50.5 132t121.5 122h-330v96h86q57 0 92 14.5t35 39.5q0 14 -16 55l-111 274h-542l-68 -180q-19 -52 -19 -86q0 -117 166 -117h41v-96h-542v96h28q76 0 112.5 38.5t92.5 178.5l471 1194h86l522 -1280
q36 -88 61.5 -109.5t100.5 -21.5h39v-96h-18q-88 0 -150.5 -18.5t-91.5 -73.5q-37 -76 -37 -156q0 -49 21 -76.5t61 -27.5q47 0 84 13t54.5 28t32.5 28t24 13q8 0 14 -7.5t6 -17.5zM905 590l-231 581l-228 -581h459z" />
    <glyph glyph-name="aogonek" unicode="&#x105;" horiz-adv-x="1138" 
d="M1112 -295q0 -72 -61 -130t-183 -58q-97 0 -165 62t-68 167q0 65 55.5 137.5t130.5 126.5q-51 34 -78 121q-66 -78 -158 -120t-198 -42q-135 0 -216 65.5t-81 174.5q0 151 143 236.5t500 146.5v80q0 128 -55 176.5t-166 48.5q-73 0 -127.5 -24t-54.5 -56q0 -2 22.5 -45
t22.5 -65q0 -46 -31.5 -75.5t-79.5 -29.5q-54 0 -86.5 34.5t-32.5 92.5q0 110 114 183t286 73q94 0 160 -14.5t118 -50t77.5 -100.5t25.5 -161v-411q0 -77 17.5 -109.5t60.5 -32.5q4 0 37.5 11.5t50.5 11.5q8 0 14 -7.5t6 -17.5q0 -35 -39 -66.5t-94 -45.5q-48 -11 -86 -42
t-55 -75q-23 -61 -23 -123q0 -49 21 -76.5t61 -27.5q47 0 84 13t54.5 28t32.5 28t24 13q8 0 14 -7.5t6 -17.5zM733 410v94q-178 -30 -271.5 -64.5t-129 -80t-35.5 -121.5q0 -69 46.5 -114.5t115.5 -45.5q66 0 130.5 35t102.5 92q26 40 33.5 76.5t7.5 128.5z" />
    <glyph glyph-name="Cacute" unicode="&#x106;" horiz-adv-x="1478" 
d="M1368 506q-35 -258 -186.5 -397.5t-397.5 -139.5q-199 0 -357 96.5t-246.5 269.5t-88.5 390q0 157 56 302.5t149.5 250.5t221.5 168t267 63q103 0 178.5 -28.5t184.5 -108.5l82 121h108v-592h-90q-63 213 -116 305q-59 98 -150.5 152.5t-198.5 54.5q-211 0 -316.5 -178.5
t-105.5 -517.5q0 -330 110 -490.5t337 -160.5q378 0 463 456zM1130 1827q0 -42 -61 -72l-391 -180h-100l344 258q45 35 69.5 46t52.5 11q35 0 60.5 -18.5t25.5 -44.5z" />
    <glyph glyph-name="cacute" unicode="&#x107;" horiz-adv-x="909" 
d="M872 270q-66 -163 -152 -232t-222 -69q-190 0 -309 137t-119 355q0 229 128.5 376.5t327.5 147.5q136 0 228 -70.5t92 -173.5q0 -61 -35.5 -100t-89.5 -39t-88.5 32t-34.5 83q0 27 8.5 46t32.5 48q12 18 12 25q0 25 -34 43t-80 18q-114 0 -183 -114t-69 -300
q0 -180 71.5 -284.5t194.5 -104.5q79 0 135.5 48.5t106.5 158.5zM831 1352q0 -22 -14 -44.5t-37 -35.5l-325 -199h-84l286 287q38 38 58.5 50.5t44.5 12.5q29 0 50 -21t21 -50z" />
    <glyph glyph-name="Ccircumflex" unicode="&#x108;" horiz-adv-x="1478" 
d="M1368 506q-35 -258 -186.5 -397.5t-397.5 -139.5q-199 0 -357 96.5t-246.5 269.5t-88.5 390q0 157 56 302.5t149.5 250.5t221.5 168t267 63q103 0 178.5 -28.5t184.5 -108.5l82 121h108v-592h-90q-63 213 -116 305q-59 98 -150.5 152.5t-198.5 54.5q-211 0 -316.5 -178.5
t-105.5 -517.5q0 -330 110 -490.5t337 -160.5q378 0 463 456zM1171 1579h-90l-295 186l-297 -186h-88l308 307h155z" />
    <glyph glyph-name="ccircumflex" unicode="&#x109;" horiz-adv-x="909" 
d="M872 270q-66 -163 -152 -232t-222 -69q-190 0 -309 137t-119 355q0 229 128.5 376.5t327.5 147.5q136 0 228 -70.5t92 -173.5q0 -61 -35.5 -100t-89.5 -39t-88.5 32t-34.5 83q0 27 8.5 46t32.5 48q12 18 12 25q0 25 -34 43t-80 18q-114 0 -183 -114t-69 -300
q0 -180 71.5 -284.5t194.5 -104.5q79 0 135.5 48.5t106.5 158.5zM846 1079h-74l-246 207l-247 -207h-74l256 340h129z" />
    <glyph glyph-name="Cdotaccent" unicode="&#x10a;" horiz-adv-x="1478" 
d="M1368 506q-35 -258 -186.5 -397.5t-397.5 -139.5q-199 0 -357 96.5t-246.5 269.5t-88.5 390q0 157 56 302.5t149.5 250.5t221.5 168t267 63q103 0 178.5 -28.5t184.5 -108.5l82 121h108v-592h-90q-63 213 -116 305q-59 98 -150.5 152.5t-198.5 54.5q-211 0 -316.5 -178.5
t-105.5 -517.5q0 -330 110 -490.5t337 -160.5q378 0 463 456zM891 1733q0 -43 -31 -73t-74 -30q-40 0 -70 31t-30 72t30.5 71.5t71.5 30.5t72 -30.5t31 -71.5z" />
    <glyph glyph-name="cdotaccent" unicode="&#x10b;" horiz-adv-x="909" 
d="M872 270q-66 -163 -152 -232t-222 -69q-190 0 -309 137t-119 355q0 229 128.5 376.5t327.5 147.5q136 0 228 -70.5t92 -173.5q0 -61 -35.5 -100t-89.5 -39t-88.5 32t-34.5 83q0 27 8.5 46t32.5 48q12 18 12 25q0 25 -34 43t-80 18q-114 0 -183 -114t-69 -300
q0 -180 71.5 -284.5t194.5 -104.5q79 0 135.5 48.5t106.5 158.5zM629 1249q0 -42 -31 -72t-74 -30q-40 0 -70 30.5t-30 71.5t30.5 72t71.5 31t72 -31t31 -72z" />
    <glyph glyph-name="Ccaron" unicode="&#x10c;" horiz-adv-x="1478" 
d="M1368 506q-35 -258 -186.5 -397.5t-397.5 -139.5q-199 0 -357 96.5t-246.5 269.5t-88.5 390q0 157 56 302.5t149.5 250.5t221.5 168t267 63q103 0 178.5 -28.5t184.5 -108.5l82 121h108v-592h-90q-63 213 -116 305q-59 98 -150.5 152.5t-198.5 54.5q-211 0 -316.5 -178.5
t-105.5 -517.5q0 -330 110 -490.5t337 -160.5q378 0 463 456zM1174 1886l-308 -307h-155l-308 307h91l294 -186l297 186h89z" />
    <glyph glyph-name="ccaron" unicode="&#x10d;" horiz-adv-x="909" 
d="M872 270q-66 -163 -152 -232t-222 -69q-190 0 -309 137t-119 355q0 229 128.5 376.5t327.5 147.5q136 0 228 -70.5t92 -173.5q0 -61 -35.5 -100t-89.5 -39t-88.5 32t-34.5 83q0 27 8.5 46t32.5 48q12 18 12 25q0 25 -34 43t-80 18q-114 0 -183 -114t-69 -300
q0 -180 71.5 -284.5t194.5 -104.5q79 0 135.5 48.5t106.5 158.5zM846 1419l-256 -340h-129l-256 340h74l245 -207l248 207h74z" />
    <glyph glyph-name="Dcaron" unicode="&#x10e;" horiz-adv-x="1593" 
d="M1499 748q0 -364 -188.5 -556t-562.5 -192h-689v96h39q86 0 122 7t48.5 25.5t12.5 64.5v1093q0 35 -5 52t-26 28t-53.5 13.5t-98.5 2.5h-39v97h652q332 0 497 -105q140 -92 215.5 -255t75.5 -371zM1229 739q0 340 -117 491.5t-379 151.5h-106q-77 0 -97 -19.5t-20 -94.5
v-1059q0 -75 20 -94t97 -19h139q248 0 355.5 149.5t107.5 493.5zM1184 1886l-307 -307h-156l-307 307h90l295 -186l297 186h88z" />
    <glyph glyph-name="dcaron" unicode="&#x10f;" horiz-adv-x="1175" 
d="M1135 0l-357 -14v161q-50 -92 -117.5 -135t-164.5 -43q-179 0 -293.5 140t-114.5 358q0 221 117.5 369.5t290.5 148.5q89 0 157 -36.5t125 -114.5v462q0 66 -16 84.5t-72 18.5h-121v88l402 22v-1271q0 -97 22 -123.5t105 -26.5h37v-88zM776 473q0 151 -39 246
q-28 70 -82.5 112.5t-117.5 42.5t-116 -40.5t-79 -108.5q-39 -101 -39 -283q0 -170 62 -266t170 -96q110 0 175.5 107t65.5 286zM1337 1333q0 -119 -77 -223q-55 -72 -166 -137l-41 51q186 117 186 252q0 16 -12 16h-6q-8 -2 -25 -2q-61 0 -96 29t-35 80q0 47 34.5 78.5
t86.5 31.5q66 0 108.5 -49t42.5 -127z" />
    <glyph glyph-name="Dcroat" unicode="&#x110;" horiz-adv-x="1593" 
d="M1499 739q0 -358 -189.5 -548.5t-561.5 -190.5h-689v96h39q86 0 122 7t48.5 25.5t12.5 64.5v524h-222v96h222v473q0 35 -5 52t-26 28t-53.5 13.5t-98.5 2.5h-39v97h652q335 0 497 -105q138 -89 214.5 -256.5t76.5 -378.5zM1229 739q0 340 -116.5 491.5t-377.5 151.5h-108
q-77 0 -97 -19.5t-20 -94.5v-455h369v-96h-369v-508q0 -75 20 -94t97 -19h139q249 0 356 148.5t107 494.5z" />
    <glyph glyph-name="dcroat" unicode="&#x111;" horiz-adv-x="1175" 
d="M1135 0l-357 -14v161q-50 -92 -117.5 -135t-164.5 -43q-179 0 -293.5 140t-114.5 358q0 221 117.5 369.5t292.5 148.5q170 0 280 -151v329h-284v97h284v36q0 66 -16 84.5t-72 18.5h-121v88l402 22v-249h164v-97h-164v-925q0 -97 22 -123.5t105 -26.5h37v-88zM776 473
q0 151 -39 246q-28 70 -82.5 112.5t-117.5 42.5t-116 -40.5t-79 -108.5q-39 -101 -39 -283q0 -170 62 -266t170 -96q110 0 175.5 106.5t65.5 286.5z" />
    <glyph glyph-name="Emacron" unicode="&#x112;" horiz-adv-x="1478" 
d="M1358 547l-41 -547h-1258v96h37q67 0 100 2.5t54 14t26 28.5t5 52v1093q0 35 -5 52t-26 28t-54 13.5t-100 2.5h-37v97h1260v-525h-88q-15 93 -32.5 156.5t-44.5 113.5t-60 79t-85 47.5t-113.5 25t-150.5 6.5h-106q-83 0 -106 -18t-23 -84v-467h49q146 0 213 65t74 216h96
v-672h-96q-2 53 -6.5 89.5t-16 72.5t-32 58.5t-52.5 40.5t-78.5 26t-109.5 8h-41v-522q0 -61 32 -80t115 -19h136q121 0 200 22t133.5 78t85.5 137t56 214h90zM1061 1677h-641v111h641v-111z" />
    <glyph glyph-name="emacron" unicode="&#x113;" horiz-adv-x="1024" 
d="M952 260q-125 -291 -417 -291q-207 0 -335 133.5t-128 348.5q0 230 130.5 382t327.5 152q188 0 305 -146.5t117 -377.5h-663q0 -188 76 -284.5t208 -96.5q103 0 174 50.5t134 168.5zM733 625q0 123 -56.5 197.5t-150.5 74.5q-98 0 -166.5 -95t-68.5 -253h358
q49 0 66.5 16t17.5 60zM850 1194h-641v111h641v-111z" />
    <glyph glyph-name="Ebreve" unicode="&#x114;" horiz-adv-x="1478" 
d="M1358 547l-41 -547h-1258v96h37q67 0 100 2.5t54 14t26 28.5t5 52v1093q0 35 -5 52t-26 28t-54 13.5t-100 2.5h-37v97h1260v-525h-88q-15 93 -32.5 156.5t-44.5 113.5t-60 79t-85 47.5t-113.5 25t-150.5 6.5h-106q-83 0 -106 -18t-23 -84v-467h49q146 0 213 65t74 216h96
v-672h-96q-2 53 -6.5 89.5t-16 72.5t-32 58.5t-52.5 40.5t-78.5 26t-109.5 8h-41v-522q0 -61 32 -80t115 -19h136q121 0 200 22t133.5 78t85.5 137t56 214h90zM1087 1878q0 -130 -99 -210.5t-251 -80.5q-151 0 -248.5 80.5t-97.5 210.5h88q9 -84 77 -130t183 -46t182 46
t76 130h90z" />
    <glyph glyph-name="ebreve" unicode="&#x115;" horiz-adv-x="1024" 
d="M952 260q-125 -291 -417 -291q-207 0 -335 133.5t-128 348.5q0 230 130.5 382t327.5 152q188 0 305 -146.5t117 -377.5h-663q0 -188 76 -284.5t208 -96.5q103 0 174 50.5t134 168.5zM733 625q0 123 -56.5 197.5t-150.5 74.5q-98 0 -166.5 -95t-68.5 -253h358
q49 0 66.5 16t17.5 60zM819 1382q0 -125 -83.5 -208.5t-207.5 -83.5t-206 84t-82 210v27h73q8 -93 64.5 -143.5t152.5 -50.5q95 0 151 51t64 143h74v-29z" />
    <glyph glyph-name="Edotaccent" unicode="&#x116;" horiz-adv-x="1478" 
d="M1358 547l-41 -547h-1258v96h37q67 0 100 2.5t54 14t26 28.5t5 52v1093q0 35 -5 52t-26 28t-54 13.5t-100 2.5h-37v97h1260v-525h-88q-15 93 -32.5 156.5t-44.5 113.5t-60 79t-85 47.5t-113.5 25t-150.5 6.5h-106q-83 0 -106 -18t-23 -84v-467h49q146 0 213 65t74 216h96
v-672h-96q-2 53 -6.5 89.5t-16 72.5t-32 58.5t-52.5 40.5t-78.5 26t-109.5 8h-41v-522q0 -61 32 -80t115 -19h136q121 0 200 22t133.5 78t85.5 137t56 214h90zM844 1733q0 -43 -31 -73t-74 -30q-40 0 -70 31t-30 72t30.5 71.5t71.5 30.5t72 -30.5t31 -71.5z" />
    <glyph glyph-name="edotaccent" unicode="&#x117;" horiz-adv-x="1024" 
d="M952 260q-125 -291 -417 -291q-207 0 -335 133.5t-128 348.5q0 230 130.5 382t327.5 152q188 0 305 -146.5t117 -377.5h-663q0 -188 76 -284.5t208 -96.5q103 0 174 50.5t134 168.5zM733 625q0 123 -56.5 197.5t-150.5 74.5q-98 0 -166.5 -95t-68.5 -253h358
q49 0 66.5 16t17.5 60zM633 1249q0 -42 -31 -72t-74 -30q-40 0 -70 30.5t-30 71.5t30.5 72t71.5 31t72 -31t31 -72z" />
    <glyph glyph-name="Eogonek" unicode="&#x118;" horiz-adv-x="1478" 
d="M1358 547l-41 -547h-35q-177 0 -225 -92q-37 -76 -37 -156q0 -49 21 -76.5t61 -27.5q47 0 84 13t54 28t32 28t24 13q8 0 14.5 -7.5t6.5 -17.5q0 -72 -61 -130t-183 -58q-97 0 -165 62t-68 167q0 63 50.5 132t121.5 122h-953v96h37q67 0 100 2.5t54 14t26 28.5t5 52v1093
q0 35 -5 52t-26 28t-54 13.5t-100 2.5h-37v97h1260v-525h-88q-15 93 -32.5 156.5t-44.5 113.5t-60 79t-85 47.5t-113.5 25t-150.5 6.5h-106q-83 0 -106 -18t-23 -84v-467h49q146 0 213 65t74 216h96v-672h-96q-2 53 -6.5 89.5t-16 72.5t-32 58.5t-52.5 40.5t-78.5 26
t-109.5 8h-41v-522q0 -61 32 -80t115 -19h136q121 0 200 22t133.5 78t85.5 137t56 214h90z" />
    <glyph glyph-name="eogonek" unicode="&#x119;" horiz-adv-x="1024" 
d="M952 260q-62 -145 -168 -219q-43 -29 -69 -49t-56 -52.5t-43 -64.5q-22 -58 -22 -123q0 -49 21 -76.5t61 -27.5q47 0 84 13t54 28t32 28t24 13q8 0 14.5 -7.5t6.5 -17.5q0 -72 -61 -130t-183 -58q-97 0 -165 62t-68 167q0 54 38 112.5t97 110.5h-14q-207 0 -335 133.5
t-128 348.5q0 230 130.5 382t327.5 152q188 0 305 -146.5t117 -377.5h-663q0 -188 76 -284.5t208 -96.5q103 0 174 50.5t134 168.5zM733 625q0 123 -56.5 197.5t-150.5 74.5q-98 0 -166.5 -95t-68.5 -253h358q49 0 66.5 16t17.5 60z" />
    <glyph glyph-name="Ecaron" unicode="&#x11a;" horiz-adv-x="1478" 
d="M1358 547l-41 -547h-1258v96h37q67 0 100 2.5t54 14t26 28.5t5 52v1093q0 35 -5 52t-26 28t-54 13.5t-100 2.5h-37v97h1260v-525h-88q-15 93 -32.5 156.5t-44.5 113.5t-60 79t-85 47.5t-113.5 25t-150.5 6.5h-106q-83 0 -106 -18t-23 -84v-467h49q146 0 213 65t74 216h96
v-672h-96q-2 53 -6.5 89.5t-16 72.5t-32 58.5t-52.5 40.5t-78.5 26t-109.5 8h-41v-522q0 -61 32 -80t115 -19h136q121 0 200 22t133.5 78t85.5 137t56 214h90zM1126 1886l-307 -307h-155l-308 307h90l295 -186l297 186h88z" />
    <glyph glyph-name="ecaron" unicode="&#x11b;" horiz-adv-x="1024" 
d="M952 260q-125 -291 -417 -291q-207 0 -335 133.5t-128 348.5q0 230 130.5 382t327.5 152q188 0 305 -146.5t117 -377.5h-663q0 -188 76 -284.5t208 -96.5q103 0 174 50.5t134 168.5zM733 625q0 123 -56.5 197.5t-150.5 74.5q-98 0 -166.5 -95t-68.5 -253h358
q49 0 66.5 16t17.5 60zM850 1419l-256 -340h-129l-256 340h74l245 -207l248 207h74z" />
    <glyph glyph-name="Gcircumflex" unicode="&#x11c;" horiz-adv-x="1593" 
d="M1581 578h-31q-146 0 -172 -29q-9 -10 -10.5 -26.5t-1.5 -100.5v-451h-86l-76 185q-100 -100 -198.5 -143.5t-227.5 -43.5q-144 0 -271.5 55t-220 151.5t-146.5 236t-54 301.5q0 153 52.5 297t144 254.5t227 177.5t291.5 67q112 0 192.5 -30.5t180.5 -110.5l79 125h107
v-575h-88q-127 495 -479 495q-214 0 -325.5 -178.5t-111.5 -521.5q0 -317 113.5 -482t329.5 -165q169 0 262.5 101t93.5 288q0 31 -1.5 48.5t-9 33.5t-17.5 22.5t-33.5 11.5t-50.5 6t-74 1h-39v96h651v-96zM1182 1579h-90l-295 186l-297 -186h-88l307 307h155z" />
    <glyph glyph-name="gcircumflex" unicode="&#x11d;" horiz-adv-x="1099" 
d="M1110 895q0 -41 -27 -69.5t-65 -28.5q-30 0 -51.5 16.5t-30 35.5t-16.5 35.5t-15 16.5q-23 0 -69 -49q42 -51 58.5 -95t16.5 -106q0 -101 -50 -178.5t-142 -118.5q-51 -23 -99 -29.5t-194 -9.5q-103 -3 -148 -24.5t-45 -67.5q0 -39 25 -53q28 -13 60 -16q27 -2 83 -2h209
q183 0 260 -29q57 -23 90 -81t33 -134q0 -324 -514 -324q-206 0 -319 55t-113 156q0 128 189 195q-72 25 -105 67t-33 109q0 85 46 133.5t149 71.5q-80 37 -126 110t-46 164q0 154 110 247t293 93q76 0 132.5 -17.5t121.5 -60.5q71 65 109.5 86t87.5 21q60 0 97.5 -33
t37.5 -86zM723 649q0 119 -52 183.5t-149 64.5q-103 0 -159 -66.5t-56 -187.5q0 -115 56 -182.5t151 -67.5q98 0 153.5 68t55.5 188zM850 -147q0 49 -35.5 80.5t-97.5 37.5q-31 4 -213 4h-152q-74 -38 -104.5 -75t-30.5 -88q0 -69 70.5 -106.5t199.5 -37.5q172 0 267.5 48.5
t95.5 136.5zM844 1079h-74l-246 207l-248 -207h-73l256 340h129z" />
    <glyph glyph-name="Gbreve" unicode="&#x11e;" horiz-adv-x="1593" 
d="M1581 578h-31q-146 0 -172 -29q-9 -10 -10.5 -26.5t-1.5 -100.5v-451h-86l-76 185q-100 -100 -198.5 -143.5t-227.5 -43.5q-144 0 -271.5 55t-220 151.5t-146.5 236t-54 301.5q0 153 52.5 297t144 254.5t227 177.5t291.5 67q112 0 192.5 -30.5t180.5 -110.5l79 125h107
v-575h-88q-127 495 -479 495q-214 0 -325.5 -178.5t-111.5 -521.5q0 -317 113.5 -482t329.5 -165q169 0 262.5 101t93.5 288q0 31 -1.5 48.5t-9 33.5t-17.5 22.5t-33.5 11.5t-50.5 6t-74 1h-39v96h651v-96zM1145 1878q0 -130 -99 -210.5t-251 -80.5q-151 0 -248.5 80.5
t-97.5 210.5h88q9 -84 77 -130t183 -46t182 46t76 130h90z" />
    <glyph glyph-name="gbreve" unicode="&#x11f;" horiz-adv-x="1099" 
d="M1110 895q0 -41 -27 -69.5t-65 -28.5q-30 0 -51.5 16.5t-30 35.5t-16.5 35.5t-15 16.5q-23 0 -69 -49q42 -51 58.5 -95t16.5 -106q0 -101 -50 -178.5t-142 -118.5q-51 -23 -99 -29.5t-194 -9.5q-103 -3 -148 -24.5t-45 -67.5q0 -39 25 -53q28 -13 60 -16q27 -2 83 -2h209
q183 0 260 -29q57 -23 90 -81t33 -134q0 -324 -514 -324q-206 0 -319 55t-113 156q0 128 189 195q-72 25 -105 67t-33 109q0 85 46 133.5t149 71.5q-80 37 -126 110t-46 164q0 154 110 247t293 93q76 0 132.5 -17.5t121.5 -60.5q71 65 109.5 86t87.5 21q60 0 97.5 -33
t37.5 -86zM723 649q0 119 -52 183.5t-149 64.5q-103 0 -159 -66.5t-56 -187.5q0 -115 56 -182.5t151 -67.5q98 0 153.5 68t55.5 188zM850 -147q0 49 -35.5 80.5t-97.5 37.5q-31 4 -213 4h-152q-74 -38 -104.5 -75t-30.5 -88q0 -69 70.5 -106.5t199.5 -37.5q172 0 267.5 48.5
t95.5 136.5zM813 1382q0 -125 -83.5 -208.5t-207.5 -83.5t-206.5 84t-82.5 210v27h74q8 -93 64.5 -143.5t152.5 -50.5q95 0 151 51t64 143h74v-29z" />
    <glyph glyph-name="Gdotaccent" unicode="&#x120;" horiz-adv-x="1593" 
d="M1581 578h-31q-146 0 -172 -29q-9 -10 -10.5 -26.5t-1.5 -100.5v-451h-86l-76 185q-100 -100 -198.5 -143.5t-227.5 -43.5q-144 0 -271.5 55t-220 151.5t-146.5 236t-54 301.5q0 153 52.5 297t144 254.5t227 177.5t291.5 67q112 0 192.5 -30.5t180.5 -110.5l79 125h107
v-575h-88q-127 495 -479 495q-214 0 -325.5 -178.5t-111.5 -521.5q0 -317 113.5 -482t329.5 -165q169 0 262.5 101t93.5 288q0 31 -1.5 48.5t-9 33.5t-17.5 22.5t-33.5 11.5t-50.5 6t-74 1h-39v96h651v-96zM901 1733q0 -43 -30.5 -73t-73.5 -30q-40 0 -70.5 31t-30.5 72
t31 71.5t72 30.5t71.5 -30.5t30.5 -71.5z" />
    <glyph glyph-name="gdotaccent" unicode="&#x121;" horiz-adv-x="1099" 
d="M1110 895q0 -41 -27 -69.5t-65 -28.5q-30 0 -51.5 16.5t-30 35.5t-16.5 35.5t-15 16.5q-23 0 -69 -49q42 -51 58.5 -95t16.5 -106q0 -101 -50 -178.5t-142 -118.5q-51 -23 -99 -29.5t-194 -9.5q-103 -3 -148 -24.5t-45 -67.5q0 -39 25 -53q28 -13 60 -16q27 -2 83 -2h209
q183 0 260 -29q57 -23 90 -81t33 -134q0 -324 -514 -324q-206 0 -319 55t-113 156q0 128 189 195q-72 25 -105 67t-33 109q0 85 46 133.5t149 71.5q-80 37 -126 110t-46 164q0 154 110 247t293 93q76 0 132.5 -17.5t121.5 -60.5q71 65 109.5 86t87.5 21q60 0 97.5 -33
t37.5 -86zM723 649q0 119 -52 183.5t-149 64.5q-103 0 -159 -66.5t-56 -187.5q0 -115 56 -182.5t151 -67.5q98 0 153.5 68t55.5 188zM850 -147q0 49 -35.5 80.5t-97.5 37.5q-31 4 -213 4h-152q-74 -38 -104.5 -75t-30.5 -88q0 -69 70.5 -106.5t199.5 -37.5q172 0 267.5 48.5
t95.5 136.5zM627 1249q0 -42 -31 -72t-74 -30q-40 0 -70 30.5t-30 71.5t30.5 72t71.5 31t72 -31t31 -72z" />
    <glyph glyph-name="Gcommaaccent" unicode="&#x122;" horiz-adv-x="1593" 
d="M1581 578h-31q-146 0 -172 -29q-9 -10 -10.5 -26.5t-1.5 -100.5v-451h-86l-76 185q-100 -100 -198.5 -143.5t-227.5 -43.5q-144 0 -271.5 55t-220 151.5t-146.5 236t-54 301.5q0 153 52.5 297t144 254.5t227 177.5t291.5 67q112 0 192.5 -30.5t180.5 -110.5l79 125h107
v-575h-88q-127 495 -479 495q-214 0 -325.5 -178.5t-111.5 -521.5q0 -317 113.5 -482t329.5 -165q169 0 262.5 101t93.5 288q0 31 -1.5 48.5t-9 33.5t-17.5 22.5t-33.5 11.5t-50.5 6t-74 1h-39v96h651v-96zM938 -258q0 -118 -78 -223q-55 -72 -166 -137l-41 51
q187 117 187 252q0 16 -13 16h-6q-8 -2 -24 -2q-62 0 -96.5 28.5t-34.5 79.5q0 48 34 79.5t86 31.5q66 0 109 -49t43 -127z" />
    <glyph glyph-name="gcommaaccent" unicode="&#x123;" horiz-adv-x="1099" 
d="M668 1561q-187 -117 -187 -252q0 -17 13 -17h6q8 2 24 2q62 0 96.5 -28.5t34.5 -79.5q0 -48 -34 -79.5t-86 -31.5q-66 0 -109 49t-43 127q0 119 78 224q55 72 166 137zM1110 895q0 -41 -27 -69.5t-65 -28.5q-30 0 -51.5 16.5t-30 35.5t-16.5 35.5t-15 16.5q-23 0 -69 -49
q42 -51 58.5 -95t16.5 -106q0 -101 -50 -178.5t-142 -118.5q-51 -23 -99 -29.5t-194 -9.5q-103 -3 -148 -24.5t-45 -67.5q0 -39 25 -53q28 -13 60 -16q27 -2 83 -2h209q183 0 260 -29q57 -23 90 -81t33 -134q0 -324 -514 -324q-206 0 -319 55t-113 156q0 128 189 195
q-72 25 -105 67t-33 109q0 85 46 133.5t149 71.5q-80 37 -126 110t-46 164q0 154 110 247t293 93q76 0 132.5 -17.5t121.5 -60.5q71 65 109.5 86t87.5 21q60 0 97.5 -33t37.5 -86zM723 649q0 119 -52 183.5t-149 64.5q-103 0 -159 -66.5t-56 -187.5q0 -115 56 -182.5
t151 -67.5q98 0 153.5 68t55.5 188zM850 -147q0 49 -35.5 80.5t-97.5 37.5q-31 4 -213 4h-152q-74 -38 -104.5 -75t-30.5 -88q0 -69 70.5 -106.5t199.5 -37.5q172 0 267.5 48.5t95.5 136.5z" />
    <glyph glyph-name="Hcircumflex" unicode="&#x124;" horiz-adv-x="1705" 
d="M1647 0h-672v96h37q67 0 99.5 2.5t54 14t26 28.5t4.5 52v518h-686v-518q0 -35 4.5 -52t26 -28.5t54 -14t99.5 -2.5h39v-96h-674v96h37q67 0 100 2.5t54 14t26 28.5t5 52v1093q0 35 -5 52t-26 28t-54 13.5t-100 2.5h-37v97h674v-97h-39q-88 0 -123.5 -6.5t-48 -25
t-12.5 -64.5v-465h686v465q0 46 -12.5 64.5t-48 25t-123.5 6.5h-29v97h664v-97h-37q-67 0 -100 -2.5t-54 -13.5t-26 -28t-5 -52v-1093q0 -35 5 -52t26 -28.5t54 -14t100 -2.5h37v-96zM1239 1579h-90l-295 186l-297 -186h-88l307 307h156z" />
    <glyph glyph-name="hcircumflex" unicode="&#x125;" horiz-adv-x="1251" 
d="M1214 0h-518v74h29q52 0 77.5 2.5t39.5 15.5t16 27.5t2 50.5v412q0 141 -45 206q-23 31 -64 51.5t-81 20.5q-66 0 -129 -43t-95 -112q-36 -74 -36 -242v-293q0 -36 2 -50.5t16 -27.5t39.5 -15.5t77.5 -2.5h28v-74h-518v74h29q51 0 76.5 2.5t39 15.5t15.5 27.5t2 50.5
v1126q0 66 -15.5 84.5t-72.5 18.5h-98v88l379 22v-723q69 103 147 151t176 48q92 0 165.5 -42t111.5 -116q28 -52 35.5 -97.5t7.5 -156.5v-403q0 -36 2 -50.5t15.5 -27.5t39 -15.5t76.5 -2.5h28v-74zM1012 1610h-90l-295 186l-297 -186h-88l307 307h156z" />
    <glyph glyph-name="Hbar" unicode="&#x126;" horiz-adv-x="1705" 
d="M1647 0h-672v96h37q67 0 99.5 2.5t54 14t26 28.5t4.5 52v518h-686v-518q0 -35 4.5 -52t26 -28.5t54 -14t99.5 -2.5h39v-96h-674v96h37q67 0 100 2.5t54 14t26 28.5t5 52v874h-222v86h222v133q0 35 -5 52t-26 28t-54 13.5t-100 2.5h-37v97h674v-97h-39q-88 0 -123.5 -6.5
t-48 -25t-12.5 -64.5v-133h686v133q0 46 -12.5 64.5t-48 25t-123.5 6.5h-29v97h664v-97h-37q-67 0 -100 -2.5t-54 -13.5t-26 -28t-5 -52v-133h222v-86h-222v-874q0 -35 5 -52t26 -28.5t54 -14t100 -2.5h37v-96zM1196 821v246h-686v-246h686z" />
    <glyph glyph-name="hbar" unicode="&#x127;" horiz-adv-x="1347" 
d="M1266 0h-518v74h28q52 0 77.5 2.5t39.5 15.5t16 27.5t2 50.5v412q0 141 -45 206q-23 31 -64.5 51.5t-80.5 20.5q-66 0 -128.5 -43t-94.5 -112q-37 -76 -37 -242v-293q0 -36 2 -50.5t16 -27.5t39.5 -15.5t77.5 -2.5h29v-74h-519v74h29q51 0 76.5 2.5t39 15.5t15.5 27.5
t2 50.5v829l-186 -81v73l186 82v223q0 66 -15.5 84.5t-72.5 18.5h-98v88l379 22v-350l217 94v-73l-217 -97v-297q69 103 147 151t176 48q92 0 165.5 -42t111.5 -116q28 -52 35.5 -97.5t7.5 -156.5v-403q0 -36 2 -50.5t15.5 -27.5t39 -15.5t76.5 -2.5h29v-74z" />
    <glyph glyph-name="Itilde" unicode="&#x128;" horiz-adv-x="833" 
d="M756 0h-678v96h41q67 0 99.5 2.5t54 14t26 28.5t4.5 52v1093q0 46 -12.5 64.5t-48 25t-123.5 6.5h-41v97h678v-97h-41q-66 0 -98.5 -2.5t-53.5 -13.5t-26 -28t-5 -52v-1093q0 -46 12.5 -64.5t48.5 -25.5t122 -7h41v-96zM756 1841q-10 -97 -71.5 -157t-149.5 -60
q-40 0 -72.5 10t-110.5 47q-63 29 -106 29q-74 0 -96 -86h-72q20 96 75 151.5t130 55.5q36 0 64.5 -8.5t111.5 -46.5q88 -39 121 -39q35 0 65 30t39 74h72z" />
    <glyph glyph-name="itilde" unicode="&#x129;" horiz-adv-x="645" 
d="M592 0h-531v74h25q68 0 96.5 7.5t37.5 26t9 62.5v571q0 65 -16 84t-72 19h-104v88l385 22v-784q0 -44 9 -62.5t38 -26t98 -7.5h25v-74zM664 1358q-10 -97 -72 -157t-150 -60q-40 0 -72 10t-110 47q-63 29 -106 29q-35 0 -61 -22.5t-36 -63.5h-71q20 96 74.5 151.5
t129.5 55.5q36 0 64.5 -9t112.5 -47q88 -39 120 -39q35 0 65.5 30.5t39.5 74.5h72z" />
    <glyph glyph-name="Imacron" unicode="&#x12a;" horiz-adv-x="833" 
d="M756 0h-678v96h41q67 0 99.5 2.5t54 14t26 28.5t4.5 52v1093q0 46 -12.5 64.5t-48 25t-123.5 6.5h-41v97h678v-97h-41q-66 0 -98.5 -2.5t-53.5 -13.5t-26 -28t-5 -52v-1093q0 -46 12.5 -64.5t48.5 -25.5t122 -7h41v-96zM737 1677h-641v111h641v-111z" />
    <glyph glyph-name="imacron" unicode="&#x12b;" horiz-adv-x="645" 
d="M592 0h-531v74h25q68 0 96.5 7.5t37.5 26t9 62.5v571q0 65 -16 84t-72 19h-104v88l385 22v-784q0 -44 9 -62.5t38 -26t98 -7.5h25v-74zM645 1194h-641v111h641v-111z" />
    <glyph glyph-name="Ibreve" unicode="&#x12c;" horiz-adv-x="833" 
d="M756 0h-678v96h41q67 0 99.5 2.5t54 14t26 28.5t4.5 52v1093q0 46 -12.5 64.5t-48 25t-123.5 6.5h-41v97h678v-97h-41q-66 0 -98.5 -2.5t-53.5 -13.5t-26 -28t-5 -52v-1093q0 -46 12.5 -64.5t48.5 -25.5t122 -7h41v-96zM766 1878q0 -130 -99 -210.5t-251 -80.5
q-151 0 -248.5 80.5t-97.5 210.5h88q9 -84 77 -130t183 -46t182 46t76 130h90z" />
    <glyph glyph-name="ibreve" unicode="&#x12d;" horiz-adv-x="645" 
d="M592 0h-531v74h25q68 0 96.5 7.5t37.5 26t9 62.5v571q0 65 -16 84t-72 19h-104v88l385 22v-784q0 -44 9 -62.5t38 -26t98 -7.5h25v-74zM614 1382q0 -125 -83 -208.5t-207 -83.5t-206.5 84t-82.5 210v27h74q8 -93 64.5 -143.5t152.5 -50.5q95 0 151 51t64 143h73v-29z" />
    <glyph glyph-name="Iogonek" unicode="&#x12e;" horiz-adv-x="833" 
d="M756 0h-19q-37 0 -57 -0.5t-54 -3t-55 -8t-45.5 -15.5t-42 -26.5t-28.5 -38.5q-37 -76 -37 -156q0 -49 21 -76.5t61 -27.5q47 0 84 13t54 28t32 28t24 13q8 0 14.5 -7.5t6.5 -17.5q0 -72 -61 -130t-183 -58q-97 0 -165 62t-68 167q0 63 50.5 132t121.5 122h-332v96h41
q67 0 99.5 2.5t54 14t26 28.5t4.5 52v1093q0 46 -12.5 64.5t-48 25t-123.5 6.5h-41v97h678v-97h-41q-66 0 -98.5 -2.5t-53.5 -13.5t-26 -28t-5 -52v-1093q0 -46 12.5 -64.5t48.5 -25.5t122 -7h41v-96z" />
    <glyph glyph-name="iogonek" unicode="&#x12f;" horiz-adv-x="645" 
d="M592 -295q0 -72 -61 -130t-183 -58q-97 0 -165 62t-68 167q0 63 50.5 132t121.5 122h-226v74h25q68 0 96.5 7.5t37.5 26t9 62.5v571q0 65 -16 84t-72 19h-104v88l385 22v-784q0 -44 9 -62.5t38 -26t98 -7.5h25v-74h-115q-45 0 -84 -25t-61 -67q-37 -76 -37 -156
q0 -49 21 -76.5t61 -27.5q47 0 84 13t54 28t32 28t24 13q8 0 14.5 -7.5t6.5 -17.5zM428 1249q0 -43 -30.5 -72.5t-73.5 -29.5q-40 0 -70.5 30.5t-30.5 71.5t31 72t72 31t71.5 -31t30.5 -72z" />
    <glyph glyph-name="Idotaccent" unicode="&#x130;" horiz-adv-x="833" 
d="M756 0h-678v96h41q67 0 99.5 2.5t54 14t26 28.5t4.5 52v1093q0 46 -12.5 64.5t-48 25t-123.5 6.5h-41v97h678v-97h-41q-66 0 -98.5 -2.5t-53.5 -13.5t-26 -28t-5 -52v-1093q0 -46 12.5 -64.5t48.5 -25.5t122 -7h41v-96zM520 1733q0 -43 -30.5 -73t-73.5 -30
q-40 0 -70.5 31t-30.5 72t31 71.5t72 30.5t71.5 -30.5t30.5 -71.5z" />
    <glyph glyph-name="dotlessi" unicode="&#x131;" horiz-adv-x="645" 
d="M592 0h-531v74h25q68 0 96.5 7.5t37.5 26t9 62.5v571q0 65 -16 84t-72 19h-104v88l385 22v-784q0 -44 9 -62.5t38 -26t98 -7.5h25v-74z" />
    <glyph glyph-name="Jcircumflex" unicode="&#x134;" horiz-adv-x="1138" 
d="M1100 1382h-39q-88 0 -123.5 -6.5t-48 -25t-12.5 -64.5v-737q0 -135 -18.5 -233.5t-53.5 -165.5t-92 -107t-128 -57t-167 -17q-192 0 -300 97.5t-108 250.5q0 109 58 179.5t147 70.5q68 0 111 -41.5t43 -105.5q0 -63 -37 -105.5t-92 -42.5q-28 0 -76 11h-6
q-10 0 -17.5 -9.5t-7.5 -23.5q0 -72 74 -128t174 -56q183 0 242 178q26 79 26 323v719q0 46 -12.5 64.5t-47.5 25t-122 6.5h-39v97h672v-97zM1149 1579h-90l-295 186l-297 -186h-88l307 307h156z" />
    <glyph glyph-name="jcircumflex" unicode="&#x135;" horiz-adv-x="606" 
d="M424 145q0 -173 -18.5 -265.5t-65.5 -160.5q-44 -62 -118.5 -97.5t-160.5 -35.5q-103 0 -166 46.5t-63 121.5q0 53 33 88t82 35q43 0 74.5 -29t31.5 -67q0 -17 -14 -49q-10 -25 -10 -33q0 -11 15 -19t36 -8q32 0 65 20.5t48 51.5q22 44 30 110.5t8 192.5v694
q0 66 -15.5 84.5t-72.5 18.5h-118v88l399 22v-809zM647 1079h-74l-245 207l-248 -207h-74l256 340h129z" />
    <glyph glyph-name="Kcommaaccent" unicode="&#x136;" horiz-adv-x="1593" 
d="M1645 0h-701v96h64q75 0 107 11t32 36t-41 86l-356 523l-238 -240v-319q0 -35 4.5 -52t26 -28.5t54 -14t99.5 -2.5h39v-96h-674v96h37q67 0 100 2.5t54 14t26 28.5t5 52v1093q0 35 -5 52t-26 28t-54 13.5t-100 2.5h-37v97h674v-97h-39q-88 0 -123.5 -6.5t-48 -25
t-12.5 -64.5v-616l502 504q45 45 72.5 85t27.5 62q0 32 -31.5 46.5t-101.5 14.5h-51v97h631v-97q-92 0 -183 -42.5t-164 -120.5l-305 -306l496 -714q45 -67 79.5 -85t121.5 -18h39v-96zM981 -258q0 -118 -78 -223q-55 -72 -166 -137l-41 51q187 117 187 252q0 16 -13 16h-6
q-8 -2 -24 -2q-62 0 -96.5 28.5t-34.5 79.5q0 48 34 79.5t86 31.5q66 0 109 -49t43 -127z" />
    <glyph glyph-name="kcommaaccent" unicode="&#x137;" horiz-adv-x="1214" 
d="M1202 0h-540v74h38q51 0 71 7.5t20 27.5q0 10 -15 36l-244 342l-124 -118v-199q0 -36 2 -50.5t16 -27.5t39.5 -15.5t77.5 -2.5h28v-74h-518v74h29q51 0 76.5 2.5t39 15.5t15.5 27.5t2 50.5v1126q0 66 -15.5 84.5t-72.5 18.5h-98v88l379 22v-1013l276 266q47 47 47 80
q0 39 -96 39h-64v73h539v-73q-104 -12 -180.5 -51.5t-165.5 -127.5l-92 -90l291 -397q63 -80 108 -107t131 -34v-74zM758 -258q0 -118 -78 -223q-55 -72 -166 -137l-41 51q186 117 186 252q0 16 -12 16h-6q-8 -2 -25 -2q-62 0 -96.5 28.5t-34.5 79.5q0 47 34.5 79t86.5 32
q66 0 109 -49t43 -127z" />
    <glyph glyph-name="Lacute" unicode="&#x139;" horiz-adv-x="1366" 
d="M1323 561l-43 -561h-1208v96h37q67 0 99.5 2.5t54 14t26 28.5t4.5 52v1093q0 46 -12.5 64.5t-48 25t-123.5 6.5h-37v97h671v-97h-36q-67 0 -100 -2.5t-54 -13.5t-26 -28t-5 -52v-1091q0 -61 32.5 -80t115.5 -19h86q102 0 176.5 18.5t125.5 53t85.5 93.5t54.5 129t35 171
h90zM752 1827q0 -42 -62 -72l-391 -180h-100l344 258q45 34 70 45.5t53 11.5q35 0 60.5 -18.5t25.5 -44.5z" />
    <glyph glyph-name="lacute" unicode="&#x13a;" horiz-adv-x="645" 
d="M588 0h-531v74h35q51 0 76.5 2.5t39 15.5t15.5 27.5t2 50.5v1126q0 66 -15.5 84.5t-70.5 18.5h-100v88l379 22v-1339q0 -36 2 -50.5t16 -27.5t39.5 -15.5t77.5 -2.5h35v-74zM635 1858q0 -42 -62 -72l-391 -180h-100l344 258q45 34 70 45.5t53 11.5q35 0 60.5 -18.5
t25.5 -44.5z" />
    <glyph glyph-name="Lcommaaccent" unicode="&#x13b;" horiz-adv-x="1366" 
d="M1323 561l-43 -561h-1208v96h37q67 0 99.5 2.5t54 14t26 28.5t4.5 52v1093q0 46 -12.5 64.5t-48 25t-123.5 6.5h-37v97h671v-97h-36q-67 0 -100 -2.5t-54 -13.5t-26 -28t-5 -52v-1091q0 -61 32.5 -80t115.5 -19h86q102 0 176.5 18.5t125.5 53t85.5 93.5t54.5 129t35 171
h90zM823 -258q0 -118 -78 -223q-56 -73 -165 -137l-41 51q186 117 186 252q0 16 -12 16h-6q-8 -2 -25 -2q-62 0 -96.5 28.5t-34.5 79.5q0 47 34.5 79t86.5 32q66 0 108.5 -49t42.5 -127z" />
    <glyph glyph-name="lcommaaccent" unicode="&#x13c;" horiz-adv-x="645" 
d="M588 0h-531v74h35q51 0 76.5 2.5t39 15.5t15.5 27.5t2 50.5v1126q0 66 -15.5 84.5t-70.5 18.5h-100v88l379 22v-1339q0 -36 2 -50.5t16 -27.5t39.5 -15.5t77.5 -2.5h35v-74zM463 -258q0 -118 -78 -223q-55 -72 -166 -137l-41 51q187 117 187 252q0 16 -13 16h-6
q-8 -2 -24 -2q-62 0 -97 28.5t-35 79.5q0 47 34.5 79t86.5 32q66 0 109 -49t43 -127z" />
    <glyph glyph-name="Lcaron" unicode="&#x13d;" horiz-adv-x="1366" 
d="M1323 561l-43 -561h-1208v96h37q67 0 99.5 2.5t54 14t26 28.5t4.5 52v1093q0 46 -12.5 64.5t-48 25t-123.5 6.5h-37v97h671v-97h-36q-67 0 -100 -2.5t-54 -13.5t-26 -28t-5 -52v-1091q0 -61 32.5 -80t115.5 -19h86q102 0 176.5 18.5t125.5 53t85.5 93.5t54.5 129t35 171
h90zM1110 1303q0 -119 -78 -224q-55 -72 -166 -137l-41 51q187 117 187 252q0 17 -13 17h-6q-8 -2 -24 -2q-62 0 -96.5 28.5t-34.5 79.5q0 48 34 79.5t86 31.5q66 0 109 -49t43 -127z" />
    <glyph glyph-name="lcaron" unicode="&#x13e;" horiz-adv-x="645" 
d="M588 0h-531v74h35q51 0 76.5 2.5t39 15.5t15.5 27.5t2 50.5v1126q0 66 -15.5 84.5t-70.5 18.5h-100v88l379 22v-1339q0 -36 2 -50.5t16 -27.5t39.5 -15.5t77.5 -2.5h35v-74zM784 1333q0 -119 -77 -223q-55 -72 -166 -137l-41 51q186 117 186 252q0 16 -12 16h-6
q-8 -2 -25 -2q-61 0 -96 29t-35 80q0 47 34.5 78.5t86.5 31.5q66 0 108.5 -49t42.5 -127z" />
    <glyph glyph-name="Ldot" unicode="&#x13f;" horiz-adv-x="1366" 
d="M1323 561l-43 -561h-1208v96h37q67 0 99.5 2.5t54 14t26 28.5t4.5 52v1093q0 46 -12.5 64.5t-48 25t-123.5 6.5h-37v97h671v-97h-36q-67 0 -100 -2.5t-54 -13.5t-26 -28t-5 -52v-1091q0 -61 32.5 -80t115.5 -19h86q102 0 176.5 18.5t125.5 53t85.5 93.5t54.5 129t35 171
h90zM1194 786q0 -43 -30.5 -72.5t-73.5 -29.5q-40 0 -70.5 30.5t-30.5 71.5t31 72t72 31t71.5 -31t30.5 -72z" />
    <glyph glyph-name="ldot" unicode="&#x140;" horiz-adv-x="645" 
d="M588 0h-531v74h35q51 0 76.5 2.5t39 15.5t15.5 27.5t2 50.5v1126q0 66 -15.5 84.5t-70.5 18.5h-100v88l379 22v-1339q0 -36 2 -50.5t16 -27.5t39.5 -15.5t77.5 -2.5h35v-74zM748 786q0 -42 -31 -72t-74 -30q-40 0 -70 30.5t-30 71.5t30.5 72t71.5 31t72 -31t31 -72z" />
    <glyph glyph-name="Lslash" unicode="&#x141;" horiz-adv-x="1366" 
d="M1321 561l-41 -561h-1210v96h36q67 0 100 2.5t54 14t26 28.5t5 52v356l-221 -154v113l221 156v622q0 35 -5 52t-26 28t-54 13.5t-100 2.5h-36v97h671v-97h-36q-67 0 -100 -2.5t-54 -13.5t-26 -28t-5 -52v-489l383 280v-119l-383 -278v-485q0 -61 32.5 -80t115.5 -19h88
q101 0 175.5 19t125.5 53.5t85.5 93.5t54.5 129t34 170h90z" />
    <glyph glyph-name="lslash" unicode="&#x142;" horiz-adv-x="645" 
d="M588 0h-531v74h15q98 0 125.5 17t27.5 79v537l-159 -162v131l159 162v458q0 66 -15.5 84.5t-70.5 18.5h-100v88l379 22v-510l160 162v-131l-160 -162v-698q0 -62 27.5 -79t127.5 -17h15v-74z" />
    <glyph glyph-name="Nacute" unicode="&#x143;" horiz-adv-x="1669" 
d="M1626 1382q-51 -2 -86 -8.5t-63 -23t-44 -40t-26.5 -63.5t-14 -90t-3.5 -123v-1063h-86l-914 1233v-760q0 -88 6 -144t20.5 -97t43 -62.5t67 -31.5t99.5 -13v-96h-584v96q77 3 121 17.5t71.5 55t36.5 103t9 172.5v871q-28 38 -69 52.5t-120 14.5h-51v97h422l817 -1088
v643q0 88 -6 144t-20.5 97t-43 62.5t-67 31.5t-99.5 13v97h584v-97zM1178 1827q0 -42 -62 -72l-391 -180h-100l344 258q45 34 70 45.5t53 11.5q35 0 60.5 -18.5t25.5 -44.5z" />
    <glyph glyph-name="nacute" unicode="&#x144;" horiz-adv-x="1251" 
d="M1214 0h-518v74h29q52 0 77.5 2.5t39.5 15.5t16 27.5t2 50.5v414q0 142 -45 204q-23 31 -64 51.5t-81 20.5q-66 0 -129 -43t-95 -112q-36 -74 -36 -240v-295q0 -36 2 -50.5t16 -27.5t39.5 -15.5t77.5 -2.5h28v-74h-518v74h29q51 0 76.5 2.5t39 15.5t15.5 27.5t2 50.5v571
q0 66 -15.5 84.5t-72.5 18.5h-74v88l355 22v-166q131 197 323 197q91 0 165 -42t112 -116q28 -52 35.5 -97.5t7.5 -156.5v-403q0 -36 2 -50.5t15.5 -27.5t39 -15.5t76.5 -2.5h28v-74zM932 1352q0 -22 -14 -44.5t-37 -35.5l-326 -199h-84l287 287q38 38 58.5 50.5t43.5 12.5
q29 0 50.5 -21t21.5 -50z" />
    <glyph glyph-name="Ncommaaccent" unicode="&#x145;" horiz-adv-x="1669" 
d="M1626 1382q-51 -2 -86 -8.5t-63 -23t-44 -40t-26.5 -63.5t-14 -90t-3.5 -123v-1063h-86l-914 1233v-760q0 -88 6 -144t20.5 -97t43 -62.5t67 -31.5t99.5 -13v-96h-584v96q77 3 121 17.5t71.5 55t36.5 103t9 172.5v871q-28 38 -69 52.5t-120 14.5h-51v97h422l817 -1088
v643q0 88 -6 144t-20.5 97t-43 62.5t-67 31.5t-99.5 13v97h584v-97zM975 -258q0 -118 -78 -223q-55 -72 -166 -137l-41 51q187 117 187 252q0 16 -13 16h-6q-8 -2 -24 -2q-62 0 -97 28.5t-35 79.5q0 47 34.5 79t86.5 32q66 0 109 -49t43 -127z" />
    <glyph glyph-name="ncommaaccent" unicode="&#x146;" horiz-adv-x="1251" 
d="M1214 0h-518v74h29q52 0 77.5 2.5t39.5 15.5t16 27.5t2 50.5v414q0 142 -45 204q-23 31 -64 51.5t-81 20.5q-66 0 -129 -43t-95 -112q-36 -74 -36 -240v-295q0 -36 2 -50.5t16 -27.5t39.5 -15.5t77.5 -2.5h28v-74h-518v74h29q51 0 76.5 2.5t39 15.5t15.5 27.5t2 50.5v571
q0 66 -15.5 84.5t-72.5 18.5h-74v88l355 22v-166q131 197 323 197q91 0 165 -42t112 -116q28 -52 35.5 -97.5t7.5 -156.5v-403q0 -36 2 -50.5t15.5 -27.5t39 -15.5t76.5 -2.5h28v-74zM766 -258q0 -118 -78 -223q-55 -72 -166 -137l-41 51q187 117 187 252q0 16 -13 16h-6
q-8 -2 -24 -2q-62 0 -96.5 28.5t-34.5 79.5q0 48 34 79.5t86 31.5q66 0 109 -49t43 -127z" />
    <glyph glyph-name="Ncaron" unicode="&#x147;" horiz-adv-x="1669" 
d="M1626 1382q-51 -2 -86 -8.5t-63 -23t-44 -40t-26.5 -63.5t-14 -90t-3.5 -123v-1063h-86l-914 1233v-760q0 -88 6 -144t20.5 -97t43 -62.5t67 -31.5t99.5 -13v-96h-584v96q77 3 121 17.5t71.5 55t36.5 103t9 172.5v871q-28 38 -69 52.5t-120 14.5h-51v97h422l817 -1088
v643q0 88 -6 144t-20.5 97t-43 62.5t-67 31.5t-99.5 13v97h584v-97zM1221 1886l-308 -307h-155l-307 307h90l295 -186l297 186h88z" />
    <glyph glyph-name="ncaron" unicode="&#x148;" horiz-adv-x="1251" 
d="M1214 0h-518v74h29q52 0 77.5 2.5t39.5 15.5t16 27.5t2 50.5v414q0 142 -45 204q-23 31 -64 51.5t-81 20.5q-66 0 -129 -43t-95 -112q-36 -74 -36 -240v-295q0 -36 2 -50.5t16 -27.5t39.5 -15.5t77.5 -2.5h28v-74h-518v74h29q51 0 76.5 2.5t39 15.5t15.5 27.5t2 50.5v571
q0 66 -15.5 84.5t-72.5 18.5h-74v88l355 22v-166q131 197 323 197q91 0 165 -42t112 -116q28 -52 35.5 -97.5t7.5 -156.5v-403q0 -36 2 -50.5t15.5 -27.5t39 -15.5t76.5 -2.5h28v-74zM946 1419l-256 -340h-129l-256 340h74l246 -207l247 207h74z" />
    <glyph glyph-name="Eng" unicode="&#x14a;" horiz-adv-x="1669" 
d="M1626 1382q-51 -2 -86 -8.5t-63 -23t-44 -40t-26.5 -63.5t-14 -90t-3.5 -123v-1063q0 -125 -24.5 -239t-73 -207.5t-129 -149t-183.5 -55.5t-166 46.5t-63 121.5q0 53 32.5 88t81.5 35q43 0 75 -29t32 -67q0 -15 -15 -50q-10 -25 -10 -32q0 -11 15 -19t36 -8
q59 0 105.5 24t76 69t50 99.5t31 126t14.5 137t4 144.5l-889 1198v-760q0 -88 6 -144t20.5 -97t43 -62.5t67 -31.5t99.5 -13v-96h-584v96q77 3 121 17.5t71.5 55t36.5 103t9 172.5v871q-28 38 -69 52.5t-120 14.5h-51v97h422l817 -1088v643q0 88 -6 144t-20.5 97t-43 62.5
t-67 31.5t-99.5 13v97h584v-97z" />
    <glyph glyph-name="eng" unicode="&#x14b;" horiz-adv-x="1251" 
d="M1053 170q0 -93 -5 -176t-18.5 -170.5t-34.5 -160t-54.5 -137.5t-77.5 -109.5t-104.5 -70.5t-133.5 -26q-103 0 -166.5 46.5t-63.5 121.5q0 53 33 88t82 35q43 0 74.5 -29t31.5 -67q0 -18 -14 -50q-10 -25 -10 -32q0 -11 15 -19t36 -8q40 0 71.5 17t54 55.5t38.5 77
t26 105.5t15.5 115t8 131.5t3 129.5t0.5 133v414q0 142 -45 204q-23 31 -64 51.5t-81 20.5q-66 0 -129 -43t-95 -112q-36 -74 -36 -240v-295q0 -36 2 -50.5t16 -27.5t39.5 -15.5t77.5 -2.5h28v-74h-518v74h29q51 0 76.5 2.5t39 15.5t15.5 27.5t2 50.5v571q0 66 -15.5 84.5
t-72.5 18.5h-74v88l355 22v-166q131 197 323 197q91 0 165 -42t112 -116q28 -52 35.5 -97.5t7.5 -156.5v-403z" />
    <glyph glyph-name="Omacron" unicode="&#x14c;" horiz-adv-x="1593" 
d="M1501 739q0 -162 -54 -305t-147 -245t-224 -161t-279 -59q-197 0 -358.5 100.5t-254 276.5t-92.5 391q0 156 52 297t144 246t226.5 167t290.5 62q194 0 353.5 -101.5t251 -278t91.5 -390.5zM1231 739q0 674 -428 674q-221 0 -331 -163.5t-110 -506.5q0 -348 109 -512.5
t326 -164.5q216 0 325 164t109 509zM1118 1677h-641v111h641v-111z" />
    <glyph glyph-name="omacron" unicode="&#x14d;" horiz-adv-x="1024" 
d="M954 477q0 -139 -59 -256t-160.5 -184.5t-222.5 -67.5q-184 0 -313 147.5t-129 358.5q0 141 59 258.5t161.5 184.5t225.5 67q119 0 220 -68t159.5 -185t58.5 -255zM739 477q0 202 -58 311t-165 109q-231 0 -231 -422q0 -203 58.5 -310.5t168.5 -107.5t168.5 108t58.5 312
zM836 1194h-641v111h641v-111z" />
    <glyph glyph-name="Obreve" unicode="&#x14e;" horiz-adv-x="1593" 
d="M1501 739q0 -162 -54 -305t-147 -245t-224 -161t-279 -59q-197 0 -358.5 100.5t-254 276.5t-92.5 391q0 156 52 297t144 246t226.5 167t290.5 62q194 0 353.5 -101.5t251 -278t91.5 -390.5zM1231 739q0 674 -428 674q-221 0 -331 -163.5t-110 -506.5q0 -348 109 -512.5
t326 -164.5q216 0 325 164t109 509zM1145 1878q0 -130 -99 -210.5t-251 -80.5q-151 0 -248.5 80.5t-97.5 210.5h88q9 -84 77 -130t183 -46t182 46t76 130h90z" />
    <glyph glyph-name="obreve" unicode="&#x14f;" horiz-adv-x="1024" 
d="M954 477q0 -139 -59 -256t-160.5 -184.5t-222.5 -67.5q-184 0 -313 147.5t-129 358.5q0 141 59 258.5t161.5 184.5t225.5 67q119 0 220 -68t159.5 -185t58.5 -255zM739 477q0 202 -58 311t-165 109q-231 0 -231 -422q0 -203 58.5 -310.5t168.5 -107.5t168.5 108t58.5 312
zM805 1382q0 -125 -83.5 -208.5t-207.5 -83.5t-206.5 84t-82.5 210v27h74q8 -93 64.5 -143.5t152.5 -50.5q95 0 151 51t64 143h74v-29z" />
    <glyph glyph-name="Ohungarumlaut" unicode="&#x150;" horiz-adv-x="1593" 
d="M1501 739q0 -162 -54 -305t-147 -245t-224 -161t-279 -59q-197 0 -358.5 100.5t-254 276.5t-92.5 391q0 156 52 297t144 246t226.5 167t290.5 62q194 0 353.5 -101.5t251 -278t91.5 -390.5zM1231 739q0 674 -428 674q-221 0 -331 -163.5t-110 -506.5q0 -348 109 -512.5
t326 -164.5q216 0 325 164t109 509zM885 1886q0 -40 -37 -82l-166 -200l-33 18l72 201q23 65 48 93t60 28q23 0 39.5 -17.5t16.5 -40.5zM1126 1886q0 -38 -36 -82l-166 -200l-33 18l72 201q23 65 48 93t60 28q23 0 39 -17t16 -41z" />
    <glyph glyph-name="ohungarumlaut" unicode="&#x151;" horiz-adv-x="1024" 
d="M954 477q0 -139 -59 -256t-160.5 -184.5t-222.5 -67.5q-184 0 -313 147.5t-129 358.5q0 141 59 258.5t161.5 184.5t225.5 67q119 0 220 -68t159.5 -185t58.5 -255zM739 477q0 202 -58 311t-165 109q-231 0 -231 -422q0 -203 58.5 -310.5t168.5 -107.5t168.5 108t58.5 312
zM604 1362q0 -40 -37 -82l-166 -201l-32 19l71 200q23 65 48.5 93t60.5 28q23 0 39 -17t16 -40zM846 1362q0 -37 -37 -82l-166 -201l-33 19l72 200q23 65 48.5 93t60.5 28q23 0 39 -17t16 -40z" />
    <glyph glyph-name="OE" unicode="&#x152;" horiz-adv-x="2048" 
d="M2009 547l-41 -547h-1204q-166 0 -284.5 43.5t-213.5 140.5q-107 110 -167 259.5t-60 306.5q0 122 30.5 231.5t92.5 200.5t150 157t207.5 103t260.5 37h1168l28 -525h-90q-16 93 -33 156.5t-44.5 113.5t-60 78.5t-84 47.5t-112.5 25.5t-149 6.5h-53q-83 0 -106 -18
t-23 -84v-467h47q143 0 200.5 63.5t65.5 217.5h96v-672h-96q-2 49 -4 78t-8.5 64.5t-18 55.5t-31 41t-48 31.5t-69.5 17.5t-95 7h-39v-522q0 -61 32 -80t115 -19h76q117 0 193 20.5t131.5 74t89.5 137t61 219.5h90zM991 485v557q0 115 -9.5 161t-43.5 87q-73 92 -227 92
q-211 0 -306.5 -167t-95.5 -478q0 -641 404 -641q79 0 142.5 30t94.5 83q24 42 32.5 99t8.5 177z" />
    <glyph glyph-name="oe" unicode="&#x153;" horiz-adv-x="1705" 
d="M1638 260q-125 -291 -421 -291q-111 0 -206 41.5t-155 116.5q-131 -158 -348 -158q-192 0 -315 141.5t-123 364.5q0 140 59.5 257.5t162.5 185t226 67.5q101 0 193 -47.5t149 -130.5q138 178 352 178q189 0 307.5 -146t118.5 -378h-671q0 -196 78.5 -288.5t209.5 -92.5
q103 0 176 51t136 168zM750 489q0 196 -60 302t-170 106q-235 0 -235 -428q0 -199 59.5 -305.5t171.5 -106.5q234 0 234 432zM1417 625q0 123 -57.5 197.5t-151.5 74.5q-100 0 -166.5 -92t-72.5 -256h362q51 0 68.5 16t17.5 60z" />
    <glyph glyph-name="Racute" unicode="&#x154;" horiz-adv-x="1478" 
d="M1460 328q-4 -184 -66 -271.5t-188 -87.5q-121 0 -183 76.5t-79 249.5l-10 104q-18 176 -93 247t-218 71h-119v-524q0 -35 4.5 -52t26 -28.5t54 -14t99.5 -2.5h37v-96h-672v96h37q67 0 99.5 2.5t54 14t26 28.5t4.5 52v1093q0 46 -12.5 64.5t-48 25t-123.5 6.5h-37v97h709
q258 0 399.5 -96t141.5 -271q0 -155 -108 -245.5t-329 -121.5q121 -31 185.5 -102t99.5 -213l33 -129q27 -109 46 -142.5t56 -33.5q41 0 61.5 48t26.5 155h86zM1051 1110q0 140 -71.5 206t-223.5 66h-111q-69 0 -96 -4.5t-36 -17t-9 -45.5v-502h225q160 0 241 69.5t81 227.5
zM1083 1827q0 -42 -61 -72l-391 -180h-101l344 258q45 34 70 45.5t53 11.5q35 0 60.5 -18.5t25.5 -44.5z" />
    <glyph glyph-name="racute" unicode="&#x155;" horiz-adv-x="909" 
d="M891 821q0 -63 -34.5 -101t-90.5 -38q-50 0 -81.5 32t-31.5 81q0 29 7.5 48t29.5 44q-131 -15 -205 -189q-79 -181 -79 -426v-102q0 -62 27.5 -79t125.5 -17h39v-74h-547v74h29q52 0 77.5 2.5t39.5 15.5t16 27.5t2 50.5v571q0 66 -15.5 84.5t-72.5 18.5h-84v88l363 22
v-254q50 135 130 210t177 75q81 0 129.5 -45t48.5 -119zM711 1352q0 -22 -14.5 -44.5t-37.5 -35.5l-325 -199h-84l287 287q38 38 58.5 50.5t43.5 12.5q29 0 50.5 -21t21.5 -50z" />
    <glyph glyph-name="Rcommaaccent" unicode="&#x156;" horiz-adv-x="1478" 
d="M1460 328q-4 -184 -66 -271.5t-188 -87.5q-121 0 -183 76.5t-79 249.5l-10 104q-18 176 -93 247t-218 71h-119v-524q0 -35 4.5 -52t26 -28.5t54 -14t99.5 -2.5h37v-96h-672v96h37q67 0 99.5 2.5t54 14t26 28.5t4.5 52v1093q0 46 -12.5 64.5t-48 25t-123.5 6.5h-37v97h709
q258 0 399.5 -96t141.5 -271q0 -155 -108 -245.5t-329 -121.5q121 -31 185.5 -102t99.5 -213l33 -129q27 -109 46 -142.5t56 -33.5q41 0 61.5 48t26.5 155h86zM1051 1110q0 140 -71.5 206t-223.5 66h-111q-69 0 -96 -4.5t-36 -17t-9 -45.5v-502h225q160 0 241 69.5t81 227.5
zM881 -258q0 -118 -78 -223q-55 -72 -166 -137l-41 51q186 117 186 252q0 16 -12 16h-6q-8 -2 -25 -2q-62 0 -96.5 28.5t-34.5 79.5q0 47 34.5 79t86.5 32q66 0 109 -49t43 -127z" />
    <glyph glyph-name="rcommaaccent" unicode="&#x157;" horiz-adv-x="909" 
d="M891 821q0 -63 -34.5 -101t-90.5 -38q-50 0 -81.5 32t-31.5 81q0 29 7.5 48t29.5 44q-131 -15 -205 -189q-79 -181 -79 -426v-102q0 -62 27.5 -79t125.5 -17h39v-74h-547v74h29q52 0 77.5 2.5t39.5 15.5t16 27.5t2 50.5v571q0 66 -15.5 84.5t-72.5 18.5h-84v88l363 22
v-254q50 135 130 210t177 75q81 0 129.5 -45t48.5 -119zM465 -258q0 -118 -78 -223q-55 -72 -166 -137l-41 51q187 117 187 252q0 16 -13 16h-6q-8 -2 -24 -2q-62 0 -96.5 28.5t-34.5 79.5q0 48 34 79.5t86 31.5q66 0 109 -49t43 -127z" />
    <glyph glyph-name="Rcaron" unicode="&#x158;" horiz-adv-x="1478" 
d="M1460 328q-4 -184 -66 -271.5t-188 -87.5q-121 0 -183 76.5t-79 249.5l-10 104q-18 176 -93 247t-218 71h-119v-524q0 -35 4.5 -52t26 -28.5t54 -14t99.5 -2.5h37v-96h-672v96h37q67 0 99.5 2.5t54 14t26 28.5t4.5 52v1093q0 46 -12.5 64.5t-48 25t-123.5 6.5h-37v97h709
q258 0 399.5 -96t141.5 -271q0 -155 -108 -245.5t-329 -121.5q121 -31 185.5 -102t99.5 -213l33 -129q27 -109 46 -142.5t56 -33.5q41 0 61.5 48t26.5 155h86zM1051 1110q0 140 -71.5 206t-223.5 66h-111q-69 0 -96 -4.5t-36 -17t-9 -45.5v-502h225q160 0 241 69.5t81 227.5
zM1126 1886l-307 -307h-155l-308 307h90l295 -186l297 186h88z" />
    <glyph glyph-name="rcaron" unicode="&#x159;" horiz-adv-x="909" 
d="M891 821q0 -63 -34.5 -101t-90.5 -38q-50 0 -81.5 32t-31.5 81q0 29 7.5 48t29.5 44q-131 -15 -205 -189q-79 -181 -79 -426v-102q0 -62 27.5 -79t125.5 -17h39v-74h-547v74h29q52 0 77.5 2.5t39.5 15.5t16 27.5t2 50.5v571q0 66 -15.5 84.5t-72.5 18.5h-84v88l363 22
v-254q50 135 130 210t177 75q81 0 129.5 -45t48.5 -119zM725 1419l-256 -340h-129l-256 340h74l245 -207l248 207h74z" />
    <glyph glyph-name="Sacute" unicode="&#x15a;" horiz-adv-x="1290" 
d="M1208 420q0 -206 -134 -328.5t-359 -122.5q-134 0 -230.5 34.5t-199.5 119.5l-92 -139h-80l-9 583h89q23 -120 59 -199.5t100 -150.5q72 -80 157.5 -117t199.5 -37q84 0 140 18.5t107 63.5q93 84 93 205q0 122 -95 195q-32 24 -62 35t-147 41l-194 49q-226 59 -319 151.5
t-93 259.5q0 192 124 310t325 118q226 0 373 -141l81 123h76l25 -533h-88q-41 158 -123 275q-125 178 -342 178q-130 0 -210.5 -67t-80.5 -175q0 -93 65.5 -154.5t202.5 -96.5l219 -56q122 -31 190 -60t109 -69q123 -120 123 -313zM989 1827q0 -42 -61 -72l-391 -180h-101
l344 258q45 34 70 45.5t53 11.5q35 0 60.5 -18.5t25.5 -44.5z" />
    <glyph glyph-name="sacute" unicode="&#x15b;" horiz-adv-x="948" 
d="M862 285q0 -143 -91.5 -229.5t-242.5 -86.5q-155 0 -280 101l-72 -84h-72v387h82q37 -153 126 -234.5t218 -81.5q91 0 148 46t57 118q0 61 -48.5 97t-170.5 65l-108 25q-93 22 -138 41t-80 51q-71 65 -71 188q0 134 82 215.5t217 81.5q144 0 250 -82l59 74h72v-344h-72
q-25 71 -46 109t-54 71q-85 82 -199 82q-84 0 -137 -39.5t-53 -101.5q0 -34 19 -64t52 -45q28 -15 46.5 -20.5t103.5 -24.5l102 -22q94 -20 136 -37t79 -49q86 -71 86 -207zM780 1352q0 -22 -14 -44.5t-37 -35.5l-326 -199h-84l287 287q38 38 58.5 50.5t44.5 12.5
q29 0 50 -21t21 -50z" />
    <glyph glyph-name="Scircumflex" unicode="&#x15c;" horiz-adv-x="1290" 
d="M1208 420q0 -206 -134 -328.5t-359 -122.5q-134 0 -230.5 34.5t-199.5 119.5l-92 -139h-80l-9 583h89q23 -120 59 -199.5t100 -150.5q72 -80 157.5 -117t199.5 -37q84 0 140 18.5t107 63.5q93 84 93 205q0 122 -95 195q-32 24 -62 35t-147 41l-194 49q-226 59 -319 151.5
t-93 259.5q0 192 124 310t325 118q226 0 373 -141l81 123h76l25 -533h-88q-41 158 -123 275q-125 178 -342 178q-130 0 -210.5 -67t-80.5 -175q0 -93 65.5 -154.5t202.5 -96.5l219 -56q122 -31 190 -60t109 -69q123 -120 123 -313zM1030 1579h-90l-295 186l-297 -186h-88
l307 307h156z" />
    <glyph glyph-name="scircumflex" unicode="&#x15d;" horiz-adv-x="948" 
d="M862 285q0 -143 -91.5 -229.5t-242.5 -86.5q-155 0 -280 101l-72 -84h-72v387h82q37 -153 126 -234.5t218 -81.5q91 0 148 46t57 118q0 61 -48.5 97t-170.5 65l-108 25q-93 22 -138 41t-80 51q-71 65 -71 188q0 134 82 215.5t217 81.5q144 0 250 -82l59 74h72v-344h-72
q-25 71 -46 109t-54 71q-85 82 -199 82q-84 0 -137 -39.5t-53 -101.5q0 -34 19 -64t52 -45q28 -15 46.5 -20.5t103.5 -24.5l102 -22q94 -20 136 -37t79 -49q86 -71 86 -207zM795 1079h-74l-246 207l-248 -207h-73l256 340h129z" />
    <glyph glyph-name="Scedilla" unicode="&#x15e;" horiz-adv-x="1290" 
d="M1208 420q0 -204 -133 -327.5t-354 -123.5q-30 0 -53 2l-37 -100q44 6 59 6q75 0 121.5 -38.5t46.5 -100.5q0 -78 -69 -128t-179 -50q-94 0 -178 34l29 68q73 -24 125 -24q54 0 85 22t31 59q0 35 -26.5 57.5t-69.5 22.5q-27 0 -69 -10l-19 10l80 178q-98 15 -165.5 46.5
t-147.5 99.5l-92 -139h-80l-9 583h89q23 -120 59 -199.5t100 -150.5q72 -80 157.5 -117t199.5 -37q84 0 140 18.5t107 63.5q93 84 93 205q0 122 -95 195q-32 24 -62 35t-147 41l-194 49q-226 59 -319 151.5t-93 259.5q0 192 124 310t325 118q226 0 373 -141l81 123h76
l25 -533h-88q-41 158 -123 275q-125 178 -342 178q-130 0 -210.5 -67t-80.5 -175q0 -93 65.5 -154.5t202.5 -96.5l219 -56q122 -31 190 -60t109 -69q123 -120 123 -313z" />
    <glyph glyph-name="scedilla" unicode="&#x15f;" horiz-adv-x="948" 
d="M862 285q0 -141 -91.5 -228.5t-240.5 -87.5h-32l-37 -98q41 6 57 6q75 0 121.5 -38.5t46.5 -100.5q0 -78 -68.5 -128t-177.5 -50q-96 0 -180 34l31 68q71 -24 125 -24q52 0 83 22t31 59q0 35 -26.5 57.5t-69.5 22.5q-27 0 -69 -10l-17 10l80 183q-107 25 -180 88l-72 -84
h-72v387h82q37 -153 126 -234.5t218 -81.5q91 0 148 46t57 118q0 61 -48.5 97t-170.5 65l-108 25q-93 22 -138 41t-80 51q-71 65 -71 188q0 134 82 215.5t217 81.5q144 0 250 -82l59 74h72v-344h-72q-25 71 -46 109t-54 71q-85 82 -199 82q-84 0 -137 -39.5t-53 -101.5
q0 -34 19 -64t52 -45q28 -15 46.5 -20.5t103.5 -24.5l102 -22q94 -20 136 -37t79 -49q86 -71 86 -207z" />
    <glyph glyph-name="Scaron" unicode="&#x160;" horiz-adv-x="1290" 
d="M1208 420q0 -206 -134 -328.5t-359 -122.5q-134 0 -230.5 34.5t-199.5 119.5l-92 -139h-80l-9 583h89q23 -120 59 -199.5t100 -150.5q72 -80 157.5 -117t199.5 -37q84 0 140 18.5t107 63.5q93 84 93 205q0 122 -95 195q-32 24 -62 35t-147 41l-194 49q-226 59 -319 151.5
t-93 259.5q0 192 124 310t325 118q226 0 373 -141l81 123h76l25 -533h-88q-41 158 -123 275q-125 178 -342 178q-130 0 -210.5 -67t-80.5 -175q0 -93 65.5 -154.5t202.5 -96.5l219 -56q122 -31 190 -60t109 -69q123 -120 123 -313zM1032 1886l-307 -307h-156l-307 307h90
l295 -186l297 186h88z" />
    <glyph glyph-name="scaron" unicode="&#x161;" horiz-adv-x="948" 
d="M862 285q0 -143 -91.5 -229.5t-242.5 -86.5q-155 0 -280 101l-72 -84h-72v387h82q37 -153 126 -234.5t218 -81.5q91 0 148 46t57 118q0 61 -48.5 97t-170.5 65l-108 25q-93 22 -138 41t-80 51q-71 65 -71 188q0 134 82 215.5t217 81.5q144 0 250 -82l59 74h72v-344h-72
q-25 71 -46 109t-54 71q-85 82 -199 82q-84 0 -137 -39.5t-53 -101.5q0 -34 19 -64t52 -45q28 -15 46.5 -20.5t103.5 -24.5l102 -22q94 -20 136 -37t79 -49q86 -71 86 -207zM795 1419l-256 -340h-129l-256 340h73l246 -207l248 207h74z" />
    <glyph glyph-name="Tcedilla" unicode="&#x162;" horiz-adv-x="1366" 
d="M1327 909h-88q-24 172 -68 281q-38 92 -110 142t-166 50q-51 0 -73.5 -17.5t-22.5 -55.5v-1116q0 -35 4.5 -52t25.5 -28.5t53.5 -14t98.5 -2.5h53v-96h-321l-45 -129q44 6 59 6q75 0 121.5 -38.5t46.5 -100.5q0 -78 -68.5 -128t-177.5 -50q-96 0 -180 34l29 68
q74 -24 125 -24q54 0 85 22t31 59q0 35 -26.5 57.5t-69.5 22.5q-28 0 -70 -10l-18 10l86 201h-309v96h53q67 0 99.5 2.5t54 14t26 28.5t4.5 52v1116q0 38 -22.5 55.5t-73.5 17.5q-211 0 -291 -227q-35 -101 -55 -246h-88l31 570h1226z" />
    <glyph glyph-name="tcedilla" unicode="&#x163;" horiz-adv-x="796" 
d="M766 326q0 -150 -75 -250.5t-214 -106.5l-35 -98q43 6 60 6q75 0 121.5 -38.5t46.5 -100.5q0 -78 -68.5 -128t-177.5 -50q-96 0 -180 34l28 68q74 -24 125 -24q54 0 85.5 22t31.5 59q0 35 -26.5 57.5t-69.5 22.5q-28 0 -70 -10l-18 10l73 174q-131 21 -174 129
q-15 35 -19.5 83t-4.5 159v522h-168v80q246 18 276 414h84v-406h301v-88h-301v-559q0 -122 25.5 -167.5t95.5 -45.5q151 0 160 279h86q2 -20 2 -47z" />
    <glyph glyph-name="Tcaron" unicode="&#x164;" horiz-adv-x="1366" 
d="M1327 909h-88q-24 172 -68 281q-38 92 -110 142t-166 50q-51 0 -73.5 -17.5t-22.5 -55.5v-1116q0 -35 4.5 -52t25.5 -28.5t53.5 -14t98.5 -2.5h53v-96h-702v96h53q67 0 99.5 2.5t54 14t26 28.5t4.5 52v1116q0 38 -22.5 55.5t-73.5 17.5q-211 0 -291 -227
q-35 -101 -55 -246h-88l31 570h1226zM1069 1886l-307 -307h-156l-307 307h90l295 -186l297 186h88z" />
    <glyph glyph-name="tcaron" unicode="&#x165;" horiz-adv-x="796" 
d="M766 326q0 -100 -32.5 -179t-102.5 -128.5t-168 -49.5q-180 0 -234 133q-15 35 -19.5 83t-4.5 159v522h-168v80q246 18 276 414h84v-406h301v-88h-301v-559q0 -122 25.5 -167.5t95.5 -45.5q151 0 160 279h86q2 -20 2 -47zM723 1356q0 -118 -78 -223q-57 -74 -166 -138
l-41 52q187 117 187 251q0 17 -13 17h-6q-8 -2 -24 -2q-62 0 -96.5 28.5t-34.5 79.5q0 48 34 79.5t86 31.5q66 0 109 -49t43 -127z" />
    <glyph glyph-name="Utilde" unicode="&#x168;" horiz-adv-x="1669" 
d="M1636 1382q-51 -2 -86 -8.5t-63 -23t-44 -40t-26.5 -63.5t-14 -90t-3.5 -123v-465q0 -315 -147 -457.5t-433 -142.5q-128 0 -230.5 26t-178.5 78.5t-117 138.5t-41 200v874q0 46 -12.5 64.5t-47.5 25t-122 6.5h-35v97h670v-97h-39q-67 0 -100 -2.5t-54 -13.5t-26 -28
t-5 -52v-745q0 -114 19 -196t63.5 -143.5t121.5 -91.5t189 -30q116 0 198 36.5t128.5 105.5t67 157t20.5 203v452q0 88 -6 144t-20 97t-42.5 62.5t-67 31.5t-99.5 13v97h583v-97zM1174 1841q-10 -97 -72 -157t-150 -60q-40 0 -72 10t-110 47q-63 29 -106 29q-35 0 -61 -22.5
t-36 -63.5h-71q20 96 74.5 151.5t129.5 55.5q36 0 65 -9t112 -46q88 -39 120 -39q35 0 65.5 30t39.5 74h72z" />
    <glyph glyph-name="utilde" unicode="&#x169;" horiz-adv-x="1251" 
d="M1217 0l-373 -14v170q-68 -98 -143.5 -142.5t-176.5 -44.5q-92 0 -163.5 34t-112.5 97q-23 35 -31 77.5t-8 121.5v442q0 66 -15.5 84.5t-72.5 18.5h-78v88l358 22v-624q0 -84 5.5 -113.5t25.5 -58.5q42 -64 143 -64q75 0 134.5 38t91.5 106q43 94 43 251v252
q0 66 -15.5 84.5t-72.5 18.5h-105v88l385 22v-716q0 -98 22 -124t107 -26h52v-88zM961 1358q-10 -97 -72 -157t-150 -60q-40 0 -72 10t-110 47q-63 29 -106 29q-35 0 -61 -22.5t-36 -63.5h-71q20 96 74.5 151.5t129.5 55.5q36 0 64.5 -9t112.5 -47q88 -39 120 -39
q35 0 65.5 30.5t39.5 74.5h72z" />
    <glyph glyph-name="Umacron" unicode="&#x16a;" horiz-adv-x="1669" 
d="M1636 1382q-51 -2 -86 -8.5t-63 -23t-44 -40t-26.5 -63.5t-14 -90t-3.5 -123v-465q0 -315 -147 -457.5t-433 -142.5q-128 0 -230.5 26t-178.5 78.5t-117 138.5t-41 200v874q0 46 -12.5 64.5t-47.5 25t-122 6.5h-35v97h670v-97h-39q-67 0 -100 -2.5t-54 -13.5t-26 -28
t-5 -52v-745q0 -114 19 -196t63.5 -143.5t121.5 -91.5t189 -30q116 0 198 36.5t128.5 105.5t67 157t20.5 203v452q0 88 -6 144t-20 97t-42.5 62.5t-67 31.5t-99.5 13v97h583v-97zM1155 1677h-641v111h641v-111z" />
    <glyph glyph-name="umacron" unicode="&#x16b;" horiz-adv-x="1251" 
d="M1217 0l-373 -14v170q-68 -98 -143.5 -142.5t-176.5 -44.5q-92 0 -163.5 34t-112.5 97q-23 35 -31 77.5t-8 121.5v442q0 66 -15.5 84.5t-72.5 18.5h-78v88l358 22v-624q0 -84 5.5 -113.5t25.5 -58.5q42 -64 143 -64q75 0 134.5 38t91.5 106q43 94 43 251v252
q0 66 -15.5 84.5t-72.5 18.5h-105v88l385 22v-716q0 -98 22 -124t107 -26h52v-88zM942 1194h-641v111h641v-111z" />
    <glyph glyph-name="Ubreve" unicode="&#x16c;" horiz-adv-x="1669" 
d="M1636 1382q-51 -2 -86 -8.5t-63 -23t-44 -40t-26.5 -63.5t-14 -90t-3.5 -123v-465q0 -315 -147 -457.5t-433 -142.5q-128 0 -230.5 26t-178.5 78.5t-117 138.5t-41 200v874q0 46 -12.5 64.5t-47.5 25t-122 6.5h-35v97h670v-97h-39q-67 0 -100 -2.5t-54 -13.5t-26 -28
t-5 -52v-745q0 -114 19 -196t63.5 -143.5t121.5 -91.5t189 -30q116 0 198 36.5t128.5 105.5t67 157t20.5 203v452q0 88 -6 144t-20 97t-42.5 62.5t-67 31.5t-99.5 13v97h583v-97zM1184 1878q0 -130 -99 -210.5t-251 -80.5q-151 0 -249 80.5t-98 210.5h88q9 -83 77.5 -129.5
t183.5 -46.5t182 46t76 130h90z" />
    <glyph glyph-name="ubreve" unicode="&#x16d;" horiz-adv-x="1251" 
d="M1217 0l-373 -14v170q-68 -98 -143.5 -142.5t-176.5 -44.5q-92 0 -163.5 34t-112.5 97q-23 35 -31 77.5t-8 121.5v442q0 66 -15.5 84.5t-72.5 18.5h-78v88l358 22v-624q0 -84 5.5 -113.5t25.5 -58.5q42 -64 143 -64q75 0 134.5 38t91.5 106q43 94 43 251v252
q0 66 -15.5 84.5t-72.5 18.5h-105v88l385 22v-716q0 -98 22 -124t107 -26h52v-88zM911 1382q0 -125 -83 -208.5t-207 -83.5t-206.5 84t-82.5 210v27h74q8 -93 64.5 -143.5t152.5 -50.5q95 0 151 51t64 143h73v-29z" />
    <glyph glyph-name="Uring" unicode="&#x16e;" horiz-adv-x="1669" 
d="M1636 1382q-51 -2 -86 -8.5t-63 -23t-44 -40t-26.5 -63.5t-14 -90t-3.5 -123v-465q0 -315 -147 -457.5t-433 -142.5q-128 0 -230.5 26t-178.5 78.5t-117 138.5t-41 200v874q0 46 -12.5 64.5t-47.5 25t-122 6.5h-35v97h670v-97h-39q-67 0 -100 -2.5t-54 -13.5t-26 -28
t-5 -52v-745q0 -114 19 -196t63.5 -143.5t121.5 -91.5t189 -30q116 0 198 36.5t128.5 105.5t67 157t20.5 203v452q0 88 -6 144t-20 97t-42.5 62.5t-67 31.5t-99.5 13v97h583v-97zM1038 1765q0 -86 -60 -145t-147 -59q-82 0 -141 60t-59 144q0 83 60 143t143 60q84 0 144 -60
t60 -143zM965 1765q0 53 -38.5 91t-90.5 38q-54 0 -92.5 -38t-38.5 -91q0 -54 38 -92.5t91 -38.5q56 0 93.5 38t37.5 93z" />
    <glyph glyph-name="uring" unicode="&#x16f;" horiz-adv-x="1251" 
d="M1217 0l-373 -14v170q-68 -98 -143.5 -142.5t-176.5 -44.5q-92 0 -163.5 34t-112.5 97q-23 35 -31 77.5t-8 121.5v442q0 66 -15.5 84.5t-72.5 18.5h-78v88l358 22v-624q0 -84 5.5 -113.5t25.5 -58.5q42 -64 143 -64q75 0 134.5 38t91.5 106q43 94 43 251v252
q0 66 -15.5 84.5t-72.5 18.5h-105v88l385 22v-716q0 -98 22 -124t107 -26h52v-88zM825 1251q0 -86 -60 -145t-147 -59q-82 0 -141 60t-59 144q0 83 60 143t143 60q85 0 144.5 -60t59.5 -143zM752 1251q0 53 -38 91t-91 38q-54 0 -92.5 -38t-38.5 -91q0 -54 38 -92.5
t91 -38.5q55 0 93 38t38 93z" />
    <glyph glyph-name="Uhungarumlaut" unicode="&#x170;" horiz-adv-x="1669" 
d="M1636 1382q-51 -2 -86 -8.5t-63 -23t-44 -40t-26.5 -63.5t-14 -90t-3.5 -123v-465q0 -315 -147 -457.5t-433 -142.5q-128 0 -230.5 26t-178.5 78.5t-117 138.5t-41 200v874q0 46 -12.5 64.5t-47.5 25t-122 6.5h-35v97h670v-97h-39q-67 0 -100 -2.5t-54 -13.5t-26 -28
t-5 -52v-745q0 -114 19 -196t63.5 -143.5t121.5 -91.5t189 -30q116 0 198 36.5t128.5 105.5t67 157t20.5 203v452q0 88 -6 144t-20 97t-42.5 62.5t-67 31.5t-99.5 13v97h583v-97zM924 1886q0 -40 -37 -82l-166 -200l-33 18l72 201q23 65 48 93t60 28q23 0 39.5 -17.5
t16.5 -40.5zM1165 1886q0 -37 -37 -82l-165 -200l-33 18l71 201q23 65 48.5 93t60.5 28q23 0 39 -17t16 -41z" />
    <glyph glyph-name="uhungarumlaut" unicode="&#x171;" horiz-adv-x="1251" 
d="M1217 0l-373 -14v170q-68 -98 -143.5 -142.5t-176.5 -44.5q-92 0 -163.5 34t-112.5 97q-23 35 -31 77.5t-8 121.5v442q0 66 -15.5 84.5t-72.5 18.5h-78v88l358 22v-624q0 -84 5.5 -113.5t25.5 -58.5q42 -64 143 -64q75 0 134.5 38t91.5 106q43 94 43 251v252
q0 66 -15.5 84.5t-72.5 18.5h-105v88l385 22v-716q0 -98 22 -124t107 -26h52v-88zM711 1362q0 -40 -37 -82l-166 -201l-33 19l72 200q23 65 48 93t60 28q23 0 39.5 -17t16.5 -40zM952 1362q0 -37 -37 -82l-165 -201l-33 19l71 200q23 65 48.5 93t60.5 28q23 0 39 -17t16 -40
z" />
    <glyph glyph-name="Uogonek" unicode="&#x172;" horiz-adv-x="1669" 
d="M1636 1382q-51 -2 -86 -8.5t-63 -23t-44 -40t-26.5 -63.5t-14 -90t-3.5 -123v-465q0 -254 -95.5 -394.5t-281.5 -184.5q-126 -29 -160 -115q-22 -58 -22 -123q0 -49 21 -76.5t61 -27.5q47 0 84 13t54 28t32 28t24 13q8 0 14.5 -7.5t6.5 -17.5q0 -72 -61 -130t-183 -58
q-97 0 -165.5 62t-68.5 167q0 53 38.5 112t97.5 111q-254 5 -398.5 114.5t-144.5 328.5v874q0 46 -12.5 64.5t-47.5 25t-122 6.5h-35v97h670v-97h-39q-67 0 -100 -2.5t-54 -13.5t-26 -28t-5 -52v-745q0 -114 19 -196t63.5 -143.5t121.5 -91.5t189 -30q116 0 198 36.5
t128.5 105.5t67 157t20.5 203v452q0 88 -6 144t-20 97t-42.5 62.5t-67 31.5t-99.5 13v97h583v-97z" />
    <glyph glyph-name="uogonek" unicode="&#x173;" horiz-adv-x="1251" 
d="M1217 -295q0 -72 -61 -130t-183 -58q-97 0 -165.5 62t-68.5 167q0 59 45.5 124t110.5 118l-51 -2v170q-68 -98 -143.5 -142.5t-176.5 -44.5q-92 0 -163.5 34t-112.5 97q-23 35 -31 77.5t-8 121.5v442q0 66 -15.5 84.5t-72.5 18.5h-78v88l358 22v-624q0 -84 5.5 -113.5
t25.5 -58.5q42 -64 143 -64q75 0 134.5 38t91.5 106q43 94 43 251v252q0 66 -15.5 84.5t-72.5 18.5h-105v88l385 22v-716q0 -98 22 -124t107 -26h52v-88l-80 -4q-137 -4 -181 -88q-36 -74 -36 -156q0 -49 20.5 -76.5t60.5 -27.5q47 0 84 13t54.5 28t32.5 28t24 13
q8 0 14.5 -7.5t6.5 -17.5z" />
    <glyph glyph-name="Wcircumflex" unicode="&#x174;" horiz-adv-x="2009" 
d="M1999 1382h-29q-82 0 -115.5 -40.5t-70.5 -170.5l-361 -1202h-84l-331 1018l-303 -1018h-89l-442 1334q-19 54 -38.5 66.5t-84.5 12.5h-39v97h578v-97h-92q-50 0 -69 -9t-19 -32q0 -21 10 -51l295 -917l237 786l-53 160q-12 37 -39 50t-90 13h-47v97h592v-97h-33
q-69 0 -102 -7.5t-39 -17t-6 -30.5q0 -11 14 -57l283 -897l245 831q13 37 13 72q0 56 -34.5 81t-121.5 25h-37v97h502v-97zM1391 1579h-91l-294 186l-297 -186h-88l307 307h155z" />
    <glyph glyph-name="wcircumflex" unicode="&#x175;" horiz-adv-x="1593" 
d="M1563 881h-27q-52 0 -78 -30.5t-61 -125.5l-287 -756h-63l-250 647l-244 -647h-72l-307 811q-22 61 -42.5 81t-63.5 20h-37v73h450v-73h-37q-46 0 -65 -10.5t-19 -36.5q0 -14 9 -46l198 -514l181 478l-19 53q-15 45 -36 60.5t-70 15.5h-35v73h459v-73h-50
q-51 0 -68.5 -9.5t-17.5 -37.5q0 -22 9 -43l200 -527l174 467q17 53 17 76q0 39 -23.5 56.5t-77.5 17.5h-34v73h387v-73zM1116 1079h-74l-245 207l-248 -207h-74l256 340h129z" />
    <glyph glyph-name="Ycircumflex" unicode="&#x176;" horiz-adv-x="1441" 
d="M1460 1382h-33q-90 0 -141.5 -43t-124.5 -176l-305 -551v-419q0 -29 3.5 -44.5t12 -27.5t31.5 -16.5t52 -6.5t83 -2h54v-96h-703v96h53q67 0 100 2.5t54 14t26 28.5t5 52v395l-443 700q-35 57 -67.5 75.5t-98.5 18.5h-45v97h658v-97h-121q-80 0 -80 -39q0 -21 23 -57
l344 -555l254 453q34 61 34 106q0 49 -37 70.5t-122 21.5h-47v97h581v-97zM1126 1579h-90l-295 186l-297 -186h-88l308 307h155z" />
    <glyph glyph-name="ycircumflex" unicode="&#x177;" horiz-adv-x="1099" 
d="M1087 881h-24q-57 0 -88.5 -34.5t-71.5 -131.5l-233 -578q-69 -171 -108.5 -251t-86.5 -144q-121 -164 -282 -164q-80 0 -133.5 45.5t-53.5 112.5q0 56 34.5 91.5t88.5 35.5q44 0 74 -26t30 -66q0 -13 -7 -39.5t-7 -32.5q0 -9 9.5 -15t23.5 -6q49 0 113 73t122 192l35 71
l-334 756q-28 62 -57 86.5t-78 24.5h-26v73h487v-73h-43q-52 0 -73 -12t-21 -40q0 -16 12 -43l225 -526l187 463q20 50 20 82q0 40 -26 58t-84 18h-33v73h409v-73zM915 1079h-73l-246 207l-248 -207h-74l256 340h129z" />
    <glyph glyph-name="Ydieresis" unicode="&#x178;" horiz-adv-x="1441" 
d="M1460 1382h-33q-90 0 -141.5 -43t-124.5 -176l-305 -551v-419q0 -29 3.5 -44.5t12 -27.5t31.5 -16.5t52 -6.5t83 -2h54v-96h-703v96h53q67 0 100 2.5t54 14t26 28.5t5 52v395l-443 700q-35 57 -67.5 75.5t-98.5 18.5h-45v97h658v-97h-121q-80 0 -80 -39q0 -21 23 -57
l344 -555l254 453q34 61 34 106q0 49 -37 70.5t-122 21.5h-47v97h581v-97zM641 1733q0 -43 -30.5 -73t-73.5 -30q-40 0 -70.5 31t-30.5 72t31 71.5t72 30.5t71.5 -30.5t30.5 -71.5zM1049 1733q0 -43 -31 -73t-74 -30q-40 0 -70 31t-30 72t30.5 71.5t71.5 30.5t72 -30.5
t31 -71.5z" />
    <glyph glyph-name="Zacute" unicode="&#x179;" horiz-adv-x="1251" 
d="M1178 569l-37 -569h-1092v74l838 1308h-266q-107 0 -172.5 -17t-115 -66t-78 -127t-54.5 -211h-92l41 518h1015v-74l-841 -1309h340q100 0 178 28t116 79q44 56 72.5 140t50.5 226h97zM1001 1827q0 -42 -61 -72l-391 -180h-100l344 258q45 35 69.5 46t52.5 11
q35 0 60.5 -18.5t25.5 -44.5z" />
    <glyph glyph-name="zacute" unicode="&#x17a;" horiz-adv-x="985" 
d="M891 367l-14 -367h-797v74l559 792h-178q-126 0 -186 -60t-74 -198h-82l18 346h740v-73l-560 -793h209q138 0 203 63.5t80 215.5h82zM813 1352q0 -22 -14 -44.5t-37 -35.5l-326 -199h-84l287 287q38 38 58.5 50.5t43.5 12.5q29 0 50.5 -21t21.5 -50z" />
    <glyph glyph-name="Zdotaccent" unicode="&#x17b;" horiz-adv-x="1251" 
d="M1178 569l-37 -569h-1092v74l838 1308h-266q-107 0 -172.5 -17t-115 -66t-78 -127t-54.5 -211h-92l41 518h1015v-74l-841 -1309h340q100 0 178 28t116 79q44 56 72.5 140t50.5 226h97zM762 1733q0 -43 -31 -73t-74 -30q-40 0 -70 31t-30 72t30.5 71.5t71.5 30.5t72 -30.5
t31 -71.5z" />
    <glyph glyph-name="zdotaccent" unicode="&#x17c;" horiz-adv-x="985" 
d="M891 367l-14 -367h-797v74l559 792h-178q-126 0 -186 -60t-74 -198h-82l18 346h740v-73l-560 -793h209q138 0 203 63.5t80 215.5h82zM610 1249q0 -43 -30.5 -72.5t-73.5 -29.5q-40 0 -70 30.5t-30 71.5t30.5 72t71.5 31t71.5 -31t30.5 -72z" />
    <glyph glyph-name="Zcaron" unicode="&#x17d;" horiz-adv-x="1251" 
d="M1178 569l-37 -569h-1092v74l838 1308h-266q-107 0 -172.5 -17t-115 -66t-78 -127t-54.5 -211h-92l41 518h1015v-74l-841 -1309h340q100 0 178 28t116 79q44 56 72.5 140t50.5 226h97zM1044 1886l-307 -307h-155l-308 307h91l294 -186l297 186h88z" />
    <glyph glyph-name="zcaron" unicode="&#x17e;" horiz-adv-x="985" 
d="M891 367l-14 -367h-797v74l559 792h-178q-126 0 -186 -60t-74 -198h-82l18 346h740v-73l-560 -793h209q138 0 203 63.5t80 215.5h82zM827 1419l-256 -340h-129l-256 340h74l246 -207l248 207h73z" />
    <glyph glyph-name="longs" unicode="&#x17f;" 
d="M887 1317q0 -55 -32 -90t-83 -35q-47 0 -80 31t-33 77q0 16 7.5 38t15.5 37.5t8 17.5q0 34 -69 34q-104 0 -156.5 -84t-52.5 -272v-901q0 -62 27.5 -79t127.5 -17h37v-74h-547v74h9q98 0 125.5 17t27.5 79v696h-180v88h180v64q0 252 105 371.5t294 119.5q125 0 197 -51.5
t72 -140.5z" />
    <glyph glyph-name="Ereversed" unicode="&#x18e;" horiz-adv-x="1478" 
d="M1358 0h-1258l-41 547h91q25 -133 56 -214t85.5 -137t133.5 -78t200 -22h135q83 0 115 19t32 80v522h-41q-63 0 -109.5 -8t-78.5 -26t-52.5 -40.5t-32 -58.5t-16 -72.5t-6.5 -89.5h-96v672h96q7 -151 74 -216t213 -65h49v467q0 66 -23 84t-106 18h-106q-89 0 -150.5 -6.5
t-113.5 -25t-85 -47.5t-60 -79t-44.5 -113.5t-32.5 -156.5h-88v525h1260v-97h-37q-88 0 -123.5 -6.5t-48 -25t-12.5 -64.5v-1093q0 -35 4.5 -52t26 -28.5t54 -14t99.5 -2.5h37v-96z" />
    <glyph glyph-name="florin" unicode="&#x192;" horiz-adv-x="1138" 
d="M1108 1341q0 -54 -31 -86t-84 -32q-46 0 -77 25.5t-31 62.5q0 35 30 84l7 14q0 7 -11 12.5t-26 5.5q-155 0 -193 -403l-12 -129h272v-96h-280l-39 -465q-20 -235 -51 -368.5t-84 -213.5q-115 -172 -283 -172q-89 0 -149 47t-60 115q0 56 33 92.5t84 36.5q44 0 75 -28
t31 -68q0 -23 -17 -55l-17 -31q0 -21 28 -21q41 0 83.5 38t64.5 95q27 75 37.5 156t37.5 414l35 428h-237v96h245l13 98q32 255 135 385.5t268 130.5q91 0 147 -46.5t56 -121.5z" />
    <glyph glyph-name="Ohorn" unicode="&#x1a0;" horiz-adv-x="1593" 
d="M1501 739q0 -162 -54 -305t-147 -245t-224 -161t-279 -59q-197 0 -358.5 100.5t-254 276.5t-92.5 391q0 156 52 297t144 246t226.5 167t290.5 62q151 0 287 -65q37 18 30 47q-27 12 -45 46.5t-18 59.5q0 37 30.5 68t71.5 31q50 0 86.5 -40t36.5 -91q0 -46 -30.5 -91.5
t-82.5 -76.5q153 -101 241.5 -274.5t88.5 -383.5zM1231 739q0 674 -428 674q-221 0 -331 -163.5t-110 -506.5q0 -348 109 -512.5t326 -164.5q216 0 325 164t109 509z" />
    <glyph glyph-name="ohorn" unicode="&#x1a1;" horiz-adv-x="1024" 
d="M954 477q0 -139 -59 -256t-160.5 -184.5t-222.5 -67.5q-184 0 -313 147.5t-129 358.5q0 141 59 258.5t161.5 184.5t225.5 67q113 0 213 -65q39 22 33 49q-27 12 -45.5 46.5t-18.5 59.5q0 37 31 68t72 31q50 0 86.5 -40.5t36.5 -91.5q0 -50 -34.5 -97.5t-92.5 -78.5
q74 -72 115.5 -173t41.5 -216zM739 477q0 202 -58 311t-165 109q-231 0 -231 -422q0 -203 58.5 -310.5t168.5 -107.5t168.5 108t58.5 312z" />
    <glyph glyph-name="Uhorn" unicode="&#x1af;" horiz-adv-x="1574" 
d="M1616 1565q0 -72 -64.5 -131t-152.5 -82v-783q0 -315 -147 -457.5t-433 -142.5q-260 0 -407.5 109.5t-159.5 333.5v874q0 46 -12.5 64.5t-47.5 25t-122 6.5h-35v97h670v-97h-39q-67 0 -100 -2.5t-54 -13.5t-26 -28t-5 -52v-745q0 -142 12.5 -200.5t53.5 -115.5
q51 -69 137 -107t190 -38q124 0 219 52.5t146 148.5q29 54 39 115.5t10 185.5v452q0 88 -6 144t-20 97t-42.5 62.5t-67 31.5t-99.5 13v97h346v-49q21 9 40 25.5t15 35.5q-27 12 -45 46.5t-18 59.5q0 37 30.5 68t71.5 31q50 0 86.5 -40t36.5 -91z" />
    <glyph glyph-name="uhorn" unicode="&#x1b0;" horiz-adv-x="1251" 
d="M1253 1040q0 -72 -64.5 -131t-152.5 -82v-589q0 -98 22 -124t107 -26h52v-88h-373v156q-68 -98 -143.5 -142.5t-176.5 -44.5q-151 0 -233 77t-82 253v442q0 66 -15.5 84.5t-72.5 18.5h-78v88l358 22v-624q0 -75 11 -123t35 -72t53 -32.5t75 -8.5q131 0 200 100.5
t69 294.5v252q0 66 -15.5 84.5t-72.5 18.5h-105v110h385v-49q21 9 40.5 26t15.5 36q-27 12 -45.5 46.5t-18.5 59.5q0 37 30.5 67.5t71.5 30.5q50 0 86.5 -40t36.5 -91z" />
    <glyph glyph-name="Acaron" unicode="&#x1cd;" horiz-adv-x="1478" 
d="M1497 0h-635v96h86q57 0 92 14.5t35 39.5q0 14 -16 55l-111 274h-542l-68 -180q-19 -52 -19 -86q0 -117 166 -117h41v-96h-542v96h28q76 0 112.5 38.5t92.5 178.5l471 1194h86l522 -1280q36 -88 61.5 -109.5t100.5 -21.5h39v-96zM905 590l-231 581l-228 -581h459z
M1118 1886l-307 -307h-156l-307 307h90l295 -186l297 186h88z" />
    <glyph glyph-name="acaron" unicode="&#x1ce;" horiz-adv-x="1138" 
d="M1112 104q0 -44 -59.5 -81t-128.5 -37q-72 0 -114 33.5t-67 111.5q-66 -78 -158 -120t-198 -42q-135 0 -216 65.5t-81 174.5q0 151 143 236.5t500 146.5v80q0 128 -55 176.5t-166 48.5q-73 0 -127.5 -24t-54.5 -56q0 -2 22.5 -45t22.5 -65q0 -46 -31.5 -75.5t-79.5 -29.5
q-54 0 -86.5 34.5t-32.5 92.5q0 110 114 183t286 73q94 0 160 -14.5t118 -50t77.5 -100.5t25.5 -161v-411q0 -77 17.5 -109.5t60.5 -32.5q4 0 37.5 11.5t50.5 11.5q8 0 14 -7.5t6 -17.5zM733 410v94q-178 -30 -271.5 -64.5t-129 -80t-35.5 -121.5q0 -69 46.5 -114.5
t115.5 -45.5q66 0 130.5 35t102.5 92q26 40 33.5 76.5t7.5 128.5zM864 1419l-256 -340h-129l-256 340h74l246 -207l248 207h73z" />
    <glyph glyph-name="Icaron" unicode="&#x1cf;" horiz-adv-x="833" 
d="M756 0h-678v96h41q67 0 99.5 2.5t54 14t26 28.5t4.5 52v1093q0 46 -12.5 64.5t-48 25t-123.5 6.5h-41v97h678v-97h-41q-66 0 -98.5 -2.5t-53.5 -13.5t-26 -28t-5 -52v-1093q0 -46 12.5 -64.5t48.5 -25.5t122 -7h41v-96zM803 1886l-307 -307h-156l-307 307h90l295 -186
l297 186h88z" />
    <glyph glyph-name="icaron" unicode="&#x1d0;" horiz-adv-x="645" 
d="M592 0h-531v74h25q68 0 96.5 7.5t37.5 26t9 62.5v571q0 65 -16 84t-72 19h-104v88l385 22v-784q0 -44 9 -62.5t38 -26t98 -7.5h25v-74zM645 1419l-256 -340h-129l-256 340h74l246 -207l247 207h74z" />
    <glyph glyph-name="Ocaron" unicode="&#x1d1;" horiz-adv-x="1593" 
d="M1501 739q0 -162 -54 -305t-147 -245t-224 -161t-279 -59q-197 0 -358.5 100.5t-254 276.5t-92.5 391q0 156 52 297t144 246t226.5 167t290.5 62q194 0 353.5 -101.5t251 -278t91.5 -390.5zM1231 739q0 674 -428 674q-221 0 -331 -163.5t-110 -506.5q0 -348 109 -512.5
t326 -164.5q216 0 325 164t109 509zM1184 1886l-307 -307h-156l-307 307h90l295 -186l297 186h88z" />
    <glyph glyph-name="ocaron" unicode="&#x1d2;" horiz-adv-x="1024" 
d="M954 477q0 -139 -59 -256t-160.5 -184.5t-222.5 -67.5q-184 0 -313 147.5t-129 358.5q0 141 59 258.5t161.5 184.5t225.5 67q119 0 220 -68t159.5 -185t58.5 -255zM739 477q0 202 -58 311t-165 109q-231 0 -231 -422q0 -203 58.5 -310.5t168.5 -107.5t168.5 108t58.5 312
zM836 1419l-256 -340h-129l-256 340h73l246 -207l248 207h74z" />
    <glyph glyph-name="Ucaron" unicode="&#x1d3;" horiz-adv-x="1669" 
d="M1636 1382q-51 -2 -86 -8.5t-63 -23t-44 -40t-26.5 -63.5t-14 -90t-3.5 -123v-465q0 -315 -147 -457.5t-433 -142.5q-128 0 -230.5 26t-178.5 78.5t-117 138.5t-41 200v874q0 46 -12.5 64.5t-47.5 25t-122 6.5h-35v97h670v-97h-39q-67 0 -100 -2.5t-54 -13.5t-26 -28
t-5 -52v-745q0 -114 19 -196t63.5 -143.5t121.5 -91.5t189 -30q116 0 198 36.5t128.5 105.5t67 157t20.5 203v452q0 88 -6 144t-20 97t-42.5 62.5t-67 31.5t-99.5 13v97h583v-97zM1221 1886l-308 -307h-155l-307 307h90l295 -186l297 186h88z" />
    <glyph glyph-name="ucaron" unicode="&#x1d4;" horiz-adv-x="1251" 
d="M1217 0l-373 -14v170q-68 -98 -143.5 -142.5t-176.5 -44.5q-92 0 -163.5 34t-112.5 97q-23 35 -31 77.5t-8 121.5v442q0 66 -15.5 84.5t-72.5 18.5h-78v88l358 22v-624q0 -84 5.5 -113.5t25.5 -58.5q42 -64 143 -64q75 0 134.5 38t91.5 106q43 94 43 251v252
q0 66 -15.5 84.5t-72.5 18.5h-105v88l385 22v-716q0 -98 22 -124t107 -26h52v-88zM942 1419l-256 -340h-129l-256 340h74l246 -207l247 207h74z" />
    <glyph glyph-name="Udieresisacute" unicode="&#x1d7;" horiz-adv-x="1669" 
d="M1636 1382q-51 -2 -86 -8.5t-63 -23t-44 -40t-26.5 -63.5t-14 -90t-3.5 -123v-465q0 -315 -147 -457.5t-433 -142.5q-128 0 -230.5 26t-178.5 78.5t-117 138.5t-41 200v874q0 46 -12.5 64.5t-47.5 25t-122 6.5h-35v97h670v-97h-39q-67 0 -100 -2.5t-54 -13.5t-26 -28
t-5 -52v-745q0 -114 19 -196t63.5 -143.5t121.5 -91.5t189 -30q116 0 198 36.5t128.5 105.5t67 157t20.5 203v452q0 88 -6 144t-20 97t-42.5 62.5t-67 31.5t-99.5 13v97h583v-97zM733 1733q0 -43 -30.5 -73t-73.5 -30q-40 0 -70.5 31t-30.5 72t31 71.5t72 30.5t71.5 -30.5
t30.5 -71.5zM1141 1733q0 -43 -31 -73t-74 -30q-40 0 -70 31t-30 72t30.5 71.5t71.5 30.5t72 -30.5t31 -71.5zM1180 2183q0 -42 -62 -72l-391 -180h-100l344 258q45 35 70 46.5t53 11.5q35 0 60.5 -19t25.5 -45z" />
    <glyph glyph-name="udieresisacute" unicode="&#x1d8;" horiz-adv-x="1251" 
d="M1217 0l-373 -14v170q-68 -98 -143.5 -142.5t-176.5 -44.5q-92 0 -163.5 34t-112.5 97q-23 35 -31 77.5t-8 121.5v442q0 66 -15.5 84.5t-72.5 18.5h-78v88l358 22v-624q0 -84 5.5 -113.5t25.5 -58.5q42 -64 143 -64q75 0 134.5 38t91.5 106q43 94 43 251v252
q0 66 -15.5 84.5t-72.5 18.5h-105v88l385 22v-716q0 -98 22 -124t107 -26h52v-88zM520 1249q0 -43 -30.5 -72.5t-73.5 -29.5q-40 0 -70.5 30.5t-30.5 71.5t31 72t72 31t71.5 -31t30.5 -72zM928 1249q0 -42 -31 -72t-74 -30q-40 0 -70 30.5t-30 71.5t30.5 72t71.5 31t72 -31
t31 -72zM967 1667q0 -42 -62 -72l-391 -180h-100l344 258q45 35 70 46.5t53 11.5q35 0 60.5 -19t25.5 -45z" />
    <glyph glyph-name="Udieresiscaron" unicode="&#x1d9;" horiz-adv-x="1669" 
d="M1636 1382q-51 -2 -86 -8.5t-63 -23t-44 -40t-26.5 -63.5t-14 -90t-3.5 -123v-465q0 -315 -147 -457.5t-433 -142.5q-128 0 -230.5 26t-178.5 78.5t-117 138.5t-41 200v874q0 46 -12.5 64.5t-47.5 25t-122 6.5h-35v97h670v-97h-39q-67 0 -100 -2.5t-54 -13.5t-26 -28
t-5 -52v-745q0 -114 19 -196t63.5 -143.5t121.5 -91.5t189 -30q116 0 198 36.5t128.5 105.5t67 157t20.5 203v452q0 88 -6 144t-20 97t-42.5 62.5t-67 31.5t-99.5 13v97h583v-97zM733 1733q0 -43 -30.5 -73t-73.5 -30q-40 0 -70.5 31t-30.5 72t31 71.5t72 30.5t71.5 -30.5
t30.5 -71.5zM1141 1733q0 -43 -31 -73t-74 -30q-40 0 -70 31t-30 72t30.5 71.5t71.5 30.5t72 -30.5t31 -71.5zM1221 2243l-308 -308h-155l-307 308h90l295 -187l297 187h88z" />
    <glyph glyph-name="udieresiscaron" unicode="&#x1da;" horiz-adv-x="1251" 
d="M1217 0l-373 -14v170q-68 -98 -143.5 -142.5t-176.5 -44.5q-92 0 -163.5 34t-112.5 97q-23 35 -31 77.5t-8 121.5v442q0 66 -15.5 84.5t-72.5 18.5h-78v88l358 22v-624q0 -84 5.5 -113.5t25.5 -58.5q42 -64 143 -64q75 0 134.5 38t91.5 106q43 94 43 251v252
q0 66 -15.5 84.5t-72.5 18.5h-105v88l385 22v-716q0 -98 22 -124t107 -26h52v-88zM520 1249q0 -43 -30.5 -72.5t-73.5 -29.5q-40 0 -70.5 30.5t-30.5 71.5t31 72t72 31t71.5 -31t30.5 -72zM928 1249q0 -42 -31 -72t-74 -30q-40 0 -70 30.5t-30 71.5t30.5 72t71.5 31t72 -31
t31 -72zM1010 1726l-308 -307h-155l-307 307h90l295 -186l297 186h88z" />
    <glyph glyph-name="Udieresisgrave" unicode="&#x1db;" horiz-adv-x="1669" 
d="M1636 1382q-51 -2 -86 -8.5t-63 -23t-44 -40t-26.5 -63.5t-14 -90t-3.5 -123v-465q0 -315 -147 -457.5t-433 -142.5q-128 0 -230.5 26t-178.5 78.5t-117 138.5t-41 200v874q0 46 -12.5 64.5t-47.5 25t-122 6.5h-35v97h670v-97h-39q-67 0 -100 -2.5t-54 -13.5t-26 -28
t-5 -52v-745q0 -114 19 -196t63.5 -143.5t121.5 -91.5t189 -30q116 0 198 36.5t128.5 105.5t67 157t20.5 203v452q0 88 -6 144t-20 97t-42.5 62.5t-67 31.5t-99.5 13v97h583v-97zM733 1733q0 -43 -30.5 -73t-73.5 -30q-40 0 -70.5 31t-30.5 72t31 71.5t72 30.5t71.5 -30.5
t30.5 -71.5zM1141 1733q0 -43 -31 -73t-74 -30q-40 0 -70 31t-30 72t30.5 71.5t71.5 30.5t72 -30.5t31 -71.5zM1042 1931h-100l-391 180q-62 30 -62 72q0 26 25.5 45t60.5 19q28 0 53 -11.5t70 -46.5z" />
    <glyph glyph-name="udieresisgrave" unicode="&#x1dc;" horiz-adv-x="1251" 
d="M1217 0l-373 -14v170q-68 -98 -143.5 -142.5t-176.5 -44.5q-92 0 -163.5 34t-112.5 97q-23 35 -31 77.5t-8 121.5v442q0 66 -15.5 84.5t-72.5 18.5h-78v88l358 22v-624q0 -84 5.5 -113.5t25.5 -58.5q42 -64 143 -64q75 0 134.5 38t91.5 106q43 94 43 251v252
q0 66 -15.5 84.5t-72.5 18.5h-105v88l385 22v-716q0 -98 22 -124t107 -26h52v-88zM520 1249q0 -43 -30.5 -72.5t-73.5 -29.5q-40 0 -70.5 30.5t-30.5 71.5t31 72t72 31t71.5 -31t30.5 -72zM928 1249q0 -42 -31 -72t-74 -30q-40 0 -70 30.5t-30 71.5t30.5 72t71.5 31t72 -31
t31 -72zM831 1415h-100l-391 180q-61 30 -61 72q0 26 25.5 45t60.5 19q28 0 52.5 -11.5t69.5 -46.5z" />
    <glyph glyph-name="eturned" unicode="&#x1dd;" horiz-adv-x="1024" 
d="M952 504q0 -151 -59.5 -273.5t-164.5 -192t-234 -69.5q-188 0 -305 147t-117 378h663q0 188 -76 284t-208 96q-103 0 -174 -50.5t-134 -168.5l-71 39q125 291 417 291q207 0 335 -133t128 -348zM733 406h-358q-49 0 -66.5 -16t-17.5 -60q0 -123 56.5 -198t150.5 -75
q98 0 166.5 95t68.5 254z" />
    <glyph glyph-name="Gcaron" unicode="&#x1e6;" horiz-adv-x="1593" 
d="M1581 578h-31q-146 0 -172 -29q-9 -10 -10.5 -26.5t-1.5 -100.5v-451h-86l-76 185q-100 -100 -198.5 -143.5t-227.5 -43.5q-144 0 -271.5 55t-220 151.5t-146.5 236t-54 301.5q0 153 52.5 297t144 254.5t227 177.5t291.5 67q112 0 192.5 -30.5t180.5 -110.5l79 125h107
v-575h-88q-127 495 -479 495q-214 0 -325.5 -178.5t-111.5 -521.5q0 -317 113.5 -482t329.5 -165q169 0 262.5 101t93.5 288q0 31 -1.5 48.5t-9 33.5t-17.5 22.5t-33.5 11.5t-50.5 6t-74 1h-39v96h651v-96zM1184 1886l-307 -307h-156l-307 307h90l295 -186l297 186h88z" />
    <glyph glyph-name="gcaron" unicode="&#x1e7;" horiz-adv-x="1099" 
d="M1110 895q0 -41 -27 -69.5t-65 -28.5q-30 0 -51.5 16.5t-30 35.5t-16.5 35.5t-15 16.5q-23 0 -69 -49q42 -51 58.5 -95t16.5 -106q0 -101 -50 -178.5t-142 -118.5q-51 -23 -99 -29.5t-194 -9.5q-103 -3 -148 -24.5t-45 -67.5q0 -39 25 -53q28 -13 60 -16q27 -2 83 -2h209
q183 0 260 -29q57 -23 90 -81t33 -134q0 -324 -514 -324q-206 0 -319 55t-113 156q0 128 189 195q-72 25 -105 67t-33 109q0 85 46 133.5t149 71.5q-80 37 -126 110t-46 164q0 154 110 247t293 93q76 0 132.5 -17.5t121.5 -60.5q71 65 109.5 86t87.5 21q60 0 97.5 -33
t37.5 -86zM723 649q0 119 -52 183.5t-149 64.5q-103 0 -159 -66.5t-56 -187.5q0 -115 56 -182.5t151 -67.5q98 0 153.5 68t55.5 188zM850 -147q0 49 -35.5 80.5t-97.5 37.5q-31 4 -213 4h-152q-74 -38 -104.5 -75t-30.5 -88q0 -69 70.5 -106.5t199.5 -37.5q172 0 267.5 48.5
t95.5 136.5zM844 1419l-256 -340h-129l-256 340h73l246 -207l248 207h74z" />
    <glyph glyph-name="Oogonek" unicode="&#x1ea;" horiz-adv-x="1593" 
d="M1501 739q0 -260 -131.5 -458.5t-345.5 -272.5q-35 -12 -51 -18t-46.5 -20t-47 -26t-33.5 -30t-25 -39q-22 -58 -22 -123q0 -49 21 -76.5t61 -27.5q47 0 84 13t54 28t32 28t24 13q8 0 14.5 -7.5t6.5 -17.5q0 -72 -61 -130t-183 -58q-97 0 -165.5 62t-68.5 167
q0 106 136 225q-186 11 -337.5 113.5t-238 274t-86.5 378.5q0 156 52 297t144 246t226.5 167t290.5 62q194 0 353.5 -101.5t251 -278t91.5 -390.5zM1231 739q0 674 -428 674q-221 0 -331 -163.5t-110 -506.5q0 -348 109 -512.5t326 -164.5q216 0 325 164t109 509z" />
    <glyph glyph-name="oogonek" unicode="&#x1eb;" horiz-adv-x="1024" 
d="M954 477q0 -146 -64.5 -266t-172.5 -186q-63 -35 -103.5 -69t-58.5 -81q-23 -61 -23 -123q0 -49 21 -76.5t61 -27.5q47 0 84 13t54.5 28t32.5 28t24 13q8 0 14 -7.5t6 -17.5q0 -72 -60.5 -130t-182.5 -58q-97 0 -165.5 62t-68.5 167q0 54 38.5 114t96.5 109
q-175 11 -296 157.5t-121 348.5q0 141 59 258.5t161.5 184.5t225.5 67q119 0 220 -68t159.5 -185t58.5 -255zM739 477q0 202 -58 311t-165 109q-231 0 -231 -422q0 -203 58.5 -310.5t168.5 -107.5t168.5 108t58.5 312z" />
    <glyph glyph-name="jcaron" unicode="&#x1f0;" horiz-adv-x="606" 
d="M424 145q0 -173 -18.5 -265.5t-65.5 -160.5q-44 -62 -118.5 -97.5t-160.5 -35.5q-103 0 -166 46.5t-63 121.5q0 53 33 88t82 35q43 0 74.5 -29t31.5 -67q0 -17 -14 -49q-10 -25 -10 -33q0 -11 15 -19t36 -8q32 0 65 20.5t48 51.5q22 44 30 110.5t8 192.5v694
q0 66 -15.5 84.5t-72.5 18.5h-118v88l399 22v-809zM647 1419l-256 -340h-129l-256 340h74l246 -207l247 207h74z" />
    <glyph glyph-name="Gacute" unicode="&#x1f4;" horiz-adv-x="1593" 
d="M1581 578h-31q-146 0 -172 -29q-9 -10 -10.5 -26.5t-1.5 -100.5v-451h-86l-76 185q-100 -100 -198.5 -143.5t-227.5 -43.5q-144 0 -271.5 55t-220 151.5t-146.5 236t-54 301.5q0 153 52.5 297t144 254.5t227 177.5t291.5 67q112 0 192.5 -30.5t180.5 -110.5l79 125h107
v-575h-88q-127 495 -479 495q-214 0 -325.5 -178.5t-111.5 -521.5q0 -317 113.5 -482t329.5 -165q169 0 262.5 101t93.5 288q0 31 -1.5 48.5t-9 33.5t-17.5 22.5t-33.5 11.5t-50.5 6t-74 1h-39v96h651v-96zM1141 1827q0 -42 -62 -72l-391 -180h-100l344 258q45 34 70 45.5
t53 11.5q35 0 60.5 -18.5t25.5 -44.5z" />
    <glyph glyph-name="gacute" unicode="&#x1f5;" horiz-adv-x="1099" 
d="M1110 895q0 -41 -27 -69.5t-65 -28.5q-30 0 -51.5 16.5t-30 35.5t-16.5 35.5t-15 16.5q-23 0 -69 -49q42 -51 58.5 -95t16.5 -106q0 -101 -50 -178.5t-142 -118.5q-51 -23 -99 -29.5t-194 -9.5q-103 -3 -148 -24.5t-45 -67.5q0 -39 25 -53q28 -13 60 -16q27 -2 83 -2h209
q183 0 260 -29q57 -23 90 -81t33 -134q0 -324 -514 -324q-206 0 -319 55t-113 156q0 128 189 195q-72 25 -105 67t-33 109q0 85 46 133.5t149 71.5q-80 37 -126 110t-46 164q0 154 110 247t293 93q76 0 132.5 -17.5t121.5 -60.5q71 65 109.5 86t87.5 21q60 0 97.5 -33
t37.5 -86zM723 649q0 119 -52 183.5t-149 64.5q-103 0 -159 -66.5t-56 -187.5q0 -115 56 -182.5t151 -67.5q98 0 153.5 68t55.5 188zM850 -147q0 49 -35.5 80.5t-97.5 37.5q-31 4 -213 4h-152q-74 -38 -104.5 -75t-30.5 -88q0 -69 70.5 -106.5t199.5 -37.5q172 0 267.5 48.5
t95.5 136.5zM829 1352q0 -22 -14 -44.5t-37 -35.5l-325 -199h-84l286 287q38 38 58.5 50.5t44.5 12.5q29 0 50 -21t21 -50z" />
    <glyph glyph-name="Aringacute" unicode="&#x1fa;" horiz-adv-x="1478" 
d="M1497 0h-635v96h86q57 0 92 14.5t35 39.5q0 14 -16 55l-111 274h-542l-68 -180q-19 -52 -19 -86q0 -117 166 -117h41v-96h-542v96h28q76 0 112.5 38.5t92.5 178.5l471 1194h86l522 -1280q36 -88 61.5 -109.5t100.5 -21.5h39v-96zM905 590l-231 581l-228 -581h459z
M1075 2261q0 -42 -61 -72l-391 -180h-101l344 258q45 34 70 45.5t53 11.5q35 0 60.5 -18.5t25.5 -44.5zM936 1765q0 -86 -60 -145t-147 -59q-82 0 -141.5 60t-59.5 144q0 83 60 143t143 60q85 0 145 -60t60 -143zM862 1765q0 53 -38 91t-91 38q-54 0 -92.5 -38t-38.5 -91
q0 -54 38 -92.5t91 -38.5q55 0 93 38t38 93z" />
    <glyph glyph-name="aringacute" unicode="&#x1fb;" horiz-adv-x="1138" 
d="M1112 104q0 -44 -59.5 -81t-128.5 -37q-72 0 -114 33.5t-67 111.5q-66 -78 -158 -120t-198 -42q-135 0 -216 65.5t-81 174.5q0 151 143 236.5t500 146.5v80q0 128 -55 176.5t-166 48.5q-73 0 -127.5 -24t-54.5 -56q0 -2 22.5 -45t22.5 -65q0 -46 -31.5 -75.5t-79.5 -29.5
q-54 0 -86.5 34.5t-32.5 92.5q0 110 114 183t286 73q94 0 160 -14.5t118 -50t77.5 -100.5t25.5 -161v-411q0 -77 17.5 -109.5t60.5 -32.5q4 0 37.5 11.5t50.5 11.5q8 0 14 -7.5t6 -17.5zM733 410v94q-178 -30 -271.5 -64.5t-129 -80t-35.5 -121.5q0 -69 46.5 -114.5
t115.5 -45.5q66 0 130.5 35t102.5 92q26 40 33.5 76.5t7.5 128.5zM889 1737q0 -42 -62 -72l-391 -180h-100l344 258q45 34 70 45.5t53 11.5q35 0 60.5 -18.5t25.5 -44.5zM750 1241q0 -86 -60.5 -145.5t-146.5 -59.5q-82 0 -141.5 60.5t-59.5 144.5q0 83 60 143t143 60
q85 0 145 -60t60 -143zM676 1241q0 53 -38 91t-91 38q-54 0 -92.5 -38t-38.5 -91q0 -54 38 -92.5t91 -38.5q55 0 93 38t38 93z" />
    <glyph glyph-name="AEacute" unicode="&#x1fc;" horiz-adv-x="2048" 
d="M1972 547l-41 -547h-1196v96h39q67 0 99.5 2.5t54 14t26 28.5t4.5 52v358h-489l-145 -266q-29 -54 -29 -95q0 -49 32 -71.5t109 -22.5h41v-96h-477v96q54 11 93 47.5t89 126.5l506 910q27 52 27 92q0 63 -33 86.5t-135 23.5h-55v97h1419l28 -525h-88q-16 94 -33.5 158
t-45 113.5t-60.5 78.5t-85 47.5t-112.5 24.5t-148.5 6h-49q-83 0 -106 -18t-23 -84v-467h57q125 0 187 66t69 215h96v-672h-96q-2 80 -12.5 129t-38 89.5t-79.5 58.5t-134 18h-49v-522q0 -61 32 -80t115 -19h72q98 0 167 15.5t120 46t86 86.5t58.5 126.5t45.5 176.5h88z
M958 662v665q0 30 -4 38.5t-16 8.5q-10 0 -17 -7.5t-18 -29.5l-375 -675h430zM1368 1827q0 -42 -61 -72l-392 -180h-100l344 258q45 34 70 45.5t53 11.5q35 0 60.5 -18.5t25.5 -44.5z" />
    <glyph glyph-name="aeacute" unicode="&#x1fd;" horiz-adv-x="1630" 
d="M1554 260q-69 -149 -171 -220t-248 -71q-90 0 -177 29t-143 80q-13 10 -72 72q-80 -97 -164.5 -139t-201.5 -42q-138 0 -220.5 64t-82.5 170q0 205 241 297q77 30 142.5 46t232.5 46v94q0 116 -44.5 163.5t-153.5 47.5q-72 0 -124.5 -23t-52.5 -55q0 -11 15 -28
q30 -43 30 -84q0 -46 -31.5 -75.5t-78.5 -29.5q-56 0 -88.5 34.5t-32.5 92.5q0 107 112.5 181.5t276.5 74.5q106 0 189.5 -31t126.5 -86q126 117 296 117q95 0 177.5 -42t136.5 -118q51 -69 79.5 -156t28.5 -171v-37h-665q2 -93 12.5 -147.5t36.5 -98.5q82 -135 238 -135
q101 0 172.5 51t134.5 168zM690 395v109q-128 -22 -187.5 -37.5t-101.5 -38.5q-120 -68 -120 -182q0 -74 43 -122t110 -48q63 0 121.5 30.5t93.5 81.5q26 40 33.5 76t7.5 131zM1331 625q0 122 -56.5 196t-150.5 74q-145 0 -206 -182q-29 -80 -29 -164h358q49 0 66.5 16
t17.5 60zM1120 1352q0 -22 -14 -44.5t-37 -35.5l-326 -199h-84l287 287q38 38 58.5 50.5t44.5 12.5q29 0 50 -21t21 -50z" />
    <glyph glyph-name="Oslashacute" unicode="&#x1fe;" horiz-adv-x="1593" 
d="M1501 750q0 -149 -52 -290t-142.5 -250t-225 -175t-288.5 -66q-228 0 -418 150l-203 -275h-111l248 336q-101 106 -160 255.5t-59 301.5q0 149 54 289.5t146.5 247t226.5 171t284 64.5q214 0 397 -129l133 181h111l-176 -240q110 -110 172.5 -262t62.5 -309zM1110 1262
q-113 151 -315 151q-214 0 -324.5 -175t-110.5 -515q0 -250 62 -389zM1231 762q0 145 -16.5 240.5t-55.5 175.5l-690 -932q115 -180 330 -180q432 0 432 696zM1141 1827q0 -42 -62 -72l-391 -180h-100l344 258q45 34 70 45.5t53 11.5q35 0 60.5 -18.5t25.5 -44.5z" />
    <glyph glyph-name="oslashacute" unicode="&#x1ff;" horiz-adv-x="1024" 
d="M954 467q0 -219 -125.5 -358.5t-322.5 -139.5q-108 0 -182 39l-101 -194h-102l125 243q-85 73 -130.5 181.5t-45.5 236.5q0 140 59 257.5t160.5 185t222.5 67.5q96 0 186 -47l103 199h102l-129 -250q85 -72 132.5 -183.5t47.5 -236.5zM647 838q-56 59 -133 59
q-229 0 -229 -428q0 -153 39 -260zM739 496q0 142 -37 249l-323 -628q51 -60 131 -60q229 0 229 439zM817 1352q0 -22 -14 -44.5t-37 -35.5l-326 -199h-84l287 287q38 38 58.5 50.5t43.5 12.5q29 0 50.5 -21t21.5 -50z" />
    <glyph glyph-name="Adblgrave" unicode="&#x200;" horiz-adv-x="1478" 
d="M1497 0h-635v96h86q57 0 92 14.5t35 39.5q0 14 -16 55l-111 274h-542l-68 -180q-19 -52 -19 -86q0 -117 166 -117h41v-96h-542v96h28q76 0 112.5 38.5t92.5 178.5l471 1194h86l522 -1280q36 -88 61.5 -109.5t100.5 -21.5h39v-96zM905 590l-231 581l-228 -581h459z
M879 1622l-33 -18l-166 200q-37 42 -37 82q0 24 16 41t39 17q35 0 60.5 -28t48.5 -93zM637 1622l-33 -18l-166 200q-37 45 -37 82q0 23 16.5 40.5t39.5 17.5q35 0 60 -28t48 -93z" />
    <glyph glyph-name="adblgrave" unicode="&#x201;" horiz-adv-x="1138" 
d="M1112 104q0 -44 -59.5 -81t-128.5 -37q-72 0 -114 33.5t-67 111.5q-66 -78 -158 -120t-198 -42q-135 0 -216 65.5t-81 174.5q0 151 143 236.5t500 146.5v80q0 128 -55 176.5t-166 48.5q-73 0 -127.5 -24t-54.5 -56q0 -2 22.5 -45t22.5 -65q0 -46 -31.5 -75.5t-79.5 -29.5
q-54 0 -86.5 34.5t-32.5 92.5q0 110 114 183t286 73q94 0 160 -14.5t118 -50t77.5 -100.5t25.5 -161v-411q0 -77 17.5 -109.5t60.5 -32.5q4 0 37.5 11.5t50.5 11.5q8 0 14 -7.5t6 -17.5zM733 410v94q-178 -30 -271.5 -64.5t-129 -80t-35.5 -121.5q0 -69 46.5 -114.5
t115.5 -45.5q66 0 130.5 35t102.5 92q26 40 33.5 76.5t7.5 128.5zM692 1098l-33 -19l-165 201q-37 42 -37 82q0 23 16 40t39 17q35 0 60.5 -28t48.5 -93zM451 1098l-33 -19l-166 201q-37 45 -37 82q0 23 16 40t39 17q35 0 60.5 -28t48.5 -93z" />
    <glyph glyph-name="Edblgrave" unicode="&#x204;" horiz-adv-x="1478" 
d="M1358 547l-41 -547h-1258v96h37q67 0 100 2.5t54 14t26 28.5t5 52v1093q0 35 -5 52t-26 28t-54 13.5t-100 2.5h-37v97h1260v-525h-88q-15 93 -32.5 156.5t-44.5 113.5t-60 79t-85 47.5t-113.5 25t-150.5 6.5h-106q-83 0 -106 -18t-23 -84v-467h49q146 0 213 65t74 216h96
v-672h-96q-2 53 -6.5 89.5t-16 72.5t-32 58.5t-52.5 40.5t-78.5 26t-109.5 8h-41v-522q0 -61 32 -80t115 -19h136q121 0 200 22t133.5 78t85.5 137t56 214h90zM887 1622l-33 -18l-166 200q-37 42 -37 82q0 23 16.5 40.5t39.5 17.5q35 0 60 -28t48 -93zM645 1622l-33 -18
l-166 200q-36 44 -36 82q0 24 16 41t39 17q35 0 60 -28t48 -93z" />
    <glyph glyph-name="edblgrave" unicode="&#x205;" horiz-adv-x="1024" 
d="M952 260q-125 -291 -417 -291q-207 0 -335 133.5t-128 348.5q0 230 130.5 382t327.5 152q188 0 305 -146.5t117 -377.5h-663q0 -188 76 -284.5t208 -96.5q103 0 174 50.5t134 168.5zM733 625q0 123 -56.5 197.5t-150.5 74.5q-98 0 -166.5 -95t-68.5 -253h358
q49 0 66.5 16t17.5 60zM678 1098l-33 -19l-166 201q-37 42 -37 82q0 23 16.5 40t39.5 17q35 0 60 -28t48 -93zM436 1098l-33 -19l-165 201q-37 45 -37 82q0 23 16 40t39 17q35 0 60.5 -28t48.5 -93z" />
    <glyph glyph-name="Idblgrave" unicode="&#x208;" horiz-adv-x="833" 
d="M756 0h-678v96h41q67 0 99.5 2.5t54 14t26 28.5t4.5 52v1093q0 46 -12.5 64.5t-48 25t-123.5 6.5h-41v97h678v-97h-41q-66 0 -98.5 -2.5t-53.5 -13.5t-26 -28t-5 -52v-1093q0 -46 12.5 -64.5t48.5 -25.5t122 -7h41v-96zM563 1622l-33 -18l-165 200q-37 42 -37 82
q0 24 16 41t39 17q35 0 60.5 -28t48.5 -93zM322 1622l-33 -18l-166 200q-37 45 -37 82q0 24 16 41t39 17q35 0 60.5 -28t48.5 -93z" />
    <glyph glyph-name="idblgrave" unicode="&#x209;" horiz-adv-x="645" 
d="M592 0h-531v74h25q68 0 96.5 7.5t37.5 26t9 62.5v571q0 65 -16 84t-72 19h-104v88l385 22v-784q0 -44 9 -62.5t38 -26t98 -7.5h25v-74zM473 1098l-33 -19l-166 201q-36 41 -36 82q0 23 16 40t39 17q35 0 60 -28t48 -93zM231 1098l-32 -19l-166 201q-37 45 -37 82
q0 23 16 40t39 17q35 0 60.5 -28t48.5 -93z" />
    <glyph glyph-name="Odblgrave" unicode="&#x20c;" horiz-adv-x="1593" 
d="M1501 739q0 -162 -54 -305t-147 -245t-224 -161t-279 -59q-197 0 -358.5 100.5t-254 276.5t-92.5 391q0 156 52 297t144 246t226.5 167t290.5 62q194 0 353.5 -101.5t251 -278t91.5 -390.5zM1231 739q0 674 -428 674q-221 0 -331 -163.5t-110 -506.5q0 -348 109 -512.5
t326 -164.5q216 0 325 164t109 509zM944 1622l-33 -18l-166 200q-36 41 -36 82q0 24 16 41t39 17q35 0 60 -28t48 -93zM702 1622l-32 -18l-166 200q-37 45 -37 82q0 24 16 41t39 17q35 0 60.5 -28t48.5 -93z" />
    <glyph glyph-name="odblgrave" unicode="&#x20d;" horiz-adv-x="1024" 
d="M954 477q0 -139 -59 -256t-160.5 -184.5t-222.5 -67.5q-184 0 -313 147.5t-129 358.5q0 141 59 258.5t161.5 184.5t225.5 67q119 0 220 -68t159.5 -185t58.5 -255zM739 477q0 202 -58 311t-165 109q-231 0 -231 -422q0 -203 58.5 -310.5t168.5 -107.5t168.5 108t58.5 312
zM664 1098l-33 -19l-166 201q-37 42 -37 82q0 23 16 40t39 17q35 0 60.5 -28t48.5 -93zM422 1098l-33 -19l-166 201q-37 45 -37 82q0 23 16.5 40t39.5 17q35 0 60 -28t48 -93z" />
    <glyph glyph-name="Rdblgrave" unicode="&#x210;" horiz-adv-x="1478" 
d="M1460 328q-4 -184 -66 -271.5t-188 -87.5q-121 0 -183 76.5t-79 249.5l-10 104q-18 176 -93 247t-218 71h-119v-524q0 -35 4.5 -52t26 -28.5t54 -14t99.5 -2.5h37v-96h-672v96h37q67 0 99.5 2.5t54 14t26 28.5t4.5 52v1093q0 46 -12.5 64.5t-48 25t-123.5 6.5h-37v97h709
q258 0 399.5 -96t141.5 -271q0 -155 -108 -245.5t-329 -121.5q121 -31 185.5 -102t99.5 -213l33 -129q27 -109 46 -142.5t56 -33.5q41 0 61.5 48t26.5 155h86zM1051 1110q0 140 -71.5 206t-223.5 66h-111q-69 0 -96 -4.5t-36 -17t-9 -45.5v-502h225q160 0 241 69.5t81 227.5
zM887 1622l-33 -18l-166 200q-37 42 -37 82q0 23 16.5 40.5t39.5 17.5q35 0 60 -28t48 -93zM645 1622l-33 -18l-166 200q-36 44 -36 82q0 24 16 41t39 17q35 0 60 -28t48 -93z" />
    <glyph glyph-name="rdblgrave" unicode="&#x211;" horiz-adv-x="909" 
d="M891 821q0 -63 -34.5 -101t-90.5 -38q-50 0 -81.5 32t-31.5 81q0 29 7.5 48t29.5 44q-131 -15 -205 -189q-79 -181 -79 -426v-102q0 -62 27.5 -79t125.5 -17h39v-74h-547v74h29q52 0 77.5 2.5t39.5 15.5t16 27.5t2 50.5v571q0 66 -15.5 84.5t-72.5 18.5h-84v88l363 22
v-254q50 135 130 210t177 75q81 0 129.5 -45t48.5 -119zM553 1098l-33 -19l-166 201q-37 42 -37 82q0 23 16.5 40t39.5 17q35 0 60 -28t48 -93zM311 1098l-32 -19l-166 201q-37 45 -37 82q0 23 16 40t39 17q35 0 60.5 -28t48.5 -93z" />
    <glyph glyph-name="Udblgrave" unicode="&#x214;" horiz-adv-x="1669" 
d="M1636 1382q-51 -2 -86 -8.5t-63 -23t-44 -40t-26.5 -63.5t-14 -90t-3.5 -123v-465q0 -315 -147 -457.5t-433 -142.5q-128 0 -230.5 26t-178.5 78.5t-117 138.5t-41 200v874q0 46 -12.5 64.5t-47.5 25t-122 6.5h-35v97h670v-97h-39q-67 0 -100 -2.5t-54 -13.5t-26 -28
t-5 -52v-745q0 -114 19 -196t63.5 -143.5t121.5 -91.5t189 -30q116 0 198 36.5t128.5 105.5t67 157t20.5 203v452q0 88 -6 144t-20 97t-42.5 62.5t-67 31.5t-99.5 13v97h583v-97zM981 1622l-33 -18l-166 200q-37 42 -37 82q0 23 16.5 40.5t39.5 17.5q35 0 60 -28t48 -93z
M739 1622l-32 -18l-166 200q-37 45 -37 82q0 24 16 41t39 17q35 0 60.5 -28t48.5 -93z" />
    <glyph glyph-name="udblgrave" unicode="&#x215;" horiz-adv-x="1251" 
d="M1217 0l-373 -14v170q-68 -98 -143.5 -142.5t-176.5 -44.5q-92 0 -163.5 34t-112.5 97q-23 35 -31 77.5t-8 121.5v442q0 66 -15.5 84.5t-72.5 18.5h-78v88l358 22v-624q0 -84 5.5 -113.5t25.5 -58.5q42 -64 143 -64q75 0 134.5 38t91.5 106q43 94 43 251v252
q0 66 -15.5 84.5t-72.5 18.5h-105v88l385 22v-716q0 -98 22 -124t107 -26h52v-88zM770 1098l-33 -19l-166 201q-36 41 -36 82q0 23 16 40t39 17q35 0 60 -28t48 -93zM528 1098l-32 -19l-166 201q-37 45 -37 82q0 23 16 40t39 17q35 0 60.5 -28t48.5 -93z" />
    <glyph glyph-name="uni0218" unicode="&#x218;" horiz-adv-x="1290" 
d="M1208 420q0 -206 -134 -328.5t-359 -122.5q-134 0 -230.5 34.5t-199.5 119.5l-92 -139h-80l-9 583h89q23 -120 59 -199.5t100 -150.5q72 -80 157.5 -117t199.5 -37q84 0 140 18.5t107 63.5q93 84 93 205q0 122 -95 195q-32 24 -62 35t-147 41l-194 49q-226 59 -319 151.5
t-93 259.5q0 192 124 310t325 118q226 0 373 -141l81 123h76l25 -533h-88q-41 158 -123 275q-125 178 -342 178q-130 0 -210.5 -67t-80.5 -175q0 -93 65.5 -154.5t202.5 -96.5l219 -56q122 -31 190 -60t109 -69q123 -120 123 -313zM786 -258q0 -119 -77 -223
q-55 -72 -166 -137l-41 51q186 117 186 252q0 16 -12 16h-6q-8 -2 -25 -2q-62 0 -96.5 28.5t-34.5 79.5q0 47 34.5 79t86.5 32q66 0 108.5 -49t42.5 -127z" />
    <glyph glyph-name="uni0219" unicode="&#x219;" horiz-adv-x="948" 
d="M862 285q0 -143 -91.5 -229.5t-242.5 -86.5q-155 0 -280 101l-72 -84h-72v387h82q37 -153 126 -234.5t218 -81.5q91 0 148 46t57 118q0 61 -48.5 97t-170.5 65l-108 25q-93 22 -138 41t-80 51q-71 65 -71 188q0 134 82 215.5t217 81.5q144 0 250 -82l59 74h72v-344h-72
q-25 71 -46 109t-54 71q-85 82 -199 82q-84 0 -137 -39.5t-53 -101.5q0 -34 19 -64t52 -45q28 -15 46.5 -20.5t103.5 -24.5l102 -22q94 -20 136 -37t79 -49q86 -71 86 -207zM614 -258q0 -119 -77 -223q-55 -72 -166 -137l-41 51q186 117 186 252q0 16 -12 16h-6
q-8 -2 -25 -2q-62 0 -96.5 28.5t-34.5 79.5q0 47 34.5 79t86.5 32q66 0 108.5 -49t42.5 -127z" />
    <glyph glyph-name="uni021A" unicode="&#x21a;" horiz-adv-x="1366" 
d="M1327 909h-88q-24 172 -68 281q-38 92 -110 142t-166 50q-51 0 -73.5 -17.5t-22.5 -55.5v-1116q0 -35 4.5 -52t25.5 -28.5t53.5 -14t98.5 -2.5h53v-96h-702v96h53q67 0 99.5 2.5t54 14t26 28.5t4.5 52v1116q0 38 -22.5 55.5t-73.5 17.5q-211 0 -291 -227
q-35 -101 -55 -246h-88l31 570h1226zM823 -258q0 -118 -78 -223q-56 -73 -165 -137l-41 51q186 117 186 252q0 16 -12 16h-6q-8 -2 -25 -2q-62 0 -96.5 28.5t-34.5 79.5q0 47 34.5 79t86.5 32q66 0 108.5 -49t42.5 -127z" />
    <glyph glyph-name="uni021B" unicode="&#x21b;" horiz-adv-x="796" 
d="M766 326q0 -100 -32.5 -179t-102.5 -128.5t-168 -49.5q-180 0 -234 133q-15 35 -19.5 83t-4.5 159v522h-168v80q246 18 276 414h84v-406h301v-88h-301v-559q0 -122 25.5 -167.5t95.5 -45.5q151 0 160 279h86q2 -20 2 -47zM604 -258q0 -118 -78 -223q-55 -72 -166 -137
l-41 51q187 117 187 252q0 16 -12 16h-7q-8 -2 -24 -2q-62 0 -96.5 28.5t-34.5 79.5q0 47 34.5 79t86.5 32q66 0 108.5 -49t42.5 -127z" />
    <glyph glyph-name="uni0237" unicode="&#x237;" horiz-adv-x="606" 
d="M424 145q0 -173 -18.5 -265.5t-65.5 -160.5q-44 -62 -118.5 -97.5t-160.5 -35.5q-103 0 -166 46.5t-63 121.5q0 53 33 88t82 35q43 0 74.5 -29t31.5 -67q0 -17 -14 -49q-10 -25 -10 -33q0 -11 15 -19t36 -8q32 0 65 20.5t48 51.5q22 44 30 110.5t8 192.5v694
q0 66 -15.5 84.5t-72.5 18.5h-118v88l399 22v-809z" />
    <glyph glyph-name="ereversed" unicode="&#x258;" horiz-adv-x="1024" 
d="M952 451q0 -215 -128 -348.5t-335 -133.5q-292 0 -417 291l71 39q63 -118 134 -168.5t174 -50.5q132 0 208 96.5t76 284.5h-663q0 231 117 377.5t305 146.5q197 0 327.5 -152t130.5 -382zM733 549q0 158 -68.5 253t-166.5 95q-94 0 -150.5 -74.5t-56.5 -197.5
q0 -44 17.5 -60t66.5 -16h358z" />
    <glyph glyph-name="schwa" unicode="&#x259;" horiz-adv-x="1024" 
d="M952 504q0 -151 -59.5 -273.5t-164.5 -192t-234 -69.5q-188 0 -305 147t-117 378h663q0 188 -76 284t-208 96q-103 0 -174 -50.5t-134 -168.5l-71 39q125 291 417 291q207 0 335 -133t128 -348zM733 406h-358q-49 0 -66.5 -16t-17.5 -60q0 -123 56.5 -198t150.5 -75
q98 0 166.5 95t68.5 254z" />
    <glyph glyph-name="ringhalfright" unicode="&#x2be;" horiz-adv-x="731" 
d="M649 1110q0 -161 -90.5 -264t-230.5 -103q-97 0 -163.5 52.5t-66.5 126.5q0 49 29 79.5t72 30.5t70.5 -26.5t27.5 -67.5q0 -36 -31 -72q-1 -2 -2.5 -3.5t-1.5 -2.5q0 -24 60 -24q70 0 110.5 70.5t40.5 187.5q0 113 -43 178t-119 65q-47 0 -80.5 -30.5t-64.5 -98.5
q-4 -8 -14 -8h-7l-53 21q-10 3 -10 16v6q47 114 108 162.5t158 48.5q133 0 217 -96t84 -248z" />
    <glyph glyph-name="ringhalfleft" unicode="&#x2bf;" horiz-adv-x="731" 
d="M649 954q-47 -114 -108 -162.5t-158 -48.5q-133 0 -217 96t-84 248q0 161 90.5 264t230.5 103q97 0 163.5 -52t66.5 -126q0 -49 -29 -80t-72 -31t-70.5 27t-27.5 68q0 35 31 71q1 2 2.5 3.5t1.5 2.5q0 12 -17.5 18.5t-41.5 6.5q-70 0 -111 -70.5t-41 -187.5
q0 -113 43 -178.5t119 -65.5q47 0 80.5 30.5t64.5 98.5q4 8 15 8h6l53 -20q10 -3 10 -16v-7z" />
    <glyph glyph-name="circumflex" unicode="&#x2c6;" 
d="M662 1079h-74l-246 207l-248 -207h-74l256 340h130z" />
    <glyph glyph-name="caron" unicode="&#x2c7;" 
d="M662 1419l-256 -340h-130l-256 340h74l246 -207l248 207h74z" />
    <glyph glyph-name="breve" unicode="&#x2d8;" 
d="M631 1382q0 -125 -83.5 -208.5t-207.5 -83.5t-206.5 84t-82.5 210v27h74q8 -93 64.5 -143.5t152.5 -50.5q95 0 151 51t64 143h74v-29z" />
    <glyph glyph-name="dotaccent" unicode="&#x2d9;" 
d="M444 1249q0 -43 -30.5 -72.5t-73.5 -29.5q-40 0 -70 30.5t-30 71.5t30.5 72t71.5 31t71.5 -31t30.5 -72z" />
    <glyph glyph-name="ring" unicode="&#x2da;" 
d="M545 1251q0 -86 -60 -145t-147 -59q-82 0 -141.5 60t-59.5 144q0 83 60 143t143 60q85 0 145 -60t60 -143zM471 1251q0 53 -38.5 91t-90.5 38q-54 0 -92.5 -38t-38.5 -91q0 -54 38 -92.5t91 -38.5q56 0 93.5 38t37.5 93z" />
    <glyph glyph-name="ogonek" unicode="&#x2db;" 
d="M604 -295q0 -72 -61 -130t-183 -58q-97 0 -165 62t-68 167q0 72 66 152t147 131h117q-52 -27 -101 -100.5t-49 -176.5q0 -49 21 -76.5t61 -27.5q47 0 84 13t54.5 28t32.5 28t24 13q8 0 14 -7.5t6 -17.5z" />
    <glyph glyph-name="tilde" unicode="&#x2dc;" 
d="M680 1358q-10 -97 -71.5 -157t-149.5 -60q-40 0 -72.5 10t-110.5 47q-63 29 -106 29q-74 0 -96 -86h-72q20 96 75 151.5t130 55.5q35 0 63 -9t113 -47q88 -39 121 -39q35 0 65 30.5t39 74.5h72z" />
    <glyph glyph-name="hungarumlaut" unicode="&#x2dd;" 
d="M430 1362q0 -40 -37 -82l-166 -201l-32 19l71 200q23 65 48.5 93t60.5 28q23 0 39 -17t16 -40zM672 1362q0 -37 -37 -82l-166 -201l-33 19l72 200q23 65 48 93t60 28q23 0 39.5 -17t16.5 -40z" />
    <glyph glyph-name="uni0300" unicode="&#x300;" horiz-adv-x="0" 
d="M-414 1073h-84l-325 199q-23 13 -37 35.5t-14 44.5q0 29 21 50t50 21q24 0 44.5 -12.5t58.5 -50.5z" />
    <glyph glyph-name="uni0301" unicode="&#x301;" horiz-adv-x="0" 
d="M-262 1352q0 -22 -14 -44.5t-37 -35.5l-326 -199h-84l287 287q38 38 58.5 50.5t43.5 12.5q29 0 50.5 -21t21.5 -50z" />
    <glyph glyph-name="uni0302" unicode="&#x302;" horiz-adv-x="0" 
d="M-248 1079h-74l-245 207l-248 -207h-74l256 340h129z" />
    <glyph glyph-name="uni0303" unicode="&#x303;" horiz-adv-x="0" 
d="M-229 1358q-10 -97 -72 -157t-150 -60q-40 0 -72 10t-110 47q-63 29 -106 29q-35 0 -61 -22.5t-36 -63.5h-71q20 96 75 151.5t130 55.5q35 0 63 -9t113 -47q88 -39 120 -39q35 0 65.5 30.5t39.5 74.5h72z" />
    <glyph glyph-name="uni0304" unicode="&#x304;" horiz-adv-x="0" 
d="M-248 1194h-641v111h641v-111z" />
    <glyph glyph-name="uni0306" unicode="&#x306;" horiz-adv-x="0" 
d="M-279 1382q0 -125 -83 -208.5t-207 -83.5t-206.5 84t-82.5 210v27h74q8 -93 64.5 -143.5t152.5 -50.5q95 0 151 51t64 143h73v-29z" />
    <glyph glyph-name="uni0307" unicode="&#x307;" horiz-adv-x="0" 
d="M-465 1249q0 -43 -30.5 -72.5t-73.5 -29.5q-40 0 -70.5 30.5t-30.5 71.5t31 72t72 31t71.5 -31t30.5 -72z" />
    <glyph glyph-name="uni0308" unicode="&#x308;" horiz-adv-x="0" 
d="M-670 1249q0 -43 -30.5 -72.5t-73.5 -29.5q-40 0 -70 30.5t-30 71.5t30.5 72t71.5 31t71.5 -31t30.5 -72zM-262 1249q0 -42 -31 -72t-74 -30q-40 0 -70 30.5t-30 71.5t30.5 72t71.5 31t72 -31t31 -72z" />
    <glyph glyph-name="uni0309" unicode="&#x309;" horiz-adv-x="0" 
d="M-367 1290q0 -37 -25 -62.5t-102 -66.5q-43 -24 -54 -41.5t-11 -66.5h-68v63q0 24 18 45.5t89 79.5h-2q28 25 28 51q0 27 -26 50.5t-66 23.5q-49 0 -65 -12q39 -34 39 -64q0 -28 -22 -47.5t-54 -19.5q-36 0 -60 25t-24 61q0 61 59.5 100t153.5 39q87 0 139.5 -49.5
t52.5 -108.5z" />
    <glyph glyph-name="uni030A" unicode="&#x30a;" horiz-adv-x="0" 
d="M-365 1251q0 -86 -60 -145t-146 -59q-82 0 -141.5 60t-59.5 144q0 83 60 143t143 60q85 0 144.5 -60t59.5 -143zM-438 1251q0 53 -38 91t-91 38q-54 0 -92.5 -38t-38.5 -91q0 -54 38 -92.5t91 -38.5q55 0 93 38t38 93z" />
    <glyph glyph-name="uni030B" unicode="&#x30b;" horiz-adv-x="0" 
d="M-479 1362q0 -40 -37 -82l-166 -201l-33 19l72 200q23 65 48 93t60 28q23 0 39.5 -17t16.5 -40zM-238 1362q0 -38 -36 -82l-166 -201l-33 19l72 200q23 65 48 93t60 28q23 0 39 -17t16 -40z" />
    <glyph glyph-name="uni030C" unicode="&#x30c;" horiz-adv-x="0" 
d="M-248 1419l-256 -340h-129l-256 340h74l246 -207l247 207h74z" />
    <glyph glyph-name="uni030F" unicode="&#x30f;" horiz-adv-x="0" 
d="M-422 1098l-33 -19l-166 201q-36 41 -36 82q0 23 16 40t39 17q35 0 60 -28t48 -93zM-664 1098l-32 -19l-166 201q-37 45 -37 82q0 23 16 40t39 17q35 0 60.5 -28t48.5 -93z" />
    <glyph glyph-name="uni0311" unicode="&#x311;" horiz-adv-x="0" 
d="M-279 1090h-73q-8 93 -64.5 143.5t-152.5 50.5q-95 0 -151 -51t-64 -143h-74v28q0 125 83.5 209t207.5 84t206 -84.5t82 -210.5v-26z" />
    <glyph glyph-name="uni0323" unicode="&#x323;" horiz-adv-x="0" 
d="M-465 -295q0 -43 -30.5 -72.5t-73.5 -29.5q-40 0 -70.5 30.5t-30.5 71.5t31 71.5t72 30.5t71.5 -30.5t30.5 -71.5z" />
    <glyph glyph-name="uni0326" unicode="&#x326;" horiz-adv-x="0" 
d="M-428 -258q0 -118 -78 -223q-55 -72 -166 -137l-41 51q187 117 187 252q0 16 -13 16h-6q-8 -2 -24 -2q-62 0 -96.5 28.5t-34.5 79.5q0 48 34 79.5t86 31.5q66 0 109 -49t43 -127z" />
    <glyph glyph-name="uni032E" unicode="&#x32e;" horiz-adv-x="0" 
d="M-219 -150q0 -130 -99 -210t-251 -80q-151 0 -248.5 80t-97.5 210h88q9 -84 77 -130t183 -46t182 46t76 130h90z" />
    <glyph glyph-name="uni032F" unicode="&#x32f;" horiz-adv-x="0" 
d="M-219 -440h-88q-9 84 -77 130t-183 46t-182 -46t-76 -130h-90q0 130 99 210t251 80q151 0 248.5 -80t97.5 -210z" />
    <glyph glyph-name="uni0330" unicode="&#x330;" horiz-adv-x="0" 
d="M-229 -186q-10 -97 -72 -157t-150 -60q-40 0 -72 10t-110 47q-63 29 -106 29q-35 0 -61 -22.5t-36 -63.5h-71q20 95 75 150.5t130 55.5q36 0 64.5 -8.5t111.5 -46.5q88 -39 120 -39q35 0 65.5 30.5t39.5 74.5h72z" />
    <glyph glyph-name="uni0331" unicode="&#x331;" horiz-adv-x="0" 
d="M-248 -350h-641v110h641v-110z" />
    <glyph glyph-name="uni0332" unicode="&#x332;" horiz-adv-x="0" 
d="M-248 -350h-641v110h641v-110z" />
    <glyph glyph-name="Alpha" unicode="&#x391;" horiz-adv-x="1478" 
d="M1497 0h-635v96h86q57 0 92 14.5t35 39.5q0 14 -16 55l-111 274h-542l-68 -180q-19 -52 -19 -86q0 -117 166 -117h41v-96h-542v96h28q76 0 112.5 38.5t92.5 178.5l471 1194h86l522 -1280q36 -88 61.5 -109.5t100.5 -21.5h39v-96zM905 590l-231 581l-228 -581h459z" />
    <glyph glyph-name="Beta" unicode="&#x392;" horiz-adv-x="1478" 
d="M1372 401q0 -188 -151 -294.5t-416 -106.5h-744v96h37q67 0 100 2.5t54 14t26 28.5t5 52v1093q0 35 -5 52t-26 28t-54 13.5t-100 2.5h-37v97h736q235 0 366 -92.5t131 -268.5q0 -130 -83.5 -221t-247.5 -125q209 -37 309 -128t100 -243zM1057 1092q0 149 -75.5 219.5
t-252.5 70.5h-82q-79 0 -107 -21t-28 -81v-467h182q196 0 279.5 64t83.5 215zM1120 408q0 170 -95.5 239.5t-332.5 69.5h-180v-492q0 -85 20.5 -107t98.5 -22h86q218 0 310.5 67.5t92.5 244.5z" />
    <glyph glyph-name="Gamma" unicode="&#x393;" horiz-adv-x="1366" 
d="M1307 954h-90q-15 91 -32 153.5t-44 112.5t-60.5 79.5t-85 49t-113 26.5t-149.5 7h-94q-83 0 -106 -18t-23 -84v-1087q0 -35 4.5 -52t26 -28.5t54 -14t99.5 -2.5h68v-96h-703v96h37q67 0 100 2.5t54 14t26 28.5t5 52v1093q0 35 -5 52t-26 28t-54 13.5t-100 2.5h-37v97
h1248v-525z" />
    <glyph glyph-name="Delta" unicode="&#x394;" horiz-adv-x="1253" 
d="M1245 0h-1233l658 1409zM981 104l-387 938l-436 -938h823z" />
    <glyph glyph-name="Epsilon" unicode="&#x395;" horiz-adv-x="1478" 
d="M1358 547l-41 -547h-1258v96h37q67 0 100 2.5t54 14t26 28.5t5 52v1093q0 35 -5 52t-26 28t-54 13.5t-100 2.5h-37v97h1260v-525h-88q-15 93 -32.5 156.5t-44.5 113.5t-60 79t-85 47.5t-113.5 25t-150.5 6.5h-106q-83 0 -106 -18t-23 -84v-467h49q146 0 213 65t74 216h96
v-672h-96q-2 53 -6.5 89.5t-16 72.5t-32 58.5t-52.5 40.5t-78.5 26t-109.5 8h-41v-522q0 -61 32 -80t115 -19h136q121 0 200 22t133.5 78t85.5 137t56 214h90z" />
    <glyph glyph-name="Zeta" unicode="&#x396;" horiz-adv-x="1251" 
d="M1178 569l-37 -569h-1092v74l838 1308h-266q-107 0 -172.5 -17t-115 -66t-78 -127t-54.5 -211h-92l41 518h1015v-74l-841 -1309h340q100 0 178 28t116 79q44 56 72.5 140t50.5 226h97z" />
    <glyph glyph-name="Eta" unicode="&#x397;" horiz-adv-x="1705" 
d="M1647 0h-672v96h37q67 0 99.5 2.5t54 14t26 28.5t4.5 52v518h-686v-518q0 -35 4.5 -52t26 -28.5t54 -14t99.5 -2.5h39v-96h-674v96h37q67 0 100 2.5t54 14t26 28.5t5 52v1093q0 35 -5 52t-26 28t-54 13.5t-100 2.5h-37v97h674v-97h-39q-88 0 -123.5 -6.5t-48 -25
t-12.5 -64.5v-465h686v465q0 46 -12.5 64.5t-48 25t-123.5 6.5h-29v97h664v-97h-37q-67 0 -100 -2.5t-54 -13.5t-26 -28t-5 -52v-1093q0 -35 5 -52t26 -28.5t54 -14t100 -2.5h37v-96z" />
    <glyph glyph-name="Theta" unicode="&#x398;" horiz-adv-x="1593" 
d="M1501 739q0 -162 -54 -305t-147 -245t-224 -161t-279 -59q-197 0 -358.5 100.5t-254 276.5t-92.5 391q0 125 33 241.5t96 212t149 167.5t198 111.5t237 39.5q194 0 353.5 -101.5t251 -278t91.5 -390.5zM1231 739q0 78 -5 145.5t-17.5 137.5t-33 126t-54 107t-77 85
t-105 53.5t-136.5 19.5q-107 0 -187 -37t-128 -97t-77 -150t-39 -181t-10 -205q0 -94 7 -171.5t23.5 -158t48.5 -140.5t79 -108t117 -73.5t160 -25.5q76 0 138.5 19.5t107 53t78.5 84t54.5 106t33 126t17.5 138t5 146.5zM1098 420h-97v41q0 44 -0.5 69.5t-6 45.5t-9 28
t-18 13t-25 5.5t-37.5 0.5h-213q-26 0 -37.5 -0.5t-25 -6.5t-18 -14.5t-9.5 -29t-5.5 -46t-0.5 -69.5v-41h-96v637h96v-41q0 -51 2.5 -78.5t5.5 -46.5t15.5 -25.5t24 -8t39.5 -1.5h9h213q27 0 37.5 0.5t25 5.5t18 13.5t9 28.5t6 46t0.5 70v41h97v-637z" />
    <glyph glyph-name="Iota" unicode="&#x399;" horiz-adv-x="833" 
d="M756 0h-678v96h41q67 0 99.5 2.5t54 14t26 28.5t4.5 52v1093q0 46 -12.5 64.5t-48 25t-123.5 6.5h-41v97h678v-97h-41q-66 0 -98.5 -2.5t-53.5 -13.5t-26 -28t-5 -52v-1093q0 -46 12.5 -64.5t48.5 -25.5t122 -7h41v-96z" />
    <glyph glyph-name="Kappa" unicode="&#x39a;" horiz-adv-x="1593" 
d="M1645 0h-701v96h64q75 0 107 11t32 36t-41 86l-356 523l-238 -240v-319q0 -35 4.5 -52t26 -28.5t54 -14t99.5 -2.5h39v-96h-674v96h37q67 0 100 2.5t54 14t26 28.5t5 52v1093q0 35 -5 52t-26 28t-54 13.5t-100 2.5h-37v97h674v-97h-39q-88 0 -123.5 -6.5t-48 -25
t-12.5 -64.5v-616l502 504q45 45 72.5 85t27.5 62q0 32 -31.5 46.5t-101.5 14.5h-51v97h631v-97q-92 0 -183 -42.5t-164 -120.5l-305 -306l496 -714q45 -67 79.5 -85t121.5 -18h39v-96z" />
    <glyph glyph-name="Lambda" unicode="&#x39b;" horiz-adv-x="1478" 
d="M1497 0h-635v96h86q57 0 92 14.5t35 39.5q0 14 -16 55l-385 966l-336 -872q-19 -52 -19 -86q0 -117 166 -117h41v-96h-542v96h28q76 0 112.5 38.5t92.5 178.5l471 1194h86l522 -1280q36 -88 61.5 -109.5t100.5 -21.5h39v-96z" />
    <glyph glyph-name="Mu" unicode="&#x39c;" horiz-adv-x="1933" 
d="M1870 0h-672v96h37q88 0 123.5 6.5t48 25t12.5 65.5v1155l-456 -1348h-82l-488 1348v-906q0 -87 6 -143t20.5 -96.5t43 -62t67 -31.5t99.5 -13v-96h-584v96q77 3 121 17.5t71.5 54.5t36.5 102.5t9 171.5v844q0 35 -5 52t-26 28t-54 13.5t-100 2.5h-39v97h529l393 -1092
l375 1092h514v-97h-37q-88 0 -123.5 -6.5t-48 -25t-12.5 -64.5v-1093q0 -47 12.5 -65.5t48 -25t123.5 -6.5h37v-96z" />
    <glyph glyph-name="Nu" unicode="&#x39d;" horiz-adv-x="1669" 
d="M1626 1382q-51 -2 -86 -8.5t-63 -23t-44 -40t-26.5 -63.5t-14 -90t-3.5 -123v-1063h-86l-914 1233v-760q0 -88 6 -144t20.5 -97t43 -62.5t67 -31.5t99.5 -13v-96h-584v96q77 3 121 17.5t71.5 55t36.5 103t9 172.5v871q-28 38 -69 52.5t-120 14.5h-51v97h422l817 -1088
v643q0 88 -6 144t-20.5 97t-43 62.5t-67 31.5t-99.5 13v97h584v-97z" />
    <glyph glyph-name="Xi" unicode="&#x39e;" horiz-adv-x="1572" 
d="M1573 451h-53q-19 -47 -31 -72t-34 -55t-48 -44t-67.5 -28t-98 -18.5t-135.5 -4.5h-637q-79 0 -135.5 4.5t-98 18.5t-67.5 28t-48 44t-34 55t-31 72h-53l111 -451h1349zM1573 1028h-53q-19 47 -31 72t-34 54.5t-48 44t-67.5 28t-98 18t-135.5 4.5h-637q-79 0 -135.5 -4.5
t-98 -18t-67.5 -28t-48 -44t-34 -54.5t-31 -72h-53l111 451h1349zM1237 420h-96v41q0 33 -0.5 54.5t-3 40t-4 29t-9 19t-11.5 11.5t-18 5.5t-22 2.5h-29h-520q-26 0 -37.5 -0.5t-25 -6.5t-18 -14.5t-9.5 -29t-5.5 -46t-0.5 -69.5v-41h-96v637h96v-41q0 -51 2.5 -78.5
t5.5 -46.5t15.5 -25.5t24 -8t39.5 -1.5h9h520h29t22 2.5t18 5.5t11.5 11.5t9 19.5t4 29.5t3 40.5t0.5 55v41h96v-637z" />
    <glyph glyph-name="Omicron" unicode="&#x39f;" horiz-adv-x="1593" 
d="M1501 739q0 -162 -54 -305t-147 -245t-224 -161t-279 -59q-197 0 -358.5 100.5t-254 276.5t-92.5 391q0 156 52 297t144 246t226.5 167t290.5 62q194 0 353.5 -101.5t251 -278t91.5 -390.5zM1231 739q0 674 -428 674q-221 0 -331 -163.5t-110 -506.5q0 -348 109 -512.5
t326 -164.5q216 0 325 164t109 509z" />
    <glyph glyph-name="Pi" unicode="&#x3a0;" horiz-adv-x="1705" 
d="M1647 0h-672v96h37q67 0 99.5 2.5t54 14t26 28.5t4.5 52v1093q0 46 -12.5 64.5t-48 25t-123.5 6.5h-318q-88 0 -123.5 -6.5t-48 -25t-12.5 -64.5v-1093q0 -35 4.5 -52t26 -28.5t54 -14t99.5 -2.5h39v-96h-674v96h37q67 0 100 2.5t54 14t26 28.5t5 52v1093q0 35 -5 52
t-26 28t-54 13.5t-100 2.5h-37v97h1588v-97h-37q-67 0 -100 -2.5t-54 -13.5t-26 -28t-5 -52v-1093q0 -35 5 -52t26 -28.5t54 -14t100 -2.5h37v-96z" />
    <glyph glyph-name="Rho" unicode="&#x3a1;" horiz-adv-x="1366" 
d="M1329 1073q0 -121 -59 -215t-168 -147q-62 -29 -144 -41.5t-219 -12.5h-231v-464q0 -35 4.5 -52t26 -28.5t54 -14t99.5 -2.5h53v-96h-688v96h37q67 0 100 2.5t54 14t26 28.5t5 52v1093q0 35 -5 52t-26 28t-54 13.5t-100 2.5h-37v97h717q277 0 416 -105.5t139 -300.5z
M1077 1065q0 163 -76.5 240t-236.5 77h-131q-85 0 -105 -16.5t-20 -87.5v-524h248q163 0 242 76.5t79 234.5z" />
    <glyph glyph-name="Sigma" unicode="&#x3a3;" horiz-adv-x="1388" 
d="M1350 430l-111 -430h-1210l495 653l-477 826h1215l20 -338h-53q-18 107 -51 159.5t-96 73.5t-185 21h-537l385 -627l-411 -539h598q123 0 187.5 16.5t103.5 57.5t73 127h54z" />
    <glyph glyph-name="Tau" unicode="&#x3a4;" horiz-adv-x="1366" 
d="M1327 909h-88q-24 172 -68 281q-38 92 -110 142t-166 50q-51 0 -73.5 -17.5t-22.5 -55.5v-1116q0 -35 4.5 -52t25.5 -28.5t53.5 -14t98.5 -2.5h53v-96h-702v96h53q67 0 99.5 2.5t54 14t26 28.5t4.5 52v1116q0 38 -22.5 55.5t-73.5 17.5q-211 0 -291 -227
q-35 -101 -55 -246h-88l31 570h1226z" />
    <glyph glyph-name="Upsilon" unicode="&#x3a5;" horiz-adv-x="1441" 
d="M1399 1110h-86q0 70 -40.5 123t-101.5 53q-65 0 -116 -26t-83.5 -62.5t-55.5 -105t-34.5 -123t-17.5 -148.5t-7 -150.5t-1 -158.5v-319q0 -29 3.5 -44.5t12 -27.5t31.5 -16.5t52 -6.5t83 -2h54v-96h-703v96h53q67 0 100 2.5t54 14t26 28.5t5 52v319q0 89 -2.5 158.5
t-11 153.5t-22.5 146.5t-40 125t-61 102t-87.5 64t-117.5 24.5q-66 0 -111 -52.5t-45 -123.5h-86q0 96 25.5 177.5t82 136.5t134.5 55q82 0 148.5 -30t113 -80.5t81.5 -126t55 -156.5t32.5 -182.5t17 -193t4.5 -198.5h8q0 85 1.5 153.5t7 151.5t15 148.5t25.5 136.5
t38.5 124t54.5 102.5t72.5 81.5t94 50.5t117.5 18.5q76 0 129.5 -55.5t76 -136.5t22.5 -177z" />
    <glyph glyph-name="Phi" unicode="&#x3a6;" horiz-adv-x="1454" 
d="M1374 739q0 -90 -43 -163.5t-118 -122.5t-168 -79.5t-201 -41.5v-139q0 -35 4.5 -52t25.5 -28.5t53.5 -14t98.5 -2.5h41v-96h-678v96h41q67 0 99.5 2.5t54 14t26 28.5t4.5 52v139q-109 11 -202.5 41t-168.5 79t-118 122.5t-43 164.5t43 164.5t118 122.5t168.5 79.5
t202.5 41.5v139q0 46 -12.5 64.5t-48 25t-123.5 6.5h-41v97h678v-97h-41q-87 0 -122 -6.5t-47.5 -25t-12.5 -64.5v-139q86 -9 162.5 -29.5t144.5 -55.5t117 -80.5t77.5 -108t28.5 -134.5zM614 1055q-138 -28 -228.5 -111.5t-90.5 -204.5t90.5 -204t228.5 -111v631zM1161 739
q0 121 -90 204.5t-227 111.5v-631q138 28 227.5 111t89.5 204z" />
    <glyph glyph-name="Chi" unicode="&#x3a7;" horiz-adv-x="1441" 
d="M1466 0h-671v96h57q66 0 94 3t35.5 10t7.5 24q0 23 -26 64l-306 432l-237 -344q-33 -51 -33 -90q0 -46 36 -72.5t97 -26.5h51v-96h-581v96h28q76 -1 129.5 36.5t118.5 127.5l332 461l-403 584q-35 50 -65.5 63.5t-106.5 13.5h-35v97h633v-97h-78q-58 0 -78.5 -5.5
t-20.5 -20.5q0 -18 23 -51l272 -394l222 322q28 40 28 70q0 43 -25 61t-96 18h-49v97h563v-97h-32q-82 0 -139.5 -38.5t-141.5 -153.5l-272 -371l430 -616q38 -55 59.5 -74t51.5 -26t100 -7h28v-96z" />
    <glyph glyph-name="Psi" unicode="&#x3a8;" horiz-adv-x="1484" 
d="M1403 1141q-22 0 -39.5 -7t-29.5 -23t-21 -32t-14 -44.5t-8.5 -48.5t-4.5 -56t-1.5 -55.5t-0.5 -57.5q0 -178 -121.5 -310.5t-304.5 -168.5v-145q0 -35 4.5 -52t25.5 -28.5t53.5 -14t98.5 -2.5h41v-96h-678v96h41q67 0 100 2.5t54 14t26 28.5t5 52v145q-184 34 -306 167
t-122 312q0 38 -0.5 57.5t-1.5 55.5t-4.5 56t-8.5 48.5t-14 44.5t-21 32t-29.5 23t-39.5 7v86q96 0 173.5 -58.5t118 -151.5t40.5 -200q0 -128 58.5 -233.5t156.5 -147.5v850q0 35 -5 52t-26 28t-54 13.5t-100 2.5h-41v97h678v-97h-41q-87 0 -122 -6.5t-47.5 -25
t-12.5 -64.5v-850q97 44 155 149.5t58 231.5q0 107 40.5 200t118 151.5t173.5 58.5v-86z" />
    <glyph glyph-name="Omega" unicode="&#x3a9;" horiz-adv-x="1572" 
d="M1573 430l-111 -430h-547v229q0 52 22 103t56 91t74 89t74 95.5t57 112.5t23 138q0 110 -10 190t-37.5 152t-75 117t-124 70.5t-181.5 25.5q-91 0 -160.5 -16t-118 -49.5t-80.5 -78t-50 -109.5t-25 -135t-7 -163q0 -86 31.5 -162t76 -131.5t89.5 -107t76 -111t30 -121.5
v-229h-542l-111 430h53q45 -118 143.5 -159.5t323.5 -41.5q0 47 -24.5 93t-63 84.5t-85.5 78t-94 80.5t-85.5 84t-63 96.5t-24.5 110.5q0 206 89.5 354.5t249.5 223.5t374 75q149 0 275 -41.5t220.5 -121t147.5 -204.5t53 -284q0 -57 -24.5 -111.5t-64 -97.5t-87 -84.5
t-95.5 -81t-87.5 -78.5t-64 -84.5t-24.5 -91.5q161 0 251.5 18t141.5 60t83 123h53z" />
    <glyph glyph-name="alpha" unicode="&#x3b1;" horiz-adv-x="1583" 
d="M1501 236q0 -108 -48 -187.5t-132 -79.5q-113 0 -192.5 77.5t-127.5 207.5q-69 -133 -156 -209t-206 -76q-148 0 -276 65t-204.5 181t-76.5 256q0 107 45 203.5t120.5 164t178 107t213.5 39.5q143 0 260 -83t184 -220q91 227 181 317l116 -114q-167 -163 -250 -334
q10 -34 13 -66q34 -219 61 -299q45 -131 117 -131q94 0 94 181h86zM967 379q-9 41 -15 78q-13 88 -35 161.5t-58 139.5t-92.5 103.5t-127.5 37.5q-100 0 -180 -60.5t-122 -158t-42 -209.5q0 -168 97.5 -292t246.5 -124q49 0 93 18t76.5 47t63 73t51.5 87t44 99z" />
    </font>
</defs>
</svg>
