<?xml version="1.0" standalone="no"?>
<!DOCTYPE svg PUBLIC "-//W3C//DTD SVG 1.1//EN" "http://www.w3.org/Graphics/SVG/1.1/DTD/svg11.dtd" >
<svg xmlns="http://www.w3.org/2000/svg" xmlns:xlink="http://www.w3.org/1999/xlink" version="1.1">
<metadata>
Created by FontForge 20201107 at Thu Jul 17 00:25:36 2025
 By 
Copyright 2006, 2009 for TeX Gyre extensions by B. Jackowski and J.M. Nowacki (on behalf of TeX users groups). This work is released under the GUST Font License --  see http://tug.org/fonts/licenses/GUST-FONT-LICENSE.txt for details.
</metadata>
<defs>
<font id="TeXGyreSchola-BoldItalic" horiz-adv-x="681" >
  <font-face 
    font-family="TeXGyreSchola"
    font-weight="700"
    font-style="italic"
    font-stretch="normal"
    units-per-em="2048"
    panose-1="0 0 8 0 0 0 0 0 0 0"
    ascent="1634"
    descent="-414"
    x-height="979"
    cap-height="1479"
    bbox="-1227 -760 3150 2380"
    underline-thickness="110"
    underline-position="-208"
    slope="-15"
    unicode-range="U+0020-FB04"
  />
<missing-glyph horiz-adv-x="573" 
 />
    <glyph glyph-name="I_J" unicode="IJ" horiz-adv-x="2203" 
d="M934 0h-764l14 111h41q62 0 87.5 6t41.5 22q14 12 21.5 32.5t34.5 123.5l237 889q29 102 29 129q0 34 -31 44.5t-131 10.5h-45l16 111h764l-14 -111h-43q-61 0 -86 -6.5t-41 -22.5q-14 -11 -20.5 -30t-34.5 -125l-238 -889q-29 -113 -29 -129q0 -34 31 -44.5t131 -10.5
h45zM2480 1368h-41q-60 0 -83 -6t-42 -23q-12 -12 -18.5 -31.5t-34.5 -123.5l-168 -623q-56 -207 -68.5 -245.5t-37.5 -84.5q-75 -136 -195 -199t-305 -63q-232 0 -356.5 97.5t-124.5 279.5q0 143 76 234.5t196 91.5q98 0 158.5 -55t60.5 -144q0 -80 -51.5 -135t-126.5 -55
q-22 0 -54 11.5t-56.5 22.5t-26.5 11q-37 0 -37 -52q0 -80 66 -135t161 -55q72 0 137.5 39t108.5 108q34 56 49.5 99.5t56.5 199.5l174 652q29 107 29 129q0 34 -31 44.5t-131 10.5h-61l16 111h774z" />
    <glyph glyph-name="i_j" unicode="ij" horiz-adv-x="1611" 
d="M975 305q-104 -175 -205.5 -255.5t-218.5 -80.5q-92 0 -152.5 52.5t-60.5 132.5q0 48 31 151l104 348q31 102 31 138q0 38 -25 50.5t-100 12.5h-49l14 96l547 29l-215 -729q-21 -73 -21 -86q0 -14 9.5 -23.5t23.5 -9.5q62 0 207 231zM950 1292q0 -62 -43 -104.5
t-104 -42.5q-60 0 -103 43.5t-43 103.5t43.5 103t104.5 43q60 0 102.5 -43t42.5 -103zM1784 979l-244 -825q-48 -161 -82.5 -236.5t-93.5 -146.5q-147 -185 -365 -185q-129 0 -214 65t-85 165q0 75 44.5 122.5t115.5 47.5q70 0 111 -41.5t41 -112.5q0 -40 -11.5 -59
t-46.5 -41q-12 -6 -12 -21q0 -10 10 -17t25 -7q60 0 100 65t94 248l195 653q31 105 31 138q0 38 -25 50.5t-100 12.5h-66l15 96zM1839 1292q0 -62 -42.5 -104.5t-104.5 -42.5q-60 0 -103 43.5t-43 103.5t43.5 103t104.5 43q60 0 102.5 -43t42.5 -103z" />
    <glyph glyph-name="f_k" unicode="fk" horiz-adv-x="2082" 
d="M1952 276q-78 -161 -166 -234t-205 -73q-100 0 -154.5 57.5t-54.5 163.5q0 48 10 113q9 43 9 68q0 16 -11 35q-24 -3 -43 -3q-34 0 -53.5 16t-19.5 44t20.5 45.5t52.5 17.5q37 0 95 -26q233 76 233 219q0 41 -26.5 66.5t-69.5 25.5q-56 0 -113 -39t-127 -125
q-61 -73 -101 -158.5t-85 -236.5l-76 -252h-322l351 1184l2 4q-47 -66 -131 -66q-60 0 -100 38.5t-40 96.5q0 31 10 54.5t40 62.5l10 19q0 9 -13 14.5t-32 5.5q-50 0 -84 -33.5t-64.5 -112.5t-68.5 -233l-21 -84h260l-33 -125h-256l-96 -438q-94 -444 -207 -754l-370 -53
q87 138 239 692l131 553h-202l34 125h201q41 149 84 239.5t105 158.5q148 161 352 161q81 0 145 -28l525 26l-224 -747q119 124 210 172.5t202 48.5q107 0 174.5 -56t67.5 -145q0 -72 -48.5 -136.5t-140.5 -115.5q-73 -42 -209 -88q49 -27 73 -56.5t36.5 -76.5t19.5 -135
q3 -39 33 -39q35 0 76 51t78 140z" />
    <glyph glyph-name="f_f" unicode="ff" horiz-adv-x="1593" 
d="M1923 1284q0 -70 -45.5 -116t-114.5 -46q-60 0 -99.5 38.5t-39.5 96.5q0 32 9.5 55t39.5 62l10 19q0 9 -13 14.5t-32 5.5q-50 0 -84 -33.5t-64.5 -112.5t-68.5 -233l-20 -84h260l-33 -125h-256l-96 -438q-94 -444 -207 -754l-371 -53q89 141 240 692l131 553h-494
l-96 -438q-94 -444 -207 -754l-370 -53q87 138 239 692l131 553h-202l34 125h201q41 149 84 239.5t105 158.5q148 161 352 161q123 0 201.5 -63.5t78.5 -161.5q0 -70 -45 -116t-114 -46q-60 0 -100 38.5t-40 96.5q0 31 10 54.5t40 62.5l10 19q0 9 -13 14.5t-32 5.5
q-50 0 -84 -33.5t-64.5 -112.5t-68.5 -233l-21 -84h498q41 150 84 240.5t104 157.5q148 161 352 161q123 0 202 -63.5t79 -161.5z" />
    <glyph glyph-name="f_i" unicode="fi" horiz-adv-x="1402" 
d="M1323 305q-104 -175 -205.5 -255.5t-218.5 -80.5q-92 0 -152.5 52.5t-60.5 132.5q0 48 31 151l96 322q33 119 33 143q0 23 -18 39t-44 16h-254l-96 -440q-95 -452 -207 -752l-370 -53q89 141 239 690l131 555h-202l34 125h201q101 301 250 430t395 129q159 0 254.5 -62.5
t95.5 -166.5q0 -69 -46.5 -115.5t-116.5 -46.5t-114 39.5t-44 102.5q0 45 33 94q16 21 16 30q0 29 -68 29q-106 0 -192 -92q-54 -55 -92 -141.5t-72 -229.5h133q156 0 547 29l-215 -729q-20 -68 -20 -86q0 -14 9.5 -23.5t22.5 -9.5q64 0 207 231z" />
    <glyph glyph-name="f_l" unicode="fl" horiz-adv-x="1402" 
d="M1331 305q-63 -114 -176 -221q-63 -60 -123.5 -87.5t-132.5 -27.5q-94 0 -151.5 52t-57.5 135q0 66 45 219l238 801q-28 24 -39.5 45t-11.5 51q0 28 9.5 48.5t37.5 51.5l8 14q0 11 -21.5 18t-54.5 7q-155 0 -254 -199q-46 -91 -88 -262h260l-33 -125h-256l-96 -440
q-95 -452 -207 -752l-370 -53q89 141 239 690l131 555h-202l34 125h201q60 175 103.5 256.5t109.5 141.5q82 74 191.5 116.5t218.5 42.5q90 0 178 -30l334 30l-373 -1257q-7 -21 -10 -33q-11 -37 -11 -53q0 -14 9.5 -23.5t23.5 -9.5q44 0 123 100q61 76 94 131z" />
    <glyph glyph-name="f_f_i" unicode="&#xfb00;i" horiz-adv-x="2220" 
d="M2140 305q-104 -175 -205.5 -255.5t-218.5 -80.5q-92 0 -152.5 52.5t-60.5 132.5q0 48 31 151l96 322q33 119 33 143q0 23 -17.5 39t-43.5 16h-254l-97 -440q-95 -452 -207 -752l-370 -53q89 141 239 690l131 555h-469l-96 -438q-94 -444 -207 -754l-370 -53
q87 138 239 692l131 553h-202l34 125h201q41 149 84 239.5t105 158.5q148 161 352 161q123 0 201.5 -63.5t78.5 -161.5q0 -70 -45 -116t-114 -46q-60 0 -100 38.5t-40 96.5q0 31 10 54.5t40 62.5l10 19q0 9 -13 14.5t-32 5.5q-50 0 -84 -33.5t-64.5 -112.5t-68.5 -233
l-21 -84h473q101 301 250 430t395 129q159 0 255 -62.5t96 -166.5q0 -69 -47 -115.5t-117 -46.5t-114 39.5t-44 102.5q0 45 33 94q16 21 16 30q0 29 -67 29q-107 0 -193 -92q-54 -55 -92 -141.5t-72 -229.5h133q155 0 547 29l-215 -729q-20 -68 -20 -86q0 -14 9.5 -23.5
t22.5 -9.5q64 0 207 231z" />
    <glyph glyph-name="f_f_l" unicode="ffl" horiz-adv-x="2199" 
d="M2128 305q-63 -114 -176 -221q-63 -60 -123.5 -87.5t-132.5 -27.5q-94 0 -151.5 52t-57.5 135q0 66 45 219l237 801q-28 24 -39.5 45t-11.5 51q0 28 9.5 48.5t37.5 51.5l9 14q0 11 -21.5 18t-54.5 7q-155 0 -254 -199q-46 -91 -88 -262h260l-33 -125h-256l-96 -440
q-95 -452 -207 -752l-371 -53q91 144 240 690l131 555h-449l-96 -438q-94 -444 -207 -754l-370 -53q87 138 239 692l131 553h-202l34 125h201q41 149 84 239.5t105 158.5q148 161 352 161q123 0 201.5 -63.5t78.5 -161.5q0 -70 -45 -116t-114 -46q-60 0 -100 38.5t-40 96.5
q0 31 10 54.5t40 62.5l10 19q0 9 -13 14.5t-32 5.5q-50 0 -84 -33.5t-64.5 -112.5t-68.5 -233l-21 -84h453q60 175 103.5 256.5t109.5 141.5q82 74 191.5 116.5t217.5 42.5q91 0 179 -30l333 30l-372 -1257q-1 -4 -4 -11.5t-4.5 -12.5t-2.5 -9q-10 -33 -10 -53
q0 -14 10 -23.5t23 -9.5q44 0 123 100q61 76 94 131z" />
    <glyph glyph-name=".notdef" horiz-adv-x="573" 
 />
    <glyph glyph-name=".null" horiz-adv-x="0" 
 />
    <glyph glyph-name="nonmarkingreturn" horiz-adv-x="682" 
 />
    <glyph glyph-name="space" unicode=" " horiz-adv-x="587" 
 />
    <glyph glyph-name="exclam" unicode="!" 
d="M688 1346q0 -50 -14 -86.5t-99 -206.5q-91 -182 -142.5 -306.5t-121.5 -330.5l-106 26q92 417 104 719q6 140 14.5 189.5t34.5 87.5q49 71 129 71q89 0 145 -45.5t56 -117.5zM362 147q0 -74 -52.5 -126t-127.5 -52q-72 0 -124 53t-52 125q0 74 52.5 126.5t125.5 52.5
t125.5 -52.5t52.5 -126.5z" />
    <glyph glyph-name="quotedbl" unicode="&#x22;" horiz-adv-x="819" 
d="M551 1358q0 -52 -33 -111l-219 -434l-94 27l43 483q7 88 46 134t105 46q64 0 108 -41.5t44 -103.5zM1038 1358q0 -54 -32 -111l-220 -434l-94 27l43 483q7 88 46.5 134t105.5 46q64 0 107.5 -41.5t43.5 -103.5z" />
    <glyph glyph-name="numbersign" unicode="#" horiz-adv-x="1175" 
d="M1038 453h-217l-65 -453h-185l66 453h-176l-66 -453h-184l65 453h-192v170h217l33 221h-197v170h219l62 420h184l-61 -420h176l59 420h185l-60 -420h191v-170h-215l-31 -221h192v-170zM659 623l33 221h-174l-33 -221h174z" />
    <glyph glyph-name="dollar" unicode="$" horiz-adv-x="1175" 
d="M1024 434q0 -135 -85 -253t-220 -169q-44 -17 -121 -30t-133 -13h-19l-71 -266h-111l76 279q-154 29 -244 117.5t-90 209.5q0 92 50.5 148.5t133.5 56.5q68 0 112 -40t44 -103q0 -85 -86 -129q-31 -17 -41 -28t-10 -28q0 -31 41.5 -58t116.5 -46l135 502l-29 14
q-276 129 -276 375q0 201 141.5 324.5t370.5 123.5h16l55 205h111l-57 -217q146 -26 228.5 -111t82.5 -208q0 -82 -47 -132.5t-123 -50.5q-66 0 -107 41t-41 107q0 49 22 79t73 52q26 12 26 31q0 29 -40 55.5t-101 38.5l-125 -463l53 -25q137 -66 213 -168.5t76 -220.5z
M780 313q0 75 -40.5 125.5t-139.5 100.5l-127 -469q135 3 221 71t86 172zM586 897l112 422q-128 -4 -200 -64.5t-72 -162.5q0 -66 38.5 -113t121.5 -82z" />
    <glyph glyph-name="percent" unicode="%" horiz-adv-x="1820" 
d="M1384 1479l-847 -1479h-107l721 1260q-112 -37 -201 -37q-61 0 -129 18q6 -53 6 -76q0 -122 -64.5 -243t-170 -199t-215.5 -78q-119 0 -196 74t-77 188q0 91 42 188.5t108 175.5t156 128.5t178 50.5q62 0 106 -23t84 -75q81 -41 178 -41q107 0 186.5 40t145.5 128h96z
M745 1192q0 36 -12 76q-40 15 -65.5 32.5t-53.5 47.5q-57 -20 -88 -52.5t-86 -130.5q-69 -122 -96 -189.5t-27 -119.5q0 -49 29.5 -80t75.5 -31q76 0 151.5 66.5t123.5 171t48 209.5zM1712 580q0 -85 -35 -181t-93 -178.5t-144 -137t-178 -54.5q-120 0 -198.5 73t-78.5 185
q0 126 67.5 253.5t179.5 210.5t230 83q109 0 179.5 -72t70.5 -182zM1626 573q0 65 -34 110.5t-83 45.5q-81 0 -168 -141q-80 -132 -113.5 -213t-33.5 -139q0 -44 29.5 -75.5t72.5 -31.5q77 0 154.5 66.5t126.5 170.5t49 207z" />
    <glyph glyph-name="ampersand" unicode="&#x26;" horiz-adv-x="1820" 
d="M1651 246q-179 -277 -445 -277q-187 0 -307 129q-181 -129 -391 -129q-198 0 -321.5 110t-123.5 288q0 96 30 170t94.5 133.5t151 105.5t214.5 94q-31 117 -31 211q0 208 117.5 318t327.5 110q172 0 272 -76t100 -206q0 -126 -102 -208.5t-338 -148.5q26 -107 87 -251.5
t122 -245.5q100 103 137 156t37 94q0 20 -4.5 31.5t-21 23.5t-52.5 19.5t-96 11.5l12 104h566l-13 -104q-77 -6 -123.5 -28t-100 -78t-153.5 -187q-31 -42 -131 -142q68 -82 107.5 -109.5t85.5 -27.5q95 0 213 170zM1106 1253q0 66 -35 108t-90 42q-66 0 -103.5 -59.5
t-37.5 -165.5q0 -99 30 -201q115 44 175.5 115t60.5 161zM831 184q-152 242 -251 578q-172 -79 -172 -270q0 -150 79 -250.5t197 -100.5q70 0 147 43z" />
    <glyph glyph-name="quotesingle" unicode="'" horiz-adv-x="587" 
d="M551 1358q0 -52 -33 -111l-219 -434l-94 27l43 483q7 88 46 134t105 46q64 0 108 -41.5t44 -103.5z" />
    <glyph glyph-name="parenleft" unicode="(" horiz-adv-x="833" 
d="M514 -197l-61 -45q-148 149 -228 339t-80 390q0 213 95 416.5t265 362t388 243.5l33 -65q-142 -83 -230 -183.5t-157 -259.5q-68 -157 -114 -376.5t-46 -384.5q0 -244 135 -437z" />
    <glyph glyph-name="parenright" unicode=")" horiz-adv-x="833" 
d="M631 780q0 -212 -94.5 -416.5t-264 -363.5t-383.5 -242l-32 66q139 82 225.5 182t155.5 260q67 158 113 378t46 384q0 242 -135 436l62 45q147 -149 227 -339t80 -390z" />
    <glyph glyph-name="asterisk" unicode="*" horiz-adv-x="1024" 
d="M967 1153q0 -44 -35 -75t-86 -31q-22 0 -96 14q-31 8 -56 8q-38 0 -90 -14l-35 -11l25 -24q47 -46 68.5 -58t103.5 -38q106 -36 106 -121q0 -41 -29.5 -71t-70.5 -30q-52 0 -92 50q-12 15 -18.5 30t-26.5 76q-12 38 -27 62t-51 61l-27 27l-10 -37q-14 -52 -14 -90
q0 -21 18 -107q6 -21 6 -45q0 -50 -32 -85.5t-76 -35.5q-40 0 -67 30t-27 73q0 34 13 58.5t62 84.5q26 31 38.5 55.5t25.5 75.5l10 37l-35 -10q-62 -19 -84 -32t-84 -71q-54 -45 -104 -45q-43 0 -73.5 29t-30.5 70q0 43 36 73.5t88 30.5q21 0 93 -12q30 -6 49 -6q34 0 96 16
l35 8l-25 27q-47 44 -70 56.5t-102 37.5q-51 17 -78.5 49.5t-27.5 73.5q0 40 27 68t65 28q57 0 96 -51q18 -26 47 -102q13 -38 28 -60t52 -61l27 -27l10 35q14 52 14 90q0 22 -18 106q-6 24 -6 48q0 48 32 83t76 35q41 0 71 -30.5t30 -73.5q0 -35 -13.5 -58.5t-66.5 -82.5
q-28 -31 -40.5 -55.5t-27.5 -75.5l-8 -35l35 10q63 19 85 32t83 68q51 45 104 45q43 0 74 -29.5t31 -70.5z" />
    <glyph glyph-name="plus" unicode="+" horiz-adv-x="1241" 
d="M1141 410h-428v-428h-205v428h-428v204h428v428h205v-428h428v-204z" />
    <glyph glyph-name="comma" unicode="," horiz-adv-x="587" 
d="M369 88q0 -149 -109 -269t-315 -202l-43 84q274 125 274 281q-25 -5 -49 -5q-75 0 -117.5 43t-42.5 119q0 82 54 134.5t139 52.5q94 0 151.5 -66t57.5 -172z" />
    <glyph glyph-name="hyphen" unicode="-" 
d="M557 635l-72 -266h-465l72 266h465z" />
    <glyph glyph-name="period" unicode="." horiz-adv-x="587" 
d="M381 147q0 -74 -52.5 -126t-127.5 -52q-72 0 -124 53t-52 125q0 74 52.5 126.5t125.5 52.5t125.5 -52.5t52.5 -126.5z" />
    <glyph glyph-name="slash" unicode="/" horiz-adv-x="569" 
d="M637 1509l-537 -1540h-151l536 1540h152z" />
    <glyph glyph-name="zero" unicode="0" horiz-adv-x="1175" 
d="M1133 926q0 -251 -94 -472.5t-251 -353t-335 -131.5q-186 0 -298 140.5t-112 373.5q0 147 37.5 292t104 264t152.5 211t189 143t207 51q183 0 291.5 -141t108.5 -377zM696 428q54 173 94.5 398.5t40.5 344.5q0 82 -28.5 127t-79.5 45q-144 0 -252 -382
q-51 -183 -91 -409.5t-40 -332.5q0 -67 31.5 -106t85.5 -39q72 0 125.5 79t113.5 275z" />
    <glyph glyph-name="one" unicode="1" horiz-adv-x="1175" 
d="M915 0h-864l17 111h104q128 0 156 28q12 10 18.5 29.5t36.5 126.5l205 772q10 32 13 46.5t3.5 35t-9 28.5t-29.5 14.5t-54 6.5h-184l26 102q155 6 325 50.5t239 97.5h83l-309 -1153q-26 -107 -26 -129q0 -34 31 -44.5t130 -10.5h103z" />
    <glyph glyph-name="two" unicode="2" horiz-adv-x="1175" 
d="M1026 479l-174 -479h-934v12q0 64 81 160.5t277 265.5q283 245 367 353q58 72 90.5 153.5t32.5 155.5q0 97 -62.5 158t-160.5 61q-82 0 -149.5 -44.5t-67.5 -98.5q0 -23 14.5 -36t65.5 -36q55 -25 80.5 -60t25.5 -88q0 -73 -46 -119t-120 -46q-88 0 -144.5 63.5
t-56.5 161.5q0 185 146 306.5t368 121.5q200 0 321.5 -102.5t121.5 -270.5q0 -213 -248 -407q-7 -5 -11.5 -8.5t-10 -8t-14 -9.5t-17.5 -11t-26 -16.5t-33.5 -20.5t-47 -28.5t-60 -36.5t-78 -47t-95.5 -58q-156 -95 -205 -144h401q56 0 88 6t62 29t53 57.5t58 102.5l20 39z
" />
    <glyph glyph-name="three" unicode="3" horiz-adv-x="1175" 
d="M999 430q0 -198 -161.5 -329.5t-407.5 -131.5q-203 0 -321.5 89.5t-118.5 244.5q0 92 51.5 149.5t134.5 57.5q73 0 119.5 -44.5t46.5 -113.5q0 -112 -106 -143q-25 -9 -33 -17t-8 -24q0 -35 55.5 -65.5t118.5 -30.5q72 0 129.5 37t93 98.5t54 137t18.5 157.5
q0 93 -36 142.5t-102 49.5q-18 0 -63 -12q-21 -8 -47 -8q-34 0 -53 18.5t-19 50.5t18.5 52t49.5 20q13 0 57 -12t61 -12q72 0 131.5 57t90 135.5t30.5 153.5q0 94 -46.5 146t-131.5 52q-63 0 -116.5 -25.5t-53.5 -56.5q0 -9 15 -24q52 -41 70 -69.5t18 -69.5
q0 -61 -46 -103.5t-112 -42.5q-74 0 -121 50t-47 128q0 135 132 228.5t323 93.5q193 0 314.5 -91.5t121.5 -236.5q0 -142 -104.5 -241t-292.5 -136q159 -41 226.5 -111.5t67.5 -197.5z" />
    <glyph glyph-name="four" unicode="4" horiz-adv-x="1175" 
d="M1073 377h-246l-22 -82q-27 -102 -27 -129q0 -34 31 -44.5t131 -10.5h37l-14 -111h-744l14 111h52q127 0 155 28q12 12 19.5 33t36.5 123l20 82h-543v112l947 959h194l-250 -936h232zM705 1075l-547 -563h395z" />
    <glyph glyph-name="five" unicode="5" horiz-adv-x="1175" 
d="M1044 549q0 -249 -177 -414.5t-445 -165.5q-194 0 -308 87t-114 235q0 94 51.5 151.5t136.5 57.5q73 0 118.5 -42.5t45.5 -111.5q0 -122 -121 -160q-24 -9 -24 -24q0 -35 51 -61.5t119 -26.5q138 0 234 131t96 319q0 126 -55 197.5t-152 71.5q-40 0 -77.5 -11t-111.5 -43
q-7 -58 -35 -88t-73 -30q-29 0 -48.5 20t-19.5 51q0 65 80 103l188 649q252 -60 451 -60q83 0 146 12t141 42l20 6q13 0 13 -17q0 -47 -36 -113.5t-83 -107.5q-123 -106 -363 -106q-68 0 -104.5 4t-130.5 24l-21 5l-78 -265q149 56 273 56q188 0 300.5 -102.5t112.5 -272.5z
" />
    <glyph glyph-name="six" unicode="6" horiz-adv-x="1175" 
d="M1065 518q0 -147 -76.5 -273.5t-207.5 -201t-283 -74.5q-201 0 -319 135t-118 367q0 178 62.5 359.5t173.5 326.5q219 287 532 287q149 0 247 -72t98 -182q0 -76 -49 -125t-126 -49q-69 0 -114 41.5t-45 105.5q0 54 45 107q16 19 16 33q0 15 -21 25.5t-53 10.5
q-117 0 -202 -132.5t-164 -407.5q58 47 109 65.5t122 18.5q163 0 268 -102.5t105 -262.5zM733 553q0 99 -34 153t-97 54q-103 0 -167 -132.5t-64 -344.5q0 -106 34 -163t97 -57q58 0 104 45.5t72.5 119.5t40.5 157.5t14 167.5z" />
    <glyph glyph-name="seven" unicode="7" horiz-adv-x="1175" 
d="M1214 1366q-282 -479 -379.5 -695.5t-140.5 -453.5q-14 -73 -23.5 -103t-27.5 -59q-25 -40 -68.5 -63t-97.5 -23q-81 0 -131.5 46t-50.5 120q0 73 39 150.5t158 242.5l471 617h-435q-95 0 -151.5 -41.5t-118.5 -157.5l-33 -61l-94 33l211 526q215 -23 385 -23
q162 0 485 23z" />
    <glyph glyph-name="eight" unicode="8" horiz-adv-x="1175" 
d="M1034 422q0 -200 -161 -326.5t-414 -126.5q-205 0 -332 92.5t-127 241.5q0 255 352 391q-81 69 -116 140t-35 165q0 195 144 320t370 125q185 0 299 -90t114 -236q0 -115 -72.5 -197t-224.5 -139q206 -143 203 -360zM901 1112q0 107 -58.5 168t-160.5 61t-167.5 -60.5
t-65.5 -154.5q0 -25 1.5 -43t10 -36.5t14.5 -30t28 -30t36.5 -29t54 -33.5t66.5 -37.5t88 -46.5q153 104 153 272zM768 303q0 97 -67.5 162.5t-268.5 161.5q-84 -42 -134 -129t-50 -185q0 -110 70 -177.5t184 -67.5q113 0 189.5 67.5t76.5 167.5z" />
    <glyph glyph-name="nine" unicode="9" horiz-adv-x="1175" 
d="M1114 942q0 -180 -62.5 -361.5t-172.5 -324.5q-219 -287 -533 -287q-149 0 -246.5 72t-97.5 182q0 77 49 125.5t125 48.5q69 0 114.5 -41.5t45.5 -105.5q0 -54 -45 -107q-17 -20 -17 -32q0 -15 21 -26t53 -11q115 0 204 135.5t163 404.5q-60 -47 -110.5 -65.5
t-121.5 -18.5q-163 0 -267.5 102.5t-104.5 262.5q0 147 76.5 273.5t207.5 201t283 74.5q201 0 318.5 -135t117.5 -367zM805 1130q0 106 -34 163t-97 57q-57 0 -103 -45t-73.5 -118t-41.5 -157.5t-14 -169.5q0 -99 34 -153t97 -54q104 0 168 135.5t64 341.5z" />
    <glyph glyph-name="colon" unicode=":" horiz-adv-x="587" 
d="M352 147q0 -74 -52.5 -126t-127.5 -52q-72 0 -124 53t-52 125q0 74 52.5 126.5t125.5 52.5t125.5 -52.5t52.5 -126.5zM526 807q0 -74 -52.5 -126t-127.5 -52q-72 0 -124 53t-52 125q0 73 52 125.5t126 52.5t126 -52.5t52 -125.5z" />
    <glyph glyph-name="semicolon" unicode=";" horiz-adv-x="587" 
d="M387 88q0 -149 -109 -269t-315 -202l-43 84q275 126 275 281q-25 -5 -50 -5q-75 0 -117 43t-42 119q0 82 53.5 134.5t138.5 52.5q94 0 151.5 -66t57.5 -172zM526 807q0 -74 -52.5 -126t-127.5 -52q-72 0 -124 53t-52 125q0 73 52 125.5t126 52.5t126 -52.5t52 -125.5z
" />
    <glyph glyph-name="less" unicode="&#x3c;" horiz-adv-x="1241" 
d="M1051 -74l-928 496v180l928 496v-234l-664 -352l664 -352v-234z" />
    <glyph glyph-name="equal" unicode="=" horiz-adv-x="1241" 
d="M1141 594h-1061v205h1061v-205zM1141 225h-1061v205h1061v-205z" />
    <glyph glyph-name="greater" unicode="&#x3e;" horiz-adv-x="1241" 
d="M1051 422l-928 -496v234l663 352l-663 352v234l928 -496v-180z" />
    <glyph glyph-name="question" unicode="?" horiz-adv-x="985" 
d="M926 1192q0 -127 -81 -224.5t-270 -197.5q-96 -51 -125.5 -79t-29.5 -68t25.5 -63t68.5 -23q51 0 87.5 36t64.5 113l100 -24q-32 -105 -110 -166.5t-179 -61.5q-104 0 -176 71.5t-72 174.5q0 120 80 228t232 194q99 57 133.5 93.5t34.5 84.5q0 59 -41.5 95t-108.5 36
q-101 0 -179.5 -93t-78.5 -214q0 -4 0.5 -9t1.5 -13.5t2 -16.5h-98q-4 50 -4 53q0 98 47 187t136 146.5t198 57.5q148 0 245 -89.5t97 -227.5zM518 147q0 -74 -52.5 -126t-127.5 -52q-72 0 -124 53t-52 125q0 74 52.5 126.5t125.5 52.5t125.5 -52.5t52.5 -126.5z" />
    <glyph glyph-name="at" unicode="@" horiz-adv-x="1529" 
d="M1458 389q-52 -130 -164 -227.5t-242.5 -145t-260.5 -47.5q-153 0 -291 60.5t-237.5 163.5t-158.5 246.5t-59 301.5q0 157 59 299.5t159.5 245t239.5 163t292 60.5q188 0 345 -85t248 -232t91 -322q0 -108 -42 -213t-110 -182.5t-159.5 -125.5t-186.5 -48
q-71 0 -114.5 32.5t-43.5 84.5q0 5 4 33q-81 -154 -231 -154q-115 0 -192.5 88t-77.5 217q0 96 35 197.5t94 185.5t146.5 137.5t184.5 53.5q66 0 110 -24.5t81 -82.5l24 70h213l-188 -590q-14 -43 -14 -76q0 -47 49 -47q74 0 141 65t105.5 164.5t38.5 200.5q0 230 -156 379
t-397 149q-174 0 -314.5 -82.5t-220.5 -227.5t-80 -324q0 -183 81 -333.5t223 -236.5t313 -86q164 0 299 76.5t223 218.5h141zM926 977q0 38 -29.5 66t-69.5 28q-71 0 -141.5 -97t-112 -224.5t-41.5 -225.5q0 -60 25.5 -91.5t71.5 -31.5q99 0 174 172q41 96 82 231t41 173z
" />
    <glyph glyph-name="A" unicode="A" horiz-adv-x="1517" 
d="M1452 0h-766l14 111h33q64 0 89 3t46 13q15 6 25 19.5t10 27.5q0 27 -8 66l-41 211h-475l-94 -166q-29 -50 -29 -88q0 -46 31 -66t114 -20h48l-17 -111h-586l15 111h33q125 0 251 211l713 1185h127l268 -1274q15 -72 53 -97t132 -25h28zM827 561l-94 494l-289 -494h383z
" />
    <glyph glyph-name="B" unicode="B" horiz-adv-x="1554" 
d="M1399 399q0 -108 -50 -187t-140 -124.5t-203 -66.5t-252 -21h-856l14 111h29q62 0 90.5 6t46.5 22q12 12 18.5 31.5t34.5 124.5l240 889q26 98 26 129q0 34 -31 44.5t-130 10.5h-39l16 111h721q541 0 541 -351q0 -154 -123 -251t-351 -123q201 -35 299.5 -122.5
t98.5 -232.5zM1100 1161q0 100 -52 153.5t-147 53.5h-31q-55 0 -78.5 -23.5t-43.5 -99.5l-117 -432h63q108 0 163 11t101 42q66 44 104 123.5t38 171.5zM1008 477q0 61 -11.5 100t-44 69t-92.5 43t-155 13h-103l-121 -452q-16 -57 -16 -78q0 -32 26 -46.5t82 -14.5h68
q180 0 273.5 96.5t93.5 269.5z" />
    <glyph glyph-name="C" unicode="C" horiz-adv-x="1554" 
d="M1391 434q-30 -97 -87.5 -180t-137 -147.5t-186 -101t-226.5 -36.5q-307 0 -494.5 170.5t-187.5 458.5q0 180 73 348t194.5 291.5t287 197.5t342.5 74q240 0 377 -168l114 117h94l-118 -586l-101 13q-7 262 -90.5 389t-247.5 127q-82 0 -157.5 -41.5t-133 -112
t-105 -162.5t-77.5 -194.5t-46.5 -205.5t-16.5 -198q0 -180 94.5 -284.5t257.5 -104.5q140 0 266 94t183 242h129z" />
    <glyph glyph-name="D" unicode="D" horiz-adv-x="1705" 
d="M1630 895q0 -203 -81.5 -385t-227.5 -305q-132 -111 -301.5 -158t-435.5 -47h-684l14 111h29q62 0 90.5 6t46.5 22q9 10 13 17.5t14 39t28 99.5l238 889q26 101 26 129q0 34 -31 44.5t-130 10.5h-37l14 111h733q344 0 513 -149.5t169 -434.5zM1249 1026q0 167 -78 254.5
t-227 87.5h-45q-70 0 -100.5 -26t-50.5 -103l-263 -979q-18 -83 -18 -94q0 -30 24.5 -42.5t83.5 -12.5h60q132 0 239.5 56t180.5 165q84 125 139 322.5t55 371.5z" />
    <glyph glyph-name="E" unicode="E" horiz-adv-x="1517" 
d="M1233 0h-1317l14 111h29q93 0 122 17t46 81l262 975q27 108 27 129q0 34 -31 44.5t-131 10.5h-39l16 111h1260l-82 -502h-106q-3 223 -72 307t-252 84h-78q-63 0 -88.5 -19t-40.5 -79l-121 -449h64q130 0 197.5 55t121.5 195l109 -14l-185 -686l-108 14q10 76 10 127
q0 103 -39 151t-133 48h-65l-129 -484q-15 -51 -13 -65q0 -28 26 -39.5t85 -11.5h74q175 0 336 110t260 309l106 -22z" />
    <glyph glyph-name="F" unicode="F" horiz-adv-x="1441" 
d="M1405 977h-107q-3 223 -72 307t-251 84h-74q-63 0 -88.5 -19t-40.5 -79l-121 -449h64q130 0 197.5 55t121.5 195l109 -14l-185 -686l-108 16q10 74 10 125q0 98 -44.5 148.5t-127.5 50.5h-65l-111 -416q-29 -107 -29 -129q0 -34 31 -44.5t131 -10.5h55l-16 -111h-768
l14 111h29q95 0 123 16.5t45 81.5l262 975q27 108 27 129q0 34 -31 44.5t-131 10.5h-39l16 111h1256z" />
    <glyph glyph-name="G" unicode="G" horiz-adv-x="1669" 
d="M1628 578h-41q-27 0 -46 -0.5t-35.5 -4.5t-26 -6.5t-19.5 -13t-14.5 -16.5t-12 -24.5t-10.5 -30t-11.5 -41t-14.5 -48.5l-113 -422h-98l-39 195q-164 -197 -436 -197q-102 0 -197 25.5t-175.5 77t-140.5 123.5t-94 171.5t-34 215.5q0 185 74.5 356t199 296t295 200
t354.5 75q128 0 212 -36t167 -127l123 118h92l-117 -579l-104 14q-5 233 -91.5 366.5t-254.5 133.5q-243 0 -410 -312q-69 -128 -112 -301.5t-43 -316.5q0 -182 73.5 -287.5t214.5 -105.5q97 0 174.5 63t114.5 172q16 47 32.5 118.5t16.5 92.5q0 35 -29 45.5t-128 10.5h-58
l15 110h761z" />
    <glyph glyph-name="H" unicode="H" horiz-adv-x="1781" 
d="M1561 0h-777l15 111h45q63 0 91 6t44 22q13 12 20 31.5t35 124.5l109 401h-525l-106 -401q-29 -102 -29 -129q0 -25 8 -35t37.5 -15t96.5 -5h43l-17 -111h-735l14 111h39q85 0 113 17t45 81q2 10 11 40t12 46l239 889q27 105 27 129q0 34 -31 44.5t-131 10.5h-39l16 111
h768l-14 -111h-45q-62 0 -90.5 -6.5t-44.5 -22.5q-14 -11 -20.5 -30t-34.5 -125l-99 -363h525l96 363q28 101 28 129q0 25 -8 35t-37 15t-96 5h-43l17 111h735l-15 -111h-34q-61 0 -86.5 -6.5t-44.5 -22.5q-12 -11 -19.5 -31.5t-34.5 -123.5l-239 -889q-27 -111 -27 -129
q0 -34 31 -44.5t131 -10.5h45z" />
    <glyph glyph-name="I" unicode="I" horiz-adv-x="909" 
d="M680 0h-764l14 111h41q62 0 87.5 6t41.5 22q14 12 21.5 32.5t34.5 123.5l237 889q29 102 29 129q0 34 -31 44.5t-131 10.5h-45l16 111h764l-14 -111h-43q-61 0 -86 -6.5t-41 -22.5q-14 -11 -20.5 -30t-34.5 -125l-238 -889q-29 -113 -29 -129q0 -34 31 -44.5t131 -10.5
h45z" />
    <glyph glyph-name="J" unicode="J" horiz-adv-x="1366" 
d="M1456 1368h-41q-60 0 -83 -6t-42 -23q-12 -12 -18.5 -31.5t-34.5 -123.5l-168 -623q-56 -207 -68.5 -245.5t-37.5 -84.5q-75 -136 -195 -199t-305 -63q-232 0 -356.5 97.5t-124.5 279.5q0 143 76 234.5t196 91.5q98 0 158.5 -55t60.5 -144q0 -80 -51.5 -135t-126.5 -55
q-22 0 -54 11.5t-56.5 22.5t-26.5 11q-37 0 -37 -52q0 -80 66 -135t161 -55q72 0 137.5 39t108.5 108q34 56 49.5 99.5t56.5 199.5l174 652q29 107 29 129q0 34 -31 44.5t-131 10.5h-61l16 111h774z" />
    <glyph glyph-name="K" unicode="K" horiz-adv-x="1593" 
d="M1534 0h-766l14 111h64q71 0 97 9.5t26 35.5q0 12 -3 20t-20 43l-209 436l-172 -157l-53 -203q-29 -102 -29 -129q0 -25 8 -35t37.5 -15t96.5 -5h43l-17 -111h-735l14 111h37q60 0 84.5 6.5t44.5 21.5q12 12 19.5 33t36.5 125l235 887q29 104 29 129q0 34 -31 44.5
t-131 10.5h-39l16 111h768l-14 -111h-45q-62 0 -90.5 -6.5t-44.5 -22.5q-14 -12 -20.5 -31.5t-34.5 -123.5l-125 -461l546 508q62 59 62 86q0 51 -84 51h-72l15 111h612l-14 -111q-108 -6 -185.5 -42.5t-167.5 -123.5l-331 -307l292 -631q18 -40 29 -61.5t26.5 -41.5
t27 -27.5t34 -14t44.5 -7.5t61 -1h30z" />
    <glyph glyph-name="L" unicode="L" horiz-adv-x="1441" 
d="M1233 0h-1317l14 111h41q61 0 83.5 6t41.5 22q12 12 19.5 33t34.5 123l239 889q27 108 27 129q0 34 -31 44.5t-131 10.5h-39l16 111h783l-17 -111h-36q-127 0 -156 -29q-14 -12 -20.5 -31.5t-34.5 -123.5l-238 -889q-31 -112 -29 -131q0 -31 23.5 -42t85.5 -11h74
q179 0 344.5 118t255.5 316l106 -23z" />
    <glyph glyph-name="M" unicode="M" horiz-adv-x="1933" 
d="M1708 0h-752l15 111h41q61 0 84 6t39 22q13 12 20 31.5t35 124.5l229 856l-690 -1151h-129l-80 1159l-192 -717q-30 -120 -36.5 -153.5t-6.5 -65.5q0 -54 43 -83t125 -29l-17 -111h-485l14 111q84 6 127.5 70.5t97.5 260.5l199 742q29 106 29 129q0 34 -31 44.5
t-131 10.5h-39l14 111h600l72 -949l570 949h550l-14 -111h-43q-60 0 -82 -6t-41 -23q-12 -11 -18.5 -30t-34.5 -125l-240 -889q-26 -107 -26 -129q0 -34 31 -44.5t131 -10.5h38z" />
    <glyph glyph-name="N" unicode="N" horiz-adv-x="1744" 
d="M1853 1368q-104 0 -165 -55q-44 -42 -61.5 -80.5t-63.5 -198.5l-285 -1063h-164l-606 1159l-184 -686q-30 -120 -36.5 -154t-6.5 -67q0 -59 35 -85.5t122 -26.5h43l-16 -111h-582l15 111q104 3 165 55q43 40 60 79t63 199l232 859q-19 35 -46.5 50t-74.5 15h-115l15 111
h520l549 -1039l159 594q32 121 38.5 154t6.5 67q0 113 -184 113l14 111h568z" />
    <glyph glyph-name="O" unicode="O" horiz-adv-x="1705" 
d="M1632 903q0 -187 -75 -359.5t-200.5 -298.5t-298 -201t-358.5 -75q-284 0 -455 168.5t-171 448.5q0 187 76.5 358.5t203.5 295t297.5 196.5t352.5 73q131 0 247.5 -47t200 -128t132 -193.5t48.5 -237.5zM1092 401q75 145 119 324t44 340q0 156 -68.5 245t-189.5 89
q-115 0 -209 -78t-174 -240q-75 -154 -124.5 -348t-49.5 -338q0 -146 70 -230.5t190 -84.5q222 0 392 321z" />
    <glyph glyph-name="P" unicode="P" horiz-adv-x="1517" 
d="M1497 1092q0 -153 -72.5 -252.5t-234 -151t-418.5 -51.5h-164l-92 -342q-29 -104 -29 -129q0 -34 31.5 -44.5t132.5 -10.5h51l-14 -111h-766l15 111h36q88 0 115.5 17t44.5 81l260 975q29 107 29 129q0 24 -11 35t-42.5 15.5t-100.5 4.5h-39l15 111h645q141 0 247 -18.5
t174 -51t110.5 -82t59.5 -106t17 -129.5zM1130 1153q0 99 -51 157t-139 58h-35q-65 0 -88.5 -19.5t-42.5 -88.5l-137 -512h100q197 0 295 106.5t98 298.5z" />
    <glyph glyph-name="Q" unicode="Q" horiz-adv-x="1705" 
d="M1483 -106q-59 -135 -157 -205t-228 -70q-160 0 -231.5 87t-71.5 269q-73 -6 -113 -6q-173 0 -312.5 77t-218.5 216.5t-79 315.5q0 186 74 358t197.5 297.5t293.5 200.5t354 75q181 0 326.5 -78t229 -218.5t83.5 -317.5q0 -168 -53.5 -323t-164.5 -284.5t-265 -203.5
q8 -86 18.5 -144.5t18.5 -88.5t21.5 -45t22 -17t25.5 -2q38 0 75.5 40t68.5 112zM1257 1049q0 354 -264 354q-244 0 -403 -367q-67 -155 -107.5 -321t-40.5 -287q0 -24 7 -113q17 123 94.5 187.5t206.5 64.5q231 0 325 -198q78 97 130 291t52 389zM813 111
q20 102 23.5 128.5t3.5 65.5q0 60 -42.5 99.5t-105.5 39.5q-71 0 -117.5 -54t-46.5 -136t49 -129t132 -47q55 0 104 33z" />
    <glyph glyph-name="R" unicode="R" horiz-adv-x="1630" 
d="M1520 279q-52 -158 -140 -234t-219 -76q-129 0 -211 81.5t-82 209.5q0 34 12.5 142t12.5 149q0 166 -188 166h-82l-113 -422q-27 -99 -27 -129q0 -34 31 -44.5t131 -10.5h53l-16 -111h-766l14 111h41q61 0 84 6t39 22q14 12 21.5 32.5t34.5 123.5l237 889q29 103 29 129
q0 34 -29.5 44.5t-128.5 10.5h-43l14 111h711q311 0 454.5 -77.5t143.5 -264.5q0 -175 -149 -277t-439 -125q151 -42 218 -126t67 -238v-70q0 -101 2 -121t12 -33q16 -22 37 -22q41 0 75.5 49.5t70.5 147.5zM1161 1167q0 97 -57 149t-164 52h-51q-55 0 -77 -15.5t-34 -62.5
l-125 -463h70q138 0 195 12t110 52q62 46 97.5 119.5t35.5 156.5z" />
    <glyph glyph-name="S" unicode="S" horiz-adv-x="1402" 
d="M1253 459q0 -217 -166.5 -353.5t-431.5 -136.5q-138 0 -240 38t-204 126l-119 -133h-90l102 580l107 -17l-2 -61q2 -185 122.5 -303.5t317.5 -118.5q144 0 233 64t89 167q0 90 -72 146.5t-278 126.5q-127 42 -188 73.5t-109 77.5q-115 109 -115 279q0 212 156 353.5
t389 141.5q122 0 218.5 -36.5t190.5 -118.5l109 110h92l-90 -538l-107 18q-7 223 -110 339t-279 116q-132 0 -212.5 -60.5t-80.5 -160.5q0 -40 9 -69t33.5 -57.5t70.5 -53.5t117 -48q88 -29 149 -52t121.5 -51t100 -55t74 -61.5t53.5 -74t29.5 -88.5t10.5 -109z" />
    <glyph glyph-name="T" unicode="T" horiz-adv-x="1478" 
d="M1470 899l-108 10q6 70 6 123q0 162 -62.5 249t-179.5 87q-45 0 -58 -13.5t-30 -78.5l-262 -981q-28 -101 -28 -129q0 -34 31 -44.5t132 -10.5h52l-15 -111h-813l15 111h55q127 0 155 28q14 12 21.5 32.5t34.5 123.5l266 993q8 27 8 49q0 31 -57 31q-131 0 -232.5 -108.5
t-207.5 -360.5l-103 33l146 547h1325z" />
    <glyph glyph-name="U" unicode="U" horiz-adv-x="1705" 
d="M1819 1368q-43 0 -87.5 -15t-72.5 -40q-43 -38 -61 -78.5t-64 -198.5l-152 -571q-69 -259 -218 -377.5t-404 -118.5q-265 0 -422.5 119t-157.5 313q0 89 35 220l152 563q28 105 28 129q0 35 -27 45t-126 10h-47l14 111h770l-16 -111h-45q-107 0 -136 -29
q-14 -12 -20.5 -31.5t-34.5 -123.5l-166 -623q-31 -111 -31 -180q0 -135 81 -210t227 -75q152 0 256.5 95.5t165.5 328.5l137 516q31 118 38 152t7 67q0 58 -45.5 85.5t-139.5 27.5l15 111h561z" />
    <glyph glyph-name="V" unicode="V" horiz-adv-x="1517" 
d="M1628 1368q-94 -14 -145 -55t-127 -166l-692 -1176h-136l-245 1243q-20 98 -47.5 126t-104.5 28h-65l14 111h751l-16 -111h-55q-61 0 -81.5 -3t-35.5 -13q-20 -17 -20 -39q0 -7 10 -62l153 -823l424 743q39 68 39 117q0 80 -137 80h-55l14 111h571z" />
    <glyph glyph-name="W" unicode="W" horiz-adv-x="1933" 
d="M2021 1368q-95 -15 -148.5 -73.5t-121.5 -221.5l-477 -1102h-135l-140 990l-454 -990h-135l-177 1319q-6 47 -26.5 62.5t-83.5 15.5h-41l14 111h621l-15 -111h-40q-54 0 -68 -14t-14 -60l2 -32l90 -721l303 673l-6 62q-6 52 -36 72t-104 20h-32l14 111h637l-14 -111h-45
q-53 0 -74.5 -13t-20.5 -44q0 -19 6 -56l97 -690l264 635q27 64 27 94q0 32 -31 53t-80 21h-37l14 111h482z" />
    <glyph glyph-name="X" unicode="X" horiz-adv-x="1517" 
d="M1430 0h-793l14 111h84q59 0 81 9.5t22 35.5q0 17 -21 67l-149 348l-277 -270q-63 -60 -63 -108q0 -82 135 -82h45l-14 -111h-641l14 111q77 -2 144.5 32.5t158.5 120.5l444 436l-258 574q-28 60 -55 77t-96 17h-76l16 111h766l-14 -111h-68q-63 0 -86.5 -9t-23.5 -32
q0 -15 18 -59l142 -310l251 250q50 47 50 95q0 34 -26 49.5t-87 15.5h-43l14 111h623l-14 -111q-110 -8 -171.5 -40t-179.5 -146l-368 -355l270 -604q31 -68 70.5 -90t128.5 -22h47z" />
    <glyph glyph-name="Y" unicode="Y" horiz-adv-x="1441" 
d="M1577 1368q-96 -3 -160 -45.5t-155 -161.5l-410 -532l-88 -334q-29 -108 -29 -129q0 -34 31.5 -44.5t132.5 -10.5h51l-14 -111h-797l15 111h39q127 0 155 28q13 12 20 31.5t35 124.5l89 334l-240 622q-26 69 -62.5 93t-111.5 24h-47l14 111h750l-15 -111h-88
q-53 0 -71.5 -10t-18.5 -39q0 -23 19 -70l186 -473l326 430q34 43 34 88q0 35 -30.5 54.5t-85.5 19.5h-74l16 111h598z" />
    <glyph glyph-name="Z" unicode="Z" horiz-adv-x="1441" 
d="M1335 532l-143 -532h-1251l16 111l1038 1257h-161q-198 0 -335.5 -94.5t-258.5 -315.5l-101 21l135 500h1190l-16 -111l-1045 -1257h187q221 0 370 104.5t271 343.5z" />
    <glyph glyph-name="bracketleft" unicode="[" horiz-adv-x="833" 
d="M430 -221h-493l454 1700h494l-25 -90h-242l-407 -1520h242z" />
    <glyph glyph-name="backslash" unicode="\" horiz-adv-x="1241" 
d="M1116 0h-196l-754 1479h196z" />
    <glyph glyph-name="bracketright" unicode="]" horiz-adv-x="833" 
d="M393 -221h-493l24 90h242l407 1520h-241l22 90h494z" />
    <glyph glyph-name="asciicircum" unicode="^" horiz-adv-x="1241" 
d="M1135 651h-244l-268 512l-273 -512h-244l429 828h174z" />
    <glyph glyph-name="underscore" unicode="_" horiz-adv-x="1024" 
d="M1024 -264h-1024v110h1024v-110z" />
    <glyph glyph-name="grave" unicode="`" 
d="M580 1102h-111l-244 180q-41 30 -10 90q25 44 73.5 75.5t94.5 31.5q37 0 54.5 -18t39.5 -75z" />
    <glyph glyph-name="a" unicode="a" horiz-adv-x="1366" 
d="M1323 322q-95 -160 -209.5 -256.5t-220.5 -96.5q-83 0 -128.5 49t-45.5 132q-74 -96 -151.5 -137.5t-182.5 -41.5q-155 0 -254.5 104t-99.5 267q0 122 49 239.5t129.5 205t188 141t218.5 53.5q182 0 256 -129l29 98h322l-201 -680q-21 -84 -21 -94q0 -12 9 -22.5
t20 -10.5q26 0 91 70t122 160zM809 719q0 66 -35 107.5t-92 41.5q-80 0 -155.5 -100t-118.5 -237t-43 -255q0 -74 33.5 -117.5t90.5 -43.5q80 0 156.5 108.5t120 248t43.5 247.5z" />
    <glyph glyph-name="b" unicode="b" horiz-adv-x="1251" 
d="M1141 629q0 -129 -61 -259.5t-167 -228.5q-184 -172 -438 -172q-189 0 -303.5 89.5t-114.5 238.5q0 49 6 78t39 141l199 668q33 110 33 135q0 38 -25 50.5t-102 12.5h-49l14 97l547 28l-187 -633q68 58 129.5 82.5t135.5 24.5q147 0 245.5 -101t98.5 -251zM711 289
q37 83 66.5 205t29.5 188t-37 110t-94 44q-115 0 -209 -189q-47 -96 -82 -226.5t-35 -207.5q0 -69 37.5 -112.5t97.5 -43.5q122 0 226 232z" />
    <glyph glyph-name="c" unicode="c" horiz-adv-x="1099" 
d="M905 238q-110 -138 -225 -202.5t-250 -64.5q-194 0 -309 103t-115 276q0 168 87 313t235 230.5t319 85.5q159 0 254.5 -71.5t95.5 -190.5q0 -86 -48.5 -138.5t-127.5 -52.5q-70 0 -114.5 41.5t-44.5 106.5q0 43 17 71t60 54q15 10 20 16t5 16q0 23 -24.5 37.5t-61.5 14.5
q-131 0 -227 -178q-46 -85 -76.5 -203t-30.5 -213q0 -85 47 -139t121 -54q143 0 319 205z" />
    <glyph glyph-name="d" unicode="d" horiz-adv-x="1366" 
d="M1294 322q-60 -101 -135 -187q-147 -166 -295 -166q-81 0 -127.5 43.5t-48.5 118.5v14q-85 -97 -158.5 -135.5t-173.5 -38.5q-157 0 -256.5 104t-99.5 267q0 121 49.5 238.5t129.5 204.5t188 140.5t219 53.5q181 0 256 -127l98 332q31 102 31 135q0 38 -25 50.5
t-100 12.5h-66l15 97l563 28l-367 -1237q-20 -80 -20 -96q0 -12 9 -22.5t19 -10.5q28 0 91.5 69t123.5 163zM674 313q45 97 74.5 212.5t29.5 193.5q0 65 -35 106t-90 41q-127 0 -217 -194q-44 -94 -72 -204t-28 -192q0 -75 33 -118t90 -43q123 0 215 198z" />
    <glyph glyph-name="e" unicode="e" horiz-adv-x="1062" 
d="M881 186q-191 -215 -467 -215q-203 0 -310.5 97.5t-107.5 281.5q0 165 89.5 311t239 233t318.5 87q144 0 240 -71t96 -177q0 -211 -348 -313q-134 -41 -305 -49q-4 -53 -4 -90q0 -88 47 -138.5t129 -50.5q80 0 149.5 37t161.5 129zM729 788q0 44 -24.5 70.5t-65.5 26.5
q-96 0 -178 -115.5t-117 -302.5q81 12 143 33q104 40 173 121.5t69 166.5z" />
    <glyph glyph-name="f" unicode="f" horiz-adv-x="796" 
d="M1126 1284q0 -70 -45 -116t-114 -46q-60 0 -100 38.5t-40 96.5q0 31 10 54.5t40 62.5l10 19q0 9 -13 14.5t-32 5.5q-50 0 -84 -33.5t-64.5 -112.5t-68.5 -233l-21 -84h260l-33 -125h-256l-96 -438q-94 -444 -207 -754l-370 -53q87 138 239 692l131 553h-202l34 125h201
q41 149 84 239.5t105 158.5q148 161 352 161q123 0 201.5 -63.5t78.5 -161.5z" />
    <glyph glyph-name="g" unicode="g" horiz-adv-x="1251" 
d="M1233 954q0 -52 -30.5 -85t-78.5 -33q-37 0 -61 21t-41 67q-14 34 -35 34q-31 0 -69 -49q78 -46 119.5 -114.5t41.5 -151.5q0 -140 -121.5 -230.5t-308.5 -90.5q-95 0 -239 20q-47 6 -70 6q-41 0 -68.5 -18.5t-27.5 -44.5q0 -32 24 -48.5t76 -21.5q278 -27 365 -45
q112 -26 162.5 -84t50.5 -158q0 -166 -146.5 -254t-423.5 -88q-231 0 -359 60t-128 168q0 77 63 125t195 73q-69 37 -96 73.5t-27 90.5q0 82 63 145t183 101q-56 46 -80.5 93t-24.5 108q0 158 129.5 258t335.5 100q113 0 211 -33q75 75 138.5 109.5t129.5 34.5t107 -38
t41 -100zM723 518q53 106 53 221q0 63 -36 104.5t-91 41.5q-84 0 -135 -88q-59 -105 -59 -230q0 -69 35.5 -108t97.5 -39q89 0 135 98zM674 -174q0 37 -21.5 58.5t-68.5 33.5q-37 9 -133.5 18t-161.5 9q-172 0 -172 -119q0 -143 245 -143q153 0 232.5 36.5t79.5 106.5z" />
    <glyph glyph-name="h" unicode="h" horiz-adv-x="1402" 
d="M1305 311q-120 -184 -220 -263t-213 -79q-95 0 -151.5 50.5t-56.5 136.5q0 40 7.5 71.5t35.5 106.5l124 346q19 52 19 74q0 21 -18.5 38t-40.5 17q-75 0 -193 -143q-67 -80 -112 -171.5t-87 -234.5l-77 -260h-322l350 1184q33 103 33 135q0 38 -25 50.5t-102 12.5h-49
l14 97l549 28l-225 -757q96 119 189.5 175t195.5 56q100 0 164.5 -59.5t64.5 -151.5q0 -90 -61 -262l-97 -262q-22 -58 -22 -78q0 -12 9 -22.5t20 -10.5q28 0 71.5 45t126.5 160q10 10 19 22z" />
    <glyph glyph-name="i" unicode="i" horiz-adv-x="796" 
d="M723 305q-104 -175 -205.5 -255.5t-218.5 -80.5q-92 0 -152.5 52.5t-60.5 132.5q0 48 31 151l104 348q31 102 31 138q0 38 -25 50.5t-100 12.5h-49l14 96l547 29l-215 -729q-21 -73 -21 -86q0 -14 9.5 -23.5t23.5 -9.5q62 0 207 231zM698 1292q0 -62 -43 -104.5
t-104 -42.5q-60 0 -102.5 43.5t-42.5 103.5t43 103t104 43q60 0 102.5 -43t42.5 -103z" />
    <glyph glyph-name="j" unicode="j" horiz-adv-x="757" 
d="M735 979l-243 -825q-48 -160 -83 -236t-94 -147q-147 -185 -364 -185q-129 0 -214 65t-85 165q0 75 44.5 122.5t115.5 47.5q70 0 110.5 -41.5t40.5 -112.5q0 -40 -11 -59t-46 -41q-12 -6 -12 -21q0 -11 9.5 -17.5t24.5 -6.5q60 0 100.5 65t94.5 248l194 653
q31 105 31 138q0 38 -25 50.5t-100 12.5h-65l14 96zM791 1292q0 -61 -43 -104t-105 -43q-60 0 -102.5 43.5t-42.5 103.5t43 103t104 43q60 0 103 -43t43 -103z" />
    <glyph glyph-name="k" unicode="k" horiz-adv-x="1327" 
d="M1196 276q-78 -161 -166 -234t-205 -73q-100 0 -154.5 57.5t-54.5 163.5q0 42 11 113q8 39 8 68q0 17 -10 35q-24 -3 -43 -3q-34 0 -54 16t-20 44t21 45.5t53 17.5q36 0 94 -26q233 76 233 219q0 41 -26.5 66.5t-69.5 25.5q-56 0 -113 -39t-127 -125q-61 -73 -101 -158.5
t-85 -236.5l-76 -252h-321l350 1184q33 111 33 135q0 38 -25 50.5t-102 12.5h-47l12 97l549 28l-223 -747q120 124 210 172.5t201 48.5q107 0 174.5 -56t67.5 -145q0 -72 -48.5 -136.5t-140.5 -115.5q-74 -43 -208 -88q49 -27 73 -56.5t36.5 -76.5t19.5 -135q3 -39 32 -39
q35 0 76 51t78 140z" />
    <glyph glyph-name="l" unicode="l" horiz-adv-x="796" 
d="M694 305q-63 -114 -176 -221q-121 -115 -256 -115q-94 0 -151.5 52t-57.5 135q0 68 47 217l240 811q31 102 31 135q0 38 -25 50.5t-100 12.5h-49l14 97l547 28l-373 -1257l-10 -33q-10 -33 -10 -53q0 -15 9 -25t21 -10q34 0 96 65t123 166z" />
    <glyph glyph-name="m" unicode="m" horiz-adv-x="1933" 
d="M1884 307q-112 -173 -217 -254.5t-215 -81.5q-83 0 -141 51t-58 123q0 56 52 205l100 287q27 79 27 121q0 23 -14.5 36t-39.5 13q-34 0 -80 -32t-92 -87q-59 -71 -105 -174.5t-100 -286.5l-67 -227h-324l144 481q63 214 63 277q0 22 -11 36.5t-28 14.5q-62 0 -172 -141
q-117 -158 -184 -383l-84 -285h-320l195 653q31 112 31 138q0 38 -25 50.5t-100 12.5h-49l14 96l508 29l-60 -250q194 252 386 252q56 0 107 -24t85 -66q21 -28 29 -55t8 -70v-12q98 119 184.5 173t177.5 54q100 0 162 -59t62 -154q0 -92 -45 -217l-123 -342
q-11 -33 -11 -47q0 -10 10.5 -18.5t24.5 -8.5q29 0 66 38.5t139 174.5l12 14z" />
    <glyph glyph-name="n" unicode="n" horiz-adv-x="1402" 
d="M1315 311q-118 -183 -218.5 -262.5t-213.5 -79.5q-96 0 -152.5 50.5t-56.5 136.5q0 39 8 72.5t33 105.5l127 346q18 49 18 74q0 20 -19 36.5t-42 16.5q-75 0 -195 -141q-67 -81 -111 -171.5t-87 -234.5l-78 -260h-322l195 653q30 102 30 138q0 38 -25 50.5t-100 12.5h-49
l15 96l512 29l-66 -270q115 148 211 210t209 62q101 0 166 -59.5t65 -151.5q0 -94 -63 -262l-96 -262q-21 -64 -21 -78q0 -12 9 -22.5t20 -10.5q28 0 73 46t126 159l18 22z" />
    <glyph glyph-name="o" unicode="o" horiz-adv-x="1175" 
d="M1106 584q0 -171 -86 -311.5t-236 -221t-333 -80.5q-197 0 -308 105q-57 52 -90 135t-33 172q0 159 87.5 297t236.5 219.5t320 81.5q94 0 180.5 -29.5t146.5 -81.5q115 -98 115 -286zM686 274q42 107 72 239t30 212q0 72 -36.5 116t-96.5 44q-131 0 -225 -226
q-40 -97 -66 -221.5t-26 -216.5q0 -76 34.5 -119t96.5 -43q134 0 217 215z" />
    <glyph glyph-name="p" unicode="p" horiz-adv-x="1327" 
d="M1208 610q0 -123 -49 -241.5t-129 -205.5t-188 -140.5t-221 -53.5q-92 0 -154 32t-105 101l-69 -235q-33 -113 -33 -131q0 -28 28 -40.5t89 -12.5h31l-15 -97h-635l15 97h8q42 0 79.5 8t49.5 20q13 12 20.5 31.5t38.5 124.5l236 792q31 105 31 132q0 38 -25 50.5
t-102 12.5h-50l15 96l485 29l-33 -162q75 86 152 125t172 39q164 0 261 -101t97 -270zM881 688q0 67 -36 108.5t-95 41.5q-111 0 -197 -152q-48 -86 -89.5 -226.5t-41.5 -219.5q0 -63 41.5 -107.5t99.5 -44.5q116 0 199 162q51 100 85 225t34 213z" />
    <glyph glyph-name="q" unicode="q" horiz-adv-x="1290" 
d="M975 -414h-641l14 97h8q104 0 136 28q12 12 19 31t40 125l67 227q-70 -66 -136.5 -95.5t-143.5 -29.5q-152 0 -245 105t-93 274q0 121 49.5 237.5t130 202.5t188.5 138.5t220 52.5q200 0 282 -156l181 156h151l-330 -1112q-30 -108 -30 -131q0 -28 27 -40.5t87 -12.5h31z
M651 281q48 94 83.5 228t35.5 220q0 59 -35.5 98t-89.5 39q-80 0 -147 -86q-66 -90 -115 -243t-49 -273q0 -66 34.5 -108.5t88.5 -42.5q108 0 194 168z" />
    <glyph glyph-name="r" unicode="r" horiz-adv-x="1062" 
d="M1073 801q0 -72 -43.5 -121t-109.5 -49q-50 0 -89 28t-49 72q-6 24 -6 64q0 26 -20 26q-29 0 -82 -53q-75 -72 -146 -204t-114 -279l-86 -285h-322l195 653q30 99 30 138q0 38 -25 50.5t-100 12.5h-49l15 96l512 29l-64 -260q95 142 178.5 202t184.5 60q86 0 138 -49
t52 -131z" />
    <glyph glyph-name="s" unicode="s" horiz-adv-x="985" 
d="M817 305q0 -151 -123.5 -243.5t-324.5 -92.5q-163 0 -264 66t-101 172q0 66 39.5 106.5t103.5 40.5q62 0 104 -37t42 -94q0 -29 -10.5 -47.5t-42.5 -46.5q-11 -11 -11 -18q0 -23 36.5 -38.5t92.5 -15.5q84 0 139.5 40.5t55.5 101.5q0 41 -27.5 70t-91.5 55
q-124 52 -172 82q-76 46 -111.5 106t-35.5 143q0 151 111 238.5t302 87.5q161 0 264 -64.5t103 -164.5q0 -63 -39 -103.5t-102 -40.5q-61 0 -101.5 35.5t-40.5 89.5q0 25 6 39t31 45q13 16 13 25q0 17 -35 30t-80 13q-80 0 -131 -35t-51 -90q0 -41 35 -72.5t124 -69.5
q115 -51 154 -77q139 -90 139 -236z" />
    <glyph glyph-name="t" unicode="t" horiz-adv-x="833" 
d="M690 319q-55 -84 -80 -117.5t-59 -70.5q-151 -160 -307 -160q-82 0 -138.5 49.5t-56.5 120.5q0 60 29 158q11 32 22 76l133 450h-178l37 125h178l115 381h322l-113 -381h233l-36 -125h-234l-143 -483q-43 -144 -43 -170q0 -14 9 -25.5t21 -11.5q31 0 93 69.5t120 170.5z
" />
    <glyph glyph-name="u" unicode="u" horiz-adv-x="1402" 
d="M1309 311q-120 -185 -219 -262.5t-216 -77.5q-198 0 -198 174q0 34 2 54q-100 -120 -188.5 -174t-186.5 -54q-101 0 -163 62t-62 162q0 70 43 211l72 247q32 102 32 138q0 38 -25 50.5t-100 12.5h-20l14 96l518 29l-184 -623q-4 -11 -25 -84l-3.5 -14t-5 -18.5
t-5.5 -16.5q-4 -24 -4 -28q0 -20 15.5 -36t35.5 -16q40 0 105 53t121 130q87 120 139 286l98 338h324l-191 -639q-25 -88 -29 -104t-4 -33q0 -10 9.5 -19.5t19.5 -9.5q26 0 82.5 62t120.5 162z" />
    <glyph glyph-name="v" unicode="v" horiz-adv-x="1138" 
d="M1024 799q0 -112 -40.5 -253.5t-106.5 -260.5q-86 -154 -199 -235t-242 -81q-132 0 -229 84q-88 79 -88 217q0 82 24 162l66 221q33 109 33 138q0 38 -25 50.5t-102 12.5h-49l14 96l547 29l-150 -508q-35 -138 -42 -172.5t-7 -67.5q0 -44 35.5 -80t79.5 -36
q104 0 205 153q124 188 124 334q0 33 -13 51t-77 78q-32 31 -45.5 57t-13.5 60q0 60 38.5 96.5t102.5 36.5q72 0 116 -50t44 -132z" />
    <glyph glyph-name="w" unicode="w" horiz-adv-x="1705" 
d="M1614 799q0 -112 -41.5 -254.5t-106.5 -259.5q-88 -154 -204 -235t-248 -81q-123 0 -202 62.5t-105 179.5q-97 -128 -194 -185t-220 -57q-119 0 -183.5 59t-64.5 167q0 42 8 83t33 128l74 247q33 111 33 138q0 38 -25 50.5t-102 12.5h-21l14 96l521 29l-185 -617
q-28 -106 -28 -141q0 -31 22 -53.5t51 -22.5q55 0 110 40t101 112q26 42 63.5 130.5t57.5 158.5l109 364h321l-141 -479q-34 -136 -41.5 -172t-7.5 -68q0 -44 33.5 -80t76.5 -36q51 0 109 42t106 111q59 88 92 178t33 160q0 30 -14 49.5t-76 75.5q-59 54 -59 117
q0 60 38.5 96.5t102.5 36.5q72 0 116 -50t44 -132z" />
    <glyph glyph-name="x" unicode="x" horiz-adv-x="1175" 
d="M1040 346q-42 -114 -116 -219q-110 -158 -250 -158q-98 0 -158 76q-26 30 -41.5 71.5t-34.5 129.5l-6 28l-76 -106q-65 -93 -142.5 -146t-149.5 -53t-119 43.5t-47 112.5q0 62 38 100.5t99 38.5q46 0 77.5 -26.5t43.5 -75.5q6 -23 18 -23q23 0 56.5 33.5t89.5 112.5
l84 116l-29 134q-23 108 -37.5 157t-27 66.5t-33.5 17.5q-28 0 -55.5 -32t-88.5 -138l-12 -20l-82 41q50 103 113 182q130 172 270 172q91 0 142.5 -63.5t82.5 -212.5l45 59q94 125 159.5 171t150.5 46q74 0 119.5 -40.5t45.5 -106.5q0 -61 -38 -101.5t-95 -40.5t-89 29.5
t-32 83.5q-3 24 -18 24q-28 0 -77.5 -56.5t-143.5 -194.5l33 -168q30 -143 48 -186.5t50 -43.5q34 0 74 54t80 153z" />
    <glyph glyph-name="y" unicode="y" horiz-adv-x="1062" 
d="M1008 854q0 -88 -83 -276t-218 -408q-183 -302 -336 -455q-126 -129 -289 -129q-98 0 -157.5 51t-59.5 136q0 66 40.5 107.5t104.5 41.5q62 0 102 -37t40 -94q0 -22 -13 -57l-2 -13q0 -8 8.5 -14t18.5 -6q41 0 106 52t119 128l60 82l-205 692q-17 58 -28.5 75.5
t-31.5 17.5q-27 0 -47 -40t-63 -180l-88 27q51 217 132 321.5t199 104.5q52 0 94.5 -25.5t65.5 -70.5q42 -79 76 -203l115 -389q77 130 107 200.5t30 122.5q0 29 -7 49t-32 60q-43 62 -43 121t41 97t104 38q64 0 102 -34t38 -93z" />
    <glyph glyph-name="z" unicode="z" horiz-adv-x="1062" 
d="M942 313q-53 -166 -159.5 -255t-252.5 -89q-82 0 -148 24t-206 107q-33 17 -43 17q-29 0 -29 -60q-2 -40 -22 -64t-55 -24q-28 0 -47 20.5t-19 49.5q0 73 135 229q88 99 167.5 161.5t195.5 125.5q40 21 84 43.5t63.5 32.5t22.5 12q4 2 18.5 11.5t33.5 21.5t36 24
q-85 -28 -168 -28q-54 0 -184 20q-91 15 -115 15q-49 0 -72.5 -21.5t-58.5 -99.5l-86 30q127 365 405 365q62 0 122.5 -19.5t152.5 -68.5q67 -37 90 -37q15 0 24.5 14.5t18.5 51.5q9 31 22.5 45t34.5 14q25 0 43.5 -20t18.5 -48q0 -55 -62 -146t-170 -194
q-71 -67 -132.5 -106t-244.5 -133q-63 -32 -131 -76q123 21 185 21q82 0 194 -31q96 -29 113 -29q76 0 135 127z" />
    <glyph glyph-name="braceleft" unicode="{" horiz-adv-x="833" 
d="M397 -133l-24 -88h-86q-85 0 -133 47t-48 131q0 76 35 195l43 163q27 97 27 146q0 51 -24 79.5t-81 43.5l25 90q100 25 145 80t76 192l62 225q46 170 123 239t223 69h63l-24 -88q-75 -8 -117 -62.5t-80 -195.5l-67 -248q-35 -118 -90.5 -175.5t-157.5 -80.5
q68 -20 100.5 -53t32.5 -84q0 -40 -27 -134l-57 -213q-35 -128 -35 -178q0 -54 20.5 -75.5t75.5 -24.5z" />
    <glyph glyph-name="bar" unicode="|" horiz-adv-x="1241" 
d="M713 -221h-205v1700h205v-1700z" />
    <glyph glyph-name="braceright" unicode="}" horiz-adv-x="833" 
d="M659 674l-24 -90q-101 -22 -147.5 -78.5t-77.5 -194.5l-62 -225q-46 -170 -123 -238.5t-223 -68.5h-63l24 88q75 8 117 62.5t80 195.5l67 248q35 118 90.5 175.5t157.5 80.5q-68 20 -100.5 53t-32.5 84q0 31 27 133l57 213q35 128 35 178q0 54 -20.5 76t-75.5 25l24 88
h86q85 0 132.5 -47t47.5 -132q0 -74 -32 -194l-45 -164q-19 -67 -23 -89.5t-4 -55.5q0 -53 25 -81.5t83 -41.5z" />
    <glyph glyph-name="asciitilde" unicode="~" horiz-adv-x="1241" 
d="M1137 559q-126 -231 -295 -231q-68 0 -185 47l-108 39q-65 26 -88 32.5t-47 6.5q-36 0 -66 -23t-72 -84l-172 109q123 231 295 231q61 0 185 -47l108 -39q65 -26 88 -32.5t47 -6.5q36 0 66 23t72 84z" />
    <glyph glyph-name="uni00A0" unicode="&#xa0;" 
 />
    <glyph glyph-name="exclamdown" unicode="&#xa1;" 
d="M586 -457q-49 -71 -129 -71q-89 0 -145 45.5t-56 117.5q0 49 14 86t99 207q91 182 142.5 306.5t121.5 330.5l106 -26q-92 -417 -104 -719q-6 -140 -14.5 -189.5t-34.5 -87.5zM938 834q0 -74 -52.5 -126.5t-125.5 -52.5t-125.5 52.5t-52.5 126.5t52.5 126t127.5 52
q72 0 124 -53t52 -125z" />
    <glyph glyph-name="cent" unicode="&#xa2;" horiz-adv-x="1175" 
d="M963 238l-13 -15q-124 -140 -218 -193.5t-234 -60.5l-113 -250h-111l115 256q-134 11 -231 123.5t-97 257.5q0 125 52 242t139 203t205.5 138t244.5 52q62 0 134 -16l100 225h111l-117 -264q58 -35 90.5 -92t32.5 -125q0 -83 -50.5 -136t-128.5 -53q-63 0 -108 39
l-211 -471h14q93 0 195 82q34 27 125 121zM825 842q0 20 -28 36.5t-62 16.5q-139 0 -235 -197q-43 -87 -73 -203.5t-30 -197.5q0 -98 64 -162l270 602q15 32 31 49t51 39z" />
    <glyph glyph-name="sterling" unicode="&#xa3;" horiz-adv-x="1175" 
d="M1110 369q-58 -199 -157 -299.5t-234 -100.5q-173 0 -316 131q-57 -69 -114.5 -100t-130.5 -31q-88 0 -141.5 49t-53.5 129q0 86 62 141.5t157 55.5q50 0 156 -25q6 56 6 84q0 119 -41 250h-266l16 117h234l-2 92q0 258 146 420t380 162q155 0 251.5 -80t96.5 -209
q0 -85 -50 -139.5t-128 -54.5q-68 0 -112 40t-44 101q0 44 21 75.5t76 69.5q22 17 22 37q0 26 -26 41.5t-68 15.5q-114 0 -179 -116t-65 -316l4 -139h281l-19 -117h-262q-5 -101 -27 -184.5t-73 -189.5q111 -43 246 -43q184 0 266 174zM299 172l-12 10q-79 60 -146 60
q-35 0 -58.5 -26t-23.5 -64q0 -43 26 -69t69 -26q51 0 82.5 25t62.5 90z" />
    <glyph glyph-name="currency" unicode="&#xa4;" horiz-adv-x="1175" 
d="M1118 358l-157 -159l-89 88q-135 -78 -272 -78q-138 0 -272 80l-86 -88l-158 159l86 86q-78 121 -78 271q0 70 21.5 144.5t56.5 127.5l-88 88l158 158l88 -88q122 80 274 80q135 0 270 -78l86 86l160 -158l-88 -88q78 -124 78 -272q0 -146 -78 -271zM860 719
q0 107 -76.5 183.5t-183.5 76.5t-183.5 -76.5t-76.5 -183.5t76 -184.5t182 -77.5q109 0 185.5 76.5t76.5 185.5z" />
    <glyph glyph-name="yen" unicode="&#xa5;" horiz-adv-x="1175" 
d="M1286 1335q-76 -26 -123 -65.5t-121 -139.5l-254 -362h269l-13 -94h-321l-47 -174h297l-12 -94h-310l-28 -109q-29 -107 -29 -131q0 -34 31 -44.5t131 -10.5h26l-16 -111h-692l16 111h25q113 0 141 28q13 12 20 31.5t35 126.5l29 109h-289l12 94h304l45 174h-301l12 94
h256l-160 451q-26 70 -61 93t-111 23l14 111h596l-16 -111h-45q-53 0 -71.5 -10t-18.5 -39q0 -16 18 -69l148 -431l256 388q35 53 35 90q0 32 -31.5 51.5t-85.5 19.5h-33l14 111h473z" />
    <glyph glyph-name="brokenbar" unicode="&#xa6;" horiz-adv-x="1241" 
d="M713 799h-205v680h205v-680zM713 -221h-205v680h205v-680z" />
    <glyph glyph-name="section" unicode="&#xa7;" horiz-adv-x="1024" 
d="M932 608q0 -126 -103.5 -223.5t-236.5 -97.5q-23 0 -41 2q58 -65 83 -123t25 -123q0 -143 -112.5 -240.5t-278.5 -97.5q-147 0 -248.5 70.5t-101.5 171.5q0 71 39.5 114t103.5 43q62 0 104 -39t42 -96q0 -28 -20 -57.5t-40 -49.5t-20 -24q0 -19 43 -35t94 -16
q78 0 125 38t47 101q0 65 -49.5 137t-224.5 259q-82 88 -114 151t-32 135q0 130 97 227t227 97q9 0 55 -4q-59 82 -80.5 135.5t-21.5 116.5q0 145 109.5 237t279.5 92q151 0 251.5 -70.5t100.5 -176.5q0 -62 -43.5 -104t-107.5 -42q-62 0 -103 37.5t-41 95.5q0 63 64 115
q16 13 16 20q0 17 -39.5 31.5t-85.5 14.5q-75 0 -127.5 -42t-52.5 -102q0 -57 44.5 -123.5t180.5 -214.5q112 -121 152.5 -192t40.5 -148zM713 481q0 41 -29 92t-96 127q-72 82 -125.5 118t-100.5 36q-55 0 -90.5 -34t-35.5 -85q0 -45 23.5 -87.5t88.5 -115.5
q87 -97 134.5 -130t97.5 -33q56 0 94.5 32.5t38.5 79.5z" />
    <glyph glyph-name="dieresis" unicode="&#xa8;" 
d="M383 1292q0 -62 -42.5 -104.5t-104.5 -42.5q-60 0 -103 43.5t-43 103.5t43.5 103t104.5 43q60 0 102.5 -43t42.5 -103zM772 1292q0 -62 -43 -104.5t-104 -42.5q-60 0 -103 43.5t-43 103.5t43.5 103t104.5 43q60 0 102.5 -43t42.5 -103z" />
    <glyph glyph-name="copyright" unicode="&#xa9;" horiz-adv-x="1529" 
d="M1481 694q0 -196 -97.5 -362.5t-264.5 -263.5t-363 -97t-362.5 97t-263.5 263.5t-97 362.5t97 363t263.5 264.5t362.5 97.5t363 -97.5t264.5 -264.5t97.5 -363zM1382 694q0 127 -49.5 243.5t-133.5 200.5t-200 133.5t-243 49.5q-170 0 -314 -84t-227.5 -228.5
t-83.5 -314.5q0 -127 49.5 -243t133 -199.5t199 -132.5t243.5 -49t243.5 49t199.5 132.5t133.5 199.5t49.5 243zM1159 1049l-59 -301l-78 10q-6 122 -47 180.5t-123 58.5q-61 0 -111.5 -41.5t-80 -106.5t-45 -137t-13.5 -139q3 -79 47.5 -126.5t120.5 -47.5q73 0 136 43
t87 113h92q-33 -104 -123.5 -173t-220.5 -69q-171 0 -278.5 84t-110.5 230q-4 118 62 221.5t179 164t243 60.5q123 0 200 -74l54 50h69z" />
    <glyph glyph-name="ordfeminine" unicode="&#xaa;" horiz-adv-x="843" 
d="M920 1116q-63 -98 -140 -154.5t-149 -56.5q-49 0 -83 28t-32 66q0 7 2 11q-55 -58 -105 -81.5t-116 -23.5q-104 0 -171 62.5t-67 160.5q0 97 55 185.5t146 142t191 53.5q116 0 167 -75l21 57h215l-135 -408q-14 -47 -14 -55q0 -7 6 -13.5t12 -6.5q17 0 61.5 42.5
t81.5 94.5zM578 1354q0 38 -23.5 63t-60.5 25q-82 0 -146 -117q-29 -57 -47 -122.5t-18 -115.5q0 -44 23 -70t61 -26q77 0 141 119q30 59 50 129t20 115zM801 719l-33 -119h-709l33 119h709z" />
    <glyph glyph-name="guillemotleft" unicode="&#xab;" horiz-adv-x="985" 
d="M324 184q0 -9 -7.5 -16.5t-17.5 -7.5q-17 0 -33 16l-327 309l-11 17q0 7 15 16l454 328q18 12 33 12q10 0 19.5 -9t9.5 -20q0 -10 -19 -32l-276 -291l153 -301q7 -11 7 -21zM739 184q0 -9 -7 -16.5t-17 -7.5q-17 0 -33 16l-328 309l-10 17q0 8 14 16l455 328q18 12 33 12
q10 0 19 -9t9 -20t-18 -32l-276 -291l153 -301q6 -9 6 -21z" />
    <glyph glyph-name="logicalnot" unicode="&#xac;" horiz-adv-x="1241" 
d="M1141 799v-471h-205v266h-856v205h1061z" />
    <glyph glyph-name="uni00AD" unicode="&#xad;" 
d="M557 635l-72 -266h-465l72 266h465z" />
    <glyph glyph-name="registered" unicode="&#xae;" horiz-adv-x="1529" 
d="M1481 694q0 -196 -97.5 -362.5t-264.5 -263.5t-363 -97t-362.5 97t-263.5 263.5t-97 362.5t97 363t263.5 264.5t362.5 97.5t363 -97.5t264.5 -264.5t97.5 -363zM1382 694q0 127 -49.5 243.5t-133.5 200.5t-200 133.5t-243 49.5q-170 0 -314 -84t-227.5 -228.5
t-83.5 -314.5q0 -127 49.5 -243t133 -199.5t199 -132.5t243.5 -49t243.5 49t199.5 132.5t133.5 199.5t49.5 243zM1190 893q3 -164 -264 -199q57 -23 85 -63.5t29 -104.5q6 -63 8 -99q0 -7 1 -7q37 0 69 90l58 -25q-26 -84 -73 -123.5t-120 -39.5q-76 0 -126.5 41.5
t-53.5 109.5q0 16 5 67.5t5 71.5q-3 66 -80 66h-22l-52 -191q-12 -47 -12 -59q0 -10 11.5 -12t52.5 -2h34l-10 -78h-413l8 78h26q37 0 45 6q6 6 23 72l115 423q14 53 12 62q0 10 -10 12t-49 2h-31l8 76h379q176 0 257.5 -39t84.5 -135zM946 907q-2 39 -26 61.5t-70 22.5h-27
q-18 0 -25 -6t-10 -20l-57 -209q75 0 102.5 4.5t51.5 21.5q30 20 46 53.5t15 71.5z" />
    <glyph glyph-name="macron" unicode="&#xaf;" 
d="M795 1368l-43 -156h-684l43 156h684z" />
    <glyph glyph-name="degree" unicode="&#xb0;" horiz-adv-x="819" 
d="M758 1092q0 -132 -89 -223t-218 -91t-218.5 92t-89.5 224q0 130 91.5 220.5t222.5 90.5q127 0 214 -90.5t87 -222.5zM641 1092q0 81 -54.5 138.5t-131.5 57.5q-83 0 -140 -57t-57 -139q0 -81 57.5 -139t135.5 -58q80 0 135 57t55 140z" />
    <glyph glyph-name="plusminus" unicode="&#xb1;" horiz-adv-x="1241" 
d="M1141 614h-428v-225h-205v225h-428v205h428v428h205v-428h428v-205zM1141 0h-1061v205h1061v-205z" />
    <glyph glyph-name="two.superior" unicode="&#xb2;" horiz-adv-x="704" 
d="M696 870l-112 -292h-617v10q0 42 48 95.5t186 164.5q164 131 231 205q74 87 74 174q0 57 -40 93t-104 36q-48 0 -88.5 -23t-40.5 -51q0 -12 9.5 -19.5t40.5 -21.5q73 -26 73 -92q0 -47 -31.5 -76t-82.5 -29q-60 0 -99 40t-39 102q0 112 95.5 185t240.5 73q133 0 215 -63
t82 -164q0 -105 -100 -199q-62 -55 -193 -125q-128 -71 -235 -139h244q65 0 92.5 19t64.5 91l17 29z" />
    <glyph glyph-name="three.superior" unicode="&#xb3;" horiz-adv-x="704" 
d="M655 838q0 -119 -105.5 -198t-264.5 -79q-133 0 -213 55.5t-80 147.5q0 57 36 93t93 36q49 0 80.5 -28.5t31.5 -71.5q0 -69 -86 -95q-8 -3 -8 -10q0 -19 35.5 -36t73.5 -17q79 0 127.5 66.5t48.5 175.5q0 54 -22 83t-62 29q-12 0 -41 -8q-20 -4 -31 -4q-53 0 -53 45
q0 22 14 35.5t37 13.5q13 0 37 -6q27 -6 41 -6q58 0 103 57.5t45 132.5q0 55 -29 86t-82 31q-37 0 -67.5 -13t-30.5 -28q2 -6 8 -8q59 -42 59 -90q0 -38 -32 -65t-76 -27q-51 0 -84 31.5t-33 80.5q0 83 86 140t211 57q129 0 210 -57t81 -146q0 -75 -57.5 -134t-151.5 -81
l-8 -2q-1 -1 -5 -2t-6 -2q55 -13 88 -33q37 -22 59.5 -63.5t22.5 -85.5z" />
    <glyph glyph-name="acute" unicode="&#xb4;" 
d="M690 1372q0 -59 -57 -90l-340 -180h-111l254 284q53 57 80.5 75t63.5 18q46 0 78 -31.5t32 -75.5z" />
    <glyph glyph-name="uni00B5" unicode="&#xb5;" horiz-adv-x="1402" 
d="M1309 311q-120 -186 -219 -263t-216 -77q-97 0 -147.5 43.5t-50.5 128.5q0 36 2 56q-100 -120 -188.5 -174t-186.5 -54q-100 0 -164 76q-16 -49 -16 -90q0 -27 9 -105.5t9 -91.5q0 -85 -61 -147t-146 -62q-52 0 -85 28t-33 71t20 86t94 149q66 97 82 156l181 612
q32 109 32 138q0 37 -23 50t-102 13h-20l14 125h518l-184 -623q-2 -6 -14 -41.5t-20.5 -67.5t-8.5 -52t15 -36t34 -16q55 0 128 67.5t138.5 177t100.5 224.5l98 338h324l-191 -639q-17 -57 -24 -82.5t-8 -33t-1 -21.5q0 -10 9.5 -19.5t19.5 -9.5q26 0 81.5 61t121.5 163z
" />
    <glyph glyph-name="paragraph" unicode="&#xb6;" horiz-adv-x="1331" 
d="M885 -295h-748l31 111h12q41 0 73 12.5t44 32.5q8 16 39 133l180 672h-18q-158 0 -249 76.5t-91 209.5q0 104 54.5 219t137.5 185q76 64 175 93.5t237 29.5h592l-31 -111h-6q-32 0 -67.5 -9t-47.5 -20q-13 -12 -20 -30.5t-33 -118.5l-322 -1196l-20 -80q-10 -33 -10 -53
q0 -45 104 -45h12zM989 1368h-78l-415 -1550h77z" />
    <glyph glyph-name="periodcentered" unicode="&#xb7;" horiz-adv-x="587" 
d="M477 512q0 -79 -57 -136t-135 -57q-79 0 -136 56.5t-57 136.5t57 136.5t136 56.5q78 0 135 -57t57 -136z" />
    <glyph glyph-name="cedilla" unicode="&#xb8;" 
d="M322 -272q0 -79 -77 -129t-200 -50q-138 0 -223 60l45 72q89 -39 147 -39q44 0 72.5 21.5t28.5 55.5q0 31 -24.5 51.5t-61.5 20.5q-19 0 -60 -8l-35 35l146 192h92l-94 -135q40 6 67 6q75 0 126 -43.5t51 -109.5z" />
    <glyph glyph-name="one.superior" unicode="&#xb9;" horiz-adv-x="704" 
d="M602 578h-559l10 79h76q66 0 85 9t28 43q2 6 6.5 23.5t7.5 27.5l125 452q8 32 8 45q0 15 -11.5 21t-41.5 6h-127l20 74q102 3 211.5 29.5t157.5 58.5h64l-191 -686q-16 -65 -16 -74q0 -19 18.5 -24t81.5 -5h57z" />
    <glyph glyph-name="ordmasculine" unicode="&#xba;" horiz-adv-x="729" 
d="M784 1274q0 -157 -125 -263t-311 -106q-133 0 -211 67t-78 181q0 95 58.5 177t158 130.5t213.5 48.5q135 0 215 -64t80 -171zM506 1087q29 66 48 143t19 128q0 43 -24.5 68.5t-65.5 25.5q-86 0 -149 -135q-27 -58 -44.5 -131.5t-17.5 -128.5q0 -47 22.5 -73t63.5 -26
q90 0 148 129zM715 719l-33 -119h-623l33 119h623z" />
    <glyph glyph-name="guillemotright" unicode="&#xbb;" horiz-adv-x="985" 
d="M518 516q0 -8 -14 -16l-455 -328q-18 -12 -33 -12q-10 0 -19 9t-9 19q0 12 18 33l277 291l-154 301q-6 9 -6 21q0 9 7 16.5t17 7.5q17 0 33 -16l328 -310zM934 516q0 -8 -14 -16l-455 -328q-18 -12 -33 -12q-11 0 -20 9t-9 19q0 11 19 33l276 291l-153 301q-6 9 -6 21
q0 9 7 16.5t17 7.5q17 0 33 -16l328 -310z" />
    <glyph glyph-name="onequarter" unicode="&#xbc;" horiz-adv-x="1763" 
d="M1393 1479l-858 -1479h-164l860 1479h162zM1661 223h-156l-12 -43q-16 -57 -16 -74t17.5 -21.5t78.5 -4.5h31l-13 -80h-481l12 80h37q77 0 94 14q6 6 10 17.5t23 72.5l10 39h-340v78l600 567h136l-160 -551h145zM602 578h-559l10 79h76q66 0 85 9t28 43q2 6 6.5 23.5
t7.5 27.5l125 452q8 32 8 45q0 15 -11.5 21t-41.5 6h-127l20 74q102 3 211.5 29.5t157.5 58.5h64l-191 -686q-16 -65 -16 -74q0 -19 18.5 -24t81.5 -5h57zM1409 621l-313 -304h227z" />
    <glyph glyph-name="onehalf" unicode="&#xbd;" horiz-adv-x="1763" 
d="M1403 1479l-860 -1479h-162l858 1479h164zM602 578h-559l10 79h76q66 0 85 9t28 43q2 6 6.5 23.5t7.5 27.5l125 452q8 32 8 45q0 15 -11.5 21t-41.5 6h-127l20 74q102 3 211.5 29.5t157.5 58.5h64l-191 -686q-16 -65 -16 -74q0 -19 18.5 -24t81.5 -5h57zM1714 293
l-112 -293h-617q-6 43 43 99t191 171q174 139 231 205q35 39 54.5 85.5t19.5 86.5q0 57 -40 93t-104 36q-48 0 -88.5 -23t-40.5 -51q0 -12 9 -19t40 -19q74 -29 74 -93q0 -47 -31.5 -75.5t-82.5 -28.5q-60 0 -99 40t-39 101q0 110 95.5 183t240.5 73q133 0 215 -63t82 -164
q0 -103 -100 -197q-37 -34 -75.5 -59t-117.5 -66q-128 -71 -235 -139h243q65 0 93 19.5t65 89.5l17 30z" />
    <glyph glyph-name="threequarters" unicode="&#xbe;" horiz-adv-x="1763" 
d="M1421 1479l-858 -1479h-164l861 1479h161zM1661 223h-156l-12 -43q-16 -57 -16 -74t17.5 -21.5t78.5 -4.5h31l-13 -80h-481l12 80h37q77 0 94 14q6 6 10 17.5t23 72.5l10 39h-340v78l600 567h136l-160 -551h145zM655 838q0 -119 -105.5 -198t-264.5 -79q-133 0 -213 55.5
t-80 147.5q0 57 36 93t93 36q49 0 80.5 -28.5t31.5 -71.5q0 -69 -86 -95q-8 -3 -8 -10q0 -19 35.5 -36t73.5 -17q79 0 127.5 66.5t48.5 175.5q0 54 -22 83t-62 29q-12 0 -41 -8q-20 -4 -31 -4q-53 0 -53 45q0 22 14 35.5t37 13.5q13 0 37 -6q27 -6 41 -6q58 0 103 57.5
t45 132.5q0 55 -29 86t-82 31q-37 0 -67.5 -13t-30.5 -28q2 -6 8 -8q59 -42 59 -90q0 -38 -32 -65t-76 -27q-51 0 -84 31.5t-33 80.5q0 83 86 140t211 57q129 0 210 -57t81 -146q0 -75 -57.5 -134t-151.5 -81l-8 -2q-7 -2 -11 -4q55 -13 88 -33q37 -22 59.5 -63.5
t22.5 -85.5zM1409 621l-313 -304h227z" />
    <glyph glyph-name="questiondown" unicode="&#xbf;" horiz-adv-x="985" 
d="M1044 -137q0 -98 -46.5 -187t-135.5 -146.5t-198 -57.5q-148 0 -245 89.5t-97 227.5q0 128 80.5 225t269.5 197q96 51 125.5 79t29.5 68t-25.5 63t-68.5 23q-51 0 -87 -36t-64 -113l-101 24q32 105 110 166.5t179 61.5q104 0 176 -71.5t72 -174.5q0 -120 -79.5 -228
t-231.5 -194q-99 -57 -133.5 -93.5t-34.5 -84.5q0 -59 41 -95t108 -36q101 0 179.5 93t78.5 214q0 4 -0.5 9t-1.5 13.5t-2 16.5h98q4 -50 4 -53zM1085 834q0 -74 -52.5 -126.5t-125.5 -52.5t-125.5 52.5t-52.5 126.5t52.5 126t127.5 52q72 0 124 -53t52 -125z" />
    <glyph glyph-name="Agrave" unicode="&#xc0;" horiz-adv-x="1517" 
d="M1452 0h-766l14 111h33q64 0 89 3t46 13q15 6 25 19.5t10 27.5q0 27 -8 66l-41 211h-475l-94 -166q-29 -50 -29 -88q0 -46 31 -66t114 -20h48l-17 -111h-586l15 111h33q125 0 251 211l713 1185h127l268 -1274q15 -72 53 -97t132 -25h28zM827 561l-94 494l-289 -494h383z
M1192 1577h-133l-320 164q-53 27 -26 80q22 40 75.5 68t108.5 28q45 0 70.5 -15.5t58.5 -66.5z" />
    <glyph glyph-name="Aacute" unicode="&#xc1;" horiz-adv-x="1517" 
d="M1452 0h-766l14 111h33q64 0 89 3t46 13q15 6 25 19.5t10 27.5q0 27 -8 66l-41 211h-475l-94 -166q-29 -50 -29 -88q0 -46 31 -66t114 -20h48l-17 -111h-586l15 111h33q125 0 251 211l713 1185h127l268 -1274q15 -72 53 -97t132 -25h28zM827 561l-94 494l-289 -494h383z
M1296 1821q0 -52 -69 -80l-408 -164h-133l305 258q60 51 94 66.5t78 15.5q55 0 94 -28t39 -68z" />
    <glyph glyph-name="Acircumflex" unicode="&#xc2;" horiz-adv-x="1517" 
d="M1452 0h-766l14 111h33q64 0 89 3t46 13q15 6 25 19.5t10 27.5q0 27 -8 66l-41 211h-475l-94 -166q-29 -50 -29 -88q0 -46 31 -66t114 -20h48l-17 -111h-586l15 111h33q125 0 251 211l713 1185h127l268 -1274q15 -72 53 -97t132 -25h28zM827 561l-94 494l-289 -494h383z
M1362 1587h-143l-222 160l-311 -160h-164l385 322h250z" />
    <glyph glyph-name="Atilde" unicode="&#xc3;" horiz-adv-x="1517" 
d="M1452 0h-766l14 111h33q64 0 89 3t46 13q15 6 25 19.5t10 27.5q0 27 -8 66l-41 211h-475l-94 -166q-29 -50 -29 -88q0 -46 31 -66t114 -20h48l-17 -111h-586l15 111h33q125 0 251 211l713 1185h127l268 -1274q15 -72 53 -97t132 -25h28zM827 561l-94 494l-289 -494h383z
M1364 1876q-5 -103 -81 -180.5t-173 -77.5q-63 0 -174 43q-107 43 -148 43q-34 0 -56 -22.5t-30 -63.5h-96q7 112 79.5 185t174.5 73q64 0 162 -39q73 -29 96.5 -36t46.5 -7q78 0 103 82h96z" />
    <glyph glyph-name="Adieresis" unicode="&#xc4;" horiz-adv-x="1517" 
d="M1452 0h-766l14 111h33q64 0 89 3t46 13q15 6 25 19.5t10 27.5q0 27 -8 66l-41 211h-475l-94 -166q-29 -50 -29 -88q0 -46 31 -66t114 -20h48l-17 -111h-586l15 111h33q125 0 251 211l713 1185h127l268 -1274q15 -72 53 -97t132 -25h28zM827 561l-94 494l-289 -494h383z
M938 1749q0 -61 -43 -104t-104 -43q-60 0 -103 43.5t-43 103.5t43.5 102.5t104.5 42.5q60 0 102.5 -42.5t42.5 -102.5zM1327 1749q0 -61 -42.5 -104t-104.5 -43q-60 0 -103 43.5t-43 103.5t43.5 102.5t104.5 42.5q60 0 102.5 -42.5t42.5 -102.5z" />
    <glyph glyph-name="Aring" unicode="&#xc5;" horiz-adv-x="1517" 
d="M1452 0h-766l14 111h33q64 0 89 3t46 13q15 6 25 19.5t10 27.5q0 27 -8 66l-41 211h-475l-94 -166q-29 -50 -29 -88q0 -46 31 -66t114 -20h48l-17 -111h-586l15 111h33q125 0 251 211l713 1185h127l268 -1274q15 -72 53 -97t132 -25h28zM827 561l-94 494l-289 -494h383z
M1212 1780q0 -92 -64.5 -156.5t-158.5 -64.5q-88 0 -152.5 65.5t-64.5 155.5q0 89 65 154t156 65t155 -64t64 -155zM1102 1780q0 44 -32.5 76t-76.5 32q-46 0 -78 -32t-32 -78q0 -43 32 -76t76 -33q46 0 78.5 32.5t32.5 78.5z" />
    <glyph glyph-name="AE" unicode="&#xc6;" horiz-adv-x="1820" 
d="M1606 0h-1217l17 111h49q60 0 78.5 5.5t35.5 22.5q9 10 13 17t14.5 39.5t28.5 99.5l69 260h-350l-186 -297q-25 -42 -25 -70q0 -40 38.5 -57.5t125.5 -19.5l-14 -111h-449l14 111q42 9 67 33.5t79 105.5l602 921q41 61 41 107q0 41 -40 65.5t-108 24.5h-63l14 111h1409
l-82 -502h-100q0 108 -8 163.5t-29 96.5q-66 131 -246 131h-22q-53 0 -77.5 -20t-39.5 -78l-119 -449h80q93 0 147.5 58t104.5 192l96 -14l-184 -686l-96 14q12 71 12 127q0 199 -125 199h-65l-129 -484q-11 -46 -11 -65q0 -51 97 -51h24q163 0 318.5 115.5t244.5 303.5
l101 -22zM905 1346l2 8q0 4 -6 8t-12 4q-15 0 -27 -18l-442 -682h303z" />
    <glyph glyph-name="Ccedilla" unicode="&#xc7;" horiz-adv-x="1554" 
d="M1391 434q-80 -227 -249.5 -348t-402.5 -117l-69 -96q40 6 67 6q75 0 125.5 -43.5t50.5 -109.5q0 -80 -76.5 -130.5t-199.5 -50.5q-138 0 -223 60l45 71q86 -38 147 -38q44 0 72.5 21.5t28.5 55.5q0 31 -24.5 51.5t-61.5 20.5q-19 0 -60 -8l-35 35l123 161
q-275 35 -426 199t-151 424q0 180 73 348t194.5 291.5t287 197.5t342.5 74q240 0 377 -168l114 117h94l-118 -586l-101 13q-7 262 -90.5 389t-247.5 127q-102 0 -190.5 -57t-151.5 -164q-90 -148 -142 -335t-52 -360q0 -179 95 -284t257 -105q140 0 266 94.5t183 243.5h129z
" />
    <glyph glyph-name="Egrave" unicode="&#xc8;" horiz-adv-x="1517" 
d="M1233 0h-1317l14 111h29q93 0 122 17t46 81l262 975q27 108 27 129q0 34 -31 44.5t-131 10.5h-39l16 111h1260l-82 -502h-106q-3 223 -72 307t-252 84h-78q-63 0 -88.5 -19t-40.5 -79l-121 -449h64q130 0 197.5 55t121.5 195l109 -14l-185 -686l-108 14q10 76 10 127
q0 103 -39 151t-133 48h-65l-129 -484q-15 -51 -13 -65q0 -28 26 -39.5t85 -11.5h74q175 0 336 110t260 309l106 -22zM1141 1577h-133l-320 164q-53 27 -26 80q22 40 75.5 68t108.5 28q45 0 70.5 -15.5t58.5 -66.5z" />
    <glyph glyph-name="Eacute" unicode="&#xc9;" horiz-adv-x="1517" 
d="M1233 0h-1317l14 111h29q93 0 122 17t46 81l262 975q27 108 27 129q0 34 -31 44.5t-131 10.5h-39l16 111h1260l-82 -502h-106q-3 223 -72 307t-252 84h-78q-63 0 -88.5 -19t-40.5 -79l-121 -449h64q130 0 197.5 55t121.5 195l109 -14l-185 -686l-108 14q10 76 10 127
q0 103 -39 151t-133 48h-65l-129 -484q-15 -51 -13 -65q0 -28 26 -39.5t85 -11.5h74q175 0 336 110t260 309l106 -22zM1245 1821q0 -52 -69 -80l-408 -164h-133l305 258q60 51 94 66.5t78 15.5q55 0 94 -28t39 -68z" />
    <glyph glyph-name="Ecircumflex" unicode="&#xca;" horiz-adv-x="1517" 
d="M1233 0h-1317l14 111h29q93 0 122 17t46 81l262 975q27 108 27 129q0 34 -31 44.5t-131 10.5h-39l16 111h1260l-82 -502h-106q-3 223 -72 307t-252 84h-78q-63 0 -88.5 -19t-40.5 -79l-121 -449h64q130 0 197.5 55t121.5 195l109 -14l-185 -686l-108 14q10 76 10 127
q0 103 -39 151t-133 48h-65l-129 -484q-15 -51 -13 -65q0 -28 26 -39.5t85 -11.5h74q175 0 336 110t260 309l106 -22zM1311 1587h-144l-221 160l-311 -160h-164l385 322h250z" />
    <glyph glyph-name="Edieresis" unicode="&#xcb;" horiz-adv-x="1517" 
d="M1233 0h-1317l14 111h29q93 0 122 17t46 81l262 975q27 108 27 129q0 34 -31 44.5t-131 10.5h-39l16 111h1260l-82 -502h-106q-3 223 -72 307t-252 84h-78q-63 0 -88.5 -19t-40.5 -79l-121 -449h64q130 0 197.5 55t121.5 195l109 -14l-185 -686l-108 14q10 76 10 127
q0 103 -39 151t-133 48h-65l-129 -484q-15 -51 -13 -65q0 -28 26 -39.5t85 -11.5h74q175 0 336 110t260 309l106 -22zM887 1749q0 -61 -43 -104t-105 -43q-60 0 -102.5 43.5t-42.5 103.5t43 102.5t104 42.5q60 0 103 -42.5t43 -102.5zM1276 1749q0 -61 -43 -104t-105 -43
q-60 0 -102.5 43.5t-42.5 103.5t43 102.5t104 42.5q60 0 103 -42.5t43 -102.5z" />
    <glyph glyph-name="Igrave" unicode="&#xcc;" horiz-adv-x="909" 
d="M680 0h-764l14 111h41q62 0 87.5 6t41.5 22q14 12 21.5 32.5t34.5 123.5l237 889q29 102 29 129q0 34 -31 44.5t-131 10.5h-45l16 111h764l-14 -111h-43q-61 0 -86 -6.5t-41 -22.5q-14 -11 -20.5 -30t-34.5 -125l-238 -889q-29 -113 -29 -129q0 -34 31 -44.5t131 -10.5
h45zM932 1577h-133l-320 164q-53 27 -26 80q22 40 75.5 68t108.5 28q45 0 70.5 -15.5t58.5 -66.5z" />
    <glyph glyph-name="Iacute" unicode="&#xcd;" horiz-adv-x="909" 
d="M680 0h-764l14 111h41q62 0 87.5 6t41.5 22q14 12 21.5 32.5t34.5 123.5l237 889q29 102 29 129q0 34 -31 44.5t-131 10.5h-45l16 111h764l-14 -111h-43q-61 0 -86 -6.5t-41 -22.5q-14 -11 -20.5 -30t-34.5 -125l-238 -889q-29 -113 -29 -129q0 -34 31 -44.5t131 -10.5
h45zM1036 1821q0 -52 -69 -80l-408 -164h-133l305 258q60 51 94 66.5t78 15.5q55 0 94 -28t39 -68z" />
    <glyph glyph-name="Icircumflex" unicode="&#xce;" horiz-adv-x="909" 
d="M680 0h-764l14 111h41q62 0 87.5 6t41.5 22q14 12 21.5 32.5t34.5 123.5l237 889q29 102 29 129q0 34 -31 44.5t-131 10.5h-45l16 111h764l-14 -111h-43q-61 0 -86 -6.5t-41 -22.5q-14 -11 -20.5 -30t-34.5 -125l-238 -889q-29 -113 -29 -129q0 -34 31 -44.5t131 -10.5
h45zM1102 1587h-144l-221 160l-311 -160h-164l385 322h250z" />
    <glyph glyph-name="Idieresis" unicode="&#xcf;" horiz-adv-x="909" 
d="M680 0h-764l14 111h41q62 0 87.5 6t41.5 22q14 12 21.5 32.5t34.5 123.5l237 889q29 102 29 129q0 34 -31 44.5t-131 10.5h-45l16 111h764l-14 -111h-43q-61 0 -86 -6.5t-41 -22.5q-14 -11 -20.5 -30t-34.5 -125l-238 -889q-29 -113 -29 -129q0 -34 31 -44.5t131 -10.5
h45zM678 1749q0 -61 -43 -104t-105 -43q-60 0 -102.5 43.5t-42.5 103.5t43 102.5t104 42.5q60 0 103 -42.5t43 -102.5zM1067 1749q0 -61 -42.5 -104t-104.5 -43q-60 0 -103 43.5t-43 103.5t43.5 102.5t104.5 42.5q60 0 102.5 -42.5t42.5 -102.5z" />
    <glyph glyph-name="Eth" unicode="&#xd0;" horiz-adv-x="1705" 
d="M1630 897q0 -204 -81.5 -386.5t-227.5 -305.5q-131 -110 -300.5 -157.5t-436.5 -47.5h-684l14 111h41q61 0 83.5 6t41.5 22q12 12 18.5 31t36.5 125l103 399h-191l35 129h190l101 361q26 96 26 129q0 34 -28.5 44.5t-126.5 10.5h-43l14 111h733q167 0 272.5 -26
t194.5 -89q215 -149 215 -467zM1249 1026q0 167 -78 254.5t-227 87.5h-45q-70 0 -99.5 -25.5t-51.5 -103.5l-115 -416h309l-35 -129h-309l-113 -434q-18 -74 -18 -94q0 -29 25 -42t83 -13h60q132 0 239.5 56t180.5 165q83 126 138.5 323.5t55.5 370.5z" />
    <glyph glyph-name="Ntilde" unicode="&#xd1;" horiz-adv-x="1744" 
d="M1853 1368q-104 0 -165 -55q-44 -42 -61.5 -80.5t-63.5 -198.5l-285 -1063h-164l-606 1159l-184 -686q-30 -120 -36.5 -154t-6.5 -67q0 -59 35 -85.5t122 -26.5h43l-16 -111h-582l15 111q104 3 165 55q43 40 60 79t63 199l232 859q-19 35 -46.5 50t-74.5 15h-115l15 111
h520l549 -1039l159 594q32 121 38.5 154t6.5 67q0 113 -184 113l14 111h568zM1524 1876q-5 -103 -81 -180.5t-173 -77.5q-63 0 -174 43q-107 43 -148 43q-34 0 -56 -22.5t-30 -63.5h-96q7 112 79.5 185t174.5 73q64 0 162 -39q73 -29 96.5 -36t46.5 -7q77 0 102 82h97z" />
    <glyph glyph-name="Ograve" unicode="&#xd2;" horiz-adv-x="1705" 
d="M1632 903q0 -187 -75 -359.5t-200.5 -298.5t-298 -201t-358.5 -75q-284 0 -455 168.5t-171 448.5q0 187 76.5 358.5t203.5 295t297.5 196.5t352.5 73q131 0 247.5 -47t200 -128t132 -193.5t48.5 -237.5zM1092 401q75 145 119 324t44 340q0 156 -68.5 245t-189.5 89
q-115 0 -209 -78t-174 -240q-75 -154 -124.5 -348t-49.5 -338q0 -146 70 -230.5t190 -84.5q222 0 392 321zM1329 1577h-133l-319 164q-54 28 -27 80q22 40 75.5 68t108.5 28q45 0 70.5 -15.5t58.5 -66.5z" />
    <glyph glyph-name="Oacute" unicode="&#xd3;" horiz-adv-x="1705" 
d="M1632 903q0 -187 -75 -359.5t-200.5 -298.5t-298 -201t-358.5 -75q-284 0 -455 168.5t-171 448.5q0 187 76.5 358.5t203.5 295t297.5 196.5t352.5 73q131 0 247.5 -47t200 -128t132 -193.5t48.5 -237.5zM1092 401q75 145 119 324t44 340q0 156 -68.5 245t-189.5 89
q-115 0 -209 -78t-174 -240q-75 -154 -124.5 -348t-49.5 -338q0 -146 70 -230.5t190 -84.5q222 0 392 321zM1434 1821q0 -52 -70 -80l-408 -164h-133l305 258q60 51 94 66.5t78 15.5q55 0 94.5 -28t39.5 -68z" />
    <glyph glyph-name="Ocircumflex" unicode="&#xd4;" horiz-adv-x="1705" 
d="M1632 903q0 -187 -75 -359.5t-200.5 -298.5t-298 -201t-358.5 -75q-284 0 -455 168.5t-171 448.5q0 187 76.5 358.5t203.5 295t297.5 196.5t352.5 73q131 0 247.5 -47t200 -128t132 -193.5t48.5 -237.5zM1092 401q75 145 119 324t44 340q0 156 -68.5 245t-189.5 89
q-115 0 -209 -78t-174 -240q-75 -154 -124.5 -348t-49.5 -338q0 -146 70 -230.5t190 -84.5q222 0 392 321zM1499 1587h-143l-221 160l-312 -160h-164l385 322h250z" />
    <glyph glyph-name="Otilde" unicode="&#xd5;" horiz-adv-x="1705" 
d="M1632 903q0 -187 -75 -359.5t-200.5 -298.5t-298 -201t-358.5 -75q-284 0 -455 168.5t-171 448.5q0 187 76.5 358.5t203.5 295t297.5 196.5t352.5 73q131 0 247.5 -47t200 -128t132 -193.5t48.5 -237.5zM1092 401q75 145 119 324t44 340q0 156 -68.5 245t-189.5 89
q-115 0 -209 -78t-174 -240q-75 -154 -124.5 -348t-49.5 -338q0 -146 70 -230.5t190 -84.5q222 0 392 321zM1501 1876q-5 -103 -81 -180.5t-173 -77.5q-63 0 -174 43q-107 43 -147 43q-34 0 -56 -22.5t-30 -63.5h-97q7 112 79.5 185t174.5 73q64 0 162 -39q72 -29 96 -36
t48 -7q77 0 102 82h96z" />
    <glyph glyph-name="Odieresis" unicode="&#xd6;" horiz-adv-x="1705" 
d="M1632 903q0 -187 -75 -359.5t-200.5 -298.5t-298 -201t-358.5 -75q-284 0 -455 168.5t-171 448.5q0 187 76.5 358.5t203.5 295t297.5 196.5t352.5 73q131 0 247.5 -47t200 -128t132 -193.5t48.5 -237.5zM1092 401q75 145 119 324t44 340q0 156 -68.5 245t-189.5 89
q-115 0 -209 -78t-174 -240q-75 -154 -124.5 -348t-49.5 -338q0 -146 70 -230.5t190 -84.5q222 0 392 321zM1075 1749q0 -61 -42.5 -104t-104.5 -43q-60 0 -103 43.5t-43 103.5t43.5 102.5t104.5 42.5q60 0 102.5 -42.5t42.5 -102.5zM1464 1749q0 -61 -43 -104t-104 -43
q-60 0 -103 43.5t-43 103.5t43.5 102.5t104.5 42.5q60 0 102.5 -42.5t42.5 -102.5z" />
    <glyph glyph-name="multiply" unicode="&#xd7;" horiz-adv-x="1241" 
d="M1057 209l-144 -143l-303 301l-303 -301l-143 143l301 303l-301 303l143 143l303 -301l303 301l144 -143l-301 -303z" />
    <glyph glyph-name="Oslash" unicode="&#xd8;" horiz-adv-x="1705" 
d="M1632 903q0 -186 -75 -358.5t-200 -298.5t-296 -201.5t-356 -75.5q-212 0 -353 86l-184 -225h-133l233 287q-95 83 -144.5 203.5t-49.5 265.5q0 185 74 355.5t197.5 295t293.5 198.5t354 74q196 0 342 -82l125 156h133l-176 -217q215 -188 215 -463zM1210 1276
q-34 58 -89.5 89.5t-123.5 31.5q-224 0 -383 -316q-74 -154 -124 -347t-50 -331q0 -19 4 -69zM1092 403q73 141 118 320t45 330q0 39 -6 106l-770 -946q69 -131 219 -131q224 0 394 321z" />
    <glyph glyph-name="Ugrave" unicode="&#xd9;" horiz-adv-x="1705" 
d="M1819 1368q-43 0 -87.5 -15t-72.5 -40q-43 -38 -61 -78.5t-64 -198.5l-152 -571q-69 -259 -218 -377.5t-404 -118.5q-265 0 -422.5 119t-157.5 313q0 89 35 220l152 563q28 105 28 129q0 35 -27 45t-126 10h-47l14 111h770l-16 -111h-45q-107 0 -136 -29
q-14 -12 -20.5 -31.5t-34.5 -123.5l-166 -623q-31 -111 -31 -180q0 -135 81 -210t227 -75q152 0 256.5 95.5t165.5 328.5l137 516q31 118 38 152t7 67q0 58 -45.5 85.5t-139.5 27.5l15 111h561zM1327 1577h-133l-320 164q-53 27 -26 80q22 40 75.5 68t108.5 28
q45 0 70.5 -15.5t58.5 -66.5z" />
    <glyph glyph-name="Uacute" unicode="&#xda;" horiz-adv-x="1705" 
d="M1819 1368q-43 0 -87.5 -15t-72.5 -40q-43 -38 -61 -78.5t-64 -198.5l-152 -571q-69 -259 -218 -377.5t-404 -118.5q-265 0 -422.5 119t-157.5 313q0 89 35 220l152 563q28 105 28 129q0 35 -27 45t-126 10h-47l14 111h770l-16 -111h-45q-107 0 -136 -29
q-14 -12 -20.5 -31.5t-34.5 -123.5l-166 -623q-31 -111 -31 -180q0 -135 81 -210t227 -75q152 0 256.5 95.5t165.5 328.5l137 516q31 118 38 152t7 67q0 58 -45.5 85.5t-139.5 27.5l15 111h561zM1432 1821q0 -52 -70 -80l-408 -164h-133l305 258q60 51 94 66.5t78 15.5
q55 0 94.5 -28t39.5 -68z" />
    <glyph glyph-name="Ucircumflex" unicode="&#xdb;" horiz-adv-x="1705" 
d="M1819 1368q-43 0 -87.5 -15t-72.5 -40q-43 -38 -61 -78.5t-64 -198.5l-152 -571q-69 -259 -218 -377.5t-404 -118.5q-265 0 -422.5 119t-157.5 313q0 89 35 220l152 563q28 105 28 129q0 35 -27 45t-126 10h-47l14 111h770l-16 -111h-45q-107 0 -136 -29
q-14 -12 -20.5 -31.5t-34.5 -123.5l-166 -623q-31 -111 -31 -180q0 -135 81 -210t227 -75q152 0 256.5 95.5t165.5 328.5l137 516q31 118 38 152t7 67q0 58 -45.5 85.5t-139.5 27.5l15 111h561zM1497 1587h-143l-221 160l-312 -160h-164l385 322h250z" />
    <glyph glyph-name="Udieresis" unicode="&#xdc;" horiz-adv-x="1705" 
d="M1819 1368q-43 0 -87.5 -15t-72.5 -40q-43 -38 -61 -78.5t-64 -198.5l-152 -571q-69 -259 -218 -377.5t-404 -118.5q-265 0 -422.5 119t-157.5 313q0 89 35 220l152 563q28 105 28 129q0 35 -27 45t-126 10h-47l14 111h770l-16 -111h-45q-107 0 -136 -29
q-14 -12 -20.5 -31.5t-34.5 -123.5l-166 -623q-31 -111 -31 -180q0 -135 81 -210t227 -75q152 0 256.5 95.5t165.5 328.5l137 516q31 118 38 152t7 67q0 58 -45.5 85.5t-139.5 27.5l15 111h561zM1073 1749q0 -61 -42.5 -104t-104.5 -43q-60 0 -103 43.5t-43 103.5
t43.5 102.5t104.5 42.5q60 0 102.5 -42.5t42.5 -102.5zM1462 1749q0 -61 -43 -104t-104 -43q-60 0 -103 43.5t-43 103.5t43.5 102.5t104.5 42.5q60 0 102.5 -42.5t42.5 -102.5z" />
    <glyph glyph-name="Yacute" unicode="&#xdd;" horiz-adv-x="1441" 
d="M1577 1368q-96 -3 -160 -45.5t-155 -161.5l-410 -532l-88 -334q-29 -108 -29 -129q0 -34 31.5 -44.5t132.5 -10.5h51l-14 -111h-797l15 111h39q127 0 155 28q13 12 20 31.5t35 124.5l89 334l-240 622q-26 69 -62.5 93t-111.5 24h-47l14 111h750l-15 -111h-88
q-53 0 -71.5 -10t-18.5 -39q0 -23 19 -70l186 -473l326 430q34 43 34 88q0 35 -30.5 54.5t-85.5 19.5h-74l16 111h598zM1284 1821q0 -52 -70 -80l-407 -164h-133l305 258q60 51 94 66.5t78 15.5q55 0 94 -28t39 -68z" />
    <glyph glyph-name="Thorn" unicode="&#xde;" horiz-adv-x="1517" 
d="M1413 801q0 -234 -170.5 -347.5t-554.5 -113.5h-153l-11 -45q-6 -25 -11.5 -48t-8 -32.5t-5.5 -20.5t-3 -12.5t-0.5 -8.5t0.5 -7q0 -34 31 -44.5t130 -10.5h45l-16 -111h-764l15 111h36q62 0 89.5 6t43.5 22q14 12 21.5 32.5t34.5 123.5l237 889q30 118 29 129
q0 34 -31 44.5t-131 10.5h-45l17 111h763l-14 -111h-35q-37 0 -59.5 -1t-41.5 -6t-27.5 -9.5t-17 -18.5t-12 -25.5t-10.5 -37.5l-22 -86h125q145 0 248.5 -26.5t163.5 -78t87 -119.5t27 -159zM1047 858q0 100 -52.5 157.5t-138.5 57.5h-22q-65 0 -89 -19.5t-43 -88.5
l-137 -514h88q198 0 296 107.5t98 299.5z" />
    <glyph glyph-name="germandbls" unicode="&#xdf;" horiz-adv-x="1175" 
d="M1040 453q0 -213 -128.5 -348.5t-329.5 -135.5q-93 0 -176 33l32 111q44 -47 92 -47t89 60.5t64.5 149t36.5 178t13 158.5q0 134 -67 179q-4 3 -34 14t-52.5 25t-22.5 30q0 20 13 28.5t44 8.5q81 0 111 33q36 36 60 119.5t24 173.5q0 89 -31 141.5t-84 52.5
q-72 0 -117.5 -87t-80.5 -294l-119 -690q-22 -126 -75.5 -347.5t-100.5 -367.5l-336 -51q86 213 127.5 359.5t101.5 441.5l94 469q70 349 192.5 504t324.5 155q161 0 263.5 -90.5t102.5 -232.5q0 -132 -82.5 -223t-240.5 -123q153 -61 222.5 -151t69.5 -236z" />
    <glyph glyph-name="agrave" unicode="&#xe0;" horiz-adv-x="1366" 
d="M1323 322q-95 -160 -209.5 -256.5t-220.5 -96.5q-83 0 -128.5 49t-45.5 132q-74 -96 -151.5 -137.5t-182.5 -41.5q-155 0 -254.5 104t-99.5 267q0 122 49 239.5t129.5 205t188 141t218.5 53.5q182 0 256 -129l29 98h322l-201 -680q-21 -84 -21 -94q0 -12 9 -22.5
t20 -10.5q26 0 91 70t122 160zM809 719q0 66 -35 107.5t-92 41.5q-80 0 -155.5 -100t-118.5 -237t-43 -255q0 -74 33.5 -117.5t90.5 -43.5q80 0 156.5 108.5t120 248t43.5 247.5zM944 1102h-110l-244 180q-41 30 -10 90q25 44 73.5 75.5t94.5 31.5q36 0 54 -18t40 -75z" />
    <glyph glyph-name="aacute" unicode="&#xe1;" horiz-adv-x="1366" 
d="M1323 322q-95 -160 -209.5 -256.5t-220.5 -96.5q-83 0 -128.5 49t-45.5 132q-74 -96 -151.5 -137.5t-182.5 -41.5q-155 0 -254.5 104t-99.5 267q0 122 49 239.5t129.5 205t188 141t218.5 53.5q182 0 256 -129l29 98h322l-201 -680q-21 -84 -21 -94q0 -12 9 -22.5
t20 -10.5q26 0 91 70t122 160zM809 719q0 66 -35 107.5t-92 41.5q-80 0 -155.5 -100t-118.5 -237t-43 -255q0 -74 33.5 -117.5t90.5 -43.5q80 0 156.5 108.5t120 248t43.5 247.5zM1053 1372q0 -59 -58 -90l-340 -180h-110l254 284q53 58 80 75.5t63 17.5q46 0 78.5 -31.5
t32.5 -75.5z" />
    <glyph glyph-name="acircumflex" unicode="&#xe2;" horiz-adv-x="1366" 
d="M1323 322q-95 -160 -209.5 -256.5t-220.5 -96.5q-83 0 -128.5 49t-45.5 132q-74 -96 -151.5 -137.5t-182.5 -41.5q-155 0 -254.5 104t-99.5 267q0 122 49 239.5t129.5 205t188 141t218.5 53.5q182 0 256 -129l29 98h322l-201 -680q-21 -84 -21 -94q0 -12 9 -22.5
t20 -10.5q26 0 91 70t122 160zM809 719q0 66 -35 107.5t-92 41.5q-80 0 -155.5 -100t-118.5 -237t-43 -255q0 -74 33.5 -117.5t90.5 -43.5q80 0 156.5 108.5t120 248t43.5 247.5zM1098 1112h-121l-184 176l-258 -176h-138l322 356h207z" />
    <glyph glyph-name="atilde" unicode="&#xe3;" horiz-adv-x="1366" 
d="M1323 322q-95 -160 -209.5 -256.5t-220.5 -96.5q-83 0 -128.5 49t-45.5 132q-74 -96 -151.5 -137.5t-182.5 -41.5q-155 0 -254.5 104t-99.5 267q0 122 49 239.5t129.5 205t188 141t218.5 53.5q182 0 256 -129l29 98h322l-201 -680q-21 -84 -21 -94q0 -12 9 -22.5
t20 -10.5q26 0 91 70t122 160zM809 719q0 66 -35 107.5t-92 41.5q-80 0 -155.5 -100t-118.5 -237t-43 -255q0 -74 33.5 -117.5t90.5 -43.5q80 0 156.5 108.5t120 248t43.5 247.5zM1174 1419q-5 -103 -81 -180.5t-173 -77.5q-64 0 -175 43q-107 43 -147 43q-34 0 -56 -22.5
t-30 -63.5h-96q7 112 79.5 185t174.5 73q63 0 161 -39q72 -29 96 -36t48 -7q77 0 102 82h97z" />
    <glyph glyph-name="adieresis" unicode="&#xe4;" horiz-adv-x="1366" 
d="M1323 322q-95 -160 -209.5 -256.5t-220.5 -96.5q-83 0 -128.5 49t-45.5 132q-74 -96 -151.5 -137.5t-182.5 -41.5q-155 0 -254.5 104t-99.5 267q0 122 49 239.5t129.5 205t188 141t218.5 53.5q182 0 256 -129l29 98h322l-201 -680q-21 -84 -21 -94q0 -12 9 -22.5
t20 -10.5q26 0 91 70t122 160zM809 719q0 66 -35 107.5t-92 41.5q-80 0 -155.5 -100t-118.5 -237t-43 -255q0 -74 33.5 -117.5t90.5 -43.5q80 0 156.5 108.5t120 248t43.5 247.5zM748 1292q0 -61 -43 -104t-105 -43q-60 0 -102.5 43.5t-42.5 103.5t43 103t104 43
q60 0 103 -43t43 -103zM1137 1292q0 -61 -43 -104t-105 -43q-60 0 -102.5 43.5t-42.5 103.5t43 103t104 43q60 0 103 -43t43 -103z" />
    <glyph glyph-name="aring" unicode="&#xe5;" horiz-adv-x="1366" 
d="M1323 322q-95 -160 -209.5 -256.5t-220.5 -96.5q-83 0 -128.5 49t-45.5 132q-74 -96 -151.5 -137.5t-182.5 -41.5q-155 0 -254.5 104t-99.5 267q0 122 49 239.5t129.5 205t188 141t218.5 53.5q182 0 256 -129l29 98h322l-201 -680q-21 -84 -21 -94q0 -12 9 -22.5
t20 -10.5q26 0 91 70t122 160zM809 719q0 66 -35 107.5t-92 41.5q-80 0 -155.5 -100t-118.5 -237t-43 -255q0 -74 33.5 -117.5t90.5 -43.5q80 0 156.5 108.5t120 248t43.5 247.5zM1016 1292q0 -92 -64.5 -156.5t-158.5 -64.5q-88 0 -153 65.5t-65 155.5q0 89 65.5 154
t156.5 65t155 -64t64 -155zM905 1292q0 44 -32 76.5t-76 32.5q-46 0 -78.5 -32.5t-32.5 -78.5q0 -43 32.5 -75.5t76.5 -32.5q46 0 78 32t32 78z" />
    <glyph glyph-name="ae" unicode="&#xe6;" horiz-adv-x="1669" 
d="M1487 186q-99 -111 -214 -164t-259 -53q-293 0 -361 232q-133 -232 -411 -232q-132 0 -206.5 57t-74.5 158q0 97 65.5 163t219 113.5t418.5 80.5q34 128 34 196q0 67 -53.5 107.5t-142.5 40.5q-46 0 -75.5 -10t-29.5 -25q0 -8 30 -57t30 -68q0 -56 -45.5 -93.5
t-112.5 -37.5q-68 0 -114 45t-46 111q0 103 99 167t256 64q133 0 218 -33t150 -108q77 65 183.5 103t211.5 38q138 0 233 -72t95 -176q0 -143 -170.5 -244t-480.5 -118q-6 -47 -6 -92q0 -88 47 -138.5t129 -50.5q80 0 151 38t160 130zM637 438q-170 -15 -261 -70.5
t-91 -144.5q0 -47 29.5 -77.5t74.5 -30.5q48 0 95 30t83 86q18 28 32 70t38 137zM1335 788q0 44 -24 70.5t-64 26.5q-97 0 -178.5 -115t-118.5 -303q104 15 191 59t140.5 113t53.5 149z" />
    <glyph glyph-name="ccedilla" unicode="&#xe7;" horiz-adv-x="1099" 
d="M905 238q-214 -269 -467 -269q-16 0 -30 2l-72 -96q43 6 70 6q75 0 125.5 -43.5t50.5 -109.5q0 -79 -77 -129t-200 -50q-138 0 -223 60l45 72q89 -39 145 -39q46 0 74.5 21.5t28.5 55.5q0 31 -25 51.5t-63 20.5q-19 0 -60 -8l-32 35l127 162q-151 31 -233.5 127
t-82.5 243q0 168 87 313.5t235 231.5t319 86q160 0 255 -72t95 -192q0 -86 -48.5 -138.5t-127.5 -52.5q-70 0 -114.5 41.5t-44.5 106.5q0 43 17.5 72t59.5 55q25 14 25 33q0 23 -24.5 37t-61.5 14q-131 0 -227 -178q-46 -87 -76.5 -205.5t-30.5 -214.5q0 -85 47 -139
t121 -54q144 0 319 207z" />
    <glyph glyph-name="egrave" unicode="&#xe8;" horiz-adv-x="1062" 
d="M881 186q-191 -215 -467 -215q-203 0 -310.5 97.5t-107.5 281.5q0 165 89.5 311t239 233t318.5 87q144 0 240 -71t96 -177q0 -211 -348 -313q-134 -41 -305 -49q-4 -53 -4 -90q0 -88 47 -138.5t129 -50.5q80 0 149.5 37t161.5 129zM729 788q0 44 -24.5 70.5t-65.5 26.5
q-96 0 -178 -115.5t-117 -302.5q81 12 143 33q104 40 173 121.5t69 166.5zM895 1102h-111l-243 180q-41 31 -11 90q25 44 73.5 75.5t94.5 31.5q37 0 55 -18t40 -75z" />
    <glyph glyph-name="eacute" unicode="&#xe9;" horiz-adv-x="1062" 
d="M881 186q-191 -215 -467 -215q-203 0 -310.5 97.5t-107.5 281.5q0 165 89.5 311t239 233t318.5 87q144 0 240 -71t96 -177q0 -211 -348 -313q-134 -41 -305 -49q-4 -53 -4 -90q0 -88 47 -138.5t129 -50.5q80 0 149.5 37t161.5 129zM729 788q0 44 -24.5 70.5t-65.5 26.5
q-96 0 -178 -115.5t-117 -302.5q81 12 143 33q104 40 173 121.5t69 166.5zM1006 1372q0 -59 -58 -90l-340 -180h-110l254 284q53 58 80 75.5t63 17.5q46 0 78.5 -31.5t32.5 -75.5z" />
    <glyph glyph-name="ecircumflex" unicode="&#xea;" horiz-adv-x="1062" 
d="M881 186q-191 -215 -467 -215q-203 0 -310.5 97.5t-107.5 281.5q0 165 89.5 311t239 233t318.5 87q144 0 240 -71t96 -177q0 -211 -348 -313q-134 -41 -305 -49q-4 -53 -4 -90q0 -88 47 -138.5t129 -50.5q80 0 149.5 37t161.5 129zM729 788q0 44 -24.5 70.5t-65.5 26.5
q-96 0 -178 -115.5t-117 -302.5q81 12 143 33q104 40 173 121.5t69 166.5zM1049 1112h-121l-185 176l-258 -176h-137l322 356h207z" />
    <glyph glyph-name="edieresis" unicode="&#xeb;" horiz-adv-x="1062" 
d="M881 186q-191 -215 -467 -215q-203 0 -310.5 97.5t-107.5 281.5q0 165 89.5 311t239 233t318.5 87q144 0 240 -71t96 -177q0 -211 -348 -313q-134 -41 -305 -49q-4 -53 -4 -90q0 -88 47 -138.5t129 -50.5q80 0 149.5 37t161.5 129zM729 788q0 44 -24.5 70.5t-65.5 26.5
q-96 0 -178 -115.5t-117 -302.5q81 12 143 33q104 40 173 121.5t69 166.5zM698 1292q0 -62 -43 -104.5t-104 -42.5q-60 0 -102.5 43.5t-42.5 103.5t43 103t104 43q60 0 102.5 -43t42.5 -103zM1087 1292q0 -62 -42.5 -104.5t-104.5 -42.5q-60 0 -102.5 43.5t-42.5 103.5
t43 103t104 43q60 0 102.5 -43t42.5 -103z" />
    <glyph glyph-name="igrave" unicode="&#xec;" horiz-adv-x="796" 
d="M723 305q-104 -175 -205.5 -255.5t-218.5 -80.5q-92 0 -152.5 52.5t-60.5 132.5q0 48 31 151l104 348q31 102 31 138q0 38 -25 50.5t-100 12.5h-49l14 96l547 29l-215 -729q-21 -73 -21 -86q0 -14 9.5 -23.5t23.5 -9.5q62 0 207 231zM700 1102h-110l-244 180
q-41 30 -10 90q25 44 73.5 75.5t94.5 31.5q36 0 54 -18t40 -75z" />
    <glyph glyph-name="iacute" unicode="&#xed;" horiz-adv-x="796" 
d="M723 305q-104 -175 -205.5 -255.5t-218.5 -80.5q-92 0 -152.5 52.5t-60.5 132.5q0 48 31 151l104 348q31 102 31 138q0 38 -25 50.5t-100 12.5h-49l14 96l547 29l-215 -729q-21 -73 -21 -86q0 -14 9.5 -23.5t23.5 -9.5q62 0 207 231zM809 1372q0 -59 -57 -90l-340 -180
h-111l254 284q53 58 80 75.5t63 17.5q46 0 78.5 -31.5t32.5 -75.5z" />
    <glyph glyph-name="icircumflex" unicode="&#xee;" horiz-adv-x="796" 
d="M723 305q-104 -175 -205.5 -255.5t-218.5 -80.5q-92 0 -152.5 52.5t-60.5 132.5q0 48 31 151l104 348q31 102 31 138q0 38 -25 50.5t-100 12.5h-49l14 96l547 29l-215 -729q-21 -73 -21 -86q0 -14 9.5 -23.5t23.5 -9.5q62 0 207 231zM854 1112h-121l-184 176l-258 -176
h-137l321 356h207z" />
    <glyph glyph-name="idieresis" unicode="&#xef;" horiz-adv-x="796" 
d="M723 305q-104 -175 -205.5 -255.5t-218.5 -80.5q-92 0 -152.5 52.5t-60.5 132.5q0 48 31 151l104 348q31 102 31 138q0 38 -25 50.5t-100 12.5h-49l14 96l547 29l-215 -729q-21 -73 -21 -86q0 -14 9.5 -23.5t23.5 -9.5q62 0 207 231zM504 1292q0 -61 -43 -104t-105 -43
q-60 0 -102.5 43.5t-42.5 103.5t43 103t104 43q60 0 103 -43t43 -103zM893 1292q0 -61 -43 -104t-105 -43q-60 0 -102.5 43.5t-42.5 103.5t43.5 103t104.5 43q60 0 102.5 -43t42.5 -103z" />
    <glyph glyph-name="eth" unicode="&#xf0;" horiz-adv-x="1175" 
d="M1106 635q0 -153 -50.5 -279.5t-138.5 -210t-208 -129t-258 -45.5q-201 0 -316 113t-115 299q0 118 52 228.5t138 191.5t203.5 129.5t243.5 48.5q73 0 146 -18q-15 81 -51.5 158.5t-110.5 185.5l-285 -146l-53 105l260 131q-45 57 -164 133l70 67q116 -50 223 -133
l293 150l53 -105l-254 -131q181 -206 251.5 -368.5t70.5 -374.5zM686 274q43 109 72.5 240.5t29.5 214.5q0 69 -37 112.5t-96 43.5q-83 0 -158 -107.5t-117 -261t-42 -297.5q0 -75 34.5 -117.5t94.5 -42.5q134 0 219 215z" />
    <glyph glyph-name="ntilde" unicode="&#xf1;" horiz-adv-x="1402" 
d="M1315 311q-118 -183 -218.5 -262.5t-213.5 -79.5q-96 0 -152.5 50.5t-56.5 136.5q0 39 8 72.5t33 105.5l127 346q18 49 18 74q0 20 -19 36.5t-42 16.5q-75 0 -195 -141q-67 -81 -111 -171.5t-87 -234.5l-78 -260h-322l195 653q30 102 30 138q0 38 -25 50.5t-100 12.5h-49
l15 96l512 29l-66 -270q115 148 211 210t209 62q101 0 166 -59.5t65 -151.5q0 -94 -63 -262l-96 -262q-21 -64 -21 -78q0 -12 9 -22.5t20 -10.5q28 0 73 46t126 159l18 22zM1204 1419q-5 -103 -81 -180.5t-173 -77.5q-63 0 -174 43q-107 43 -147 43q-34 0 -56.5 -22.5
t-29.5 -63.5h-97q7 112 79.5 185t174.5 73q64 0 162 -39q72 -29 96 -36t48 -7q77 0 102 82h96z" />
    <glyph glyph-name="ograve" unicode="&#xf2;" horiz-adv-x="1175" 
d="M1106 584q0 -171 -86 -311.5t-236 -221t-333 -80.5q-197 0 -308 105q-57 52 -90 135t-33 172q0 159 87.5 297t236.5 219.5t320 81.5q94 0 180.5 -29.5t146.5 -81.5q115 -98 115 -286zM686 274q42 107 72 239t30 212q0 72 -36.5 116t-96.5 44q-131 0 -225 -226
q-40 -97 -66 -221.5t-26 -216.5q0 -76 34.5 -119t96.5 -43q134 0 217 215zM924 1102h-111l-244 180q-41 30 -10 90q25 44 73.5 75.5t94.5 31.5q37 0 54.5 -18t39.5 -75z" />
    <glyph glyph-name="oacute" unicode="&#xf3;" horiz-adv-x="1175" 
d="M1106 584q0 -171 -86 -311.5t-236 -221t-333 -80.5q-197 0 -308 105q-57 52 -90 135t-33 172q0 159 87.5 297t236.5 219.5t320 81.5q94 0 180.5 -29.5t146.5 -81.5q115 -98 115 -286zM686 274q42 107 72 239t30 212q0 72 -36.5 116t-96.5 44q-131 0 -225 -226
q-40 -97 -66 -221.5t-26 -216.5q0 -76 34.5 -119t96.5 -43q134 0 217 215zM1034 1372q0 -59 -57 -90l-340 -180h-111l254 284q53 57 80.5 75t63.5 18q46 0 78 -31.5t32 -75.5z" />
    <glyph glyph-name="ocircumflex" unicode="&#xf4;" horiz-adv-x="1175" 
d="M1106 584q0 -171 -86 -311.5t-236 -221t-333 -80.5q-197 0 -308 105q-57 52 -90 135t-33 172q0 159 87.5 297t236.5 219.5t320 81.5q94 0 180.5 -29.5t146.5 -81.5q115 -98 115 -286zM686 274q42 107 72 239t30 212q0 72 -36.5 116t-96.5 44q-131 0 -225 -226
q-40 -97 -66 -221.5t-26 -216.5q0 -76 34.5 -119t96.5 -43q134 0 217 215zM1077 1112h-121l-184 176l-258 -176h-137l321 356h207z" />
    <glyph glyph-name="otilde" unicode="&#xf5;" horiz-adv-x="1175" 
d="M1106 584q0 -171 -86 -311.5t-236 -221t-333 -80.5q-197 0 -308 105q-57 52 -90 135t-33 172q0 159 87.5 297t236.5 219.5t320 81.5q94 0 180.5 -29.5t146.5 -81.5q115 -98 115 -286zM686 274q42 107 72 239t30 212q0 72 -36.5 116t-96.5 44q-131 0 -225 -226
q-40 -97 -66 -221.5t-26 -216.5q0 -76 34.5 -119t96.5 -43q134 0 217 215zM1153 1419q-5 -103 -81 -180.5t-173 -77.5q-63 0 -174 43q-107 43 -147 43q-34 0 -56 -22.5t-30 -63.5h-97q7 112 79.5 185t174.5 73q64 0 162 -39q73 -29 96.5 -36t46.5 -7q78 0 103 82h96z" />
    <glyph glyph-name="odieresis" unicode="&#xf6;" horiz-adv-x="1175" 
d="M1106 584q0 -171 -86 -311.5t-236 -221t-333 -80.5q-197 0 -308 105q-57 52 -90 135t-33 172q0 159 87.5 297t236.5 219.5t320 81.5q94 0 180.5 -29.5t146.5 -81.5q115 -98 115 -286zM686 274q42 107 72 239t30 212q0 72 -36.5 116t-96.5 44q-131 0 -225 -226
q-40 -97 -66 -221.5t-26 -216.5q0 -76 34.5 -119t96.5 -43q134 0 217 215zM727 1292q0 -62 -42.5 -104.5t-104.5 -42.5q-60 0 -103 43.5t-43 103.5t43.5 103t104.5 43q60 0 102.5 -43t42.5 -103zM1116 1292q0 -62 -43 -104.5t-104 -42.5q-60 0 -103 43.5t-43 103.5t43.5 103
t104.5 43q60 0 102.5 -43t42.5 -103z" />
    <glyph glyph-name="divide" unicode="&#xf7;" horiz-adv-x="1241" 
d="M1141 410h-1061v204h1061v-204zM803 883q0 -79 -56.5 -136t-136.5 -57q-79 0 -135.5 56.5t-56.5 136.5q0 78 56.5 135t135.5 57t136 -57t57 -135zM803 143q0 -79 -56.5 -135.5t-136.5 -56.5t-136 56.5t-56 135.5q0 78 56.5 135.5t135.5 57.5t136 -57.5t57 -135.5z" />
    <glyph glyph-name="oslash" unicode="&#xf8;" horiz-adv-x="1175" 
d="M1106 584q0 -128 -50.5 -241.5t-137 -195t-208 -129t-257.5 -47.5q-49 0 -111 9l-137 -238h-111l152 266q-108 47 -167 145t-59 230q0 117 52 226.5t137.5 190.5t202.5 130t241 49q62 0 142 -14l125 219h110l-143 -248q107 -47 163 -136.5t56 -215.5zM733 858
q-39 25 -80 25q-63 0 -120 -57.5t-103 -166.5q-40 -96 -66 -221.5t-26 -216.5q0 -5 4 -45zM686 272q42 107 72 239t30 212q0 17 -2 35l-389 -680q32 -19 70 -19q137 0 219 213z" />
    <glyph glyph-name="ugrave" unicode="&#xf9;" horiz-adv-x="1402" 
d="M1309 311q-120 -185 -219 -262.5t-216 -77.5q-198 0 -198 174q0 34 2 54q-100 -120 -188.5 -174t-186.5 -54q-101 0 -163 62t-62 162q0 70 43 211l72 247q32 102 32 138q0 38 -25 50.5t-100 12.5h-20l14 96l518 29l-184 -623q-4 -11 -25 -84l-3.5 -14t-5 -18.5
t-5.5 -16.5q-4 -24 -4 -28q0 -20 15.5 -36t35.5 -16q40 0 105 53t121 130q87 120 139 286l98 338h324l-191 -639q-25 -88 -29 -104t-4 -33q0 -10 9.5 -19.5t19.5 -9.5q26 0 82.5 62t120.5 162zM991 1102h-110l-244 180q-41 30 -10 90q25 44 73.5 75.5t94.5 31.5
q37 0 54.5 -18t39.5 -75z" />
    <glyph glyph-name="uacute" unicode="&#xfa;" horiz-adv-x="1402" 
d="M1309 311q-120 -185 -219 -262.5t-216 -77.5q-198 0 -198 174q0 34 2 54q-100 -120 -188.5 -174t-186.5 -54q-101 0 -163 62t-62 162q0 70 43 211l72 247q32 102 32 138q0 38 -25 50.5t-100 12.5h-20l14 96l518 29l-184 -623q-4 -11 -25 -84l-3.5 -14t-5 -18.5
t-5.5 -16.5q-4 -24 -4 -28q0 -20 15.5 -36t35.5 -16q40 0 105 53t121 130q87 120 139 286l98 338h324l-191 -639q-25 -88 -29 -104t-4 -33q0 -10 9.5 -19.5t19.5 -9.5q26 0 82.5 62t120.5 162zM1102 1372q0 -59 -58 -90l-339 -180h-111l254 284q53 58 80 75.5t63 17.5
q46 0 78.5 -31.5t32.5 -75.5z" />
    <glyph glyph-name="ucircumflex" unicode="&#xfb;" horiz-adv-x="1402" 
d="M1309 311q-120 -185 -219 -262.5t-216 -77.5q-198 0 -198 174q0 34 2 54q-100 -120 -188.5 -174t-186.5 -54q-101 0 -163 62t-62 162q0 70 43 211l72 247q32 102 32 138q0 38 -25 50.5t-100 12.5h-20l14 96l518 29l-184 -623q-4 -11 -25 -84l-3.5 -14t-5 -18.5
t-5.5 -16.5q-4 -24 -4 -28q0 -20 15.5 -36t35.5 -16q40 0 105 53t121 130q87 120 139 286l98 338h324l-191 -639q-25 -88 -29 -104t-4 -33q0 -10 9.5 -19.5t19.5 -9.5q26 0 82.5 62t120.5 162zM1145 1112h-121l-184 176l-258 -176h-138l322 356h207z" />
    <glyph glyph-name="udieresis" unicode="&#xfc;" horiz-adv-x="1402" 
d="M1309 311q-120 -185 -219 -262.5t-216 -77.5q-198 0 -198 174q0 34 2 54q-100 -120 -188.5 -174t-186.5 -54q-101 0 -163 62t-62 162q0 70 43 211l72 247q32 102 32 138q0 38 -25 50.5t-100 12.5h-20l14 96l518 29l-184 -623q-4 -11 -25 -84l-3.5 -14t-5 -18.5
t-5.5 -16.5q-4 -24 -4 -28q0 -20 15.5 -36t35.5 -16q40 0 105 53t121 130q87 120 139 286l98 338h324l-191 -639q-25 -88 -29 -104t-4 -33q0 -10 9.5 -19.5t19.5 -9.5q26 0 82.5 62t120.5 162zM795 1292q0 -61 -43 -104t-105 -43q-60 0 -102.5 43.5t-42.5 103.5t43 103
t104 43q60 0 103 -43t43 -103zM1184 1292q0 -61 -43 -104t-105 -43q-60 0 -102.5 43.5t-42.5 103.5t43 103t104 43q60 0 103 -43t43 -103z" />
    <glyph glyph-name="yacute" unicode="&#xfd;" horiz-adv-x="1062" 
d="M1008 854q0 -88 -83 -276t-218 -408q-183 -302 -336 -455q-126 -129 -289 -129q-98 0 -157.5 51t-59.5 136q0 66 40.5 107.5t104.5 41.5q62 0 102 -37t40 -94q0 -22 -13 -57l-2 -13q0 -8 8.5 -14t18.5 -6q41 0 106 52t119 128l60 82l-205 692q-17 58 -28.5 75.5
t-31.5 17.5q-27 0 -47 -40t-63 -180l-88 27q51 217 132 321.5t199 104.5q52 0 94.5 -25.5t65.5 -70.5q42 -79 76 -203l115 -389q77 130 107 200.5t30 122.5q0 29 -7 49t-32 60q-43 62 -43 121t41 97t104 38q64 0 102 -34t38 -93zM934 1372q0 -59 -57 -90l-340 -180h-111
l254 284q53 58 80 75.5t63 17.5q46 0 78.5 -31.5t32.5 -75.5z" />
    <glyph glyph-name="thorn" unicode="&#xfe;" horiz-adv-x="1327" 
d="M1208 610q0 -123 -49 -241.5t-129 -205.5t-188 -140.5t-221 -53.5q-92 0 -154 32t-105 101l-69 -235q-33 -113 -33 -131q0 -28 28 -40.5t89 -12.5h31l-15 -97h-635l15 97h8q42 0 79.5 8t49.5 20q13 12 20.5 31.5t38.5 124.5l393 1323q31 107 31 131q0 38 -25 50.5
t-102 12.5h-49l14 125h547l-186 -632q68 57 129 80.5t135 23.5q158 0 255 -102t97 -269zM881 688q0 67 -36 108.5t-95 41.5q-111 0 -197 -152q-48 -86 -89.5 -226.5t-41.5 -219.5q0 -63 41.5 -107.5t99.5 -44.5q64 0 125 63.5t102 156.5t66 196t25 184z" />
    <glyph glyph-name="ydieresis" unicode="&#xff;" horiz-adv-x="1062" 
d="M1008 854q0 -88 -83 -276t-218 -408q-183 -302 -336 -455q-126 -129 -289 -129q-98 0 -157.5 51t-59.5 136q0 66 40.5 107.5t104.5 41.5q62 0 102 -37t40 -94q0 -22 -13 -57l-2 -13q0 -8 8.5 -14t18.5 -6q41 0 106 52t119 128l60 82l-205 692q-17 58 -28.5 75.5
t-31.5 17.5q-27 0 -47 -40t-63 -180l-88 27q51 217 132 321.5t199 104.5q52 0 94.5 -25.5t65.5 -70.5q42 -79 76 -203l115 -389q77 130 107 200.5t30 122.5q0 29 -7 49t-32 60q-43 62 -43 121t41 97t104 38q64 0 102 -34t38 -93zM629 1292q0 -61 -43 -104t-105 -43
q-60 0 -102.5 43.5t-42.5 103.5t43 103t104 43q60 0 103 -43t43 -103zM1018 1292q0 -61 -43 -104t-105 -43q-60 0 -102.5 43.5t-42.5 103.5t43 103t104 43q60 0 103 -43t43 -103z" />
    <glyph glyph-name="Amacron" unicode="&#x100;" horiz-adv-x="1517" 
d="M1452 0h-766l14 111h33q64 0 89 3t46 13q15 6 25 19.5t10 27.5q0 27 -8 66l-41 211h-475l-94 -166q-29 -50 -29 -88q0 -46 31 -66t114 -20h48l-17 -111h-586l15 111h33q125 0 251 211l713 1185h127l268 -1274q15 -72 53 -97t132 -25h28zM827 561l-94 494l-289 -494h383z
M1348 1825l-43 -156h-684l43 156h684z" />
    <glyph glyph-name="amacron" unicode="&#x101;" horiz-adv-x="1366" 
d="M1323 322q-95 -160 -209.5 -256.5t-220.5 -96.5q-83 0 -128.5 49t-45.5 132q-74 -96 -151.5 -137.5t-182.5 -41.5q-155 0 -254.5 104t-99.5 267q0 122 49 239.5t129.5 205t188 141t218.5 53.5q182 0 256 -129l29 98h322l-201 -680q-21 -84 -21 -94q0 -12 9 -22.5
t20 -10.5q26 0 91 70t122 160zM809 719q0 66 -35 107.5t-92 41.5q-80 0 -155.5 -100t-118.5 -237t-43 -255q0 -74 33.5 -117.5t90.5 -43.5q80 0 156.5 108.5t120 248t43.5 247.5zM1159 1368l-43 -156h-684l43 156h684z" />
    <glyph glyph-name="Abreve" unicode="&#x102;" horiz-adv-x="1517" 
d="M1452 0h-766l14 111h33q64 0 89 3t46 13q15 6 25 19.5t10 27.5q0 27 -8 66l-41 211h-475l-94 -166q-29 -50 -29 -88q0 -46 31 -66t114 -20h48l-17 -111h-586l15 111h33q125 0 251 211l713 1185h127l268 -1274q15 -72 53 -97t132 -25h28zM827 561l-94 494l-289 -494h383z
M1397 1898q-12 -104 -105 -188q-127 -115 -348 -115q-182 0 -272.5 83.5t-65.5 219.5h115q9 -83 67.5 -120t180.5 -37q115 0 201.5 43.5t109.5 113.5h117z" />
    <glyph glyph-name="abreve" unicode="&#x103;" horiz-adv-x="1366" 
d="M1323 322q-95 -160 -209.5 -256.5t-220.5 -96.5q-83 0 -128.5 49t-45.5 132q-74 -96 -151.5 -137.5t-182.5 -41.5q-155 0 -254.5 104t-99.5 267q0 122 49 239.5t129.5 205t188 141t218.5 53.5q182 0 256 -129l29 98h322l-201 -680q-21 -84 -21 -94q0 -12 9 -22.5
t20 -10.5q26 0 91 70t122 160zM809 719q0 66 -35 107.5t-92 41.5q-80 0 -155.5 -100t-118.5 -237t-43 -255q0 -74 33.5 -117.5t90.5 -43.5q80 0 156.5 108.5t120 248t43.5 247.5zM1126 1458q-10 -118 -86 -209q-106 -127 -290 -127q-135 0 -210 72.5t-75 204.5q0 5 4 59h94
q7 -92 56 -133t151 -41q96 0 168 48t92 126h96z" />
    <glyph glyph-name="Aogonek" unicode="&#x104;" horiz-adv-x="1517" 
d="M1368 -313q-45 -67 -117.5 -106.5t-148.5 -39.5q-87 0 -148 57.5t-61 151.5q0 58 28 110t59 80.5t75 59.5h-369l14 111h33q64 0 89 3t46 13q15 6 25 19.5t10 27.5q0 27 -8 66l-41 211h-475l-94 -166q-29 -50 -29 -88q0 -46 31 -66t114 -20h48l-17 -111h-586l15 111h33
q125 0 251 211l713 1185h127l268 -1274q15 -72 53 -97t132 -25h28l-14 -111h-119q-94 0 -171 -59t-77 -134q0 -41 24 -67.5t58 -26.5q86 0 144 47zM827 561l-94 494l-289 -494h383z" />
    <glyph glyph-name="aogonek" unicode="&#x105;" horiz-adv-x="1366" 
d="M1153 -313q-45 -67 -117.5 -106.5t-148.5 -39.5q-87 0 -148 57.5t-61 151.5q0 130 139 234q-47 19 -72.5 62.5t-25.5 103.5q-74 -96 -151.5 -137.5t-182.5 -41.5q-155 0 -254.5 104t-99.5 267q0 122 49 239.5t129.5 205t188 141t218.5 53.5q182 0 256 -129l29 98h322
l-201 -680q-21 -84 -21 -94q0 -12 9 -22.5t20 -10.5q26 0 91 70t122 160l80 -51q-75 -126 -163.5 -214.5t-178.5 -121.5q-52 -19 -81.5 -70.5t-29.5 -108.5q0 -41 24 -67.5t58 -26.5q86 0 144 47zM809 719q0 66 -35 107.5t-92 41.5q-80 0 -155.5 -100t-118.5 -237t-43 -255
q0 -74 33.5 -117.5t90.5 -43.5q80 0 156.5 108.5t120 248t43.5 247.5z" />
    <glyph glyph-name="Cacute" unicode="&#x106;" horiz-adv-x="1554" 
d="M1391 434q-30 -97 -87.5 -180t-137 -147.5t-186 -101t-226.5 -36.5q-307 0 -494.5 170.5t-187.5 458.5q0 180 73 348t194.5 291.5t287 197.5t342.5 74q240 0 377 -168l114 117h94l-118 -586l-101 13q-7 262 -90.5 389t-247.5 127q-82 0 -157.5 -41.5t-133 -112
t-105 -162.5t-77.5 -194.5t-46.5 -205.5t-16.5 -198q0 -180 94.5 -284.5t257.5 -104.5q140 0 266 94t183 242h129zM1442 1821q0 -52 -70 -80l-407 -164h-134l306 258q60 51 94 66.5t78 15.5q55 0 94 -28t39 -68z" />
    <glyph glyph-name="cacute" unicode="&#x107;" horiz-adv-x="1099" 
d="M905 238q-110 -138 -225 -202.5t-250 -64.5q-194 0 -309 103t-115 276q0 168 87 313t235 230.5t319 85.5q159 0 254.5 -71.5t95.5 -190.5q0 -86 -48.5 -138.5t-127.5 -52.5q-70 0 -114.5 41.5t-44.5 106.5q0 43 17 71t60 54q15 10 20 16t5 16q0 23 -24.5 37.5t-61.5 14.5
q-131 0 -227 -178q-46 -85 -76.5 -203t-30.5 -213q0 -85 47 -139t121 -54q143 0 319 205zM989 1372q0 -59 -57 -90l-340 -180h-111l254 284q53 57 80.5 75t63.5 18q46 0 78 -31.5t32 -75.5z" />
    <glyph glyph-name="Ccircumflex" unicode="&#x108;" horiz-adv-x="1554" 
d="M1391 434q-30 -97 -87.5 -180t-137 -147.5t-186 -101t-226.5 -36.5q-307 0 -494.5 170.5t-187.5 458.5q0 180 73 348t194.5 291.5t287 197.5t342.5 74q240 0 377 -168l114 117h94l-118 -586l-101 13q-7 262 -90.5 389t-247.5 127q-82 0 -157.5 -41.5t-133 -112
t-105 -162.5t-77.5 -194.5t-46.5 -205.5t-16.5 -198q0 -180 94.5 -284.5t257.5 -104.5q140 0 266 94t183 242h129zM1507 1587h-143l-221 160l-312 -160h-163l385 322h250z" />
    <glyph glyph-name="ccircumflex" unicode="&#x109;" horiz-adv-x="1099" 
d="M905 238q-110 -138 -225 -202.5t-250 -64.5q-194 0 -309 103t-115 276q0 168 87 313t235 230.5t319 85.5q159 0 254.5 -71.5t95.5 -190.5q0 -86 -48.5 -138.5t-127.5 -52.5q-70 0 -114.5 41.5t-44.5 106.5q0 43 17 71t60 54q15 10 20 16t5 16q0 23 -24.5 37.5t-61.5 14.5
q-131 0 -227 -178q-46 -85 -76.5 -203t-30.5 -213q0 -85 47 -139t121 -54q143 0 319 205zM1032 1112h-121l-184 176l-258 -176h-137l321 356h207z" />
    <glyph glyph-name="Cdotaccent" unicode="&#x10a;" horiz-adv-x="1554" 
d="M1391 434q-30 -97 -87.5 -180t-137 -147.5t-186 -101t-226.5 -36.5q-307 0 -494.5 170.5t-187.5 458.5q0 180 73 348t194.5 291.5t287 197.5t342.5 74q240 0 377 -168l114 117h94l-118 -586l-101 13q-7 262 -90.5 389t-247.5 127q-82 0 -157.5 -41.5t-133 -112
t-105 -162.5t-77.5 -194.5t-46.5 -205.5t-16.5 -198q0 -180 94.5 -284.5t257.5 -104.5q140 0 266 94t183 242h129zM1278 1749q0 -61 -43 -104t-105 -43q-60 0 -102.5 43.5t-42.5 103.5t43.5 102.5t104.5 42.5q60 0 102.5 -42.5t42.5 -102.5z" />
    <glyph glyph-name="cdotaccent" unicode="&#x10b;" horiz-adv-x="1099" 
d="M905 238q-110 -138 -225 -202.5t-250 -64.5q-194 0 -309 103t-115 276q0 168 87 313t235 230.5t319 85.5q159 0 254.5 -71.5t95.5 -190.5q0 -86 -48.5 -138.5t-127.5 -52.5q-70 0 -114.5 41.5t-44.5 106.5q0 43 17 71t60 54q15 10 20 16t5 16q0 23 -24.5 37.5t-61.5 14.5
q-131 0 -227 -178q-46 -85 -76.5 -203t-30.5 -213q0 -85 47 -139t121 -54q143 0 319 205zM877 1292q0 -61 -43 -104t-105 -43q-60 0 -102.5 43.5t-42.5 103.5t43 103t104 43q60 0 103 -43t43 -103z" />
    <glyph glyph-name="Ccaron" unicode="&#x10c;" horiz-adv-x="1554" 
d="M1391 434q-30 -97 -87.5 -180t-137 -147.5t-186 -101t-226.5 -36.5q-307 0 -494.5 170.5t-187.5 458.5q0 180 73 348t194.5 291.5t287 197.5t342.5 74q240 0 377 -168l114 117h94l-118 -586l-101 13q-7 262 -90.5 389t-247.5 127q-82 0 -157.5 -41.5t-133 -112
t-105 -162.5t-77.5 -194.5t-46.5 -205.5t-16.5 -198q0 -180 94.5 -284.5t257.5 -104.5q140 0 266 94t183 242h129zM1593 1909l-385 -322h-250l-204 322h143l221 -160l312 160h163z" />
    <glyph glyph-name="ccaron" unicode="&#x10d;" horiz-adv-x="1099" 
d="M905 238q-110 -138 -225 -202.5t-250 -64.5q-194 0 -309 103t-115 276q0 168 87 313t235 230.5t319 85.5q159 0 254.5 -71.5t95.5 -190.5q0 -86 -48.5 -138.5t-127.5 -52.5q-70 0 -114.5 41.5t-44.5 106.5q0 43 17 71t60 54q15 10 20 16t5 16q0 23 -24.5 37.5t-61.5 14.5
q-131 0 -227 -178q-46 -85 -76.5 -203t-30.5 -213q0 -85 47 -139t121 -54q143 0 319 205zM1108 1470l-322 -360h-208l-172 360h120l185 -180l258 180h139z" />
    <glyph glyph-name="Dcaron" unicode="&#x10e;" horiz-adv-x="1705" 
d="M1630 895q0 -203 -81.5 -385t-227.5 -305q-132 -111 -301.5 -158t-435.5 -47h-684l14 111h29q62 0 90.5 6t46.5 22q9 10 13 17.5t14 39t28 99.5l238 889q26 101 26 129q0 34 -31 44.5t-130 10.5h-37l14 111h733q344 0 513 -149.5t169 -434.5zM1249 1026q0 167 -78 254.5
t-227 87.5h-45q-70 0 -100.5 -26t-50.5 -103l-263 -979q-18 -83 -18 -94q0 -30 24.5 -42.5t83.5 -12.5h60q132 0 239.5 56t180.5 165q84 125 139 322.5t55 371.5zM1516 1909l-386 -322h-249l-205 322h143l221 -160l312 160h164z" />
    <glyph glyph-name="dcaron" unicode="&#x10f;" horiz-adv-x="1366" 
d="M1294 322q-60 -101 -135 -187q-147 -166 -295 -166q-81 0 -127.5 43.5t-48.5 118.5v14q-85 -97 -158.5 -135.5t-173.5 -38.5q-157 0 -256.5 104t-99.5 267q0 121 49.5 238.5t129.5 204.5t188 140.5t219 53.5q181 0 256 -127l98 332q31 102 31 135q0 38 -25 50.5
t-100 12.5h-66l15 97l563 28l-367 -1237q-20 -80 -20 -96q0 -12 9 -22.5t19 -10.5q28 0 91.5 69t123.5 163zM674 313q45 97 74.5 212.5t29.5 193.5q0 65 -35 106t-90 41q-127 0 -217 -194q-44 -94 -72 -204t-28 -192q0 -75 33 -118t90 -43q123 0 215 198zM1776 1294
q0 -134 -99 -242.5t-288 -181.5l-39 76q252 113 252 252q-40 -4 -50 -4q-68 0 -105.5 38t-37.5 107q0 74 49 121t125 47q86 0 139.5 -59t53.5 -154z" />
    <glyph glyph-name="Dcroat" unicode="&#x110;" horiz-adv-x="1705" 
d="M1630 897q0 -204 -81.5 -386.5t-227.5 -305.5q-131 -110 -300.5 -157.5t-436.5 -47.5h-684l14 111h41q61 0 83.5 6t41.5 22q12 12 18.5 31t36.5 125l103 399h-191l35 129h190l101 361q26 96 26 129q0 34 -28.5 44.5t-126.5 10.5h-43l14 111h733q167 0 272.5 -26
t194.5 -89q215 -149 215 -467zM1249 1026q0 167 -78 254.5t-227 87.5h-45q-70 0 -99.5 -25.5t-51.5 -103.5l-115 -416h309l-35 -129h-309l-113 -434q-18 -74 -18 -94q0 -29 25 -42t83 -13h60q132 0 239.5 56t180.5 165q83 126 138.5 323.5t55.5 370.5z" />
    <glyph glyph-name="dcroat" unicode="&#x111;" horiz-adv-x="1366" 
d="M1294 322q-60 -101 -135 -187q-147 -166 -295 -166q-81 0 -127.5 43.5t-48.5 118.5v14q-85 -97 -158.5 -135.5t-173.5 -38.5q-157 0 -256.5 104t-99.5 267q0 121 49.5 238.5t129.5 204.5t188 140.5t219 53.5q181 0 256 -127l78 264h-256l36 129h256q15 56 15 74
q0 38 -25 50.5t-100 12.5h-66l15 97l563 28l-78 -262h143l-37 -129h-145l-250 -846q-20 -80 -20 -96q0 -12 9 -22.5t19 -10.5q28 0 91.5 69t123.5 163zM674 313q45 97 74.5 212.5t29.5 193.5q0 65 -35 106t-90 41q-127 0 -217 -194q-44 -94 -72 -204t-28 -192q0 -75 33 -118
t90 -43q123 0 215 198z" />
    <glyph glyph-name="Emacron" unicode="&#x112;" horiz-adv-x="1517" 
d="M1233 0h-1317l14 111h29q93 0 122 17t46 81l262 975q27 108 27 129q0 34 -31 44.5t-131 10.5h-39l16 111h1260l-82 -502h-106q-3 223 -72 307t-252 84h-78q-63 0 -88.5 -19t-40.5 -79l-121 -449h64q130 0 197.5 55t121.5 195l109 -14l-185 -686l-108 14q10 76 10 127
q0 103 -39 151t-133 48h-65l-129 -484q-15 -51 -13 -65q0 -28 26 -39.5t85 -11.5h74q175 0 336 110t260 309l106 -22zM1296 1825l-43 -156h-684l43 156h684z" />
    <glyph glyph-name="emacron" unicode="&#x113;" horiz-adv-x="1062" 
d="M881 186q-191 -215 -467 -215q-203 0 -310.5 97.5t-107.5 281.5q0 165 89.5 311t239 233t318.5 87q144 0 240 -71t96 -177q0 -211 -348 -313q-134 -41 -305 -49q-4 -53 -4 -90q0 -88 47 -138.5t129 -50.5q80 0 149.5 37t161.5 129zM729 788q0 44 -24.5 70.5t-65.5 26.5
q-96 0 -178 -115.5t-117 -302.5q81 12 143 33q104 40 173 121.5t69 166.5zM1110 1368l-43 -156h-684l43 156h684z" />
    <glyph glyph-name="Ebreve" unicode="&#x114;" horiz-adv-x="1517" 
d="M1233 0h-1317l14 111h29q93 0 122 17t46 81l262 975q27 108 27 129q0 34 -31 44.5t-131 10.5h-39l16 111h1260l-82 -502h-106q-3 223 -72 307t-252 84h-78q-63 0 -88.5 -19t-40.5 -79l-121 -449h64q130 0 197.5 55t121.5 195l109 -14l-185 -686l-108 14q10 76 10 127
q0 103 -39 151t-133 48h-65l-129 -484q-15 -51 -13 -65q0 -28 26 -39.5t85 -11.5h74q175 0 336 110t260 309l106 -22zM1346 1898q-12 -104 -105 -188q-127 -115 -348 -115q-182 0 -272.5 83.5t-65.5 219.5h115q9 -83 67.5 -120t180.5 -37q115 0 201.5 43.5t109.5 113.5h117z
" />
    <glyph glyph-name="ebreve" unicode="&#x115;" horiz-adv-x="1062" 
d="M881 186q-191 -215 -467 -215q-203 0 -310.5 97.5t-107.5 281.5q0 165 89.5 311t239 233t318.5 87q144 0 240 -71t96 -177q0 -211 -348 -313q-134 -41 -305 -49q-4 -53 -4 -90q0 -88 47 -138.5t129 -50.5q80 0 149.5 37t161.5 129zM729 788q0 44 -24.5 70.5t-65.5 26.5
q-96 0 -178 -115.5t-117 -302.5q81 12 143 33q104 40 173 121.5t69 166.5zM1077 1458q-10 -118 -86 -209q-106 -127 -291 -127q-135 0 -209.5 72.5t-74.5 204.5q0 5 4 59h94q7 -92 56 -133t151 -41q95 0 167.5 48t92.5 126h96z" />
    <glyph glyph-name="Edotaccent" unicode="&#x116;" horiz-adv-x="1517" 
d="M1233 0h-1317l14 111h29q93 0 122 17t46 81l262 975q27 108 27 129q0 34 -31 44.5t-131 10.5h-39l16 111h1260l-82 -502h-106q-3 223 -72 307t-252 84h-78q-63 0 -88.5 -19t-40.5 -79l-121 -449h64q130 0 197.5 55t121.5 195l109 -14l-185 -686l-108 14q10 76 10 127
q0 103 -39 151t-133 48h-65l-129 -484q-15 -51 -13 -65q0 -28 26 -39.5t85 -11.5h74q175 0 336 110t260 309l106 -22zM1081 1749q0 -61 -42.5 -104t-104.5 -43q-60 0 -103 43.5t-43 103.5t43.5 102.5t104.5 42.5q60 0 102.5 -42.5t42.5 -102.5z" />
    <glyph glyph-name="edotaccent" unicode="&#x117;" horiz-adv-x="1062" 
d="M881 186q-191 -215 -467 -215q-203 0 -310.5 97.5t-107.5 281.5q0 165 89.5 311t239 233t318.5 87q144 0 240 -71t96 -177q0 -211 -348 -313q-134 -41 -305 -49q-4 -53 -4 -90q0 -88 47 -138.5t129 -50.5q80 0 149.5 37t161.5 129zM729 788q0 44 -24.5 70.5t-65.5 26.5
q-96 0 -178 -115.5t-117 -302.5q81 12 143 33q104 40 173 121.5t69 166.5zM893 1292q0 -61 -43 -104t-105 -43q-60 0 -102.5 43.5t-42.5 103.5t43.5 103t104.5 43q60 0 102.5 -43t42.5 -103z" />
    <glyph glyph-name="Eogonek" unicode="&#x118;" horiz-adv-x="1517" 
d="M1149 -313q-45 -67 -117.5 -106.5t-148.5 -39.5q-87 0 -148 57.5t-61 151.5q0 58 28 110t59 80.5t75 59.5h-920l14 111h29q93 0 122 17t46 81l262 975q27 108 27 129q0 34 -31 44.5t-131 10.5h-39l16 111h1260l-82 -502h-106q-3 223 -72 307t-252 84h-78q-63 0 -88.5 -19
t-40.5 -79l-121 -449h64q130 0 197.5 55t121.5 195l109 -14l-185 -686l-108 14q10 76 10 127q0 103 -39 151t-133 48h-65l-129 -484q-15 -51 -13 -65q0 -28 26 -39.5t85 -11.5h74q175 0 336 110t260 309l106 -22l-135 -508h-137q-86 0 -158 -59.5t-72 -133.5q0 -41 24 -67.5
t58 -26.5q86 0 144 47z" />
    <glyph glyph-name="eogonek" unicode="&#x119;" horiz-adv-x="1062" 
d="M748 -313q-45 -67 -118 -106.5t-149 -39.5q-87 0 -148 57.5t-61 151.5q0 122 123 221q-194 5 -296.5 102t-102.5 277q0 165 89.5 311t239 233t318.5 87q144 0 240 -71t96 -177q0 -211 -348 -313q-134 -41 -305 -49q-4 -53 -4 -90q0 -88 47 -138.5t129 -50.5
q80 0 149.5 37t161.5 129l72 -72q-116 -130 -260 -180q-67 -25 -111.5 -81.5t-44.5 -117.5q0 -41 24 -67.5t58 -26.5q85 0 143 47zM729 788q0 44 -24.5 70.5t-65.5 26.5q-96 0 -178 -115.5t-117 -302.5q81 12 143 33q104 40 173 121.5t69 166.5z" />
    <glyph glyph-name="Ecaron" unicode="&#x11a;" horiz-adv-x="1517" 
d="M1233 0h-1317l14 111h29q93 0 122 17t46 81l262 975q27 108 27 129q0 34 -31 44.5t-131 10.5h-39l16 111h1260l-82 -502h-106q-3 223 -72 307t-252 84h-78q-63 0 -88.5 -19t-40.5 -79l-121 -449h64q130 0 197.5 55t121.5 195l109 -14l-185 -686l-108 14q10 76 10 127
q0 103 -39 151t-133 48h-65l-129 -484q-15 -51 -13 -65q0 -28 26 -39.5t85 -11.5h74q175 0 336 110t260 309l106 -22zM1397 1909l-385 -322h-250l-205 322h143l222 -160l311 160h164z" />
    <glyph glyph-name="ecaron" unicode="&#x11b;" horiz-adv-x="1062" 
d="M881 186q-191 -215 -467 -215q-203 0 -310.5 97.5t-107.5 281.5q0 165 89.5 311t239 233t318.5 87q144 0 240 -71t96 -177q0 -211 -348 -313q-134 -41 -305 -49q-4 -53 -4 -90q0 -88 47 -138.5t129 -50.5q80 0 149.5 37t161.5 129zM729 788q0 44 -24.5 70.5t-65.5 26.5
q-96 0 -178 -115.5t-117 -302.5q81 12 143 33q104 40 173 121.5t69 166.5zM1124 1470l-321 -360h-209l-172 360h121l184 -180l258 180h139z" />
    <glyph glyph-name="Gcircumflex" unicode="&#x11c;" horiz-adv-x="1669" 
d="M1628 578h-41q-27 0 -46 -0.5t-35.5 -4.5t-26 -6.5t-19.5 -13t-14.5 -16.5t-12 -24.5t-10.5 -30t-11.5 -41t-14.5 -48.5l-113 -422h-98l-39 195q-164 -197 -436 -197q-102 0 -197 25.5t-175.5 77t-140.5 123.5t-94 171.5t-34 215.5q0 185 74.5 356t199 296t295 200
t354.5 75q128 0 212 -36t167 -127l123 118h92l-117 -579l-104 14q-5 233 -91.5 366.5t-254.5 133.5q-243 0 -410 -312q-69 -128 -112 -301.5t-43 -316.5q0 -182 73.5 -287.5t214.5 -105.5q97 0 174.5 63t114.5 172q16 47 32.5 118.5t16.5 92.5q0 35 -29 45.5t-128 10.5h-58
l15 110h761zM1499 1587h-143l-221 160l-312 -160h-164l385 322h250z" />
    <glyph glyph-name="gcircumflex" unicode="&#x11d;" horiz-adv-x="1251" 
d="M1233 954q0 -52 -30.5 -85t-78.5 -33q-37 0 -61 21t-41 67q-14 34 -35 34q-31 0 -69 -49q78 -46 119.5 -114.5t41.5 -151.5q0 -140 -121.5 -230.5t-308.5 -90.5q-95 0 -239 20q-47 6 -70 6q-41 0 -68.5 -18.5t-27.5 -44.5q0 -32 24 -48.5t76 -21.5q278 -27 365 -45
q112 -26 162.5 -84t50.5 -158q0 -166 -146.5 -254t-423.5 -88q-231 0 -359 60t-128 168q0 77 63 125t195 73q-69 37 -96 73.5t-27 90.5q0 82 63 145t183 101q-56 46 -80.5 93t-24.5 108q0 158 129.5 258t335.5 100q113 0 211 -33q75 75 138.5 109.5t129.5 34.5t107 -38
t41 -100zM723 518q53 106 53 221q0 63 -36 104.5t-91 41.5q-84 0 -135 -88q-59 -105 -59 -230q0 -69 35.5 -108t97.5 -39q89 0 135 98zM674 -174q0 37 -21.5 58.5t-68.5 33.5q-37 9 -133.5 18t-161.5 9q-172 0 -172 -119q0 -143 245 -143q153 0 232.5 36.5t79.5 106.5z
M991 1112h-121l-184 176l-258 -176h-137l321 356h207z" />
    <glyph glyph-name="Gbreve" unicode="&#x11e;" horiz-adv-x="1669" 
d="M1628 578h-41q-27 0 -46 -0.5t-35.5 -4.5t-26 -6.5t-19.5 -13t-14.5 -16.5t-12 -24.5t-10.5 -30t-11.5 -41t-14.5 -48.5l-113 -422h-98l-39 195q-164 -197 -436 -197q-102 0 -197 25.5t-175.5 77t-140.5 123.5t-94 171.5t-34 215.5q0 185 74.5 356t199 296t295 200
t354.5 75q128 0 212 -36t167 -127l123 118h92l-117 -579l-104 14q-5 233 -91.5 366.5t-254.5 133.5q-243 0 -410 -312q-69 -128 -112 -301.5t-43 -316.5q0 -182 73.5 -287.5t214.5 -105.5q97 0 174.5 63t114.5 172q16 47 32.5 118.5t16.5 92.5q0 35 -29 45.5t-128 10.5h-58
l15 110h761zM1534 1898q-12 -105 -104 -188q-127 -115 -349 -115q-182 0 -272.5 83.5t-65.5 219.5h115q9 -83 67.5 -120t180.5 -37q115 0 201.5 43.5t109.5 113.5h117z" />
    <glyph glyph-name="gbreve" unicode="&#x11f;" horiz-adv-x="1251" 
d="M1233 954q0 -52 -30.5 -85t-78.5 -33q-37 0 -61 21t-41 67q-14 34 -35 34q-31 0 -69 -49q78 -46 119.5 -114.5t41.5 -151.5q0 -140 -121.5 -230.5t-308.5 -90.5q-95 0 -239 20q-47 6 -70 6q-41 0 -68.5 -18.5t-27.5 -44.5q0 -32 24 -48.5t76 -21.5q278 -27 365 -45
q112 -26 162.5 -84t50.5 -158q0 -166 -146.5 -254t-423.5 -88q-231 0 -359 60t-128 168q0 77 63 125t195 73q-69 37 -96 73.5t-27 90.5q0 82 63 145t183 101q-56 46 -80.5 93t-24.5 108q0 158 129.5 258t335.5 100q113 0 211 -33q75 75 138.5 109.5t129.5 34.5t107 -38
t41 -100zM723 518q53 106 53 221q0 63 -36 104.5t-91 41.5q-84 0 -135 -88q-59 -105 -59 -230q0 -69 35.5 -108t97.5 -39q89 0 135 98zM674 -174q0 37 -21.5 58.5t-68.5 33.5q-37 9 -133.5 18t-161.5 9q-172 0 -172 -119q0 -143 245 -143q153 0 232.5 36.5t79.5 106.5z
M1020 1458q-10 -118 -86 -209q-106 -127 -291 -127q-135 0 -210 72.5t-75 204.5q0 5 4 59h95q7 -92 56 -133t151 -41q95 0 167.5 48t92.5 126h96z" />
    <glyph glyph-name="Gdotaccent" unicode="&#x120;" horiz-adv-x="1669" 
d="M1628 578h-41q-27 0 -46 -0.5t-35.5 -4.5t-26 -6.5t-19.5 -13t-14.5 -16.5t-12 -24.5t-10.5 -30t-11.5 -41t-14.5 -48.5l-113 -422h-98l-39 195q-164 -197 -436 -197q-102 0 -197 25.5t-175.5 77t-140.5 123.5t-94 171.5t-34 215.5q0 185 74.5 356t199 296t295 200
t354.5 75q128 0 212 -36t167 -127l123 118h92l-117 -579l-104 14q-5 233 -91.5 366.5t-254.5 133.5q-243 0 -410 -312q-69 -128 -112 -301.5t-43 -316.5q0 -182 73.5 -287.5t214.5 -105.5q97 0 174.5 63t114.5 172q16 47 32.5 118.5t16.5 92.5q0 35 -29 45.5t-128 10.5h-58
l15 110h761zM1270 1749q0 -61 -43 -104t-105 -43q-60 0 -102.5 43.5t-42.5 103.5t43 102.5t104 42.5q60 0 103 -42.5t43 -102.5z" />
    <glyph glyph-name="gdotaccent" unicode="&#x121;" horiz-adv-x="1251" 
d="M1233 954q0 -52 -30.5 -85t-78.5 -33q-37 0 -61 21t-41 67q-14 34 -35 34q-31 0 -69 -49q78 -46 119.5 -114.5t41.5 -151.5q0 -140 -121.5 -230.5t-308.5 -90.5q-95 0 -239 20q-47 6 -70 6q-41 0 -68.5 -18.5t-27.5 -44.5q0 -32 24 -48.5t76 -21.5q278 -27 365 -45
q112 -26 162.5 -84t50.5 -158q0 -166 -146.5 -254t-423.5 -88q-231 0 -359 60t-128 168q0 77 63 125t195 73q-69 37 -96 73.5t-27 90.5q0 82 63 145t183 101q-56 46 -80.5 93t-24.5 108q0 158 129.5 258t335.5 100q113 0 211 -33q75 75 138.5 109.5t129.5 34.5t107 -38
t41 -100zM723 518q53 106 53 221q0 63 -36 104.5t-91 41.5q-84 0 -135 -88q-59 -105 -59 -230q0 -69 35.5 -108t97.5 -39q89 0 135 98zM674 -174q0 37 -21.5 58.5t-68.5 33.5q-37 9 -133.5 18t-161.5 9q-172 0 -172 -119q0 -143 245 -143q153 0 232.5 36.5t79.5 106.5z
M836 1292q0 -61 -43 -104t-105 -43q-60 0 -102.5 43.5t-42.5 103.5t43 103t104 43q60 0 103 -43t43 -103z" />
    <glyph glyph-name="Gcommaaccent" unicode="&#x122;" horiz-adv-x="1669" 
d="M1628 578h-41q-27 0 -46 -0.5t-35.5 -4.5t-26 -6.5t-19.5 -13t-14.5 -16.5t-12 -24.5t-10.5 -30t-11.5 -41t-14.5 -48.5l-113 -422h-98l-39 195q-164 -197 -436 -197q-102 0 -197 25.5t-175.5 77t-140.5 123.5t-94 171.5t-34 215.5q0 185 74.5 356t199 296t295 200
t354.5 75q128 0 212 -36t167 -127l123 118h92l-117 -579l-104 14q-5 233 -91.5 366.5t-254.5 133.5q-243 0 -410 -312q-69 -128 -112 -301.5t-43 -316.5q0 -182 73.5 -287.5t214.5 -105.5q97 0 174.5 63t114.5 172q16 47 32.5 118.5t16.5 92.5q0 35 -29 45.5t-128 10.5h-58
l15 110h761zM813 -336q0 -134 -99 -242.5t-288 -181.5l-39 76q252 113 252 252q-40 -4 -49 -4q-68 0 -106 38t-38 107q0 73 49 120.5t126 47.5q86 0 139 -59t53 -154z" />
    <glyph glyph-name="gcommaaccent" unicode="&#x123;" horiz-adv-x="1251" 
d="M889 1321q0 -74 -49 -121t-125 -47q-86 0 -139.5 59t-53.5 154q0 134 99 242.5t288 181.5l39 -76q-252 -113 -252 -252q40 4 49 4q68 0 106 -38t38 -107zM1233 954q0 -52 -30.5 -85t-78.5 -33q-37 0 -61 21t-41 67q-14 34 -35 34q-31 0 -69 -49q78 -46 119.5 -114.5
t41.5 -151.5q0 -140 -121.5 -230.5t-308.5 -90.5q-95 0 -239 20q-47 6 -70 6q-41 0 -68.5 -18.5t-27.5 -44.5q0 -32 24 -48.5t76 -21.5q278 -27 365 -45q112 -26 162.5 -84t50.5 -158q0 -166 -146.5 -254t-423.5 -88q-231 0 -359 60t-128 168q0 77 63 125t195 73
q-69 37 -96 73.5t-27 90.5q0 82 63 145t183 101q-56 46 -80.5 93t-24.5 108q0 158 129.5 258t335.5 100q113 0 211 -33q75 75 138.5 109.5t129.5 34.5t107 -38t41 -100zM723 518q53 106 53 221q0 63 -36 104.5t-91 41.5q-84 0 -135 -88q-59 -105 -59 -230q0 -69 35.5 -108
t97.5 -39q89 0 135 98zM674 -174q0 37 -21.5 58.5t-68.5 33.5q-37 9 -133.5 18t-161.5 9q-172 0 -172 -119q0 -143 245 -143q153 0 232.5 36.5t79.5 106.5z" />
    <glyph glyph-name="Hcircumflex" unicode="&#x124;" horiz-adv-x="1781" 
d="M1561 0h-777l15 111h45q63 0 91 6t44 22q13 12 20 31.5t35 124.5l109 401h-525l-106 -401q-29 -102 -29 -129q0 -25 8 -35t37.5 -15t96.5 -5h43l-17 -111h-735l14 111h39q85 0 113 17t45 81q2 10 11 40t12 46l239 889q27 105 27 129q0 34 -31 44.5t-131 10.5h-39l16 111
h768l-14 -111h-45q-62 0 -90.5 -6.5t-44.5 -22.5q-14 -11 -20.5 -30t-34.5 -125l-99 -363h525l96 363q28 101 28 129q0 25 -8 35t-37 15t-96 5h-43l17 111h735l-15 -111h-34q-61 0 -86.5 -6.5t-44.5 -22.5q-12 -11 -19.5 -31.5t-34.5 -123.5l-239 -889q-27 -111 -27 -129
q0 -34 31 -44.5t131 -10.5h45zM1538 1587h-143l-221 160l-312 -160h-164l385 322h250z" />
    <glyph glyph-name="hcircumflex" unicode="&#x125;" horiz-adv-x="1402" 
d="M1305 311q-120 -184 -220 -263t-213 -79q-95 0 -151.5 50.5t-56.5 136.5q0 40 7.5 71.5t35.5 106.5l124 346q19 52 19 74q0 21 -18.5 38t-40.5 17q-75 0 -193 -143q-67 -80 -112 -171.5t-87 -234.5l-77 -260h-322l350 1184q33 103 33 135q0 38 -25 50.5t-102 12.5h-49
l14 97l549 28l-225 -757q96 119 189.5 175t195.5 56q100 0 164.5 -59.5t64.5 -151.5q0 -90 -61 -262l-97 -262q-22 -58 -22 -78q0 -12 9 -22.5t20 -10.5q28 0 71.5 45t126.5 160q10 10 19 22zM1554 1616h-143l-221 160l-311 -160h-164l385 321h250z" />
    <glyph glyph-name="Hbar" unicode="&#x126;" horiz-adv-x="1781" 
d="M1858 1057h-259l-204 -762q-27 -111 -27 -129q0 -34 31 -44.5t131 -10.5h45l-14 -111h-777l15 111h45q63 0 91 6t44 22q13 12 20 31.5t35 124.5l109 401h-525l-106 -401q-29 -102 -29 -129q0 -25 8 -35t37.5 -15t96.5 -5h43l-17 -111h-735l14 111h39q85 0 113 17t45 81
q2 10 11 40t12 46l204 762h-221v106h250l6 21q27 105 27 129q0 34 -31 44.5t-131 10.5h-39l16 111h768l-14 -111h-45q-62 0 -90.5 -6.5t-44.5 -22.5q-14 -11 -20.5 -30t-34.5 -125l-7 -21h523l6 21q28 101 28 129q0 25 -8 35t-37 15t-96 5h-43l17 111h735l-15 -111h-34
q-61 0 -86.5 -6.5t-44.5 -22.5q-12 -11 -19.5 -31.5t-34.5 -123.5l-6 -21h230v-106zM1176 821l63 236h-524l-64 -236h525z" />
    <glyph glyph-name="hbar" unicode="&#x127;" horiz-adv-x="1587" 
d="M1581 311q-120 -184 -219.5 -263t-212.5 -79q-96 0 -152.5 50.5t-56.5 136.5q0 40 7.5 71.5t35.5 106.5l125 346q18 49 18 74q0 21 -18.5 38t-40.5 17q-75 0 -193 -143q-66 -80 -110.5 -171t-87.5 -235l-78 -260h-322l293 991l-204 -55v90l233 61l29 97q32 100 32 135
q0 38 -25 50.5t-102 12.5h-49l15 97l549 28l-99 -327l359 94v-88l-387 -103l-99 -333q96 119 189.5 175t195.5 56q100 0 165 -59.5t65 -151.5q0 -88 -62 -262l-96 -262q-23 -61 -23 -78q0 -12 9 -22.5t20 -10.5q28 0 72.5 45.5t126.5 159.5q6 6 18 22z" />
    <glyph glyph-name="Itilde" unicode="&#x128;" horiz-adv-x="909" 
d="M680 0h-764l14 111h41q62 0 87.5 6t41.5 22q14 12 21.5 32.5t34.5 123.5l237 889q29 102 29 129q0 34 -31 44.5t-131 10.5h-45l16 111h764l-14 -111h-43q-61 0 -86 -6.5t-41 -22.5q-14 -11 -20.5 -30t-34.5 -125l-238 -889q-29 -113 -29 -129q0 -34 31 -44.5t131 -10.5
h45zM1104 1876q-5 -103 -81 -180.5t-173 -77.5q-63 0 -174 43q-107 43 -148 43q-34 0 -56 -22.5t-30 -63.5h-96q7 112 79.5 185t174.5 73q64 0 162 -39q73 -29 96.5 -36t46.5 -7q78 0 103 82h96z" />
    <glyph glyph-name="itilde" unicode="&#x129;" horiz-adv-x="796" 
d="M723 305q-104 -175 -205.5 -255.5t-218.5 -80.5q-92 0 -152.5 52.5t-60.5 132.5q0 48 31 151l104 348q31 102 31 138q0 38 -25 50.5t-100 12.5h-49l14 96l547 29l-215 -729q-21 -73 -21 -86q0 -14 9.5 -23.5t23.5 -9.5q62 0 207 231zM930 1419q-5 -103 -81 -180.5
t-173 -77.5q-63 0 -174 43q-107 43 -148 43q-34 0 -56 -22.5t-30 -63.5h-96q7 112 79.5 185t174.5 73q64 0 162 -39q73 -29 96.5 -36t46.5 -7q78 0 103 82h96z" />
    <glyph glyph-name="Imacron" unicode="&#x12a;" horiz-adv-x="909" 
d="M680 0h-764l14 111h41q62 0 87.5 6t41.5 22q14 12 21.5 32.5t34.5 123.5l237 889q29 102 29 129q0 34 -31 44.5t-131 10.5h-45l16 111h764l-14 -111h-43q-61 0 -86 -6.5t-41 -22.5q-14 -11 -20.5 -30t-34.5 -125l-238 -889q-29 -113 -29 -129q0 -34 31 -44.5t131 -10.5
h45zM1087 1825l-43 -156h-684l43 156h684z" />
    <glyph glyph-name="imacron" unicode="&#x12b;" horiz-adv-x="796" 
d="M723 305q-104 -175 -205.5 -255.5t-218.5 -80.5q-92 0 -152.5 52.5t-60.5 132.5q0 48 31 151l104 348q31 102 31 138q0 38 -25 50.5t-100 12.5h-49l14 96l547 29l-215 -729q-21 -73 -21 -86q0 -14 9.5 -23.5t23.5 -9.5q62 0 207 231zM915 1368l-43 -156h-684l43 156h684z
" />
    <glyph glyph-name="Ibreve" unicode="&#x12c;" horiz-adv-x="909" 
d="M680 0h-764l14 111h41q62 0 87.5 6t41.5 22q14 12 21.5 32.5t34.5 123.5l237 889q29 102 29 129q0 34 -31 44.5t-131 10.5h-45l16 111h764l-14 -111h-43q-61 0 -86 -6.5t-41 -22.5q-14 -11 -20.5 -30t-34.5 -125l-238 -889q-29 -113 -29 -129q0 -34 31 -44.5t131 -10.5
h45zM1137 1898q-12 -104 -105 -188q-127 -115 -348 -115q-182 0 -272.5 83.5t-65.5 219.5h115q9 -83 67.5 -120t180.5 -37q115 0 201.5 43.5t109.5 113.5h117z" />
    <glyph glyph-name="ibreve" unicode="&#x12d;" horiz-adv-x="796" 
d="M723 305q-104 -175 -205.5 -255.5t-218.5 -80.5q-92 0 -152.5 52.5t-60.5 132.5q0 48 31 151l104 348q31 102 31 138q0 38 -25 50.5t-100 12.5h-49l14 96l547 29l-215 -729q-21 -73 -21 -86q0 -14 9.5 -23.5t23.5 -9.5q62 0 207 231zM883 1458q-10 -118 -86 -209
q-106 -127 -291 -127q-135 0 -210 72.5t-75 204.5q0 5 4 59h94q7 -92 56 -133t151 -41q96 0 168 48t92 126h97z" />
    <glyph glyph-name="Iogonek" unicode="&#x12e;" horiz-adv-x="909" 
d="M596 -313q-45 -67 -117.5 -106.5t-148.5 -39.5q-87 0 -148 57.5t-61 151.5q0 58 28 110t59 80.5t75 59.5h-367l14 111h41q62 0 87.5 6t41.5 22q14 12 21.5 32.5t34.5 123.5l237 889q29 102 29 129q0 34 -31 44.5t-131 10.5h-45l16 111h764l-14 -111h-43q-61 0 -86 -6.5
t-41 -22.5q-14 -11 -20.5 -30t-34.5 -125l-238 -889q-29 -113 -29 -129q0 -34 31 -44.5t131 -10.5h45l-16 -111h-191q-68 0 -122 -60t-54 -133q0 -41 24 -67.5t58 -26.5q86 0 144 47z" />
    <glyph glyph-name="iogonek" unicode="&#x12f;" horiz-adv-x="796" 
d="M557 -313q-45 -67 -117.5 -106.5t-148.5 -39.5q-87 0 -148 57.5t-61 151.5q0 130 137 232q-61 21 -97 66t-36 106q0 48 31 151l104 348q31 102 31 138q0 38 -25 50.5t-100 12.5h-49l14 96l547 29l-215 -729q-21 -73 -21 -86q0 -14 9.5 -23.5t23.5 -9.5q62 0 207 231
l80 -57q-144 -241 -291 -307q-67 -31 -112.5 -83t-45.5 -108q0 -41 24 -67.5t58 -26.5q86 0 144 47zM698 1292q0 -62 -43 -104.5t-104 -42.5q-60 0 -102.5 43.5t-42.5 103.5t43 103t104 43q60 0 102.5 -43t42.5 -103z" />
    <glyph glyph-name="Idotaccent" unicode="&#x130;" horiz-adv-x="909" 
d="M680 0h-764l14 111h41q62 0 87.5 6t41.5 22q14 12 21.5 32.5t34.5 123.5l237 889q29 102 29 129q0 34 -31 44.5t-131 10.5h-45l16 111h764l-14 -111h-43q-61 0 -86 -6.5t-41 -22.5q-14 -11 -20.5 -30t-34.5 -125l-238 -889q-29 -113 -29 -129q0 -34 31 -44.5t131 -10.5
h45zM872 1749q0 -61 -43 -104t-104 -43q-60 0 -102.5 43.5t-42.5 103.5t43 102.5t104 42.5q60 0 102.5 -42.5t42.5 -102.5z" />
    <glyph glyph-name="dotlessi" unicode="&#x131;" horiz-adv-x="796" 
d="M723 305q-104 -175 -205.5 -255.5t-218.5 -80.5q-92 0 -152.5 52.5t-60.5 132.5q0 48 31 151l104 348q31 102 31 138q0 38 -25 50.5t-100 12.5h-49l14 96l547 29l-215 -729q-21 -73 -21 -86q0 -14 9.5 -23.5t23.5 -9.5q62 0 207 231z" />
    <glyph glyph-name="Jcircumflex" unicode="&#x134;" horiz-adv-x="1366" 
d="M1456 1368h-41q-60 0 -83 -6t-42 -23q-12 -12 -18.5 -31.5t-34.5 -123.5l-168 -623q-56 -207 -68.5 -245.5t-37.5 -84.5q-75 -136 -195 -199t-305 -63q-232 0 -356.5 97.5t-124.5 279.5q0 143 76 234.5t196 91.5q98 0 158.5 -55t60.5 -144q0 -80 -51.5 -135t-126.5 -55
q-22 0 -54 11.5t-56.5 22.5t-26.5 11q-37 0 -37 -52q0 -80 66 -135t161 -55q72 0 137.5 39t108.5 108q34 56 49.5 99.5t56.5 199.5l174 652q29 107 29 129q0 34 -31 44.5t-131 10.5h-61l16 111h774zM1583 1587h-143l-221 160l-312 -160h-164l385 322h250z" />
    <glyph glyph-name="jcircumflex" unicode="&#x135;" horiz-adv-x="757" 
d="M735 979l-243 -825q-48 -160 -83 -236t-94 -147q-147 -185 -364 -185q-129 0 -214 65t-85 165q0 75 44.5 122.5t115.5 47.5q70 0 110.5 -41.5t40.5 -112.5q0 -40 -11 -59t-46 -41q-12 -6 -12 -21q0 -11 9.5 -17.5t24.5 -6.5q60 0 100.5 65t94.5 248l194 653
q31 105 31 138q0 38 -25 50.5t-100 12.5h-65l14 96zM946 1112h-121l-184 176l-258 -176h-137l321 356h207z" />
    <glyph glyph-name="Kcommaaccent" unicode="&#x136;" horiz-adv-x="1593" 
d="M1534 0h-766l14 111h64q71 0 97 9.5t26 35.5q0 12 -3 20t-20 43l-209 436l-172 -157l-53 -203q-29 -102 -29 -129q0 -25 8 -35t37.5 -15t96.5 -5h43l-17 -111h-735l14 111h37q60 0 84.5 6.5t44.5 21.5q12 12 19.5 33t36.5 125l235 887q29 104 29 129q0 34 -31 44.5
t-131 10.5h-39l16 111h768l-14 -111h-45q-62 0 -90.5 -6.5t-44.5 -22.5q-14 -12 -20.5 -31.5t-34.5 -123.5l-125 -461l546 508q62 59 62 86q0 51 -84 51h-72l15 111h612l-14 -111q-108 -6 -185.5 -42.5t-167.5 -123.5l-331 -307l292 -631q18 -40 29 -61.5t26.5 -41.5
t27 -27.5t34 -14t44.5 -7.5t61 -1h30zM868 -336q0 -134 -99 -242.5t-288 -181.5l-39 76q252 113 252 252q-40 -4 -49 -4q-68 0 -105.5 38t-37.5 107q0 74 49 121t125 47q86 0 139 -59t53 -154z" />
    <glyph glyph-name="kcommaaccent" unicode="&#x137;" horiz-adv-x="1327" 
d="M1196 276q-78 -161 -166 -234t-205 -73q-100 0 -154.5 57.5t-54.5 163.5q0 42 11 113q8 39 8 68q0 17 -10 35q-24 -3 -43 -3q-34 0 -54 16t-20 44t21 45.5t53 17.5q36 0 94 -26q233 76 233 219q0 41 -26.5 66.5t-69.5 25.5q-56 0 -113 -39t-127 -125q-61 -73 -101 -158.5
t-85 -236.5l-76 -252h-321l350 1184q33 111 33 135q0 38 -25 50.5t-102 12.5h-47l12 97l549 28l-223 -747q120 124 210 172.5t201 48.5q107 0 174.5 -56t67.5 -145q0 -72 -48.5 -136.5t-140.5 -115.5q-74 -43 -208 -88q49 -27 73 -56.5t36.5 -76.5t19.5 -135q3 -39 32 -39
q35 0 76 51t78 140zM332 -336q0 -134 -99 -242.5t-288 -181.5l-39 76q252 113 252 252q-40 -4 -49 -4q-68 0 -106 38t-38 107q0 74 49 121t125 47q86 0 139.5 -59t53.5 -154z" />
    <glyph glyph-name="Lacute" unicode="&#x139;" horiz-adv-x="1441" 
d="M1233 0h-1317l14 111h41q61 0 83.5 6t41.5 22q12 12 19.5 33t34.5 123l239 889q27 108 27 129q0 34 -31 44.5t-131 10.5h-39l16 111h783l-17 -111h-36q-127 0 -156 -29q-14 -12 -20.5 -31.5t-34.5 -123.5l-238 -889q-31 -112 -29 -131q0 -31 23.5 -42t85.5 -11h74
q179 0 344.5 118t255.5 316l106 -23zM1012 1821q0 -52 -70 -80l-407 -164h-134l306 258q60 51 94 66.5t78 15.5q55 0 94 -28t39 -68z" />
    <glyph glyph-name="lacute" unicode="&#x13a;" horiz-adv-x="796" 
d="M694 305q-63 -114 -176 -221q-121 -115 -256 -115q-94 0 -151.5 52t-57.5 135q0 68 47 217l240 811q31 102 31 135q0 38 -25 50.5t-100 12.5h-49l14 97l547 28l-373 -1257l-10 -33q-10 -33 -10 -53q0 -15 9 -25t21 -10q34 0 96 65t123 166zM961 1849q0 -52 -70 -80
l-408 -163h-133l305 258q60 51 94 66.5t78 15.5q55 0 94.5 -28.5t39.5 -68.5z" />
    <glyph glyph-name="Lcommaaccent" unicode="&#x13b;" horiz-adv-x="1441" 
d="M1233 0h-1317l14 111h41q61 0 83.5 6t41.5 22q12 12 19.5 33t34.5 123l239 889q27 108 27 129q0 34 -31 44.5t-131 10.5h-39l16 111h783l-17 -111h-36q-127 0 -156 -29q-14 -12 -20.5 -31.5t-34.5 -123.5l-238 -889q-31 -112 -29 -131q0 -31 23.5 -42t85.5 -11h74
q179 0 344.5 118t255.5 316l106 -23zM881 -336q0 -134 -99 -242.5t-288 -181.5l-39 76q252 113 252 252q-40 -4 -50 -4q-68 0 -105.5 38t-37.5 107q0 74 49 121t125 47q86 0 139.5 -59t53.5 -154z" />
    <glyph glyph-name="lcommaaccent" unicode="&#x13c;" horiz-adv-x="796" 
d="M694 305q-63 -114 -176 -221q-121 -115 -256 -115q-94 0 -151.5 52t-57.5 135q0 68 47 217l240 811q31 102 31 135q0 38 -25 50.5t-100 12.5h-49l14 97l547 28l-373 -1257l-10 -33q-10 -33 -10 -53q0 -15 9 -25t21 -10q34 0 96 65t123 166zM336 -336q0 -134 -99 -242.5
t-288 -181.5l-39 76q252 113 252 252q-40 -4 -49 -4q-68 0 -106 38t-38 107q0 74 49 121t125 47q86 0 139.5 -59t53.5 -154z" />
    <glyph glyph-name="Lcaron" unicode="&#x13d;" horiz-adv-x="1441" 
d="M1233 0h-1317l14 111h41q61 0 83.5 6t41.5 22q12 12 19.5 33t34.5 123l239 889q27 108 27 129q0 34 -31 44.5t-131 10.5h-39l16 111h783l-17 -111h-36q-127 0 -156 -29q-14 -12 -20.5 -31.5t-34.5 -123.5l-238 -889q-31 -112 -29 -131q0 -31 23.5 -42t85.5 -11h74
q179 0 344.5 118t255.5 316l106 -23zM1446 1266q0 -134 -99 -242.5t-288 -181.5l-39 76q252 113 252 251q-40 -4 -49 -4q-68 0 -106 38.5t-38 107.5q0 74 49 121t125 47q86 0 139.5 -59t53.5 -154z" />
    <glyph glyph-name="lcaron" unicode="&#x13e;" horiz-adv-x="796" 
d="M694 305q-63 -114 -176 -221q-121 -115 -256 -115q-94 0 -151.5 52t-57.5 135q0 68 47 217l240 811q31 102 31 135q0 38 -25 50.5t-100 12.5h-49l14 97l547 28l-373 -1257l-10 -33q-10 -33 -10 -53q0 -15 9 -25t21 -10q34 0 96 65t123 166zM1176 1294
q0 -133 -99.5 -241.5t-288.5 -182.5l-38 76q251 112 251 252q-40 -4 -49 -4q-68 0 -105.5 38t-37.5 107q0 74 49 121t125 47q86 0 139.5 -59t53.5 -154z" />
    <glyph glyph-name="Ldot" unicode="&#x13f;" horiz-adv-x="1441" 
d="M1233 0h-1317l14 111h41q61 0 83.5 6t41.5 22q12 12 19.5 33t34.5 123l239 889q27 108 27 129q0 34 -31 44.5t-131 10.5h-39l16 111h783l-17 -111h-36q-127 0 -156 -29q-14 -12 -20.5 -31.5t-34.5 -123.5l-238 -889q-31 -112 -29 -131q0 -31 23.5 -42t85.5 -11h74
q179 0 344.5 118t255.5 316l106 -23zM1329 786q0 -62 -42.5 -104.5t-104.5 -42.5q-60 0 -103 43.5t-43 103.5t43.5 103t104.5 43q60 0 102.5 -43t42.5 -103z" />
    <glyph glyph-name="ldot" unicode="&#x140;" horiz-adv-x="837" 
d="M694 305q-63 -114 -176 -221q-121 -115 -256 -115q-94 0 -151.5 52t-57.5 135q0 68 47 217l240 811q31 102 31 135q0 38 -25 50.5t-100 12.5h-49l14 97l547 28l-373 -1257l-10 -33q-10 -33 -10 -53q0 -15 9 -25t21 -10q34 0 96 65t123 166zM948 786q0 -62 -43 -104.5
t-104 -42.5q-60 0 -103 43.5t-43 103.5t43.5 103t104.5 43q60 0 102.5 -43t42.5 -103z" />
    <glyph glyph-name="Lslash" unicode="&#x141;" horiz-adv-x="1441" 
d="M1233 0h-1317l14 111h39q89 0 115 16.5t43 81.5l78 289l-205 -119l33 168l217 121l139 516q27 108 27 129q0 34 -31 44.5t-131 10.5h-39l16 111h783l-17 -111h-36q-106 0 -139 -17t-50 -81l-22 -86l-97 -350l387 217l-45 -168l-387 -219l-96 -369q-29 -110 -29 -131
q0 -31 23.5 -42t85.5 -11h74q123 0 219 41.5t196 136.5q120 112 185 256l106 -23z" />
    <glyph glyph-name="lslash" unicode="&#x142;" horiz-adv-x="796" 
d="M692 305q-63 -114 -176 -221q-121 -115 -258 -115q-92 0 -149.5 52t-57.5 135q0 66 45 217l70 231l-170 -127l49 174l172 127l121 406q33 106 33 135q0 38 -25 50.5t-100 12.5h-49l14 97l547 28l-168 -555l194 144l-53 -174l-192 -144l-156 -528q-21 -73 -21 -88
q0 -14 10 -23.5t23 -9.5q44 0 123 100q52 64 94 131z" />
    <glyph glyph-name="Nacute" unicode="&#x143;" horiz-adv-x="1744" 
d="M1853 1368q-104 0 -165 -55q-44 -42 -61.5 -80.5t-63.5 -198.5l-285 -1063h-164l-606 1159l-184 -686q-30 -120 -36.5 -154t-6.5 -67q0 -59 35 -85.5t122 -26.5h43l-16 -111h-582l15 111q104 3 165 55q43 40 60 79t63 199l232 859q-19 35 -46.5 50t-74.5 15h-115l15 111
h520l549 -1039l159 594q32 121 38.5 154t6.5 67q0 113 -184 113l14 111h568zM1456 1821q0 -52 -70 -80l-407 -164h-133l305 258q60 51 94 66.5t78 15.5q55 0 94 -28t39 -68z" />
    <glyph glyph-name="nacute" unicode="&#x144;" horiz-adv-x="1402" 
d="M1315 311q-118 -183 -218.5 -262.5t-213.5 -79.5q-96 0 -152.5 50.5t-56.5 136.5q0 39 8 72.5t33 105.5l127 346q18 49 18 74q0 20 -19 36.5t-42 16.5q-75 0 -195 -141q-67 -81 -111 -171.5t-87 -234.5l-78 -260h-322l195 653q30 102 30 138q0 38 -25 50.5t-100 12.5h-49
l15 96l512 29l-66 -270q115 148 211 210t209 62q101 0 166 -59.5t65 -151.5q0 -94 -63 -262l-96 -262q-21 -64 -21 -78q0 -12 9 -22.5t20 -10.5q28 0 73 46t126 159l18 22zM1085 1372q0 -59 -57 -90l-340 -180h-110l253 284q53 57 80.5 75t63.5 18q46 0 78 -31.5t32 -75.5z
" />
    <glyph glyph-name="Ncommaaccent" unicode="&#x145;" horiz-adv-x="1744" 
d="M1853 1368q-104 0 -165 -55q-44 -42 -61.5 -80.5t-63.5 -198.5l-285 -1063h-164l-606 1159l-184 -686q-30 -120 -36.5 -154t-6.5 -67q0 -59 35 -85.5t122 -26.5h43l-16 -111h-582l15 111q104 3 165 55q43 40 60 79t63 199l232 859q-19 35 -46.5 50t-74.5 15h-115l15 111
h520l549 -1039l159 594q32 121 38.5 154t6.5 67q0 113 -184 113l14 111h568zM836 -336q0 -134 -99 -242.5t-288 -181.5l-39 76q252 113 252 252q-40 -4 -50 -4q-68 0 -105.5 38t-37.5 107q0 74 49 121t125 47q86 0 139.5 -59t53.5 -154z" />
    <glyph glyph-name="ncommaaccent" unicode="&#x146;" horiz-adv-x="1402" 
d="M1315 311q-118 -183 -218.5 -262.5t-213.5 -79.5q-96 0 -152.5 50.5t-56.5 136.5q0 39 8 72.5t33 105.5l127 346q18 49 18 74q0 20 -19 36.5t-42 16.5q-75 0 -195 -141q-67 -81 -111 -171.5t-87 -234.5l-78 -260h-322l195 653q30 102 30 138q0 38 -25 50.5t-100 12.5h-49
l15 96l512 29l-66 -270q115 148 211 210t209 62q101 0 166 -59.5t65 -151.5q0 -94 -63 -262l-96 -262q-21 -64 -21 -78q0 -12 9 -22.5t20 -10.5q28 0 73 46t126 159l18 22zM641 -336q0 -134 -99 -242.5t-288 -181.5l-39 76q252 113 252 252q-40 -4 -49 -4q-68 0 -106 38
t-38 107q0 73 49 120.5t126 47.5q86 0 139 -59t53 -154z" />
    <glyph glyph-name="Ncaron" unicode="&#x147;" horiz-adv-x="1744" 
d="M1853 1368q-104 0 -165 -55q-44 -42 -61.5 -80.5t-63.5 -198.5l-285 -1063h-164l-606 1159l-184 -686q-30 -120 -36.5 -154t-6.5 -67q0 -59 35 -85.5t122 -26.5h43l-16 -111h-582l15 111q104 3 165 55q43 40 60 79t63 199l232 859q-19 35 -46.5 50t-74.5 15h-115l15 111
h520l549 -1039l159 594q32 121 38.5 154t6.5 67q0 113 -184 113l14 111h568zM1608 1909l-385 -322h-250l-205 322h143l222 -160l311 160h164z" />
    <glyph glyph-name="ncaron" unicode="&#x148;" horiz-adv-x="1402" 
d="M1315 311q-118 -183 -218.5 -262.5t-213.5 -79.5q-96 0 -152.5 50.5t-56.5 136.5q0 39 8 72.5t33 105.5l127 346q18 49 18 74q0 20 -19 36.5t-42 16.5q-75 0 -195 -141q-67 -81 -111 -171.5t-87 -234.5l-78 -260h-322l195 653q30 102 30 138q0 38 -25 50.5t-100 12.5h-49
l15 96l512 29l-66 -270q115 148 211 210t209 62q101 0 166 -59.5t65 -151.5q0 -94 -63 -262l-96 -262q-21 -64 -21 -78q0 -12 9 -22.5t20 -10.5q28 0 73 46t126 159l18 22zM1204 1470l-321 -360h-209l-172 360h121l184 -180l258 180h139z" />
    <glyph glyph-name="Eng" unicode="&#x14a;" horiz-adv-x="1744" 
d="M1853 1368q-104 0 -165 -55q-44 -42 -61.5 -80.5t-63.5 -198.5l-285 -1063q-34 -126 -103.5 -234.5t-170 -178.5t-207.5 -70q-129 0 -214 64.5t-85 164.5q0 75 44.5 122.5t114.5 47.5t111 -41t41 -112q0 -40 -11 -59.5t-46 -41.5q-13 -7 -13 -20q0 -11 10 -18t25 -7
q80 0 150 59.5t114.5 144.5t71.5 188l-602 1150l-184 -686q-30 -120 -36.5 -154t-6.5 -67q0 -59 35 -85.5t122 -26.5h43l-16 -111h-582l15 111q104 3 165 55q43 40 60 79t63 199l232 859q-19 35 -46.5 50t-74.5 15h-115l15 111h520l549 -1039l159 594q32 121 38.5 154
t6.5 67q0 113 -184 113l14 111h568z" />
    <glyph glyph-name="eng" unicode="&#x14b;" horiz-adv-x="1402" 
d="M1106 508l-96 -262q-27 -103 -66.5 -198t-94 -183t-118 -153t-142.5 -103.5t-163 -38.5q-104 0 -172 52t-68 132q0 60 35 97.5t92 37.5t89 -32.5t32 -89.5q0 -31 -9 -47t-36 -33q-10 -3 -10 -17q0 -7 8.5 -12.5t20.5 -5.5q23 0 45.5 16t44.5 50t41 70.5t40.5 95t37 104
t35.5 116.5t32 114.5t31 115.5l127 346q18 49 18 74q0 20 -19 36.5t-42 16.5q-75 0 -195 -141q-67 -81 -111 -171.5t-87 -234.5l-78 -260h-322l195 653q30 102 30 138q0 38 -25 50.5t-100 12.5h-49l15 96l512 29l-66 -270q115 148 211 210t209 62q101 0 166 -59.5t65 -151.5
q0 -94 -63 -262z" />
    <glyph glyph-name="Omacron" unicode="&#x14c;" horiz-adv-x="1705" 
d="M1632 903q0 -187 -75 -359.5t-200.5 -298.5t-298 -201t-358.5 -75q-284 0 -455 168.5t-171 448.5q0 187 76.5 358.5t203.5 295t297.5 196.5t352.5 73q131 0 247.5 -47t200 -128t132 -193.5t48.5 -237.5zM1092 401q75 145 119 324t44 340q0 156 -68.5 245t-189.5 89
q-115 0 -209 -78t-174 -240q-75 -154 -124.5 -348t-49.5 -338q0 -146 70 -230.5t190 -84.5q222 0 392 321zM1485 1825l-43 -156h-684l43 156h684z" />
    <glyph glyph-name="omacron" unicode="&#x14d;" horiz-adv-x="1175" 
d="M1106 584q0 -171 -86 -311.5t-236 -221t-333 -80.5q-197 0 -308 105q-57 52 -90 135t-33 172q0 159 87.5 297t236.5 219.5t320 81.5q94 0 180.5 -29.5t146.5 -81.5q115 -98 115 -286zM686 274q42 107 72 239t30 212q0 72 -36.5 116t-96.5 44q-131 0 -225 -226
q-40 -97 -66 -221.5t-26 -216.5q0 -76 34.5 -119t96.5 -43q134 0 217 215zM1139 1368l-43 -156h-684l43 156h684z" />
    <glyph glyph-name="Obreve" unicode="&#x14e;" horiz-adv-x="1705" 
d="M1632 903q0 -187 -75 -359.5t-200.5 -298.5t-298 -201t-358.5 -75q-284 0 -455 168.5t-171 448.5q0 187 76.5 358.5t203.5 295t297.5 196.5t352.5 73q131 0 247.5 -47t200 -128t132 -193.5t48.5 -237.5zM1092 401q75 145 119 324t44 340q0 156 -68.5 245t-189.5 89
q-115 0 -209 -78t-174 -240q-75 -154 -124.5 -348t-49.5 -338q0 -146 70 -230.5t190 -84.5q222 0 392 321zM1534 1898q-12 -105 -104 -188q-127 -115 -349 -115q-182 0 -272.5 83.5t-65.5 219.5h115q9 -83 67.5 -120t180.5 -37q115 0 201.5 43.5t109.5 113.5h117z" />
    <glyph glyph-name="obreve" unicode="&#x14f;" horiz-adv-x="1175" 
d="M1106 584q0 -171 -86 -311.5t-236 -221t-333 -80.5q-197 0 -308 105q-57 52 -90 135t-33 172q0 159 87.5 297t236.5 219.5t320 81.5q94 0 180.5 -29.5t146.5 -81.5q115 -98 115 -286zM686 274q42 107 72 239t30 212q0 72 -36.5 116t-96.5 44q-131 0 -225 -226
q-40 -97 -66 -221.5t-26 -216.5q0 -76 34.5 -119t96.5 -43q134 0 217 215zM1106 1458q-10 -118 -86 -209q-106 -127 -291 -127q-135 0 -210 72.5t-75 204.5q0 5 1 13.5t2 21.5t2 24h94q7 -92 56 -133t151 -41q96 0 168 48t92 126h96z" />
    <glyph glyph-name="Ohungarumlaut" unicode="&#x150;" horiz-adv-x="1705" 
d="M1632 903q0 -187 -75 -359.5t-200.5 -298.5t-298 -201t-358.5 -75q-284 0 -455 168.5t-171 448.5q0 187 76.5 358.5t203.5 295t297.5 196.5t352.5 73q131 0 247.5 -47t200 -128t132 -193.5t48.5 -237.5zM1092 401q75 145 119 324t44 340q0 156 -68.5 245t-189.5 89
q-115 0 -209 -78t-174 -240q-75 -154 -124.5 -348t-49.5 -338q0 -146 70 -230.5t190 -84.5q222 0 392 321zM1311 1853q0 -28 -16.5 -54t-41.5 -36l-340 -145h-110l252 250q61 62 84.5 77t60.5 15q46 0 78.5 -31.5t32.5 -75.5zM1702 1853q0 -28 -16 -54t-41 -36l-340 -145
h-111l252 250q61 62 84.5 77t60.5 15q46 0 78.5 -31.5t32.5 -75.5z" />
    <glyph glyph-name="ohungarumlaut" unicode="&#x151;" horiz-adv-x="1175" 
d="M1106 584q0 -171 -86 -311.5t-236 -221t-333 -80.5q-197 0 -308 105q-57 52 -90 135t-33 172q0 159 87.5 297t236.5 219.5t320 81.5q94 0 180.5 -29.5t146.5 -81.5q115 -98 115 -286zM686 274q42 107 72 239t30 212q0 72 -36.5 116t-96.5 44q-131 0 -225 -226
q-40 -97 -66 -221.5t-26 -216.5q0 -76 34.5 -119t96.5 -43q134 0 217 215zM952 1356q0 -28 -16 -54t-41 -36l-340 -146h-111l252 250q61 62 85 77t61 15q46 0 78 -31t32 -75zM1343 1356q0 -28 -16 -54t-41 -36l-340 -146h-110l251 250q61 62 85 77t61 15q46 0 78 -31t32 -75
z" />
    <glyph glyph-name="OE" unicode="&#x152;" horiz-adv-x="1972" 
d="M1765 0h-1136q-282 0 -436 152t-154 423q0 211 99.5 410.5t269.5 329.5q120 91 247 127.5t324 36.5h1028l-82 -502h-100q0 111 -7.5 166t-29.5 94q-69 131 -223 131h-35q-43 0 -66.5 -22t-36.5 -76l-120 -449h82q80 0 129 57t102 193l94 -14l-184 -686l-94 14
q10 76 10 125q0 97 -23 149t-82 52h-63l-131 -484q-10 -42 -10 -65t23 -37t61 -14h57q138 0 289.5 126t232.5 293l101 -22zM813 322l207 772q22 83 22 153q0 121 -141 121q-101 0 -179.5 -57t-148.5 -183q-85 -151 -135.5 -336.5t-50.5 -345.5q0 -335 236 -335q76 0 117 45
t73 166z" />
    <glyph glyph-name="oe" unicode="&#x153;" horiz-adv-x="1744" 
d="M1559 186q-190 -217 -455 -217q-105 0 -175 28t-141 97q-95 -72 -170.5 -97.5t-191.5 -25.5q-210 0 -323 113.5t-113 300.5q0 157 87.5 294.5t235 219.5t316.5 82q107 0 183.5 -32.5t139.5 -104.5q162 137 367 137q148 0 244 -70.5t96 -177.5q0 -143 -171 -244t-482 -118
q-7 -79 -7 -90q0 -89 48 -140t131 -51q79 0 150.5 38.5t160.5 129.5zM655 274q43 107 73 239t30 212q0 72 -36.5 116t-96.5 44q-83 0 -158.5 -108t-117.5 -261t-42 -295q0 -76 34.5 -119t96.5 -43q131 0 217 215zM1409 788q0 43 -24.5 70t-65.5 27q-95 0 -176.5 -115.5
t-118.5 -302.5q168 27 276.5 114.5t108.5 206.5z" />
    <glyph glyph-name="Racute" unicode="&#x154;" horiz-adv-x="1630" 
d="M1520 279q-52 -158 -140 -234t-219 -76q-129 0 -211 81.5t-82 209.5q0 34 12.5 142t12.5 149q0 166 -188 166h-82l-113 -422q-27 -99 -27 -129q0 -34 31 -44.5t131 -10.5h53l-16 -111h-766l14 111h41q61 0 84 6t39 22q14 12 21.5 32.5t34.5 123.5l237 889q29 103 29 129
q0 34 -29.5 44.5t-128.5 10.5h-43l14 111h711q311 0 454.5 -77.5t143.5 -264.5q0 -175 -149 -277t-439 -125q151 -42 218 -126t67 -238v-70q0 -101 2 -121t12 -33q16 -22 37 -22q41 0 75.5 49.5t70.5 147.5zM1161 1167q0 97 -57 149t-164 52h-51q-55 0 -77 -15.5t-34 -62.5
l-125 -463h70q138 0 195 12t110 52q62 46 97.5 119.5t35.5 156.5zM1323 1821q0 -52 -70 -80l-407 -164h-133l305 258q60 51 94 66.5t78 15.5q55 0 94 -28t39 -68z" />
    <glyph glyph-name="racute" unicode="&#x155;" horiz-adv-x="1062" 
d="M1073 801q0 -72 -43.5 -121t-109.5 -49q-50 0 -89 28t-49 72q-6 24 -6 64q0 26 -20 26q-29 0 -82 -53q-75 -72 -146 -204t-114 -279l-86 -285h-322l195 653q30 99 30 138q0 38 -25 50.5t-100 12.5h-49l15 96l512 29l-64 -260q95 142 178.5 202t184.5 60q86 0 138 -49
t52 -131zM942 1372q0 -59 -57 -90l-340 -180h-111l254 284q53 58 80 75.5t63 17.5q46 0 78.5 -31.5t32.5 -75.5z" />
    <glyph glyph-name="Rcommaaccent" unicode="&#x156;" horiz-adv-x="1630" 
d="M1520 279q-52 -158 -140 -234t-219 -76q-129 0 -211 81.5t-82 209.5q0 34 12.5 142t12.5 149q0 166 -188 166h-82l-113 -422q-27 -99 -27 -129q0 -34 31 -44.5t131 -10.5h53l-16 -111h-766l14 111h41q61 0 84 6t39 22q14 12 21.5 32.5t34.5 123.5l237 889q29 103 29 129
q0 34 -29.5 44.5t-128.5 10.5h-43l14 111h711q311 0 454.5 -77.5t143.5 -264.5q0 -175 -149 -277t-439 -125q151 -42 218 -126t67 -238v-70q0 -101 2 -121t12 -33q16 -22 37 -22q41 0 75.5 49.5t70.5 147.5zM1161 1167q0 97 -57 149t-164 52h-51q-55 0 -77 -15.5t-34 -62.5
l-125 -463h70q138 0 195 12t110 52q62 46 97.5 119.5t35.5 156.5zM702 -336q0 -134 -99 -242.5t-288 -181.5l-39 76q252 113 252 252q-40 -4 -49 -4q-68 0 -105.5 38t-37.5 107q0 74 49 121t125 47q86 0 139 -59t53 -154z" />
    <glyph glyph-name="rcommaaccent" unicode="&#x157;" horiz-adv-x="1062" 
d="M1073 801q0 -72 -43.5 -121t-109.5 -49q-50 0 -89 28t-49 72q-6 24 -6 64q0 26 -20 26q-29 0 -82 -53q-75 -72 -146 -204t-114 -279l-86 -285h-322l195 653q30 99 30 138q0 38 -25 50.5t-100 12.5h-49l15 96l512 29l-64 -260q95 142 178.5 202t184.5 60q86 0 138 -49
t52 -131zM332 -336q0 -134 -99 -242.5t-288 -181.5l-39 76q252 113 252 252q-40 -4 -49 -4q-68 0 -106 38t-38 107q0 74 49 121t125 47q86 0 139.5 -59t53.5 -154z" />
    <glyph glyph-name="Rcaron" unicode="&#x158;" horiz-adv-x="1630" 
d="M1520 279q-52 -158 -140 -234t-219 -76q-129 0 -211 81.5t-82 209.5q0 34 12.5 142t12.5 149q0 166 -188 166h-82l-113 -422q-27 -99 -27 -129q0 -34 31 -44.5t131 -10.5h53l-16 -111h-766l14 111h41q61 0 84 6t39 22q14 12 21.5 32.5t34.5 123.5l237 889q29 103 29 129
q0 34 -29.5 44.5t-128.5 10.5h-43l14 111h711q311 0 454.5 -77.5t143.5 -264.5q0 -175 -149 -277t-439 -125q151 -42 218 -126t67 -238v-70q0 -101 2 -121t12 -33q16 -22 37 -22q41 0 75.5 49.5t70.5 147.5zM1161 1167q0 97 -57 149t-164 52h-51q-55 0 -77 -15.5t-34 -62.5
l-125 -463h70q138 0 195 12t110 52q62 46 97.5 119.5t35.5 156.5zM1475 1909l-385 -322h-250l-205 322h143l221 -160l312 160h164z" />
    <glyph glyph-name="rcaron" unicode="&#x159;" horiz-adv-x="1062" 
d="M1073 801q0 -72 -43.5 -121t-109.5 -49q-50 0 -89 28t-49 72q-6 24 -6 64q0 26 -20 26q-29 0 -82 -53q-75 -72 -146 -204t-114 -279l-86 -285h-322l195 653q30 99 30 138q0 38 -25 50.5t-100 12.5h-49l15 96l512 29l-64 -260q95 142 178.5 202t184.5 60q86 0 138 -49
t52 -131zM1061 1470l-322 -360h-209l-172 360h121l185 -180l258 180h139z" />
    <glyph glyph-name="Sacute" unicode="&#x15a;" horiz-adv-x="1402" 
d="M1253 459q0 -217 -166.5 -353.5t-431.5 -136.5q-138 0 -240 38t-204 126l-119 -133h-90l102 580l107 -17l-2 -61q2 -185 122.5 -303.5t317.5 -118.5q144 0 233 64t89 167q0 90 -72 146.5t-278 126.5q-127 42 -188 73.5t-109 77.5q-115 109 -115 279q0 212 156 353.5
t389 141.5q122 0 218.5 -36.5t190.5 -118.5l109 110h92l-90 -538l-107 18q-7 223 -110 339t-279 116q-132 0 -212.5 -60.5t-80.5 -160.5q0 -40 9 -69t33.5 -57.5t70.5 -53.5t117 -48q88 -29 149 -52t121.5 -51t100 -55t74 -61.5t53.5 -74t29.5 -88.5t10.5 -109zM1286 1821
q0 -52 -69 -80l-408 -164h-133l305 258q60 51 94 66.5t78 15.5q55 0 94 -28t39 -68z" />
    <glyph glyph-name="sacute" unicode="&#x15b;" horiz-adv-x="985" 
d="M817 305q0 -151 -123.5 -243.5t-324.5 -92.5q-163 0 -264 66t-101 172q0 66 39.5 106.5t103.5 40.5q62 0 104 -37t42 -94q0 -29 -10.5 -47.5t-42.5 -46.5q-11 -11 -11 -18q0 -23 36.5 -38.5t92.5 -15.5q84 0 139.5 40.5t55.5 101.5q0 41 -27.5 70t-91.5 55
q-124 52 -172 82q-76 46 -111.5 106t-35.5 143q0 151 111 238.5t302 87.5q161 0 264 -64.5t103 -164.5q0 -63 -39 -103.5t-102 -40.5q-61 0 -101.5 35.5t-40.5 89.5q0 25 6 39t31 45q13 16 13 25q0 17 -35 30t-80 13q-80 0 -131 -35t-51 -90q0 -41 35 -72.5t124 -69.5
q115 -51 154 -77q139 -90 139 -236zM926 1372q0 -59 -58 -90l-340 -180h-110l254 284q53 58 80 75.5t63 17.5q46 0 78.5 -31.5t32.5 -75.5z" />
    <glyph glyph-name="Scircumflex" unicode="&#x15c;" horiz-adv-x="1402" 
d="M1253 459q0 -217 -166.5 -353.5t-431.5 -136.5q-138 0 -240 38t-204 126l-119 -133h-90l102 580l107 -17l-2 -61q2 -185 122.5 -303.5t317.5 -118.5q144 0 233 64t89 167q0 90 -72 146.5t-278 126.5q-127 42 -188 73.5t-109 77.5q-115 109 -115 279q0 212 156 353.5
t389 141.5q122 0 218.5 -36.5t190.5 -118.5l109 110h92l-90 -538l-107 18q-7 223 -110 339t-279 116q-132 0 -212.5 -60.5t-80.5 -160.5q0 -40 9 -69t33.5 -57.5t70.5 -53.5t117 -48q88 -29 149 -52t121.5 -51t100 -55t74 -61.5t53.5 -74t29.5 -88.5t10.5 -109zM1352 1587
h-144l-221 160l-311 -160h-164l385 322h250z" />
    <glyph glyph-name="scircumflex" unicode="&#x15d;" horiz-adv-x="985" 
d="M817 305q0 -151 -123.5 -243.5t-324.5 -92.5q-163 0 -264 66t-101 172q0 66 39.5 106.5t103.5 40.5q62 0 104 -37t42 -94q0 -29 -10.5 -47.5t-42.5 -46.5q-11 -11 -11 -18q0 -23 36.5 -38.5t92.5 -15.5q84 0 139.5 40.5t55.5 101.5q0 41 -27.5 70t-91.5 55
q-124 52 -172 82q-76 46 -111.5 106t-35.5 143q0 151 111 238.5t302 87.5q161 0 264 -64.5t103 -164.5q0 -63 -39 -103.5t-102 -40.5q-61 0 -101.5 35.5t-40.5 89.5q0 25 6 39t31 45q13 16 13 25q0 17 -35 30t-80 13q-80 0 -131 -35t-51 -90q0 -41 35 -72.5t124 -69.5
q115 -51 154 -77q139 -90 139 -236zM969 1112h-121l-184 176l-258 -176h-138l322 356h207z" />
    <glyph glyph-name="Scedilla" unicode="&#x15e;" horiz-adv-x="1402" 
d="M1253 457q0 -217 -166 -352.5t-432 -135.5q-26 0 -51 2l-72 -98q40 6 64 6q80 0 131 -43t51 -110q0 -80 -76.5 -130.5t-199.5 -50.5q-141 0 -223 60l45 71q83 -38 145 -38q46 0 74 21t28 56q0 31 -25 51.5t-63 20.5q-15 0 -59 -8l-33 35l127 166q-169 27 -307 153
l-119 -133h-90l102 580l107 -17v-31q0 -206 119.5 -329t318.5 -123q144 0 233 64t89 167q0 91 -71.5 147t-278.5 126q-127 42 -188 73.5t-109 77.5q-115 109 -115 279q0 212 156 353.5t389 141.5q122 0 218.5 -36.5t190.5 -118.5l109 110h92l-90 -538l-107 18
q-6 158 -51 252q-50 97 -138 150t-200 53q-132 0 -212.5 -60.5t-80.5 -160.5q0 -91 66 -148q36 -36 164 -80q236 -77 354 -147q89 -51 136.5 -140t47.5 -206z" />
    <glyph glyph-name="scedilla" unicode="&#x15f;" horiz-adv-x="985" 
d="M817 305q0 -151 -123 -243.5t-321 -92.5q-19 0 -33 2l-70 -96q40 6 68 6q75 0 125.5 -43.5t50.5 -109.5q0 -80 -76.5 -129.5t-199.5 -49.5q-139 0 -224 60l45 72q89 -39 148 -39q44 0 72 21.5t28 55.5q0 31 -24.5 51.5t-61.5 20.5q-18 0 -59 -8l-35 35l127 162
q-121 25 -185.5 83t-64.5 144q0 66 39.5 106.5t103.5 40.5q62 0 104 -37t42 -94q0 -29 -10.5 -47.5t-42.5 -46.5q-11 -11 -11 -18q0 -23 36.5 -38.5t92.5 -15.5q84 0 139.5 40.5t55.5 101.5q0 41 -27.5 70t-91.5 55q-123 51 -172 82q-76 46 -111.5 105.5t-35.5 141.5
q0 151 110.5 239.5t298.5 88.5q164 0 267.5 -64t103.5 -165q0 -63 -39 -103.5t-102 -40.5q-61 0 -101.5 35.5t-40.5 89.5q0 25 6 39t31 45q13 16 13 25q0 17 -35 30t-80 13q-80 0 -131 -35t-51 -90q0 -41 35 -72.5t124 -69.5q115 -51 154 -77q139 -90 139 -236z" />
    <glyph glyph-name="Scaron" unicode="&#x160;" horiz-adv-x="1402" 
d="M1253 459q0 -217 -166.5 -353.5t-431.5 -136.5q-138 0 -240 38t-204 126l-119 -133h-90l102 580l107 -17l-2 -61q2 -185 122.5 -303.5t317.5 -118.5q144 0 233 64t89 167q0 90 -72 146.5t-278 126.5q-127 42 -188 73.5t-109 77.5q-115 109 -115 279q0 212 156 353.5
t389 141.5q122 0 218.5 -36.5t190.5 -118.5l109 110h92l-90 -538l-107 18q-7 223 -110 339t-279 116q-132 0 -212.5 -60.5t-80.5 -160.5q0 -40 9 -69t33.5 -57.5t70.5 -53.5t117 -48q88 -29 149 -52t121.5 -51t100 -55t74 -61.5t53.5 -74t29.5 -88.5t10.5 -109zM1438 1909
l-385 -322h-250l-205 322h143l222 -160l311 160h164z" />
    <glyph glyph-name="scaron" unicode="&#x161;" horiz-adv-x="985" 
d="M817 305q0 -151 -123.5 -243.5t-324.5 -92.5q-163 0 -264 66t-101 172q0 66 39.5 106.5t103.5 40.5q62 0 104 -37t42 -94q0 -29 -10.5 -47.5t-42.5 -46.5q-11 -11 -11 -18q0 -23 36.5 -38.5t92.5 -15.5q84 0 139.5 40.5t55.5 101.5q0 41 -27.5 70t-91.5 55
q-124 52 -172 82q-76 46 -111.5 106t-35.5 143q0 151 111 238.5t302 87.5q161 0 264 -64.5t103 -164.5q0 -63 -39 -103.5t-102 -40.5q-61 0 -101.5 35.5t-40.5 89.5q0 25 6 39t31 45q13 16 13 25q0 17 -35 30t-80 13q-80 0 -131 -35t-51 -90q0 -41 35 -72.5t124 -69.5
q115 -51 154 -77q139 -90 139 -236zM1044 1470l-321 -360h-209l-172 360h121l184 -180l258 180h139z" />
    <glyph glyph-name="Tcedilla" unicode="&#x162;" horiz-adv-x="1478" 
d="M1470 899l-108 10q6 70 6 123q0 162 -62.5 249t-179.5 87q-45 0 -58 -13.5t-30 -78.5l-262 -981q-28 -101 -28 -129q0 -34 31 -44.5t132 -10.5h52l-15 -111h-352l-88 -125q40 6 67 6q75 0 126 -43.5t51 -109.5q0 -79 -77 -129t-200 -50q-138 0 -223 60l45 72
q89 -39 147 -39q44 0 72.5 21.5t28.5 55.5q0 31 -24.5 51.5t-61.5 20.5q-19 0 -60 -8l-34 35l139 182h-369l15 111h55q127 0 155 28q14 12 21.5 32.5t34.5 123.5l266 993q8 27 8 49q0 31 -57 31q-131 0 -232.5 -108.5t-207.5 -360.5l-103 33l146 547h1325z" />
    <glyph glyph-name="tcedilla" unicode="&#x163;" horiz-adv-x="833" 
d="M690 319q-55 -84 -80 -117.5t-59 -70.5q-148 -157 -303 -160l-68 -96q40 6 68 6q75 0 125.5 -43.5t50.5 -109.5q0 -79 -77 -129t-200 -50q-138 0 -223 60l45 72q89 -39 148 -39q44 0 72 21.5t28 55.5q0 31 -24.5 51.5t-61.5 20.5q-18 0 -59 -8l-35 35l127 168
q-52 21 -83.5 62t-31.5 93q0 60 29 158q11 32 22 76l133 450h-178l37 125h178l115 381h322l-113 -381h233l-36 -125h-234l-143 -483q-43 -144 -43 -170q0 -14 9 -25.5t21 -11.5q31 0 93 69.5t120 170.5z" />
    <glyph glyph-name="Tcaron" unicode="&#x164;" horiz-adv-x="1478" 
d="M1470 899l-108 10q6 70 6 123q0 162 -62.5 249t-179.5 87q-45 0 -58 -13.5t-30 -78.5l-262 -981q-28 -101 -28 -129q0 -34 31 -44.5t132 -10.5h52l-15 -111h-813l15 111h55q127 0 155 28q14 12 21.5 32.5t34.5 123.5l266 993q8 27 8 49q0 31 -57 31q-131 0 -232.5 -108.5
t-207.5 -360.5l-103 33l146 547h1325zM1448 1909l-385 -322h-250l-205 322h144l221 -160l311 160h164z" />
    <glyph glyph-name="tcaron" unicode="&#x165;" horiz-adv-x="833" 
d="M690 319q-55 -84 -80 -117.5t-59 -70.5q-151 -160 -307 -160q-82 0 -138.5 49.5t-56.5 120.5q0 60 29 158q11 32 22 76l133 450h-178l37 125h178l115 381h322l-113 -381h233l-36 -125h-234l-143 -483q-43 -144 -43 -170q0 -14 9 -25.5t21 -11.5q31 0 93 69.5t120 170.5z
M1169 1450q0 -134 -99 -242.5t-288 -181.5l-39 76q252 113 252 252q-40 -4 -49 -4q-68 0 -105.5 38t-37.5 107q0 74 49 121t125 47q86 0 139 -59t53 -154z" />
    <glyph glyph-name="Utilde" unicode="&#x168;" horiz-adv-x="1705" 
d="M1819 1368q-43 0 -87.5 -15t-72.5 -40q-43 -38 -61 -78.5t-64 -198.5l-152 -571q-69 -259 -218 -377.5t-404 -118.5q-265 0 -422.5 119t-157.5 313q0 89 35 220l152 563q28 105 28 129q0 35 -27 45t-126 10h-47l14 111h770l-16 -111h-45q-107 0 -136 -29
q-14 -12 -20.5 -31.5t-34.5 -123.5l-166 -623q-31 -111 -31 -180q0 -135 81 -210t227 -75q152 0 256.5 95.5t165.5 328.5l137 516q31 118 38 152t7 67q0 58 -45.5 85.5t-139.5 27.5l15 111h561zM1499 1876q-5 -103 -81 -180.5t-173 -77.5q-63 0 -174 43q-107 43 -147 43
q-34 0 -56 -22.5t-30 -63.5h-97q7 112 79.5 185t174.5 73q64 0 162 -39q73 -29 96.5 -36t46.5 -7q78 0 103 82h96z" />
    <glyph glyph-name="utilde" unicode="&#x169;" horiz-adv-x="1402" 
d="M1309 311q-120 -185 -219 -262.5t-216 -77.5q-198 0 -198 174q0 34 2 54q-100 -120 -188.5 -174t-186.5 -54q-101 0 -163 62t-62 162q0 70 43 211l72 247q32 102 32 138q0 38 -25 50.5t-100 12.5h-20l14 96l518 29l-184 -623q-4 -11 -25 -84l-3.5 -14t-5 -18.5
t-5.5 -16.5q-4 -24 -4 -28q0 -20 15.5 -36t35.5 -16q40 0 105 53t121 130q87 120 139 286l98 338h324l-191 -639q-25 -88 -29 -104t-4 -33q0 -10 9.5 -19.5t19.5 -9.5q26 0 82.5 62t120.5 162zM1221 1419q-5 -103 -81 -180.5t-173 -77.5q-63 0 -174 43q-107 43 -148 43
q-34 0 -56.5 -22.5t-29.5 -63.5h-96q7 112 79.5 185t174.5 73q64 0 162 -39q73 -29 96.5 -36t46.5 -7q77 0 102 82h97z" />
    <glyph glyph-name="Umacron" unicode="&#x16a;" horiz-adv-x="1705" 
d="M1819 1368q-43 0 -87.5 -15t-72.5 -40q-43 -38 -61 -78.5t-64 -198.5l-152 -571q-69 -259 -218 -377.5t-404 -118.5q-265 0 -422.5 119t-157.5 313q0 89 35 220l152 563q28 105 28 129q0 35 -27 45t-126 10h-47l14 111h770l-16 -111h-45q-107 0 -136 -29
q-14 -12 -20.5 -31.5t-34.5 -123.5l-166 -623q-31 -111 -31 -180q0 -135 81 -210t227 -75q152 0 256.5 95.5t165.5 328.5l137 516q31 118 38 152t7 67q0 58 -45.5 85.5t-139.5 27.5l15 111h561zM1483 1825l-43 -156h-684l43 156h684z" />
    <glyph glyph-name="umacron" unicode="&#x16b;" horiz-adv-x="1402" 
d="M1309 311q-120 -185 -219 -262.5t-216 -77.5q-198 0 -198 174q0 34 2 54q-100 -120 -188.5 -174t-186.5 -54q-101 0 -163 62t-62 162q0 70 43 211l72 247q32 102 32 138q0 38 -25 50.5t-100 12.5h-20l14 96l518 29l-184 -623q-4 -11 -25 -84l-3.5 -14t-5 -18.5
t-5.5 -16.5q-4 -24 -4 -28q0 -20 15.5 -36t35.5 -16q40 0 105 53t121 130q87 120 139 286l98 338h324l-191 -639q-25 -88 -29 -104t-4 -33q0 -10 9.5 -19.5t19.5 -9.5q26 0 82.5 62t120.5 162zM1206 1368l-43 -156h-684l43 156h684z" />
    <glyph glyph-name="Ubreve" unicode="&#x16c;" horiz-adv-x="1705" 
d="M1819 1368q-43 0 -87.5 -15t-72.5 -40q-43 -38 -61 -78.5t-64 -198.5l-152 -571q-69 -259 -218 -377.5t-404 -118.5q-265 0 -422.5 119t-157.5 313q0 89 35 220l152 563q28 105 28 129q0 35 -27 45t-126 10h-47l14 111h770l-16 -111h-45q-107 0 -136 -29
q-14 -12 -20.5 -31.5t-34.5 -123.5l-166 -623q-31 -111 -31 -180q0 -135 81 -210t227 -75q152 0 256.5 95.5t165.5 328.5l137 516q31 118 38 152t7 67q0 58 -45.5 85.5t-139.5 27.5l15 111h561zM1532 1898q-12 -104 -105 -188q-127 -115 -348 -115q-182 0 -272.5 83.5
t-65.5 219.5h115q9 -83 67.5 -120t180.5 -37q115 0 201.5 43.5t109.5 113.5h117z" />
    <glyph glyph-name="ubreve" unicode="&#x16d;" horiz-adv-x="1402" 
d="M1309 311q-120 -185 -219 -262.5t-216 -77.5q-198 0 -198 174q0 34 2 54q-100 -120 -188.5 -174t-186.5 -54q-101 0 -163 62t-62 162q0 70 43 211l72 247q32 102 32 138q0 38 -25 50.5t-100 12.5h-20l14 96l518 29l-184 -623q-4 -11 -25 -84l-3.5 -14t-5 -18.5
t-5.5 -16.5q-4 -24 -4 -28q0 -20 15.5 -36t35.5 -16q40 0 105 53t121 130q87 120 139 286l98 338h324l-191 -639q-25 -88 -29 -104t-4 -33q0 -10 9.5 -19.5t19.5 -9.5q26 0 82.5 62t120.5 162zM1174 1458q-9 -116 -87 -209q-106 -127 -290 -127q-135 0 -210 72.5t-75 204.5
q0 5 4 59h94q7 -92 56 -133t151 -41q95 0 167.5 48t92.5 126h97z" />
    <glyph glyph-name="Uring" unicode="&#x16e;" horiz-adv-x="1705" 
d="M1819 1368q-43 0 -87.5 -15t-72.5 -40q-43 -38 -61 -78.5t-64 -198.5l-152 -571q-69 -259 -218 -377.5t-404 -118.5q-265 0 -422.5 119t-157.5 313q0 89 35 220l152 563q28 105 28 129q0 35 -27 45t-126 10h-47l14 111h770l-16 -111h-45q-107 0 -136 -29
q-14 -12 -20.5 -31.5t-34.5 -123.5l-166 -623q-31 -111 -31 -180q0 -135 81 -210t227 -75q152 0 256.5 95.5t165.5 328.5l137 516q31 118 38 152t7 67q0 58 -45.5 85.5t-139.5 27.5l15 111h561zM1348 1780q0 -92 -65 -156.5t-159 -64.5q-88 0 -152.5 65.5t-64.5 155.5
q0 89 65 154t156 65t155.5 -64t64.5 -155zM1237 1780q0 44 -32.5 76t-76.5 32q-46 0 -78 -32t-32 -78q0 -43 32 -76t76 -33q46 0 78.5 32.5t32.5 78.5z" />
    <glyph glyph-name="uring" unicode="&#x16f;" horiz-adv-x="1402" 
d="M1309 311q-120 -185 -219 -262.5t-216 -77.5q-198 0 -198 174q0 34 2 54q-100 -120 -188.5 -174t-186.5 -54q-101 0 -163 62t-62 162q0 70 43 211l72 247q32 102 32 138q0 38 -25 50.5t-100 12.5h-20l14 96l518 29l-184 -623q-4 -11 -25 -84l-3.5 -14t-5 -18.5
t-5.5 -16.5q-4 -24 -4 -28q0 -20 15.5 -36t35.5 -16q40 0 105 53t121 130q87 120 139 286l98 338h324l-191 -639q-25 -88 -29 -104t-4 -33q0 -10 9.5 -19.5t19.5 -9.5q26 0 82.5 62t120.5 162zM1063 1292q0 -92 -64.5 -156.5t-158.5 -64.5q-88 0 -152.5 65.5t-64.5 155.5
q0 89 65 154t156 65t155 -64t64 -155zM952 1292q0 44 -32 76.5t-76 32.5q-46 0 -78.5 -32.5t-32.5 -78.5q0 -43 32.5 -75.5t76.5 -32.5q46 0 78 32t32 78z" />
    <glyph glyph-name="Uhungarumlaut" unicode="&#x170;" horiz-adv-x="1705" 
d="M1819 1368q-43 0 -87.5 -15t-72.5 -40q-43 -38 -61 -78.5t-64 -198.5l-152 -571q-69 -259 -218 -377.5t-404 -118.5q-265 0 -422.5 119t-157.5 313q0 89 35 220l152 563q28 105 28 129q0 35 -27 45t-126 10h-47l14 111h770l-16 -111h-45q-107 0 -136 -29
q-14 -12 -20.5 -31.5t-34.5 -123.5l-166 -623q-31 -111 -31 -180q0 -135 81 -210t227 -75q152 0 256.5 95.5t165.5 328.5l137 516q31 118 38 152t7 67q0 58 -45.5 85.5t-139.5 27.5l15 111h561zM1309 1853q0 -28 -16.5 -54t-41.5 -36l-340 -145h-110l252 250q61 62 84.5 77
t60.5 15q46 0 78.5 -31.5t32.5 -75.5zM1700 1853q0 -28 -16.5 -54t-41.5 -36l-339 -145h-111l252 250q61 62 84.5 77t60.5 15q46 0 78.5 -31.5t32.5 -75.5z" />
    <glyph glyph-name="uhungarumlaut" unicode="&#x171;" horiz-adv-x="1402" 
d="M1309 311q-120 -185 -219 -262.5t-216 -77.5q-198 0 -198 174q0 34 2 54q-100 -120 -188.5 -174t-186.5 -54q-101 0 -163 62t-62 162q0 70 43 211l72 247q32 102 32 138q0 38 -25 50.5t-100 12.5h-20l14 96l518 29l-184 -623q-4 -11 -25 -84l-3.5 -14t-5 -18.5
t-5.5 -16.5q-4 -24 -4 -28q0 -20 15.5 -36t35.5 -16q40 0 105 53t121 130q87 120 139 286l98 338h324l-191 -639q-25 -88 -29 -104t-4 -33q0 -10 9.5 -19.5t19.5 -9.5q26 0 82.5 62t120.5 162zM1020 1356q0 -28 -16 -54t-41 -36l-340 -146h-111l252 250q61 62 84.5 77
t60.5 15q46 0 78.5 -31t32.5 -75zM1411 1356q0 -28 -16 -54t-41 -36l-340 -146h-111l252 250q61 62 84.5 77t60.5 15q46 0 78.5 -31t32.5 -75z" />
    <glyph glyph-name="Uogonek" unicode="&#x172;" horiz-adv-x="1705" 
d="M1819 1368q-43 0 -87.5 -15t-72.5 -40q-43 -38 -61 -78.5t-64 -198.5l-152 -571q-62 -229 -183 -347t-322 -143q-54 -6 -89.5 -56.5t-35.5 -111.5q0 -41 24 -67.5t58 -26.5q85 0 143 47l57 -73q-45 -67 -117.5 -106.5t-148.5 -39.5q-87 0 -148 57.5t-61 151.5
q0 121 125 221q-233 19 -368.5 135t-135.5 295q0 89 35 220l152 563q28 105 28 129q0 35 -27 45t-126 10h-47l14 111h770l-16 -111h-45q-107 0 -136 -29q-14 -12 -20.5 -31.5t-34.5 -123.5l-166 -623q-31 -111 -31 -180q0 -135 81 -210t227 -75q152 0 256.5 95.5
t165.5 328.5l137 516q31 118 38 152t7 67q0 58 -45.5 85.5t-139.5 27.5l15 111h561z" />
    <glyph glyph-name="uogonek" unicode="&#x173;" horiz-adv-x="1402" 
d="M1141 -313q-45 -67 -118 -106.5t-149 -39.5q-86 0 -147 57.5t-61 151.5q0 130 135 230q-125 27 -125 165q0 34 2 54q-100 -120 -188.5 -174t-186.5 -54q-101 0 -163 62t-62 162q0 70 43 211l72 247q32 102 32 138q0 38 -25 50.5t-100 12.5h-20l14 96l518 29l-184 -623
q-4 -11 -25 -84l-3.5 -14t-5 -18.5t-5.5 -16.5q-4 -24 -4 -28q0 -20 15.5 -36t35.5 -16q40 0 105 53t121 130q87 120 139 286l98 338h324l-191 -639q-25 -88 -29 -104t-4 -33q0 -10 9.5 -19.5t19.5 -9.5q26 0 82.5 62t120.5 162l78 -58q-89 -138 -166.5 -215t-157.5 -106
q-56 -20 -91.5 -73t-35.5 -110q0 -41 24 -67.5t58 -26.5q85 0 143 47z" />
    <glyph glyph-name="Wcircumflex" unicode="&#x174;" horiz-adv-x="1933" 
d="M2021 1368q-95 -15 -148.5 -73.5t-121.5 -221.5l-477 -1102h-135l-140 990l-454 -990h-135l-177 1319q-6 47 -26.5 62.5t-83.5 15.5h-41l14 111h621l-15 -111h-40q-54 0 -68 -14t-14 -60l2 -32l90 -721l303 673l-6 62q-6 52 -36 72t-104 20h-32l14 111h637l-14 -111h-45
q-53 0 -74.5 -13t-20.5 -44q0 -19 6 -56l97 -690l264 635q27 64 27 94q0 32 -31 53t-80 21h-37l14 111h482zM1579 1587h-143l-222 160l-311 -160h-164l385 322h250z" />
    <glyph glyph-name="wcircumflex" unicode="&#x175;" horiz-adv-x="1705" 
d="M1614 799q0 -112 -41.5 -254.5t-106.5 -259.5q-88 -154 -204 -235t-248 -81q-123 0 -202 62.5t-105 179.5q-97 -128 -194 -185t-220 -57q-119 0 -183.5 59t-64.5 167q0 42 8 83t33 128l74 247q33 111 33 138q0 38 -25 50.5t-102 12.5h-21l14 96l521 29l-185 -617
q-28 -106 -28 -141q0 -31 22 -53.5t51 -22.5q55 0 110 40t101 112q26 42 63.5 130.5t57.5 158.5l109 364h321l-141 -479q-34 -136 -41.5 -172t-7.5 -68q0 -44 33.5 -80t76.5 -36q51 0 109 42t106 111q59 88 92 178t33 160q0 30 -14 49.5t-76 75.5q-59 54 -59 117
q0 60 38.5 96.5t102.5 36.5q72 0 116 -50t44 -132zM1274 1112h-121l-184 176l-258 -176h-138l322 356h207z" />
    <glyph glyph-name="Ycircumflex" unicode="&#x176;" horiz-adv-x="1441" 
d="M1577 1368q-96 -3 -160 -45.5t-155 -161.5l-410 -532l-88 -334q-29 -108 -29 -129q0 -34 31.5 -44.5t132.5 -10.5h51l-14 -111h-797l15 111h39q127 0 155 28q13 12 20 31.5t35 124.5l89 334l-240 622q-26 69 -62.5 93t-111.5 24h-47l14 111h750l-15 -111h-88
q-53 0 -71.5 -10t-18.5 -39q0 -23 19 -70l186 -473l326 430q34 43 34 88q0 35 -30.5 54.5t-85.5 19.5h-74l16 111h598zM1350 1587h-144l-221 160l-311 -160h-164l385 322h250z" />
    <glyph glyph-name="ycircumflex" unicode="&#x177;" horiz-adv-x="1062" 
d="M1008 854q0 -88 -83 -276t-218 -408q-183 -302 -336 -455q-126 -129 -289 -129q-98 0 -157.5 51t-59.5 136q0 66 40.5 107.5t104.5 41.5q62 0 102 -37t40 -94q0 -22 -13 -57l-2 -13q0 -8 8.5 -14t18.5 -6q41 0 106 52t119 128l60 82l-205 692q-17 58 -28.5 75.5
t-31.5 17.5q-27 0 -47 -40t-63 -180l-88 27q51 217 132 321.5t199 104.5q52 0 94.5 -25.5t65.5 -70.5q42 -79 76 -203l115 -389q77 130 107 200.5t30 122.5q0 29 -7 49t-32 60q-43 62 -43 121t41 97t104 38q64 0 102 -34t38 -93zM979 1112h-121l-184 176l-258 -176h-137
l321 356h207z" />
    <glyph glyph-name="Ydieresis" unicode="&#x178;" horiz-adv-x="1441" 
d="M1577 1368q-96 -3 -160 -45.5t-155 -161.5l-410 -532l-88 -334q-29 -108 -29 -129q0 -34 31.5 -44.5t132.5 -10.5h51l-14 -111h-797l15 111h39q127 0 155 28q13 12 20 31.5t35 124.5l89 334l-240 622q-26 69 -62.5 93t-111.5 24h-47l14 111h750l-15 -111h-88
q-53 0 -71.5 -10t-18.5 -39q0 -23 19 -70l186 -473l326 430q34 43 34 88q0 35 -30.5 54.5t-85.5 19.5h-74l16 111h598zM926 1749q0 -61 -43 -104t-105 -43q-60 0 -102.5 43.5t-42.5 103.5t43 102.5t104 42.5q60 0 103 -42.5t43 -102.5zM1315 1749q0 -61 -43 -104t-105 -43
q-60 0 -102.5 43.5t-42.5 103.5t43 102.5t104 42.5q60 0 103 -42.5t43 -102.5z" />
    <glyph glyph-name="Zacute" unicode="&#x179;" horiz-adv-x="1441" 
d="M1335 532l-143 -532h-1251l16 111l1038 1257h-161q-198 0 -335.5 -94.5t-258.5 -315.5l-101 21l135 500h1190l-16 -111l-1045 -1257h187q221 0 370 104.5t271 343.5zM1253 1821q0 -52 -69 -80l-408 -164h-133l305 258q60 51 94 66.5t78 15.5q55 0 94 -28t39 -68z" />
    <glyph glyph-name="zacute" unicode="&#x17a;" horiz-adv-x="1062" 
d="M942 313q-53 -166 -159.5 -255t-252.5 -89q-82 0 -148 24t-206 107q-33 17 -43 17q-29 0 -29 -60q-2 -40 -22 -64t-55 -24q-28 0 -47 20.5t-19 49.5q0 73 135 229q88 99 167.5 161.5t195.5 125.5q40 21 84 43.5t63.5 32.5t22.5 12q4 2 18.5 11.5t33.5 21.5t36 24
q-85 -28 -168 -28q-54 0 -184 20q-91 15 -115 15q-49 0 -72.5 -21.5t-58.5 -99.5l-86 30q127 365 405 365q62 0 122.5 -19.5t152.5 -68.5q67 -37 90 -37q15 0 24.5 14.5t18.5 51.5q9 31 22.5 45t34.5 14q25 0 43.5 -20t18.5 -48q0 -55 -62 -146t-170 -194
q-71 -67 -132.5 -106t-244.5 -133q-63 -32 -131 -76q123 21 185 21q82 0 194 -31q96 -29 113 -29q76 0 135 127zM940 1372q0 -59 -57 -90l-340 -180h-111l254 284q53 58 80 75.5t63 17.5q46 0 78.5 -31.5t32.5 -75.5z" />
    <glyph glyph-name="Zdotaccent" unicode="&#x17b;" horiz-adv-x="1441" 
d="M1335 532l-143 -532h-1251l16 111l1038 1257h-161q-198 0 -335.5 -94.5t-258.5 -315.5l-101 21l135 500h1190l-16 -111l-1045 -1257h187q221 0 370 104.5t271 343.5zM1090 1749q0 -61 -43 -104t-105 -43q-60 0 -102.5 43.5t-42.5 103.5t43 102.5t104 42.5q60 0 103 -42.5
t43 -102.5z" />
    <glyph glyph-name="zdotaccent" unicode="&#x17c;" horiz-adv-x="1062" 
d="M942 313q-53 -166 -159.5 -255t-252.5 -89q-82 0 -148 24t-206 107q-33 17 -43 17q-29 0 -29 -60q-2 -40 -22 -64t-55 -24q-28 0 -47 20.5t-19 49.5q0 73 135 229q88 99 167.5 161.5t195.5 125.5q40 21 84 43.5t63.5 32.5t22.5 12q4 2 18.5 11.5t33.5 21.5t36 24
q-85 -28 -168 -28q-54 0 -184 20q-91 15 -115 15q-49 0 -72.5 -21.5t-58.5 -99.5l-86 30q127 365 405 365q62 0 122.5 -19.5t152.5 -68.5q67 -37 90 -37q15 0 24.5 14.5t18.5 51.5q9 31 22.5 45t34.5 14q25 0 43.5 -20t18.5 -48q0 -55 -62 -146t-170 -194
q-71 -67 -132.5 -106t-244.5 -133q-63 -32 -131 -76q123 21 185 21q82 0 194 -31q96 -29 113 -29q76 0 135 127zM827 1292q0 -62 -42.5 -104.5t-104.5 -42.5q-60 0 -102.5 43.5t-42.5 103.5t43 103t104 43q60 0 102.5 -43t42.5 -103z" />
    <glyph glyph-name="Zcaron" unicode="&#x17d;" horiz-adv-x="1441" 
d="M1335 532l-143 -532h-1251l16 111l1038 1257h-161q-198 0 -335.5 -94.5t-258.5 -315.5l-101 21l135 500h1190l-16 -111l-1045 -1257h187q221 0 370 104.5t271 343.5zM1405 1909l-385 -322h-250l-205 322h144l221 -160l311 160h164z" />
    <glyph glyph-name="zcaron" unicode="&#x17e;" horiz-adv-x="1062" 
d="M942 313q-53 -166 -159.5 -255t-252.5 -89q-82 0 -148 24t-206 107q-33 17 -43 17q-29 0 -29 -60q-2 -40 -22 -64t-55 -24q-28 0 -47 20.5t-19 49.5q0 73 135 229q88 99 167.5 161.5t195.5 125.5q40 21 84 43.5t63.5 32.5t22.5 12q4 2 18.5 11.5t33.5 21.5t36 24
q-85 -28 -168 -28q-54 0 -184 20q-91 15 -115 15q-49 0 -72.5 -21.5t-58.5 -99.5l-86 30q127 365 405 365q62 0 122.5 -19.5t152.5 -68.5q67 -37 90 -37q15 0 24.5 14.5t18.5 51.5q9 31 22.5 45t34.5 14q25 0 43.5 -20t18.5 -48q0 -55 -62 -146t-170 -194
q-71 -67 -132.5 -106t-244.5 -133q-63 -32 -131 -76q123 21 185 21q82 0 194 -31q96 -29 113 -29q76 0 135 127zM1059 1470l-322 -360h-209l-172 360h121l185 -180l258 180h139z" />
    <glyph glyph-name="longs" unicode="&#x17f;" horiz-adv-x="796" 
d="M1126 1284q0 -70 -45 -116t-114 -46q-60 0 -100 38.5t-40 96.5q0 31 10 54.5t40 62.5l10 19q0 9 -13 14.5t-32 5.5q-50 0 -84 -33.5t-64.5 -112.5t-68.5 -233q-31 -124 -84 -365.5t-62 -281.5q-94 -444 -207 -754l-370 -53q87 138 239 692l131 553h-202l34 125h201
q41 149 84 239.5t105 158.5q148 161 352 161q123 0 201.5 -63.5t78.5 -161.5z" />
    <glyph glyph-name="Ereversed" unicode="&#x18e;" horiz-adv-x="1517" 
d="M1628 1479l-41 -111h-39q-100 0 -136.5 -10.5t-55.5 -44.5q-14 -26 -43 -129l-260 -975q-17 -64 2.5 -81t111.5 -17h29l-43 -111h-1317l135 508l119 22q-6 -199 95 -309t276 -110h74q59 0 91.5 12t47.5 39q11 17 22 65l129 484h-65q-94 0 -158.5 -48t-118.5 -151
q-29 -53 -59 -127l-115 -14l183 686l116 14q-22 -140 16 -195t169 -55h63l121 449q17 60 2 79t-78 19h-78q-183 0 -297 -84t-237 -307h-107l187 502h1259z" />
    <glyph glyph-name="florin" unicode="&#x192;" horiz-adv-x="1175" 
d="M1204 1329q0 -69 -41 -112t-106 -43q-57 0 -92 32t-35 84q0 26 7.5 41.5t33.5 46.5q8 12 8 25q0 5 -7 8.5t-16 3.5q-22 0 -44 -14t-35 -37q-23 -38 -36 -88.5t-32 -175.5l-29 -187h281l-17 -116h-284l-33 -187l-84 -440q-59 -282 -186.5 -435t-304.5 -153
q-92 0 -149.5 48.5t-57.5 125.5q0 69 45 115.5t112 46.5q51 0 84 -29t33 -73q0 -26 -11 -55.5t-26 -47.5l-16 -20q0 -8 8.5 -13.5t20.5 -5.5q38 0 67.5 34t44.5 95q20 75 43 224l56 340l69 430h-242l19 116h248q33 145 64.5 231.5t80.5 158.5q64 96 157.5 151t190.5 55
q94 0 152.5 -50t58.5 -130z" />
    <glyph glyph-name="Ohorn" unicode="&#x1a0;" horiz-adv-x="1705" 
d="M1632 903q0 -187 -75 -359.5t-200.5 -298.5t-298 -201t-358.5 -75q-284 0 -455 168.5t-171 448.5q0 187 76.5 358.5t203.5 295t297.5 196.5t352.5 73q190 0 329 -84q32 20 53 54q-57 16 -85.5 56t-28.5 89q0 54 39 86.5t94 32.5q74 0 123 -50t49 -118q0 -64 -40 -124
t-107 -95q102 -102 152 -210.5t50 -242.5zM1092 401q75 147 119 325t44 339q0 156 -68.5 245t-189.5 89q-115 0 -209 -78t-174 -240q-75 -154 -124.5 -348t-49.5 -338q0 -146 70 -230.5t190 -84.5q222 0 392 321z" />
    <glyph glyph-name="ohorn" unicode="&#x1a1;" horiz-adv-x="1175" 
d="M1247 1087q0 -67 -65 -151t-144 -119q68 -96 68 -233q0 -171 -86 -311.5t-236 -221t-333 -80.5q-201 0 -316 113t-115 299q0 159 87.5 297t236.5 219.5t320 81.5q164 0 294 -86q19 11 54.5 45t44.5 51q-57 16 -86 56.5t-29 89.5q0 53 39 85.5t94 32.5q74 0 123 -50
t49 -118zM686 274q42 107 72 239t30 212q0 72 -36.5 116t-96.5 44q-83 0 -158 -108t-117 -261t-42 -295q0 -76 34.5 -119t96.5 -43q131 0 217 215z" />
    <glyph glyph-name="Uhorn" unicode="&#x1af;" horiz-adv-x="1705" 
d="M1911 1577q0 -101 -85.5 -175t-217.5 -91l-226 -846q-69 -259 -218 -377.5t-404 -118.5q-265 0 -422.5 119t-157.5 313q0 89 35 220l152 563q28 105 28 129q0 34 -31.5 44.5t-132.5 10.5h-36l14 111h770l-16 -111h-25q-127 0 -156 -29q-14 -12 -20.5 -31.5t-34.5 -123.5
l-166 -623q-31 -111 -31 -180q0 -135 81 -210t227 -75q152 0 256.5 95.5t165.5 328.5l137 516q31 118 38 152t7 67q0 58 -45.5 85.5t-139.5 27.5l15 111h381l-19 -68q60 24 86 70q-57 16 -85.5 56t-28.5 89q0 54 39 86.5t94 32.5q74 0 123 -50t49 -118z" />
    <glyph glyph-name="uhorn" unicode="&#x1b0;" horiz-adv-x="1413" 
d="M1548 1087q0 -103 -119 -199t-258 -110l-139 -467q-17 -57 -24 -82.5t-8 -33t-1 -21.5q0 -10 9.5 -19.5t19.5 -9.5q26 0 82.5 62t120.5 162l78 -58q-120 -185 -219 -262.5t-216 -77.5q-198 0 -198 174q0 34 2 54q-100 -120 -188.5 -174t-186.5 -54q-101 0 -163 62
t-62 162q-1 38 7 76t36 135l72 247q32 111 32 138q0 38 -25 50.5t-100 12.5h-20l14 125h518l-184 -623q-43 -108 -43 -161q0 -20 15.5 -36t35.5 -16q54 0 126.5 68t138 177.5t100.5 223.5l98 338h324l-23 -71q35 11 90 49.5t68 62.5q-57 16 -86 56.5t-29 89.5q0 53 39 85.5
t94 32.5q74 0 123 -50t49 -118z" />
    <glyph glyph-name="Acaron" unicode="&#x1cd;" horiz-adv-x="1517" 
d="M1452 0h-766l14 111h33q64 0 89 3t46 13q15 6 25 19.5t10 27.5q0 27 -8 66l-41 211h-475l-94 -166q-29 -50 -29 -88q0 -46 31 -66t114 -20h48l-17 -111h-586l15 111h33q125 0 251 211l713 1185h127l268 -1274q15 -72 53 -97t132 -25h28zM827 561l-94 494l-289 -494h383z
M1448 1909l-385 -322h-250l-205 322h144l221 -160l311 160h164z" />
    <glyph glyph-name="acaron" unicode="&#x1ce;" horiz-adv-x="1366" 
d="M1323 322q-95 -160 -209.5 -256.5t-220.5 -96.5q-83 0 -128.5 49t-45.5 132q-74 -96 -151.5 -137.5t-182.5 -41.5q-155 0 -254.5 104t-99.5 267q0 122 49 239.5t129.5 205t188 141t218.5 53.5q182 0 256 -129l29 98h322l-201 -680q-21 -84 -21 -94q0 -12 9 -22.5
t20 -10.5q26 0 91 70t122 160zM809 719q0 66 -35 107.5t-92 41.5q-80 0 -155.5 -100t-118.5 -237t-43 -255q0 -74 33.5 -117.5t90.5 -43.5q80 0 156.5 108.5t120 248t43.5 247.5zM1174 1470l-322 -360h-209l-172 360h121l184 -180l258 180h140z" />
    <glyph glyph-name="Icaron" unicode="&#x1cf;" horiz-adv-x="909" 
d="M680 0h-764l14 111h41q62 0 87.5 6t41.5 22q14 12 21.5 32.5t34.5 123.5l237 889q29 102 29 129q0 34 -31 44.5t-131 10.5h-45l16 111h764l-14 -111h-43q-61 0 -86 -6.5t-41 -22.5q-14 -11 -20.5 -30t-34.5 -125l-238 -889q-29 -113 -29 -129q0 -34 31 -44.5t131 -10.5
h45zM1188 1909l-385 -322h-250l-205 322h144l221 -160l311 160h164z" />
    <glyph glyph-name="icaron" unicode="&#x1d0;" horiz-adv-x="796" 
d="M723 305q-104 -175 -205.5 -255.5t-218.5 -80.5q-92 0 -152.5 52.5t-60.5 132.5q0 48 31 151l104 348q31 102 31 138q0 38 -25 50.5t-100 12.5h-49l14 96l547 29l-215 -729q-21 -73 -21 -86q0 -14 9.5 -23.5t23.5 -9.5q62 0 207 231zM930 1470l-322 -360h-209l-172 360
h121l184 -180l259 180h139z" />
    <glyph glyph-name="Ocaron" unicode="&#x1d1;" horiz-adv-x="1705" 
d="M1632 903q0 -187 -75 -359.5t-200.5 -298.5t-298 -201t-358.5 -75q-284 0 -455 168.5t-171 448.5q0 187 76.5 358.5t203.5 295t297.5 196.5t352.5 73q131 0 247.5 -47t200 -128t132 -193.5t48.5 -237.5zM1092 401q75 145 119 324t44 340q0 156 -68.5 245t-189.5 89
q-115 0 -209 -78t-174 -240q-75 -154 -124.5 -348t-49.5 -338q0 -146 70 -230.5t190 -84.5q222 0 392 321zM1585 1909l-385 -322h-250l-205 322h144l221 -160l311 160h164z" />
    <glyph glyph-name="ocaron" unicode="&#x1d2;" horiz-adv-x="1175" 
d="M1106 584q0 -171 -86 -311.5t-236 -221t-333 -80.5q-197 0 -308 105q-57 52 -90 135t-33 172q0 159 87.5 297t236.5 219.5t320 81.5q94 0 180.5 -29.5t146.5 -81.5q115 -98 115 -286zM686 274q42 107 72 239t30 212q0 72 -36.5 116t-96.5 44q-131 0 -225 -226
q-40 -97 -66 -221.5t-26 -216.5q0 -76 34.5 -119t96.5 -43q134 0 217 215zM1153 1470l-322 -360h-208l-172 360h120l185 -180l258 180h139z" />
    <glyph glyph-name="Ucaron" unicode="&#x1d3;" horiz-adv-x="1705" 
d="M1819 1368q-43 0 -87.5 -15t-72.5 -40q-43 -38 -61 -78.5t-64 -198.5l-152 -571q-69 -259 -218 -377.5t-404 -118.5q-265 0 -422.5 119t-157.5 313q0 89 35 220l152 563q28 105 28 129q0 35 -27 45t-126 10h-47l14 111h770l-16 -111h-45q-107 0 -136 -29
q-14 -12 -20.5 -31.5t-34.5 -123.5l-166 -623q-31 -111 -31 -180q0 -135 81 -210t227 -75q152 0 256.5 95.5t165.5 328.5l137 516q31 118 38 152t7 67q0 58 -45.5 85.5t-139.5 27.5l15 111h561zM1583 1909l-385 -322h-250l-205 322h144l221 -160l311 160h164z" />
    <glyph glyph-name="ucaron" unicode="&#x1d4;" horiz-adv-x="1402" 
d="M1309 311q-120 -185 -219 -262.5t-216 -77.5q-198 0 -198 174q0 34 2 54q-100 -120 -188.5 -174t-186.5 -54q-101 0 -163 62t-62 162q0 70 43 211l72 247q32 102 32 138q0 38 -25 50.5t-100 12.5h-20l14 96l518 29l-184 -623q-4 -11 -25 -84l-3.5 -14t-5 -18.5
t-5.5 -16.5q-4 -24 -4 -28q0 -20 15.5 -36t35.5 -16q40 0 105 53t121 130q87 120 139 286l98 338h324l-191 -639q-25 -88 -29 -104t-4 -33q0 -10 9.5 -19.5t19.5 -9.5q26 0 82.5 62t120.5 162zM1221 1470l-322 -360h-209l-172 360h121l184 -180l258 180h140z" />
    <glyph glyph-name="Udieresisacute" unicode="&#x1d7;" horiz-adv-x="1705" 
d="M1819 1368q-43 0 -87.5 -15t-72.5 -40q-43 -38 -61 -78.5t-64 -198.5l-152 -571q-69 -259 -218 -377.5t-404 -118.5q-265 0 -422.5 119t-157.5 313q0 89 35 220l152 563q28 105 28 129q0 35 -27 45t-126 10h-47l14 111h770l-16 -111h-45q-107 0 -136 -29
q-14 -12 -20.5 -31.5t-34.5 -123.5l-166 -623q-31 -111 -31 -180q0 -135 81 -210t227 -75q152 0 256.5 95.5t165.5 328.5l137 516q31 118 38 152t7 67q0 58 -45.5 85.5t-139.5 27.5l15 111h561zM1073 1749q0 -61 -42.5 -104t-104.5 -43q-60 0 -103 43.5t-43 103.5
t43.5 102.5t104.5 42.5q60 0 102.5 -42.5t42.5 -102.5zM1462 1749q0 -61 -43 -104t-104 -43q-60 0 -103 43.5t-43 103.5t43.5 102.5t104.5 42.5q60 0 102.5 -42.5t42.5 -102.5zM1542 2236q0 -51 -69 -79l-408 -164h-133l305 258q60 51 94 66.5t78 15.5q55 0 94 -28.5
t39 -68.5z" />
    <glyph glyph-name="udieresisacute" unicode="&#x1d8;" horiz-adv-x="1402" 
d="M1309 311q-120 -185 -219 -262.5t-216 -77.5q-198 0 -198 174q0 34 2 54q-100 -120 -188.5 -174t-186.5 -54q-101 0 -163 62t-62 162q0 70 43 211l72 247q32 102 32 138q0 38 -25 50.5t-100 12.5h-20l14 96l518 29l-184 -623q-4 -11 -25 -84l-3.5 -14t-5 -18.5
t-5.5 -16.5q-4 -24 -4 -28q0 -20 15.5 -36t35.5 -16q40 0 105 53t121 130q87 120 139 286l98 338h324l-191 -639q-25 -88 -29 -104t-4 -33q0 -10 9.5 -19.5t19.5 -9.5q26 0 82.5 62t120.5 162zM795 1292q0 -61 -43 -104t-105 -43q-60 0 -102.5 43.5t-42.5 103.5t43 103
t104 43q60 0 103 -43t43 -103zM1184 1292q0 -61 -43 -104t-105 -43q-60 0 -102.5 43.5t-42.5 103.5t43 103t104 43q60 0 103 -43t43 -103zM1255 1745q0 -52 -69 -80l-408 -164h-133l305 258q60 51 94 66.5t78 15.5q55 0 94 -28t39 -68z" />
    <glyph glyph-name="Udieresiscaron" unicode="&#x1d9;" horiz-adv-x="1705" 
d="M1819 1368q-43 0 -87.5 -15t-72.5 -40q-43 -38 -61 -78.5t-64 -198.5l-152 -571q-69 -259 -218 -377.5t-404 -118.5q-265 0 -422.5 119t-157.5 313q0 89 35 220l152 563q28 105 28 129q0 35 -27 45t-126 10h-47l14 111h770l-16 -111h-45q-107 0 -136 -29
q-14 -12 -20.5 -31.5t-34.5 -123.5l-166 -623q-31 -111 -31 -180q0 -135 81 -210t227 -75q152 0 256.5 95.5t165.5 328.5l137 516q31 118 38 152t7 67q0 58 -45.5 85.5t-139.5 27.5l15 111h561zM1073 1749q0 -61 -42.5 -104t-104.5 -43q-60 0 -103 43.5t-43 103.5
t43.5 102.5t104.5 42.5q60 0 102.5 -42.5t42.5 -102.5zM1462 1749q0 -61 -43 -104t-104 -43q-60 0 -103 43.5t-43 103.5t43.5 102.5t104.5 42.5q60 0 102.5 -42.5t42.5 -102.5zM1694 2324l-385 -321h-250l-205 321h143l222 -159l311 159h164z" />
    <glyph glyph-name="udieresiscaron" unicode="&#x1da;" horiz-adv-x="1402" 
d="M1309 311q-120 -185 -219 -262.5t-216 -77.5q-198 0 -198 174q0 34 2 54q-100 -120 -188.5 -174t-186.5 -54q-101 0 -163 62t-62 162q0 70 43 211l72 247q32 102 32 138q0 38 -25 50.5t-100 12.5h-20l14 96l518 29l-184 -623q-4 -11 -25 -84l-3.5 -14t-5 -18.5
t-5.5 -16.5q-4 -24 -4 -28q0 -20 15.5 -36t35.5 -16q40 0 105 53t121 130q87 120 139 286l98 338h324l-191 -639q-25 -88 -29 -104t-4 -33q0 -10 9.5 -19.5t19.5 -9.5q26 0 82.5 62t120.5 162zM795 1292q0 -61 -43 -104t-105 -43q-60 0 -102.5 43.5t-42.5 103.5t43 103
t104 43q60 0 103 -43t43 -103zM1184 1292q0 -61 -43 -104t-105 -43q-60 0 -102.5 43.5t-42.5 103.5t43 103t104 43q60 0 103 -43t43 -103zM1407 1833l-385 -322h-250l-205 322h144l221 -160l311 160h164z" />
    <glyph glyph-name="Udieresisgrave" unicode="&#x1db;" horiz-adv-x="1705" 
d="M1819 1368q-43 0 -87.5 -15t-72.5 -40q-43 -38 -61 -78.5t-64 -198.5l-152 -571q-69 -259 -218 -377.5t-404 -118.5q-265 0 -422.5 119t-157.5 313q0 89 35 220l152 563q28 105 28 129q0 35 -27 45t-126 10h-47l14 111h770l-16 -111h-45q-107 0 -136 -29
q-14 -12 -20.5 -31.5t-34.5 -123.5l-166 -623q-31 -111 -31 -180q0 -135 81 -210t227 -75q152 0 256.5 95.5t165.5 328.5l137 516q31 118 38 152t7 67q0 58 -45.5 85.5t-139.5 27.5l15 111h561zM1073 1749q0 -61 -42.5 -104t-104.5 -43q-60 0 -103 43.5t-43 103.5
t43.5 102.5t104.5 42.5q60 0 102.5 -42.5t42.5 -102.5zM1462 1749q0 -61 -43 -104t-104 -43q-60 0 -103 43.5t-43 103.5t43.5 102.5t104.5 42.5q60 0 102.5 -42.5t42.5 -102.5zM1438 1993h-133l-320 164q-53 28 -27 79q22 40 76 68.5t109 28.5q45 0 70.5 -15.5t58.5 -66.5z
" />
    <glyph glyph-name="udieresisgrave" unicode="&#x1dc;" horiz-adv-x="1402" 
d="M1309 311q-120 -185 -219 -262.5t-216 -77.5q-198 0 -198 174q0 34 2 54q-100 -120 -188.5 -174t-186.5 -54q-101 0 -163 62t-62 162q0 70 43 211l72 247q32 102 32 138q0 38 -25 50.5t-100 12.5h-20l14 96l518 29l-184 -623q-4 -11 -25 -84l-3.5 -14t-5 -18.5
t-5.5 -16.5q-4 -24 -4 -28q0 -20 15.5 -36t35.5 -16q40 0 105 53t121 130q87 120 139 286l98 338h324l-191 -639q-25 -88 -29 -104t-4 -33q0 -10 9.5 -19.5t19.5 -9.5q26 0 82.5 62t120.5 162zM795 1292q0 -61 -43 -104t-105 -43q-60 0 -102.5 43.5t-42.5 103.5t43 103
t104 43q60 0 103 -43t43 -103zM1184 1292q0 -61 -43 -104t-105 -43q-60 0 -102.5 43.5t-42.5 103.5t43 103t104 43q60 0 103 -43t43 -103zM1151 1501h-133l-320 164q-53 27 -26 80q22 40 75.5 68t108.5 28q45 0 70.5 -15.5t58.5 -66.5z" />
    <glyph glyph-name="eturned" unicode="&#x1dd;" horiz-adv-x="1062" 
d="M973 602q0 -165 -89.5 -311t-239 -233t-318.5 -87q-144 0 -240 71t-96 177q0 211 348 313q138 42 305 50q4 53 4 90q0 88 -47 138t-129 50q-80 0 -149.5 -37t-161.5 -129l-72 72q191 215 467 215q203 0 310.5 -97.5t107.5 -281.5zM625 485q-88 -13 -144 -32
q-104 -40 -172.5 -122t-68.5 -167q0 -44 24.5 -70t65.5 -26q96 0 178 115t117 302z" />
    <glyph glyph-name="Gcaron" unicode="&#x1e6;" horiz-adv-x="1669" 
d="M1628 578h-41q-27 0 -46 -0.5t-35.5 -4.5t-26 -6.5t-19.5 -13t-14.5 -16.5t-12 -24.5t-10.5 -30t-11.5 -41t-14.5 -48.5l-113 -422h-98l-39 195q-164 -197 -436 -197q-102 0 -197 25.5t-175.5 77t-140.5 123.5t-94 171.5t-34 215.5q0 185 74.5 356t199 296t295 200
t354.5 75q128 0 212 -36t167 -127l123 118h92l-117 -579l-104 14q-5 233 -91.5 366.5t-254.5 133.5q-243 0 -410 -312q-69 -128 -112 -301.5t-43 -316.5q0 -182 73.5 -287.5t214.5 -105.5q97 0 174.5 63t114.5 172q16 47 32.5 118.5t16.5 92.5q0 35 -29 45.5t-128 10.5h-58
l15 110h761zM1585 1909l-385 -322h-250l-205 322h144l221 -160l311 160h164z" />
    <glyph glyph-name="gcaron" unicode="&#x1e7;" horiz-adv-x="1251" 
d="M1233 954q0 -52 -30.5 -85t-78.5 -33q-37 0 -61 21t-41 67q-14 34 -35 34q-31 0 -69 -49q78 -46 119.5 -114.5t41.5 -151.5q0 -140 -121.5 -230.5t-308.5 -90.5q-95 0 -239 20q-47 6 -70 6q-41 0 -68.5 -18.5t-27.5 -44.5q0 -32 24 -48.5t76 -21.5q278 -27 365 -45
q112 -26 162.5 -84t50.5 -158q0 -166 -146.5 -254t-423.5 -88q-231 0 -359 60t-128 168q0 77 63 125t195 73q-69 37 -96 73.5t-27 90.5q0 82 63 145t183 101q-56 46 -80.5 93t-24.5 108q0 158 129.5 258t335.5 100q113 0 211 -33q75 75 138.5 109.5t129.5 34.5t107 -38
t41 -100zM723 518q53 106 53 221q0 63 -36 104.5t-91 41.5q-84 0 -135 -88q-59 -105 -59 -230q0 -69 35.5 -108t97.5 -39q89 0 135 98zM674 -174q0 37 -21.5 58.5t-68.5 33.5q-37 9 -133.5 18t-161.5 9q-172 0 -172 -119q0 -143 245 -143q153 0 232.5 36.5t79.5 106.5z
M1067 1470l-322 -360h-208l-172 360h120l185 -180l258 180h139z" />
    <glyph glyph-name="Oogonek" unicode="&#x1ea;" horiz-adv-x="1705" 
d="M1632 903q0 -217 -97.5 -410.5t-266 -325t-375.5 -177.5q-60 -13 -100.5 -67.5t-40.5 -115.5q0 -41 24 -67.5t58 -26.5q85 0 143 47l57 -73q-45 -67 -117.5 -106.5t-148.5 -39.5q-87 0 -148 57.5t-61 151.5q0 119 121 219q-275 6 -440.5 174t-165.5 443q0 187 76.5 358.5
t203.5 295t297.5 196.5t352.5 73q131 0 247.5 -47t200 -128t132 -193.5t48.5 -237.5zM1092 401q75 145 119 324t44 340q0 156 -68.5 245t-189.5 89q-115 0 -209 -78t-174 -240q-75 -154 -124.5 -348t-49.5 -338q0 -146 70 -230.5t190 -84.5q222 0 392 321z" />
    <glyph glyph-name="oogonek" unicode="&#x1eb;" horiz-adv-x="1175" 
d="M1106 584q0 -213 -132 -375t-343 -215q-61 -15 -103.5 -70.5t-42.5 -116.5q0 -41 24 -67.5t58 -26.5q86 0 144 47l57 -73q-45 -67 -117.5 -106.5t-148.5 -39.5q-87 0 -148 57.5t-61 151.5q0 121 125 221q-171 9 -275 105q-57 52 -90 135t-33 172q0 159 87.5 297
t236.5 219.5t320 81.5q94 0 180.5 -29.5t146.5 -81.5q115 -98 115 -286zM686 274q42 107 72 239t30 212q0 72 -36.5 116t-96.5 44q-131 0 -225 -226q-40 -97 -66 -221.5t-26 -216.5q0 -76 34.5 -119t96.5 -43q134 0 217 215z" />
    <glyph glyph-name="jcaron" unicode="&#x1f0;" horiz-adv-x="757" 
d="M735 979l-243 -825q-48 -160 -83 -236t-94 -147q-147 -185 -364 -185q-129 0 -214 65t-85 165q0 75 44.5 122.5t115.5 47.5q70 0 110.5 -41.5t40.5 -112.5q0 -40 -11 -59t-46 -41q-12 -6 -12 -21q0 -11 9.5 -17.5t24.5 -6.5q60 0 100.5 65t94.5 248l194 653
q31 105 31 138q0 38 -25 50.5t-100 12.5h-65l14 96zM1022 1470l-322 -360h-208l-173 360h121l185 -180l258 180h139z" />
    <glyph glyph-name="Gacute" unicode="&#x1f4;" horiz-adv-x="1669" 
d="M1628 578h-41q-27 0 -46 -0.5t-35.5 -4.5t-26 -6.5t-19.5 -13t-14.5 -16.5t-12 -24.5t-10.5 -30t-11.5 -41t-14.5 -48.5l-113 -422h-98l-39 195q-164 -197 -436 -197q-102 0 -197 25.5t-175.5 77t-140.5 123.5t-94 171.5t-34 215.5q0 185 74.5 356t199 296t295 200
t354.5 75q128 0 212 -36t167 -127l123 118h92l-117 -579l-104 14q-5 233 -91.5 366.5t-254.5 133.5q-243 0 -410 -312q-69 -128 -112 -301.5t-43 -316.5q0 -182 73.5 -287.5t214.5 -105.5q97 0 174.5 63t114.5 172q16 47 32.5 118.5t16.5 92.5q0 35 -29 45.5t-128 10.5h-58
l15 110h761zM1434 1821q0 -52 -70 -80l-408 -164h-133l305 258q60 51 94 66.5t78 15.5q55 0 94.5 -28t39.5 -68z" />
    <glyph glyph-name="gacute" unicode="&#x1f5;" horiz-adv-x="1251" 
d="M1233 954q0 -52 -30.5 -85t-78.5 -33q-37 0 -61 21t-41 67q-14 34 -35 34q-31 0 -69 -49q78 -46 119.5 -114.5t41.5 -151.5q0 -140 -121.5 -230.5t-308.5 -90.5q-95 0 -239 20q-47 6 -70 6q-41 0 -68.5 -18.5t-27.5 -44.5q0 -32 24 -48.5t76 -21.5q278 -27 365 -45
q112 -26 162.5 -84t50.5 -158q0 -166 -146.5 -254t-423.5 -88q-231 0 -359 60t-128 168q0 77 63 125t195 73q-69 37 -96 73.5t-27 90.5q0 82 63 145t183 101q-56 46 -80.5 93t-24.5 108q0 158 129.5 258t335.5 100q113 0 211 -33q75 75 138.5 109.5t129.5 34.5t107 -38
t41 -100zM723 518q53 106 53 221q0 63 -36 104.5t-91 41.5q-84 0 -135 -88q-59 -105 -59 -230q0 -69 35.5 -108t97.5 -39q89 0 135 98zM674 -174q0 37 -21.5 58.5t-68.5 33.5q-37 9 -133.5 18t-161.5 9q-172 0 -172 -119q0 -143 245 -143q153 0 232.5 36.5t79.5 106.5z
M948 1372q0 -59 -57 -90l-340 -180h-111l254 284q53 57 80.5 75t63.5 18q46 0 78 -31.5t32 -75.5z" />
    <glyph glyph-name="Aringacute" unicode="&#x1fa;" horiz-adv-x="1517" 
d="M1452 0h-766l14 111h33q64 0 89 3t46 13q15 6 25 19.5t10 27.5q0 27 -8 66l-41 211h-475l-94 -166q-29 -50 -29 -88q0 -46 31 -66t114 -20h48l-17 -111h-586l15 111h33q125 0 251 211l713 1185h127l268 -1274q15 -72 53 -97t132 -25h28zM827 561l-94 494l-289 -494h383z
M1419 2284q0 -52 -69 -80l-408 -164h-133l305 258q60 51 94 66.5t78 15.5q55 0 94 -28t39 -68zM1212 1780q0 -92 -64.5 -156.5t-158.5 -64.5q-88 0 -152.5 65.5t-64.5 155.5q0 89 65 154t156 65t155 -64t64 -155zM1102 1780q0 44 -32.5 76t-76.5 32q-46 0 -78 -32t-32 -78
q0 -43 32 -76t76 -33q46 0 78.5 32.5t32.5 78.5z" />
    <glyph glyph-name="aringacute" unicode="&#x1fb;" horiz-adv-x="1366" 
d="M1323 322q-95 -160 -209.5 -256.5t-220.5 -96.5q-83 0 -128.5 49t-45.5 132q-74 -96 -151.5 -137.5t-182.5 -41.5q-155 0 -254.5 104t-99.5 267q0 122 49 239.5t129.5 205t188 141t218.5 53.5q182 0 256 -129l29 98h322l-201 -680q-21 -84 -21 -94q0 -12 9 -22.5
t20 -10.5q26 0 91 70t122 160zM809 719q0 66 -35 107.5t-92 41.5q-80 0 -155.5 -100t-118.5 -237t-43 -255q0 -74 33.5 -117.5t90.5 -43.5q80 0 156.5 108.5t120 248t43.5 247.5zM1219 1786q0 -52 -70 -80l-408 -164h-133l305 258q60 51 94 66.5t78 15.5q55 0 94.5 -28
t39.5 -68zM1012 1282q0 -92 -65 -156.5t-159 -64.5q-88 0 -152.5 65.5t-64.5 155.5q0 89 65.5 154t156.5 65t155 -64t64 -155zM901 1282q0 44 -32 76.5t-76 32.5q-46 0 -78.5 -32.5t-32.5 -78.5q0 -43 32.5 -76t76.5 -33q46 0 78 32.5t32 78.5z" />
    <glyph glyph-name="AEacute" unicode="&#x1fc;" horiz-adv-x="1820" 
d="M1606 0h-1217l17 111h49q60 0 78.5 5.5t35.5 22.5q9 10 13 17t14.5 39.5t28.5 99.5l69 260h-350l-186 -297q-25 -42 -25 -70q0 -40 38.5 -57.5t125.5 -19.5l-14 -111h-449l14 111q42 9 67 33.5t79 105.5l602 921q41 61 41 107q0 41 -40 65.5t-108 24.5h-63l14 111h1409
l-82 -502h-100q0 108 -8 163.5t-29 96.5q-66 131 -246 131h-22q-53 0 -77.5 -20t-39.5 -78l-119 -449h80q93 0 147.5 58t104.5 192l96 -14l-184 -686l-96 14q12 71 12 127q0 199 -125 199h-65l-129 -484q-11 -46 -11 -65q0 -51 97 -51h24q163 0 318.5 115.5t244.5 303.5
l101 -22zM905 1346l2 8q0 4 -6 8t-12 4q-15 0 -27 -18l-442 -682h303zM1505 1821q0 -52 -69 -80l-408 -164h-133l305 258q60 51 94 66.5t78 15.5q55 0 94 -28t39 -68z" />
    <glyph glyph-name="aeacute" unicode="&#x1fd;" horiz-adv-x="1669" 
d="M1487 186q-99 -111 -214 -164t-259 -53q-293 0 -361 232q-133 -232 -411 -232q-132 0 -206.5 57t-74.5 158q0 97 65.5 163t219 113.5t418.5 80.5q34 128 34 196q0 67 -53.5 107.5t-142.5 40.5q-46 0 -75.5 -10t-29.5 -25q0 -8 30 -57t30 -68q0 -56 -45.5 -93.5
t-112.5 -37.5q-68 0 -114 45t-46 111q0 103 99 167t256 64q133 0 218 -33t150 -108q77 65 183.5 103t211.5 38q138 0 233 -72t95 -176q0 -143 -170.5 -244t-480.5 -118q-6 -47 -6 -92q0 -88 47 -138.5t129 -50.5q80 0 151 38t160 130zM637 438q-170 -15 -261 -70.5
t-91 -144.5q0 -47 29.5 -77.5t74.5 -30.5q48 0 95 30t83 86q18 28 32 70t38 137zM1335 788q0 44 -24 70.5t-64 26.5q-97 0 -178.5 -115t-118.5 -303q104 15 191 59t140.5 113t53.5 149zM1440 1372q0 -59 -58 -90l-340 -180h-110l254 284q53 58 80 75.5t63 17.5
q46 0 78.5 -31.5t32.5 -75.5z" />
    <glyph glyph-name="Oslashacute" unicode="&#x1fe;" horiz-adv-x="1705" 
d="M1632 903q0 -186 -75 -358.5t-200 -298.5t-296 -201.5t-356 -75.5q-212 0 -353 86l-184 -225h-133l233 287q-95 83 -144.5 203.5t-49.5 265.5q0 185 74 355.5t197.5 295t293.5 198.5t354 74q196 0 342 -82l125 156h133l-176 -217q215 -188 215 -463zM1210 1276
q-34 58 -89.5 89.5t-123.5 31.5q-224 0 -383 -316q-74 -154 -124 -347t-50 -331q0 -19 4 -69zM1092 403q73 141 118 320t45 330q0 39 -6 106l-770 -946q69 -131 219 -131q224 0 394 321zM1632 1821q0 -52 -69 -80l-408 -164h-133l305 258q60 51 94 66.5t78 15.5q55 0 94 -28
t39 -68z" />
    <glyph glyph-name="oslashacute" unicode="&#x1ff;" horiz-adv-x="1175" 
d="M1106 584q0 -128 -50.5 -241.5t-137 -195t-208 -129t-257.5 -47.5q-49 0 -111 9l-137 -238h-111l152 266q-108 47 -167 145t-59 230q0 117 52 226.5t137.5 190.5t202.5 130t241 49q62 0 142 -14l125 219h110l-143 -248q107 -47 163 -136.5t56 -215.5zM733 858
q-39 25 -80 25q-63 0 -120 -57.5t-103 -166.5q-40 -96 -66 -221.5t-26 -216.5q0 -5 4 -45zM686 272q42 107 72 239t30 212q0 17 -2 35l-389 -680q32 -19 70 -19q137 0 219 213zM1192 1372q0 -59 -57 -90l-340 -180h-111l254 284q53 58 80 75.5t63 17.5q46 0 78.5 -31.5
t32.5 -75.5z" />
    <glyph glyph-name="Adblgrave" unicode="&#x200;" horiz-adv-x="1517" 
d="M1452 0h-766l14 111h33q64 0 89 3t46 13q15 6 25 19.5t10 27.5q0 27 -8 66l-41 211h-475l-94 -166q-29 -50 -29 -88q0 -46 31 -66t114 -20h48l-17 -111h-586l15 111h33q125 0 251 211l713 1185h127l268 -1274q15 -72 53 -97t132 -25h28zM827 561l-94 494l-289 -494h383z
M1235 1618h-111l-262 145q-20 10 -22 36.5t12 53.5q25 44 73.5 75.5t94.5 31.5q37 0 53 -15t43 -77zM844 1618h-111l-262 145q-20 10 -22 36.5t12 53.5q25 44 73.5 75.5t94.5 31.5q37 0 53 -15t43 -77z" />
    <glyph glyph-name="adblgrave" unicode="&#x201;" horiz-adv-x="1366" 
d="M1323 322q-95 -160 -209.5 -256.5t-220.5 -96.5q-83 0 -128.5 49t-45.5 132q-74 -96 -151.5 -137.5t-182.5 -41.5q-155 0 -254.5 104t-99.5 267q0 122 49 239.5t129.5 205t188 141t218.5 53.5q182 0 256 -129l29 98h322l-201 -680q-21 -84 -21 -94q0 -12 9 -22.5
t20 -10.5q26 0 91 70t122 160zM809 719q0 66 -35 107.5t-92 41.5q-80 0 -155.5 -100t-118.5 -237t-43 -255q0 -74 33.5 -117.5t90.5 -43.5q80 0 156.5 108.5t120 248t43.5 247.5zM1034 1120h-110l-262 146q-20 10 -22.5 36.5t11.5 53.5q25 44 73.5 75t94.5 31q37 0 53 -15
t43 -77zM643 1120h-111l-262 146q-20 10 -22 36.5t12 53.5q25 44 73.5 75t94.5 31q37 0 53 -15t43 -77z" />
    <glyph glyph-name="Edblgrave" unicode="&#x204;" horiz-adv-x="1517" 
d="M1233 0h-1317l14 111h29q93 0 122 17t46 81l262 975q27 108 27 129q0 34 -31 44.5t-131 10.5h-39l16 111h1260l-82 -502h-106q-3 223 -72 307t-252 84h-78q-63 0 -88.5 -19t-40.5 -79l-121 -449h64q130 0 197.5 55t121.5 195l109 -14l-185 -686l-108 14q10 76 10 127
q0 103 -39 151t-133 48h-65l-129 -484q-15 -51 -13 -65q0 -28 26 -39.5t85 -11.5h74q175 0 336 110t260 309l106 -22zM1184 1618h-111l-262 145q-20 10 -22 36.5t12 53.5q25 44 73.5 75.5t94.5 31.5q37 0 53 -15t43 -77zM793 1618h-111l-262 145q-20 10 -22 36.5t12 53.5
q25 44 73.5 75.5t94.5 31.5q37 0 53 -15t43 -77z" />
    <glyph glyph-name="edblgrave" unicode="&#x205;" horiz-adv-x="1062" 
d="M881 186q-191 -215 -467 -215q-203 0 -310.5 97.5t-107.5 281.5q0 165 89.5 311t239 233t318.5 87q144 0 240 -71t96 -177q0 -211 -348 -313q-134 -41 -305 -49q-4 -53 -4 -90q0 -88 47 -138.5t129 -50.5q80 0 149.5 37t161.5 129zM729 788q0 44 -24.5 70.5t-65.5 26.5
q-96 0 -178 -115.5t-117 -302.5q81 12 143 33q104 40 173 121.5t69 166.5zM985 1120h-111l-262 146q-20 10 -22 36.5t12 53.5q25 44 73.5 75t94.5 31q37 0 53 -15t43 -77zM594 1120h-111l-262 146q-20 10 -22 36.5t12 53.5q25 44 73.5 75t94.5 31q37 0 53 -15t43 -77z" />
    <glyph glyph-name="Idblgrave" unicode="&#x208;" horiz-adv-x="909" 
d="M680 0h-764l14 111h41q62 0 87.5 6t41.5 22q14 12 21.5 32.5t34.5 123.5l237 889q29 102 29 129q0 34 -31 44.5t-131 10.5h-45l16 111h764l-14 -111h-43q-61 0 -86 -6.5t-41 -22.5q-14 -11 -20.5 -30t-34.5 -125l-238 -889q-29 -113 -29 -129q0 -34 31 -44.5t131 -10.5
h45zM975 1618h-111l-262 145q-20 10 -22 36.5t12 53.5q25 44 73.5 75.5t94.5 31.5q37 0 53 -15t43 -77zM584 1618h-111l-262 145q-20 10 -22 36.5t12 53.5q25 44 73.5 75.5t94.5 31.5q37 0 53 -15t43 -77z" />
    <glyph glyph-name="idblgrave" unicode="&#x209;" horiz-adv-x="796" 
d="M723 305q-104 -175 -205.5 -255.5t-218.5 -80.5q-92 0 -152.5 52.5t-60.5 132.5q0 48 31 151l104 348q31 102 31 138q0 38 -25 50.5t-100 12.5h-49l14 96l547 29l-215 -729q-21 -73 -21 -86q0 -14 9.5 -23.5t23.5 -9.5q62 0 207 231zM791 1120h-111l-262 146
q-20 10 -22 36.5t12 53.5q25 44 73 75t94 31q37 0 53.5 -15t43.5 -77zM399 1120h-110l-262 146q-20 10 -22.5 36.5t11.5 53.5q25 44 73.5 75t94.5 31q37 0 53.5 -15t43.5 -77z" />
    <glyph glyph-name="Odblgrave" unicode="&#x20c;" horiz-adv-x="1705" 
d="M1632 903q0 -187 -75 -359.5t-200.5 -298.5t-298 -201t-358.5 -75q-284 0 -455 168.5t-171 448.5q0 187 76.5 358.5t203.5 295t297.5 196.5t352.5 73q131 0 247.5 -47t200 -128t132 -193.5t48.5 -237.5zM1092 401q75 145 119 324t44 340q0 156 -68.5 245t-189.5 89
q-115 0 -209 -78t-174 -240q-75 -154 -124.5 -348t-49.5 -338q0 -146 70 -230.5t190 -84.5q222 0 392 321zM1372 1618h-110l-263 145q-20 10 -22 36.5t12 53.5q25 44 73.5 75.5t94.5 31.5q37 0 53 -15t43 -77zM981 1618h-111l-262 145q-20 10 -22 36.5t12 53.5
q25 44 73.5 75.5t94.5 31.5q37 0 53 -15t43 -77z" />
    <glyph glyph-name="odblgrave" unicode="&#x20d;" horiz-adv-x="1175" 
d="M1106 584q0 -171 -86 -311.5t-236 -221t-333 -80.5q-197 0 -308 105q-57 52 -90 135t-33 172q0 159 87.5 297t236.5 219.5t320 81.5q94 0 180.5 -29.5t146.5 -81.5q115 -98 115 -286zM686 274q42 107 72 239t30 212q0 72 -36.5 116t-96.5 44q-131 0 -225 -226
q-40 -97 -66 -221.5t-26 -216.5q0 -76 34.5 -119t96.5 -43q134 0 217 215zM1014 1120h-111l-262 146q-20 10 -22 36.5t12 53.5q25 44 73.5 75t94.5 31q37 0 53 -15t43 -77zM623 1120h-111l-262 146q-20 10 -22 36.5t12 53.5q25 44 73.5 75t94.5 31q37 0 53 -15t43 -77z" />
    <glyph glyph-name="Rdblgrave" unicode="&#x210;" horiz-adv-x="1630" 
d="M1520 279q-52 -158 -140 -234t-219 -76q-129 0 -211 81.5t-82 209.5q0 34 12.5 142t12.5 149q0 166 -188 166h-82l-113 -422q-27 -99 -27 -129q0 -34 31 -44.5t131 -10.5h53l-16 -111h-766l14 111h41q61 0 84 6t39 22q14 12 21.5 32.5t34.5 123.5l237 889q29 103 29 129
q0 34 -29.5 44.5t-128.5 10.5h-43l14 111h711q311 0 454.5 -77.5t143.5 -264.5q0 -175 -149 -277t-439 -125q151 -42 218 -126t67 -238v-70q0 -101 2 -121t12 -33q16 -22 37 -22q41 0 75.5 49.5t70.5 147.5zM1161 1167q0 97 -57 149t-164 52h-51q-55 0 -77 -15.5t-34 -62.5
l-125 -463h70q138 0 195 12t110 52q62 46 97.5 119.5t35.5 156.5zM1262 1618h-111l-262 145q-20 10 -22 36.5t12 53.5q25 44 73.5 75.5t94.5 31.5q37 0 53 -15t43 -77zM870 1618h-110l-262 145q-20 10 -22.5 36.5t11.5 53.5q25 44 73.5 75.5t94.5 31.5q37 0 53.5 -15
t43.5 -77z" />
    <glyph glyph-name="rdblgrave" unicode="&#x211;" horiz-adv-x="1062" 
d="M1073 801q0 -72 -43.5 -121t-109.5 -49q-50 0 -89 28t-49 72q-6 24 -6 64q0 26 -20 26q-29 0 -82 -53q-75 -72 -146 -204t-114 -279l-86 -285h-322l195 653q30 99 30 138q0 38 -25 50.5t-100 12.5h-49l15 96l512 29l-64 -260q95 142 178.5 202t184.5 60q86 0 138 -49
t52 -131zM922 1120h-111l-262 146q-20 10 -22 36.5t12 53.5q25 44 73.5 75t94.5 31q37 0 53 -15t43 -77zM530 1120h-110l-262 146q-20 10 -22.5 36.5t11.5 53.5q25 44 73.5 75t94.5 31q37 0 53.5 -15t43.5 -77z" />
    <glyph glyph-name="Udblgrave" unicode="&#x214;" horiz-adv-x="1705" 
d="M1819 1368q-43 0 -87.5 -15t-72.5 -40q-43 -38 -61 -78.5t-64 -198.5l-152 -571q-69 -259 -218 -377.5t-404 -118.5q-265 0 -422.5 119t-157.5 313q0 89 35 220l152 563q28 105 28 129q0 35 -27 45t-126 10h-47l14 111h770l-16 -111h-45q-107 0 -136 -29
q-14 -12 -20.5 -31.5t-34.5 -123.5l-166 -623q-31 -111 -31 -180q0 -135 81 -210t227 -75q152 0 256.5 95.5t165.5 328.5l137 516q31 118 38 152t7 67q0 58 -45.5 85.5t-139.5 27.5l15 111h561zM1370 1618h-110l-263 145q-20 10 -22 36.5t12 53.5q25 44 73.5 75.5t94.5 31.5
q37 0 53 -15t43 -77zM979 1618h-111l-262 145q-20 10 -22 36.5t12 53.5q25 44 73.5 75.5t94.5 31.5q37 0 53 -15t43 -77z" />
    <glyph glyph-name="udblgrave" unicode="&#x215;" horiz-adv-x="1402" 
d="M1309 311q-120 -185 -219 -262.5t-216 -77.5q-198 0 -198 174q0 34 2 54q-100 -120 -188.5 -174t-186.5 -54q-101 0 -163 62t-62 162q0 70 43 211l72 247q32 102 32 138q0 38 -25 50.5t-100 12.5h-20l14 96l518 29l-184 -623q-4 -11 -25 -84l-3.5 -14t-5 -18.5
t-5.5 -16.5q-4 -24 -4 -28q0 -20 15.5 -36t35.5 -16q40 0 105 53t121 130q87 120 139 286l98 338h324l-191 -639q-25 -88 -29 -104t-4 -33q0 -10 9.5 -19.5t19.5 -9.5q26 0 82.5 62t120.5 162zM1081 1120h-110l-262 146q-20 10 -22.5 36.5t11.5 53.5q25 44 73.5 75t94.5 31
q37 0 53.5 -15t43.5 -77zM690 1120h-110l-263 146q-20 10 -22 36.5t12 53.5q25 44 73.5 75t94.5 31q37 0 53 -15t43 -77z" />
    <glyph glyph-name="uni0218" unicode="&#x218;" horiz-adv-x="1402" 
d="M1253 459q0 -217 -166.5 -353.5t-431.5 -136.5q-138 0 -240 38t-204 126l-119 -133h-90l102 580l107 -17l-2 -61q2 -185 122.5 -303.5t317.5 -118.5q144 0 233 64t89 167q0 90 -72 146.5t-278 126.5q-127 42 -188 73.5t-109 77.5q-115 109 -115 279q0 212 156 353.5
t389 141.5q122 0 218.5 -36.5t190.5 -118.5l109 110h92l-90 -538l-107 18q-7 223 -110 339t-279 116q-132 0 -212.5 -60.5t-80.5 -160.5q0 -40 9 -69t33.5 -57.5t70.5 -53.5t117 -48q88 -29 149 -52t121.5 -51t100 -55t74 -61.5t53.5 -74t29.5 -88.5t10.5 -109zM666 -336
q0 -134 -99 -242.5t-288 -181.5l-39 76q252 113 252 252q-40 -4 -50 -4q-68 0 -105.5 38t-37.5 107q0 74 49 121t125 47q86 0 139.5 -59t53.5 -154z" />
    <glyph glyph-name="uni0219" unicode="&#x219;" horiz-adv-x="985" 
d="M817 305q0 -151 -123.5 -243.5t-324.5 -92.5q-163 0 -264 66t-101 172q0 66 39.5 106.5t103.5 40.5q62 0 104 -37t42 -94q0 -29 -10.5 -47.5t-42.5 -46.5q-11 -11 -11 -18q0 -23 36.5 -38.5t92.5 -15.5q84 0 139.5 40.5t55.5 101.5q0 41 -27.5 70t-91.5 55
q-124 52 -172 82q-76 46 -111.5 106t-35.5 143q0 151 111 238.5t302 87.5q161 0 264 -64.5t103 -164.5q0 -63 -39 -103.5t-102 -40.5q-61 0 -101.5 35.5t-40.5 89.5q0 25 6 39t31 45q13 16 13 25q0 17 -35 30t-80 13q-80 0 -131 -35t-51 -90q0 -41 35 -72.5t124 -69.5
q115 -51 154 -77q139 -90 139 -236zM481 -336q0 -134 -99 -242.5t-288 -181.5l-39 76q252 113 252 252q-40 -4 -49 -4q-68 0 -105.5 38t-37.5 107q0 74 49 121t125 47q86 0 139 -59t53 -154z" />
    <glyph glyph-name="uni021A" unicode="&#x21a;" horiz-adv-x="1478" 
d="M1470 899l-108 10q6 70 6 123q0 162 -62.5 249t-179.5 87q-45 0 -58 -13.5t-30 -78.5l-262 -981q-28 -101 -28 -129q0 -34 31 -44.5t132 -10.5h52l-15 -111h-813l15 111h55q127 0 155 28q14 12 21.5 32.5t34.5 123.5l266 993q8 27 8 49q0 31 -57 31q-131 0 -232.5 -108.5
t-207.5 -360.5l-103 33l146 547h1325zM676 -336q0 -134 -99 -242.5t-288 -181.5l-39 76q252 113 252 252q-40 -4 -49 -4q-68 0 -106 38t-38 107q0 74 49 121t125 47q86 0 139.5 -59t53.5 -154z" />
    <glyph glyph-name="uni021B" unicode="&#x21b;" horiz-adv-x="833" 
d="M690 319q-55 -84 -80 -117.5t-59 -70.5q-151 -160 -307 -160q-82 0 -138.5 49.5t-56.5 120.5q0 60 29 158q11 32 22 76l133 450h-178l37 125h178l115 381h322l-113 -381h233l-36 -125h-234l-143 -483q-43 -144 -43 -170q0 -14 9 -25.5t21 -11.5q31 0 93 69.5t120 170.5z
M412 -336q0 -134 -99 -242.5t-288 -181.5l-39 76q252 113 252 252q-40 -4 -50 -4q-68 0 -105.5 38t-37.5 107q0 74 49 121t125 47q86 0 139.5 -59t53.5 -154z" />
    <glyph glyph-name="uni0237" unicode="&#x237;" horiz-adv-x="757" 
d="M735 979l-243 -825q-48 -160 -83 -236t-94 -147q-147 -185 -364 -185q-129 0 -214 65t-85 165q0 75 44.5 122.5t115.5 47.5q70 0 110.5 -41.5t40.5 -112.5q0 -40 -11 -59t-46 -41q-12 -6 -12 -21q0 -11 9.5 -17.5t24.5 -6.5q60 0 100.5 65t94.5 248l194 653
q31 105 31 138q0 38 -25 50.5t-100 12.5h-65l14 96z" />
    <glyph glyph-name="ereversed" unicode="&#x258;" horiz-adv-x="1062" 
d="M905 350q-100 -185 -259 -282t-361 -97q-277 0 -353 215l111 72q41 -92 91 -129t130 -37q82 0 156.5 51t120.5 138q16 29 45 90q-168 9 -279 49q-295 102 -180 313q57 106 191 177t278 71q101 0 181 -33t128 -92.5t67.5 -137.5t2.5 -173.5t-70 -194.5zM618 467
q43 123 49.5 218.5t-24.5 147.5t-94 52q-41 0 -79.5 -26.5t-63.5 -70.5q-45 -85 -20 -166.5t108 -121.5q49 -21 124 -33z" />
    <glyph glyph-name="schwa" unicode="&#x259;" horiz-adv-x="1062" 
d="M973 602q0 -165 -89.5 -311t-239 -233t-318.5 -87q-144 0 -240 71t-96 177q0 211 348 313q138 42 305 50q4 53 4 90q0 88 -47 138t-129 50q-80 0 -149.5 -37t-161.5 -129l-72 72q191 215 467 215q203 0 310.5 -97.5t107.5 -281.5zM625 485q-88 -13 -144 -32
q-104 -40 -172.5 -122t-68.5 -167q0 -44 24.5 -70t65.5 -26q96 0 178 115t117 302z" />
    <glyph glyph-name="ringhalfright" unicode="&#x2be;" horiz-adv-x="847" 
d="M854 1182q0 -117 -60 -218t-162.5 -160t-221.5 -59q-114 0 -182 52.5t-68 138.5q0 66 36 104.5t97 38.5q54 0 88.5 -31.5t34.5 -82.5q1 -32 -12.5 -54.5t-47.5 -42.5q-8 -5 -8 -8q0 -18 39 -18q76 0 139 110q31 55 50.5 132t19.5 139q0 48 -27 79t-69 31q-90 0 -201 -131
q-8 -4 -12 -4q-9 0 -11 4l-49 41q-6 6 -6 12q0 7 4 11q76 96 155.5 140t174.5 44q136 0 216.5 -72.5t82.5 -195.5z" />
    <glyph glyph-name="ringhalfleft" unicode="&#x2bf;" horiz-adv-x="847" 
d="M803 940q0 -6 -4 -10q-76 -96 -156 -140.5t-174 -44.5q-136 0 -216.5 73t-82.5 196q0 178 131 307t313 129q115 0 182.5 -52.5t67.5 -137.5q0 -66 -36.5 -105t-98.5 -39q-54 0 -87.5 32t-35.5 83q0 32 14 54t48 42q8 5 8 8q0 19 -39 19q-79 0 -139 -111
q-31 -55 -50.5 -131.5t-19.5 -138.5q0 -48 27 -79.5t69 -31.5q90 0 201 131q8 4 12 4q9 0 11 -4l49 -41z" />
    <glyph glyph-name="circumflex" unicode="&#x2c6;" 
d="M733 1112h-121l-184 176l-258 -176h-137l321 356h207z" />
    <glyph glyph-name="caron" unicode="&#x2c7;" 
d="M809 1470l-322 -360h-208l-173 360h121l185 -180l258 180h139z" />
    <glyph glyph-name="breve" unicode="&#x2d8;" 
d="M762 1458q-10 -118 -86 -209q-106 -127 -291 -127q-135 0 -210 72.5t-75 204.5q0 5 4 59h95q7 -92 56 -133t151 -41q96 0 168 48t92 126h96z" />
    <glyph glyph-name="dotaccent" unicode="&#x2d9;" 
d="M578 1292q0 -61 -43 -104t-105 -43q-60 0 -102.5 43.5t-42.5 103.5t43 103t104 43q60 0 103 -43t43 -103z" />
    <glyph glyph-name="ring" unicode="&#x2da;" 
d="M651 1292q0 -92 -64.5 -156.5t-158.5 -64.5q-88 0 -152.5 65.5t-64.5 155.5q0 89 65 154t156 65t155 -64t64 -155zM541 1292q0 44 -32.5 76.5t-76.5 32.5q-46 0 -78 -32.5t-32 -78.5q0 -43 32 -75.5t76 -32.5q46 0 78.5 32t32.5 78z" />
    <glyph glyph-name="ogonek" unicode="&#x2db;" 
d="M563 -313q-45 -67 -117.5 -106.5t-148.5 -39.5q-87 0 -148 57.5t-61 151.5q0 46 16 87t45.5 74t54 53.5t58.5 43.5h137q-45 -35 -81.5 -91.5t-36.5 -109.5q0 -41 23.5 -67.5t57.5 -26.5q86 0 144 47z" />
    <glyph glyph-name="tilde" unicode="&#x2dc;" 
d="M809 1419q-5 -103 -81 -180.5t-173 -77.5q-63 0 -174 43q-107 43 -148 43q-34 0 -56.5 -22.5t-29.5 -63.5h-96q7 112 79.5 185t174.5 73q64 0 162 -39q73 -29 96.5 -36t46.5 -7q78 0 103 82h96z" />
    <glyph glyph-name="hungarumlaut" unicode="&#x2dd;" 
d="M608 1356q0 -28 -16 -54t-41 -36l-340 -146h-111l252 250q61 62 85 77t61 15q46 0 78 -31t32 -75zM999 1356q0 -28 -16 -54t-41 -36l-340 -146h-110l251 250q61 62 85 77t61 15q46 0 78 -31t32 -75z" />
    <glyph glyph-name="uni0300" unicode="&#x300;" horiz-adv-x="0" 
d="M-188 1102h-111l-244 180q-41 30 -10 90q25 44 73.5 75.5t94.5 31.5q37 0 54.5 -18t39.5 -75z" />
    <glyph glyph-name="uni0301" unicode="&#x301;" horiz-adv-x="0" 
d="M-78 1372q0 -59 -57 -90l-340 -180h-111l254 284q53 57 80.5 75t63.5 18q46 0 78 -31.5t32 -75.5z" />
    <glyph glyph-name="uni0302" unicode="&#x302;" horiz-adv-x="0" 
d="M-35 1112h-121l-184 176l-258 -176h-137l321 356h207z" />
    <glyph glyph-name="uni0303" unicode="&#x303;" horiz-adv-x="0" 
d="M41 1419q-5 -103 -81 -180.5t-173 -77.5q-63 0 -174 43q-107 43 -148 43q-34 0 -56.5 -22.5t-29.5 -63.5h-96q7 112 79.5 185t174.5 73q64 0 162 -39q73 -29 96.5 -36t46.5 -7q78 0 103 82h96z" />
    <glyph glyph-name="uni0304" unicode="&#x304;" horiz-adv-x="0" 
d="M27 1368l-43 -156h-684l43 156h684z" />
    <glyph glyph-name="uni0306" unicode="&#x306;" horiz-adv-x="0" 
d="M-6 1458q-10 -118 -86 -209q-106 -127 -291 -127q-135 0 -210 72.5t-75 204.5q0 5 4 59h95q7 -92 56 -133t151 -41q96 0 168 48t92 126h96z" />
    <glyph glyph-name="uni0307" unicode="&#x307;" horiz-adv-x="0" 
d="M-190 1292q0 -61 -43 -104t-105 -43q-60 0 -102.5 43.5t-42.5 103.5t43 103t104 43q60 0 103 -43t43 -103z" />
    <glyph glyph-name="uni0308" unicode="&#x308;" horiz-adv-x="0" 
d="M-385 1292q0 -62 -42.5 -104.5t-104.5 -42.5q-60 0 -103 43.5t-43 103.5t43.5 103t104.5 43q60 0 102.5 -43t42.5 -103zM4 1292q0 -62 -43 -104.5t-104 -42.5q-60 0 -103 43.5t-43 103.5t43.5 103t104.5 43q60 0 102.5 -43t42.5 -103z" />
    <glyph glyph-name="uni0309" unicode="&#x309;" horiz-adv-x="0" 
d="M-90 1386q0 -57 -32.5 -96t-147.5 -104q-56 -33 -73 -50t-28 -61h-69q1 51 17 76.5t91 103.5q30 32 49 68t19 61q0 26 -18 41t-52 15q-47 0 -47 -10q35 -30 35 -54q0 -39 -35.5 -65.5t-81.5 -26.5q-38 0 -61 18.5t-23 49.5q0 65 82 110t191 45q88 0 136 -37t48 -84z
M-520 356l-4 -2h-2z" />
    <glyph glyph-name="uni030A" unicode="&#x30a;" horiz-adv-x="0" 
d="M-117 1292q0 -92 -64.5 -156.5t-158.5 -64.5q-88 0 -152.5 65.5t-64.5 155.5q0 89 65 154t156 65t155 -64t64 -155zM-227 1292q0 44 -32.5 76.5t-76.5 32.5q-46 0 -78 -32.5t-32 -78.5q0 -43 32 -75.5t76 -32.5q46 0 78.5 32t32.5 78z" />
    <glyph glyph-name="uni030B" unicode="&#x30b;" horiz-adv-x="0" 
d="M-160 1356q0 -28 -16 -54t-41 -36l-340 -146h-111l252 250q61 62 85 77t61 15q46 0 78 -31t32 -75zM231 1356q0 -28 -16 -54t-41 -36l-340 -146h-110l251 250q61 62 85 77t61 15q46 0 78 -31t32 -75z" />
    <glyph glyph-name="uni030C" unicode="&#x30c;" horiz-adv-x="0" 
d="M41 1470l-322 -360h-208l-173 360h121l185 -180l258 180h139z" />
    <glyph glyph-name="uni030F" unicode="&#x30f;" horiz-adv-x="0" 
d="M-98 1120h-111l-262 146q-20 10 -22 36.5t12 53.5q25 44 73.5 75t94.5 31q37 0 53 -15t43 -77zM-489 1120h-111l-262 146q-20 10 -22 36.5t12 53.5q25 44 73 75t94 31q37 0 53.5 -15t43.5 -77z" />
    <glyph glyph-name="uni0311" unicode="&#x311;" horiz-adv-x="0" 
d="M-90 1122h-94q-7 92 -56 133t-151 41q-95 0 -167.5 -48t-92.5 -126h-97q10 118 86 209q106 127 291 127q135 0 210 -72t75 -204q0 -6 -4 -60z" />
    </font>
</defs>
</svg>
