<?xml version="1.0" encoding="UTF-8"?>
<svg id="Layer_1" xmlns="http://www.w3.org/2000/svg" version="1.1" viewBox="0 0 512 512">
  <!-- Generator: Adobe Illustrator 29.5.1, SVG Export Plug-In . SVG Version: 2.1.0 Build 141)  -->
  <path d="M348.4,112.31c12.78-2.41,19.55,8.67,21.98,19.53,1.65,7.39.94,15.42,2.37,22.62,2.7,13.51,23.87,25.92,19.44,40.64-1.05,3.5-6.84,9.33-8.72,13.27-10.94,22.92,15.26,19.42,29.43,22.93,7.66,1.9,23.69,12.82,17.23,21.73-5.51,7.59-37.8,10.17-47.68,12.32-27.03,5.88-51.02,19.62-77.7,3.11-5.68-3.51-26.17-17.39-29.09-21.9-4.01-6.19-1.89-20.44-4.91-28.08-1.93-4.89-8.36-6.76-10.93-11.07-1.62-2.71-3.38-8.49-2.95-11.58,1.01-7.27,17.72-32.95,23.31-38.76,3.25-3.38,18.66-17.19,22.12-18.88,7.52-3.68,13.35-1.27,20.87-2.13,11.11-1.27,8.91-8.89,13.49-15.5,2.27-3.27,7.8-7.51,11.74-8.25ZM348.36,122.28c-4.7,1.4-7.92,9.32-6.49,14.09,1.55,5.19,18.88,15.11,20.76,5.18,1.77-9.38-2.37-22.8-14.27-19.26ZM312.4,146.31c-4.96.82-16.64,11.3-20.75,15.24-2.62,2.52-6.02,4.65-4.81,8.79,1.13,3.85,17.98,8.18,22.76,11.28s15.4,12.34,19.59,16.41,12.82,17.49,17.96,17.08c1.19-.1,2.02-.51,2.39-1.7,1.97-3.63-8.11-13.25-2.24-15.23,6.97-2.35,8.15,9.56,14.32,11.47,4.93,1.53,8.16-2.81,6.6-7.63-1.14-3.52-12.71-10.68-8.6-13.48,5.25-3.58,12.56,8.98,18.32,7.39,4.39-2.13,2.58-6.22,1.2-9.84-3.89-10.19-18.06-22.03-27.16-27.83-8.46-5.39-29.79-13.56-39.58-11.94ZM284.37,185.27c-8.56,1.97-7.15,13.42-6.75,20.32s2.42,28.46,5.59,33.41,10.22,8.1,13.18,1.28c1.45-3.34,2.2-16.07,9.36-9.82,7.43,6.49-1.24,25.61,9.9,31.09,25.17,12.38,53.99-1.23,57.59-29.48,2.1-16.51-16.79-3.18-22.33-2.26-12.76,2.12-17.02-11.62-24.21-19.3s-26.44-24.58-36.54-25.46c-1.84-.16-4-.19-5.79.22Z"/>
  <path d="M136.45,124.26c16.25-2.24,10.43,21.12,19.7,26.83,8.49,3.46,19.72,5.35,27.84,9.15,13.49,6.32,35.18,30.1,43.1,42.89,4,6.47,10.99,18.15,7.82,25.66-1.98,4.68-14.98,2.9-10.73,12.23,2.74,6.02,23.46,6.93,30.51,9.5,17.03,6.23,9.24,16.11-2.34,22.7-17.49,9.95-53.29,22.88-73.17,22.81-12.27-.04-37-14.3-47.41-21.58-21.44-14.98-9.74-36.19-18.04-56.95-3.04-7.61-12.07-9.72-11.11-17.99.51-4.39,8.32-11.64,9.6-16.42,1.44-5.38-.94-8.88-.34-13.26.35-2.58,12.48-35.31,14.06-38.01,2.06-3.53,6.42-6.99,10.52-7.55ZM135.4,136.24c-2.99.89-8.85,11.56-9.49,14.55-3.04,14.3,14.58,7.24,16.57.57,1.49-5.01.69-17.43-7.08-15.12ZM153.6,209.14c2.64,4.4-9.55,15.02-3.37,24.87,8.2,13.07,17.03-5.38,20.62-12.29,4.42-8.52,6.65-18.27,13.79-25.21,6.64-6.45,19.97-8.5,7.51-20.43-24.6-23.54-52.83-18.73-71.29,8.65-2.57,3.82-9.62,17.03-2.47,19.15s10.69-11.92,15.87-7.89c3.54,3.44-2.21,8.02-3.13,11.01-1.25,4.09-1.17,11.15,4.1,12.05,8.1,1.39,10.54-12.47,18.37-9.92ZM200.41,198.28c-2.04.42-4.12,1.99-5.75,3.25-9.23,7.09-15.61,22.72-20.69,33.31-3.19,6.65-4.27,14.9-10.31,19.69-10.24,4.36-24.15-21.24-31.44-20.5-7.73,2.13-4.32,17.42-2.03,23.02,3.99,9.75,30.85,25.55,41.07,26.92,24.31,3.25,4.55-22.61,18.04-29.77,12.66-6.72,6.56,18.15,8.87,22.86,2.98,6.07,10.84-.81,12.7-5.3,2.26-5.47,2.7-21.4,2.85-28.15.17-7.52-2.12-16.19.16-22.84.58-1.69,2.2-3.12,2.55-4.44,2.2-8.41-6.88-19.91-16.02-18.03Z"/>
  <path d="M239.88,345.84c-.62-1.07-.34-5.66-.12-7.22.35-2.49,3.41-16.32,4.14-17.85,1.26-2.63,12.72-12.6,15.76-15.24,14.43-12.5,29.53-25.7,49.53-26.48,13.42-.52,15.42,6.76,23.98,13.99,2.56,2.16,6.08,3.37,9.02,5.98,7.38,6.54,18.88,23.01,20.26,32.78,1.73,12.27-12.69,22.45-11.78,31.65.87,8.77,18.2,9.97,24.98,12.09,8.93,2.79,22.64,6.06,9.92,15.91-5.47,4.24-49.87,22.13-57.9,24.09-17.83,4.35-61.19-7.93-71.99-23.01-8.57-11.96-2.23-28.35-7.27-39.72-1.8-4.06-7.92-5.94-8.52-6.97ZM303.49,290.31c-8.25.54-21.76,7.72-26.27,14.77-5.21,8.16,6.76,12.44,11.96,17.94,5.7,6.04,14.83,16.85,19.32,23.67,3.62,5.49,9.38,24.08,18.02,14.62,2.35-8.71-14.59-15.44-10.42-21.34,4.98-7.05,13.66,12.19,17.01,14.11,6.28,3.59,9.79-1.15,8.53-7.52-.98-4.96-12.65-11.29-8.52-17.56,3.7-5.62,13.18,12.77,17.09,7.09,2.95-4.29-5.19-18.16-8.14-21.96-9.48-12.21-21.92-24.9-38.59-23.82ZM267.41,324.29c-5.25.86-10.1,4.94-10.65,10.35.95,12.48-.17,26.65.93,38.89.41,4.57,1.58,10.78,6.26,12.77,8.06,3.44,6.03-12.72,15-10.08,8.37,2.46,1.88,19.6,10.36,24.67,3.04,1.81,22.25,7.7,25.97,8.02,8.31.72,12.39-2.05,17.21-8.54,3.81-5.14,17.8-31.69,3.77-30.33-5.52.53-11.85,12.33-20.59,7.5-9.89-13.16-18.02-29.97-28.49-42.5-5.31-6.36-10.89-12.19-19.77-10.74Z"/>
</svg>