<?xml version="1.0" encoding="UTF-8"?>
<svg id="Layer_1" xmlns="http://www.w3.org/2000/svg" version="1.1" viewBox="0 0 512 512">
  <!-- Generator: Adobe Illustrator 29.5.1, SVG Export Plug-In . SVG Version: 2.1.0 Build 141)  -->
  <path d="M182.87,119.4c36.31-.97,47.85,59.97,57.06,85.39,7.76,21.42,19.82,13.05,38.29,19.71,10.26,3.7,27.35,18.46,14.48,28.5-7.99,6.24-34.84,15.22-45.12,16.87-17.97,2.87-35.92,2.12-53.84,3.15-11.33.65-30.64,5.01-40.98,2.95-8.44-1.68-2.22-8.82-1.59-12.53,2.09-12.5-2.94-22.76-4.69-34.17-5.07-33.07-14.68-108.5,36.4-109.86ZM176.95,134.25c-11.26,2.28-17.57,13.26-19.45,23.54-4.18,22.87-2.31,68.73,2.98,91.45,2.43,10.42,3.77,17.01,16.02,13.53,16.28-4.63,34.87-17.43,51.77-22.22,11.87-6.77.25-27.27-2.77-37.33-6.12-20.42-18.89-74.99-48.55-68.97Z"/>
  <path d="M335.93,211.25c7.61-1.43,15.58,1.54,18.57,8.95,4.26,10.55-.41,38.62-.33,51.34.09,14.35,14.64,12.8,25.01,16.97,24.94,10.03,33.17,27.5-1.51,30.46-22.09,1.88-46.59.13-68.97,2.02-9.86-.93-18.26-11.3-17.27-21.21.61-6.12,8.96-31.8,11.59-38.46,3.97-10.07,20-42.38,28.14-47.85,1.66-1.12,2.7-1.83,4.77-2.22ZM335.91,226.22c-1.4.42-3.22,2.63-4.14,3.85-9.58,12.7-18.01,31.55-23.31,46.68-2.15,6.14-8.08,23.37-5.14,28.63,4.46,8,33.83,11.11,37.44-.34,3.96-12.55,7.17-58.44,5.47-71.57-.71-5.49-4.54-8.99-10.31-7.26Z"/>
  <path d="M215.01,307.21c24.06-2.16,22.4,40.55,38.21,46.26,5.39,1.95,13.18,2.29,18.99,4.01,8.18,2.42,34.9,13.58,19.23,23.25-10.82,6.68-60.95,12.53-74.73,12.33-6.35-.09-13.04-1.9-16.26-7.81-8.56-15.7-11.04-75.74,14.56-78.04ZM213.93,323.21c-12.08,3.62-9.78,47.1-4.56,56.12,2.09,3.61,6.08,5.66,10.25,5.55,5.04-.13,22.47-9.46,21.58-16.29-4.61-8.37-12.7-41.67-21-45.06-1.96-.8-4.25-.92-6.27-.31Z"/>
  <path d="M180.93,179.23c18.19-4.22,22.88,25.53,12.58,28.56-14.49,4.26-27.26-25.15-12.58-28.56Z"/>
</svg>