<?xml version="1.0" standalone="no"?>
<!DOCTYPE svg PUBLIC "-//W3C//DTD SVG 1.1//EN" "http://www.w3.org/Graphics/SVG/1.1/DTD/svg11.dtd" >
<svg xmlns="http://www.w3.org/2000/svg" xmlns:xlink="http://www.w3.org/1999/xlink" version="1.1">
<metadata>
Created by FontForge 20201107 at Tue Jun  5 07:09:29 2001
 By 
Copyright (c) Typographer Mediengestaltung, 2001. All rights reserved.
</metadata>
<defs>
<font id="AnglicanText" horiz-adv-x="335" >
  <font-face 
    font-family="AnglicanText"
    font-weight="400"
    font-stretch="normal"
    units-per-em="1000"
    panose-1="0 0 4 0 0 0 0 0 0 0"
    ascent="800"
    descent="-200"
    x-height="487"
    cap-height="785"
    bbox="-71 -282 1415 1001"
    underline-thickness="20"
    underline-position="-143"
    unicode-range="U+0020-F002"
  />
<missing-glyph horiz-adv-x="500" 
d="M63 0v769h375v-769h-375zM125 63h250v644h-250v-644z" />
    <glyph glyph-name=".notdef" horiz-adv-x="500" 
d="M63 0v769h375v-769h-375zM125 63h250v644h-250v-644z" />
    <glyph glyph-name=".null" horiz-adv-x="0" 
 />
    <glyph glyph-name="nonmarkingreturn" horiz-adv-x="180" 
 />
    <glyph glyph-name="space" unicode=" " horiz-adv-x="180" 
 />
    <glyph glyph-name="exclam" unicode="!" horiz-adv-x="243" 
d="M125 186h-20l-35 370q-16 4 -38 34q51 37 86 88q26 -75 96 -85q-26 -23 -59 -39zM115 -2q-30 35 -69 68q34 32 69 74q21 -22 73 -68q-39 -30 -73 -74z" />
    <glyph glyph-name="quotedbl" unicode="&#x22;" horiz-adv-x="293" 
d="M88 417h-16q-7 39 -20 114.5t-13 110.5q0 46 40 46q41 0 41 -48q0 -42 -13 -110q-4 -18 -19 -113zM218 417h-16q-32 172 -32 223q0 48 39 48q41 0 41 -46q0 -48 -32 -225z" />
    <glyph glyph-name="numbersign" unicode="#" horiz-adv-x="466" 
d="M465 405h-110l-26 -141h117l-10 -56h-117l-41 -215h-49l41 215h-110l-41 -215h-48l40 215h-115l11 56h114l27 141h-123l11 56h122l41 215h49l-41 -215h109l41 215h49l-41 -215h111zM196 405l-27 -141h112l26 141h-111z" />
    <glyph glyph-name="dollar" unicode="$" horiz-adv-x="431" 
d="M6 2q1 69 43 135q18 28 99 128h-100q18 50 18 78v155q0 33 -22 67q30 -2 45 -2q72 0 116 22v104h17v-97q26 12 61 44q33 -42 57 -42q36 0 40 42h14q-6 -60 -41 -123q-17 -32 -81 -119h120q-15 -25 -15 -60v-200q0 -22 20 -70q-46 17 -82 17q-48 0 -93 -24v-131h-17v121
q-28 -22 -50 -50q-51 67 -85 67q-43 0 -52 -62h-12zM36 84q49 49 101 49q34 0 68 -22v204q-19 -27 -84 -105q-60 -72 -85 -126zM222 102l15 -19l57 13v238h-67l-5 -8v-224zM205 334v235l-57 -17v-233h47zM222 569v-216l108 148q24 33 33 68q-36 -46 -75 -46q-41 0 -66 46z
" />
    <glyph glyph-name="percent" unicode="%" horiz-adv-x="665" 
d="M10 305q6 40 36 62v188q0 35 -14 68q2 0 27 -2q85 0 151 63q18 -55 50 -55q-1 0 13 2q-7 -21 -25 -39v-198q0 -35 13 -73q-32 5 -40 5q-68 0 -128 -63q-28 45 -62 45q-7 0 -21 -3zM103 372q33 -14 48 -50q8 3 21 7.5t19 6.5v242q-28 10 -48 47q-11 -5 -40 -14v-239z
M446 101q33 -14 48 -50q28 12 39 14v242q-26 9 -46 47q-8 -4 -41 -14v-239zM353 34q5 40 35 62v188q0 35 -14 68q2 0 27 -2q85 0 151 63q18 -55 50 -55q3 0 13 3q-7 -25 -25 -40v-197q0 -36 13 -74q-30 5 -39 5q-69 0 -128 -63q-28 45 -62 45q-7 0 -21 -3zM475 688h22
l-333 -695h-23z" />
    <glyph glyph-name="ampersand" unicode="&#x26;" horiz-adv-x="715" 
d="M658 382q0 -61 -49 -61q-9 0 -24 5q-13 -21 -24 -56l-25 58q-16 -4 -25 -4t-22 8l-5 5q1 5 20 13t19 28q0 25 -27 25q-7 0 -8 -1q-16 -3 -27 -20q-5 -8 -27 -53q-25 -52 -25 -65q0 -14 51 -98q47 -78 63 -94q9 -11 27 -26q7 -4 16 -4q26 0 26 23q0 19 -30 44v7q2 3 8 3
q16 0 29 -22q10 -17 10 -30q0 -23 -15.5 -38t-37.5 -15h-15q-13 5 -39 21q-1 -4 -8 -21q-1 -2 -6 -2q-4 0 -36 32l-25 -32l-13 -11q1 6 1 12q0 47 -57 137q-3 0 -8 -11q-9 -22 -36 -70q-11 -16 -34 -33q-25 -20 -40 -22q-8 -1 -17 -1q-45 0 -81 39q-6 21 -11 34
q-13 31 -41 31q-32 0 -32 -44q0 -19 7 -34q9 -11 30 -44q-7 -7 -10 -7q3 0 -5 3q-13 5 -27 42q-12 33 -12 51q0 32 17 54t49 22q1 0 10 -2t11 -2t4 2q4 6 13 21q35 33 88 92q27 30 27 41q0 16 -16 16q-1 0 -13.5 -2t-14.5 -2q-7 1 -36 5l-36 5q-11 0 -8 -20q0 -59 64 -58
q-5 -8 -14 -8h-15q-11 0 -24 10q-19 10 -24 32v6q-1 3 -1 7q0 8 2 34q-4 6 -14 10q-37 15 -67.5 52t-41.5 77q-10 36 -10 62q0 99 63 165q60 63 160 82q16 3 60 3q34 0 65 -5q43 -7 89 -39q54 -38 67 -83l11 -39q0 -34 -20 -54.5t-52 -20.5q-16 0 -24 3q-15 8 -16 8
q-6 0 -8 -8q-6 -12 -22 -45q-2 -9 -7 -28q1 -1 19 -12q26 -16 26 -46q0 -35 -49 -63v-6q0 -7 32 -54q4 0 6 3q16 38 57 109q11 15 31.5 28t33.5 14q3 0 13.5 1.5t11.5 1.5q2 0 11.5 -2.5t11.5 -2.5q32 -10 46 -69q3 -14 12 -21q-2 -2 4 -2l10 5q3 3 5 7q-3 14 4 39h9
q7 -10 7 -25zM351 516q0 34 -12 40q-13 -8 -17 -8q-10 -3 -19 -3t-17 8v6q28 13 28 33q0 17 -10.5 31t-26.5 14q-46 0 -46 -50q0 -24 50 -113q18 2 62 7q8 18 8 35zM489 619q0 27 -23 63q-20 32 -63.5 53t-86.5 21q-5 0 -19.5 1t-15.5 1q-39 0 -71 -7q-21 -4 -82 -27
q-43 -16 -82 -57q-16 -17 -28.5 -54.5t-12.5 -62.5q0 -123 106 -192q4 -2 18 -2q9 17 29 43q1 2 18 18q14 15 14 17q0 12 -19 30.5t-32 18.5q-35 0 -35 -30q0 -1 4 -14t4 -15q0 -3 -3 -6h-6q-14 8 -14 37q0 54 62 69q-3 13 -12 31q-35 33 -35 82q0 9 3 16h6q1 -1 8 -22l2 -7
q7 -22 24 -27q37 -11 27 -11h7q7 26 40 53.5t60 31.5q32 5 39 5q19 0 47 -13t41 -42l12 -27q7 -16 22 -23q8 -2 11 -2q18 0 28 21q8 16 8 29zM388 421q0 31 -38 36q-13 -18 -23 -57q0 -21 16 -31q18 6 31.5 21.5t13.5 30.5zM334 442v10q-5 5 -15 5q-9 0 -22 -5
q-1 -13 21 -36q3 6 9.5 14.5t6.5 11.5zM243 341v3q-32 65 -40 65q-14 0 -34 -22q-12 -13 -27 -35q19 -16 69 -16h21q6 0 11 5zM336 183q0 9 -50 95q-13 18 -20 19q-8 -11 -27 -36l-27 -33q-24 -29 -24 -37v-7q6 1 18 3.5t13 2.5q12 0 28 -9.5t16 -19.5q0 -4 -2 -6
q-10 3 -22 5q-16 0 -27.5 -11.5t-11.5 -29.5q0 -14 16 -29.5t32 -15.5q7 0 21 5q3 1 9 7q5 -2 31.5 40t26.5 57z" />
    <glyph glyph-name="quotesingle" unicode="'" horiz-adv-x="170" 
d="M91 403h-16l-21 119q-14 79 -14 114q0 49 43 49q42 0 42 -48q0 -29 -14 -115q-5 -28 -20 -119z" />
    <glyph glyph-name="parenleft" unicode="(" horiz-adv-x="241" 
d="M6 328q0 -284 181 -432l10 7q-57 81 -89 202q-29 110 -29 220q0 185 111 405l-10 6q-69 -62 -121.5 -187t-52.5 -221z" />
    <glyph glyph-name="parenright" unicode=")" horiz-adv-x="244" 
d="M186 328q0 -284 -181 -432l-10 7q117 168 117 422q0 182 -110 405l10 6q69 -62 121.5 -187t52.5 -221z" />
    <glyph glyph-name="asterisk" unicode="*" horiz-adv-x="442" 
d="M180 475q-38 -22 -51 -38l-36 -46q-21 -23 -43 -23q-19 0 -32 13t-13 32q0 49 84 55q36 3 79 28q-45 25 -69 28q-51 5 -61 9q-33 13 -33 47q0 19 13 31.5t32 12.5q24 0 40 -16q7 -7 40 -47q22 -27 50 -43v18q0 23 -17.5 64.5t-17.5 56.5q0 21 13.5 36t33.5 15t33.5 -15.5
t13.5 -36.5q0 -13 -20 -56q-15 -33 -15 -82q31 17 49 36q13 13 38 50q20 20 44 20q19 0 32 -12.5t13 -31.5q0 -32 -29 -45q-15 -7 -61 -14q-40 -5 -73 -25q44 -24 68 -27q53 -6 62 -10q33 -14 33 -46q0 -43 -43 -43q-20 0 -40 17q-12 10 -41 44q-21 26 -52 44v-18
q0 -23 17 -65t17 -55q0 -21 -13 -36.5t-33 -15.5t-33.5 15t-13.5 36q0 9 17.5 58t17.5 81z" />
    <glyph glyph-name="plus" unicode="+" horiz-adv-x="478" 
d="M187 486h46v-177h174v-46h-174v-177h-46v177h-174v46h174v177z" />
    <glyph glyph-name="comma" unicode="," horiz-adv-x="195" 
d="M46 32l80 84q49 -73 47 -131q-2 -74 -83 -121q10 25 11 51q2 66 -55 117z" />
    <glyph glyph-name="hyphen" unicode="-" horiz-adv-x="325" 
d="M45 180l49 99q6 -21 31 -21h134q34 0 69 20l-41 -89q-15 15 -44 15h-131q-20 0 -67 -24z" />
    <glyph glyph-name="hyphen" unicode="&#x2010;" horiz-adv-x="325" 
d="M45 180l49 99q6 -21 31 -21h134q34 0 69 20l-41 -89q-15 15 -44 15h-131q-20 0 -67 -24z" />
    <glyph glyph-name="period" unicode="." horiz-adv-x="221" 
d="M24 35l68 81q39 -56 74 -56q12 0 29 7q-39 -80 -91 -80q-48 0 -80 48z" />
    <glyph glyph-name="slash" unicode="/" horiz-adv-x="255" 
d="M-13 -49l249 767h38l-250 -767h-37z" />
    <glyph glyph-name="zero" unicode="0" horiz-adv-x="391" 
d="M358 77q-14 0 -37 3q-71 9 -140 -83q-5 0 -7 2q-58 78 -171 83l1.5 2t3.5 4v1l1 2l4 7q1 1 27 56v395q-3 18 -23 70q37 -8 57 -8q44 0 108 47q4 2 10 12l5 8l1 2q1 1 2 1.5l1 0.5l2 -2q20 -28 68 -63q52 -36 82 -40q-17 -19 -22 -36q-4 -11 -4 -41l-1 -343q3 -36 13 -46
l9 -9q8 -8 12 -20zM250 542q-15 13 -87 70q-28 -24 -49 -25v-452q46 -9 102 -67l34 24v450z" />
    <glyph glyph-name="one" unicode="1" horiz-adv-x="380" 
d="M184 -26q-23 32 -74 87q17 24 39 78v427h-94v10q75 28 130 95q19 -22 64 -73q0 -5 -10 -31t-10 -39l1 -380q0 -30 8 -48q4 -8 21 -30l50 40l10 -13q-54 -43 -71 -58q-40 -34 -64 -65z" />
    <glyph glyph-name="two" unicode="2" horiz-adv-x="430" 
d="M73 42l48 33q28 17 54 23q4 1 77 10q47 6 65 34q15 23 15 75l17 3q0 -56 6 -78q3 -13 31 -68q-12 -13 -32.5 -39.5t-29.5 -45.5q-82 61 -141 61q-81 0 -111 -41l-20 -11q-6 0 -7 4q-1 2 0 9l2 10q0 140 55 231q41 68 164 176q0 113 -1 120q-24 14 -120 74v-212
q-50 28 -86 46l5 18q5 18 5 49q0 64 -23 78l-13 14q15 4 44.5 10.5t43.5 9.5q21 9 78 50q71 -47 78 -50q39 -25 98 -43q-20 -35 -20 -92v-55q0 -20 15 -58q-156 -48 -247 -201q-16 -27 -33 -71q-21 -55 -17 -73z" />
    <glyph glyph-name="three" unicode="3" horiz-adv-x="430" 
d="M147 452q-9 2 -39 10.5t-40 10.5v84q0 22 -30 47v6l3 3q20 -4 40 -4q68 0 121 68q47 -30 78 -47q46 -25 83 -34q-25 -22 -25 -70q0 -16 -1 -27v-21q0 -37 33 -69v-5l-2 -2q-24 4 -54 4q-14 0 -34 -13q-24 -15 -30 -17q21 -23 58 -38q12 -5 66 -21l-9 -19q-14 -30 -14 -81
q0 -56 3 -75q6 -41 32 -65v-4l-1 -1l-44 3q-80 0 -151 -78l-2 1q-20 28 -71 58.5t-82 27.5v8q20 29 23 72q-1 -11 -1 76q26 6 81 41v-35q0 -90 4 -106q56 -33 114 -70q0 7 4 7h7q3 0 3 7l-3 194q-2 1 -99 64l-13 8v15q87 33 102 46q0 23 1 45q1 34 1 48q-1 19 -7 44
q-15 13 -86 70q-5 -4 -23 -17q-2 -40 0 -74z" />
    <glyph glyph-name="four" unicode="4" horiz-adv-x="430" 
d="M324 211q0 -57 3 -74q8 -43 37 -53q11 11 49 24l6 -13q-97 -56 -127 -97q-17 25 -44 43q-42 27 -49 33q40 40 40 68q0 1 -1.5 26t-1.5 39l-210 -1q0 2 -5.5 15.5t-5.5 15.5q0 15 88 181t85 195q-40 -22 -64 -21l-3 17q3 2 36 13q39 13 95 84q12 -12 69 -76
q-127 -122 -280 -387h196v179q23 28 85 114q1 -79 2 -293h86v-32q-42 2 -86 0z" />
    <glyph glyph-name="five" unicode="5" horiz-adv-x="430" 
d="M199 466q3 -28 74 -61q64 -30 100 -34q-18 -34 -18 -65q0 -19 -2.5 -57.5t-2.5 -57.5q0 -29 4 -49q2 -8 12.5 -35.5t10.5 -30.5l-7 -1q-2 0 -12.5 1t-14.5 1q-76 0 -142 -82h-6v2l-4 8q-21 34 -74 52l-87 30q24 32 24 75q0 27 -10 60q30 17 87 51v-138q35 -13 123 -62
q2 2 18 6v231l-118 73q-34 -30 -89 -73l-15 14l57 353l12 -6q50 -25 123 -25q18 0 100 22l27 35h11q-12 -37 -40 -121q-76 -24 -121 -24q-44 0 -103 24l-37 -226l3 -5z" />
    <glyph glyph-name="six" unicode="6" horiz-adv-x="433" 
d="M227 340q-18 15 -41 45l-32 -16v-239q28 -6 97 -63l19 15v238q-4 5 -21 10.5t-22 9.5zM368 84q-9 -6 -38 -10q-32 -5 -47 -12q-35 -17 -83 -66q-26 37 -93 70q-60 30 -78 28q20 20 31 52q8 23 8 49v341q0 40 -30 86l37 -2q77 -4 171 63q30 -30 102 -86l11 -2l13 7l4 -5
q-44 -33 -91 -50q-45 31 -50 35q-31 23 -44 40q-21 -7 -37 -11q-1 -37 0 -219q29 8 86 66q31 -53 139 -106q-16 -16 -27 -63v-147q0 -37 16 -58z" />
    <glyph glyph-name="seven" unicode="7" horiz-adv-x="430" 
d="M118 681q10 -22 60 -36q36 -10 74 -10t136 40q3 -1 3 -4q-41 -88 -121 -263q-83 -183 -83 -250q0 -47 22 -68q10 6 34 28t32 30l11 -18q-23 -27 -74 -69q-54 -45 -76 -68q-14 17 -43 49q-13 14 -57 37q50 45 69 75q79 124 210 411q-58 -16 -97 -16q-38 0 -130 36
q-30 -40 -49 -69l-16 5z" />
    <glyph glyph-name="eight" unicode="8" horiz-adv-x="430" 
d="M179 615l-21 -12v-163l98 -59l9 23v156zM280 266q-92 61 -107 61q-5 -2 -29 -15q-2 -28 -2 -71t2 -102q11 -6 70 -32q44 -19 66 -37v196zM209 -22q0 30 -37 49q-21 11 -70 24.5t-70 24.5q31 19 31 69v104q0 24 -26 55q74 14 114 36q-21 22 -107 65q5 4 14 10.5t12.5 10.5
t3.5 42v101l-29 46q0 -12 22 -12q34 0 86 23q58 26 60 55q49 -37 70 -51q38 -24 81 -32q-22 -38 -22 -55v-101q0 5 23 -43q-29 -6 -91 -29q59 -38 118 -71q-20 -20 -25 -64q-2 -19 -2 -73q0 -84 16 -96q-33 -6 -97 -18q-28 -11 -75 -70z" />
    <glyph glyph-name="nine" unicode="9" horiz-adv-x="430" 
d="M191 358q15 -12 40 -45l33 16v220q-27 4 -97 62l-19 -14v-219q4 -5 21 -10.5t22 -9.5zM49 595q7 4 38.5 8.5t47.5 12.5q36 19 83 67q25 -37 93 -70q59 -29 78 -29q-20 -20 -31 -49.5t-8 -50.5v-342q0 -39 29 -86l-37 3q-70 6 -170 -63q-49 40 -123 86l-10 1l-13 -6l-5 5
q40 29 92 50q12 -8 59 -35q42 -23 55 -41q13 6 37 11q2 41 0 239q-34 -8 -86 -66q-36 57 -139 106q10 10 20 38q4 16 7 25v127q0 37 -17 59z" />
    <glyph glyph-name="colon" unicode=":" horiz-adv-x="297" 
d="M62 36l70 85q41 -59 78 -59q6 0 30 8q-40 -84 -95 -84q-50 0 -83 50zM62 347l70 85q41 -59 78 -59q6 0 30 8q-40 -84 -95 -84q-50 0 -83 50z" />
    <glyph glyph-name="semicolon" unicode=";" horiz-adv-x="291" 
d="M62 347l70 85q41 -59 78 -59q6 0 30 8q-40 -84 -95 -84q-50 0 -83 50zM86 32l80 84q49 -73 47 -131q-2 -74 -83 -121q10 25 11 51q2 66 -55 117z" />
    <glyph glyph-name="less" unicode="&#x3c;" horiz-adv-x="409" 
d="M355 487l-243 -190l240 -178l-42 -38l-284 215q-4 3 287 229z" />
    <glyph glyph-name="equal" unicode="=" horiz-adv-x="386" 
d="M32 280l295 -1v-58h-295v59zM35 396h289v-60h-289v60z" />
    <glyph glyph-name="greater" unicode="&#x3e;" horiz-adv-x="412" 
d="M12 487l243 -190l-240 -178l42 -38l285 215q4 3 -288 229z" />
    <glyph glyph-name="question" unicode="?" horiz-adv-x="442" 
d="M190 -4q-31 39 -73 73q46 43 73 75q25 -24 77 -70q-47 -32 -77 -78zM368 463q0 -44 16 -83h-16q-96 0 -133.5 -41t-33.5 -138q-7 -1 -17 -2q-6 -1 -6 -4q-4 17 -4 111q0 125 100 143v194l-25 6q-39 -84 -110 -84q-72 0 -111 79q19 -13 38 -13q37 0 91 75q82 -58 223 -58
h7q-19 -25 -19 -82v-103z" />
    <glyph glyph-name="A" unicode="A" horiz-adv-x="655" 
d="M639 115l-123 -124q-4 0 -25 24q-29 33 -33 39q-17 24 -32 89q-10 47 -19 94h-4q-45 -73 -62 -189l-10 -10q-8 0 -8 11q0 73 -17 122q-11 30 -13 36q-11 25 -20 27q-7 -10 -38 -113l-39 -128q-58 37 -96 37q-32 0 -53 -13q-4 -3 -21.5 -21t-20.5 -18q-7 0 -7 9
q0 -5 19 38q36 82 118 82q35 0 59 -12q56 150 56 167q0 7 -24.5 15t-35.5 8q-37 0 -63 -23t-26 -58q0 -14 4.5 -24t9.5 -22l-9 -5q-23 18 -23 56q0 55 35.5 95t90.5 40q38 0 64 -8l35 114q-15 35 -71 35q-29 0 -49 -13q-23 -15 -23 -42l-4 -6l-7 4q-3 9 -3 18q0 38 31 70
t69 32q21 0 42 -10t28 -24q4 7 4 20q0 43 -125 43q-16 0 -47 -9q-34 -10 -41 -19v-8q-1 -3 -1 -8q0 17 6 -8q7 -31 15 -61q10 -40 17 -48q29 -32 75 -32q22 0 47 13l2 -11q-25 -15 -49 -15q-83 0 -114 86q-17 48 -13 81q-14 -5 -24 -33.5t-10 -46.5q0 -53 41 -82l2 -5
q-2 -2 -10 -2q-9 0 -27.5 22t-22.5 35q-9 27 -9 58q0 37 21 78.5t52 58.5q19 75 93 124q69 46 149 46q113 0 178 -85q57 -74 57 -179q0 -86 -60 -160q-39 -39 -39 -42q0 -26 16.5 -99t27.5 -99q15 -35 37 -35q20 0 34 10q3 2 27 24zM564 514q0 106 -63 175.5t-167 69.5
q-61 0 -120 -35q-63 -37 -80 -92q59 28 97 28t128 -30q11 26 28 66h7q19 -34 85 -344q37 30 61 74.5t24 87.5zM400 264l-52 210q-16 -40 -49 -147q18 -14 45 -37q23 -21 39 -42z" />
    <glyph glyph-name="B" unicode="B" horiz-adv-x="732" 
d="M717 290q0 -42 -54 -71q-6 -47 -17 -100q-43 -123 -140 -123q-42 0 -70 35q-26 32 -26 75q0 4 2 30q-1 4 -6 4q-15 0 -15 -15q0 -20 -6 -26q-24 -25 -77 -55l-86 -44q-35 41 -85 41q-32 0 -52 -19l-36 -44l-8 2v14q0 16 38 67q17 23 49 40t60 17q52 0 99 -50h3v62
q-12 1 -39 4q-37 6 -63 46q-23 37 -23 77q0 86 101 114q5 2 19 10l-4 6q-7 3 -17 3q-1 0 -1.5 -2.5t-2.5 -2.5q-17 0 -38 6q-45 8 -113 71q-19 9 -47 24q-30 21 -48 62q-17 38 -17 77q0 42 29.5 80t70.5 37q29 -1 52.5 -21t23.5 -46q0 -18 -12 -31.5t-29 -13.5q-21 0 -29 11
v10q1 2 6 3q3 0 12 -4.5t11 -4.5q26 0 26 24q0 23 -17.5 39t-41.5 16q-34 0 -59 -34.5t-25 -69.5q0 -80 63 -122h10q-14 67 -14 70q0 36 21 64q38 -29 39 -30q25 -16 45 -16q28 0 100 41q100 57 169 57t117.5 -47t48.5 -116q0 -23 -13 -61l3 -4q43 33 43 108q0 40 -23 84
q-61 116 -230 116q-54 0 -116 -23q-76 -28 -76 -75q0 -32 34 -32q22 0 27 22q4 18 7 28q13 -4 13 -17q0 -18 -18 -34.5t-37 -16.5q-18 0 -30 16.5t-12 36.5q0 44 81 85q70 36 124 37q116 3 193 -49q89 -59 89 -170q0 -8 -10 -48q-12 -49 -46 -76q-45 -36 -55 -48q1 -3 3 -5
q44 -27 62 -53q15 -22 30 -76q0 -4 3 -20q2 -9 3 -9q35 14 35 55q0 77 -76 97q-7 2 -12 7q7 7 12 7q45 0 71 -35q24 -31 24 -78zM454 507q0 21 -15 28q-7 -8 -7 -14q0 -33 15 -41q7 15 7 27zM520 453v59q0 2 -68 49l-69 48q-1 3 4 3q13 0 57 -17t57 -17q4 0 3 3
q-33 77 -88 77q-39 0 -78 -36q-24 -22 -73 -68q-49 -36 -108 -36q-28 0 -60 26l-2 -5q8 -32 18 -44q14 -15 44 -15q45 0 95 33q22 15 79 62q40 33 57 33q6 0 9 -4v-6q-12 -10 -12 -50v-17q-1 -8 -1 -17v-93q14 5 31 17q21 15 21 26q0 13 -17 33l1 6q0 2 -1.5 8.5t-1.5 7.5
q0 9 7.5 20.5t15.5 11.5q29 0 29 -43q0 -7 -5 -27.5t-5 -21.5q11 -11 51 -29q10 13 10 23zM482 370h-11q-6 0 -28 -17v-6l3 -3h2q8 0 19.5 9.5t14.5 16.5zM566 225q0 24 -14 74q-16 58 -33 58q1 0 -29 -19.5t-50 -19.5q-25 0 -25 23q0 26 32 42q26 14 55 15q7 8 7 18
q-5 2 -31.5 16.5t-28.5 14.5q-3 0 -20.5 -14.5t-20.5 -17.5q-25 -11 -25 -16l3 -114h7q35 0 63.5 -23t40.5 -58q7 7 12 14q-33 32 -33 68q0 24 23 25q15 1 26.5 -14t11.5 -33q0 -4 -8 -47q2 0 13.5 -6t18.5 -5q5 7 5 19zM518 257q0 22 -16 41q-8 -5 -13 -7v-7q0 -8 9 -27.5
t15 -22.5q5 12 5 23zM287 399v20q0 63 -3 66q-49 -29 -95 -29q-5 0 -24 2t-25 2q24 -24 58 -42q39 -21 68 -21q3 0 11 1t10 1zM564 193q-45 15 -42 15q-7 0 -13.5 -9.5t-6.5 -17.5q0 -2 1 -11t1 -12q0 -19 -12 -58t-12 -52q0 -27 19 -27q31 0 51 74q12 46 14 98zM421 217
q0 15 -9.5 31.5t-20.5 18.5l-3 -6v-110h10q23 0 23 66zM289 147v133q-4 7 -9 7q-89 0 -89 -58q0 -32 29 -58.5t61 -26.5q5 0 8 3z" />
    <glyph glyph-name="C" unicode="C" horiz-adv-x="729" 
d="M693 571q2 -48 -21 -84q-27 -40 -73 -40q-79 0 -87 98q-1 0 -13.5 -8t-14.5 -8q-18 0 -30.5 10.5t-12.5 27.5q0 3 8 16q2 0 13 -4t13 -4q32 0 32 36q0 15 -13 26.5t-28 11.5q-41 0 -41 -68q0 -119 1 -220l24 9q86 32 153 44q27 5 51 -15.5t24 -47.5q0 -33 -25 -42l-10 3
q12 25 20 40q0 18 -14.5 31t-35.5 14q-64 4 -184 -57v-53q24 8 52 -7q31 46 84 43q54 -3 86 -45q29 -38 29 -94q0 -95 -88 -147q-73 -43 -175 -43q-63 0 -129 40q-60 37 -99 93q-21 -15 -36 -60q-12 -37 -14 -70l-4 -17h-7q-3 7 -5 10q0 64 50 149q-46 85 -46 177q0 27 5 60
l-12 1h-39q-31 0 -56 15q-29 17 -29 47q0 21 15 37.5t35 16.5q-1 0 24 -4l2 -10q-3 -1 -23 1q-11 0 -18.5 -11.5t-7.5 -24.5q0 -54 66 -54q51 0 49 24q-59 56 -58 131q2 133 125 195q93 46 241 48q72 -10 125 -37q117 -59 122 -180zM680 560q0 100 -88 153q-73 44 -179 44
q-113 0 -202 -48q-110 -60 -110 -163q0 -40 7 -59.5t34 -47.5q31 76 74 120q39 42 115 82l7 -4v-6q-40 -29 -61 -78q-5 -8 -33 -94l-4 -9q28 25 70.5 91t69.5 91q47 44 102 44q48 0 77 -31q16 -17 33 -59q13 -31 24 -31l15 9l3 31h6q0 -1 5 -12.5t5 -13.5q0 -18 -15.5 -34.5
t-34.5 -16.5q-23 0 -40 18q-4 -1 -6 -10q-1 -4 0 -15q1 -8 1 -14q0 -15 13.5 -24.5t31.5 -9.5q36 0 59 32q21 28 21 65zM323 530q0 7 -9 -11.5l-9 -18.5q-6 -13 -16 -22l-5 -5q-12 -10 -15 -14q-16 -14 -32 -33q-5 -8 -5 -29v-23q41 -23 84 -23q6 0 7 3v176zM522 186
q0 20 -11 42.5t-25 25.5q-12 -24 -12 -45q0 -14 9 -31q10 -20 23 -20q16 0 16 28zM608 192q0 38 -16 70q-20 38 -55 38q-31 0 -40 -31q50 -32 50 -67q0 -21 -10 -38q-11 -20 -31 -20q-43 0 -43 65q0 17 11 53q-10 10 -33 10l-11 1v-56q0 -117 74 -117q34 0 59 49l5 -1
q0 -34 -28 -52q-24 -16 -60 -16q-27 0 -80 41l-27 -50l-23 51q-21 -13 -51 -29q11 -28 55 -54.5t75 -26.5q76 0 127.5 52t51.5 128zM322 275q1 22 0 62q-24 3 -90 22q-5 -16 14 -129q21 27 76 45zM322 260l-32 -14q-12 -3 -25.5 -16t-13.5 -23q0 -12 15 -50t23 -48
q34 28 34 87v12q-1 11 -1 20v32z" />
    <glyph glyph-name="D" unicode="D" horiz-adv-x="623" 
d="M589 554q0 -54 -37 -116q28 -40 28 -86q0 -73 -90 -135q0 -86 1 -93q-51 -37 -203 -138q-68 53 -150 53q-50 0 -72 -12t-50 -53l-2 -1q-3 6 -4 10q15 57 92 95q68 34 132 31q85 -4 130 -41l25 19v112l-10 -1q-45 -5 -67 23q-26 -36 -108 -68q-94 -37 -124 -61l-4 12
q34 18 49 57q-56 8 -88 38q-36 34 -36 88q0 49 38 78q33 25 84 30q2 14 1 19q-40 8 -63 58q-18 41 -18 88q0 10 2 26q-44 30 -44 96q0 44 18 65q7 -19 16 -35q19 -35 38 -36q28 57 104 88q64 27 137 27q110 0 189 -63q86 -67 86 -174zM530 436q0 6 -12 14.5t-18 8.5h-8v-48
q8 2 23 10.5t15 14.5zM570 551q0 108 -93 164q-76 46 -192 46q-58 0 -109 -20q-60 -23 -87 -66l244 1q90 0 124 -44q27 -35 33 -133l1 -16q12 -4 48 -30q13 2 23 43q8 34 8 55zM561 359q0 15 -6 37q-7 28 -17 28q-6 0 -48 -36v-145q27 0 50 46q21 40 21 70zM388 468l-2 1
q-1 0 -4.5 -2t-5.5 -2q-12 0 -23 -12.5t-11 -25.5q0 -9 8 -20.5t16 -11.5q27 0 22 1v72zM388 509q-4 34 -14 45t-43 11h-65q-24 -16 -28 -22q-7 -10 -7 -36v-78q60 20 60 69q0 11 -16 36l9 7q20 0 20 -42q0 -37 -21 -58q-15 -15 -54 -34q2 -73 0 -222q29 10 70 46
q-33 39 -33 77q0 52 39 52q37 0 37 -64q0 -9 -8.5 -33t-8.5 -29l24 -15l27 -1l13 8l-1 149h-5q-24 0 -41.5 16t-17.5 40q0 22 22 41q18 16 42 22v15zM233 567l-133 -2q-27 0 -41 12q-2 -16 -2 -18q0 -38 16 -76q21 -49 52 -48q0 45 33 83q30 36 75 49zM325 302q0 13 -7 27.5
t-16 14.5q-18 0 -18 -34q0 -27 23 -58l13 14q0 3 2.5 17t2.5 19zM127 278q0 45 -33 45q-22 0 -42 -14.5t-20 -36.5q0 -40 25.5 -64.5t65.5 -24.5h4v95z" />
    <glyph glyph-name="E" unicode="E" horiz-adv-x="723" 
d="M699 159q0 -10 -15 -36q1 9 1 16q0 32 -23 32q-28 -4 -28 -38q-3 -23 -18 -67q-52 -78 -203 -78q-161 0 -261 133l-14 -2q-19 0 -66 22q-11 -14 -18 -67q-5 -41 -5 -72q0 -12 2 -28q-5 -3 -15 2l-1 45q-1 61 23 129q-53 61 -53 119q0 74 41 115q-26 38 -33 59
q-9 26 -8 68q5 154 138 230q112 64 270 57q101 -5 180 -54q93 -58 93 -153q0 -35 -22 -62t-55 -27q-35 0 -51 19q-16 -22 -19 -39h-3q-4 13 -20 46l-34 -13q-37 10 -35 37q44 3 44 45q0 53 -36 53q-30 0 -36 -35q0 -17 -2 -50q-3 -49 0 -147q8 -20 26 -17q20 1 27 4
q14 5 14 21q1 24 -24 30q18 12 32 12q31 0 40 -16q6 -11 6 -48q15 -15 70 -31q-23 -7 -72 -32q5 -65 -47 -65q-14 0 -33 14q29 8 28 27q-2 24 -15 28q-6 2 -29 2q-21 0 -21 -20q-1 -44 -1 -92q0 -147 79 -172l-19 -3q-32 -5 -56 20q-4 4 -32 47q-6 -7 -12 -44q-2 -16 -8 -48
l-18 91l-4 2q-26 -32 -65 -46q21 -31 60.5 -52.5t75.5 -21.5q47 0 81.5 34t34.5 81q0 45 -31 45q-24 0 -24 -38q-20 23 -20 39q0 20 14 34.5t35 14.5q12 0 34 -13q16 24 32 73q14 -32 35 -69q16 16 36 16q24 0 38.5 -19.5t14.5 -46.5zM670 592q0 80 -91 132q-78 44 -165 44
q-139 0 -239 -47q-140 -66 -148 -210q-4 -64 31 -115q34 31 74 45q6 10 16.5 28.5t15.5 27.5q48 63 130 91q3 3 4 1q1 -1 -2 -4q-59 -68 -71 -133q21 -2 35 -18t14 -36q0 -23 -24 -42q-19 -15 -45 -21q-4 -58 4 -81q74 6 76 -48q1 -33 -41 -59q11 -32 32 -55q23 11 38 45
q14 31 13 58q-2 71 1 324q2 113 -54 113q-38 0 -43 -45l-8 -6q-8 13 -8 19q0 27 24 50t51 25q26 2 53 -31q4 15 26 71l30 -73q28 34 67 33q62 -2 92 -37q12 -14 33 -65q14 -34 39 -34q40 0 40 53zM257 396q0 24 -40 36q-13 -76 -10 -79q19 3 34.5 15.5t15.5 27.5zM126 418
q-49 -21 -57 -39q8 -10 39 -26q4 27 12 49zM270 204q0 14 -11 23t-26 9q-7 0 -22 -4q4 -17 26 -65q33 20 33 37zM106 222q-7 33 -1 113q-3 2 -47 34q-38 -32 -38 -104q0 -27 13 -55.5t33 -40.5l24 27q17 20 16 26zM144 135q-9 12 -32 61q0 1 -17.5 -16t-17.5 -20
q0 -6 19.5 -16t26.5 -10z" />
    <glyph glyph-name="F" unicode="F" horiz-adv-x="694" 
d="M674 584q0 -26 -19 -50.5t-45 -24.5q-18 0 -35 14l-23 -64q-12 31 -27 65q-2 -2 -17 -10t-18 -8q-12 0 -25.5 10t-13.5 21v16q13 -4 24 -4q30 0 30 38q0 46 -36 46q-39 0 -39 -53v-186q4 -10 5 -10q4 -5 19 -5q34 0 34 30q0 16 -22 31q22 14 34 14q40 0 40 -46
q0 -1 -2 -23q-2 -2 61 -26q-22 -11 -64 -31q9 -14 9 -25q0 -21 -14 -36t-35 -15q-14 0 -27 16q24 14 24 33q0 32 -38 32q-7 0 -14.5 -10t-7.5 -18v-158h20q45 0 82 25q42 29 42 70q0 6 -7 21.5t-12 19.5v10q14 -3 23 -19.5t9 -33.5q0 -46 -40.5 -77t-87.5 -31q-22 0 -29 -1
v-53q0 -20 15 -33t36 -13q25 0 38 22q4 -5 4 -12q0 -16 -20 -28.5t-37 -12.5q-41 0 -67 33q-15 -11 -30 -49q-13 50 -30 51q-58 -50 -112 -50q-55 0 -95 28q-44 32 -44 85q0 71 69 90q-59 17 -59 59q0 7 5 27q-48 29 -76 94q-25 58 -25 120q0 143 111 224q99 73 247 73
q110 0 200 -45q112 -56 112 -157zM660 587q0 31 -17 55q-80 115 -258 115q-152 0 -246 -54q-118 -68 -118 -211q0 -114 63 -183v8q0 39 31.5 74t69.5 35q8 0 12 -1q-1 19 -1 84q0 13 -1 23v24q0 62 54 62q16 0 31.5 -13t15.5 -28v-254q30 -12 30 -35q0 -42 -30 -42v-71
q12 -6 38 -12q-1 101 0 406q0 34 -29 57t-64 23q-38 0 -66.5 -23t-28.5 -59q0 -22 26 -54q-5 -8 -10 -9q-29 26 -29 61q0 51 35.5 84t86.5 33q48 0 91 -41q12 16 29 72l9 -27q9 -26 24 -45q21 35 82 35q31 0 65.5 -26t41.5 -56q11 -43 39 -43q24 0 24 36zM296 309v-53
q16 1 16 23q0 26 -16 30zM199 327v16h-28q-21 0 -46.5 -11.5t-34.5 -26.5q6 -6 21 -16q23 38 88 38zM200 296q0 9 -1 12l-2 5q-21 0 -44 -9t-31 -22q45 -18 59 -18h18q0 6 1 10v22zM199 250q-54 1 -80 17q-4 -13 -5 -13q0 -32 49 -54v-6l-2 -3h38v59zM333 149q-14 5 -37 12
q-2 -45 -16 -78q-19 -45 -57 -45q-40 0 -54 18q30 14 30 40v79q-14 2 -16 2q-33 0 -56.5 -22.5t-23.5 -54.5q0 -40 40 -67q36 -23 78 -23q48 0 80.5 36t32.5 84q0 15 -1 19z" />
    <glyph glyph-name="G" unicode="G" horiz-adv-x="698" 
d="M666 260q0 -14 -4 -14q-1 0 -12 6t-20 6q-30 0 -30 -43v-136q0 -12 9 -31.5t21.5 -23t25.5 -11.5v-7q-7 -7 -14 -7q-19 0 -40 11.5t-27 27.5l-8 14q-15 -22 -28 -53l-24 51q-7 -5 -27 -20q-14 -5 -50 -19q-18 -8 -37 -9q-28 -2 -32 -3.5t-4 -7.5t-4 -6t-6 12
q-32 5 -100 27q-26 8 -59 36q-37 30 -52 58h-26q-14 0 -33 13q-23 16 -30 18q-7 -4 -7 -31q0 -82 73 -82q28 0 59 14q5 0 3 -5q-13 -22 -67 -22q-16 0 -26 3q-57 18 -57 95q0 22 8 40q-12 16 -26 39t-14 64q0 29 14 61t30 44q2 2 -14 33q-8 37 -8 69q0 138 122 227
q107 78 234 81q99 3 185 -51q96 -60 98 -155q1 -37 -16 -61q-19 -28 -55 -28q-26 0 -31 2q-8 2 -25 17q-1 -6 -14 -35q-6 -14 -6 -25q0 -34 46 -47v-9q-58 0 -58 52q0 18 7 33q0 20 -10 33l-9.5 -8t-16.5 -8q-21 0 -28 12q-4 7 -4 32q12 -9 23 -9q27 0 25 53q-1 45 -32 45
q-17 0 -30 -16.5t-15 -36.5v-143q29 8 57 42q3 0 6.5 -3.5t1.5 -6.5q-40 -48 -65 -42v-281q2 -15 11.5 -28.5t17.5 -13.5q5 0 13.5 9.5t12.5 9.5q0 -19 -13 -32.5t-30 -13.5q-14 0 -34 22q-22 -44 -22 -67q62 10 83 28q29 25 40 63q8 28 8 100q0 38 -30 38q-11 0 -24 -10
q-3 -2 -7 -5q-4 13 -3 17q11 44 49 44q20 0 36 -16q13 14 16 37l10 44q2 -20 8 -44q2 -8 14 -37q30 20 49 20q48 0 48 -40zM646 575q-11 86 -98 133q-72 39 -166 39q-111 0 -211 -59q-110 -65 -126 -170q-11 -75 4 -117q0 -14 5 -14q36 36 84 43q9 24 58 73q-15 20 -15 50
q0 40 24.5 65.5t61.5 25.5q35 0 51 -12q6 -4 17 -14q15 21 30 79h6q12 -35 34 -81q11 11 32 22.5t35 11.5q78 0 97 -72q2 -14 8 -42q8 -31 22 -31q21 0 35.5 24t11.5 46zM316 535q2 43 -20 62q-17 14 -37 14q-25 0 -43 -18t-18 -44q1 -37 13 -37q70 37 90 37v-5
q-56 -56 -56 -75q0 -9 29 -24.5t40 -10.5q3 1 2 36q-1 38 0 65zM250 365q0 12 -9.5 23t-21.5 12q-7 -19 -12 -70q43 10 43 35zM316 201v216q-43 5 -81 37q-14 -29 -11 -36q14 -12 21 -17q19 -19 19 -30q0 -38 -56 -59q-4 -23 -1 -70q52 -5 61 -45q2 -10 -8.5 -29t-24.5 -25
q4 -30 33 -65q48 32 48 123zM130 414q-25 -6 -45 -20.5t-20 -25.5q0 -6 16 -18q13 -11 22 -14q5 24 27 78zM254 190q0 34 -43 34q4 -28 6 -36q6 -27 14 -30q6 1 14.5 12.5t8.5 19.5zM335 91q-25 -20 -59 -23q30 -33 77 -47q2 3 2 8q0 17 -20 62zM104 227q-12 45 -2 94
q-4 3 -28 14q-7 10 -23 23q-33 -39 -35 -97q-2 -57 33 -86q13 27 55 52zM138 133q-14 27 -30 74l-10 -4q-6 0 -21.5 -15.5t-15.5 -22.5q0 -8 27 -20.5t37 -12.5q12 0 13 1z" />
    <glyph glyph-name="H" unicode="H" horiz-adv-x="626" 
d="M579 152q0 -13 -24 -71q-13 -32 -60 -62.5t-81 -30.5l-20 5v9q2 2 3 2q4 0 6 -1t6 -1q47 0 61 97q4 29 4 136q0 14 -27 24q-22 8 -39 8q-38 0 -50 -23q2 -5 5 -10q-1 -13 -5 -47l-5 -30q-2 -12 -32 -47q23 -14 53 -14q17 0 33.5 16t16.5 32q0 19 -19 19q-7 0 -13 -6
q5 -15 8 -15q2 0 4 1l3 -8q-3 -6 -10 -6q-8 0 -15 7t-7 14q0 29 32 29q12 0 22 -13.5t10 -26.5q0 -45 -45 -69q-20 -11 -44 -11q-29 -1 -37 -4q3 -4 15 -31t12 -30q0 -1 -1 -1l-3 3q-86 53 -142 53q-39 0 -72 -18q-11 -6 -60 -44q-8 -2 -8 6q0 4 24 44q18 31 53.5 56
t68.5 29q76 9 87 12q33 8 45 33t12 90v135q-22 -4 -22 -11l-1 -124q0 -45 -2 -52q-3 -10 -22 -35q-8 -10 -35 -15q-19 -2 -55 -10l-9 -3q9 12 21 45v127h-39q-67 0 -67 -45q0 -12 9 -23t20 -11q22 0 27 11q4 7 4 31l1 5q2 3 6 3q7 0 7 -13q0 -52 -47 -52q-21 0 -36 19.5
t-15 43.5q0 89 85 104l45 3q2 8 2 18q0 3 -2 37q-4 1 -28 9t-26 8q-5 0 -24 -7t-31 -7q-45 0 -76 32.5t-31 78.5q0 77 77 106q9 17 24 39q41 41 110 64q63 21 127 21q83 0 148 -35q79 -43 79 -120q0 -82 -63 -82q-6 0 -22 13l-24 -46l-22 45q-14 -14 -33 -14q-29 0 -29 29
q17 6 23.5 11.5t6.5 20.5q0 36 -34 36q-14 0 -13 1v-173q51 31 53 57l11 1q2 -2 2 -10q0 -18 -67 -63v-35q89 27 150 102q3 0 16 -8q56 -34 56 -154v-213zM549 634q0 67 -74 99q-55 24 -132 24q-69 0 -134 -21q-80 -25 -112 -71q14 -3 56 -25q31 -16 57 -16q13 0 19 13
t11 13q8 0 8 -13q0 -5 -8 -26q20 27 58 45t74 18q51 0 73.5 -12.5t54.5 -52.5q7 -6 20 -17h5q10 0 17 15t7 27zM345 474l1 171q-23 -5 -24 -36q-1 -26 -1 -96v-21l1 -25q1 -1 8 -1t15 8zM449 441q-6 -3 -90 -44q-1 -22 -1 -42q20 -17 52 -17q16 0 40.5 13t24.5 28
q0 14 -7 36q-8 26 -19 26zM344 419q0 31 -1 28l3 11h-1q-15 0 -23 -5q-1 -1 -1 -14q0 -23 1 -29zM474 262v82q-8 -4 -29 -16q-16 -9 -37 -8q-34 2 -52 14q0 -8 2 -66q17 16 59 16q19 0 57 -22zM229 585q-6 -10 -25.5 -20.5t-31.5 -10.5q-17 0 -43 16l-40 25q0 -30 22 -68
q24 -42 51 -43q7 7 6 25.5t4 20.5q12 -12 12 -24q0 -2 -4.5 -14t-4.5 -16q10 -6 44 -12q1 2 1 74v17q-1 5 4 17q2 6 5 13zM147 473q-59 36 -67 81q-3 17 -5 34q-6 18 -21 18q-28 0 -28 -50q0 -40 24 -66.5t63 -26.5q25 0 34 10z" />
    <glyph glyph-name="I" unicode="I" horiz-adv-x="406" 
d="M386 617q0 -55 -33.5 -92.5t-89.5 -42.5v-58q30 5 61.5 -13t31.5 -47q0 -53 -91 -84v-150q25 0 53 28.5t27 53.5q-2 33 -25 47q0 11 8 11q30 -6 33 -51q4 -63 -96 -103v-33q0 -59 45 -59q36 0 36 34q0 2 -4.5 13.5t-4.5 15.5l5 6q19 0 19 -37q0 -27 -19.5 -44.5
t-47.5 -17.5q-23 0 -52 20q-14 -17 -29 -38q-12 19 -28 39q-32 -19 -53 -19q-30 0 -49 18t-19 47q0 19 14 28h10q-10 -23 -10 -27q0 -18 12 -30t29 -12q47 0 47 67v15q-1 7 -1 15q-94 19 -94 142q0 25 13 64q-22 26 -29 54q-34 -7 -34 -36q0 6 7 -35l16 -30q-2 -2 -4 -2
q-10 0 -24 21t-17 46q-5 50 32 81q-10 21 -20 55q-3 36 -5 67q-5 89 53 163q61 78 152 78q72 0 123.5 -48t51.5 -120zM373 616q0 42 -42 85q-47 49 -99 49h-38q-107 0 -150 -93q-27 -58 -22 -119q8 -87 22 -105l13 7q28 23 108 19q2 13 2 21t-2 11q-39 9 -67 37
q-32 31 -32 68q0 29 21 54.5t49 25.5q33 0 48 -22q6 18 25 49q6 -15 28 -45q34 22 47 22q21 0 42 -17t21 -36q0 -21 -8 -32q-5 0 -10 5q4 12 1 29q-10 18 -30 18q-14 0 -25 -14.5t-11 -31.5v-106l16 3q24 4 41 17q52 38 52 101zM165 585q0 24 -12.5 41t-33.5 17
q-39 0 -39 -48q0 -29 27.5 -55t57.5 -29v74zM339 362q0 19 -19 32.5t-39 13.5h-18q-1 -94 0 -111l20 6q56 17 56 59zM165 297q0 23 -3 93h-15q-12 0 -41 -60q20 -18 27 -18q1 0 16 -8t16 -7zM127 390h-23q-17 0 -36 -8q1 -6 10.5 -22.5t14.5 -18.5q6 12 34 49zM165 132v147
q0 1 -29 15q-32 16 -38 21q-12 -21 -12 -59q0 -79 40 -107q3 -3 20 -11t19 -6z" />
    <glyph glyph-name="J" unicode="J" horiz-adv-x="530" 
d="M336 51q-5 0 -16.5 -36t-12.5 -37q-11 55 -29 73q-9 -8 -33 -26q-48 -32 -108 -32q-37 0 -66 14q-73 35 -75 128q-1 42 33 73.5t77 31.5q54 0 75 -50q6 -16 19 -49q7 -16 17 -16q5 2 21 13q0 -46 -36 -46q-23 0 -29 12q-7 -11 -29 -45q-1 4 -20 41l-27 -9q-45 -2 -47 48
q2 0 15.5 -5t15.5 -5q14 0 25.5 11t11.5 24q0 18 -12 29t-30 11q-28 0 -43 -26q-13 -22 -13 -52q0 -25 17.5 -52.5t39.5 -40.5q28 -16 57 -16q50 0 86 38t36 89q0 8 -1 17q-2 22 -1 127q-72 14 -96 33q-9 -6 -20 -21t-11 -21q0 -1 -3.5 -8.5t-3.5 -9.5q-1 2 -3 4.5t-3 3.5
q-8 18 -8 19q-2 17 -2 32q0 14 2 25q-50 30 -81 84t-32 113q-2 102 72.5 173t176.5 73q5 1 33 2q34 1 52 -3q69 -15 118 -62q55 -52 57 -118q2 -55 -37 -96q-35 -37 -91 -51q-4 -1 -11 -3q-1 -61 -1 -102q0 -42 1 -65q6 0 24 -2q45 -13 74.5 -52.5t31.5 -86.5q2 -48 -26 -95
q-35 -59 -91 -58q-7 -1 -24 5l1 10q14 -2 21 -2q89 0 105 141q-7 34 -22 61q-34 62 -92 63q-1 -9 -1 -45l1 -118q0 -8 7.5 -26t14 -22.5t13.5 -4.5q16 0 34 20q-34 -57 -61 -57q-18 0 -37 30zM487 609q-2 61 -62 108q-57 44 -120 44q-73 0 -78 -1q-34 0 -77 -17
q-75 -29 -101 -76q-38 -68 -36 -121q1 -35 5 -45q21 -57 29 -71q23 -41 66 -67q19 54 85 70q23 6 56 4v135q0 33 -6 44q-9 18 -37 18q-23 0 -41 -19t-18 -44q1 -83 93 -98v-17l-16 3q-5 1 -24 8q-71 25 -72 111q0 36 26 66t62 32q27 -7 53 -15q13 22 33 76q9 -26 33 -76
q9 3 24 11q14 5 28 5q30 1 50.5 -23.5t20.5 -55.5q0 -29 -18 -43q-8 0 -8 5q5 10 11 31q2 15 -9 27t-27 12q-35 -1 -45 -44q-4 -18 -3 -68q0 -15 -1 -45q36 11 52 19q27 12 44 32q29 35 28 85zM254 343h-41q-20 0 -39 -11q14 -16 74 -26l6 -1v38z" />
    <glyph glyph-name="K" unicode="K" horiz-adv-x="573" 
d="M565 63q0 -28 -24 -48t-53 -20q-19 0 -51.5 21.5t-27.5 21.5q-36 -20 -44 -20q-2 3 -20 11l11 8q31 23 37 59q1 20 2 59q1 2 1 9q0 18 -8 41q-11 27 -26 27q-26 0 -31 -15q-2 -10 -2 -45q0 -13 -2 -24q-7 -39 -36 -65q3 -3 9 -3q47 0 56 49h8q5 -31 -16 -58.5t-53 -28.5
q14 -18 15 -45q0 -9 -1 -17q-59 58 -139 58q-11 0 -25 -2q-51 -7 -116 -63q-5 5 8 31q12 21 20 30q12 14 36 39.5t39 33t31 22.5t17 26t1 66q0 44 -1 45q-4 6 -40 6q-37 0 -62 -15q-29 -18 -29 -53q0 -18 14.5 -32t30.5 -14q13 0 32 12l19 12q1 -2 2 -12q-29 -28 -54 -27
q-12 0 -34 14t-26 24q-13 31 -13 50q0 42 30 77t78 50q14 5 59 6v29l-43 8q-9 2 -36.5 14.5t-29.5 12.5q-8 0 -8 -24q-3 -21 19 -48l-5 -8q-22 10 -27 53q-2 12 2.5 26.5t4.5 9.5q0 2 -2 2q-12 4 -40 34q-12 13 -22 52q-9 34 -9 57q0 139 162 208q42 18 143 18q81 0 161 -43
q40 -22 65 -62t25 -84q0 -37 -21 -63q-22 -29 -58 -29q-18 0 -24 3l-18 12l-30 -60h-2l-22 60q-19 -9 -28 -9q-15 0 -27 12t-12 26q-2 -2 11 -2q22 0 39 18q9 10 9 28q0 15 -11.5 28t-26.5 13q-27 0 -38 -20q-5 -12 -5 -40v-83q12 -4 26 -13q25 -17 26 -39t-13.5 -38
t-36.5 -19v-36l173 130q8 -5 16 -45q3 -17 9 -52q5 -60 27 -60q1 0 7.5 2.5t10.5 2.5q4 -4 4 -8q0 -10 -12 -20t-23 -10q-5 0 -22 6l-7 -62q-15 18 -36 45q-6 -8 -22 -17q-22 -12 -25 -15q3 -6 43 -16q24 -9 41 -36.5t20.5 -54t5.5 -66.5q7 -43 28 -43q16 0 30 14l7 15
q5 -5 5 -15zM532 619q0 10 -9 37q-21 63 -100 97q-64 28 -138 26q-236 -6 -268 -155q0 -3 -3 -15.5t-3 -14.5q0 -53 17 -88q12 -24 45 -53q31 31 34 33q17 12 78 29l1 56q0 22 -7 41q-13 33 -40 33q-29 0 -40 -20q-1 -5 -4.5 -15.5l-5.5 -16.5q0 1 -3.5 0.5t-4.5 -0.5
q0 34 1 37q16 55 70 55q29 0 57 -22l33 77l29 -78q32 25 72 23q38 -2 49 -5q24 -7 40 -31q5 -7 14 -38q4 -9 10 -28q14 -27 27 -27q23 0 37 21q12 18 12 42zM319 455q-2 29 -36 42v-75q37 10 36 33zM399 368q0 7 -3 25q-3 15 -2 24q-16 -12 -65 -52v-104h39q31 0 31 107z
M185 411v86q-72 -17 -98 -53l13 -7q41 -22 60 -22zM314 254l1 101q-12 -4 -30 -18v-65q0 -6 -2 -30q-1 -16 -2 -31q-1 -18 -8 -30q-9 -18 -39 -37q-12 -7 -35 -21q45 -5 50 -5q33 0 51.5 22.5t14.5 60.5q-22 1 -22 24q0 7 8 13q10 10 13 16z" />
    <glyph glyph-name="L" unicode="L" horiz-adv-x="588" 
d="M566 436q0 -26 -16 -49q-9 6 -9 7q13 20 13 36q0 6 -1 8q-1 12 -3 17q-3 9 -9 12q-18 10 -48 14q22 -26 22 -63q0 -20 -21.5 -54.5t-21.5 -29.5q0 -2 11 -20q7 -12 17 -30q10 -22 1 -44q-4 -8 -6 -14q33 -31 33 -67q0 -38 -30 -64.5t-69 -26.5q-15 0 -26 4q4 0 4 -5
q0 -14 25 -27q16 -9 28 -12h14q24 0 40 14t16 36q0 13 -6 26q0 6 5 6q14 0 14 -36q0 -38 -34 -58q-28 -17 -59 -17q-26 0 -88 35q-2 -6 -26 -49h-2l-4 10.5t-5 10.5q-25 60 -122 60q-112 0 -159 -80l-13 -16q1 -1 1 18q1 49 57 93q38 30 75 41q17 5 49 20q30 20 34 39
q6 30 6 73q-7 10 -38 10q-24 0 -47 -9q-30 -12 -34 -31q-11 8 -11 13q0 68 66 99q-30 9 -34 33q-5 -2 -22 -6q-30 -8 -49 -35t-19 -55q0 -73 79 -80q32 -3 76 36l6 -6q-37 -48 -85 -44q-49 4 -78 41q-28 34 -28 80q0 97 84 140q-25 34 -22 72q-39 0 -71 39t-32 86
q0 76 61 116q40 26 101 26q36 0 75 -11q-3 3 49.5 18.5t75.5 15.5q74 0 128 -37q57 -40 73 -110q2 -9 2 -20q0 -43 -30 -71.5t-71 -28.5q-68 0 -83 103q-1 8 -10 15q-4 0 -11 -7q2 -112 0 -339q25 3 71 16q12 5 20 12q-2 7 -18 39q-8 16 -8 40q0 28 9 43q7 12 31 31
q-10 9 -22 9q-18 0 -32.5 -13.5t-14.5 -31.5q2 -7 9 -25l-11 -6q-12 17 -10 32q0 23 18 40t40 17q14 0 29 -7t14 -7q36 4 61.5 -10.5t25.5 -49.5zM541 639q0 10 -2 22q-9 51 -70 87q-54 32 -110 32q-89 0 -105 -25q8 -6 23 -19q17 -19 28 -54l-13 -3q0 13 -19 39
q-21 30 -35 28q-41 -6 -78 -72q-32 -58 -40 -118q0 -2 -1 -12.5t-1 -13.5h24q47 0 105 57q73 72 121 92q14 6 30 6q53 0 71 -43q6 -18 21 -62q4 -10 16 -10q15 0 26 28q9 24 9 41zM501 423q0 10 -6 31q-8 27 -21 25q-40 -6 -40 -65q-3 -34 25 -69l13 8q29 23 29 70zM211 757
q-20 7 -58 5q-60 -3 -99.5 -36t-39.5 -83q0 -40 22 -73q24 -38 62 -38q-3 66 41 143q37 65 72 82zM252 539q-51 -22 -67 -22q-39 -10 -69 -7l2 -18q0 -23 17 -45q56 20 92 20h25v72zM474 221q-14 8 -30 8q-25 0 -36 -9q-6 -5 0 -16q5 -4 23 -4q12 0 26 6.5t17 14.5zM508 182
q0 5 -8 23q-7 6 -13 6q15 0 -16 -13.5t-43 -13.5q-38 0 -38 29t52 29q5 0 19 -3q2 0 10 -4t10 -4q9 0 9 27q0 16 -10 39q-12 27 -25 27q5 0 -38 -15q-15 -5 -63 -14q-1 -7 -1 -59q0 -74 35 -91q7 1 24 -1q-14 -14 -29 -11q-50 10 -82 64q-4 -8 -16 -26q-9 -9 -45 -27
q30 1 85.5 -13t82.5 -14q36 0 55 6q30 10 44 41q1 2 1 18zM251 345l-2 29q-53 0 -82 -3q7 -8 42 -29q32 -1 42 3z" />
    <glyph glyph-name="M" unicode="M" horiz-adv-x="829" 
d="M799 569q0 -116 -113 -169q-6 -2 -10 -5l2 -287q0 -33 17 -39q9 -9 19 -13l71 59l8 -8q-48 -46 -130 -113q-9 -9 -21 -9q-17 0 -40 32.5t-23 50.5v323q-21 6 -52 21v-333q-32 0 -82 -35q-11 -8 -22 -27q-17 -30 -18 -31q-3 0 -22 26q-22 28 -28 32q-30 23 -45 23
q-31 8 -33 9l-1 345q-2 -1 -10 -9q-16 -6 -42 -15v-157q0 -59 -18 -90q-20 -34 -72 -52q42 0 94 -29l36 35q11 -5 8 -8q-35 -45 -113 -114q-41 35 -82 35q-19 0 -40 -12q-17 -12 -35 -24q-6 0 -6 3q1 4 6 15q32 71 119 99l-26 6.5t-34 22.5q68 6 68 109q0 45 -3.5 49
t-46.5 4q-42 0 -79 -40h-2q1 -1 1 17q0 49 37.5 79t86.5 27q2 2 2 13q0 10 -2 12q-119 41 -119 162q0 104 70 172.5t175 72.5q42 2 81 -9q31 -8 65 -31q-4 0 42 19q41 17 97 17q152 0 226 -108q39 -57 39 -123zM785 565q0 113 -109 173q-63 34 -144 34q-52 0 -95 -15l-23 -8
q22 -13 65 -73q3 -4 11 -15q23 6 29 6q67 0 106.5 -33.5t44.5 -95.5q2 -32 8.5 -37.5t17.5 -14t16 -13.5q-37 -16 -37 -46q0 -14 1 -15l10 3q42 13 70.5 59t28.5 91zM477 655q-24 34 -36 49q-24 29 -46 39q-21 -11 -45 -37t-32 -47q5 -3 46 -27l36 67q16 -30 32 -67
q23 10 45 23zM584 552q0 9 -4 34q-2 12 -26 36t-35 22l-19 -4l6 -9q23 -35 21 -207q30 -18 51 -18q4 0 1 33q0 14 -31 36q8 4 22 13q14 17 14 64zM513 496q0 31 -7 73q-10 59 -20 63q-36 -25 -36 -67q0 -84 40 -84q5 -28 23 -49v64zM513 420q-10 2 -20 18.5t-12 32.5
q-31 -1 -31 -63v-44h42q21 0 21 35v21zM354 536q0 82 -46 98q-17 -34 -17 -103v-85q13 10 21 16l4 -10q-9 -7 -27 -23q-2 -14 -2 -22q0 -45 27 -45h38v46q0 38 -8 49q-13 9 -22 17q32 41 32 62zM378 752q-43 18 -68 18q-7 0 -31 1t-32 1q-18 0 -38 -4q-80 -16 -132 -67
q-58 -56 -58 -134q0 -67 29 -103q41 -52 75 -52v17q0 21 -7 28q-4 3 -12.5 8.5t-13.5 7.5q9 9 31 35q5 54 12 72q16 39 55 62.5t82 23.5q19 0 35 -3q8 23 42 59q27 29 31 30zM293 640q0 4 -15 4q-50 0 -50 -73q0 3 -2 -25q-1 -18 0 -31q2 -16 17.5 -29.5t15.5 -8.5
q-35 -6 -35 -50v-17q26 7 52 27l-1 77q-1 43 18 126zM514 89q1 42 1 188l-65 1v-65q0 -9 -1 -20v-28q0 -79 32 -84q15 0 33 8zM289 278v-194q7 -7 20 -4q31 8 38 25q5 12 5 41v132h-63z" />
    <glyph glyph-name="N" unicode="N" horiz-adv-x="675" 
d="M661 528q0 -18 -17.5 -33t-36.5 -15q-28 7 -35 32l-4 14q5 3 15 5q5 -36 29 -36q8 0 17 10.5t9 18.5q0 18 -14 30t-35 12q-65 0 -65 -94v-58q12 2 19 2q39 0 68.5 -24t29.5 -62q0 -55 -36 -83q2 -10 3 -33q-1 -16 -11 -31t-19 -16l-10 5q25 13 25 41q0 3 -6 15
q-43 -34 -63 -42v-56q32 -5 59 -42l60 42l7 -11q-5 -5 -158 -124l-5 4q-6 19 -31 32q-21 11 -44 11q-76 0 -93 -47l-10 -10l-11 5q19 64 61 100q18 16 41 27l27 9v48q-62 18 -62 50q0 42 65 65v72q-32 -17 -41 -21q-25 -10 -56 -13h-24v-171q0 -81 -29 -119
q-36 -48 -126 -48q-51 0 -89 21q-51 28 -54 84q-2 41 22.5 68.5t67.5 27.5l18 -4l-16 -8q-40 -30 -42 -86q-1 -40 26 -64.5t67 -24.5q94 0 122 78q17 47 15 162q-1 61 0 84q-12 5 -45 12l2 -185q-5 -50 -14 -66q-29 -49 -116 -49q-3 0 -13 4t-12 4l-1 6q58 0 58 114
q0 12 -1 35t-1 34q0 21 -24 21q-4 0 -13 -1t-10 -1q-21 0 -37 -10q-19 -11 -17 -31q0 -6 -2 -12q-22 16 -22 52q0 59 60 89q26 8 63 6v8l1 5l-17 7q-70 37 -97 77q-30 44 -30 119q0 123 109 194q94 61 225 63q92 1 161 -41q75 -46 74 -124q0 -13 -9 -34t-19 -30q5 1 25 10
q5 2 30 0q23 -1 42.5 -26t19.5 -49zM624 328q0 75 -100 68v-103q22 2 42 -12q8 -6 29 -22q11 5 21 31q8 22 8 38zM536 686q0 59 -73 88q-53 21 -122 21q-133 0 -217 -49q-105 -61 -105 -182q0 -93 78 -153q25 -20 49 -29v54q0 16 -3 22q-7 11 -12 19q-1 2 -13.5 7.5
t-12.5 9.5q15 8 35 30q7 93 54 133t143 41q35 0 72.5 -14.5t55.5 -37.5q15 -19 21 -19q19 0 34.5 20t15.5 39zM432 382q-2 113 0 185q-18 110 -98 110q-86 0 -86 -98q0 -44 8 -55l13 -13q9 -9 9 -15q-31 -18 -31 -88v-28q0 -7 1 -15v-10q7 -5 43 -10v157q0 69 60 69
q20 0 33 -16.5t13 -38.5q0 -43 -53 -43q-10 0 -21 10v6l1 2q2 0 13 -2.5t15 -2.5q11 0 20.5 9.5t9.5 20.5t-11.5 25t-21.5 14q-35 0 -38 -31q-2 -2 -2 -26v-153q37 -4 81 15q31 14 42 22zM566 230q10 6 17 13l-14 14q-6 6 -45 22v-75q20 9 42 26zM430 275q-12 -6 -29 -16
q-20 -17 -20 -33q0 -12 10 -22t22 -10l17 -4q-1 29 -1 50q0 22 1 35z" />
    <glyph glyph-name="O" unicode="O" horiz-adv-x="633" 
d="M593 654q-3 -53 -27 -79l-10 1q16 52 16 67q0 55 -37 101t-91 48q-46 1 -72 -17l-43 -43q27 -13 60 -63q18 14 41 13q76 -4 124 -118q40 -94 37 -190q-11 -353 -206 -387l8 -14l-14 -2q-1 2 -4.5 7.5t-5.5 8.5q-72 8 -130 68q-66 70 -77 176q-1 14 -6 40q-106 4 -119 -71
q-5 -29 18.5 -51.5t53.5 -22.5q22 0 44 15q6 -6 7 -9q-24 -24 -54 -24q-44 0 -73 36.5t-28 88.5q1 80 62 115q25 14 87 25v17q-10 6 -27 12q-47 17 -75 78q-26 55 -23 109q4 69 58 119q51 49 121 55q11 1 25 1q27 0 67 -19q47 41 65 50q26 13 79 13q58 0 105 -48t44 -106z
M398 511q0 82 -24 125q-33 -34 -33 -113q0 -64 31 -64q10 0 19 21q7 18 7 31zM413 657l-13 -1l1 -7q22 -51 22 -121q0 -48 -32 -80q-1 0 -9 -2.5t-10 -2.5q-24 0 -37 32q-10 25 -10 53q0 68 43 126q-2 12 -49 64q-28 -35 -43 -122q-12 -68 -12 -131v-69q3 3 50 -9
q55 -14 90 -40q48 -34 46 -82q-1 -38 -29 -67l4 -16q-2 -24 -24 -83q-19 -53 -16 -90l14 2q51 7 80 113q21 78 21 145q0 156 -6 207q-17 144 -81 181zM289 733q-15 4 -34 11q-24 5 -37 4q-69 -6 -118 -49q-54 -47 -54 -114q0 -60 26 -105q29 -49 83 -66l-1 66q-1 43 -14 77
q-18 47 -54 47q-1 0 -8 -2.5t-9 -2.5l-5 8q22 13 41 13q41 0 70 -40q6 -8 27 -41q21 108 87 194zM397 206q-3 5 -16.5 11.5t-19.5 6.5q-22 0 -22 -12v-2q1 0 4.5 -4t5.5 -4t11 -2t11 -2q12 0 26 8zM434 265q0 80 -170 104q0 -42 2 -124q6 -117 37 -178q6 -12 24.5 -32
t27.5 -20q2 0 8 -2h6q-1 31 19.5 86.5t20.5 76.5q0 7 -3 13h-9q-3 0 -14.5 -3.5t-15.5 -3.5q-17 0 -31 7q-18 9 -18 24q0 26 43 26q16 0 47 -20q11 0 19 18q7 15 7 28z" />
    <glyph glyph-name="P" unicode="P" horiz-adv-x="645" 
d="M619 526q0 -97 -75 -145q-62 -40 -164 -40q-17 0 -39 2v-123q26 5 28 7q12 8 17 12l-3 20q-3 23 13 43.5t40 20.5q6 0 15 -11.5t9 -17.5q0 -35 -50 -65q18 -93 18 -103q0 -20 -6 -33q-4 -8 -21 -28q20 -7 27 -7q48 0 48 42q0 25 -32 51q2 2 8 11q10 0 27 -26.5t17 -38.5
q0 -49 -26 -61q-18 -9 -92 -23q11 -23 15 -56l-28 24q-44 25 -81 31q-29 5 -88 5q-28 0 -61 -11q-10 -3 -58 -21l-3 5q32 57 80 89q54 35 64 49q26 35 26 119v82h-50q-36 0 -54 -11q-13 -8 -25 -17q15 -21 118 -75l-3 -12q-23 2 -66.5 28.5t-62.5 46.5q-14 -8 -18 -38
q0 -29 19.5 -46.5t50.5 -17.5q25 0 47 18q2 -2 7 -11q-29 -23 -59 -23q-44 0 -70.5 30t-26.5 75q0 32 14 60q-68 71 -68 172q0 135 79.5 219t214.5 84q166 0 210 -146q50 -13 84 -51t34 -88zM487 610q0 11 -27 24t-40 13q-79 0 -79 -82v-85q35 10 86 34q17 11 38.5 44
t21.5 52zM516 524q0 58 -16 65q-8 -20 -26 -46q-21 -29 -36 -39q-19 -12 -31 -18.5t-32 -11.5l-33 -9q0 -90 1 -92h30q53 0 100 48q43 44 43 103zM482 671q-11 51 -73 83q-54 28 -112 28q-125 0 -199.5 -73t-82.5 -203q-2 -25 18 -84q22 -64 40 -69q13 28 58 52q42 22 76 22
q7 0 35 3v127q0 77 -53 77q-22 0 -38 -15t-16 -37q0 -72 87 -102v-12l-15 2q-32 4 -61 41t-29 68q0 89 71 98q54 7 74 -38q10 33 31 88q1 1 41 -84q35 36 98 36q9 0 27 -4t23 -4zM442 285q0 12 1 11q-2 8 -15 9q-10 1 -17.5 -9t-7.5 -23q0 -21 4 -24q35 15 35 36zM401 163
q0 45 -8 59q-14 -11 -52 -18q2 -56 -50 -86q-17 -10 -37 -22q29 6 45 6q11 0 25 -5t17 -5q26 0 43 21t17 50z" />
    <glyph glyph-name="Q" unicode="Q" horiz-adv-x="697" 
d="M669 319q0 -25 -24.5 -54t-49.5 -30l-4 10q27 9 44.5 31t17.5 49q0 36 -23 62.5t-58 26.5q2 -206 -66 -322q14 -11 30 -10q73 6 73 106v8q22 -16 22 -62q0 -16 -20 -59l18 2q18 7 32 47q6 -21 6 -24q0 -47 -43 -75q-36 -24 -86 -24t-85 35q-14 -11 -52 -29v-34l-42 30
q-179 2 -195 290l-24 2q-37 3 -65 -16q-32 -21 -32 -57q0 -57 60 -74v-8q-38 -2 -68 35t-30 76q0 65 47 102.5t112 34.5v30q-63 8 -100 65q-35 54 -35 118q0 74 59 128.5t133 54.5q55 0 98 -30q67 49 121 49q70 0 121.5 -45.5t51.5 -114.5q0 -42 -28 -88l-15 7q26 47 26 81
q0 54 -44 97.5t-98 43.5q-66 0 -111 -46q17 -9 48 -61q17 11 28 11q79 0 118 -93q23 -55 35 -161q42 -7 69.5 -39.5t27.5 -75.5zM403 561q0 53 -20 88q-13 -7 -24 -41q-10 -30 -10 -49q0 -18 5 -39q7 -28 21 -28q11 0 20 29q8 25 8 40zM484 438q0 56 -16 130q-22 99 -55 99
l-12 -4q21 -58 21 -106q0 -28 -10 -53q-13 -33 -35 -32q-48 3 -48 91q0 58 46 104q-3 9 -19.5 34.5t-22.5 25.5l-2 -1q-45 -57 -64 -169q-3 -19 -11 -133q59 -7 65 -9q32 -8 62 -27q11 8 32 24q29 21 69 26zM305 742q-40 28 -86 28q-70 0 -121 -55.5t-51 -126.5
q0 -44 38 -94q40 -53 82 -54q7 46 7 62q0 56 -9 83q-12 36 -50 66l-4 4h9q55 0 80 -66q54 110 105 153zM395 311q-2 8 -14 46q-14 -17 -14 -53q0 -27 14 -29q8 8 11 13.5t3 20.5v2zM484 418q-33 -6 -50 -14t-40 -31q22 -28 22 -61q0 -59 -35 -59q-16 0 -26 18q-8 14 -8 32
q0 43 22 71q-41 32 -91 32h-24q5 -162 10 -204q19 -151 75 -165q-22 31 -22 65q0 23 20.5 40t46.5 17q46 0 76 -41q24 42 24 226v74zM429 62q0 14 -24 38t-38 24q-31 0 -31 -31q0 -16 16 -37t31 -21q8 0 27 10t19 17z" />
    <glyph glyph-name="R" unicode="R" horiz-adv-x="641" 
d="M621 48q0 -29 -20.5 -47.5t-50.5 -18.5q-47 0 -76 50q-43 -31 -71 -31l-7 1q35 44 35 141q0 96 -13 144q-23 85 -91 93h-13q3 -144 1 -165q19 2 27 5q-3 9 -3 18q0 29 22 42q5 3 9 3q13 0 13 -26q0 -31 -25 -47q9 -30 9 -50q0 -49 -44 -78q12 -6 16 -6q37 0 46 36l2 -1
l1 -9q0 -49 -74 -66q19 -26 17 -59q-52 34 -65 39q-33 16 -77 16q-67 0 -93 -17l-39 -42l-2 14q0 50 30.5 86.5t79.5 38.5q1 1 41 1q-37 0 -48 20q24 -3 41 17.5t17 50.5q-31 10 -70 42q-44 36 -58 68q-9 -13 -11 -17q-5 -12 -6 -33q-2 -57 95 -57v-14h-24q-50 0 -81.5 30.5
t-31.5 78.5q0 35 22 69q-44 90 -44 187q0 120 85 191q79 66 201 66q64 0 123 -35q67 -40 70 -102q10 -5 30 -13q31 -18 47 -42q24 -36 24 -94q0 -77 -46 -122t-122 -45l-15 3q31 -21 93 -61q28 -26 33 -89q0 -34 3 -101q5 -78 44 -83q28 -4 31 44q13 -6 13 -24zM466 599
q2 23 -29.5 41.5t-55.5 18.5q-67 0 -67 -96v-87l15 3q129 26 137 120zM488 530q0 36 -10 46q-19 -91 -143 -114q-9 0 -21 -4v-60q26 -2 23 -2q66 0 108.5 37t42.5 97zM472 679q-36 99 -187 103q-112 3 -184 -57q-76 -63 -76 -174q0 -29 12 -89q14 -70 28 -80q25 34 91 42h56
v38q-51 4 -83 42t-32 91q0 40 24.5 66t66.5 23q24 -2 50 -29q22 46 31 83q6 -26 26 -83l12 12q25 25 86 25q27 0 79 -13zM212 484l-1 95q-1 65 -43 65q-21 0 -37 -15t-18 -36q-4 -36 25 -73t65 -37q8 0 9 1zM347 207q-17 -8 -35 -10q-1 -7 -4 -23q-31 -51 -97 -61
q49 -6 77 -5q64 3 64 81q0 6 -5 18zM214 222v119h-34q-69 0 -78 -18q15 -25 48 -58q41 -41 59 -41q1 0 2.5 -1t2.5 -1zM353 223q-2 12 0 23q4 24 15 22q7 -1 1 -26q-3 -12 -16 -19z" />
    <glyph glyph-name="S" unicode="S" horiz-adv-x="553" 
d="M521 605q0 -41 -20 -69q-23 -32 -62 -32q-9 0 -45 18q-20 -24 -15 -47h-13q-1 5 -4 30q-2 19 -11 26q-37 -15 -56 -15t-32 10q-28 -25 -47 -31q-13 -4 -57 -4h-9q10 -43 80 -43q40 0 74 45q21 -7 10 -55q21 11 39 11q7 0 13 -2l-23 -28l-3 -7q82 -4 128 -53t46 -130
q0 -124 -88 -190q-79 -58 -207 -58q-8 0 -6 -10t-2 -14q-8 2 -12 11.5t-2 18.5q-25 -2 -65 19q-36 19 -56 40q-59 -5 -102 38t-43 102q0 62 36.5 100t97.5 46q14 1 43 2q-3 3 -4 -16q-64 0 -108 -31q-49 -36 -49 -98q0 -50 36.5 -88.5t86.5 -38.5l-14 24q-15 26 -15 75
q0 54 35 89t89 34q58 -2 90 -45q15 -21 32 -80q12 -43 26 -43q7 -3 15 5.5t8 22.5q0 20 -24 36q-1 5 -1 7q3 2 7 4q11 0 21.5 -16t10.5 -30q0 -22 -15.5 -40t-36.5 -18q-19 0 -43 18q-29 -39 -36 -100h26q73 0 119.5 49.5t46.5 123.5q0 59 -29 97q-32 42 -89 42
q-16 0 -38 -40q-9 8 -9 22q0 7 3 14q-24 -5 -38 8q6 3 19 8q1 1 7 15q-3 1 -26 6q-70 2 -112 52q-40 46 -43 118q-51 32 -51 87q0 97 93 150q78 45 179 45q89 0 163 -53q81 -58 81 -144zM137 152q-15 11 -15 23q0 6 5 11q10 -4 10 -16v-18zM505 602q0 71 -77 121
q-68 45 -143 45q-262 0 -262 -159q0 -38 30 -67l7 -3q7 71 65 109q51 34 126 34q96 0 145 -55q15 -17 33 -62q13 -34 28 -34q48 0 48 71zM328 586q0 30 -24.5 50t-57.5 20q-46 0 -74 -35.5t-28 -82.5q0 -24 5 -32q38 0 61 5q10 2 23.5 13t13.5 17q0 3 -5.5 16t-5.5 15
q0 19 15 19q13 0 18 -26.5t17 -26.5q18 0 30 14.5t12 33.5zM184 193q0 24 -14.5 43t-35.5 19q-32 0 -53 -29.5t-21 -67.5q0 -20 7 -50q8 -38 21 -38q16 0 30 22q12 19 12 30l-12 21t-12 37q0 24 17 24t25 -23q1 -6 6 -38q30 11 30 50zM211 44q0 22 -9 77l-32 -7h-24
q-6 -9 -18 -25q-19 -26 -32 -31q12 -18 48 -35q33 -16 57 -18q2 0 6 18t4 21z" />
    <glyph glyph-name="T" unicode="T" horiz-adv-x="726" 
d="M721 610q0 -35 -9 -52q-3 -6 -33 -41q15 -18 15 -47q0 -44 -31.5 -72.5t-78.5 -28.5q-20 0 -48 8q-36 10 -37 25l10 10q48 -29 58 -29q41 0 72 20q37 23 37 61q0 33 -15 43q-31 -21 -72 -21q-54 0 -54 36q0 31 54 31q46 0 76 -24q43 22 40 79q-5 97 -114 141
q-77 31 -191 31q-62 0 -132 -25q-82 -29 -108 -73q18 2 39 2q50 0 150 -15t150 -15q52 0 98 36q-5 -54 -48 -90.5t-98 -36.5q-47 0 -138.5 15t-138.5 15q-28 0 -45 -12q-6 -10 -6 -26q0 -27 21 -58t46 -33q69 75 164 90l-1 -5q-66 -42 -97 -100q48 -1 132.5 54.5t121.5 55.5
h4l-2 -10q-43 -16 -53 -25q-18 -16 -19 -54l-3 -146q1 -1 1 -3q37 -4 68 -48t31 -82q0 -57 -33 -57q-40 0 -40 67q0 50 20 76q-15 17 -46 28v-134q0 -108 50 -108q25 0 55 42l8 -1q-32 -71 -84 -71q-17 0 -64 27l-34 -41q23 -18 63 -18q81 0 123 56q38 50 38 133
q0 107 -43 107q-16 0 -32 -10l-10 10q18 19 52 19q50 0 75 -44q21 -36 21 -90q0 -90 -72 -147q-67 -52 -159 -52q-44 0 -86 12q-46 -18 -87 -18h-11l-2 4q12 6 27 13q10 6 23 19q-109 62 -141 168q-30 -19 -30 -71q0 -32 18 -56q19 -27 50 -27q11 0 32 23l10 -6
q-16 -30 -44 -30q-39 0 -61 32q-20 28 -20 69q0 55 37 86q-7 32 -7 78q0 104 46 165q-68 53 -68 111v20q-82 -34 -82 -99q0 -27 23 -44.5t52 -17.5q10 0 26 16t21 27l6 -11q-30 -47 -65 -47q-33 0 -56 25.5t-23 58.5q0 74 29 118.5t96 74.5q29 66 133 105q86 32 170 32
q100 0 183 -50q97 -58 97 -153zM494 265q-14 -17 -14 -64q0 -11 7.5 -29t16.5 -20q17 14 17 38q0 14 -9 40.5t-18 34.5zM235 256q-1 -25 28.5 -118t49.5 -93q12 0 21 55q7 45 7 132v67q-36 1 -106 -43zM341 454q-29 -8 -91 -21q-18 -35 -16 -112l1 -46q21 24 106 40v139z
M551 521q0 16 46 16q28 0 50 -15q-22 -19 -50 -19q-46 0 -46 18z" />
    <glyph glyph-name="U" unicode="U" horiz-adv-x="700" 
d="M700 553q-3 -90 -47 -131q21 -25 21 -72q0 -107 -115 -125q-4 -202 -136 -233q-38 -9 -54 -9l-2 -20h-14v20q-56 8 -77 19q-30 16 -49 58q-12 -33 -25 -67q-9 17 -26 70q-37 -18 -43 -18q-27 0 -46 17t-16 40q4 28 16 39q-1 -8 -1 -20q0 -45 36 -45t36 68v24
q-161 17 -161 145q0 72 42.5 111.5t118.5 35.5v31q-45 5 -74.5 36.5t-30.5 75.5q-2 98 112 153q84 41 200 45q121 5 222 -57q117 -72 113 -191zM627 419q0 7 -19 21.5t-27 15.5l-22 4v-78l9 1q22 10 34 16q25 12 25 20zM657 346q0 40 -19 59q-23 -16 -50 -28q-4 -3 -29 -9
v-127l22 2q25 5 50.5 33t25.5 70zM332 585q0 53 -36 53q-35 0 -35 -69v-63l20 5q13 3 29.5 18t18.5 27q3 17 3 29zM461 372l-1 90l-30 -2q-15 -2 -28.5 -16.5t-13.5 -29.5t15.5 -28.5t30.5 -13.5h27zM458 219q-27 -1 -36 -5q-51 -10 -51 -106v-101q8 4 22 4q4 0 8 3
q33 29 43 46q13 22 13 63zM158 184v183q-3 3 -36 3q-40 0 -67 -15q-35 -18 -35 -54q0 -45 29.5 -75.5t77.5 -36.5q19 -3 31 -5zM684 567q0 100 -113 156q-90 45 -198 45q-128 0 -195 -25q-104 -39 -109 -144q-1 -30 28.5 -60t60.5 -34l2 66q2 63 -20 63q-17 0 -25.5 -15
t-5.5 -33q-19 7 -19 28q0 26 16.5 42t39.5 16q27 0 44 -26l22 50q6 -20 22 -53q15 27 49 27q31 0 49 -27q15 -24 15 -57q0 -81 -86 -95q-1 -7 -1 -33l1 -263q45 23 51 27q28 21 29 63q2 45 -41 68l12 8q21 -2 33 -29q11 -23 11 -47q0 -70 -95 -104l-3 -34q0 -138 81 -138
l14 -2v100q0 57 24 91q28 40 83 37q1 39 0 121h-14q-28 0 -50 15q-26 17 -25 43q1 47 38 66q27 14 51 9v128q-11 17 -18 17q-11 0 -18 -15.5t-4 -27.5h-12q-7 15 -7 30q0 19 13.5 32t33.5 13q28 0 38 -16l25 53q10 -37 22 -53q20 20 40 20q14 0 27 -14t13 -28q0 2 -4 -23h-8
q-1 2 -7 16q-4 10 -13 10q-18 0 -22 -13q0 -1 -2 -29q2 -43 0 -102q58 -8 86 -53q41 53 41 133z" />
    <glyph glyph-name="V" unicode="V" horiz-adv-x="647" 
d="M632 614q1 -37 -21 -56l-8 5l8 12l2 20q-3 16 -6.5 20t-17.5 6q4 -27 4 -40q0 -126 -62 -173q8 -72 8 -56q0 -65 -22 -112q-16 -34 -67 -94q13 -22 13 -41q0 -42 -24 -65q-8 -8 -50 -30q-33 -17 -43 -41l-9 2q1 24 30 43q13 9 50 25q29 32 29 56q0 3 -11 38
q-39 -28 -96 -41q-23 -75 -42 -116h-8q-7 9 -17 51q-13 53 -16 60q-2 -2 -7 -2q-19 0 -39 22t-20 41q0 40 31 62q-13 45 -33 108q-2 7 -11 28q-1 3 -5 8q-5 13 -13 19q-18 18 -49 18q-32 0 -56 -18q-27 -20 -27 -51q0 -40 37 -74q43 43 72 43q14 0 25 -10t11 -24
q0 -38 -53 -38q-5 0 -20 3t-19 3q-3 0 -6 -18q0 -36 7 -85.5t7 -59.5q0 -60 -61 -75l-14 4q21 4 37 25.5t16 45.5q0 21 -4 62t-4 62q0 22 3 44q-60 41 -60 99q0 69 38 111.5t103 41.5l-24 94q-23 59 -64 59q-35 0 -35 -34q0 -32 28 -48l-4 -8q-20 2 -33 21t-13 41
q0 31 16.5 50.5t45.5 19.5q26 0 53 -15v96q35 -63 56 -78q70 121 216 121q58 0 114 -35q61 -37 75 -90q21 -2 39.5 -21.5t19.5 -40.5zM578 572q3 31 -7 51l-5 1q-33 1 -54 -22q-12 -14 -28 -53l-19 -47l1 -1q12 -11 36 -34q20 -20 23 -43q34 22 46 82q1 2 7 66zM510 418
q0 10 -20 35.5t-30 26.5q-9 -28 -32 -102q82 15 82 40zM428 497q-15 9 -43 9q-82 0 -82 -62q0 -30 31 -48q26 -16 58 -16q17 38 36 117zM524 344q0 20 -6 54q-48 -39 -96 -40q-46 -111 -46 -137q28 -12 59 -51q4 -4 5 -4q9 0 42 55q42 70 42 123zM426 152q-7 6 -23 27
q-13 17 -32 24q-6 -22 -28 -93q16 3 45 17q34 16 38 25zM253 102q-6 31 -24 89q-21 -10 -21 -41q0 -14 9.5 -29t23.5 -15q1 0 5.5 -2t6.5 -2zM134 273q-15 0 -29 -7q-17 -8 -19 -21q21 -7 22 -8h26q20 0 20 20q0 16 -20 16zM341 217q-12 4 -21 4h-9l16 -51zM307 237q4 0 7 1
h7q4 -1 24 -5l42 124q-104 17 -104 89q0 37 36 59q31 20 70 20q21 0 45 -8q10 30 10 54q0 58 -40 58q-16 0 -27 -11q-4 -4 -18 -23l-8 -2q15 79 73 79q8 0 39 -20l33 58q2 -9 11 -31t14 -27q9 22 36 22q-9 39 -69 71q-55 29 -98 29q-84 0 -127 -21q-59 -29 -59 -105
q0 -51 103 -411z" />
    <glyph glyph-name="W" unicode="W" horiz-adv-x="879" 
d="M871 605q0 -77 -53 -88l-22 8l-28 -67q-5 20 -26 67q-7 -7 -19 -7q-29 0 -35 39q26 -3 35 13q3 4 9 35q-10 45 -30 45q-14 0 -29.5 -18t-15.5 -33q0 -57 25.5 -168t25.5 -168q0 -108 -65 -193q-70 -91 -177 -91q-38 0 -113.5 28t-101.5 27q-52 -2 -78.5 -16t-58.5 -55
l-8 8q11 33 20 52q19 39 52 67q8 14 20 46q1 31 1 118q-34 8 -43 12q-28 12 -50 39q-13 0 -27 -33q-12 -28 -12 -45q0 -34 19.5 -58t49.5 -25q3 -5 -1 -16q-35 0 -60 33q-23 30 -23 66q0 53 45 93l-19 29l-14 32q-19 -1 -26 -23q-1 -5 -3 -15.5t-3 -16.5q3 -10 7 -21.5
t11 -16.5q-4 -4 -9 -7q-34 25 -34 75q0 61 41 99l-3 25q-2 17 -2 40q0 145 127 225q114 72 288 72q160 0 277 -50q136 -58 136 -162zM855 609q0 107 -155 151q-97 27 -240 27q-82 0 -149 -9q-119 -16 -185.5 -90.5t-66.5 -194.5l4 -23q29 19 131 19q0 2 1 14v22v37
q0 49 -1 56q-4 28 -18 40l-16 14q11 8 24 8q28 0 31 -21l26 54l24 -53q26 19 35 19q6 0 28 -9q-37 -28 -37 -107v-199q27 2 46 -15t19 -44q0 -29 -18 -40q-14 -6 -43 -20q2 -7 2 -28q0 -22 -2 -59q-6 3 -30 -2q-15 -3 -40.5 -25.5t-30.5 -36.5q44 24 90 24q23 0 86 -12
q24 11 24 56v422q0 43 -17 43q-12 0 -23 -28l-12 22q4 55 44 55q14 0 32 -8l26 54l24 -56q19 8 36 8q20 0 34 -12t14 -31q0 -16 -14 -36q0 34 -23 32q-20 -5 -24 -40l1 -382q0 -40 3 -52q7 -31 33 -31q17 0 30 17.5t13 36.5q-3 5 -14 33l-18 -11q-18 -4 -24 15q-1 19 18 19
l16 -3q9 0 14 20q4 16 4 28q0 10 -20 60.5t-20 82.5q0 46 20 46l6 -2l-8 -20q-4 -10 -4 -26q0 -18 20 -69.5t21 -78.5q1 -29 -14 -47q18 -19 18 -51q0 -30 -25.5 -52.5t-56.5 -22.5q-24 0 -37.5 8.5t-31.5 32.5l-52 -36q20 -4 72 -43q49 -36 76 -36q49 0 73 60q17 43 17 101
q0 16 -2 31l-32 246q-2 15 -2 30q0 68 25 119q32 64 94 64q73 0 86 -53q14 -57 33 -57q14 0 24 17q8 13 8 28zM340 307q0 29 -47 43v-87q17 3 32 16.5t15 27.5zM194 366v28q-85 1 -116 -4q-1 0 -1 -2q0 -5 29 -57q23 22 88 35zM194 348l-30 -8q-42 -11 -46 -23
q11 -19 36 -29q14 -5 40 -15q2 20 0 75z" />
    <glyph glyph-name="X" unicode="X" horiz-adv-x="712" 
d="M708 607q0 -27 -12 -46q-14 -23 -40 -23q-7 2 -27 13l-28 -62l-24 60q-10 -8 -29 -8q-14 0 -19 11q-1 1 -7 20h21q24 0 24 27q0 21 -21 21q-31 0 -80 -142q52 -10 52 -72q0 -33 -18 -53q-14 -15 -46 -32q114 -282 171 -282q23 0 38 16.5t15 40.5q0 42 -19 58.5t-61 16.5
q-19 0 -33 -1l-2 17q18 3 37 3q98 0 98 -96q0 -36 -26.5 -65.5t-62.5 -29.5q-26 0 -58 35l-22 -43q-12 28 -29 42q-43 -37 -72 -37q-9 0 -22 5.5t-15 11.5q25 1 42.5 18t17.5 41q0 34 -87 200l-39 -83q55 -52 55 -103q0 -39 -27 -62t-68 -23l-16 2l-3 15q95 9 95 66
q0 53 -46 84q-15 -19 -36 -71q-20 -47 -39 -68q-29 -31 -79 -31q-20 0 -51.5 15.5t-46.5 15.5q-24 0 -29 -17t-9 -35l-16 30q0 28 16 47t42 19q8 0 13 -1q-15 45 -15 50q0 45 34.5 94t34.5 73q0 25 -14 42.5t-37 17.5q-21 0 -34.5 -21t-13.5 -49q0 -25 10 -38l-10 -4
q-1 4 -10 23q-6 13 -6 23q0 32 19 57.5t48 25.5t50.5 -23.5t21.5 -54.5q0 -27 -35.5 -73.5t-35.5 -69.5q0 -27 21 -45q15 62 70 62q28 0 38 -16q1 -1 1 -4q0 -5 -24 -5q-30 0 -30 -28q0 -38 40 -38q18 0 49.5 51t32.5 73q-63 40 -63 128q0 19 5 37q-104 81 -104 200
q0 32 7 59h-20q-30 0 -53 -21t-23 -50q0 -33 19 -55l-9 -8q-9 2 -19 27t-10 37q0 55 39 88t94 29q98 135 286 135q103 0 181 -44q93 -53 93 -150zM692 619q0 76 -95 118q-74 33 -161 33q-69 0 -146 -26q-91 -31 -118 -80q27 -10 61 -28l-4 63q9 -8 23.5 -29.5t24.5 -30.5
q50 32 70 32q25 0 40 -20t15 -48l-16 2q0 42 -31 42q-30 0 -30 -29q0 -25 56 -134q13 5 29 5q9 0 20 -2l51 114q31 70 89 70q60 0 78 -43q10 -54 21 -54q23 0 23 45zM500 400q0 55 -42 62q-5 -5 -20.5 -37t-15.5 -39q0 -10 22 -44q28 10 40 19q16 12 16 39zM424 470
q0 1 -11 3h-7q-10 0 -21 -7q1 -3 17 -36q20 35 22 40zM285 440q0 4 -35 78q-14 30 -41 59q-30 33 -57 40q-11 -25 -11 -48q0 -50 26.5 -106t65.5 -87q2 29 52 64zM337 331q-21 53 -42 87q-12 -2 -28 -19t-16 -29v-3q10 -8 46 -25zM345 311l-2 6q-29 0 -66 14q-12 9 -32 18
q-4 -11 -4 -28q0 -31 16 -63.5t40 -46.5q11 12 48 100z" />
    <glyph glyph-name="Y" unicode="Y" horiz-adv-x="643" 
d="M633 591q0 -80 -54 -121q-49 -37 -132 -37q-1 0 -19 2q-46 -64 -46 -184q0 -72 23 -72q30 0 27 45q9 -9 9 -27q0 -23 -12.5 -38.5t-33.5 -15.5t-31 16l-17 -26q6 1 14 0q6 -1 14 -1q15 -5 34 -5q80 0 80 73q0 26 -27 69t-27 68q0 26 17.5 46t42.5 20t42 -17t17 -42
t-20 -51q-6 -1 -9 6q18 20 18 42q0 19 -14 34t-32 15q-38 0 -38 -48q0 -20 23.5 -69.5t23.5 -74.5t-12 -50q-13 -28 -34 -35q36 -10 42 -10q33 0 54 19t21 49q0 38 -30 72q-1 5 5 7q42 -43 42 -87q0 -56 -36.5 -85.5t-97.5 -27.5q15 -19 39 -63q-91 55 -179 55
q-51 0 -80 -15q-8 -3 -67 -46l-6 4q26 93 113 128q13 3 54 19l-20 27q-28 -21 -40 -21q-20 0 -33.5 13.5t-13.5 33.5q0 21 11 32l2 -2l-1 -7q0 -30 25 -30q23 0 23 52v32v18q-1 10 -1 13q-1 -1 -4 -1q-4 0 -19.5 1.5t-20.5 1.5q-88 0 -91 -82l-2 1q-13 27 -13 53
q0 92 133 98q-5 11 -15.5 31.5t-15.5 31.5q-65 -9 -105 -47q-44 -41 -44 -104q0 -32 20.5 -58t50.5 -26q27 0 52 40l7 -5q-19 -48 -59 -48q-42 0 -69 36q-23 31 -22 65q2 60 50.5 108t108.5 57q-37 68 -59 105q-42 71 -83 71q-31 0 -52 -21.5t-21 -52.5q0 -30 25 -53t55 -23
q13 0 32 8t27 18h4q0 -1 1 -2t1 -2q-6 -15 -27 -26t-41 -11q-37 0 -65.5 28t-28.5 65q0 47 31 78t78 31q20 0 42 -8q0 30 -24 44q-3 2 -50 19l-1 2q18 6 37 6q66 0 97 -54q27 133 195 130q89 -2 159 -59q73 -60 73 -148zM620 588q0 93 -78 142q-66 41 -164 41
q-137 0 -137 -89q0 -33 87 -221q7 0 20.5 2t20.5 2q-6 0 37 -4q12 26 33 100q1 4 1 10q0 19 -12 33t-30 14q-29 0 -29 -46v-13l-2 -2q-17 23 -17 39q0 27 17 50.5t41 23.5q27 0 49 -19h-1q19 22 43 62v-69q2 11 26 11q28 0 46.5 -17.5t18.5 -44.5q0 -28 -12 -41.5t-44 -22.5
v4q31 10 31 46q0 26 -31 26q-20 0 -39.5 -18.5t-19.5 -38.5l-36 -93l43 -3q57 0 97.5 39.5t40.5 96.5zM395 433q-15 4 -26 4q-12 0 -28 -4l29 -51z" />
    <glyph glyph-name="Z" unicode="Z" horiz-adv-x="653" 
d="M644 595q0 -185 -249 -214q-31 -66 -31 -73q41 -23 41 -57q0 -36 -34 -54q-15 -8 -66 -21q-22 -45 -22 -68q0 -30 20.5 -52t48.5 -22q45 0 86.5 47t41.5 92q0 47 -43 47q-36 0 -35 -54q0 -19 24 -23q21 -3 24 19q1 6 -1 23h7q2 -10 2 -15q0 -42 -35 -42q-37 0 -37 41
q0 30 19.5 51.5t48.5 21.5q76 0 80 -81q45 18 90 13q-12 -10 -36 -28q-9 -7 -25 -35q76 -13 76 -91q0 -15 -3 -33l-4 3q-24 64 -67 64q-31 0 -95.5 -27.5t-97.5 -27.5q-103 0 -125 55q-14 -21 -44 -65q-4 18 -21 63q-37 -29 -44 -34q-25 -16 -51 -16q-33 0 -56.5 21
t-23.5 53q0 23 13 44.5t30 21.5v-7q-28 -28 -28 -55q0 -20 12.5 -35t31.5 -15q39 0 79 57q30 44 46 93q-47 1 -77 31q-11 -8 -11 -41q0 -40 33 -66l-7 -6q-18 0 -30 32q-10 26 -10 48q0 27 14 44q-14 17 -14 45q0 80 105 121q45 18 105 25q65 151 65 174q0 24 -14.5 39.5
t-37.5 15.5q-41 0 -75 -32t-31 -73q3 -54 37 -50q39 5 39 47q0 16 -8 30l12 6q15 -21 15 -43q0 -27 -20 -45.5t-50 -18.5t-50 26.5t-21 60.5q-13 -4 -70 -28l40 71q-44 26 -44 81q0 69 114 104q81 25 175 25q104 0 181 -51q88 -58 88 -157zM628 594q0 93 -95 143
q-77 39 -179 39q-60 0 -146 -24q-109 -30 -109 -75q0 -15 17.5 -26t35.5 -11q26 0 76.5 19t77.5 18q43 -2 62 -15q24 -24 36 -35q18 17 43 65q3 -21 13 -56q53 40 85 40q12 0 35 -23q-30 2 -34 1q-24 -5 -53 -54q-6 -11 -35 -69q-45 -92 -47 -112q10 -1 20 0q82 4 137 48
q60 48 60 127zM395 246q2 12 -14 24.5t-29 12.5q-42 0 -42 -92q0 -4 21.5 1t36.5 15q23 15 27 39zM286 380q-25 -3 -95 -19q-87 -31 -87 -97q0 -11 10 -27q36 55 142 78zM247 291q-71 0 -126 -67q5 -10 30 -20.5t38 -10.5q12 0 34 44z" />
    <glyph glyph-name="bracketleft" unicode="[" horiz-adv-x="203" 
d="M82 -53h67v-50l-141 -1v881h141v-50h-65q-7 -3 -4 -3z" />
    <glyph glyph-name="backslash" unicode="\" horiz-adv-x="206" 
d="M101 84q35 -35 47 -35q1 0 11.5 9t12.5 9q5 0 8 -12q-4 -7 -35.5 -37.5t-37.5 -30.5q-15 0 -89 63q11 17 11 27v476q0 34 -11 45v6h25q28 0 58 28.5t37 56.5h8q5 -16 22 -30t32 -14q12 0 21.5 11t9.5 24q0 3 -8.5 10t-8.5 9q0 14 11 14q18 0 18 -28q0 -60 -34 -88
q-23 -19 -46 -19q-32 0 -56 33q-1 -3 -3.5 -5t-2.5 -3v-519z" />
    <glyph glyph-name="bracketright" unicode="]" horiz-adv-x="206" 
d="M75 -53l-67 1v-51h141v880h-141v-49l64 -1q8 -3 4 -3z" />
    <glyph glyph-name="asciicircum" unicode="^" horiz-adv-x="307" 
d="M0 693l-2 6l150 113l157 -115l-3 -6l-152 50z" />
    <glyph glyph-name="underscore" unicode="_" horiz-adv-x="584" 
d="M587 -150h-587v50h587v-50z" />
    <glyph glyph-name="grave" unicode="`" horiz-adv-x="329" 
d="M62 630q9 0 31 -12l155 -85l-2 -7q-29 6 -87 17q-77 15 -89 15t-23 11t-11 25q0 12 7.5 24t18.5 12z" />
    <glyph glyph-name="a" unicode="a" 
d="M327 93q-64 -46 -75 -107q-21 3 -38.5 29.5t-15.5 48.5q-14 -2 -46 -34t-42 -49q-50 56 -71 56q-10 0 -31 -7v6q0 6 14.5 19.5t15.5 16.5t1 33v41v23q-1 14 -1 17q-14 30 -33 41q19 2 34 5q37 8 53 20q-22 8 -38 32.5t-16 47.5q0 36 23 63q14 16 51 43t52 46
q40 -67 116 -67l3 -5q-16 -22 -16 -46v-249l21 -28q10 4 37 13zM57 339q0 -35 22.5 -55.5t58.5 -20.5q15 0 32.5 16t20.5 31q1 3 1 23q0 73 -67 73q-30 0 -49 -18.5t-19 -48.5zM193 259q-9 -2 -29 -11q-10 -6 -42 -6q-12 0 -12 -48v-28q0 -3 1 -15v-22v-38q35 -24 45 -24
q13 0 38 33z" />
    <glyph glyph-name="b" unicode="b" horiz-adv-x="330" 
d="M289 101q-101 -57 -164 -117q-61 74 -113 85q24 31 24 64l2 373q0 77 -37 117q6 3 12 3q24 0 52 -55q3 3 31 73q19 49 51 49q21 0 29 -17q2 -14 -12 -14q-10 0 -24 8q-32 -21 -32 -99v-156q36 6 91 68q27 -37 90 -82q-21 -25 -21 -59v-188q0 -21 21 -53zM198 366l-51 41
l-39 -21v-271q0 -18 65 -60q7 6 24 20z" />
    <glyph glyph-name="c" unicode="c" horiz-adv-x="253" 
d="M222 445q-64 -71 -64 -121q0 -6 3 -8q11 11 18 11q15 0 15 -20q0 -23 -23 -23q-31 0 -31 39q0 6 6.5 25t6.5 23q0 17 -20 30l-33 21l-9 -5q-1 -99 0 -298q55 -55 68 -55q5 0 17.5 15.5t12.5 21.5q0 1 -2 7.5t-1 8.5q2 2 13 2q10 0 10 -11q0 -33 -101 -113q-33 44 -104 85
q20 39 20 62l-1 219q-4 13 -5 22q-4 16 -16 26q35 14 80 38q16 9 50 46q42 -54 63 -54l22 11z" />
    <glyph glyph-name="d" unicode="d" horiz-adv-x="312" 
d="M131 -6q-38 34 -122 68q2 17 16 39v249l-18 35q53 17 79 30q30 15 70 48q-38 39 -91 127l54 42q81 -129 160 -215q-20 -11 -20 -42v-238q0 -26 21 -37q-102 -65 -149 -106zM188 416q-17 32 -25 32l-2 -1q-22 -17 -63 -41l-1 -313l72 -45l19 14v354z" />
    <glyph glyph-name="e" unicode="e" horiz-adv-x="269" 
d="M250 425l-5 -9q-48 -25 -84 -98q-34 -68 -34 -127q0 -42 23 -40l7 3q-6 5 -6 13q0 12 16 21q12 -2 21 -22q-11 -32 -40 -32q-37 0 -37 59q0 42 50 160q-17 20 -44 73q-6 -4 -24 -14l-1 -322q17 -13 69 -41q41 20 37 54l8 3q12 -1 12 -16q0 -20 -36 -58q-33 -34 -55 -46
l-124 71q25 19 25 50l1 261q0 36 -23 59q61 1 88 13.5t66 56.5q5 -4 22 -45q16 -37 27 -37q-3 0 27 15h9z" />
    <glyph glyph-name="f" unicode="f" horiz-adv-x="206" 
d="M243 685q0 -60 -34 -88q-23 -19 -46 -19q-32 0 -56 33q-1 -3 -4 -4.5t-3 -2.5v-127h60q4 0 12 7.5t10 7.5l5 -2q5 -3 5 -7q0 18 -16 -17.5t-16 -51.5q0 -5 13 -25q0 -8 -12 -8q-18 0 -21 40h-39v-337q35 -35 47 -35q1 0 11.5 9t12.5 9q5 0 8 -12q-4 -7 -35.5 -37.5
t-37.5 -30.5q-15 0 -89 63q11 17 11 27v476q0 34 -11 45v6h25q28 0 58 28.5t37 56.5h8q5 -16 22 -30t32 -14q12 0 21.5 11t9.5 24q0 3 -8.5 10t-8.5 9q0 14 11 14q18 0 18 -28z" />
    <glyph glyph-name="g" unicode="g" horiz-adv-x="300" 
d="M299 -34q0 -51 -23 -80q-11 -14 -54 -41q-39 -25 -59 -49q-8 0 -2 -2l-3 2q-10 100 -75 100q-33 0 -41 -15q-5 -9 -5 -11q0 -11 17 -14t17 -14q0 -6 -7.5 -15t-13.5 -9q-13 0 -21.5 16t-8.5 30q0 62 84 70q33 3 66 -18q36 -24 36 -56l8 2q13 11 27.5 34.5t14.5 37.5
q0 26 -25 48q-36 31 -40 40q-5 15 -10 28l-63 -54l-105 63q3 7 7.5 20.5l6.5 19.5q3 11 3 41v207q0 24 -20 56q11 1 42 8q47 10 105 77q39 -36 54 -46q26 -12 61 -35q-19 -19 -19 -48v-239q0 -26 23 -77t23 -77zM179 373q-47 47 -61 47q-6 0 -14 -9l1 -318q38 -32 55 -32
q8 0 14 10.5t6 21.5z" />
    <glyph glyph-name="h" unicode="h" horiz-adv-x="362" 
d="M364 66q-64 -72 -74 -72q-18 0 -48.5 25.5t-30.5 43.5v307q-31 36 -43 36q-5 -3 -53 -27v-142v-83q-1 -48 -1 -60q0 -20 28 -42q-17 -6 -37 -26t-27 -38q-20 41 -66 62q24 18 24 47v381q0 44 -8 75q-2 9 -24 71q12 -2 25 -20l1 -2q33 -33 49 -86q6 60 38 128q40 85 89 85
q7 0 16 -7t9 -13q0 -22 -18 -22q-3 0 -12.5 7t-11.5 7q-25 0 -45 -60q-33 -99 -33 -222q0 -9 2 -19q35 0 96 88q8 -9 27 -34q24 -17 70 -52q-14 -14 -17 -22q-1 -3 -1 -27v-252q0 -13 12.5 -26t25.5 -13q16 0 30 14q8 -6 8 -10z" />
    <glyph glyph-name="i" unicode="i" horiz-adv-x="211" 
d="M176 626q0 -29 -34.5 -54.5t-65.5 -25.5q-27 0 -37 9q-1 1 -7.5 9.5t-9.5 8.5q-5 0 -21 -10l-4 8q69 60 83 91l4 -1q1 -6 2 -16q0 -54 39 -54q16 0 26 10l3 6q-6 12 -13 22q0 20 17 20q18 0 18 -23zM194 62q-14 -13 -73 -74q-23 2 -41 29.5t-18 51.5v304q0 36 -28 36
q-7 0 -7 -8q0 -2 2 -9t2 -9q0 -6 -8 -6q-15 0 -15 17q0 19 79 89l71 -74q-22 -16 -22 -28q0 -209 -4 -297q14 -26 29 -26q2 0 14 9t14 9q1 -2 5 -14z" />
    <glyph glyph-name="j" unicode="j" horiz-adv-x="226" 
d="M141 -93q0 -12 -12.5 -31t-23.5 -22q-30 76 -102 76q-31 0 -52.5 -21t-21.5 -52q0 -25 20 -25q16 0 16 21q0 8 -5.5 16t-5.5 9q0 8 24 28q70 -34 70 -106q69 38 93 62q42 41 42 101q0 16 -23 67q-7 16 -10 82q-1 36 0 119l1 76v74q0 12 22 28l-71 74q-79 -70 -79 -89
q0 -17 15 -17q8 0 8 6q0 2 -2 9t-2 9q0 8 7 8q28 0 28 -36l-1 -319q0 -50 32.5 -91t32.5 -56zM186 626q0 -29 -34.5 -54.5t-65.5 -25.5q-27 0 -37 9q-1 1 -7.5 9.5t-9.5 8.5q-5 0 -21 -10l-4 8q69 60 83 91l4 -1q1 -6 2 -16q0 -54 39 -54q16 0 26 10l3 6q-6 12 -13 22
q0 20 17 20q18 0 18 -23z" />
    <glyph glyph-name="k" unicode="k" horiz-adv-x="376" 
d="M102 411q60 29 75 39q34 22 60 61l5 1q0 -5 1 -23.5t1 -24.5q0 -20 17 -69q18 -52 32 -58q-27 -22 -97 -68q33 -5 56 -28.5t25 -55.5q4 -62 8 -86q11 -67 33 -67q30 0 36 32q7 0 13 -10q-2 -21 -33 -43t-53 -22q-51 0 -66 65q-2 10 -10 122q-4 65 -30 65q-32 0 -32 -36
q18 -13 18 -22q0 -20 -24 -20q-15 0 -15 25q0 47 27 72q21 15 63 47q-14 53 -36 117q-9 0 -75 -33l-1 -269q0 -27 5 -39q6 -15 26 -29q-44 -30 -68 -71q-12 33 -62 67q28 22 28 77v303q0 83 -2 98q-3 25 -27 96q18 -1 43 -45q19 -33 27 -62q6 58 41 128q42 84 91 84
q7 0 16 -7t9 -13q0 -22 -18 -22q-3 0 -12.5 7t-11.5 7q-18 0 -39 -41q-17 -33 -23.5 -58t-17.5 -75q-3 -21 -3 -43v-73z" />
    <glyph glyph-name="l" unicode="l" horiz-adv-x="173" 
d="M148 57q-48 -34 -67 -71q-13 34 -63 67q27 22 28 74q1 43 1 355q0 38 -17 78q-11 24 -34 72q66 -38 82 -95q7 72 61 152q29 43 64 43q7 0 16 -7t9 -13q0 -22 -18 -22q-2 0 -12 7t-12 7q-16 0 -37 -44q-16 -34 -21 -59q-11 -59 -11 -128v-352q6 -48 31 -64z" />
    <glyph glyph-name="m" unicode="m" horiz-adv-x="547" 
d="M539 85q0 -5 -66 -88h-21q-26 0 -44 33q-15 27 -15 56l-1 284l-31 47l-53 -45v-247q0 -28 6 -39l21 -27q-36 -19 -62 -67q-30 48 -61 67q24 35 24 63v247q-25 30 -46 53q-5 -1 -55 -45l1 -258q0 -31 27 -60q-42 -24 -68 -65q-26 52 -60 65q26 26 26 48q0 11 1 52v73v124
q0 17 -2.5 24.5t-15 19.5t-18.5 12q-2 0 -10 -8t-11 -8q-9 0 -9 11q0 17 77 77q36 -27 61 -76q23 17 95 82q7 -22 73 -94q45 32 96 93q59 -79 86 -96q-12 -12 -21 -29v-239q0 -20 13.5 -36.5t32.5 -18.5h-6q7 0 14 10q4 5 11 15q11 2 11 -10z" />
    <glyph glyph-name="n" unicode="n" horiz-adv-x="384" 
d="M228 489q29 -30 96 -88q-22 -17 -21 -32q2 -36 0 -248q-5 -29 31 -44q2 -1 9 0q11 0 26 20l11 -10l-67 -87l-14 3q-27 6 -46 31.5t-19 53.5v287l-43 42l-58 -44q-1 -12 -2 -94q-1 -100 1 -150q1 -26 2 -29q5 -16 26 -38q-38 -23 -65 -65q-26 51 -60 65q22 20 25 32
q1 2 1 36v194q0 46 -5 60q-2 7 -13 17.5t-17 10.5q-2 0 -10.5 -8t-10.5 -8q-6 0 -9 11l73 79q18 -11 38 -33q27 -30 27 -57q43 30 94 93z" />
    <glyph glyph-name="o" unicode="o" horiz-adv-x="329" 
d="M292 101q-99 -55 -155 -110q-50 44 -131 76q3 3 11.5 27t6.5 24l-1 -1v251q0 15 -2 19l-15 24q51 16 85 37q21 13 72 54q15 -22 129 -91q-21 -25 -21 -51v-217q0 -9 21 -42zM201 382l-76 58l-28 -17v-315q41 -31 81 -52l23 20v306z" />
    <glyph glyph-name="p" unicode="p" horiz-adv-x="392" 
d="M338 93q-7 3 -16 3q-30 0 -56.5 -29.5t-28.5 -59.5l-2 -5q-25 43 -79 54v-53q0 -132 13 -175q0 -2 10 -20t10 -23q0 -1 -1 -1q-26 0 -47 45q-15 32 -21 68q-2 -41 -28 -105q-31 -74 -63 -74q-11 0 -17 3q60 42 60 115q0 9 1 47v65v113h-12q-18 0 -24 1q-5 0 4 1
q-8 -2 -11 -15q20 -11 20 -27q0 -17 -22 -17q-21 0 -21 25q0 62 68 70q0 12 1 57v79v136q-27 48 -38 48l-27 -12q-5 2 -5 12q10 7 44 33q31 24 37 27q24 0 70 -73q45 36 100 76q21 -37 88 -84q-17 -22 -17 -44v-225q0 -4 5 -18t5 -18zM257 362l-49 49q-30 -19 -51 -35
l2 -269q40 0 83 -36l15 14v277z" />
    <glyph glyph-name="q" unicode="q" horiz-adv-x="316" 
d="M296 -230q-37 20 -48 41q-4 11 -23 56q-20 -34 -28 -43q-11 -13 -41 -30q0 4 9.5 20.5t10.5 21.5q15 55 15 83l-1 139l-70 -66q-37 19 -58 32q-37 23 -55 37q22 19 22 44v253q0 19 -24 47q49 5 112 48q22 15 64 44q29 -44 103 -69q-12 -12 -20 -47l1 -472q0 -74 31 -139z
M191 83v303l-56 49l-35 -22v-325q46 -40 53 -40q9 0 38 35z" />
    <glyph glyph-name="r" unicode="r" horiz-adv-x="299" 
d="M283 435l-47 -55q-28 -33 -28 -64q0 -13 7 -13q1 0 5.5 2.5t6.5 2.5q18 0 18 -17q0 -20 -22 -20q-17 0 -29 16t-12 35q0 25 19 45q-11 13 -40 44q-29 -18 -29 -32v-282q38 -16 52 -46l-62 -66l-41 47q-26 26 -51 36q26 18 26 46v260q0 44 -27 44q-9 0 -24 -15l-7 13
l83 73q41 -13 57 -75l74 76q13 -16 45 -58q7 3 17 13z" />
    <glyph glyph-name="s" unicode="s" horiz-adv-x="354" 
d="M393 552q0 -21 -16 -21q-22 0 -22 27q-3 5 -7 5q-15 0 -25 -14t-10 -32q0 -6 -1 -25t-1 -25q0 -24 -10 -37q-6 -22 -36.5 -61.5t-52.5 -58.5q49 -7 67 -19q28 -18 28 -63v-62q0 -57 -2 -65q-5 -17 -43 -45q-15 -7 -42 -27q-26 -26 -46 -44l-130 110q-15 -28 -20 -47
q-2 -11 -8 -35q-2 -8 -2 -13q0 -36 28 -52q14 9 20 9q5 0 12.5 -7t7.5 -11q0 -10 -11.5 -18.5t-22.5 -8.5q-14 0 -31 20.5t-19 36t-2 26.5q0 68 40 127q15 22 46 67q34 49 48 60q-82 20 -82 77q0 46 56 95q18 16 89 75q7 -5 36 -26t50 -37q12 19 12 36v39q0 27 17.5 50.5
t41.5 23.5q14 0 28.5 -9.5t14.5 -20.5zM247 375l-90 60q-17 0 -31.5 -25t-14.5 -43q0 -30 28 -42q14 -6 54 -12zM242 66v142q0 22 -33 31q-8 2 -25.5 4.5t-26.5 3.5q-28 -30 -43 -47q-31 -35 -31 -51q43 -36 129 -106q4 2 15.5 11.5t14.5 11.5z" />
    <glyph glyph-name="t" unicode="t" horiz-adv-x="276" 
d="M245 474q-1 -4 -6 -7l-9 -6q-14 -14 -14 -45q0 -1 6 -6t6 -10q0 -9 -11 -9q-19 0 -19 28q0 8 2 19h-54v-348l48 -40l28 28l10 -12q-29 -27 -83 -76q-19 13 -79 71l-24 -25l-14 10l42 44l-1 346l-74 -1q8 19 17 41l55 1q0 49 -25 115q8 -2 24.5 -20t20.5 -27t14 -30
q6 19 29 66q26 39 34 47q18 24 44 35q-67 -106 -67 -180q2 -8 2 -6h71q3 0 15 6h8q4 0 4 -9z" />
    <glyph glyph-name="u" unicode="u" horiz-adv-x="361" 
d="M349 79l-67 -81q-21 13 -40.5 43t-19.5 53q-39 -29 -99 -98q-34 38 -95 87q21 19 21 33q1 39 1 249q0 29 -17 46l-29 -17l-6 17q32 23 39 29q24 22 43 44q33 -26 40 -58q1 -5 3 -32q41 29 104 92l1 1q4 -7 26.5 -36.5t26.5 -29.5q2 3 23 20q9 0 9 -11q0 -2 -12 -13
t-12 -13q1 -64 0 -287q5 -31 30 -44q2 -1 10.5 7.5t10.5 8.5q5 0 9 -10zM219 376l-32 47l-64 -53v-265l41 -44l55 51q2 9 2 66q0 66 -2 198z" />
    <glyph glyph-name="v" unicode="v" horiz-adv-x="323" 
d="M277 137q-1 -27 -16 -44q-3 -2 -9 -6.5t-9 -7.5q-24 -13 -73 -49q-4 -7 -22 -33l-7 -10q-3 -4 -24 10q-17 11 -25 19q-12 12 -29 42t-21 47l-1 215q0 91 -10 116q-12 15 -29 58q0 1 -1.5 17t-1.5 18q0 17 13.5 40.5t29.5 23.5q6 0 6 -6q-14 -17 -14 -32q0 -29 33.5 -49
t44.5 -50q3 -8 9 -43l90 72q66 -56 67 -86q4 -89 -1 -262zM201 381q-7 25 -34 40l-46 -32q-1 -22 0 -292q26 -44 43 -44t29 31q9 23 9 39v129v75q-1 43 -1 54z" />
    <glyph glyph-name="w" unicode="w" horiz-adv-x="512" 
d="M465 97q-46 -33 -87 -65q-5 -5 -14 -14.5t-13 -13.5q-17 -17 -32 -19q-52 31 -94 83l-81 -78q-61 52 -84 86v322q0 4 -27.5 35.5t-27.5 60.5t8.5 42.5t26.5 37.5q-1 -1 8 -2q-5 -11 -3 -20q3 -16 3 -18q0 -24 37 -53q43 -34 47 -44q0 -13 6 -36q29 18 84 84
q20 -28 70 -84q31 24 89 84q20 -25 79 -77v-87q-29 -23 -68 -57q23 -16 75 -69zM390 74v116q-30 37 -41 37q-1 0 -11 -7t-15 -7t-5 8l34 32.5t34 46.5q0 4 1 19v26v44q-4 3 -18.5 18t-19.5 17q-6 -5 -55 -46q1 -37 0 -105q-1 -49 -1 -106q0 -33 1 -64q28 -40 58 -58z
M219 372q-26 44 -32 44t-50 -41l1 -270q3 -22 46 -55q16 12 35 41q2 9 2 79q0 71 -2 202z" />
    <glyph glyph-name="x" unicode="x" horiz-adv-x="332" 
d="M276 349q-21 -26 -90 -105h51q15 0 35 17l9 -10q-4 7 -35 -49h-95v-118l46 -37q11 11 27 30q9 0 10 -7q0 -3 -32 -42.5t-37 -41.5q-13 -1 -86 61l-47 -47q-13 -18 -25 -37q-5 -8 -10 -35q29 -17 29 -30q0 -12 -10.5 -21.5t-20.5 -6.5q-25 7 -25 31q0 20 13 51
q11 28 25 45q24 27 69 86q1 1 4 31v90h-42l-23 -7q-8 5 -8 10q0 6 22 40l51 -1v151q-27 31 -34 31q-5 0 -31 -24l-9 12q16 16 33 30q12 10 29 30q13 15 17 17q26 -1 47 -26.5t25 -53.5q27 6 79 70l77 -76q4 -4 -38 -58zM257 362q0 2 -29 27t-33 29q-20 -16 -40 -30l-1 -24
l1 -120h7l54 63q41 48 41 55z" />
    <glyph glyph-name="y" unicode="y" horiz-adv-x="357" 
d="M392 -132q0 -46 -40 -46q-25 0 -25 17q0 19 18 19q10 0 17 -13h3q12 14 8 23q-11 25 -37 25q-39 0 -75 -20q-26 -16 -78 -47q-43 -25 -88 -25q-83 0 -83 72q0 26 29 59q24 28 52 44q-47 23 -47 127v34q0 8 1 18v11v103v59q-1 34 -1 43q0 31 -16 47l-25 -19l-7 12
q60 47 82 73q26 -20 34 -37t9 -53q41 29 104 92l1 1q44 -66 53 -66q3 0 23 20q9 2 9 -11q0 -2 -11.5 -12.5t-12.5 -14.5t-1 -137q0 -32 1 -96t1 -96q0 -18 10.5 -32.5t25.5 -14.5q5 0 8 1l-1 -14h-57q-46 0 -99.5 -17.5t-90.5 -44.5q-17 -12 -35 -38q-21 -29 -21 -46
q0 -12 13.5 -26.5t25.5 -14.5q27 0 67 25q68 42 78 47q51 25 106 25q29 0 50.5 -15.5t21.5 -40.5zM221 107q0 29 -2 269l-32 47l-64 -49v-302q0 -42 46 -60q46 11 35 11q2 0 8.5 10.5t7.5 10.5q1 14 1 63z" />
    <glyph glyph-name="z" unicode="z" horiz-adv-x="283" 
d="M236 157q0 -43 -32 -93q-21 -32 -64 -95q-6 -8 -47 -64q-19 -26 -19 -43q0 -6 3 -10q12 6 19 11q6 0 11 -10t5 -15q0 -9 -10 -17t-20 -8q-28 0 -28 42q0 48 37 104q17 26 39 77q24 55 26 80q3 36 -13 70q-20 39 -54 39q-12 0 -25 -7l-6 15l99 87q-28 29 -78 105
q-8 2 -32 -16.5t-24 -25.5q0 -1 4.5 -8.5t4.5 -10.5q0 -9 -7.5 -18t-15.5 -9q-19 0 -19 27q0 26 58 65q29 20 86 58q3 -4 10 -23q7 -15 16 -37q8 -14 35 -45t27 -33q-9 -8 -88 -74q51 -6 79 -45q23 -32 23 -73z" />
    <glyph glyph-name="braceleft" unicode="{" horiz-adv-x="244" 
d="M93 -77v207q0 47 -11 70q-14 30 -54 43q40 13 54 43q11 23 11 70v197q0 70 24 102q27 37 95 37v-12q-48 -22 -48 -122v-187q0 -58 -15 -83q-19 -32 -75 -44v-2q56 -12 75 -44q15 -25 15 -83v-197q0 -100 48 -122v-12q-68 0 -95 37q-24 32 -24 102z" />
    <glyph glyph-name="bar" unicode="|" horiz-adv-x="182" 
d="M74 0v674h44v-674h-44z" />
    <glyph glyph-name="braceright" unicode="}" horiz-adv-x="258" 
d="M170 553v-197q0 -47 11 -70q14 -30 54 -43q-40 -13 -54 -43q-11 -23 -11 -70v-207q0 -70 -24 -102q-27 -37 -95 -37v12q48 22 48 122v197q0 58 15 83q19 32 75 44v2q-56 12 -75 44q-15 25 -15 83v187q0 100 -48 122v12q68 0 95 -37q24 -32 24 -102z" />
    <glyph glyph-name="asciitilde" unicode="~" horiz-adv-x="291" 
d="M-8 859q7 37 45 60q34 21 75 21q15 0 46.5 -14t48.5 -14q47 0 85 25q-40 -82 -127 -82q-16 0 -44.5 13.5t-42.5 13.5q-63 0 -86 -23z" />
    <glyph glyph-name="exclamdown" unicode="&#xa1;" horiz-adv-x="223" 
d="M131 290h20l35 -370q17 -5 38 -35q-53 -38 -86 -87q-26 75 -96 85q26 23 59 39zM141 478q30 -35 69 -68q-34 -32 -69 -74q-21 22 -73 68q39 30 73 74z" />
    <glyph glyph-name="cent" unicode="&#xa2;" horiz-adv-x="410" 
d="M184 225v318l-34 -6v-309zM219 4h-35v121q-63 30 -121 30q-28 0 -57 -12q0 51 51 75v240q0 53 -27 83q6 -1 35 -1q55 0 119 21v111h35v-97q32 14 49 31q33 -53 78 -53q4 1 23 2q-43 -64 -98 -64q-31 0 -52 15v-288q56 -13 83 -34l29 23l10 -12l-112 -97q-1 1 -10 7v-101z
" />
    <glyph glyph-name="sterling" unicode="&#xa3;" horiz-adv-x="461" 
d="M8 4q1 19 14 43q93 178 93 199v72l-93 1v39h84l-32 87q-8 22 -8 44q0 77 73 124q63 40 145 40q47 0 87 -36l17 16l10 -9q-46 -40 -84 -99l-63 63q-32 32 -50 30q-56 -7 -56 -73q0 -24 7 -48l41 -139h135v-39l-130 -1l-8 -69q-2 -19 -56 -80q-64 -73 -74 -88
q161 60 201 60q61 0 131 -37l14 19l8 -9q-37 -57 -64 -113q-83 50 -172 50q-32 0 -115 -39q-9 -6 -22 -8l-21 -3z" />
    <glyph glyph-name="currency" unicode="&#xa4;" horiz-adv-x="653" 
d="M-3 411h76q23 115 92 188q88 93 233 94q50 0 100 -30t72 -74q5 5 16 11l8 -12q-41 -24 -113 -61l-8 13l31 17q-2 43 -40 78.5t-81 37.5q-66 2 -126 -45q-56 -44 -81 -109q-17 -44 -20 -108h216v-30h-217v-70h217v-30h-216q7 -115 75 -210q13 -18 54.5 -46.5t60.5 -28.5
q20 0 34 2q91 1 149 99q50 85 47 181q11 5 17 4q0 -127 -53 -208q-63 -95 -183 -95q-119 0 -200 94q-74 85 -89 208h-71v30h69q-1 5 -1 21q0 24 3 49h-71v30z" />
    <glyph glyph-name="dieresis" unicode="&#xa8;" 
d="M189 568q0 19 12.5 32t31.5 13t32 -13t13 -32t-13 -32t-32 -13q-18 0 -31 13.5t-13 31.5zM49 568q0 19 12.5 32t31.5 13t32 -13t13 -32t-13 -32t-32 -13q-18 0 -31 13.5t-13 31.5z" />
    <glyph glyph-name="copyright" unicode="&#xa9;" horiz-adv-x="816" 
d="M373 -12q-159 0 -262 102.5t-103 261.5t105.5 263t264.5 104q152 0 253.5 -107.5t101.5 -260.5q0 -152 -104 -257.5t-256 -105.5zM369 673q-129 0 -217 -95t-88 -225q0 -131 89.5 -225.5t219.5 -94.5t219.5 94.5t89.5 225.5q0 134 -90 227t-223 93zM372 151
q-88 0 -142 54t-54 142q0 89 57 147.5t145 58.5q51 0 97 -28l29 26h24l5 -154l-29 -3q-34 129 -121 129q-99 0 -99 -167q0 -170 106 -170q94 0 117 116l34 -9q-30 -142 -169 -142z" />
    <glyph glyph-name="guillemotleft" unicode="&#xab;" horiz-adv-x="382" 
d="M382 529l-98 -161l95 -153l-12 -14l-143 167q-3 3 145 178zM263 529l-98 -161l95 -153l-12 -14l-143 167q-3 3 145 178z" />
    <glyph glyph-name="registered" unicode="&#xae;" horiz-adv-x="378" 
d="M185 720q59 0 102 -43.5t43 -103.5q0 -62 -42.5 -104.5t-104.5 -42.5q-63 0 -105 42t-42 105q0 62 43.5 104.5t105.5 42.5zM182 699q-51 0 -86 -37t-35 -88q0 -52 35.5 -88.5t86.5 -36.5t86.5 36.5t35.5 88.5q0 50 -35.5 87.5t-87.5 37.5zM166 568v-41q0 -12 1 -15
q8 -3 24 -3v-14h-89v14q14 0 21 3q2 10 2 15v92q0 1 -2 15q-10 2 -21 2v15h95q58 0 58 -40q0 -31 -38 -39q21 -9 30 -57q2 -2 5 -3q8 0 8 20h15v-5q0 -35 -38 -35q-27 0 -34 22q-3 9 -7 45q-4 9 -30 9zM166 583h11q34 0 34 27q0 26 -25 26h-9q-11 0 -11 -12v-41z" />
    <glyph glyph-name="macron" unicode="&#xaf;" horiz-adv-x="305" 
d="M281 543l-253 -1v56l253 1v-56z" />
    <glyph glyph-name="macron" unicode="&#x2c9;" horiz-adv-x="305" 
d="M281 543l-253 -1v56l253 1v-56z" />
    <glyph glyph-name="degree" unicode="&#xb0;" horiz-adv-x="324" 
d="M144 749q52 0 88 -37t36 -89q0 -53 -35.5 -89t-88.5 -36q-50 0 -88.5 36t-38.5 86q0 53 37 91t90 38zM144 709q-36 0 -60.5 -25t-24.5 -61q0 -35 25 -60t60 -25t59.5 25t24.5 60t-24.5 60.5t-59.5 25.5z" />
    <glyph glyph-name="acute" unicode="&#xb4;" horiz-adv-x="369" 
d="M269 631q-7 0 -31 -13l-155 -85l2 -7q15 3 88 17q80 15 87 15q13 0 24.5 11t11.5 26q0 12 -8 24t-19 12z" />
    <glyph glyph-name="paragraph" unicode="&#xb6;" horiz-adv-x="512" 
d="M462 -55h-282v30q40 0 51 15q8 11 8 50v283l-31 -1q-85 -3 -136.5 44.5t-51.5 131.5q0 102 67 142q53 32 161 32h214v-30q-38 0 -47.5 -12t-9.5 -54v-536q0 -41 9.5 -53t47.5 -12v-30zM352 -25v667h-63v-667h63z" />
    <glyph glyph-name="periodcentered" unicode="&#xb7;" horiz-adv-x="177" 
d="M77 277q0 25 16 43t40 18q25 0 40.5 -17.5t15.5 -43.5q0 -24 -16 -42t-40 -18t-40 18t-16 42z" />
    <glyph glyph-name="periodcentered" unicode="&#x2219;" horiz-adv-x="177" 
d="M77 277q0 25 16 43t40 18q25 0 40.5 -17.5t15.5 -43.5q0 -24 -16 -42t-40 -18t-40 18t-16 42z" />
    <glyph glyph-name="cedilla" unicode="&#xb8;" horiz-adv-x="187" 
d="M97 -2l1 -44q22 7 45 7q36 0 45 -28q3 -9 3 -59q0 -25 9 -32q-20 5 -53 5q-30 0 -59 -35q-26 35 -50 35q-18 0 -23 -23l-8 2q1 21 19 36.5t40 15.5q24 0 43 -22l20 4q14 23 14 39q0 14 -14 34l-13 1q-23 2 -46 -12l1 79h24z" />
    <glyph glyph-name="guillemotright" unicode="&#xbb;" horiz-adv-x="366" 
d="M98 529l97 -161l-95 -153l12 -14l144 167q2 3 -146 178zM217 529l97 -161l-95 -153l12 -14l144 167q2 3 -146 178z" />
    <glyph glyph-name="questiondown" unicode="&#xbf;" horiz-adv-x="361" 
d="M225 506q31 -39 73 -73q-46 -43 -73 -75q-41 41 -77 70q47 32 77 78zM47 39q0 44 -16 83h16q97 0 134.5 40.5t32.5 138.5q7 1 17 2q6 1 6 4q4 -17 4 -111q0 -125 -100 -143v-194l25 -6q39 84 110 84q72 0 111 -79q-19 13 -38 13q-37 0 -91 -75q-82 58 -223 58h-7
q19 25 19 82v103z" />
    <glyph glyph-name="Agrave" unicode="&#xc0;" horiz-adv-x="645" 
d="M639 115l-123 -124q-4 0 -25 24q-29 33 -33 39q-17 24 -32 89q-10 47 -19 94h-4q-45 -73 -62 -189l-10 -10q-8 0 -8 11q0 73 -17 122q-11 30 -13 36q-11 25 -20 27q-7 -10 -38 -113l-39 -128q-58 37 -96 37q-32 0 -53 -13q-4 -3 -21.5 -21t-20.5 -18q-7 0 -7 9
q0 -5 19 38q36 82 118 82q35 0 59 -12q56 150 56 167q0 7 -24.5 15t-35.5 8q-37 0 -63 -23t-26 -58q0 -14 4.5 -24t9.5 -22l-9 -5q-23 18 -23 56q0 55 35.5 95t90.5 40q38 0 64 -8l35 114q-15 35 -71 35q-29 0 -49 -13q-23 -15 -23 -42l-4 -6l-7 4q-3 9 -3 18q0 38 31 70
t69 32q21 0 42 -10t28 -24q4 7 4 20q0 43 -125 43q-16 0 -47 -9q-34 -10 -41 -19v-8q-1 -3 -1 -8q0 17 6 -8q7 -31 15 -61q10 -40 17 -48q29 -32 75 -32q22 0 47 13l2 -11q-25 -15 -49 -15q-83 0 -114 86q-17 48 -13 81q-14 -5 -24 -33.5t-10 -46.5q0 -53 41 -82l2 -5
q-2 -2 -10 -2q-9 0 -27.5 22t-22.5 35q-9 27 -9 58q0 37 21 78.5t52 58.5q19 75 93 124q69 46 149 46q113 0 178 -85q57 -74 57 -179q0 -86 -60 -160q-39 -39 -39 -42q0 -26 16.5 -99t27.5 -99q15 -35 37 -35q20 0 34 10q3 2 27 24zM564 514q0 106 -63 175.5t-167 69.5
q-61 0 -120 -35q-63 -37 -80 -92q59 28 97 28t128 -30q11 26 28 66h7q19 -34 85 -344q37 30 61 74.5t24 87.5zM400 264l-52 210q-16 -40 -49 -147q18 -14 45 -37q23 -21 39 -42zM195 918q12 28 34 28q14 0 31 -10l197 -113l-3 -9l-219 41q-16 0 -30 13.5t-14 31.5q0 9 4 18z
" />
    <glyph glyph-name="Aacute" unicode="&#xc1;" horiz-adv-x="645" 
d="M639 115l-123 -124q-4 0 -25 24q-29 33 -33 39q-17 24 -32 89q-10 47 -19 94h-4q-45 -73 -62 -189l-10 -10q-8 0 -8 11q0 73 -17 122q-11 30 -13 36q-11 25 -20 27q-7 -10 -38 -113l-39 -128q-58 37 -96 37q-32 0 -53 -13q-4 -3 -21.5 -21t-20.5 -18q-7 0 -7 9
q0 -5 19 38q36 82 118 82q35 0 59 -12q56 150 56 167q0 7 -24.5 15t-35.5 8q-37 0 -63 -23t-26 -58q0 -14 4.5 -24t9.5 -22l-9 -5q-23 18 -23 56q0 55 35.5 95t90.5 40q38 0 64 -8l35 114q-15 35 -71 35q-29 0 -49 -13q-23 -15 -23 -42l-4 -6l-7 4q-3 9 -3 18q0 38 31 70
t69 32q21 0 42 -10t28 -24q4 7 4 20q0 43 -125 43q-16 0 -47 -9q-34 -10 -41 -19v-8q-1 -3 -1 -8q0 17 6 -8q7 -31 15 -61q10 -40 17 -48q29 -32 75 -32q22 0 47 13l2 -11q-25 -15 -49 -15q-83 0 -114 86q-17 48 -13 81q-14 -5 -24 -33.5t-10 -46.5q0 -53 41 -82l2 -5
q-2 -2 -10 -2q-9 0 -27.5 22t-22.5 35q-9 27 -9 58q0 37 21 78.5t52 58.5q19 75 93 124q69 46 149 46q113 0 178 -85q57 -74 57 -179q0 -86 -60 -160q-39 -39 -39 -42q0 -26 16.5 -99t27.5 -99q15 -35 37 -35q20 0 34 10q3 2 27 24zM564 514q0 106 -63 175.5t-167 69.5
q-61 0 -120 -35q-63 -37 -80 -92q59 28 97 28t128 -30q11 26 28 66h7q19 -34 85 -344q37 30 61 74.5t24 87.5zM400 264l-52 210q-16 -40 -49 -147q18 -14 45 -37q23 -21 39 -42zM459 918q-12 27 -30 27q-10 0 -39 -16l-193 -106l3 -9l218 41q16 0 30.5 13.5t14.5 31.5
q0 9 -4 18z" />
    <glyph glyph-name="Acircumflex" unicode="&#xc2;" horiz-adv-x="645" 
d="M639 115l-123 -124q-4 0 -25 24q-29 33 -33 39q-17 24 -32 89q-10 47 -19 94h-4q-45 -73 -62 -189l-10 -10q-8 0 -8 11q0 73 -17 122q-11 30 -13 36q-11 25 -20 27q-7 -10 -38 -113l-39 -128q-58 37 -96 37q-32 0 -53 -13q-4 -3 -21.5 -21t-20.5 -18q-7 0 -7 9
q0 -5 19 38q36 82 118 82q35 0 59 -12q56 150 56 167q0 7 -24.5 15t-35.5 8q-37 0 -63 -23t-26 -58q0 -14 4.5 -24t9.5 -22l-9 -5q-23 18 -23 56q0 55 35.5 95t90.5 40q38 0 64 -8l35 114q-15 35 -71 35q-29 0 -49 -13q-23 -15 -23 -42l-4 -6l-7 4q-3 9 -3 18q0 38 31 70
t69 32q21 0 42 -10t28 -24q4 7 4 20q0 43 -125 43q-16 0 -47 -9q-34 -10 -41 -19v-8q-1 -3 -1 -8q0 17 6 -8q7 -31 15 -61q10 -40 17 -48q29 -32 75 -32q22 0 47 13l2 -11q-25 -15 -49 -15q-83 0 -114 86q-17 48 -13 81q-14 -5 -24 -33.5t-10 -46.5q0 -53 41 -82l2 -5
q-2 -2 -10 -2q-9 0 -27.5 22t-22.5 35q-9 27 -9 58q0 37 21 78.5t52 58.5q19 75 93 124q69 46 149 46q113 0 178 -85q57 -74 57 -179q0 -86 -60 -160q-39 -39 -39 -42q0 -26 16.5 -99t27.5 -99q15 -35 37 -35q20 0 34 10q3 2 27 24zM564 514q0 106 -63 175.5t-167 69.5
q-61 0 -120 -35q-63 -37 -80 -92q59 28 97 28t128 -30q11 26 28 66h7q19 -34 85 -344q37 30 61 74.5t24 87.5zM400 264l-52 210q-16 -40 -49 -147q18 -14 45 -37q23 -21 39 -42zM180 803l-2 6l150 113l157 -115l-3 -6l-152 50z" />
    <glyph glyph-name="Atilde" unicode="&#xc3;" horiz-adv-x="645" 
d="M639 115l-123 -124q-4 0 -25 24q-29 33 -33 39q-17 24 -32 89q-10 47 -19 94h-4q-45 -73 -62 -189l-10 -10q-8 0 -8 11q0 73 -17 122q-11 30 -13 36q-11 25 -20 27q-7 -10 -38 -113l-39 -128q-58 37 -96 37q-32 0 -53 -13q-4 -3 -21.5 -21t-20.5 -18q-7 0 -7 9
q0 -5 19 38q36 82 118 82q35 0 59 -12q56 150 56 167q0 7 -24.5 15t-35.5 8q-37 0 -63 -23t-26 -58q0 -14 4.5 -24t9.5 -22l-9 -5q-23 18 -23 56q0 55 35.5 95t90.5 40q38 0 64 -8l35 114q-15 35 -71 35q-29 0 -49 -13q-23 -15 -23 -42l-4 -6l-7 4q-3 9 -3 18q0 38 31 70
t69 32q21 0 42 -10t28 -24q4 7 4 20q0 43 -125 43q-16 0 -47 -9q-34 -10 -41 -19v-8q-1 -3 -1 -8q0 17 6 -8q7 -31 15 -61q10 -40 17 -48q29 -32 75 -32q22 0 47 13l2 -11q-25 -15 -49 -15q-83 0 -114 86q-17 48 -13 81q-14 -5 -24 -33.5t-10 -46.5q0 -53 41 -82l2 -5
q-2 -2 -10 -2q-9 0 -27.5 22t-22.5 35q-9 27 -9 58q0 37 21 78.5t52 58.5q19 75 93 124q69 46 149 46q113 0 178 -85q57 -74 57 -179q0 -86 -60 -160q-39 -39 -39 -42q0 -26 16.5 -99t27.5 -99q15 -35 37 -35q20 0 34 10q3 2 27 24zM564 514q0 106 -63 175.5t-167 69.5
q-61 0 -120 -35q-63 -37 -80 -92q59 28 97 28t128 -30q11 26 28 66h7q19 -34 85 -344q37 30 61 74.5t24 87.5zM400 264l-52 210q-16 -40 -49 -147q18 -14 45 -37q23 -21 39 -42zM172 829q7 37 45 60q34 21 75 21q15 0 46.5 -14t48.5 -14q47 0 85 25q-40 -82 -127 -82
q-16 0 -44.5 13.5t-42.5 13.5q-63 0 -86 -23z" />
    <glyph glyph-name="Adieresis" unicode="&#xc4;" horiz-adv-x="645" 
d="M639 115l-123 -124q-4 0 -25 24q-29 33 -33 39q-17 24 -32 89q-10 47 -19 94h-4q-45 -73 -62 -189l-10 -10q-8 0 -8 11q0 73 -17 122q-11 30 -13 36q-11 25 -20 27q-7 -10 -38 -113l-39 -128q-58 37 -96 37q-32 0 -53 -13q-4 -3 -21.5 -21t-20.5 -18q-7 0 -7 9
q0 -5 19 38q36 82 118 82q35 0 59 -12q56 150 56 167q0 7 -24.5 15t-35.5 8q-37 0 -63 -23t-26 -58q0 -14 4.5 -24t9.5 -22l-9 -5q-23 18 -23 56q0 55 35.5 95t90.5 40q38 0 64 -8l35 114q-15 35 -71 35q-29 0 -49 -13q-23 -15 -23 -42l-4 -6l-7 4q-3 9 -3 18q0 38 31 70
t69 32q21 0 42 -10t28 -24q4 7 4 20q0 43 -125 43q-16 0 -47 -9q-34 -10 -41 -19v-8q-1 -3 -1 -8q0 17 6 -8q7 -31 15 -61q10 -40 17 -48q29 -32 75 -32q22 0 47 13l2 -11q-25 -15 -49 -15q-83 0 -114 86q-17 48 -13 81q-14 -5 -24 -33.5t-10 -46.5q0 -53 41 -82l2 -5
q-2 -2 -10 -2q-9 0 -27.5 22t-22.5 35q-9 27 -9 58q0 37 21 78.5t52 58.5q19 75 93 124q69 46 149 46q113 0 178 -85q57 -74 57 -179q0 -86 -60 -160q-39 -39 -39 -42q0 -26 16.5 -99t27.5 -99q15 -35 37 -35q20 0 34 10q3 2 27 24zM564 514q0 106 -63 175.5t-167 69.5
q-61 0 -120 -35q-63 -37 -80 -92q59 28 97 28t128 -30q11 26 28 66h7q19 -34 85 -344q37 30 61 74.5t24 87.5zM400 264l-52 210q-16 -40 -49 -147q18 -14 45 -37q23 -21 39 -42zM359 868q0 19 12.5 32t31.5 13t32 -13t13 -32t-13 -32t-32 -13q-18 0 -31 13.5t-13 31.5z
M209 868q0 19 12.5 32t31.5 13t32 -13t13 -32t-13 -32t-32 -13q-18 0 -31 13.5t-13 31.5z" />
    <glyph glyph-name="Aring" unicode="&#xc5;" horiz-adv-x="645" 
d="M639 115l-123 -124q-4 0 -25 24q-29 33 -33 39q-17 24 -32 89q-10 47 -19 94h-4q-45 -73 -62 -189l-10 -10q-8 0 -8 11q0 73 -17 122q-11 30 -13 36q-11 25 -20 27q-7 -10 -38 -113l-39 -128q-58 37 -96 37q-32 0 -53 -13q-4 -3 -21.5 -21t-20.5 -18q-7 0 -7 9
q0 -5 19 38q36 82 118 82q35 0 59 -12q56 150 56 167q0 7 -24.5 15t-35.5 8q-37 0 -63 -23t-26 -58q0 -14 4.5 -24t9.5 -22l-9 -5q-23 18 -23 56q0 55 35.5 95t90.5 40q38 0 64 -8l35 114q-15 35 -71 35q-29 0 -49 -13q-23 -15 -23 -42l-4 -6l-7 4q-3 9 -3 18q0 38 31 70
t69 32q21 0 42 -10t28 -24q4 7 4 20q0 43 -125 43q-16 0 -47 -9q-34 -10 -41 -19v-8q-1 -3 -1 -8q0 17 6 -8q7 -31 15 -61q10 -40 17 -48q29 -32 75 -32q22 0 47 13l2 -11q-25 -15 -49 -15q-83 0 -114 86q-17 48 -13 81q-14 -5 -24 -33.5t-10 -46.5q0 -53 41 -82l2 -5
q-2 -2 -10 -2q-9 0 -27.5 22t-22.5 35q-9 27 -9 58q0 37 21 78.5t52 58.5q19 75 93 124q69 46 149 46q113 0 178 -85q57 -74 57 -179q0 -86 -60 -160q-39 -39 -39 -42q0 -26 16.5 -99t27.5 -99q15 -35 37 -35q20 0 34 10q3 2 27 24zM564 514q0 106 -63 175.5t-167 69.5
q-61 0 -120 -35q-63 -37 -80 -92q59 28 97 28t128 -30q11 26 28 66h7q19 -34 85 -344q37 30 61 74.5t24 87.5zM400 264l-52 210q-16 -40 -49 -147q18 -14 45 -37q23 -21 39 -42zM334 1001q37 0 61.5 -25.5t24.5 -62.5t-24.5 -62t-61.5 -25q-36 0 -62.5 26t-26.5 59
q0 38 26 64t63 26zM334 973q-25 0 -42.5 -17.5t-17.5 -42.5t17.5 -42t42.5 -17t41.5 17t16.5 42t-16.5 42.5t-41.5 17.5z" />
    <glyph glyph-name="AE" unicode="&#xc6;" horiz-adv-x="1020" 
d="M989 159q0 -10 -15 -36q1 9 1 16q0 32 -23 32q-28 -4 -28 -38q-3 -23 -18 -67q-52 -78 -203 -78q-95 0 -148 21q-69 27 -108 100q-29 54 -38 107l-6 21q-45 -73 -62 -189l-10 -10q-8 0 -8 11q0 73 -17 122q-11 30 -13 36q-11 25 -20 27q-7 -10 -38 -113l-39 -128
q-58 37 -96 37q-32 0 -53 -13q-4 -3 -21.5 -21t-20.5 -18q-7 0 -7 9q0 -5 19 38q36 82 118 82q35 0 59 -12q56 150 56 167q0 7 -24.5 15t-35.5 8q-37 0 -63 -23t-26 -58q0 -14 4.5 -24t9.5 -22l-9 -5q-23 18 -23 56q0 55 35.5 95t90.5 40q38 0 64 -8l35 114q-15 35 -71 35
q-29 0 -49 -13q-23 -15 -23 -42l-4 -6l-7 4q-3 9 -3 18q0 38 31 70t69 32q21 0 42 -10t28 -24q4 7 4 20q0 43 -125 43q-16 0 -47 -9q-34 -10 -41 -19v-8q-1 -3 -1 -8q0 17 6 -8q7 -31 15 -61q10 -40 17 -48q29 -32 75 -32q22 0 47 13l2 -11q-25 -15 -49 -15q-83 0 -114 86
q-17 48 -13 81q-14 -5 -24 -33.5t-10 -46.5q0 -53 41 -82l2 -5q-2 -2 -10 -2q-9 0 -27.5 22t-22.5 35q-9 27 -9 58q0 37 21 78.5t52 58.5q31 117 183 161q95 27 258 27q58 0 114 -3q104 -6 199 -59q112 -63 112 -156q0 -35 -22 -62t-55 -27q-35 0 -51 19q-16 -22 -19 -39h-3
q-4 13 -20 46l-34 -13q-37 10 -35 37q44 3 44 45q0 53 -36 53q-30 0 -36 -35q0 -17 -2 -50q-3 -49 0 -147q8 -20 26 -17q20 1 27 4q14 5 14 21q1 24 -24 30q18 12 32 12q31 0 40 -16q6 -11 6 -48q15 -15 70 -31q-23 -7 -72 -32q5 -65 -47 -65q-14 0 -33 14q29 8 28 27
q-2 24 -15 28q-6 2 -29 2q-21 0 -21 -20q-1 -44 -1 -92q0 -147 79 -172l-19 -3q-33 -5 -56 20q-5 5 -32 47q-6 -7 -12 -44q-2 -16 -8 -48l-18 91l-4 2q-25 -31 -62 -45q4 -3 7 -3q-3 -3 -4 -6q22 -28 59 -47t71 -19q47 0 81.5 34t34.5 81q0 45 -31 45q-24 0 -24 -38
q-20 23 -20 39q0 20 14 34.5t35 14.5q12 0 34 -13q16 24 32 73q14 -32 35 -69q16 16 36 16q24 0 38.5 -19.5t14.5 -46.5zM960 592q0 78 -113 130q-89 41 -186 47q-50 3 -99 3q-191 0 -310 -45q-102 -38 -118 -95q59 28 97 28t128 -30q11 26 28 66h7q17 -31 57 -204
q45 65 133 96q3 3 4 1q1 -1 -2 -4q-76 -84 -90 -146q-7 -33 -6 -127q9 -71 36 -166v-2q4 -10 40 -52q23 11 38 45q14 31 13 58q-2 71 1 324q2 113 -54 113q-38 0 -43 -45l-8 -6q-8 13 -8 19q0 27 24 50t51 25q26 2 53 -31q4 15 26 71l30 -73q28 34 67 33q62 -2 92 -37
q12 -14 33 -65q14 -34 39 -34q40 0 40 53zM403 265l-48 203q-14 -31 -53 -141q24 -19 45 -37q25 -22 39 -42z" />
    <glyph glyph-name="Ccedilla" unicode="&#xc7;" horiz-adv-x="734" 
d="M680 560q0 100 -88 153q-73 44 -179 44q-113 0 -202 -48q-110 -60 -110 -163q0 -40 7 -59.5t34 -47.5q31 76 74 120q39 42 115 82l7 -4v-6q-40 -30 -59 -79q-11 -31 -35 -93l-4 -9q28 25 70.5 91t69.5 91q47 44 102 44q48 0 77 -31q16 -17 33 -59q13 -31 24 -31l15 9
l3 31h6q0 -1 5 -12.5t5 -13.5q0 -18 -15.5 -34.5t-34.5 -16.5q-23 0 -40 18q-4 -1 -6 -10q-1 -4 0 -15q1 -8 1 -14q0 -15 13.5 -24.5t31.5 -9.5q36 0 59 32q21 28 21 65zM323 530q0 7 -9 -11.5l-9 -18.5q-6 -13 -16 -22l-5 -5q-12 -10 -15 -14q-16 -14 -32 -33q-5 -8 -5 -29
v-23q41 -23 84 -23q6 0 7 3v176zM522 186q0 20 -11 42.5t-25 25.5q-12 -24 -12 -45q0 -14 9 -31q10 -20 23 -20q16 0 16 28zM608 192q0 38 -16 70q-20 38 -55 38q-31 0 -40 -31q50 -32 50 -67q0 -21 -10 -38q-11 -20 -31 -20q-43 0 -43 65q0 17 11 53q-8 8 -33 10l-11 1v-56
q0 -117 74 -117q34 0 59 49l5 -1q0 -34 -28 -52q-24 -16 -60 -16q-27 0 -80 41l-27 -50l-23 51q-21 -13 -51 -29q11 -28 55 -54.5t75 -26.5q76 0 127.5 52t51.5 128zM322 275q1 22 0 62q-24 3 -90 22q-5 -16 14 -129q21 27 76 45zM322 260l-32 -14q-12 -3 -25.5 -16
t-13.5 -23q0 -12 15 -50t23 -48q34 28 34 87v12q-1 11 -1 20v32zM434 -6l1 -42q22 7 45 7q36 0 45 -28q3 -9 3 -59q0 -25 9 -32q-20 5 -53 5q-30 0 -59 -35q-26 35 -50 35q-18 0 -23 -23l-8 2q1 21 19 36.5t40 15.5q24 0 43 -22l20 4q14 23 14 39q0 14 -14 34l-13 1
q-23 2 -46 -12l1 74q-60 3 -123 43q-59 37 -96 90q-21 -15 -36 -60q-12 -37 -14 -70l-4 -17h-7q-3 7 -5 10q0 64 50 149q-46 85 -46 177q0 27 5 60l-12 1h-39q-31 0 -56 15q-29 17 -29 47q0 21 15 37.5t35 16.5q-1 0 24 -4l2 -10l-3 -1q2 0 -20 2q-11 0 -18.5 -11.5
t-7.5 -24.5q0 -54 66 -54q51 0 49 24q-59 56 -58 131q2 133 125 195q93 46 241 48q72 -10 125 -37q117 -59 122 -180q2 -48 -21 -84q-27 -40 -73 -40q-79 0 -87 98q-1 0 -13.5 -8t-14.5 -8q-18 0 -30.5 10.5t-12.5 27.5q0 3 8 16q2 0 13 -4t13 -4q32 0 32 36q0 15 -13 26.5
t-28 11.5q-41 0 -41 -68q0 -119 1 -220l24 9q86 32 153 44q27 5 51 -15.5t24 -47.5q0 -33 -25 -42l-10 3q12 25 20 40q0 18 -14.5 31t-35.5 14q-64 4 -184 -57v-53q24 8 52 -7q31 46 84 43q54 -3 86 -45q29 -38 29 -94q0 -91 -81 -143q-67 -42 -165 -47z" />
    <glyph glyph-name="Egrave" unicode="&#xc8;" horiz-adv-x="741" 
d="M699 159q0 -10 -15 -36q1 9 1 16q0 32 -23 32q-28 -4 -28 -38q-3 -23 -18 -67q-52 -78 -203 -78q-161 0 -261 133l-14 -2q-19 0 -66 22q-11 -14 -18 -67q-5 -41 -5 -72q0 -12 2 -28q-5 -3 -15 2l-1 45q-1 61 23 129q-53 61 -53 119q0 74 41 115q-26 38 -33 59
q-9 26 -8 68q5 154 138 230q112 64 270 57q101 -5 180 -54q93 -58 93 -153q0 -35 -22 -62t-55 -27q-35 0 -51 19q-16 -22 -19 -39h-3q-4 13 -20 46l-34 -13q-37 10 -35 37q44 3 44 45q0 53 -36 53q-30 0 -36 -35q0 -17 -2 -50q-3 -49 0 -147q8 -20 26 -17q20 1 27 4
q14 5 14 21q1 24 -24 30q18 12 32 12q31 0 40 -16q6 -11 6 -48q15 -15 70 -31q-23 -7 -72 -32q5 -65 -47 -65q-14 0 -33 14q29 8 28 27q-2 24 -15 28q-6 2 -29 2q-21 0 -21 -20q-1 -44 -1 -92q0 -147 79 -172l-19 -3q-32 -5 -56 20q-4 4 -32 47q-6 -7 -12 -44q-2 -16 -8 -48
l-18 91l-4 2q-26 -32 -65 -46q21 -31 60.5 -52.5t75.5 -21.5q47 0 81.5 34t34.5 81q0 45 -31 45q-24 0 -24 -38q-20 23 -20 39q0 20 14 34.5t35 14.5q12 0 34 -13q16 24 32 73q14 -32 35 -69q16 16 36 16q24 0 38.5 -19.5t14.5 -46.5zM670 592q0 80 -91 132q-78 44 -165 44
q-139 0 -239 -47q-140 -66 -148 -210q-4 -64 31 -115q34 31 74 45q6 10 16.5 28.5t15.5 27.5q48 63 130 91q3 3 4 1q1 -1 -2 -4q-59 -68 -71 -133q21 -2 35 -18t14 -36q0 -23 -24 -42q-19 -15 -45 -21q-4 -58 4 -81q74 6 76 -48q1 -33 -41 -59q11 -32 32 -55q23 11 38 45
q14 31 13 58q-2 71 1 324q2 113 -54 113q-38 0 -43 -45l-8 -6q-8 13 -8 19q0 27 24 50t51 25q26 2 53 -31q4 15 26 71l30 -73q28 34 67 33q62 -2 92 -37q12 -14 33 -65q14 -34 39 -34q40 0 40 53zM257 396q0 24 -40 36q-13 -76 -10 -79q19 3 34.5 15.5t15.5 27.5zM126 418
q-49 -21 -57 -39q8 -10 39 -26q4 27 12 49zM270 204q0 14 -11 23t-26 9q-7 0 -22 -4q4 -17 26 -65q33 20 33 37zM106 222q-7 33 -1 113q-3 2 -47 34q-38 -32 -38 -104q0 -27 13 -55.5t33 -40.5l24 27q17 20 16 26zM144 135q-9 12 -32 61q0 1 -17.5 -16t-17.5 -20
q0 -6 19.5 -16t26.5 -10zM255 918q12 28 34 28q14 0 31 -10l197 -113l-3 -9l-219 41q-16 0 -30 13.5t-14 31.5q0 9 4 18z" />
    <glyph glyph-name="Eacute" unicode="&#xc9;" horiz-adv-x="741" 
d="M670 592q0 80 -91 132q-78 44 -165 44q-139 0 -239 -47q-140 -66 -148 -210q-4 -64 31 -115q34 31 74 45q6 10 16.5 28.5t15.5 27.5q48 63 130 91q3 3 4 1q1 -1 -2 -4q-59 -68 -71 -133q21 -2 35 -18t14 -36q0 -23 -24 -42q-19 -15 -45 -21q-4 -58 4 -81q74 6 76 -48
q1 -33 -41 -59q11 -32 32 -55q23 11 38 45q14 31 13 58q-2 71 1 324q2 113 -54 113q-38 0 -43 -45l-8 -6q-8 13 -8 19q0 27 24 50t51 25q26 2 53 -31q4 15 26 71l30 -73q28 34 67 33q62 -2 92 -37q12 -14 33 -65q14 -34 39 -34q40 0 40 53zM257 396q0 24 -40 36
q-13 -76 -10 -79q19 3 34.5 15.5t15.5 27.5zM126 418q-49 -21 -57 -39q8 -10 39 -26q4 27 12 49zM270 204q0 14 -11 23t-26 9q-7 0 -22 -4q4 -17 26 -65q33 20 33 37zM106 222q-7 33 -1 113q-3 2 -47 34q-38 -32 -38 -104q0 -27 13 -55.5t33 -40.5l24 27q17 20 16 26z
M144 135q-9 12 -32 61q0 1 -17.5 -16t-17.5 -20q0 -6 19.5 -16t26.5 -10zM387 -18v-38q28 7 46 7q36 0 45 -28q3 -9 3 -59q0 -25 9 -32q-20 5 -53 5q-30 0 -59 -35q-26 35 -50 35q-18 0 -23 -23l-8 2q1 21 19 36.5t40 15.5q24 0 43 -22l20 4q14 23 14 39q0 14 -14 34l-13 1
q-23 2 -46 -12l1 79h-7q-114 13 -202 130l-14 -2q-19 0 -66 22q-11 -14 -18 -67q-5 -41 -5 -72q0 -12 2 -28q-5 -3 -15 2l-1 45q-1 61 23 129q-53 61 -53 119q0 74 41 115q-26 38 -33 59q-9 26 -8 68q5 154 138 230q112 64 270 57q101 -5 180 -54q93 -58 93 -153
q0 -35 -22 -62t-55 -27q-35 0 -51 19q-16 -22 -19 -39h-3q-4 13 -20 46l-34 -13q-37 10 -35 37q44 3 44 45q0 53 -36 53q-30 0 -36 -35q0 -17 -2 -50q-3 -49 0 -147q8 -20 26 -17q20 1 27 4q14 5 14 21q1 24 -24 30q18 12 32 12q31 0 40 -16q6 -11 6 -48q15 -15 70 -31
q-23 -7 -72 -32q5 -65 -47 -65q-14 0 -33 14q29 8 28 27q-2 24 -15 28q-6 2 -29 2q-21 0 -21 -20q-1 -44 -1 -92q0 -147 79 -172l-19 -3q-33 -5 -56 20q-5 5 -32 47q-6 -7 -12 -44q-2 -16 -8 -48l-18 91l-4 2q-26 -32 -65 -46q21 -31 60.5 -52.5t75.5 -21.5q47 0 81.5 34
t34.5 81q0 45 -31 45q-24 0 -24 -38q-20 23 -20 39q0 20 14 34.5t35 14.5q12 0 34 -13q16 24 32 73q14 -32 35 -69q16 16 36 16q24 0 38.5 -19.5t14.5 -46.5q0 -10 -15 -36q1 9 1 16q0 32 -23 32q-28 -4 -28 -38q-3 -23 -18 -67q-52 -78 -203 -78h-13q-6 1 -14 1zM489 918
q4 -9 4 -18q0 -18 -14.5 -31.5t-30.5 -13.5q-48 -10 -218 -41l-3 9l193 106q29 16 39 16q18 0 30 -27z" />
    <glyph glyph-name="Ecircumflex" unicode="&#xca;" horiz-adv-x="741" 
d="M699 159q0 -10 -15 -36q1 9 1 16q0 32 -23 32q-28 -4 -28 -38q-3 -23 -18 -67q-52 -78 -203 -78q-161 0 -261 133l-14 -2q-19 0 -66 22q-11 -14 -18 -67q-5 -41 -5 -72q0 -12 2 -28q-5 -3 -15 2l-1 45q-1 61 23 129q-53 61 -53 119q0 74 41 115q-26 38 -33 59
q-9 26 -8 68q5 154 138 230q112 64 270 57q101 -5 180 -54q93 -58 93 -153q0 -35 -22 -62t-55 -27q-35 0 -51 19q-16 -22 -19 -39h-3q-4 13 -20 46l-34 -13q-37 10 -35 37q44 3 44 45q0 53 -36 53q-30 0 -36 -35q0 -17 -2 -50q-3 -49 0 -147q8 -20 26 -17q20 1 27 4
q14 5 14 21q1 24 -24 30q18 12 32 12q31 0 40 -16q6 -11 6 -48q15 -15 70 -31q-23 -7 -72 -32q5 -65 -47 -65q-14 0 -33 14q29 8 28 27q-2 24 -15 28q-6 2 -29 2q-21 0 -21 -20q-1 -44 -1 -92q0 -147 79 -172l-19 -3q-32 -5 -56 20q-4 4 -32 47q-6 -7 -12 -44q-2 -16 -8 -48
l-18 91l-4 2q-26 -32 -65 -46q21 -31 60.5 -52.5t75.5 -21.5q47 0 81.5 34t34.5 81q0 45 -31 45q-24 0 -24 -38q-20 23 -20 39q0 20 14 34.5t35 14.5q12 0 34 -13q16 24 32 73q14 -32 35 -69q16 16 36 16q24 0 38.5 -19.5t14.5 -46.5zM670 592q0 80 -91 132q-78 44 -165 44
q-139 0 -239 -47q-140 -66 -148 -210q-4 -64 31 -115q34 31 74 45q6 10 16.5 28.5t15.5 27.5q48 63 130 91q3 3 4 1q1 -1 -2 -4q-59 -68 -71 -133q21 -2 35 -18t14 -36q0 -23 -24 -42q-19 -15 -45 -21q-4 -58 4 -81q74 6 76 -48q1 -33 -41 -59q11 -32 32 -55q23 11 38 45
q14 31 13 58q-2 71 1 324q2 113 -54 113q-38 0 -43 -45l-8 -6q-8 13 -8 19q0 27 24 50t51 25q26 2 53 -31q4 15 26 71l30 -73q28 34 67 33q62 -2 92 -37q12 -14 33 -65q14 -34 39 -34q40 0 40 53zM257 396q0 24 -40 36q-13 -76 -10 -79q19 3 34.5 15.5t15.5 27.5zM126 418
q-49 -21 -57 -39q8 -10 39 -26q4 27 12 49zM270 204q0 14 -11 23t-26 9q-7 0 -22 -4q4 -17 26 -65q33 20 33 37zM106 222q-7 33 -1 113q-3 2 -47 34q-38 -32 -38 -104q0 -27 13 -55.5t33 -40.5l24 27q17 20 16 26zM144 135q-9 12 -32 61q0 1 -17.5 -16t-17.5 -20
q0 -6 19.5 -16t26.5 -10zM230 813l-2 6l150 113l157 -115l-3 -6l-152 50z" />
    <glyph glyph-name="Edieresis" unicode="&#xcb;" horiz-adv-x="741" 
d="M699 159q0 -10 -15 -36q1 9 1 16q0 32 -23 32q-28 -4 -28 -38q-3 -23 -18 -67q-52 -78 -203 -78q-161 0 -261 133l-14 -2q-19 0 -66 22q-11 -14 -18 -67q-5 -41 -5 -72q0 -12 2 -28q-5 -3 -15 2l-1 45q-1 61 23 129q-53 61 -53 119q0 74 41 115q-26 38 -33 59
q-9 26 -8 68q5 154 138 230q112 64 270 57q101 -5 180 -54q93 -58 93 -153q0 -35 -22 -62t-55 -27q-35 0 -51 19q-16 -22 -19 -39h-3q-4 13 -20 46l-34 -13q-37 10 -35 37q44 3 44 45q0 53 -36 53q-30 0 -36 -35q0 -17 -2 -50q-3 -49 0 -147q8 -20 26 -17q20 1 27 4
q14 5 14 21q1 24 -24 30q18 12 32 12q31 0 40 -16q6 -11 6 -48q15 -15 70 -31q-23 -7 -72 -32q5 -65 -47 -65q-14 0 -33 14q29 8 28 27q-2 24 -15 28q-6 2 -29 2q-21 0 -21 -20q-1 -44 -1 -92q0 -147 79 -172l-19 -3q-32 -5 -56 20q-4 4 -32 47q-6 -7 -12 -44q-2 -16 -8 -48
l-18 91l-4 2q-26 -32 -65 -46q21 -31 60.5 -52.5t75.5 -21.5q47 0 81.5 34t34.5 81q0 45 -31 45q-24 0 -24 -38q-20 23 -20 39q0 20 14 34.5t35 14.5q12 0 34 -13q16 24 32 73q14 -32 35 -69q16 16 36 16q24 0 38.5 -19.5t14.5 -46.5zM670 592q0 80 -91 132q-78 44 -165 44
q-139 0 -239 -47q-140 -66 -148 -210q-4 -64 31 -115q34 31 74 45q6 10 16.5 28.5t15.5 27.5q48 63 130 91q3 3 4 1q1 -1 -2 -4q-59 -68 -71 -133q21 -2 35 -18t14 -36q0 -23 -24 -42q-19 -15 -45 -21q-4 -58 4 -81q74 6 76 -48q1 -33 -41 -59q11 -32 32 -55q23 11 38 45
q14 31 13 58q-2 71 1 324q2 113 -54 113q-38 0 -43 -45l-8 -6q-8 13 -8 19q0 27 24 50t51 25q26 2 53 -31q4 15 26 71l30 -73q28 34 67 33q62 -2 92 -37q12 -14 33 -65q14 -34 39 -34q40 0 40 53zM257 396q0 24 -40 36q-13 -76 -10 -79q19 3 34.5 15.5t15.5 27.5zM126 418
q-49 -21 -57 -39q8 -10 39 -26q4 27 12 49zM270 204q0 14 -11 23t-26 9q-7 0 -22 -4q4 -17 26 -65q33 20 33 37zM106 222q-7 33 -1 113q-3 2 -47 34q-38 -32 -38 -104q0 -27 13 -55.5t33 -40.5l24 27q17 20 16 26zM144 135q-9 12 -32 61q0 1 -17.5 -16t-17.5 -20
q0 -6 19.5 -16t26.5 -10zM389 868q0 19 12.5 32t31.5 13t32 -13t13 -32t-13 -32t-32 -13q-18 0 -31 13.5t-13 31.5zM239 868q0 19 12.5 32t31.5 13t32 -13t13 -32t-13 -32t-32 -13q-18 0 -31 13.5t-13 31.5z" />
    <glyph glyph-name="Igrave" unicode="&#xcc;" horiz-adv-x="406" 
d="M386 617q0 -55 -33.5 -92.5t-89.5 -42.5v-58q30 5 61.5 -13t31.5 -47q0 -53 -91 -84v-150q25 0 53 28.5t27 53.5q-2 33 -25 47q0 11 8 11q30 -6 33 -51q4 -63 -96 -103v-33q0 -59 45 -59q36 0 36 34q0 2 -4.5 13.5t-4.5 15.5l5 6q19 0 19 -37q0 -27 -19.5 -44.5
t-47.5 -17.5q-23 0 -52 20q-14 -17 -29 -38q-12 19 -28 39q-32 -19 -53 -19q-30 0 -49 18t-19 47q0 19 14 28h10q-10 -23 -10 -27q0 -18 12 -30t29 -12q47 0 47 67v15q-1 7 -1 15q-94 19 -94 142q0 25 13 64q-22 26 -29 54q-34 -7 -34 -36q0 6 7 -35l16 -30q-2 -2 -4 -2
q-10 0 -24 21t-17 46q-5 50 32 81q-10 21 -20 55q-3 36 -5 67q-5 89 53 163q61 78 152 78q72 0 123.5 -48t51.5 -120zM373 616q0 42 -42 85q-47 49 -99 49h-38q-107 0 -150 -93q-27 -58 -22 -119q8 -87 22 -105l13 7q28 23 108 19q2 13 2 21t-2 11q-39 9 -67 37
q-32 31 -32 68q0 29 21 54.5t49 25.5q33 0 48 -22q6 18 25 49q6 -15 28 -45q34 22 47 22q21 0 42 -17t21 -36q0 -21 -8 -32q-5 0 -10 5q4 12 1 29q-10 18 -30 18q-14 0 -25 -14.5t-11 -31.5v-106l16 3q24 4 41 17q52 38 52 101zM165 585q0 24 -12.5 41t-33.5 17
q-39 0 -39 -48q0 -29 27.5 -55t57.5 -29v74zM339 362q0 19 -19 32.5t-39 13.5h-18q-1 -94 0 -111l20 6q56 17 56 59zM165 297q0 23 -3 93h-15q-12 0 -41 -60q20 -18 27 -18q1 0 16 -8t16 -7zM127 390h-23q-17 0 -36 -8q1 -6 10.5 -22.5t14.5 -18.5q6 12 34 49zM165 132v147
q0 1 -29 15q-32 16 -38 21q-12 -21 -12 -59q0 -79 40 -107q3 -3 20 -11t19 -6zM75 918q12 28 34 28q14 0 31 -10l197 -113l-3 -9l-219 41q-16 0 -30 13.5t-14 31.5q0 9 4 18z" />
    <glyph glyph-name="Iacute" unicode="&#xcd;" horiz-adv-x="406" 
d="M386 617q0 -55 -33.5 -92.5t-89.5 -42.5v-58q30 5 61.5 -13t31.5 -47q0 -53 -91 -84v-150q25 0 53 28.5t27 53.5q-2 33 -25 47q0 11 8 11q30 -6 33 -51q4 -63 -96 -103v-33q0 -59 45 -59q36 0 36 34q0 2 -4.5 13.5t-4.5 15.5l5 6q19 0 19 -37q0 -27 -19.5 -44.5
t-47.5 -17.5q-23 0 -52 20q-14 -17 -29 -38q-12 19 -28 39q-32 -19 -53 -19q-30 0 -49 18t-19 47q0 19 14 28h10q-10 -23 -10 -27q0 -18 12 -30t29 -12q47 0 47 67v15q-1 7 -1 15q-94 19 -94 142q0 25 13 64q-22 26 -29 54q-34 -7 -34 -36q0 6 7 -35l16 -30q-2 -2 -4 -2
q-10 0 -24 21t-17 46q-5 50 32 81q-10 21 -20 55q-3 36 -5 67q-5 89 53 163q61 78 152 78q72 0 123.5 -48t51.5 -120zM373 616q0 42 -42 85q-47 49 -99 49h-38q-107 0 -150 -93q-27 -58 -22 -119q8 -87 22 -105l13 7q28 23 108 19q2 13 2 21t-2 11q-39 9 -67 37
q-32 31 -32 68q0 29 21 54.5t49 25.5q33 0 48 -22q6 18 25 49q6 -15 28 -45q34 22 47 22q21 0 42 -17t21 -36q0 -21 -8 -32q-5 0 -10 5q4 12 1 29q-10 18 -30 18q-14 0 -25 -14.5t-11 -31.5v-106l16 3q24 4 41 17q52 38 52 101zM165 585q0 24 -12.5 41t-33.5 17
q-39 0 -39 -48q0 -29 27.5 -55t57.5 -29v74zM339 362q0 19 -19 32.5t-39 13.5h-18q-1 -94 0 -111l20 6q56 17 56 59zM165 297q0 23 -3 93h-15q-12 0 -41 -60q20 -18 27 -18q1 0 16 -8t16 -7zM127 390h-23q-17 0 -36 -8q1 -6 10.5 -22.5t14.5 -18.5q6 12 34 49zM165 132v147
q0 1 -29 15q-32 16 -38 21q-12 -21 -12 -59q0 -79 40 -107q3 -3 20 -11t19 -6zM339 918q-12 27 -30 27q-10 0 -39 -16l-193 -106l3 -9l218 41q16 0 30.5 13.5t14.5 31.5q0 9 -4 18z" />
    <glyph glyph-name="Icircumflex" unicode="&#xce;" horiz-adv-x="406" 
d="M386 617q0 -55 -33.5 -92.5t-89.5 -42.5v-58q30 5 61.5 -13t31.5 -47q0 -53 -91 -84v-150q25 0 53 28.5t27 53.5q-2 33 -25 47q0 11 8 11q30 -6 33 -51q4 -63 -96 -103v-33q0 -59 45 -59q36 0 36 34q0 2 -4.5 13.5t-4.5 15.5l5 6q19 0 19 -37q0 -27 -19.5 -44.5
t-47.5 -17.5q-23 0 -52 20q-14 -17 -29 -38q-12 19 -28 39q-32 -19 -53 -19q-30 0 -49 18t-19 47q0 19 14 28h10q-10 -23 -10 -27q0 -18 12 -30t29 -12q47 0 47 67v15q-1 7 -1 15q-94 19 -94 142q0 25 13 64q-22 26 -29 54q-34 -7 -34 -36q0 6 7 -35l16 -30q-2 -2 -4 -2
q-10 0 -24 21t-17 46q-5 50 32 81q-10 21 -20 55q-3 36 -5 67q-5 89 53 163q61 78 152 78q72 0 123.5 -48t51.5 -120zM373 616q0 42 -42 85q-47 49 -99 49h-38q-107 0 -150 -93q-27 -58 -22 -119q8 -87 22 -105l13 7q28 23 108 19q2 13 2 21t-2 11q-39 9 -67 37
q-32 31 -32 68q0 29 21 54.5t49 25.5q33 0 48 -22q6 18 25 49q6 -15 28 -45q34 22 47 22q21 0 42 -17t21 -36q0 -21 -8 -32q-5 0 -10 5q4 12 1 29q-10 18 -30 18q-14 0 -25 -14.5t-11 -31.5v-106l16 3q24 4 41 17q52 38 52 101zM165 585q0 24 -12.5 41t-33.5 17
q-39 0 -39 -48q0 -29 27.5 -55t57.5 -29v74zM339 362q0 19 -19 32.5t-39 13.5h-18q-1 -94 0 -111l20 6q56 17 56 59zM165 297q0 23 -3 93h-15q-12 0 -41 -60q20 -18 27 -18q1 0 16 -8t16 -7zM127 390h-23q-17 0 -36 -8q1 -6 10.5 -22.5t14.5 -18.5q6 12 34 49zM165 132v147
q0 1 -29 15q-32 16 -38 21q-12 -21 -12 -59q0 -79 40 -107q3 -3 20 -11t19 -6zM50 803l-2 6l150 113l157 -115l-3 -6l-152 50z" />
    <glyph glyph-name="Idieresis" unicode="&#xcf;" horiz-adv-x="406" 
d="M386 617q0 -55 -33.5 -92.5t-89.5 -42.5v-58q30 5 61.5 -13t31.5 -47q0 -53 -91 -84v-150q25 0 53 28.5t27 53.5q-2 33 -25 47q0 11 8 11q30 -6 33 -51q4 -63 -96 -103v-33q0 -59 45 -59q36 0 36 34q0 2 -4.5 13.5t-4.5 15.5l5 6q19 0 19 -37q0 -27 -19.5 -44.5
t-47.5 -17.5q-23 0 -52 20q-14 -17 -29 -38q-12 19 -28 39q-32 -19 -53 -19q-30 0 -49 18t-19 47q0 19 14 28h10q-10 -23 -10 -27q0 -18 12 -30t29 -12q47 0 47 67v15q-1 7 -1 15q-94 19 -94 142q0 25 13 64q-22 26 -29 54q-34 -7 -34 -36q0 6 7 -35l16 -30q-2 -2 -4 -2
q-10 0 -24 21t-17 46q-5 50 32 81q-10 21 -20 55q-3 36 -5 67q-5 89 53 163q61 78 152 78q72 0 123.5 -48t51.5 -120zM373 616q0 42 -42 85q-47 49 -99 49h-38q-107 0 -150 -93q-27 -58 -22 -119q8 -87 22 -105l13 7q28 23 108 19q2 13 2 21t-2 11q-39 9 -67 37
q-32 31 -32 68q0 29 21 54.5t49 25.5q33 0 48 -22q6 18 25 49q6 -15 28 -45q34 22 47 22q21 0 42 -17t21 -36q0 -21 -8 -32q-5 0 -10 5q4 12 1 29q-10 18 -30 18q-14 0 -25 -14.5t-11 -31.5v-106l16 3q24 4 41 17q52 38 52 101zM165 585q0 24 -12.5 41t-33.5 17
q-39 0 -39 -48q0 -29 27.5 -55t57.5 -29v74zM339 362q0 19 -19 32.5t-39 13.5h-18q-1 -94 0 -111l20 6q56 17 56 59zM165 297q0 23 -3 93h-15q-12 0 -41 -60q20 -18 27 -18q1 0 16 -8t16 -7zM127 390h-23q-17 0 -36 -8q1 -6 10.5 -22.5t14.5 -18.5q6 12 34 49zM165 132v147
q0 1 -29 15q-32 16 -38 21q-12 -21 -12 -59q0 -79 40 -107q3 -3 20 -11t19 -6zM229 868q0 19 12.5 32t31.5 13t32 -13t13 -32t-13 -32t-32 -13q-18 0 -31 13.5t-13 31.5zM79 868q0 19 12.5 32t31.5 13t32 -13t13 -32t-13 -32t-32 -13q-18 0 -31 13.5t-13 31.5z" />
    <glyph glyph-name="Ntilde" unicode="&#xd1;" horiz-adv-x="675" 
d="M661 528q0 -18 -17.5 -33t-36.5 -15q-28 7 -35 32l-4 14q5 3 15 5q5 -36 29 -36q8 0 17 10.5t9 18.5q0 18 -14 30t-35 12q-65 0 -65 -94v-58q12 2 19 2q39 0 68.5 -24t29.5 -62q0 -55 -36 -83q2 -10 3 -33q-1 -16 -11 -31t-19 -16l-10 5q25 13 25 41q0 3 -6 15
q-43 -34 -63 -42v-56q32 -5 59 -42l60 42l7 -11q-5 -5 -158 -124l-5 4q-6 19 -31 32q-21 11 -44 11q-76 0 -93 -47l-10 -10l-11 5q19 64 61 100q18 16 41 27l27 9v48q-62 18 -62 50q0 42 65 65v72q-32 -17 -41 -21q-25 -10 -56 -13h-24v-171q0 -81 -29 -119
q-36 -48 -126 -48q-51 0 -89 21q-51 28 -54 84q-2 41 22.5 68.5t67.5 27.5l18 -4l-16 -8q-40 -30 -42 -86q-1 -40 26 -64.5t67 -24.5q94 0 122 78q17 47 15 162q-1 61 0 84q-12 5 -45 12l2 -185q-5 -50 -14 -66q-29 -49 -116 -49q-3 0 -13 4t-12 4l-1 6q58 0 58 114
q0 12 -1 35t-1 34q0 21 -24 21q-4 0 -13 -1t-10 -1q-21 0 -37 -10q-19 -11 -17 -31q0 -6 -2 -12q-22 16 -22 52q0 59 60 89q26 8 63 6v8l1 5l-17 7q-70 37 -97 77q-30 44 -30 119q0 123 109 194q94 61 225 63q92 1 161 -41q75 -46 74 -124q0 -13 -9 -34t-19 -30q5 1 25 10
q5 2 30 0q23 -1 42.5 -26t19.5 -49zM624 328q0 75 -100 68v-103q22 2 42 -12q8 -6 29 -22q11 5 21 31q8 22 8 38zM536 686q0 59 -73 88q-53 21 -122 21q-133 0 -217 -49q-105 -61 -105 -182q0 -93 78 -153q25 -20 49 -29v54q0 16 -3 22q-7 11 -12 19q-1 2 -13.5 7.5
t-12.5 9.5q15 8 35 30q7 93 54 133t143 41q35 0 72.5 -14.5t55.5 -37.5q15 -19 21 -19q19 0 34.5 20t15.5 39zM432 382q-2 113 0 185q-18 110 -98 110q-86 0 -86 -98q0 -44 8 -55l13 -13q9 -9 9 -15q-31 -18 -31 -88v-28q0 -7 1 -15v-10q7 -5 43 -10v157q0 69 60 69
q20 0 33 -16.5t13 -38.5q0 -43 -53 -43q-10 0 -21 10v6l1 2q2 0 13 -2.5t15 -2.5q11 0 20.5 9.5t9.5 20.5t-11.5 25t-21.5 14q-35 0 -38 -31q-2 -2 -2 -26v-153q37 -4 81 15q31 14 42 22zM566 230q10 6 17 13l-14 14q-6 6 -45 22v-75q20 9 42 26zM430 275q-12 -6 -29 -16
q-20 -17 -20 -33q0 -12 10 -22t22 -10l17 -4q-1 29 -1 50q0 22 1 35zM162 859q7 37 45 60q34 21 75 21q15 0 46.5 -14t48.5 -14q47 0 85 25q-40 -82 -127 -82q-16 0 -44.5 13.5t-42.5 13.5q-63 0 -86 -23z" />
    <glyph glyph-name="Ograve" unicode="&#xd2;" horiz-adv-x="633" 
d="M593 654q-3 -53 -27 -79l-10 1q16 52 16 67q0 55 -37 101t-91 48q-46 1 -72 -17l-43 -43q27 -13 60 -63q18 14 41 13q76 -4 124 -118q40 -94 37 -190q-11 -353 -206 -387l8 -14l-14 -2q-1 2 -4.5 7.5t-5.5 8.5q-72 8 -130 68q-66 70 -77 176q-1 14 -6 40q-106 4 -119 -71
q-5 -29 18.5 -51.5t53.5 -22.5q22 0 44 15q6 -6 7 -9q-24 -24 -54 -24q-44 0 -73 36.5t-28 88.5q1 80 62 115q25 14 87 25v17q-10 6 -27 12q-47 17 -75 78q-26 55 -23 109q4 69 58 119q51 49 121 55q11 1 25 1q27 0 67 -19q47 41 65 50q26 13 79 13q58 0 105 -48t44 -106z
M398 511q0 82 -24 125q-33 -34 -33 -113q0 -64 31 -64q10 0 19 21q7 18 7 31zM413 657l-13 -1l1 -7q22 -51 22 -121q0 -48 -32 -80q-1 0 -9 -2.5t-10 -2.5q-24 0 -37 32q-10 25 -10 53q0 68 43 126q-2 12 -49 64q-28 -35 -43 -122q-12 -68 -12 -131v-69q3 3 50 -9
q55 -14 90 -40q48 -34 46 -82q-1 -38 -29 -67l4 -16q-2 -24 -24 -83q-19 -53 -16 -90l14 2q51 7 80 113q21 78 21 145q0 156 -6 207q-17 144 -81 181zM289 733q-15 4 -34 11q-24 5 -37 4q-69 -6 -118 -49q-54 -47 -54 -114q0 -60 26 -105q29 -49 83 -66l-1 66q-1 43 -14 77
q-18 47 -54 47q-1 0 -8 -2.5t-9 -2.5l-5 8q22 13 41 13q41 0 70 -40q6 -8 27 -41q21 108 87 194zM397 206q-3 5 -16.5 11.5t-19.5 6.5q-22 0 -22 -12v-2q1 0 4.5 -4t5.5 -4t11 -2t11 -2q12 0 26 8zM434 265q0 80 -170 104q0 -42 2 -124q6 -117 37 -178q6 -12 24.5 -32
t27.5 -20q2 0 8 -2h6q-1 31 19.5 86.5t20.5 76.5q0 7 -3 13h-9q-3 0 -14.5 -3.5t-15.5 -3.5q-17 0 -31 7q-18 9 -18 24q0 26 43 26q16 0 47 -20q11 0 19 18q7 15 7 28zM195 918q12 28 34 28q14 0 31 -10l197 -113l-3 -9l-219 41q-16 0 -30 13.5t-14 31.5q0 9 4 18z" />
    <glyph glyph-name="Oacute" unicode="&#xd3;" horiz-adv-x="633" 
d="M593 654q-3 -53 -27 -79l-10 1q16 52 16 67q0 55 -37 101t-91 48q-46 1 -72 -17l-43 -43q27 -13 60 -63q18 14 41 13q76 -4 124 -118q40 -94 37 -190q-11 -353 -206 -387l8 -14l-14 -2q-1 2 -4.5 7.5t-5.5 8.5q-72 8 -130 68q-66 70 -77 176q-1 14 -6 40q-106 4 -119 -71
q-5 -29 18.5 -51.5t53.5 -22.5q22 0 44 15q6 -6 7 -9q-24 -24 -54 -24q-44 0 -73 36.5t-28 88.5q1 80 62 115q25 14 87 25v17q-10 6 -27 12q-47 17 -75 78q-26 55 -23 109q4 69 58 119q51 49 121 55q11 1 25 1q27 0 67 -19q47 41 65 50q26 13 79 13q58 0 105 -48t44 -106z
M398 511q0 82 -24 125q-33 -34 -33 -113q0 -64 31 -64q10 0 19 21q7 18 7 31zM413 657l-13 -1l1 -7q22 -51 22 -121q0 -48 -32 -80q-1 0 -9 -2.5t-10 -2.5q-24 0 -37 32q-10 25 -10 53q0 68 43 126q-2 12 -49 64q-28 -35 -43 -122q-12 -68 -12 -131v-69q3 3 50 -9
q55 -14 90 -40q48 -34 46 -82q-1 -38 -29 -67l4 -16q-2 -24 -24 -83q-19 -53 -16 -90l14 2q51 7 80 113q21 78 21 145q0 156 -6 207q-17 144 -81 181zM289 733q-15 4 -34 11q-24 5 -37 4q-69 -6 -118 -49q-54 -47 -54 -114q0 -60 26 -105q29 -49 83 -66l-1 66q-1 43 -14 77
q-18 47 -54 47q-1 0 -8 -2.5t-9 -2.5l-5 8q22 13 41 13q41 0 70 -40q6 -8 27 -41q21 108 87 194zM397 206q-3 5 -16.5 11.5t-19.5 6.5q-22 0 -22 -12v-2q1 0 4.5 -4t5.5 -4t11 -2t11 -2q12 0 26 8zM434 265q0 80 -170 104q0 -42 2 -124q6 -117 37 -178q6 -12 24.5 -32
t27.5 -20q2 0 8 -2h6q-1 31 19.5 86.5t20.5 76.5q0 7 -3 13h-9q-3 0 -14.5 -3.5t-15.5 -3.5q-17 0 -31 7q-18 9 -18 24q0 26 43 26q16 0 47 -20q11 0 19 18q7 15 7 28zM429 918q-12 27 -30 27q-10 0 -39 -16l-193 -106l3 -9l218 41q16 0 30.5 13.5t14.5 31.5q0 9 -4 18z" />
    <glyph glyph-name="Ocircumflex" unicode="&#xd4;" horiz-adv-x="633" 
d="M593 654q-3 -53 -27 -79l-10 1q16 52 16 67q0 55 -37 101t-91 48q-46 1 -72 -17l-43 -43q27 -13 60 -63q18 14 41 13q76 -4 124 -118q40 -94 37 -190q-11 -353 -206 -387l8 -14l-14 -2q-1 2 -4.5 7.5t-5.5 8.5q-72 8 -130 68q-66 70 -77 176q-1 14 -6 40q-106 4 -119 -71
q-5 -29 18.5 -51.5t53.5 -22.5q22 0 44 15q6 -6 7 -9q-24 -24 -54 -24q-44 0 -73 36.5t-28 88.5q1 80 62 115q25 14 87 25v17q-10 6 -27 12q-47 17 -75 78q-26 55 -23 109q4 69 58 119q51 49 121 55q11 1 25 1q27 0 67 -19q47 41 65 50q26 13 79 13q58 0 105 -48t44 -106z
M398 511q0 82 -24 125q-33 -34 -33 -113q0 -64 31 -64q10 0 19 21q7 18 7 31zM413 657l-13 -1l1 -7q22 -51 22 -121q0 -48 -32 -80q-1 0 -9 -2.5t-10 -2.5q-24 0 -37 32q-10 25 -10 53q0 68 43 126q-2 12 -49 64q-28 -35 -43 -122q-12 -68 -12 -131v-69q3 3 50 -9
q55 -14 90 -40q48 -34 46 -82q-1 -38 -29 -67l4 -16q-2 -24 -24 -83q-19 -53 -16 -90l14 2q51 7 80 113q21 78 21 145q0 156 -6 207q-17 144 -81 181zM289 733q-15 4 -34 11q-24 5 -37 4q-69 -6 -118 -49q-54 -47 -54 -114q0 -60 26 -105q29 -49 83 -66l-1 66q-1 43 -14 77
q-18 47 -54 47q-1 0 -8 -2.5t-9 -2.5l-5 8q22 13 41 13q41 0 70 -40q6 -8 27 -41q21 108 87 194zM397 206q-3 5 -16.5 11.5t-19.5 6.5q-22 0 -22 -12v-2q1 0 4.5 -4t5.5 -4t11 -2t11 -2q12 0 26 8zM434 265q0 80 -170 104q0 -42 2 -124q6 -117 37 -178q6 -12 24.5 -32
t27.5 -20q2 0 8 -2h6q-1 31 19.5 86.5t20.5 76.5q0 7 -3 13h-9q-3 0 -14.5 -3.5t-15.5 -3.5q-17 0 -31 7q-18 9 -18 24q0 26 43 26q16 0 47 -20q11 0 19 18q7 15 7 28zM180 823l-2 6l150 113l157 -115l-3 -6l-152 50z" />
    <glyph glyph-name="Otilde" unicode="&#xd5;" horiz-adv-x="633" 
d="M593 654q-3 -53 -27 -79l-10 1q16 52 16 67q0 55 -37 101t-91 48q-46 1 -72 -17l-43 -43q27 -13 60 -63q18 14 41 13q76 -4 124 -118q40 -94 37 -190q-11 -353 -206 -387l8 -14l-14 -2q-1 2 -4.5 7.5t-5.5 8.5q-72 8 -130 68q-66 70 -77 176q-1 14 -6 40q-106 4 -119 -71
q-5 -29 18.5 -51.5t53.5 -22.5q22 0 44 15q6 -6 7 -9q-24 -24 -54 -24q-44 0 -73 36.5t-28 88.5q1 80 62 115q25 14 87 25v17q-10 6 -27 12q-47 17 -75 78q-26 55 -23 109q4 69 58 119q51 49 121 55q11 1 25 1q27 0 67 -19q47 41 65 50q26 13 79 13q58 0 105 -48t44 -106z
M398 511q0 82 -24 125q-33 -34 -33 -113q0 -64 31 -64q10 0 19 21q7 18 7 31zM413 657l-13 -1l1 -7q22 -51 22 -121q0 -48 -32 -80q-1 0 -9 -2.5t-10 -2.5q-24 0 -37 32q-10 25 -10 53q0 68 43 126q-2 12 -49 64q-28 -35 -43 -122q-12 -68 -12 -131v-69q3 3 50 -9
q55 -14 90 -40q48 -34 46 -82q-1 -38 -29 -67l4 -16q-2 -24 -24 -83q-19 -53 -16 -90l14 2q51 7 80 113q21 78 21 145q0 156 -6 207q-17 144 -81 181zM289 733q-15 4 -34 11q-24 5 -37 4q-69 -6 -118 -49q-54 -47 -54 -114q0 -60 26 -105q29 -49 83 -66l-1 66q-1 43 -14 77
q-18 47 -54 47q-1 0 -8 -2.5t-9 -2.5l-5 8q22 13 41 13q41 0 70 -40q6 -8 27 -41q21 108 87 194zM397 206q-3 5 -16.5 11.5t-19.5 6.5q-22 0 -22 -12v-2q1 0 4.5 -4t5.5 -4t11 -2t11 -2q12 0 26 8zM434 265q0 80 -170 104q0 -42 2 -124q6 -117 37 -178q6 -12 24.5 -32
t27.5 -20q2 0 8 -2h6q-1 31 19.5 86.5t20.5 76.5q0 7 -3 13h-9q-3 0 -14.5 -3.5t-15.5 -3.5q-17 0 -31 7q-18 9 -18 24q0 26 43 26q16 0 47 -20q11 0 19 18q7 15 7 28zM172 829q7 37 45 60q34 21 75 21q15 0 46.5 -14t48.5 -14q47 0 85 25q-40 -82 -127 -82
q-16 0 -44.5 13.5t-42.5 13.5q-63 0 -86 -23z" />
    <glyph glyph-name="Odieresis" unicode="&#xd6;" horiz-adv-x="633" 
d="M593 654q-3 -53 -27 -79l-10 1q16 52 16 67q0 55 -37 101t-91 48q-46 1 -72 -17l-43 -43q27 -13 60 -63q18 14 41 13q76 -4 124 -118q40 -94 37 -190q-11 -353 -206 -387l8 -14l-14 -2q-1 2 -4.5 7.5t-5.5 8.5q-72 8 -130 68q-66 70 -77 176q-1 14 -6 40q-106 4 -119 -71
q-5 -29 18.5 -51.5t53.5 -22.5q22 0 44 15q6 -6 7 -9q-24 -24 -54 -24q-44 0 -73 36.5t-28 88.5q1 80 62 115q25 14 87 25v17q-10 6 -27 12q-47 17 -75 78q-26 55 -23 109q4 69 58 119q51 49 121 55q11 1 25 1q27 0 67 -19q47 41 65 50q26 13 79 13q58 0 105 -48t44 -106z
M398 511q0 82 -24 125q-33 -34 -33 -113q0 -64 31 -64q10 0 19 21q7 18 7 31zM413 657l-13 -1l1 -7q22 -51 22 -121q0 -48 -32 -80q-1 0 -9 -2.5t-10 -2.5q-24 0 -37 32q-10 25 -10 53q0 68 43 126q-2 12 -49 64q-28 -35 -43 -122q-12 -68 -12 -131v-69q3 3 50 -9
q55 -14 90 -40q48 -34 46 -82q-1 -38 -29 -67l4 -16q-2 -24 -24 -83q-19 -53 -16 -90l14 2q51 7 80 113q21 78 21 145q0 156 -6 207q-17 144 -81 181zM289 733q-15 4 -34 11q-24 5 -37 4q-69 -6 -118 -49q-54 -47 -54 -114q0 -60 26 -105q29 -49 83 -66l-1 66q-1 43 -14 77
q-18 47 -54 47q-1 0 -8 -2.5t-9 -2.5l-5 8q22 13 41 13q41 0 70 -40q6 -8 27 -41q21 108 87 194zM397 206q-3 5 -16.5 11.5t-19.5 6.5q-22 0 -22 -12v-2q1 0 4.5 -4t5.5 -4t11 -2t11 -2q12 0 26 8zM434 265q0 80 -170 104q0 -42 2 -124q6 -117 37 -178q6 -12 24.5 -32
t27.5 -20q2 0 8 -2h6q-1 31 19.5 86.5t20.5 76.5q0 7 -3 13h-9q-3 0 -14.5 -3.5t-15.5 -3.5q-17 0 -31 7q-18 9 -18 24q0 26 43 26q16 0 47 -20q11 0 19 18q7 15 7 28zM359 868q0 19 12.5 32t31.5 13t32 -13t13 -32t-13 -32t-32 -13q-18 0 -31 13.5t-13 31.5zM209 868
q0 19 12.5 32t31.5 13t32 -13t13 -32t-13 -32t-32 -13q-18 0 -31 13.5t-13 31.5z" />
    <glyph glyph-name="Oslash" unicode="&#xd8;" horiz-adv-x="633" 
d="M289 733q-15 4 -34 11q-24 5 -37 4q-69 -6 -118 -49q-54 -47 -54 -114q0 -140 98 -169q-3 3 -3 12q0 19 15 71q-4 105 -70 105q-1 0 -8 -2.5t-9 -2.5l-5 8q22 13 41 13q40 0 65 -33q14 -24 21 -35q9 51 37 96q17 28 61 85zM422 596l20 37q-13 16 -29 24l-13 -1l1 -7
q15 -35 21 -53zM353 469l50 93q-18 55 -29 74q-33 -34 -33 -113q0 -16 12 -54zM254 284l91 169q-20 45 -20 75q0 68 43 126q-2 12 -49 64q-28 -37 -51 -123q-21 -80 -21 -134v-69q0 -13 7 -108zM413 524l-45 -86q11 -14 19 -14q10 0 22 25q10 22 10 35q0 16 -6 40zM458 609
l-25 -48q10 -33 10 -56q0 -20 -11.5 -48.5t-24.5 -43.5q-17 -5 -20 -5q-13 0 -26 16l-101 -190q13 -75 19 -92q28 -80 91 -121q130 -9 130 248q0 147 -1 163q-7 117 -41 177zM525 786h27l-66 -126q52 -38 81 -131q26 -82 24 -155q-4 -142 -43 -243q-56 -148 -172 -143
q-128 6 -187 111l-51 -97h-36l71 131q-17 46 -26 93t-9 137v32q0 3 -11 7q-47 17 -75 78q-26 55 -23 109q4 69 57.5 121t122.5 58q24 2 31 2q22 0 64 -17q55 47 74 44v-14q-11 -3 -14 -8q-10 -16 -35 -43q27 -13 60 -63q18 14 41 13q17 -1 33 -9z" />
    <glyph glyph-name="Ugrave" unicode="&#xd9;" horiz-adv-x="700" 
d="M700 553q-3 -90 -47 -131q21 -25 21 -72q0 -107 -115 -125q-4 -202 -136 -233q-38 -9 -54 -9l-2 -20h-14v20q-56 8 -77 19q-30 16 -49 58q-12 -33 -25 -67q-9 17 -26 70q-37 -18 -43 -18q-27 0 -46 17t-16 40q4 28 16 39q-1 -8 -1 -20q0 -45 36 -45t36 68v24
q-161 17 -161 145q0 72 42.5 111.5t118.5 35.5v31q-45 5 -74.5 36.5t-30.5 75.5q-2 98 112 153q84 41 200 45q121 5 222 -57q117 -72 113 -191zM627 419q0 7 -19 21.5t-27 15.5l-22 4v-78l9 1q22 10 34 16q25 12 25 20zM657 346q0 40 -19 59q-23 -16 -50 -28q-4 -3 -29 -9
v-127l22 2q25 5 50.5 33t25.5 70zM332 585q0 53 -36 53q-35 0 -35 -69v-63l20 5q13 3 29.5 18t18.5 27q3 17 3 29zM461 372l-1 90l-30 -2q-15 -2 -28.5 -16.5t-13.5 -29.5t15.5 -28.5t30.5 -13.5h27zM458 219q-27 -1 -36 -5q-51 -10 -51 -106v-101q8 4 22 4q4 0 8 3
q33 29 43 46q13 22 13 63zM158 184v183q-3 3 -36 3q-40 0 -67 -15q-35 -18 -35 -54q0 -45 29.5 -75.5t77.5 -36.5q19 -3 31 -5zM684 567q0 100 -113 156q-90 45 -198 45q-128 0 -195 -25q-104 -39 -109 -144q-1 -30 28.5 -60t60.5 -34l2 66q2 63 -20 63q-17 0 -25.5 -15
t-5.5 -33q-19 7 -19 28q0 26 16.5 42t39.5 16q27 0 44 -26l22 50q6 -20 22 -53q15 27 49 27q31 0 49 -27q15 -24 15 -57q0 -81 -86 -95q-1 -7 -1 -33l1 -263q45 23 51 27q28 21 29 63q2 45 -41 68l12 8q21 -2 33 -29q11 -23 11 -47q0 -70 -95 -104l-3 -34q0 -138 81 -138
l14 -2v100q0 57 24 91q28 40 83 37q1 39 0 121h-14q-28 0 -50 15q-26 17 -25 43q1 47 38 66q27 14 51 9v128q-11 17 -18 17q-11 0 -18 -15.5t-4 -27.5h-12q-7 15 -7 30q0 19 13.5 32t33.5 13q28 0 38 -16l25 53q10 -37 22 -53q20 20 40 20q14 0 27 -14t13 -28q0 2 -4 -23h-8
q-1 2 -7 16q-4 10 -13 10q-18 0 -22 -13q0 -1 -2 -29q2 -43 0 -102q58 -8 86 -53q41 53 41 133zM195 918q12 28 34 28q14 0 31 -10l197 -113l-3 -9l-219 41q-16 0 -30 13.5t-14 31.5q0 9 4 18z" />
    <glyph glyph-name="Uacute" unicode="&#xda;" horiz-adv-x="700" 
d="M700 553q-3 -90 -47 -131q21 -25 21 -72q0 -107 -115 -125q-4 -202 -136 -233q-38 -9 -54 -9l-2 -20h-14v20q-56 8 -77 19q-30 16 -49 58q-12 -33 -25 -67q-9 17 -26 70q-37 -18 -43 -18q-27 0 -46 17t-16 40q4 28 16 39q-1 -8 -1 -20q0 -45 36 -45t36 68v24
q-161 17 -161 145q0 72 42.5 111.5t118.5 35.5v31q-45 5 -74.5 36.5t-30.5 75.5q-2 98 112 153q84 41 200 45q121 5 222 -57q117 -72 113 -191zM627 419q0 7 -19 21.5t-27 15.5l-22 4v-78l9 1q22 10 34 16q25 12 25 20zM657 346q0 40 -19 59q-23 -16 -50 -28q-4 -3 -29 -9
v-127l22 2q25 5 50.5 33t25.5 70zM332 585q0 53 -36 53q-35 0 -35 -69v-63l20 5q13 3 29.5 18t18.5 27q3 17 3 29zM461 372l-1 90l-30 -2q-15 -2 -28.5 -16.5t-13.5 -29.5t15.5 -28.5t30.5 -13.5h27zM458 219q-27 -1 -36 -5q-51 -10 -51 -106v-101q8 4 22 4q4 0 8 3
q33 29 43 46q13 22 13 63zM158 184v183q-3 3 -36 3q-40 0 -67 -15q-35 -18 -35 -54q0 -45 29.5 -75.5t77.5 -36.5q19 -3 31 -5zM684 567q0 100 -113 156q-90 45 -198 45q-128 0 -195 -25q-104 -39 -109 -144q-1 -30 28.5 -60t60.5 -34l2 66q2 63 -20 63q-17 0 -25.5 -15
t-5.5 -33q-19 7 -19 28q0 26 16.5 42t39.5 16q27 0 44 -26l22 50q6 -20 22 -53q15 27 49 27q31 0 49 -27q15 -24 15 -57q0 -81 -86 -95q-1 -7 -1 -33l1 -263q45 23 51 27q28 21 29 63q2 45 -41 68l12 8q21 -2 33 -29q11 -23 11 -47q0 -70 -95 -104l-3 -34q0 -138 81 -138
l14 -2v100q0 57 24 91q28 40 83 37q1 39 0 121h-14q-28 0 -50 15q-26 17 -25 43q1 47 38 66q27 14 51 9v128q-11 17 -18 17q-11 0 -18 -15.5t-4 -27.5h-12q-7 15 -7 30q0 19 13.5 32t33.5 13q28 0 38 -16l25 53q10 -37 22 -53q20 20 40 20q14 0 27 -14t13 -28q0 2 -4 -23h-8
q-1 2 -7 16q-4 10 -13 10q-18 0 -22 -13q0 -1 -2 -29q2 -43 0 -102q58 -8 86 -53q41 53 41 133zM459 918q-12 27 -30 27q-10 0 -39 -16l-193 -106l3 -9l218 41q16 0 30.5 13.5t14.5 31.5q0 9 -4 18z" />
    <glyph glyph-name="Ucircumflex" unicode="&#xdb;" horiz-adv-x="700" 
d="M700 553q-3 -90 -47 -131q21 -25 21 -72q0 -107 -115 -125q-4 -202 -136 -233q-38 -9 -54 -9l-2 -20h-14v20q-56 8 -77 19q-30 16 -49 58q-12 -33 -25 -67q-9 17 -26 70q-37 -18 -43 -18q-27 0 -46 17t-16 40q4 28 16 39q-1 -8 -1 -20q0 -45 36 -45t36 68v24
q-161 17 -161 145q0 72 42.5 111.5t118.5 35.5v31q-45 5 -74.5 36.5t-30.5 75.5q-2 98 112 153q84 41 200 45q121 5 222 -57q117 -72 113 -191zM627 419q0 7 -19 21.5t-27 15.5l-22 4v-78l9 1q22 10 34 16q25 12 25 20zM657 346q0 40 -19 59q-23 -16 -50 -28q-4 -3 -29 -9
v-127l22 2q25 5 50.5 33t25.5 70zM332 585q0 53 -36 53q-35 0 -35 -69v-63l20 5q13 3 29.5 18t18.5 27q3 17 3 29zM461 372l-1 90l-30 -2q-15 -2 -28.5 -16.5t-13.5 -29.5t15.5 -28.5t30.5 -13.5h27zM458 219q-27 -1 -36 -5q-51 -10 -51 -106v-101q8 4 22 4q4 0 8 3
q33 29 43 46q13 22 13 63zM158 184v183q-3 3 -36 3q-40 0 -67 -15q-35 -18 -35 -54q0 -45 29.5 -75.5t77.5 -36.5q19 -3 31 -5zM684 567q0 100 -113 156q-90 45 -198 45q-128 0 -195 -25q-104 -39 -109 -144q-1 -30 28.5 -60t60.5 -34l2 66q2 63 -20 63q-17 0 -25.5 -15
t-5.5 -33q-19 7 -19 28q0 26 16.5 42t39.5 16q27 0 44 -26l22 50q6 -20 22 -53q15 27 49 27q31 0 49 -27q15 -24 15 -57q0 -81 -86 -95q-1 -7 -1 -33l1 -263q45 23 51 27q28 21 29 63q2 45 -41 68l12 8q21 -2 33 -29q11 -23 11 -47q0 -70 -95 -104l-3 -34q0 -138 81 -138
l14 -2v100q0 57 24 91q28 40 83 37q1 39 0 121h-14q-28 0 -50 15q-26 17 -25 43q1 47 38 66q27 14 51 9v128q-11 17 -18 17q-11 0 -18 -15.5t-4 -27.5h-12q-7 15 -7 30q0 19 13.5 32t33.5 13q28 0 38 -16l25 53q10 -37 22 -53q20 20 40 20q14 0 27 -14t13 -28q0 2 -4 -23h-8
q-1 2 -7 16q-4 10 -13 10q-18 0 -22 -13q0 -1 -2 -29q2 -43 0 -102q58 -8 86 -53q41 53 41 133zM200 813l-2 6l150 113l157 -115l-3 -6l-152 50z" />
    <glyph glyph-name="Udieresis" unicode="&#xdc;" horiz-adv-x="700" 
d="M700 553q-3 -90 -47 -131q21 -25 21 -72q0 -107 -115 -125q-4 -202 -136 -233q-38 -9 -54 -9l-2 -20h-14v20q-56 8 -77 19q-30 16 -49 58q-12 -33 -25 -67q-9 17 -26 70q-37 -18 -43 -18q-27 0 -46 17t-16 40q4 28 16 39q-1 -8 -1 -20q0 -45 36 -45t36 68v24
q-161 17 -161 145q0 72 42.5 111.5t118.5 35.5v31q-45 5 -74.5 36.5t-30.5 75.5q-2 98 112 153q84 41 200 45q121 5 222 -57q117 -72 113 -191zM627 419q0 7 -19 21.5t-27 15.5l-22 4v-78l9 1q22 10 34 16q25 12 25 20zM657 346q0 40 -19 59q-23 -16 -50 -28q-4 -3 -29 -9
v-127l22 2q25 5 50.5 33t25.5 70zM332 585q0 53 -36 53q-35 0 -35 -69v-63l20 5q13 3 29.5 18t18.5 27q3 17 3 29zM461 372l-1 90l-30 -2q-15 -2 -28.5 -16.5t-13.5 -29.5t15.5 -28.5t30.5 -13.5h27zM458 219q-27 -1 -36 -5q-51 -10 -51 -106v-101q8 4 22 4q4 0 8 3
q33 29 43 46q13 22 13 63zM158 184v183q-3 3 -36 3q-40 0 -67 -15q-35 -18 -35 -54q0 -45 29.5 -75.5t77.5 -36.5q19 -3 31 -5zM684 567q0 100 -113 156q-90 45 -198 45q-128 0 -195 -25q-104 -39 -109 -144q-1 -30 28.5 -60t60.5 -34l2 66q2 63 -20 63q-17 0 -25.5 -15
t-5.5 -33q-19 7 -19 28q0 26 16.5 42t39.5 16q27 0 44 -26l22 50q6 -20 22 -53q15 27 49 27q31 0 49 -27q15 -24 15 -57q0 -81 -86 -95q-1 -7 -1 -33l1 -263q45 23 51 27q28 21 29 63q2 45 -41 68l12 8q21 -2 33 -29q11 -23 11 -47q0 -70 -95 -104l-3 -34q0 -138 81 -138
l14 -2v100q0 57 24 91q28 40 83 37q1 39 0 121h-14q-28 0 -50 15q-26 17 -25 43q1 47 38 66q27 14 51 9v128q-11 17 -18 17q-11 0 -18 -15.5t-4 -27.5h-12q-7 15 -7 30q0 19 13.5 32t33.5 13q28 0 38 -16l25 53q10 -37 22 -53q20 20 40 20q14 0 27 -14t13 -28q0 2 -4 -23h-8
q-1 2 -7 16q-4 10 -13 10q-18 0 -22 -13q0 -1 -2 -29q2 -43 0 -102q58 -8 86 -53q41 53 41 133zM369 868q0 19 12.5 32t31.5 13t32 -13t13 -32t-13 -32t-32 -13q-18 0 -31 13.5t-13 31.5zM219 868q0 19 12.5 32t31.5 13t32 -13t13 -32t-13 -32t-32 -13q-18 0 -31 13.5
t-13 31.5z" />
    <glyph glyph-name="Yacute" unicode="&#xdd;" horiz-adv-x="643" 
d="M633 591q0 -80 -54 -121q-49 -37 -132 -37q-1 0 -19 2q-46 -64 -46 -184q0 -72 23 -72q30 0 27 45q9 -9 9 -27q0 -23 -12.5 -38.5t-33.5 -15.5t-31 16l-17 -26q6 1 14 0q6 -1 14 -1q15 -5 34 -5q80 0 80 73q0 26 -27 69t-27 68q0 26 17.5 46t42.5 20t42 -17t17 -42
t-20 -51q-6 -1 -9 6q18 20 18 42q0 19 -14 34t-32 15q-38 0 -38 -48q0 -20 23.5 -69.5t23.5 -74.5t-12 -50q-13 -28 -34 -35q36 -10 42 -10q33 0 54 19t21 49q0 38 -30 72q-1 5 5 7q42 -43 42 -87q0 -56 -36.5 -85.5t-97.5 -27.5q15 -19 39 -63q-91 55 -179 55
q-51 0 -80 -15q-8 -3 -67 -46l-6 4q26 93 113 128q13 3 54 19l-20 27q-28 -21 -40 -21q-20 0 -33.5 13.5t-13.5 33.5q0 21 11 32l2 -2l-1 -7q0 -30 25 -30q23 0 23 52v32v18q-1 10 -1 13q-1 -1 -4 -1q-4 0 -19.5 1.5t-20.5 1.5q-88 0 -91 -82l-2 1q-13 27 -13 53
q0 92 133 98q-5 11 -15.5 31.5t-15.5 31.5q-65 -9 -105 -47q-44 -41 -44 -104q0 -32 20.5 -58t50.5 -26q27 0 52 40l7 -5q-19 -48 -59 -48q-42 0 -69 36q-23 31 -22 65q2 60 50.5 108t108.5 57q-37 68 -59 105q-42 71 -83 71q-31 0 -52 -21.5t-21 -52.5q0 -30 25 -53t55 -23
q13 0 32 8t27 18h4q0 -1 1 -2t1 -2q-6 -15 -27 -26t-41 -11q-37 0 -65.5 28t-28.5 65q0 47 31 78t78 31q20 0 42 -8q0 30 -24 44q-3 2 -50 19l-1 2q18 6 37 6q66 0 97 -54q27 133 195 130q89 -2 159 -59q73 -60 73 -148zM620 588q0 93 -78 142q-66 41 -164 41
q-137 0 -137 -89q0 -33 87 -221q7 0 20.5 2t20.5 2q-6 0 37 -4q12 26 33 100q1 4 1 10q0 19 -12 33t-30 14q-29 0 -29 -46v-13l-2 -2q-17 23 -17 39q0 27 17 50.5t41 23.5q27 0 49 -19h-1q19 22 43 62v-69q2 11 26 11q28 0 46.5 -17.5t18.5 -44.5q0 -28 -12 -41.5t-44 -22.5
v4q31 10 31 46q0 26 -31 26q-20 0 -39.5 -18.5t-19.5 -38.5l-36 -93l43 -3q57 0 97.5 39.5t40.5 96.5zM395 433q-15 4 -26 4q-12 0 -28 -4l29 -51zM459 918q-12 27 -30 27q-10 0 -39 -16l-193 -106l3 -9l218 41q16 0 30.5 13.5t14.5 31.5q0 9 -4 18z" />
    <glyph glyph-name="germandbls" unicode="&#xdf;" horiz-adv-x="390" 
d="M356 156q0 -43 -32 -93q-21 -32 -64 -95q-6 -8 -47 -64q-19 -26 -19 -43q0 -6 3 -10q12 6 19 11q6 0 11 -10t5 -15q0 -9 -10 -17t-20 -8q-28 0 -28 42q0 48 37 104q17 26 39 77q24 55 26 80q3 36 -13 70q-20 39 -54 39q-12 0 -25 -7l-6 15l99 87q-28 29 -78 105l-99 2
l1 -164l-2 -356q29 -25 32 -26q1 0 11 9.5t13 9.5q2 -3 8 -16q-49 -75 -58 -75q-12 0 -88 64q11 17 11 27l1 524l-35 56l35 -3v77q0 34 -11 45v6h25q28 0 58 28.5t37 56.5h8q5 -16 22 -30t32 -14q12 0 21.5 11t9.5 24q0 3 -8.5 10t-8.5 9q0 14 11 14q18 0 18 -28
q0 -60 -34 -88q-23 -19 -46 -19q-32 0 -56 33q-1 -3 -4 -4.5t-3 -2.5v-126q1 -1 67 0q74 2 87 8q3 -4 10 -23q7 -15 16 -37q8 -14 35 -45t27 -33q-9 -8 -88 -74q51 -6 79 -45q23 -32 23 -73z" />
    <glyph glyph-name="agrave" unicode="&#xe0;" 
d="M327 93q-64 -46 -75 -107q-21 3 -38.5 29.5t-15.5 48.5q-14 -2 -46 -34t-42 -49q-50 56 -71 56q-10 0 -31 -7v6q0 6 14.5 19.5t15.5 16.5t1 33v41v23q-1 14 -1 17q-14 30 -33 41q19 2 34 5q37 8 53 20q-22 8 -38 32.5t-16 47.5q0 36 23 63q14 16 51 43t52 46
q40 -67 116 -67l3 -5q-16 -22 -16 -46v-249l21 -28q10 4 37 13zM57 339q0 -35 22.5 -55.5t58.5 -20.5q15 0 32.5 16t20.5 31q1 3 1 23q0 73 -67 73q-30 0 -49 -18.5t-19 -48.5zM193 259q-9 -2 -29 -11q-10 -6 -42 -6q-12 0 -12 -48v-28q0 -3 1 -15v-22v-38q35 -24 45 -24
q13 0 38 33zM72 630q9 0 31 -12l155 -85l-2 -7q-29 6 -87 17q-77 15 -89 15t-23 11t-11 25q0 12 7.5 24t18.5 12z" />
    <glyph glyph-name="aacute" unicode="&#xe1;" 
d="M327 93q-64 -46 -75 -107q-21 3 -38.5 29.5t-15.5 48.5q-14 -2 -46 -34t-42 -49q-50 56 -71 56q-10 0 -31 -7v6q0 6 14.5 19.5t15.5 16.5t1 33v41v23q-1 14 -1 17q-14 30 -33 41q19 2 34 5q37 8 53 20q-22 8 -38 32.5t-16 47.5q0 36 23 63q14 16 51 43t52 46
q40 -67 116 -67l3 -5q-16 -22 -16 -46v-249l21 -28q10 4 37 13zM57 339q0 -35 22.5 -55.5t58.5 -20.5q15 0 32.5 16t20.5 31q1 3 1 23q0 73 -67 73q-30 0 -49 -18.5t-19 -48.5zM193 259q-9 -2 -29 -11q-10 -6 -42 -6q-12 0 -12 -48v-28q0 -3 1 -15v-22v-38q35 -24 45 -24
q13 0 38 33zM249 631q-7 0 -31 -13l-155 -85l2 -7q15 3 88 17q80 15 87 15q13 0 24.5 11t11.5 26q0 12 -8 24t-19 12z" />
    <glyph glyph-name="acircumflex" unicode="&#xe2;" 
d="M327 93q-64 -46 -75 -107q-21 3 -38.5 29.5t-15.5 48.5q-14 -2 -46 -34t-42 -49q-50 56 -71 56q-10 0 -31 -7v6q0 6 14.5 19.5t15.5 16.5t1 33v41v23q-1 14 -1 17q-14 30 -33 41q19 2 34 5q37 8 53 20q-22 8 -38 32.5t-16 47.5q0 36 23 63q14 16 51 43t52 46
q40 -67 116 -67l3 -5q-16 -22 -16 -46v-249l21 -28q10 4 37 13zM57 339q0 -35 22.5 -55.5t58.5 -20.5q15 0 32.5 16t20.5 31q1 3 1 23q0 73 -67 73q-30 0 -49 -18.5t-19 -48.5zM193 259q-9 -2 -29 -11q-10 -6 -42 -6q-12 0 -12 -48v-28q0 -3 1 -15v-22v-38q35 -24 45 -24
q13 0 38 33zM50 513l-2 6l120 113l127 -115l-3 -6l-122 50z" />
    <glyph glyph-name="atilde" unicode="&#xe3;" 
d="M327 93q-64 -46 -75 -107q-21 3 -38.5 29.5t-15.5 48.5q-14 -2 -46 -34t-42 -49q-50 56 -71 56q-10 0 -31 -7v6q0 6 14.5 19.5t15.5 16.5t1 33v41v23q-1 14 -1 17q-14 30 -33 41q19 2 34 5q37 8 53 20q-22 8 -38 32.5t-16 47.5q0 36 23 63q14 16 51 43t52 46
q40 -67 116 -67l3 -5q-16 -22 -16 -46v-249l21 -28q10 4 37 13zM57 339q0 -35 22.5 -55.5t58.5 -20.5q15 0 32.5 16t20.5 31q1 3 1 23q0 73 -67 73q-30 0 -49 -18.5t-19 -48.5zM193 259q-9 -2 -29 -11q-10 -6 -42 -6q-12 0 -12 -48v-28q0 -3 1 -15v-22v-38q35 -24 45 -24
q13 0 38 33zM52 537q6 29 34 47t62 18q12 0 37 -11.5t39 -11.5q11 0 35 7t33 13q-32 -65 -102 -65q-13 0 -36 10.5t-33 10.5q-51 0 -69 -18z" />
    <glyph glyph-name="adieresis" unicode="&#xe4;" 
d="M327 93q-64 -46 -75 -107q-21 3 -38.5 29.5t-15.5 48.5q-14 -2 -46 -34t-42 -49q-50 56 -71 56q-10 0 -31 -7v6q0 6 14.5 19.5t15.5 16.5t1 33v41v23q-1 14 -1 17q-14 30 -33 41q19 2 34 5q37 8 53 20q-22 8 -38 32.5t-16 47.5q0 36 23 63q14 16 51 43t52 46
q40 -67 116 -67l3 -5q-16 -22 -16 -46v-249l21 -28q10 4 37 13zM57 339q0 -35 22.5 -55.5t58.5 -20.5q15 0 32.5 16t20.5 31q1 3 1 23q0 73 -67 73q-30 0 -49 -18.5t-19 -48.5zM193 259q-9 -2 -29 -11q-10 -6 -42 -6q-12 0 -12 -48v-28q0 -3 1 -15v-22v-38q35 -24 45 -24
q13 0 38 33zM189 568q0 19 12.5 32t31.5 13t32 -13t13 -32t-13 -32t-32 -13q-18 0 -31 13.5t-13 31.5zM49 568q0 19 12.5 32t31.5 13t32 -13t13 -32t-13 -32t-32 -13q-18 0 -31 13.5t-13 31.5z" />
    <glyph glyph-name="aring" unicode="&#xe5;" 
d="M327 93q-64 -46 -75 -107q-21 3 -38.5 29.5t-15.5 48.5q-14 -2 -46 -34t-42 -49q-50 56 -71 56q-10 0 -31 -7v6q0 6 14.5 19.5t15.5 16.5t1 33v41v23q-1 14 -1 17q-14 30 -33 41q19 2 34 5q37 8 53 20q-22 8 -38 32.5t-16 47.5q0 36 23 63q14 16 51 43t52 46
q40 -67 116 -67l3 -5q-16 -22 -16 -46v-249l21 -28q10 4 37 13zM57 339q0 -35 22.5 -55.5t58.5 -20.5q15 0 32.5 16t20.5 31q1 3 1 23q0 73 -67 73q-30 0 -49 -18.5t-19 -48.5zM193 259q-9 -2 -29 -11q-10 -6 -42 -6q-12 0 -12 -48v-28q0 -3 1 -15v-22v-38q35 -24 45 -24
q13 0 38 33zM163 664q29 0 49.5 -21t20.5 -50q0 -28 -21 -49t-49 -21q-27 0 -49 21.5t-22 46.5q0 29 21 51t50 22zM163 641q-20 0 -33.5 -13.5t-13.5 -34.5q0 -20 13.5 -33.5t33.5 -13.5t33.5 13.5t13.5 33.5q0 21 -13.5 34.5t-33.5 13.5z" />
    <glyph glyph-name="ae" unicode="&#xe6;" horiz-adv-x="452" 
d="M273 80q15 -11 68 -41q41 20 37 54l8 3q12 -1 12 -16q0 -20 -36 -58q-33 -34 -55 -46q-25 20 -107 66q-8 14 -2 21v1q-14 -2 -46 -34t-42 -49q-50 56 -71 56q-10 0 -31 -7v6q0 6 14.5 19.5t15.5 16.5v114q-14 30 -33 41q19 2 34 5q37 8 53 20q-22 8 -38 32.5t-16 47.5
q0 36 23 63q14 16 51 43t52 46q32 -52 78 -63q47 6 98 66q5 -4 22 -45q16 -37 27 -37q2 2 22 12l14 3l6 -11l-14 -9q-48 -25 -80 -95q-30 -65 -30 -124q0 -42 23 -40l7 3q-6 5 -6 13q0 12 16 21q12 -2 21 -22q-11 -32 -40 -32q-37 0 -37 59q0 34 15.5 85.5t34.5 74.5
q-17 20 -44 73q-16 -5 -24 -10q1 -61 -1 -326h1zM57 339q0 -35 22.5 -55.5t58.5 -20.5q15 0 32.5 16t20.5 31q1 3 1 23q0 73 -67 73q-30 0 -49 -18.5t-19 -48.5zM193 259q-9 -2 -29 -11q-10 -6 -42 -6q-12 0 -12 -48v-28q0 -3 1 -15v-22v-38q35 -24 45 -24q13 0 38 33z" />
    <glyph glyph-name="ccedilla" unicode="&#xe7;" horiz-adv-x="253" 
d="M222 443q-43 -44 -52 -76q-1 -5 -5 -22t-6 -22q-2 -8 -2 -1q0 -4 3 -7q14 9 19 10q15 0 15 -20q0 -23 -24 -23q-30 0 -30 39q0 6 6.5 25t6.5 24q0 15 -20 30l-34 20l-9 -4q-1 -100 0 -298q56 -56 68 -56q4 0 17 16t13 21q0 1 -1.5 7.5t-1.5 8.5q5 3 13 3q10 0 10 -12
q0 -34 -92 -106l2 -2l1 -35q25 5 36 5q29 0 36 -22q2 -14 2 -47q0 -20 7 -26q-9 4 -42 4q-26 0 -47 -28q-21 28 -40 28q-16 0 -19 -18l-6 1q1 18 15 30t32 12q19 0 34 -18l16 3q12 19 12 32q0 12 -12 27l-10 1q-18 2 -37 -10l1 65q-34 40 -94 77q21 35 21 61l-2 219
q-5 35 -20 48q37 15 79 38q16 9 50 46q44 -53 64 -53q2 0 12 5l10 5z" />
    <glyph glyph-name="egrave" unicode="&#xe8;" horiz-adv-x="277" 
d="M250 425l-5 -9q-48 -25 -84 -98q-34 -68 -34 -127q0 -42 23 -40l7 3q-6 5 -6 13q0 12 16 21q12 -2 21 -22q-11 -32 -40 -32q-37 0 -37 59q0 42 50 160q-17 20 -44 73q-7 -2 -26 -12l1 -324q17 -13 69 -41q41 20 37 54l8 3q12 -1 12 -16q0 -20 -36 -58q-33 -34 -55 -46
l-124 71q25 19 25 50l1 261q0 36 -23 59q61 1 88 13.5t66 56.5q5 -4 22 -45q16 -37 27 -37q-3 0 27 15h9zM44 627q13 0 29 -9l155 -85l-2 -7q-29 6 -87 17q-77 15 -89 15t-23.5 10.5t-11.5 25.5q0 12 8.5 22.5t20.5 10.5z" />
    <glyph glyph-name="eacute" unicode="&#xe9;" horiz-adv-x="277" 
d="M250 425l-5 -9q-48 -25 -84 -98q-34 -68 -34 -127q0 -42 23 -40l7 3q-6 5 -6 13q0 12 16 21q12 -2 21 -22q-11 -32 -40 -32q-37 0 -37 59q0 42 50 160q-17 20 -44 73q-7 -2 -26 -12l1 -324q17 -13 69 -41q41 20 37 54l8 3q12 -1 12 -16q0 -20 -36 -58q-33 -34 -55 -46
l-124 71q25 19 25 50l1 261q0 36 -23 59q61 1 88 13.5t66 56.5q5 -4 22 -45q16 -37 27 -37q-3 0 27 15h9zM209 631q-7 0 -31 -13l-155 -85l2 -7q15 3 88 17q80 15 87 15q13 0 24.5 11t11.5 26q0 12 -8 24t-19 12z" />
    <glyph glyph-name="ecircumflex" unicode="&#xea;" horiz-adv-x="277" 
d="M250 425l-5 -9q-48 -25 -84 -98q-34 -68 -34 -127q0 -42 23 -40l7 3q-6 5 -6 13q0 12 16 21q12 -2 21 -22q-11 -32 -40 -32q-37 0 -37 59q0 42 50 160q-17 20 -44 73q-7 -2 -26 -12l1 -324q17 -13 69 -41q41 20 37 54l8 3q12 -1 12 -16q0 -20 -36 -58q-33 -34 -55 -46
l-124 71q25 19 25 50l1 261q0 36 -23 59q61 1 88 13.5t66 56.5q5 -4 22 -45q16 -37 27 -37q-3 0 27 15h9zM0 513l-2 6l120 113l127 -115l-3 -6l-122 50z" />
    <glyph glyph-name="edieresis" unicode="&#xeb;" horiz-adv-x="277" 
d="M250 425l-5 -9q-48 -25 -84 -98q-34 -68 -34 -127q0 -42 23 -40l7 3q-6 5 -6 13q0 12 16 21q12 -2 21 -22q-11 -32 -40 -32q-37 0 -37 59q0 42 50 160q-17 20 -44 73q-7 -2 -26 -12l1 -324q17 -13 69 -41q41 20 37 54l8 3q12 -1 12 -16q0 -20 -36 -58q-33 -34 -55 -46
l-124 71q25 19 25 50l1 261q0 36 -23 59q61 1 88 13.5t66 56.5q5 -4 22 -45q16 -37 27 -37q-3 0 27 15h9zM159 568q0 19 12.5 32t31.5 13t32 -13t13 -32t-13 -32t-32 -13q-18 0 -31 13.5t-13 31.5zM19 568q0 19 12.5 32t31.5 13t32 -13t13 -32t-13 -32t-32 -13
q-18 0 -31 13.5t-13 31.5z" />
    <glyph glyph-name="igrave" unicode="&#xec;" horiz-adv-x="211" 
d="M194 62q-14 -13 -73 -74q-23 2 -41 29.5t-18 51.5v304q0 36 -28 36q-7 0 -7 -8q0 -2 2 -9t2 -9q0 -6 -8 -6q-15 0 -15 17q0 19 79 89l71 -74q-22 -16 -22 -28q0 -209 -4 -297q14 -26 29 -26q2 0 14 9t14 9q1 -2 5 -14zM12 630q9 0 31 -12l155 -85l-2 -7q-29 6 -87 17
q-77 15 -89 15t-23 11t-11 25q0 12 7.5 24t18.5 12z" />
    <glyph glyph-name="iacute" unicode="&#xed;" horiz-adv-x="211" 
d="M194 62q-14 -13 -73 -74q-23 2 -41 29.5t-18 51.5v304q0 36 -28 36q-7 0 -7 -8q0 -2 2 -9t2 -9q0 -6 -8 -6q-15 0 -15 17q0 19 79 89l71 -74q-22 -16 -22 -28q0 -209 -4 -297q14 -26 29 -26q2 0 14 9t14 9q1 -2 5 -14zM169 631q-7 0 -31 -13l-155 -85l2 -7q15 3 88 17
q80 15 87 15q13 0 24.5 11t11.5 26q0 12 -8 24t-19 12z" />
    <glyph glyph-name="icircumflex" unicode="&#xee;" horiz-adv-x="211" 
d="M194 62q-14 -13 -73 -74q-23 2 -41 29.5t-18 51.5v304q0 36 -28 36q-7 0 -7 -8q0 -2 2 -9t2 -9q0 -6 -8 -6q-15 0 -15 17q0 19 79 89l71 -74q-22 -16 -22 -28q0 -209 -4 -297q14 -26 29 -26q2 0 14 9t14 9q1 -2 5 -14zM-30 513l-2 6l120 113l127 -115l-3 -6l-122 50z" />
    <glyph glyph-name="idieresis" unicode="&#xef;" horiz-adv-x="211" 
d="M194 62q-14 -13 -73 -74q-23 2 -41 29.5t-18 51.5v304q0 36 -28 36q-7 0 -7 -8q0 -2 2 -9t2 -9q0 -6 -8 -6q-15 0 -15 17q0 19 79 89l71 -74q-22 -16 -22 -28q0 -209 -4 -297q14 -26 29 -26q2 0 14 9t14 9q1 -2 5 -14zM119 568q0 19 12.5 32t31.5 13t32 -13t13 -32
t-13 -32t-32 -13q-18 0 -31 13.5t-13 31.5zM-21 568q0 19 12.5 32t31.5 13t32 -13t13 -32t-13 -32t-32 -13q-18 0 -31 13.5t-13 31.5z" />
    <glyph glyph-name="ntilde" unicode="&#xf1;" horiz-adv-x="384" 
d="M228 489q29 -30 96 -88q-22 -17 -21 -32q2 -36 0 -248q-5 -29 31 -44q2 -1 9 0q11 0 26 20l11 -10l-67 -87l-14 3q-27 6 -46 31.5t-19 53.5v287l-43 42l-58 -44q-1 -12 -2 -94q-1 -100 1 -150q1 -26 2 -29q5 -16 26 -38q-38 -23 -65 -65q-26 51 -60 65q22 20 25 32
q1 2 1 36v194q0 46 -5 60q-2 7 -13 17.5t-17 10.5q-2 0 -10.5 -8t-10.5 -8q-6 0 -9 11l73 79q18 -11 38 -33q27 -30 27 -57q43 30 94 93zM52 537q6 29 34 47t62 18q12 0 37 -11.5t39 -11.5q11 0 35 7t33 13q-32 -65 -102 -65q-13 0 -36 10.5t-33 10.5q-51 0 -69 -18z" />
    <glyph glyph-name="ograve" unicode="&#xf2;" horiz-adv-x="329" 
d="M292 101q-99 -55 -155 -110q-50 44 -131 76q3 3 11.5 27t6.5 24l-1 -1v251q0 15 -2 19l-15 24q51 16 85 37q21 13 72 54q15 -22 129 -91q-21 -25 -21 -51v-217q0 -9 21 -42zM201 382l-76 58l-28 -17v-315q41 -31 81 -52l23 20v306zM62 630q9 0 31 -12l155 -85l-2 -7
q-29 6 -87 17q-77 15 -89 15t-23 11t-11 25q0 12 7.5 24t18.5 12z" />
    <glyph glyph-name="oacute" unicode="&#xf3;" horiz-adv-x="329" 
d="M292 101q-99 -55 -155 -110q-50 44 -131 76q3 3 11.5 27t6.5 24l-1 -1v251q0 15 -2 19l-15 24q51 16 85 37q21 13 72 54q15 -22 129 -91q-21 -25 -21 -51v-217q0 -9 21 -42zM201 382l-76 58l-28 -17v-315q41 -31 81 -52l23 20v306zM219 631q-7 0 -31 -13l-155 -85l2 -7
q15 3 88 17q80 15 87 15q13 0 24.5 11t11.5 26q0 12 -8 24t-19 12z" />
    <glyph glyph-name="ocircumflex" unicode="&#xf4;" horiz-adv-x="329" 
d="M292 101q-99 -55 -155 -110q-50 44 -131 76q3 3 11.5 27t6.5 24l-1 -1v251q0 15 -2 19l-15 24q51 16 85 37q21 13 72 54q15 -22 129 -91q-21 -25 -21 -51v-217q0 -9 21 -42zM201 382l-76 58l-28 -17v-315q41 -31 81 -52l23 20v306zM30 513l-2 6l120 113l127 -115l-3 -6
l-122 50z" />
    <glyph glyph-name="otilde" unicode="&#xf5;" horiz-adv-x="329" 
d="M292 101q-99 -55 -155 -110q-50 44 -131 76q3 3 11.5 27t6.5 24l-1 -1v251q0 15 -2 19l-15 24q51 16 85 37q21 13 72 54q15 -22 129 -91q-21 -25 -21 -51v-217q0 -9 21 -42zM201 382l-76 58l-28 -17v-315q41 -31 81 -52l23 20v306zM32 537q6 29 34 47t62 18
q12 0 37 -11.5t39 -11.5q11 0 35 7t33 13q-32 -65 -102 -65q-13 0 -36 10.5t-33 10.5q-51 0 -69 -18z" />
    <glyph glyph-name="odieresis" unicode="&#xf6;" horiz-adv-x="329" 
d="M292 101q-99 -55 -155 -110q-50 44 -131 76q3 3 11.5 27t6.5 24l-1 -1v251q0 15 -2 19l-15 24q51 16 85 37q21 13 72 54q15 -22 129 -91q-21 -25 -21 -51v-217q0 -9 21 -42zM201 382l-76 58l-28 -17v-315q41 -31 81 -52l23 20v306zM179 568q0 19 12.5 32t31.5 13t32 -13
t13 -32t-13 -32t-32 -13q-18 0 -31 13.5t-13 31.5zM39 568q0 19 12.5 32t31.5 13t32 -13t13 -32t-13 -32t-32 -13q-18 0 -31 13.5t-13 31.5z" />
    <glyph glyph-name="divide" unicode="&#xf7;" horiz-adv-x="512" 
d="M285 486q24 0 39.5 -16t15.5 -40q0 -22 -16.5 -38.5t-38.5 -16.5q-23 0 -39 16t-16 39t16 39.5t39 16.5zM22 299h526v-61h-526v61zM285 161q23 0 39 -16t16 -39q0 -22 -16.5 -38.5t-38.5 -16.5q-23 0 -39 16t-16 39t16 39t39 16z" />
    <glyph glyph-name="oslash" unicode="&#xf8;" horiz-adv-x="329" 
d="M201 323l-104 -192v-23q41 -31 81 -52l23 20v247zM97 173l104 194v15l-76 58l-28 -17v-250zM1 -6l32 61q-13 8 -27 12q3 3 11.5 27t6.5 24l-1 -1v251q0 15 -2 19l-15 24q51 16 85 37q21 13 72 54q17 -22 79 -60l30 56l14 -17l-26 -49q26 -16 32 -21q-21 -25 -21 -51v-217
q0 -9 21 -42q-99 -55 -155 -110q-25 22 -86 55l-36 -66z" />
    <glyph glyph-name="ugrave" unicode="&#xf9;" horiz-adv-x="361" 
d="M349 79l-67 -81q-21 13 -40.5 43t-19.5 53q-39 -29 -99 -98q-34 38 -95 87q21 19 21 33q1 39 1 249q0 29 -17 46l-29 -17l-6 17q32 23 39 29q24 22 43 44q33 -26 40 -58q1 -5 3 -32q41 29 104 92l1 1q4 -7 26.5 -36.5t26.5 -29.5q2 3 23 20q9 0 9 -11q0 -2 -12 -13
t-12 -13q1 -64 0 -287q5 -31 30 -44q2 -1 10.5 7.5t10.5 8.5q5 0 9 -10zM219 376l-32 47l-64 -53v-265l41 -44l55 51q2 9 2 66q0 66 -2 198zM72 630q9 0 31 -12l155 -85l-2 -7q-29 6 -87 17q-77 15 -89 15t-23 11t-11 25q0 12 7.5 24t18.5 12z" />
    <glyph glyph-name="uacute" unicode="&#xfa;" horiz-adv-x="361" 
d="M349 79l-67 -81q-21 13 -40.5 43t-19.5 53q-39 -29 -99 -98q-34 38 -95 87q21 19 21 33q1 39 1 249q0 29 -17 46l-29 -17l-6 17q32 23 39 29q24 22 43 44q33 -26 40 -58q1 -5 3 -32q41 29 104 92l1 1q4 -7 26.5 -36.5t26.5 -29.5q2 3 23 20q9 0 9 -11q0 -2 -12 -13
t-12 -13q1 -64 0 -287q5 -31 30 -44q2 -1 10.5 7.5t10.5 8.5q5 0 9 -10zM219 376l-32 47l-64 -53v-265l41 -44l55 51q2 9 2 66q0 66 -2 198zM229 631q-7 0 -31 -13l-155 -85l2 -7q15 3 88 17q80 15 87 15q13 0 24.5 11t11.5 26q0 12 -8 24t-19 12z" />
    <glyph glyph-name="ucircumflex" unicode="&#xfb;" horiz-adv-x="361" 
d="M349 79l-67 -81q-21 13 -40.5 43t-19.5 53q-39 -29 -99 -98q-34 38 -95 87q21 19 21 33q1 39 1 249q0 29 -17 46l-29 -17l-6 17q32 23 39 29q24 22 43 44q33 -26 40 -58q1 -5 3 -32q41 29 104 92l1 1q4 -7 26.5 -36.5t26.5 -29.5q2 3 23 20q9 0 9 -11q0 -2 -12 -13
t-12 -13q1 -64 0 -287q5 -31 30 -44q2 -1 10.5 7.5t10.5 8.5q5 0 9 -10zM219 376l-32 47l-64 -53v-265l41 -44l55 51q2 9 2 66q0 66 -2 198zM40 513l-2 6l120 113l127 -115l-3 -6l-122 50z" />
    <glyph glyph-name="udieresis" unicode="&#xfc;" horiz-adv-x="361" 
d="M349 79l-67 -81q-21 13 -40.5 43t-19.5 53q-39 -29 -99 -98q-34 38 -95 87q21 19 21 33q1 39 1 249q0 29 -17 46l-29 -17l-6 17q32 23 39 29q24 22 43 44q33 -26 40 -58q1 -5 3 -32q41 29 104 92l1 1q4 -7 26.5 -36.5t26.5 -29.5q2 3 23 20q9 0 9 -11q0 -2 -12 -13
t-12 -13q1 -64 0 -287q5 -31 30 -44q2 -1 10.5 7.5t10.5 8.5q5 0 9 -10zM219 376l-32 47l-64 -53v-265l41 -44l55 51q2 9 2 66q0 66 -2 198zM189 568q0 19 12.5 32t31.5 13t32 -13t13 -32t-13 -32t-32 -13q-18 0 -31 13.5t-13 31.5zM49 568q0 19 12.5 32t31.5 13t32 -13
t13 -32t-13 -32t-32 -13q-18 0 -31 13.5t-13 31.5z" />
    <glyph glyph-name="yacute" unicode="&#xfd;" horiz-adv-x="357" 
d="M392 -132q0 -46 -40 -46q-25 0 -25 17q0 19 18 19q10 0 17 -13h3q12 14 8 23q-11 25 -37 25q-39 0 -75 -20q-26 -16 -78 -47q-43 -25 -88 -25q-83 0 -83 72q0 26 29 59q24 28 52 44q-47 23 -47 127v34q0 8 1 18v11v103v59q-1 34 -1 43q0 31 -16 47l-25 -19l-7 12
q60 47 82 73q26 -20 34 -37t9 -53q41 29 104 92l1 1q44 -66 53 -66q3 0 23 20q9 2 9 -11q0 -2 -11.5 -12.5t-12.5 -14.5t-1 -137q0 -32 1 -96t1 -96q0 -18 10.5 -32.5t25.5 -14.5q5 0 8 1l-1 -14h-57q-46 0 -99.5 -17.5t-90.5 -44.5q-17 -12 -35 -38q-21 -29 -21 -46
q0 -12 13.5 -26.5t25.5 -14.5q27 0 67 25q68 42 78 47q51 25 106 25q29 0 50.5 -15.5t21.5 -40.5zM221 107q0 29 -2 269l-32 47l-64 -49v-302q0 -42 46 -60q46 11 35 11q2 0 8.5 10.5t7.5 10.5q1 14 1 63zM229 631q-7 0 -31 -13l-155 -85l2 -7q15 3 88 17q80 15 87 15
q13 0 24.5 11t11.5 26q0 12 -8 24t-19 12z" />
    <glyph glyph-name="ydieresis" unicode="&#xff;" horiz-adv-x="357" 
d="M392 -132q0 -46 -40 -46q-25 0 -25 17q0 19 18 19q10 0 17 -13h3q12 14 8 23q-11 25 -37 25q-39 0 -75 -20q-26 -16 -78 -47q-43 -25 -88 -25q-83 0 -83 72q0 26 29 59q24 28 52 44q-47 23 -47 127v34q0 8 1 18v11v103v59q-1 34 -1 43q0 31 -16 47l-25 -19l-7 12
q60 47 82 73q26 -20 34 -37t9 -53q41 29 104 92l1 1q44 -66 53 -66q3 0 23 20q9 2 9 -11q0 -2 -11.5 -12.5t-12.5 -14.5t-1 -137q0 -32 1 -96t1 -96q0 -18 10.5 -32.5t25.5 -14.5q5 0 8 1l-1 -14h-57q-46 0 -99.5 -17.5t-90.5 -44.5q-17 -12 -35 -38q-21 -29 -21 -46
q0 -12 13.5 -26.5t25.5 -14.5q27 0 67 25q68 42 78 47q51 25 106 25q29 0 50.5 -15.5t21.5 -40.5zM221 107q0 29 -2 269l-32 47l-64 -49v-302q0 -42 46 -60q46 11 35 11q2 0 8.5 10.5t7.5 10.5q1 14 1 63zM189 568q0 19 12.5 32t31.5 13t32 -13t13 -32t-13 -32t-32 -13
q-18 0 -31 13.5t-13 31.5zM39 568q0 19 12.5 32t31.5 13t32 -13t13 -32t-13 -32t-32 -13q-18 0 -31 13.5t-13 31.5z" />
    <glyph glyph-name="dotlessi" unicode="&#x131;" horiz-adv-x="211" 
d="M194 62q-14 -13 -73 -74q-23 2 -41 29.5t-18 51.5v304q0 36 -28 36q-7 0 -7 -8q0 -2 2 -9t2 -9q0 -6 -8 -6q-15 0 -15 17q0 19 79 89l71 -74q-22 -16 -22 -28q0 -209 -4 -297q14 -26 29 -26q2 0 14 9t14 9q1 -2 5 -14z" />
    <glyph glyph-name="Lslash" unicode="&#x141;" horiz-adv-x="590" 
d="M467 437l-114 -75q0 -15 1 -28q1 -17 0 -27q-1 -8 -1 -71q0 -74 35 -91q7 1 24 -1q-14 -14 -29 -11q-50 10 -82 64q-4 -8 -16 -26q-9 -9 -45 -27q30 1 85.5 -13t82.5 -14q108 0 129 47q1 2 1 18q0 2 2 2t10.5 -2.5t9.5 -1.5q-2 -38 -47.5 -75t-83.5 -37q-10 0 -24 3
q2 -2 2 -4q0 -14 25 -27q16 -9 28 -12h14q24 0 40 14t16 36q0 13 -6 26l2.5 -2t4.5 -2l10 9q2 -6 2 -35q0 -38 -34 -58q-28 -17 -59 -17q-26 0 -88 35q-2 -6 -26 -49h-2l-4 10.5t-5 10.5q-25 60 -122 60q-112 0 -159 -80l-13 -16q1 -1 1 18q1 49 57 93q38 30 75 41
q17 5 48 21.5t35 37.5q3 13 4 119l-140 -88v42l140 88q0 11 1 37v41v119q-51 -22 -67 -22q-40 -10 -69 -7l-17 2q-61 7 -91 65q-14 27 -14 60q0 76 61 116q40 26 101 26q36 0 75 -11q-3 3 49.5 18.5t75.5 15.5q74 0 128 -37q57 -40 73 -110q2 -9 2 -20q0 -43 -30 -71.5
t-71 -28.5q-68 0 -83 103q-1 8 -10 15q-4 0 -11 -7q-1 -121 0 -242l113 75v-42zM541 639q0 10 -2 22q-9 51 -70 87q-54 32 -110 32q-89 0 -105 -25q8 -6 23 -19q17 -19 28 -54l-13 -3q0 13 -19 39q-21 30 -35 28q-41 -6 -78 -72q-32 -58 -40 -118q0 -2 -1 -12.5t-1 -13.5h24
q47 0 105 57q73 72 121 92q14 6 30 6q53 0 71 -43q6 -18 21 -62q4 -10 16 -10q15 0 26 28q9 24 9 41zM211 757q-20 7 -58 5q-60 -3 -99.5 -36t-39.5 -83q0 -40 22 -73q24 -38 62 -38q-3 66 41 143q37 65 72 82z" />
    <glyph glyph-name="lslash" unicode="&#x142;" horiz-adv-x="219" 
d="M0 254l46 31q-1 43 -1 194q0 51 -49 153q66 -38 82 -95q7 72 61 152q29 43 64 43q7 0 16 -7t9 -13q0 -22 -18 -22q-2 0 -12 7t-12 7q-16 0 -37 -44q-16 -34 -21 -59q-11 -59 -11 -128v-141l66 45v-42l-66 -45v-169q6 -48 31 -64q-48 -34 -67 -71q-13 34 -63 67
q28 23 28 74v116l-46 -31v42z" />
    <glyph glyph-name="OE" unicode="&#x152;" horiz-adv-x="1116" 
d="M570 519q50 47 114 69q3 3 4 1q1 -1 -2 -4q-59 -68 -71 -133q21 -2 35 -18t14 -36q0 -23 -24 -42q-19 -15 -45 -21q-4 -58 4 -81q74 6 76 -48q1 -33 -41 -59q11 -32 32 -55q23 11 38 45q14 31 13 58q-2 71 1 324q2 113 -54 113q-38 0 -43 -45l-8 -6q-8 13 -8 19
q0 27 24 50t51 25q26 2 53 -31q4 15 26 71l30 -73q28 34 67 33q62 -2 92 -37q12 -14 33 -65q14 -34 39 -34q40 0 40 53q0 80 -107 143q-95 56 -180 56q-66 7 -137 7q-84 0 -189 -17q-53 -9 -72 -16q-24 -9 -46 -33q27 -13 60 -63q19 15 41 13q93 -6 140 -163zM1076 591
q0 -35 -22 -62t-55 -27q-35 0 -51 19q-16 -22 -19 -39h-3q-4 13 -20 46l-34 -13q-37 10 -35 37q44 3 44 45q0 53 -36 53q-30 0 -36 -35q0 -17 -2 -50q-3 -49 0 -147q8 -20 26 -17q20 1 27 4q14 5 14 21q1 24 -24 30q18 12 32 12q31 0 40 -16q6 -11 6 -48q15 -15 70 -31
q-23 -7 -72 -32q5 -65 -47 -65q-14 0 -33 14q29 8 28 27q-2 24 -15 28q-6 2 -29 2q-21 0 -21 -20q-1 -44 -1 -92q0 -147 79 -172l-19 -3q-33 -5 -56 20q-5 5 -32 47q-6 -7 -12 -44q-2 -16 -8 -48l-18 91l-4 2q-26 -32 -65 -46q21 -31 60.5 -52.5t75.5 -21.5q47 0 81.5 34
t34.5 81q0 45 -31 45q-24 0 -24 -38q-20 23 -20 39q0 20 14 34.5t35 14.5q12 0 34 -13q16 24 32 73q14 -32 35 -69q16 16 36 16q24 0 38.5 -19.5t14.5 -46.5q0 -10 -15 -36q1 9 1 16q0 32 -23 32q-28 -4 -28 -38q-3 -23 -18 -67q-52 -78 -203 -78q-171 0 -254 143
q-53 -125 -164 -144l8 -14l-14 -2q-3 4 -11 16q-70 7 -129 69q-66 69 -77 175q-1 14 -6 40q-106 4 -119 -71q-5 -29 18.5 -51.5t53.5 -22.5q22 0 44 15q6 -6 7 -9q-24 -24 -54 -24q-44 0 -73 36.5t-28 88.5q1 80 62 115q25 14 87 25v17q-10 6 -27 12q-47 17 -75 78
q-26 55 -23 109q4 69 56.5 119t122.5 55q14 1 26 1q26 0 66 -19q38 32 73 48q26 9 75 23q131 17 195 17q43 0 114 -5q103 -7 203 -71q116 -74 116 -166zM647 396q0 24 -40 36q-13 -76 -10 -79q19 3 34.5 15.5t15.5 27.5zM660 204q0 14 -11 23t-26 9q-7 0 -22 -4
q4 -17 26 -65q33 20 33 37zM398 511q0 82 -24 125q-33 -34 -33 -113q0 -64 31 -64q10 0 19 21q7 18 7 31zM413 657l-13 -1l1 -7q22 -51 22 -121q0 -48 -32 -80q-1 0 -9 -2.5t-10 -2.5q-24 0 -37 32q-10 25 -10 53q0 68 43 126q-2 12 -49 64q-28 -35 -43 -122
q-12 -68 -12 -131v-69q3 3 50 -9q55 -14 90 -40q48 -34 46 -82q-1 -38 -29 -67l4 -16q-2 -24 -24 -83q-19 -53 -16 -90l14 2q51 7 80 113q21 78 21 145v11q-6 60 1 106q-6 225 -88 271zM289 733q-15 4 -34 11q-24 5 -37 4q-69 -6 -118 -49q-54 -47 -54 -114q0 -60 26 -105
q29 -49 83 -66l-1 66q-1 43 -14 77q-18 47 -54 47q-1 0 -8 -2.5t-9 -2.5l-5 8q22 13 41 13q41 0 70 -40q6 -8 27 -41q21 108 87 194zM397 206q-3 5 -16.5 11.5t-19.5 6.5q-22 0 -22 -12v-2q1 0 4.5 -4t5.5 -4t11 -2t11 -2q12 0 26 8zM434 265q0 80 -170 104q0 -42 2 -124
q6 -117 37 -178q6 -12 24.5 -32t27.5 -20q2 0 8 -2h6q-1 31 19.5 86.5t20.5 76.5q0 7 -3 13h-9q-3 0 -14.5 -3.5t-15.5 -3.5q-17 0 -31 7q-18 9 -18 24q0 26 43 26q16 0 47 -20q11 0 19 18q7 15 7 28z" />
    <glyph glyph-name="oe" unicode="&#x153;" horiz-adv-x="449" 
d="M270 88q29 -20 71 -43q41 20 37 54l8 3q12 -1 12 -16q0 -20 -41 -57q-33 -30 -61 -46l-93 59q-13 -11 -65 -60q-61 53 -132 81q3 3 11.5 27t6.5 24l-1 -1v251q0 15 -2 19l-15 24q51 16 85 37q21 13 72 54q19 -25 80 -71q46 7 97 66q27 -79 53 -79q-1 0 23 12l15 6l6 -15
l-12 -5q-49 -20 -85 -96q-33 -69 -33 -129q0 -42 23 -40l7 3q-6 5 -6 13q0 12 16 21q12 -2 21 -22q-11 -32 -40 -32q-37 0 -37 59q0 33 16.5 87.5t35.5 78.5q-27 30 -46 67q-7 -2 -26 -12zM201 378l-76 58l-28 -17v-315q41 -31 81 -52q9 6 23 23v303z" />
    <glyph glyph-name="Scaron" unicode="&#x160;" horiz-adv-x="553" 
d="M521 605q0 -41 -20 -69q-23 -32 -62 -32q-9 0 -45 18q-20 -24 -15 -47h-13q-1 5 -4 30q-2 19 -11 26q-37 -15 -56 -15t-32 10q-28 -25 -47 -31q-13 -4 -57 -4h-9q10 -43 80 -43q40 0 74 45q21 -7 10 -55q21 11 39 11q7 0 13 -2l-23 -28l-3 -7q82 -4 128 -53t46 -130
q0 -124 -88 -190q-79 -58 -207 -58q-8 0 -6 -10t-2 -14q-8 2 -12 11.5t-2 18.5q-25 -2 -65 19q-36 19 -56 40q-59 -5 -102 38t-43 102q0 62 36.5 100t97.5 46q14 1 43 2q-3 3 -4 -16q-64 0 -108 -31q-49 -36 -49 -98q0 -50 36.5 -88.5t86.5 -38.5l-14 24q-15 26 -15 75
q0 54 35 89t89 34q59 -1 90 -45q16 -22 32 -80q12 -43 26 -43q7 -3 15 5.5t8 22.5q0 20 -24 36q-1 5 -1 7q3 2 7 4q11 0 21.5 -16t10.5 -30q0 -22 -15.5 -40t-36.5 -18q-19 0 -43 18q-29 -39 -36 -100h26q73 0 119.5 49.5t46.5 123.5q0 59 -29 97q-32 42 -89 42
q-16 0 -38 -40q-9 8 -9 22q0 7 3 14q-24 -5 -38 8q6 3 19 8q1 1 7 15q-3 1 -26 6q-70 2 -112 52q-40 46 -43 118q-51 32 -51 87q0 97 93 150q78 45 179 45q89 0 163 -53q81 -58 81 -144zM137 152q-15 11 -15 23q0 6 5 11q10 -4 10 -16v-18zM505 602q0 71 -77 121
q-68 45 -143 45q-262 0 -262 -159q0 -38 30 -67l7 -3q7 71 65 109q51 34 126 34q96 0 145 -55q15 -17 33 -62q13 -34 28 -34q48 0 48 71zM328 586q0 30 -24.5 50t-57.5 20q-46 0 -74 -35.5t-28 -82.5q0 -24 5 -32q38 0 61 5q10 2 23.5 13t13.5 17q0 3 -5.5 16t-5.5 15
q0 19 15 19q13 0 18 -26.5t17 -26.5q18 0 30 14.5t12 33.5zM184 193q0 24 -14.5 43t-35.5 19q-32 0 -53 -29.5t-21 -67.5q0 -20 7 -50q8 -38 21 -38q16 0 30 22q12 19 12 30l-12 21t-12 37q0 24 17 24t25 -23q1 -6 6 -38q30 11 30 50zM211 44q0 22 -9 77l-32 -7h-24
q-6 -9 -18 -25q-19 -26 -32 -31q12 -18 48 -35q33 -16 57 -18q2 0 6 18t4 21zM421 944l2 -6l-150 -113l-157 115l3 6l152 -50z" />
    <glyph glyph-name="scaron" unicode="&#x161;" horiz-adv-x="354" 
d="M393 552q0 -21 -16 -21q-22 0 -22 27q-3 5 -7 5q-15 0 -25 -14t-10 -32q0 -6 -1 -25t-1 -25q0 -24 -10 -37q-6 -22 -36.5 -61.5t-52.5 -58.5q49 -7 67 -19q28 -18 28 -63v-62q0 -57 -2 -65q-5 -17 -43 -45q-15 -7 -42 -27q-26 -26 -46 -44l-130 110q-15 -28 -20 -47
q-2 -11 -8 -35q-2 -8 -2 -13q0 -36 28 -52q14 9 20 9q5 0 12.5 -7t7.5 -11q0 -10 -11.5 -18.5t-22.5 -8.5q-14 0 -31 20.5t-19 36t-2 26.5q0 68 40 127q15 22 46 67q34 49 48 60q-82 20 -82 77q0 46 56 95q18 16 89 75q7 -5 36 -26t50 -37q12 19 12 36v39q0 27 17.5 50.5
t41.5 23.5q14 0 28.5 -9.5t14.5 -20.5zM247 375l-90 60q-17 0 -31.5 -25t-14.5 -43q0 -30 28 -42q14 -6 54 -12zM242 66v142q0 22 -33 31q-8 2 -25.5 4.5t-26.5 3.5q-28 -30 -43 -47q-31 -35 -31 -51q43 -36 129 -106q4 2 15.5 11.5t14.5 11.5zM309 650l2 -6l-120 -113
l-127 115l3 6l122 -50z" />
    <glyph glyph-name="Ydieresis" unicode="&#x178;" horiz-adv-x="643" 
d="M633 591q0 -80 -54 -121q-49 -37 -132 -37q-1 0 -19 2q-46 -64 -46 -184q0 -72 23 -72q30 0 27 45q9 -9 9 -27q0 -23 -12.5 -38.5t-33.5 -15.5t-31 16l-17 -26q6 1 14 0q6 -1 14 -1q15 -5 34 -5q80 0 80 73q0 26 -27 69t-27 68q0 26 17.5 46t42.5 20t42 -17t17 -42
t-20 -51q-6 -1 -9 6q18 20 18 42q0 19 -14 34t-32 15q-38 0 -38 -48q0 -20 23.5 -69.5t23.5 -74.5t-12 -50q-13 -28 -34 -35q36 -10 42 -10q33 0 54 19t21 49q0 38 -30 72q-1 5 5 7q42 -43 42 -87q0 -56 -36.5 -85.5t-97.5 -27.5q15 -19 39 -63q-91 55 -179 55
q-51 0 -80 -15q-8 -3 -67 -46l-6 4q26 93 113 128q13 3 54 19l-20 27q-28 -21 -40 -21q-20 0 -33.5 13.5t-13.5 33.5q0 21 11 32l2 -2l-1 -7q0 -30 25 -30q23 0 23 52v32v18q-1 10 -1 13q-1 -1 -4 -1q-4 0 -19.5 1.5t-20.5 1.5q-88 0 -91 -82l-2 1q-13 27 -13 53
q0 92 133 98q-5 11 -15.5 31.5t-15.5 31.5q-65 -9 -105 -47q-44 -41 -44 -104q0 -32 20.5 -58t50.5 -26q27 0 52 40l7 -5q-19 -48 -59 -48q-42 0 -69 36q-23 31 -22 65q2 60 50.5 108t108.5 57q-37 68 -59 105q-42 71 -83 71q-31 0 -52 -21.5t-21 -52.5q0 -30 25 -53t55 -23
q13 0 32 8t27 18h4q0 -1 1 -2t1 -2q-6 -15 -27 -26t-41 -11q-37 0 -65.5 28t-28.5 65q0 47 31 78t78 31q20 0 42 -8q0 30 -24 44q-3 2 -50 19l-1 2q18 6 37 6q66 0 97 -54q27 133 195 130q89 -2 159 -59q73 -60 73 -148zM620 588q0 93 -78 142q-66 41 -164 41
q-137 0 -137 -89q0 -33 87 -221q7 0 20.5 2t20.5 2q-6 0 37 -4q12 26 33 100q1 4 1 10q0 19 -12 33t-30 14q-29 0 -29 -46v-13l-2 -2q-17 23 -17 39q0 27 17 50.5t41 23.5q27 0 49 -19h-1q19 22 43 62v-69q2 11 26 11q28 0 46.5 -17.5t18.5 -44.5q0 -28 -12 -41.5t-44 -22.5
v4q31 10 31 46q0 26 -31 26q-20 0 -39.5 -18.5t-19.5 -38.5l-36 -93l43 -3q57 0 97.5 39.5t40.5 96.5zM395 433q-15 4 -26 4q-12 0 -28 -4l29 -51zM359 868q0 19 12.5 32t31.5 13t32 -13t13 -32t-13 -32t-32 -13q-18 0 -31 13.5t-13 31.5zM209 868q0 19 12.5 32t31.5 13
t32 -13t13 -32t-13 -32t-32 -13q-18 0 -31 13.5t-13 31.5z" />
    <glyph glyph-name="Zcaron" unicode="&#x17d;" horiz-adv-x="653" 
d="M644 595q0 -185 -249 -214q-31 -66 -31 -73q41 -23 41 -57q0 -36 -34 -54q-15 -8 -66 -21q-22 -45 -22 -68q0 -30 20.5 -52t48.5 -22q45 0 86.5 47t41.5 92q0 47 -43 47q-36 0 -35 -54q0 -19 24 -23q21 -3 24 19q1 6 -1 23h7q2 -10 2 -15q0 -42 -35 -42q-37 0 -37 41
q0 30 19.5 51.5t48.5 21.5q76 0 80 -81q45 18 90 13q-12 -10 -36 -28q-9 -7 -25 -35q76 -13 76 -91q0 -15 -3 -33l-4 3q-24 64 -67 64q-31 0 -95.5 -27.5t-97.5 -27.5q-103 0 -125 55q-14 -21 -44 -65q-4 18 -21 63q-37 -29 -44 -34q-25 -16 -51 -16q-33 0 -56.5 21
t-23.5 53q0 23 13 44.5t30 21.5v-7q-28 -28 -28 -55q0 -20 12.5 -35t31.5 -15q39 0 79 57q30 44 46 93q-47 1 -77 31q-11 -8 -11 -41q0 -40 33 -66l-7 -6q-18 0 -30 32q-10 26 -10 48q0 27 14 44q-14 17 -14 45q0 80 105 121q45 18 105 25q65 151 65 174q0 24 -14.5 39.5
t-37.5 15.5q-41 0 -75 -32t-31 -73q3 -54 37 -50q39 5 39 47q0 16 -8 30l12 6q15 -21 15 -43q0 -27 -20 -45.5t-50 -18.5t-50 26.5t-21 60.5q-13 -4 -70 -28l40 71q-44 26 -44 81q0 69 114 104q81 25 175 25q104 0 181 -51q88 -58 88 -157zM628 594q0 93 -95 143
q-77 39 -179 39q-60 0 -146 -24q-109 -30 -109 -75q0 -15 17.5 -26t35.5 -11q26 0 76.5 19t77.5 18q43 -2 62 -15q24 -24 36 -35q18 17 43 65q3 -21 13 -56q53 40 85 40q12 0 35 -23q-30 2 -34 1q-24 -5 -53 -54q-6 -11 -35 -69q-45 -92 -47 -112q10 -1 20 0q82 4 137 48
q60 48 60 127zM395 246q2 12 -14 24.5t-29 12.5q-42 0 -42 -92q0 -4 21.5 1t36.5 15q23 15 27 39zM286 380q-25 -3 -95 -19q-87 -31 -87 -97q0 -11 10 -27q36 55 142 78zM247 291q-71 0 -126 -67q5 -10 30 -20.5t38 -10.5q12 0 34 44zM511 944l2 -6l-150 -113l-157 115l3 6
l152 -50z" />
    <glyph glyph-name="zcaron" unicode="&#x17e;" horiz-adv-x="283" 
d="M236 157q0 -43 -32 -93q-21 -32 -64 -95q-6 -8 -47 -64q-19 -26 -19 -43q0 -6 3 -10q12 6 19 11q6 0 11 -10t5 -15q0 -9 -10 -17t-20 -8q-28 0 -28 42q0 48 37 104q17 26 39 77q24 55 26 80q3 36 -13 70q-20 39 -54 39q-12 0 -25 -7l-6 15l99 87q-28 29 -78 105
q-8 2 -32 -16.5t-24 -25.5q0 -1 4.5 -8.5t4.5 -10.5q0 -9 -7.5 -18t-15.5 -9q-19 0 -19 27q0 26 58 65q29 20 86 58q3 -4 10 -23q7 -15 16 -37q8 -14 35 -45t27 -33q-9 -8 -88 -74q51 -6 79 -45q23 -32 23 -73zM239 650l2 -6l-120 -113l-127 115l3 6l122 -50z" />
    <glyph glyph-name="circumflex" unicode="&#x2c6;" 
d="M50 513l-2 6l120 113l127 -115l-3 -6l-122 50z" />
    <glyph glyph-name="caron" unicode="&#x2c7;" 
d="M293 630l2 -6l-120 -113l-127 115l3 6l122 -50z" />
    <glyph glyph-name="breve" unicode="&#x2d8;" horiz-adv-x="306" 
d="M66 597q44 -57 96 -66q47 15 94 66q3 3 -14 14q-61 -37 -80 -34q-23 -3 -85 37z" />
    <glyph glyph-name="dotaccent" unicode="&#x2d9;" horiz-adv-x="212" 
d="M43 620q0 30 20 52t49 22t48.5 -22t19.5 -52q0 -31 -19.5 -53t-48.5 -22t-49 22t-20 53z" />
    <glyph glyph-name="ring" unicode="&#x2da;" 
d="M163 664q29 0 49.5 -21t20.5 -50q0 -28 -21 -49t-49 -21q-27 0 -49 21.5t-22 46.5q0 29 21 51t50 22zM163 641q-20 0 -33.5 -13.5t-13.5 -34.5q0 -20 13.5 -33.5t33.5 -13.5t33.5 13.5t13.5 33.5q0 21 -13.5 34.5t-33.5 13.5z" />
    <glyph glyph-name="ogonek" unicode="&#x2db;" horiz-adv-x="301" 
d="M206 0h51q-62 -54 -62 -94q0 -44 46 -44q27 0 70 20l12 -35q-53 -38 -108 -38q-37 0 -60.5 21.5t-23.5 57.5q0 59 75 112z" />
    <glyph glyph-name="tilde" unicode="&#x2dc;" horiz-adv-x="291" 
d="M2 509q7 37 45 60q34 21 75 21q15 0 46.5 -14t48.5 -14q47 0 85 25q-40 -82 -127 -82q-16 0 -44.5 13.5t-42.5 13.5q-63 0 -86 -23z" />
    <glyph glyph-name="hungarumlaut" unicode="&#x2dd;" horiz-adv-x="259" 
d="M56 519l-15 16l46 87q16 31 34 31q14 0 23.5 -12.5t9.5 -28.5q0 -25 -39 -52zM169 519l-15 16l47 87q17 31 34 31q14 0 23 -12.5t9 -28.5q0 -25 -39 -52z" />
    <glyph glyph-name="endash" unicode="&#x2013;" horiz-adv-x="412" 
d="M0 215v54h407v-54h-407z" />
    <glyph glyph-name="emdash" unicode="&#x2014;" horiz-adv-x="785" 
d="M0 215v54h780v-54h-780z" />
    <glyph glyph-name="quoteleft" unicode="&#x2018;" horiz-adv-x="182" 
d="M170 621l-72 75q-44 -68 -42 -117q3 -68 74 -109q-8 28 -9 45q-2 59 49 106z" />
    <glyph glyph-name="quoteright" unicode="&#x2019;" horiz-adv-x="188" 
d="M42 621l71 75q45 -66 43 -117q-3 -68 -75 -109q9 23 10 45q2 59 -49 106z" />
    <glyph glyph-name="quotesinglbase" unicode="&#x201a;" horiz-adv-x="186" 
d="M42 61l71 75q45 -66 43 -117q-3 -68 -75 -109q9 23 10 45q2 59 -49 106z" />
    <glyph glyph-name="quotedblleft" unicode="&#x201c;" horiz-adv-x="300" 
d="M155 611l-71 75q-45 -66 -43 -117q3 -68 75 -109q-9 23 -10 45q-2 59 49 106zM305 611l-71 75q-45 -66 -43 -117q3 -68 75 -109q-9 23 -10 45q-2 59 49 106z" />
    <glyph glyph-name="quotedblright" unicode="&#x201d;" horiz-adv-x="300" 
d="M172 611l71 75q45 -66 43 -117q-3 -68 -75 -109q9 23 10 45q2 59 -49 106zM22 611l71 75q45 -66 43 -117q-3 -68 -75 -109q9 23 10 45q2 59 -49 106z" />
    <glyph glyph-name="quotedblbase" unicode="&#x201e;" horiz-adv-x="316" 
d="M172 61l71 75q45 -66 43 -117q-3 -68 -75 -109q9 23 10 45q2 59 -49 106zM22 61l71 75q45 -66 43 -117q-3 -68 -75 -109q9 23 10 45q2 59 -49 106z" />
    <glyph glyph-name="dagger" unicode="&#x2020;" horiz-adv-x="455" 
d="M193 489q-22 -1 -69.5 -20.5t-65.5 -19.5q-54 0 -54 56q0 60 54 60q17 0 64 -22.5t71 -23.5q0 32 -26 90t-26 70q0 26 19 42t48 16q66 0 66 -58q0 -11 -26 -69.5t-27 -90.5q24 1 72 23.5t63 22.5q55 0 55 -62q0 -61 -55 -61q-15 0 -63.5 23t-71.5 24q7 -107 68 -171
q-44 -84 -56 -198q-4 -35 -8 -207h-35q-4 163 -9 207q-12 118 -55 198q61 64 67 171z" />
    <glyph glyph-name="bullet" unicode="&#x2022;" horiz-adv-x="292" 
d="M55 262q0 36 25.5 61t61.5 25q35 0 60.5 -25t25.5 -61t-25.5 -61t-60.5 -25q-36 0 -61.5 25t-25.5 61z" />
    <glyph glyph-name="ellipsis" unicode="&#x2026;" horiz-adv-x="865" 
d="M78 36l71 85q41 -59 77 -59q6 0 30 8q-40 -84 -95 -84q-50 0 -83 50zM371 36l71 85q41 -59 77 -59q6 0 30 8q-40 -84 -95 -84q-50 0 -83 50zM665 36l71 85q41 -59 77 -59q6 0 30 8q-40 -84 -95 -84q-50 0 -83 50z" />
    <glyph glyph-name="guilsinglleft" unicode="&#x2039;" horiz-adv-x="203" 
d="M203 529l-97 -161l94 -153l-12 -14l-143 167q-2 2 145 178z" />
    <glyph glyph-name="guilsinglright" unicode="&#x203a;" horiz-adv-x="205" 
d="M55 529l97 -161l-94 -153l11 -14l143 167q4 1 -145 178z" />
    <glyph glyph-name="fraction" unicode="&#x2044;" horiz-adv-x="422" 
d="M406 -1h-63l-331 708h59z" />
    <glyph glyph-name="trademark" unicode="&#x2122;" horiz-adv-x="620" 
d="M248 708l6 -97h-23q-14 74 -54 74l-6 -3l-1 -8v-166q0 -7 2 -25q8 -4 36 -4v-23h-143v23q29 0 37 4q2 18 2 25v166q0 2 -2 9q-2 1 -6 2q-40 0 -54 -74h-22l5 97h223zM410 708l48 -135l46 135h116v-23q-25 0 -33 -4q-2 -18 -2 -25v-148q0 -7 2 -25q8 -4 33 -4v-23h-136v23
q25 0 33 4q2 18 2 25v156l-72 -208h-16l-72 206v-132q0 -32 8 -41.5t28 -9.5v-23h-102v23h2q23 0 31 15q4 7 4 36v126q0 7 -2 25q-8 4 -32 4v23h114z" />
    <glyph glyph-name="lozenge" unicode="&#x25ca;" horiz-adv-x="325" 
d="M163 192l-112 112q13 12 112 113q30 -32 112 -113z" />
    <glyph glyph-name="fi" unicode="&#xf001;" horiz-adv-x="427" 
d="M243 685q0 -60 -34 -88q-23 -19 -46 -19q-32 0 -56 33q-1 -3 -4 -4.5t-3 -2.5v-127h60q4 0 12 7.5t10 7.5l5 -2q5 -3 5 -7q0 18 -16 -17.5t-16 -51.5q0 -5 13 -25q0 -8 -12 -8q-18 0 -21 40h-39v-337q35 -35 47 -35q1 0 11.5 9t12.5 9q5 0 8 -12q-4 -7 -35.5 -37.5
t-37.5 -30.5q-15 0 -89 63q11 17 11 27v476q0 34 -11 45v6h25q28 0 58 28.5t37 56.5h8q5 -16 22 -30t32 -14q12 0 21.5 11t9.5 24q0 3 -8.5 10t-8.5 9q0 14 11 14q18 0 18 -28zM396 625q0 -29 -34.5 -54.5t-65.5 -25.5q-27 0 -37 9q-1 1 -7.5 9.5t-9.5 8.5q-5 0 -21 -10
l-4 8q69 60 83 91l4 -1q1 -6 2 -16q0 -54 39 -54q16 0 26 10l3 6q-6 12 -13 22q0 20 17 20q18 0 18 -23zM414 61q-14 -13 -73 -74q-23 2 -41 29.5t-18 51.5v304q0 36 -28 36q-7 0 -7 -8q0 -2 2 -9t2 -9q0 -6 -8 -6q-15 0 -15 17q0 19 79 89l71 -74q-22 -16 -22 -28
q0 -209 -4 -297q14 -26 29 -26q2 0 14 9t14 9q1 -2 5 -14z" />
    <glyph glyph-name="fl" unicode="&#xf002;" horiz-adv-x="402" 
d="M378 55q-48 -34 -67 -71q-13 34 -63 67q27 22 28 74q1 43 1 355q0 33 -15 73q-3 9 -32 68q-27 -43 -67 -43q-32 0 -56 33q-1 -3 -4 -4.5t-3 -2.5v-127h60q4 0 12 7.5t10 7.5l5 -2q5 -3 5 -7q0 18 -16 -17.5t-16 -51.5q0 -5 13 -25q0 -8 -12 -8q-18 0 -21 40h-39v-337
q35 -35 47 -35q1 0 11.5 9t12.5 9q5 0 8 -12q-4 -7 -35.5 -37.5t-37.5 -30.5q-15 0 -89 63q11 17 11 27v476q0 34 -11 45v6h25q28 0 58 28.5t37 56.5h8q5 -16 22 -30t32 -14q12 0 21.5 11t9.5 24q0 3 -8.5 10t-8.5 9q0 14 11 14q18 0 18 -28q0 -40 -10 -59q59 -36 75 -91
q7 72 61 152q29 43 64 43q7 0 16 -7t9 -13q0 -22 -18 -22q-2 0 -12 7t-12 7q-16 0 -37 -44q-16 -34 -21 -59q-11 -59 -11 -128v-352q6 -48 31 -64z" />
    <glyph glyph-name="glyph208" horiz-adv-x="500" 
d="M63 0v800h375v-800h-375zM125 63h250v675h-250v-675z" />
    <glyph glyph-name="DST" horiz-adv-x="1426" 
d="M1415 -39h-1404v839h1404v-839zM1390 562q0 30 -19 51t-46 21h-148q-37 0 -37 35v131h-57v-131q0 -88 116 -88q16 0 47.5 2t47.5 2q41 0 41 -19q0 -21 -40 -21q-16 0 -48.5 2.5t-48.5 2.5q-115 0 -115 -96v-322q0 -69 72 -86v56q-19 12 -19 42v302q0 45 35 45h146
q29 0 51 21t22 50zM1003 136v94q0 41 -26 64.5t-70 23.5h-246q-41 0 -41 37v95q0 43 41 43h244q24 0 43 -21h50q-13 76 -89 76h-246q-45 0 -71.5 -28.5t-26.5 -73.5v-89q0 -41 25.5 -66.5t66.5 -25.5h250q45 0 45 -45v-76q0 -45 -61 -45h-250q-22 0 -22 21q0 18 20 18h270
v53h-279q-29 0 -47 -21t-18 -52q0 -30 20 -50t50 -20h282q39 0 62.5 24.5t23.5 63.5zM496 800h-56l2 -682q0 -6 -6 -13.5t-12 -7.5q-19 0 -19 21v151q0 44 -31 75l-179 177q-19 19 -52 19t-56 -17q-26 -19 -26 -51v-330q0 -96 88 -96h82q64 0 77 72h-53q-12 -15 -25 -21h-81
q-35 0 -35 43v310q0 6 8 32q8 6 17 6q13 0 27 -14l95 -93q85 -84 87 -93q2 -46 2 -169q0 -33 20 -55t52 -22q30 0 51.5 22t21.5 52z" />
  </font>
</defs>
</svg>
