<?xml version="1.0" standalone="no"?>
<!DOCTYPE svg PUBLIC "-//W3C//DTD SVG 1.1//EN" "http://www.w3.org/Graphics/SVG/1.1/DTD/svg11.dtd" >
<svg xmlns="http://www.w3.org/2000/svg" xmlns:xlink="http://www.w3.org/1999/xlink" version="1.1">
<metadata>
Created by FontForge 20201107 at Tue May 31 19:32:07 2016
 By 
(URW)++,Copyright 2014 by (URW)++ Design &#38; Development
</metadata>
<defs>
<font id="C059-BdIta" horiz-adv-x="2048" >
  <font-face 
    font-family="C059"
    font-weight="700"
    font-style="italic"
    font-stretch="normal"
    units-per-em="2048"
    panose-1="0 0 0 0 0 0 0 0 0 0"
    ascent="1634"
    descent="-414"
    x-height="979"
    cap-height="1479"
    bbox="-348 -760 2615 2333"
    underline-thickness="184"
    underline-position="-333"
    slope="-15"
    unicode-range="U+0020-FB04"
  />
<missing-glyph horiz-adv-x="588" 
d="M59 0v1479h470v-1479h-470zM470 59v1361h-352v-1361h352z" />
    <glyph glyph-name=".notdef" horiz-adv-x="588" 
d="M59 0v1479h470v-1479h-470zM470 59v1361h-352v-1361h352z" />
    <glyph glyph-name="glyph1" horiz-adv-x="0" 
 />
    <glyph glyph-name="glyph2" horiz-adv-x="588" 
 />
    <glyph glyph-name="space" unicode=" " horiz-adv-x="588" 
 />
    <glyph glyph-name="exclam" unicode="!" horiz-adv-x="682" 
d="M312 416l-107 27q89 396 103 720q7 140 15 182q35 165 165 165q76 0 133 -35q67 -43 67 -129q0 -50 -14 -86.5t-98 -206.5q-99 -200 -147.5 -316.5t-116.5 -320.5zM184 325q74 0 126 -52t52 -126t-52.5 -126t-127.5 -52q-72 0 -124 52.5t-52 125.5q0 74 52 126t126 52z
" />
    <glyph glyph-name="quotedbl" unicode="&#x22;" horiz-adv-x="819" 
d="M300 813l-95 26l44 485q7 84 41 126q42 53 110 53q64 0 107.5 -42t43.5 -103q0 -48 -32 -111zM787 813l-95 26l44 485q8 84 41 126q43 53 111 53q64 0 107.5 -42t43.5 -103q0 -47 -32 -111z" />
    <glyph glyph-name="numbersign" unicode="#" horiz-adv-x="1175" 
d="M276 451h-192v171h216l32 220h-196v171h220l61 421h185l-61 -421h175l61 421h185l-61 -421h191v-171h-215l-32 -220h194v-171h-218l-65 -451h-185l65 451h-175l-65 -451h-185zM517 842l-32 -220h175l32 220h-175z" />
    <glyph glyph-name="dollar" unicode="$" horiz-adv-x="1175" 
d="M683 848l51 -25q127 -62 203 -156q86 -108 86 -232q0 -170 -127 -306q-150 -160 -430 -160q-6 0 -19 1l-71 -267h-111l75 279q-77 14 -143 47q-191 95 -191 280q0 110 67 165q48 39 116 39q80 0 122 -50q34 -41 34 -92q0 -86 -86 -130q-51 -27 -51 -55q0 -65 158 -104
l135 502l-28 13q-276 130 -276 376q0 233 187 359q131 89 324 89h17l55 205h111l-58 -216q69 -13 124 -39q188 -89 188 -280q0 -82 -45 -131q-47 -52 -126 -52q-62 0 -102 36q-45 41 -45 111q0 49 21.5 79.5t72.5 51.5q27 12 27 31q0 28 -40 55t-102 39zM474 69q72 2 133 24
q81 30 127 88t46 132q0 76 -39.5 125t-141.5 100zM698 1320q-44 -2 -74 -9q-96 -19 -147 -80q-50 -61 -50 -141q0 -127 158 -194z" />
    <glyph glyph-name="percent" unicode="%" horiz-adv-x="1821" 
d="M1384 1479l-847 -1479h-106l720 1260q-115 -37 -201 -37q-59 0 -129 18q6 -46 6 -75q0 -83 -41 -185.5t-105 -178.5q-132 -157 -304 -157q-137 0 -212 92q-60 73 -60 170q0 138 98 293q75 119 176 184.5t208 65.5q117 0 193 -97q78 -42 176 -42q108 0 187.5 40t146.5 128
h94zM614 1348q-61 -21 -99 -67q-49 -58 -130 -218q-67 -131 -67 -208q0 -48 28.5 -78.5t74.5 -30.5q112 0 221 144q102 137 102 301q0 39 -10 78q-73 27 -120 79zM1463 834q113 0 181 -71q31 -32 50 -82.5t19 -99.5q0 -92 -42.5 -200.5t-113.5 -197.5q-121 -153 -294 -153
q-119 0 -195 67q-82 72 -82 190q0 88 38 187t104 179q146 181 335 181zM1511 730q-83 0 -169 -142q-80 -132 -114 -212.5t-34 -138.5q0 -44 30 -75t74 -31q66 0 132 47.5t117 132.5q81 137 81 265q0 65 -34 109.5t-83 44.5z" />
    <glyph glyph-name="ampersand" unicode="&#x26;" horiz-adv-x="1821" 
d="M1686 813l-13 -103q-76 -10 -112 -23.5t-72 -46.5q-60 -56 -192 -224q-35 -45 -131 -141q69 -82 107.5 -109.5t84.5 -27.5q94 0 212 169l81 -61q-176 -277 -444 -277q-187 0 -308 128q-177 -128 -391 -128q-193 0 -312 100q-132 111 -132 297q0 158 105 284
q54 64 137 111.5t247 107.5q-29 122 -29 212q0 109 27.5 184t88.5 133q75 71 165 94q71 18 162 18q168 0 261 -67q112 -81 112 -217q0 -125 -100 -206t-341 -151q70 -255 209 -497q102 106 138 157.5t36 92.5q0 40 -37 62q-28 17 -137 26l13 103h565zM871 977q102 39 158 96
q78 82 78 182q0 65 -34.5 106t-89.5 41q-66 0 -103.5 -59.5t-37.5 -165.5q0 -92 29 -200zM580 763q-171 -82 -171 -274q0 -82 31.5 -160t84.5 -129q63 -60 160 -60q69 0 148 44q-156 257 -253 579z" />
    <glyph glyph-name="quotesingle" unicode="'" horiz-adv-x="588" 
d="M300 813l-95 26l44 485q7 84 41 126q42 53 110 53q64 0 107.5 -42t43.5 -103q0 -48 -32 -111z" />
    <glyph glyph-name="parenleft" unicode="(" horiz-adv-x="833" 
d="M893 1510l32 -65q-110 -65 -184 -136q-191 -184 -292 -580q-71 -278 -71 -490q0 -241 137 -435l-62 -45q-98 99 -161 206q-147 253 -147 523q0 311 191 583q214 306 557 439z" />
    <glyph glyph-name="parenright" unicode=")" horiz-adv-x="833" 
d="M-112 -241l-32 65q109 64 183 136q186 182 287 579q71 278 71 490q0 242 -136 436l62 45q97 -100 160 -207q147 -253 147 -523q0 -309 -190 -583q-213 -307 -552 -438z" />
    <glyph glyph-name="asterisk" unicode="*" horiz-adv-x="1024" 
d="M569 1046l26 -26q42 -42 65.5 -55t106.5 -40q106 -35 106 -121q0 -42 -29 -71t-71 -29q-55 0 -93 48q-17 23 -44 106q-22 66 -79 124l-26 26l-10 -36q-14 -53 -14 -91q0 -21 18 -105q5 -23 5 -46q0 -51 -31.5 -86t-76.5 -35q-40 0 -67 29t-27 74q0 34 13 58t63 85
q43 51 64 131l10 36l-35 -10q-57 -15 -81 -29.5t-88 -72.5q-50 -45 -102 -45q-44 0 -75 28.5t-31 68.5q0 44 36.5 74.5t88.5 30.5q22 0 92 -12q31 -6 50 -6q37 0 95 16l36 9l-26 26q-41 41 -66 55t-106 40q-106 34 -106 122q0 40 26.5 68t65.5 28q58 0 97 -52
q17 -23 46 -101q23 -62 81 -121l26 -26l10 35q14 53 14 90q0 21 -18 106q-5 24 -5 47q0 49 31.5 84t75.5 35q43 0 72 -30.5t29 -74.5q0 -35 -13.5 -59t-65.5 -82q-46 -51 -68 -130l-9 -36l35 10q57 15 80.5 29t88.5 72q51 46 102 46q45 0 75.5 -29t30.5 -71
q0 -45 -35.5 -76.5t-85.5 -31.5q-22 0 -95 16q-35 7 -57 7q-36 0 -90 -14z" />
    <glyph glyph-name="plus" unicode="+" horiz-adv-x="1241" 
d="M482 399h-398v236h398v398h236v-398h398v-236h-398v-398h-236v398z" />
    <glyph glyph-name="comma" unicode="," horiz-adv-x="588" 
d="M-98 -299q274 125 275 281q-26 -5 -50 -5q-76 0 -117.5 42.5t-41.5 119.5q0 83 53.5 135t139.5 52q93 0 150.5 -65.5t57.5 -171.5q0 -161 -127 -289q-105 -108 -298 -182z" />
    <glyph glyph-name="hyphen" unicode="-" horiz-adv-x="682" 
d="M91 635h466l-72 -266h-465z" />
    <glyph glyph-name="period" unicode="." horiz-adv-x="588" 
d="M203 325q74 0 126 -52t52 -126t-52.5 -126t-127.5 -52q-72 0 -124 52.5t-52 125.5q0 74 52 126t126 52z" />
    <glyph glyph-name="slash" unicode="/" horiz-adv-x="569" 
d="M486 1509h151l-536 -1540h-152z" />
    <glyph glyph-name="zero" unicode="0" horiz-adv-x="1175" 
d="M733 1444q186 0 298 -150q102 -138 102 -369q0 -208 -69 -403q-105 -298 -305 -445q-147 -108 -306 -108q-171 0 -277 115q-133 145 -133 399q0 203 75 410q99 274 301 435q78 62 151 89t163 27zM723 1343q-145 0 -252 -384q-51 -182 -91 -408.5t-40 -332.5
q0 -67 31.5 -106t85.5 -39q50 0 87.5 32.5t71.5 105.5q76 162 146 473t70 487q0 81 -28.5 126.5t-80.5 45.5z" />
    <glyph glyph-name="one" unicode="1" horiz-adv-x="1175" 
d="M1001 1448l-308 -1152q-28 -103 -28 -129q0 -35 31 -45.5t131 -10.5h103l-16 -111h-863l16 111h104q126 0 156 28q13 12 19.5 30t35.5 127l207 770q14 54 14 79q0 30 -19.5 41.5t-71.5 11.5h-185l28 102q145 4 307 46.5t255 101.5h84z" />
    <glyph glyph-name="two" unicode="2" horiz-adv-x="1175" 
d="M938 510l88 -32l-174 -478h-934q0 64 42 122q75 105 318 316q281 245 367 353q122 153 122 308q0 98 -60 158q-61 62 -164 62q-106 0 -178 -67q-38 -36 -38 -76q0 -23 14.5 -36t65.5 -36q104 -47 104 -147q0 -75 -45.5 -120.5t-120.5 -45.5q-99 0 -153 77q-46 65 -46 148
q0 137 93 252q79 100 215 144q98 32 206 32q203 0 318 -98q57 -48 90.5 -122t33.5 -152q0 -217 -247 -408q-39 -30 -394 -246q-152 -92 -205 -142h401q105 0 151.5 35t109.5 159z" />
    <glyph glyph-name="three" unicode="3" horiz-adv-x="1175" 
d="M703 738q126 -32 177 -67q53 -35 86 -102t33 -139q0 -136 -89 -254q-80 -107 -217 -160q-121 -47 -263 -47q-187 0 -303 74q-78 49 -115 140q-23 56 -23 119q0 93 52 150t136 57q73 0 119 -44t46 -113q0 -111 -106 -144q-27 -8 -34.5 -15.5t-7.5 -24.5q0 -35 55 -65.5
t119 -30.5q94 0 167 64q57 50 92.5 152t35.5 214q0 191 -136 191q-20 0 -64 -12q-25 -7 -47 -7q-72 0 -72 69q0 32 18 51t49 19q22 0 53 -11q37 -12 66 -12q84 0 146 71q105 121 105 275q0 90 -43 141q-48 58 -134 58q-65 0 -118 -26t-53 -57q0 -11 15 -23q52 -41 70 -70
t18 -71q0 -61 -45.5 -103t-112.5 -42q-75 0 -121.5 49.5t-46.5 128.5q0 94 69 173q62 70 163.5 110t221.5 40q197 0 324 -97q113 -86 113 -232q0 -82 -40.5 -157.5t-109.5 -123.5q-88 -61 -248 -96z" />
    <glyph glyph-name="four" unicode="4" horiz-adv-x="1175" 
d="M1095 512l-23 -135h-245l-22 -81q-28 -105 -28 -129q0 -35 31 -45.5t131 -10.5h38l-16 -111h-743l16 111h49q126 0 157 28q13 13 18.5 28.5t35.5 128.5l22 81h-543v113l947 958h194l-251 -936h232zM552 512l151 563l-546 -563h395z" />
    <glyph glyph-name="five" unicode="5" horiz-adv-x="1175" 
d="M404 1444q253 -59 450 -59q158 0 287 53q15 6 21 6q12 0 12 -16q0 -48 -35.5 -113.5t-84.5 -108.5q-124 -107 -362 -107q-71 0 -103 4t-152 30l-78 -266q144 54 272 54q185 0 303 -104q110 -98 110 -270t-97 -319q-93 -141 -257 -208q-123 -51 -268 -51q-166 0 -281 68
q-141 84 -141 253q0 94 51.5 151t135.5 57q74 0 119 -42t45 -111q0 -122 -120 -160q-25 -8 -25 -24q0 -34 51 -60.5t118 -26.5q129 0 217 108q114 140 114 341q0 144 -69 214q-53 52 -138 52q-40 0 -74.5 -9t-113.5 -41q-6 -49 -23 -74q-31 -46 -84 -46q-30 0 -49.5 20.5
t-19.5 51.5q0 68 80 102z" />
    <glyph glyph-name="six" unicode="6" horiz-adv-x="1175" 
d="M460 799q59 47 110 65.5t121 18.5q82 0 159 -32.5t127 -87.5q87 -97 87 -246q0 -200 -144 -361q-168 -187 -423 -187q-202 0 -316 131q-120 139 -120 371q0 246 113 486q111 235 280.5 361t373.5 126q152 0 244 -70q101 -76 101 -185q0 -76 -48.5 -125t-124.5 -49
q-70 0 -115 41.5t-45 105.5q0 55 44 108q16 18 16 32q0 17 -20 27.5t-51 10.5q-116 0 -218 -154q-71 -107 -151 -387zM602 759q-119 0 -182 -164q-50 -132 -50 -313q0 -219 132 -219q65 0 115 56q50 55 83 179t33 255q0 98 -34 152t-97 54z" />
    <glyph glyph-name="seven" unicode="7" horiz-adv-x="1175" 
d="M1212 1444l2 -79q-287 -491 -378 -692t-141 -455q-23 -116 -52 -163q-51 -86 -166 -86q-82 0 -132 45.5t-50 120.5q0 67 31 135t122 197q108 153 439 580l75 98h-435q-93 0 -142 -36q-64 -46 -127 -163l-33 -62l-94 33l211 527q210 -23 386 -23q195 0 484 23z" />
    <glyph glyph-name="eight" unicode="8" horiz-adv-x="1175" 
d="M831 782q69 -45 111 -97q93 -119 93 -264q0 -135 -85 -249q-80 -109 -233 -162q-119 -41 -258 -41q-207 0 -336 94q-57 42 -90 106t-33 134q0 79 40.5 155t111.5 130q76 58 200 105q-55 48 -84 88q-67 93 -67 219q0 209 169 338q139 106 344 106q166 0 278 -76
q136 -92 136 -249q0 -226 -297 -337zM747 839q77 57 108 108q46 74 46 165q0 112 -65 175q-55 54 -155 54q-110 0 -174 -67q-58 -61 -58 -149q0 -65 30.5 -108.5t108.5 -90.5q35 -21 159 -87zM433 628q-64 -38 -102 -83q-83 -102 -83 -231q0 -117 76 -184q71 -62 179 -62
q117 0 193 71q72 68 72 164q0 73 -43 131t-139 114z" />
    <glyph glyph-name="nine" unicode="9" horiz-adv-x="1175" 
d="M715 614q-59 -47 -110 -65.5t-121 -18.5q-83 0 -159.5 32.5t-126.5 87.5q-87 96 -87 246q0 200 144 361q169 187 423 187q202 0 316 -132q120 -138 120 -370q0 -246 -113 -486q-111 -235 -280.5 -361t-373.5 -126q-152 0 -244 70q-101 76 -101 185q0 76 48.5 125
t124.5 49q70 0 115 -41.5t45 -105.5q0 -55 -44 -108q-16 -18 -16 -32q0 -17 20 -27.5t51 -10.5q117 0 218 154q71 108 151 387zM672 1350q-64 0 -114 -56q-50 -55 -83 -178.5t-33 -255.5q0 -99 34 -152.5t96 -53.5q119 0 182 164q50 132 50 313q0 219 -132 219z" />
    <glyph glyph-name="colon" unicode=":" horiz-adv-x="588" 
d="M174 325q74 0 126 -52t52 -126t-52.5 -126t-127.5 -52q-72 0 -124 52.5t-52 125.5q0 74 52 126t126 52zM348 985q74 0 126 -52t52 -126t-52.5 -126t-127.5 -52q-72 0 -124 52.5t-52 125.5q0 74 52 126t126 52z" />
    <glyph glyph-name="semicolon" unicode=";" horiz-adv-x="588" 
d="M-80 -299q274 125 275 281q-26 -5 -50 -5q-76 0 -117.5 42.5t-41.5 119.5q0 83 53.5 135t139.5 52q93 0 150.5 -65.5t57.5 -171.5q0 -161 -127 -289q-105 -108 -298 -182zM348 985q74 0 126 -52t52 -126t-52.5 -126t-127.5 -52q-72 0 -124 52.5t-52 125.5q0 74 52 126
t126 52z" />
    <glyph glyph-name="less" unicode="&#x3c;" horiz-adv-x="1241" 
d="M1180 1020l-754 -309l588 -312l-69 -257l-915 475l50 185l1169 475z" />
    <glyph glyph-name="equal" unicode="=" horiz-adv-x="1241" 
d="M84 188v235h1032v-235h-1032zM84 610v236h1032v-236h-1032z" />
    <glyph glyph-name="greater" unicode="&#x3e;" horiz-adv-x="1241" 
d="M206 1020l69 257l915 -475l-49 -185l-1170 -475l69 257l754 312z" />
    <glyph glyph-name="question" unicode="?" horiz-adv-x="985" 
d="M666 684l99 -23q-31 -105 -108.5 -166.5t-179.5 -61.5q-110 0 -179 75q-68 74 -68 170q0 120 79.5 228t230.5 195q100 57 134.5 93.5t34.5 85.5q0 76 -61 109q-41 22 -88 22q-107 0 -183 -97q-74 -95 -74 -211q0 -14 2 -39h-98q-3 37 -3 54q0 133 88 251q104 141 292 141
q142 0 241 -86q101 -88 101 -232q0 -128 -80 -225t-270 -198q-100 -53 -125 -79q-30 -30 -30 -69t25.5 -62t68.5 -23q96 0 151 148zM340 325q74 0 126 -52t52 -126t-52.5 -126t-127.5 -52q-72 0 -124 52.5t-52 125.5q0 74 52 126t126 52z" />
    <glyph glyph-name="at" unicode="@" horiz-adv-x="1530" 
d="M1317 389h142q-44 -102 -131 -189q-230 -231 -538 -231q-296 0 -509 207q-236 231 -236 565q0 317 214 540q110 114 253 173q135 56 282 56q215 0 391 -112q151 -97 230 -255q64 -129 64 -271q0 -188 -108 -341q-75 -106 -179.5 -167.5t-209.5 -61.5q-93 0 -131 46
q-27 33 -27 69q0 12 4 33q-81 -153 -232 -153q-110 0 -183 78q-87 93 -87 226q0 99 37 205t103 195q59 79 143 127q83 47 178 47q66 0 109 -24t81 -82l24 70h213l-187 -591q-16 -49 -16 -75q0 -46 49 -46q61 0 132 61q155 132 155 370q0 216 -139 360q-160 167 -416 167
q-261 0 -437 -180q-177 -181 -177 -456q0 -297 199 -489q173 -166 417 -166q165 0 300 76t223 219zM828 1071q-93 0 -178 -151q-117 -208 -117 -396q0 -122 95 -122q101 0 175 171q41 97 82 231t41 173t-28.5 66.5t-69.5 27.5z" />
    <glyph glyph-name="A" unicode="A" horiz-adv-x="1517" 
d="M985 1508l268 -1273q17 -83 64 -106q38 -18 121 -18h28l-15 -111h-765l15 111h32q102 0 136 16q35 15 35 48q0 15 -10 65l-41 211h-474l-95 -165q-29 -51 -29 -90q0 -85 167 -85h26l-15 -111h-587l15 111h11q69 0 141.5 56t131.5 154l713 1187h127zM828 562l-96 492
l-287 -492h383z" />
    <glyph glyph-name="B" unicode="B" horiz-adv-x="1554" 
d="M1001 753q396 -68 396 -354q0 -163 -118 -266q-71 -61 -213 -97t-313 -36h-856l15 111h8q126 0 156 28q14 12 20.5 30.5t34.5 126.5l238 887q28 103 28 129q0 35 -30.5 45.5t-131.5 10.5h-38l15 111h721q262 0 382 -72q159 -94 159 -278q0 -203 -209 -304
q-113 -55 -264 -72zM631 813h62q110 0 164.5 11t99.5 42q61 42 97 111q44 87 44 185q0 95 -42 143q-54 63 -156 63h-31q-55 0 -78.5 -23.5t-43.5 -99.5zM601 702l-121 -452q-15 -56 -15 -77q0 -62 109 -62h67q162 0 250 76q53 45 83.5 123t30.5 168q0 127 -76 181
q-37 27 -80 35t-145 8h-103z" />
    <glyph glyph-name="C" unicode="C" horiz-adv-x="1554" 
d="M1555 1458l-118 -586l-101 13q-5 173 -47 295q-75 220 -291 220q-146 0 -260 -114q-113 -113 -195 -348q-82 -233 -82 -452q0 -171 82 -271q45 -55 115 -86q74 -32 155 -32q200 0 352 176q64 74 98 161h128q-50 -160 -180 -291q-173 -174 -457 -174q-201 0 -372 86
q-176 89 -254 266q-56 127 -56 277q0 242 135 468q135 227 369 347q189 97 392 97q237 0 378 -170l114 118h95z" />
    <glyph glyph-name="D" unicode="D" horiz-adv-x="1706" 
d="M-100 0l15 111h8q126 0 156 28q14 13 20.5 31t35.5 126l237 887q28 103 28 129q0 35 -30.5 45.5t-131.5 10.5h-38l15 111h734q211 0 326 -41q189 -67 279 -221q77 -132 77 -321q0 -244 -115 -454q-142 -258 -415 -368q-185 -74 -516 -74h-685zM576 111h59q270 0 419 222
q80 117 136 308q60 201 60 386q0 159 -69 244q-79 97 -237 97h-45q-71 0 -100.5 -25.5t-50.5 -103.5l-262 -979q-18 -76 -18 -95q0 -29 25 -41.5t83 -12.5z" />
    <glyph glyph-name="E" unicode="E" horiz-adv-x="1517" 
d="M1491 1479l-82 -501h-106q-3 178 -43 260q-63 130 -281 130h-77q-65 0 -89 -18.5t-41 -79.5l-120 -449h41q169 0 252 94q50 57 89 157l108 -14l-184 -688l-108 15q11 77 11 128q0 197 -194 197h-45l-129 -482q-11 -41 -11 -66q0 -51 110 -51h74q135 0 240 52
q106 51 201.5 150.5t153.5 217.5l108 -24l-136 -507h-1317l15 111h8q126 0 156 28q14 13 20.5 31t34.5 126l238 887q28 104 28 130q0 34 -30.5 44.5t-131.5 10.5h-38l15 111h1260z" />
    <glyph glyph-name="F" unicode="F" horiz-adv-x="1442" 
d="M1487 1479l-82 -501h-106q-5 181 -43 260q-63 130 -281 130h-73q-65 0 -89 -18.5t-41 -79.5l-120 -449h41q169 0 252 94q50 57 89 157l108 -14l-184 -688l-108 17q11 72 11 123q0 200 -194 200h-45l-111 -414q-28 -106 -28 -130q0 -34 31 -44.5t131 -10.5h55l-15 -111
h-769l15 111h8q126 0 156 28q14 13 20.5 31t34.5 126l238 887q28 104 28 130q0 34 -30.5 44.5t-131.5 10.5h-38l15 111h1256z" />
    <glyph glyph-name="G" unicode="G" horiz-adv-x="1669" 
d="M1586 1464l-115 -579l-106 14q-3 155 -47 281q-77 218 -298 218q-245 0 -411 -311q-69 -130 -112.5 -302.5t-43.5 -315.5q0 -157 54 -258q32 -60 97 -97t138 -37q98 0 174.5 62.5t114.5 172.5q17 47 33 117t16 93q0 35 -29 45t-129 10h-57l15 111h762l-15 -111h-19
q-126 0 -156 -28q-14 -13 -20 -29.5t-35 -127.5l-114 -421h-97l-40 195q-163 -196 -436 -196q-222 0 -406 121q-111 74 -173 204q-62 131 -62 286q0 247 135 473q137 230 377 354q198 102 412 102q127 0 212.5 -37t166.5 -127l122 118h92z" />
    <glyph glyph-name="H" unicode="H" horiz-adv-x="1782" 
d="M1142 695h-524l-107 -399q-28 -106 -28 -130q0 -34 31 -44.5t131 -10.5h22l-15 -111h-736l15 111h8q126 0 156 28q14 13 20.5 31t34.5 126l238 887q28 104 28 129q0 35 -30.5 45.5t-131.5 10.5h-38l15 111h769l-15 -111h-25q-125 0 -156 -28q-13 -12 -19 -29.5
t-36 -127.5l-97 -362h524l97 362q27 103 27 129q0 35 -30.5 45.5t-131.5 10.5h-21l15 111h736l-15 -111h-9q-125 0 -156 -28q-13 -13 -19.5 -31t-35.5 -126l-237 -887q-28 -103 -28 -130q0 -34 31 -44.5t131 -10.5h45l-15 -111h-776l15 111h25q125 0 156 28q13 12 19.5 30.5
t35.5 126.5z" />
    <glyph glyph-name="I" unicode="I" horiz-adv-x="909" 
d="M680 0h-764l15 111h14q126 0 156 28q14 13 20.5 31t34.5 126l238 887q28 104 28 129q0 35 -30.5 45.5t-131.5 10.5h-44l15 111h764l-15 -111h-14q-125 0 -156 -28q-13 -12 -19.5 -29.5t-35.5 -127.5l-238 -887q-28 -105 -28 -130q0 -34 31 -44.5t131 -10.5h44z" />
    <glyph glyph-name="J" unicode="J" horiz-adv-x="1366" 
d="M681 1368l15 111h775l-15 -111h-9q-125 0 -155 -28q-14 -13 -20 -30.5t-36 -126.5l-167 -623q-53 -199 -66.5 -240t-39.5 -90q-75 -136 -194.5 -198.5t-304.5 -62.5q-222 0 -350 93q-132 95 -132 284q0 164 99 259q69 66 172 66q99 0 161 -55q59 -53 59 -143
q0 -101 -73 -154q-50 -36 -105 -36q-45 0 -90 26q-34 19 -48 19q-36 0 -36 -51q0 -69 47 -120q29 -31 79 -51t101 -20q97 0 178 68q79 66 125 199q10 29 50 180l175 650q27 103 27 129q0 35 -30.5 45.5t-131.5 10.5h-60z" />
    <glyph glyph-name="K" unicode="K" horiz-adv-x="1593" 
d="M625 722l547 510q60 55 60 86q0 50 -84 50h-72l15 111h613l-15 -111q-106 -5 -178.5 -39.5t-172.5 -126.5l-333 -306l293 -632q50 -107 83.5 -130t138.5 -23h30l-15 -111h-768l15 111h64q69 0 95.5 10t26.5 36q0 15 -22 62l-208 438l-173 -159l-54 -202
q-28 -104 -28 -130q0 -34 31 -44.5t131 -10.5h22l-15 -111l-736 1l15 111h8q126 0 156 28q14 13 20 30.5t36 126.5l237 886q28 105 28 129q0 35 -30.5 45.5t-131.5 10.5h-38l15 111h769l-15 -111h-25q-125 0 -156 -28q-14 -13 -20 -30t-35 -127z" />
    <glyph glyph-name="L" unicode="L" horiz-adv-x="1442" 
d="M1265 546l107 -24l-140 -522h-1316l15 111h8q126 0 156 28q14 13 20.5 31t34.5 126l238 887q28 104 28 129q0 35 -30.5 45.5t-131.5 10.5h-38l15 111h782l-15 -111h-38q-125 0 -156 -28q-13 -13 -19.5 -30.5t-35.5 -126.5l-238 -887q-28 -106 -28 -132q0 -30 23.5 -41.5
t85.5 -11.5h74q135 0 240 52q111 54 208.5 158t150.5 225z" />
    <glyph glyph-name="M" unicode="M" horiz-adv-x="1933" 
d="M831 1479l72 -948l569 948h552l-15 -111h-9q-126 0 -156 -28q-13 -12 -19 -30t-36 -127l-238 -887q-27 -103 -27 -130q0 -34 31 -44.5t131 -10.5h38l-15 -111h-753l15 111h9q125 0 156 28q13 13 19.5 31.5t35.5 125.5l229 856l-690 -1152h-129l-81 1160l-191 -716
q-44 -175 -44 -221q0 -54 43 -82.5t124 -29.5l-15 -111h-486l15 111q80 1 127 70.5t98 262.5l199 739q27 103 27 129q0 35 -30.5 45.5t-131.5 10.5h-38l15 111h599z" />
    <glyph glyph-name="N" unicode="N" horiz-adv-x="1745" 
d="M717 1479l549 -1038l159 594q44 173 44 221q0 54 -43.5 83t-124.5 29h-16l15 111h568l-15 -111q-103 -1 -166 -55q-40 -34 -57.5 -72.5t-66.5 -205.5l-286 -1064h-163l-606 1160l-184 -687q-44 -175 -44 -221q0 -112 179 -112h21l-15 -111h-582l15 111q105 3 165 55
q40 35 58 75t66 203l230 859q-19 36 -46 50.5t-75 14.5h-115l15 111h521z" />
    <glyph glyph-name="O" unicode="O" horiz-adv-x="1706" 
d="M1004 1510q279 0 460 -186q169 -175 169 -421q0 -294 -181 -544q-155 -214 -391 -316q-171 -74 -361 -74q-296 0 -467 181q-159 168 -159 435q0 262 144 490q78 124 197 223q255 212 589 212zM998 1399q-226 0 -383 -317q-67 -136 -118 -318q-57 -207 -57 -370
q0 -129 57 -213q68 -101 203 -101q223 0 391 322q76 145 120.5 323.5t44.5 339.5q0 144 -54 227q-29 44 -75 71q-61 36 -129 36z" />
    <glyph glyph-name="P" unicode="P" horiz-adv-x="1517" 
d="M607 636l-91 -340q-28 -104 -28 -130q0 -34 31 -44.5t131 -10.5h53l-15 -111h-766l15 111h7q125 0 156 28q14 13 20 31t35 126l238 887q28 105 28 129q0 35 -30.5 45.5t-131.5 10.5h-31l15 111h646q177 0 284.5 -21.5t175.5 -70.5q148 -106 148 -296q0 -167 -105 -283
q-101 -110 -303 -149q-118 -23 -316 -23h-166zM637 747h100q173 0 260 72q58 47 95.5 142t37.5 194q0 115 -63 168q-22 19 -59 32t-69 13h-34q-64 0 -88 -20.5t-43 -87.5z" />
    <glyph glyph-name="Q" unicode="Q" horiz-adv-x="1706" 
d="M1147 85q18 -189 42 -242q26 -57 64 -57t75.5 40t67.5 112l86 -45q-120 -274 -385 -274q-161 0 -241 98q-62 75 -62 215q0 17 1 44q-76 -7 -114 -7q-153 0 -297 71q-175 87 -255 263q-57 124 -57 275q0 291 176 539q156 221 398 323q165 70 345 70q297 0 479 -192
q161 -171 161 -421q0 -229 -104 -437q-106 -213 -284 -324q-37 -23 -96 -51zM1076 370q51 63 94 176q38 98 63 241.5t25 262.5q0 171 -60 258q-30 43 -86.5 69.5t-117.5 26.5q-244 0 -404 -367q-67 -154 -107.5 -320.5t-40.5 -288.5q0 -45 7 -113q10 78 42 127
q80 126 260 126q229 0 325 -198zM814 110q27 144 27 196q0 55 -35 92q-44 47 -113 47q-73 0 -117 -55q-46 -57 -46 -136t42 -124q49 -52 137 -52q56 0 105 32z" />
    <glyph glyph-name="R" unicode="R" horiz-adv-x="1630" 
d="M624 717l-113 -421q-28 -104 -28 -130q0 -34 31 -44.5t131 -10.5h53l-15 -111h-767l14 111h9q125 0 156 28q13 13 19.5 31t35.5 126l238 887q27 102 27 129q0 35 -30.5 45.5t-130.5 10.5h-38l14 111h710q292 0 434 -65q69 -32 114 -101q50 -77 50 -176
q0 -175 -148.5 -276.5t-438.5 -124.5q291 -77 284 -364v-70q0 -101 1.5 -120.5t12.5 -33.5q15 -21 36 -21q40 0 72 42t75 153l88 -42q-104 -310 -359 -310q-146 0 -228 101q-65 78 -65 191q0 66 15 170q10 69 10 120q0 165 -209 165h-60zM653 828h69q139 0 196 11.5
t110 51.5q60 45 96 120.5t36 156.5q0 200 -220 200h-51q-55 0 -77 -15t-35 -62z" />
    <glyph glyph-name="S" unicode="S" horiz-adv-x="1403" 
d="M1364 1464l-90 -539l-108 19q-3 158 -51 252q-45 92 -130 145q-90 57 -207 57t-200 -52q-92 -56 -92 -169q0 -88 65 -148q41 -38 164 -79q236 -78 355 -147q183 -106 183 -346q0 -222 -175 -359q-165 -129 -422 -129q-140 0 -242 37.5t-203 126.5l-118 -133h-91l102 579
l107 -15q-1 -190 70 -299q122 -185 369 -185q169 0 256 84q64 61 64 147q0 91 -71 146.5t-278 125.5q-129 44 -189 75t-109 78q-114 109 -114 277q0 154 91 282q73 103 191 159t262 56q233 0 410 -157l108 111h93z" />
    <glyph glyph-name="T" unicode="T" horiz-adv-x="1479" 
d="M1560 1479l-89 -579l-110 9q7 82 7 123q0 162 -63 249t-180 87q-44 0 -56 -13t-30 -80l-263 -979q-28 -106 -28 -130q0 -34 31 -44.5t131 -10.5h53l-15 -111h-813l15 111h54q126 0 156 28q14 13 20.5 31t34.5 126l267 993q8 32 8 49q0 30 -58 30q-88 0 -147 -37
q-152 -97 -293 -431l-102 33l146 546h1324z" />
    <glyph glyph-name="U" unicode="U" horiz-adv-x="1706" 
d="M194 1368l15 111h769l-15 -111h-25q-125 0 -156 -28q-14 -13 -20 -30.5t-35 -126.5l-167 -622q-29 -109 -29 -181q0 -172 122 -241q75 -43 186 -43q161 0 276 120q51 54 81 117.5t63 185.5l138 516q44 174 44 221q0 54 -43.5 83t-124.5 29h-15l14 111h561l-15 -111
q-92 1 -160 -55q-39 -32 -56.5 -72t-67.5 -206l-152 -571q-66 -245 -212 -371q-145 -124 -411 -124q-216 0 -350 70q-120 63 -182 185q-47 92 -47 177q0 87 35 219l151 563q28 104 28 129q0 35 -30.5 45.5t-131.5 10.5h-38z" />
    <glyph glyph-name="V" unicode="V" horiz-adv-x="1517" 
d="M786 427l423 745q40 71 40 116q0 41 -33 60.5t-105 19.5h-55l15 111h571l-15 -111q-94 -14 -147 -57t-124 -164l-693 -1176h-136l-246 1243q-19 97 -46.5 125.5t-104.5 28.5h-65l15 111h750l-15 -111h-56q-60 0 -80.5 -3t-34.5 -14q-21 -16 -21 -39q0 -12 9 -61z" />
    <glyph glyph-name="W" unicode="W" horiz-adv-x="1933" 
d="M1397 564l264 637q26 62 26 93q0 33 -30.5 53.5t-80.5 20.5h-37l15 111h482l-15 -111q-93 -13 -144.5 -69t-125.5 -226l-478 -1102h-133l-140 990l-454 -990h-136l-176 1320q-6 46 -31 61.5t-91 15.5h-30l15 111h620l-15 -111h-31q-55 0 -73 -14.5t-18 -59.5q0 -15 2 -33
l90 -721l303 675l-6 61q-6 53 -35.5 72.5t-104.5 19.5h-33l15 111h637l-15 -111h-45q-53 0 -73 -12.5t-20 -44.5q0 -17 5 -55z" />
    <glyph glyph-name="X" unicode="X" horiz-adv-x="1517" 
d="M926 827l271 -603q31 -69 69.5 -91t130.5 -22h46l-15 -111h-792l14 111h84q60 0 82 9.5t22 35.5q0 16 -22 67l-148 349l-278 -271q-62 -61 -62 -109q0 -81 135 -81h45l-15 -111h-641l15 111q91 2 154 39q76 43 149 115l443 437l-258 572q-27 60 -54 77t-97 17h-75l15 111
h767l-15 -111h-68q-63 0 -86.5 -8.5t-23.5 -32.5q0 -18 19 -58l141 -311l253 250q48 47 48 95q0 65 -122 65h-34l15 111h622l-14 -111q-109 -6 -171 -39t-180 -146z" />
    <glyph glyph-name="Y" unicode="Y" horiz-adv-x="1442" 
d="M808 777l325 430q35 45 35 88q0 34 -31 53.5t-86 19.5h-73l15 111h599l-15 -111q-93 -5 -148 -38q-73 -45 -167 -168l-409 -534l-89 -332q-28 -104 -28 -130q0 -34 31 -44.5t131 -10.5h53l-15 -111h-797l15 111h38q126 0 156 28q14 13 20.5 31t34.5 126l89 332l-240 622
q-27 72 -57 91q-40 27 -117 27h-47l15 111h749l-15 -111h-88q-52 0 -71 -10t-19 -38q0 -22 20 -71z" />
    <glyph glyph-name="Z" unicode="Z" horiz-adv-x="1442" 
d="M1465 1479l-16 -111l-1045 -1257h185q168 0 287 57q110 53 193.5 145t161.5 245l104 -25l-143 -533h-1251l17 112l1038 1256h-163q-199 0 -334.5 -93.5t-259.5 -314.5l-99 20l134 499h1191z" />
    <glyph glyph-name="bracketleft" unicode="[" horiz-adv-x="833" 
d="M884 1479l-24 -90h-243l-407 -1520h243l-24 -90h-493l455 1700h493z" />
    <glyph glyph-name="backslash" unicode="\" horiz-adv-x="1241" 
d="M166 1479h197l753 -1479h-197z" />
    <glyph glyph-name="bracketright" unicode="]" horiz-adv-x="833" 
d="M-101 -221l24 90h243l407 1520h-243l24 90h493l-455 -1700h-493z" />
    <glyph glyph-name="asciicircum" unicode="^" horiz-adv-x="1241" 
d="M1134 651h-243l-270 512l-272 -512h-243l429 828h172z" />
    <glyph glyph-name="underscore" unicode="_" horiz-adv-x="1024" 
d="M-60 -149h1024v-184h-1024v184z" />
    <glyph glyph-name="grave" unicode="`" horiz-adv-x="682" 
d="M728 1096h-100l-290 182q-60 38 -60 95q0 44 30.5 72t78.5 28q42 0 69 -17.5t63 -68.5z" />
    <glyph glyph-name="a" unicode="a" horiz-adv-x="1366" 
d="M901 949h323l-202 -680q-20 -79 -20 -93q0 -13 9 -23t20 -10q26 0 90.5 69.5t121.5 159.5l80 -51q-51 -89 -135 -185q-146 -166 -294 -166q-62 0 -109 31.5t-61 82.5q-5 18 -5 66q-59 -77 -109 -112q-99 -67 -224 -67q-159 0 -258 106q-97 103 -97 264q0 226 159 418
q180 220 427 220q181 0 256 -127zM683 867q-125 0 -217 -196q-45 -93 -72.5 -203t-27.5 -192q0 -75 33.5 -118.5t90.5 -43.5q121 0 213 199q46 98 75.5 213t29.5 192q0 67 -34.5 108t-90.5 41z" />
    <glyph glyph-name="b" unicode="b" horiz-adv-x="1251" 
d="M719 1509l-188 -636q71 58 130.5 82t133.5 24q163 0 261 -116q84 -100 84 -236q0 -183 -116 -356q-113 -168 -287 -247q-121 -54 -262 -54q-106 0 -196 31.5t-143 87.5q-79 84 -79 207q0 50 6.5 80t39.5 139l198 668q32 109 32 136q0 39 -24.5 51.5t-101.5 12.5h-49
l14 96zM677 834q-118 0 -209 -188q-47 -97 -82 -226t-35 -206q0 -70 37.5 -113t96.5 -43q123 0 225 231q37 82 67 203.5t30 188.5q0 66 -37 109.5t-93 43.5z" />
    <glyph glyph-name="c" unicode="c" horiz-adv-x="1100" 
d="M832 300l73 -62q-111 -139 -225.5 -203t-249.5 -64q-182 0 -294 90q-130 105 -130 289q0 175 97 328q99 157 267 237q132 64 277 64q154 0 251 -68q99 -70 99 -196q0 -86 -48 -138t-127 -52q-72 0 -116.5 41t-44.5 106q0 44 17.5 72t61.5 55q24 15 24 33q0 23 -24 37
t-63 14q-131 0 -227 -178q-46 -86 -76 -203t-30 -213q0 -86 48 -141q46 -52 119 -52q147 0 321 204z" />
    <glyph glyph-name="d" unicode="d" horiz-adv-x="1366" 
d="M1358 1509l-367 -1240q-21 -79 -21 -93q0 -13 9 -23t21 -10q27 0 91.5 69t122.5 160l80 -51q-50 -88 -135 -185q-146 -166 -295 -166q-81 0 -129 44t-48 117q0 3 1 14q-64 -74 -110 -106q-97 -68 -222 -68q-160 0 -259 106q-97 103 -97 264q0 226 159 418q80 99 188 158
q111 62 238 62q182 0 256 -127l98 331q32 107 32 136q0 39 -24.5 51.5t-101.5 12.5h-65l14 96zM652 867q-125 0 -217 -196q-45 -93 -72.5 -203t-27.5 -192q0 -75 33 -118.5t90 -43.5q122 0 214 199q45 98 75 213t30 192q0 66 -35 107.5t-90 41.5z" />
    <glyph glyph-name="e" unicode="e" horiz-adv-x="1063" 
d="M809 257l71 -70q-190 -216 -466 -216q-211 0 -315 99q-103 97 -103 279q0 179 107 336q107 159 283 238q126 56 258 56q158 0 255 -83q80 -69 80 -165q0 -211 -348 -312q-136 -40 -304 -49q-6 -57 -6 -91q0 -101 61 -151q45 -37 116 -37q79 0 151 38.5t160 127.5z
M344 466q173 25 270 108q54 45 85 102.5t31 110.5q0 44 -24.5 70t-64.5 26q-127 0 -218 -182q-55 -111 -79 -235z" />
    <glyph glyph-name="f" unicode="f" horiz-adv-x="797" 
d="M865 949l-33 -126h-256l-97 -439q-101 -460 -207 -752l-370 -51q88 139 239 689l131 553h-202l34 126h201q76 274 189 398q150 162 352 162q124 0 199 -61q82 -65 82 -163q0 -71 -44.5 -116.5t-113.5 -45.5q-61 0 -100.5 38t-39.5 97q0 52 48 116q9 11 9 19q0 20 -43 20
q-79 0 -127 -92q-39 -74 -91 -287l-21 -85h261z" />
    <glyph glyph-name="g" unicode="g" horiz-adv-x="1251" 
d="M817 947q142 144 268 144q74 0 112 -43q36 -41 36 -95q0 -52 -30.5 -85t-77.5 -33q-71 0 -104 87q-13 36 -34 36q-31 0 -69 -51q161 -93 161 -265q0 -113 -79 -195q-76 -80 -218 -111q-69 -15 -132 -15q-82 0 -240 19q-45 6 -70 6q-40 0 -67.5 -18.5t-27.5 -45.5
q0 -60 99 -69q290 -28 364 -45q112 -27 162 -83q51 -59 51 -158q0 -174 -161 -262q-144 -80 -408 -80q-270 0 -392 78q-95 61 -95 150q0 151 258 198q-69 38 -96 74t-27 91q0 81 62.5 144t182.5 101q-103 86 -103 200q0 160 129 259.5t335 99.5q110 0 211 -33zM650 883
q-87 0 -136 -88q-59 -106 -59 -228q0 -69 35.5 -108t97.5 -39q88 0 136 98q53 109 53 220q0 58 -30 97q-37 48 -97 48zM288 -57q-171 0 -171 -118q0 -72 61.5 -108t183.5 -36q96 0 152 11t102 39q58 35 58 94q0 69 -90 92q-38 9 -132.5 17.5t-163.5 8.5z" />
    <glyph glyph-name="h" unicode="h" horiz-adv-x="1403" 
d="M769 1509l-224 -760q187 230 385 230q111 0 174 -69q54 -59 54 -141q0 -96 -61 -262l-96 -262q-22 -61 -22 -76q0 -13 8.5 -23t19.5 -10q39 0 125 103q4 5 92 123l81 -52q-118 -181 -219 -260.5t-214 -79.5q-125 0 -177 79q-31 45 -31 106q0 64 42 179l126 345
q17 47 17 74q0 20 -18.5 36.5t-40.5 16.5q-75 0 -192 -142q-67 -81 -111.5 -171t-86.5 -233l-78 -260h-322l351 1183q32 109 32 136q0 39 -24.5 51.5t-101.5 12.5h-49l14 96z" />
    <glyph glyph-name="i" unicode="i" horiz-adv-x="797" 
d="M618 979l-216 -729q-19 -68 -19 -87q0 -33 32 -33q61 0 207 231l80 -56q-105 -175 -206 -254.5t-219 -79.5q-113 0 -169 69q-43 52 -43 115q0 44 31 150l104 348q32 110 32 137q0 38 -24.5 50.5t-101.5 12.5h-49l14 96zM507 1510q72 0 123 -51t51 -123q0 -73 -51 -123.5
t-125 -50.5q-70 0 -121 51.5t-51 122.5q0 72 51 123t123 51z" />
    <glyph glyph-name="j" unicode="j" horiz-adv-x="758" 
d="M606 1510q72 0 123 -51t51 -123q0 -73 -51 -123.5t-125 -50.5q-70 0 -121 51.5t-51 122.5q0 72 51 123t123 51zM735 979l-244 -825q-47 -159 -81.5 -235t-93.5 -148q-148 -185 -365 -185q-79 0 -148 28t-106 75q-45 56 -45 126q0 76 44 123t115 47q69 0 109 -39
q42 -41 42 -115q0 -39 -11 -58t-45 -41q-13 -8 -13 -20q0 -25 35 -25q60 0 100.5 65t94.5 248l194 653q32 109 32 137q0 38 -24.5 50.5t-101.5 12.5h-65l14 96z" />
    <glyph glyph-name="k" unicode="k" horiz-adv-x="1327" 
d="M759 1509l-221 -749q90 93 158 139q116 80 252 80q108 0 171 -52q71 -57 71 -149q0 -147 -189 -251q-82 -46 -209 -87q65 -37 90.5 -82t34.5 -139q5 -55 11.5 -69.5t25.5 -14.5q39 0 84 61q40 55 70 128l88 -47q-46 -95 -92 -157q-111 -149 -278 -149q-88 0 -144 46
q-64 53 -64 173q0 56 10 113q7 44 7 68q0 15 -10 34q-27 -2 -43 -2q-74 0 -74 59q0 29 20 46t53 17q34 0 96 -27q232 77 232 219q0 42 -26.5 67t-70.5 25q-69 0 -147 -68q-99 -86 -161 -195.5t-117 -294.5l-75 -251h-322l351 1183q32 109 32 136q0 39 -24.5 51.5
t-101.5 12.5h-49l14 96z" />
    <glyph glyph-name="l" unicode="l" horiz-adv-x="797" 
d="M758 1509l-373 -1259q-20 -68 -20 -86q0 -34 31 -34q39 0 105 76q67 78 114 156l80 -57q-68 -118 -176 -220q-121 -114 -258 -114q-115 0 -167 69q-41 54 -41 117q0 60 46 216l240 810q32 108 32 136q0 39 -24.5 51.5t-101.5 12.5h-49l14 96z" />
    <glyph glyph-name="m" unicode="m" horiz-adv-x="1933" 
d="M592 979l-59 -250q190 250 385 250q100 0 164.5 -60.5t64.5 -153.5v-12q188 226 362 226q101 0 162 -58.5t61 -154.5q0 -90 -45 -216l-122 -341q-11 -31 -11 -47q0 -27 35 -27q30 0 95 70l121 157l79 -56q-217 -335 -432 -335q-105 0 -161 71q-38 47 -38 102q0 62 50 206
l100 286q28 79 28 121q0 49 -54 49q-71 0 -171 -119q-59 -71 -105 -174t-101 -286l-67 -227h-322l142 481q64 215 64 276q0 21 -11 35.5t-27 14.5q-65 0 -172 -141q-118 -154 -185 -381l-85 -285h-319l194 653q32 103 32 137q0 38 -24.5 50.5t-101.5 12.5h-49l14 96z" />
    <glyph glyph-name="n" unicode="n" horiz-adv-x="1403" 
d="M584 979l-66 -271q80 102 140 154q133 117 280 117q113 0 176 -69q54 -59 54 -141q0 -95 -61 -262l-97 -262q-22 -60 -22 -76q0 -12 9 -22.5t21 -10.5q38 0 124 103q3 3 92 123l81 -52q-116 -179 -218.5 -259.5t-214.5 -80.5q-125 0 -178 79q-31 45 -31 106q0 42 7 71.5
t35 107.5l126 345q19 51 19 73q0 21 -19 37.5t-43 16.5q-76 0 -194 -142q-67 -81 -111.5 -171.5t-86.5 -232.5l-78 -260h-322l194 654q32 108 32 136q0 38 -25 50.5t-101 12.5h-49l14 96z" />
    <glyph glyph-name="o" unicode="o" horiz-adv-x="1175" 
d="M663 979q199 0 328 -111q114 -98 114 -285q0 -200 -120 -361q-97 -130 -256 -196q-132 -55 -279 -55q-197 0 -308 104q-56 52 -89 135t-33 173q0 165 103 317q96 140 255 216q132 63 285 63zM655 883q-133 0 -225 -224q-40 -98 -66 -222t-26 -216q0 -77 34 -119.5
t96 -42.5q134 0 218 214q43 108 72.5 239t29.5 213q0 66 -30 107q-37 51 -103 51z" />
    <glyph glyph-name="p" unicode="p" horiz-adv-x="1327" 
d="M559 979l-33 -162q142 162 323 162q164 0 262 -101q97 -100 97 -269q0 -254 -184 -449q-178 -190 -405 -190q-92 0 -153.5 31.5t-103.5 100.5l-70 -235q-32 -108 -32 -132q0 -28 27.5 -40.5t89.5 -12.5h30l-13 -96h-636l14 96h8q100 0 130 28q14 13 21 31t39 126l234 791
q31 99 31 132q0 38 -24.5 50.5t-101.5 12.5h-49l14 96zM749 836q-111 0 -198 -152q-48 -83 -89 -223t-41 -220q0 -64 41 -108t101 -44q114 0 197 161q52 100 86 224.5t34 212.5q0 63 -31 103q-36 46 -100 46z" />
    <glyph glyph-name="q" unicode="q" horiz-adv-x="1290" 
d="M1202 979l-329 -1112q-32 -107 -32 -132q0 -28 27.5 -40.5t88.5 -12.5h31l-14 -96h-640l14 96h8q104 0 135 28q14 13 20.5 30t39.5 127l67 227q-134 -123 -281 -123q-151 0 -245 105q-92 102 -92 274q0 255 195 451q176 178 393 178q199 0 282 -156l181 156h151zM646 865
q-84 0 -149 -86q-66 -88 -114 -240q-50 -160 -50 -272q0 -66 34.5 -109t88.5 -43q109 0 195 166q49 95 84.5 228.5t35.5 219.5q0 58 -36 97t-89 39z" />
    <glyph glyph-name="r" unicode="r" horiz-adv-x="1063" 
d="M583 979l-62 -261q63 95 111 144q113 117 250 117q87 0 139 -49t52 -131q0 -77 -48 -125q-44 -44 -105 -44q-50 0 -88.5 27.5t-49.5 71.5q-6 24 -6 64q0 26 -20 26q-29 0 -84 -53q-73 -72 -144.5 -204.5t-114.5 -277.5l-85 -284h-322l194 653q32 109 32 137
q0 38 -24.5 50.5t-101.5 12.5h-49l14 96z" />
    <glyph glyph-name="s" unicode="s" horiz-adv-x="985" 
d="M530 979q173 0 284 -80q81 -57 81 -148q0 -64 -39.5 -103.5t-102.5 -39.5q-61 0 -101 35t-40 89q0 25 7 40t31 44q12 15 12 23q0 18 -34.5 31t-79.5 13q-82 0 -133 -34.5t-51 -88.5q0 -42 34.5 -72.5t125.5 -69.5q101 -44 154 -78q139 -89 139 -235q0 -106 -70 -193
q-54 -68 -153.5 -105t-225.5 -37q-167 0 -273 71q-91 62 -91 165q0 66 39 106.5t103 40.5q66 0 105 -37q41 -40 41 -91q0 -31 -10 -49t-43 -46q-9 -8 -9 -19q0 -23 36 -37.5t93 -14.5q101 0 155 53q39 38 39 87q0 41 -27 69.5t-91 55.5q-126 53 -173 82q-147 90 -147 248
q0 150 111.5 237.5t303.5 87.5z" />
    <glyph glyph-name="t" unicode="t" horiz-adv-x="833" 
d="M614 373l76 -54q-89 -134 -140 -189q-148 -159 -307 -159q-95 0 -149 61q-45 49 -45 108t52 233l133 450h-179l38 126h178l113 382h323l-114 -382h234l-37 -126h-234l-143 -482q-42 -143 -42 -168q0 -15 9.5 -26t21.5 -11q31 0 93 69.5t119 167.5z" />
    <glyph glyph-name="u" unicode="u" horiz-adv-x="1403" 
d="M1222 949l-189 -638q-34 -114 -34 -137q0 -29 28 -29q31 0 92 72q63 74 113 151l77 -57q-122 -187 -220 -263.5t-216 -76.5q-198 0 -198 174q0 19 2 54q-65 -81 -121 -127q-121 -101 -253 -101q-107 0 -170 68q-55 59 -55 156q0 68 42 210l74 248q32 110 32 137
q0 38 -24.5 50.5t-101.5 12.5h-20l13 96l519 30l-184 -624q-43 -143 -43 -161q0 -19 15.5 -34.5t34.5 -15.5q42 0 107 52t120 130q90 126 138 286l100 337h322z" />
    <glyph glyph-name="v" unicode="v" horiz-adv-x="1139" 
d="M627 979l-150 -509q-50 -193 -50 -236q0 -46 35 -81.5t80 -35.5q105 0 205 153q126 190 126 333q0 32 -13.5 51t-76.5 77q-60 54 -60 115q0 60 38.5 96.5t102.5 36.5q72 0 116 -50q44 -49 44 -132q0 -112 -40.5 -252.5t-106.5 -259.5q-100 -178 -229 -253
q-106 -61 -212 -61q-133 0 -229 84q-88 77 -88 216q0 79 24 160l66 222q32 109 32 137q0 38 -24.5 50.5t-101.5 12.5h-49l14 96z" />
    <glyph glyph-name="w" unicode="w" horiz-adv-x="1706" 
d="M1202 949l-142 -479q-49 -194 -49 -238q0 -45 33.5 -80.5t76.5 -35.5q51 0 110 41.5t106 111.5q125 185 125 336q0 30 -13.5 49.5t-76.5 76.5q-59 54 -59 115t38.5 97t102.5 36q73 0 116 -50q44 -50 44 -133q0 -111 -41 -254t-107 -257q-101 -179 -239 -257
q-102 -58 -212 -58q-182 0 -268 134q-26 41 -40 107q-67 -88 -130 -140q-124 -101 -285 -101q-132 0 -193 68q-54 60 -54 158q0 68 42 209l73 248q32 108 32 137q0 38 -24.5 50.5t-101.5 12.5h-21l14 96l520 30l-183 -617q-30 -102 -30 -141q0 -31 22 -53t53 -22
q115 0 210 151q25 40 63 130t58 158l108 364h322z" />
    <glyph glyph-name="x" unicode="x" horiz-adv-x="1175" 
d="M433 275l-75 -107q-65 -93 -143 -146t-150 -53q-73 0 -119.5 43t-46.5 111q0 63 38 101.5t100 38.5q95 0 120 -101q6 -22 19 -22q42 0 146 145l83 117l-29 131q-34 158 -51 200t-47 42q-19 0 -36.5 -14.5t-47.5 -55.5l-72 -120l-81 41q45 96 111 182q132 171 272 171
q123 0 180 -127q26 -60 41 -133l4 -16l44 59q91 120 150 163q74 54 161 54q74 0 119.5 -40t45.5 -106q0 -61 -38 -101t-96 -40q-56 0 -88 29.5t-33 81.5q0 25 -18 25q-28 0 -71 -48t-135 -182l-15 -22l34 -166q28 -141 47 -185t50 -44q38 0 80 63q42 62 73 142l80 -40
q-39 -111 -115 -219q-109 -156 -250 -156q-98 0 -159 75q-25 31 -41 73t-35 127z" />
    <glyph glyph-name="y" unicode="y" horiz-adv-x="1063" 
d="M667 291q138 232 138 324q0 30 -7 49.5t-33 58.5q-42 64 -42 121q0 59 41 97t105 38t101.5 -34t37.5 -93q0 -115 -141 -398q-175 -349 -383 -612q-125 -157 -218 -209q-83 -47 -183 -47q-121 0 -176 69q-42 51 -42 117t40.5 107.5t104.5 41.5q62 0 101.5 -36.5
t39.5 -93.5q0 -21 -12 -57q-2 -8 -2 -13q0 -20 27 -20q40 0 106 52.5t120 127.5l59 82l-205 691q-18 58 -29 75.5t-31 17.5q-27 0 -46.5 -39.5t-62.5 -180.5l-89 27q98 425 331 425q112 0 160 -96q42 -82 77 -203z" />
    <glyph glyph-name="z" unicode="z" horiz-adv-x="1063" 
d="M851 346l90 -33q-40 -130 -118 -215q-120 -128 -293 -128q-82 0 -147.5 24t-206.5 105q-29 17 -43 17q-28 0 -29 -58q-1 -41 -21.5 -64.5t-55.5 -23.5q-29 0 -47.5 19.5t-18.5 50.5q0 73 136 229q86 98 165.5 160.5t196.5 124.5q148 77 170.5 90t87.5 56
q-85 -29 -166 -29q-57 0 -186 21q-81 14 -116 14q-48 0 -71 -21.5t-59 -99.5l-87 30q128 364 407 364q61 0 121.5 -19t153.5 -68q67 -36 89 -36q26 0 44 64q16 59 56 59q25 0 43.5 -20t18.5 -47q0 -56 -62 -146.5t-170 -192.5q-71 -68 -133 -107t-244 -132q-67 -34 -130 -76
q119 21 184 21q93 0 195 -32q94 -29 112 -29q76 0 134 128z" />
    <glyph glyph-name="braceleft" unicode="{" horiz-adv-x="833" 
d="M130 674q105 25 156 92q20 27 31.5 57.5t35.5 122.5l60 225q46 172 123 240t224 68h63l-24 -88q-73 -9 -108 -51q-50 -58 -90 -207l-67 -249q-30 -111 -86 -169t-162 -86q134 -40 134 -137q0 -34 -26 -133l-58 -214q-35 -132 -35 -178q0 -55 20.5 -76.5t74.5 -24.5
l-23 -88h-87q-62 0 -107 28q-73 45 -73 150q0 70 34 196l44 162q26 99 26 147q0 50 -24 78t-80 44z" />
    <glyph glyph-name="bar" unicode="|" horiz-adv-x="1241" 
d="M702 1479v-1979h-166v1979h166z" />
    <glyph glyph-name="braceright" unicode="}" horiz-adv-x="833" 
d="M635 584q-61 -13 -96 -33.5t-64 -59.5q-20 -26 -31.5 -57t-35.5 -123l-60 -224q-46 -172 -123 -240t-224 -68h-63l24 88q72 8 108 51q50 58 90 207l67 248q30 112 86 169.5t162 85.5q-134 41 -134 138q0 34 26 133l58 213q35 132 35 179q0 54 -20.5 75.5t-74.5 24.5
l23 88h86q64 0 108 -28q73 -45 73 -150q0 -69 -34 -195l-44 -163q-26 -98 -26 -146q0 -52 25 -80.5t83 -42.5z" />
    <glyph glyph-name="asciitilde" unicode="~" horiz-adv-x="1241" 
d="M276 345l-172 110q125 232 296 232q58 0 183 -47l108 -41q101 -38 136 -38q36 0 65.5 23t71.5 84l172 -110q-123 -231 -295 -231q-60 0 -184 47l-108 41q-102 38 -134 38q-38 0 -67 -22.5t-72 -85.5z" />
    <glyph glyph-name="nonbreakingspace" unicode="&#xa0;" horiz-adv-x="588" 
 />
    <glyph glyph-name="exclamdown" unicode="&#xa1;" horiz-adv-x="682" 
d="M296 678l107 -27q-89 -396 -103 -720q-7 -140 -15 -182q-35 -165 -165 -165q-76 0 -133 35q-67 43 -67 129q0 50 14 86.5t98 205.5q99 200 147.5 317t116.5 321zM416 1124q72 0 124 -52.5t52 -125.5q0 -74 -52 -126t-126 -52t-126 52t-52 125q0 75 52.5 127t127.5 52z
" />
    <glyph glyph-name="cent" unicode="&#xa2;" horiz-adv-x="1175" 
d="M497 -31l-112 -250h-110l114 255q-36 3 -86 22q-103 38 -169 129q-73 102 -73 230q0 188 118 356q106 152 272 225q121 53 251 53q65 0 133 -16l101 227h111l-118 -264q58 -36 90.5 -93.5t32.5 -123.5q0 -81 -48 -134q-49 -54 -130 -54q-62 0 -109 38l-210 -470
q10 -1 14 -1q94 0 195 81q34 28 125 121l73 -63q-9 -10 -13 -15q-98 -106 -142 -143t-108 -67q-82 -37 -202 -43zM461 135l269 602q26 52 82 86q13 8 13 18q0 20 -28 36t-62 16q-138 0 -236 -195q-43 -87 -73 -203.5t-30 -199.5q0 -100 65 -160z" />
    <glyph glyph-name="sterling" unicode="&#xa3;" horiz-adv-x="1175" 
d="M890 770l-17 -117h-262q-9 -182 -101 -375q111 -42 246 -42q120 0 201 81q40 40 65 93l88 -41q-35 -119 -93 -214q-59 -97 -131 -143q-68 -43 -167 -43q-173 0 -315 131q-108 -131 -247 -131q-94 0 -143 51q-51 52 -51 127q0 103 83 158q57 38 136 38q61 0 156 -24
q7 58 7 85q0 120 -41 249h-268l18 117h234q-3 59 -3 91q0 261 150 424q147 159 375 159q156 0 248 -76q101 -83 101 -213q0 -86 -50 -140.5t-128 -54.5q-68 0 -111.5 39.5t-43.5 101.5q0 45 20.5 76.5t75.5 70.5q21 15 21 37q0 25 -25.5 40.5t-67.5 15.5q-112 0 -176 -112
q-67 -119 -67 -323q0 -42 4 -136h279zM300 172q-91 68 -159 68q-35 0 -58.5 -25.5t-23.5 -63.5q0 -43 25.5 -68.5t69.5 -25.5q49 0 81.5 25.5t64.5 89.5z" />
    <glyph glyph-name="currency" unicode="&#xa4;" horiz-adv-x="1175" 
d="M328 287l-86 -87l-159 159l87 87q-78 121 -78 270q0 156 78 272l-88 88l158 159l89 -88q119 78 272 78q145 0 271 -78l87 87l158 -158l-87 -87q79 -124 79 -273q0 -144 -79 -271l88 -88l-158 -158l-88 87q-135 -78 -271 -78q-141 0 -273 79zM601 977q-108 0 -184 -76
q-77 -76 -77 -184t77 -185q76 -76 181 -76q110 0 187 76q76 77 76 185q0 110 -76 184q-78 76 -184 76z" />
    <glyph glyph-name="yen" unicode="&#xa5;" horiz-adv-x="1175" 
d="M788 767h268l-12 -94h-321l-47 -174h296l-12 -94h-309l-29 -109q-28 -104 -28 -129q0 -35 31 -45.5t131 -10.5h25l-15 -111h-692l15 111h25q112 0 142 28q14 13 20.5 31t34.5 126l29 109h-288l11 94h303l46 174h-301l12 94h256l-160 450q-24 69 -59.5 93t-112.5 24
l15 111h595l-15 -111h-46q-53 0 -72 -10t-19 -39q0 -16 20 -70l147 -430l255 388q35 53 35 89q0 33 -31.5 52.5t-85.5 19.5h-33l15 111h473l-15 -111q-82 -31 -130 -72t-113 -134z" />
    <glyph glyph-name="brokenbar" unicode="&#xa6;" horiz-adv-x="1241" 
d="M702 1479v-660h-166v660h166zM702 659v-659h-166v659h166z" />
    <glyph glyph-name="section" unicode="&#xa7;" horiz-adv-x="1024" 
d="M551 287q109 -123 109 -245q0 -96 -57 -177q-112 -160 -334 -160q-148 0 -249.5 69.5t-101.5 171.5q0 70 39 113t104 43q63 0 104.5 -38.5t41.5 -96.5q0 -62 -58 -104q-22 -17 -22 -26q0 -18 43 -34t93 -16q91 0 134 44q39 40 39 95q0 64 -49 134.5t-225 260.5
q-82 88 -114 151t-32 136q0 146 118 245q92 77 206 77q19 0 56 -3q-60 82 -82 135.5t-22 116.5q0 160 131 257q102 74 258 74q177 0 275 -89q78 -71 78 -160q0 -62 -43 -104t-108 -42q-63 0 -103.5 37.5t-40.5 96.5q0 63 62 115q17 14 17 21q0 17 -39 31.5t-85 14.5
q-79 0 -131 -44q-50 -42 -50 -99q0 -58 45 -126t180 -214q117 -126 151 -190q42 -77 42 -151q0 -152 -136 -252q-95 -70 -203 -70q-14 0 -41 2zM361 852q-49 0 -83 -27q-43 -35 -43 -92q0 -45 23 -86t90 -116q89 -98 135 -131t96 -33q55 0 94 32.5t39 79.5q0 42 -29 92
t-97 127q-74 83 -125.5 118.5t-99.5 35.5z" />
    <glyph glyph-name="dieresis" unicode="&#xa8;" horiz-adv-x="682" 
d="M428 1403q61 0 103.5 -42.5t42.5 -103.5q0 -62 -43 -104.5t-105 -42.5q-60 0 -102.5 43.5t-42.5 103.5t43 103t104 43zM868 1403q61 0 103.5 -42.5t42.5 -103.5q0 -62 -43 -104.5t-105 -42.5q-59 0 -102 43.5t-43 103.5q0 61 43 103.5t104 42.5z" />
    <glyph glyph-name="copyright" unicode="&#xa9;" horiz-adv-x="1530" 
d="M1073 1077l10 -310l-69 -8q-26 92 -54 139q-66 112 -176 112q-187 0 -187 -318q0 -161 45 -242q47 -83 154 -83q89 0 146 58t78 169l80 -19q-59 -288 -338 -288q-180 0 -287 117q-100 109 -100 271q0 171 107 285q114 121 292 121q101 0 189 -53l54 49h56zM764 1403
q202 0 375 -106t264 -285q78 -154 78 -324q0 -204 -106 -376q-105 -173 -285 -265q-154 -78 -335 -78q-193 0 -365 106q-173 105 -265 286q-78 153 -78 325q0 202 105 375q104 170 287 264q152 78 325 78zM764 1297q-245 0 -420 -179q-84 -85 -129 -198q-46 -113 -46 -234
q0 -253 175 -432q83 -85 192 -132q110 -47 221 -47q253 0 428 179q174 179 174 433q0 171 -87 318q-86 145 -238 225q-126 67 -270 67z" />
    <glyph glyph-name="ordfeminine" unicode="&#xaa;" horiz-adv-x="844" 
d="M639 1492h215l-134 -408q-14 -48 -14 -56q0 -20 19 -20q17 0 61 42.5t81 94.5l53 -30q-63 -99 -139.5 -155t-147.5 -56q-53 0 -84 28t-31 77q-56 -59 -105 -82t-116 -23q-107 0 -172 63t-65 161q0 135 105 250q121 132 285 132q120 0 170 -77zM494 1442q-84 0 -145 -117
q-66 -127 -66 -238q0 -97 84 -97q79 0 140 120q30 59 50 127.5t20 115.5q0 40 -23 64.5t-60 24.5z" />
    <glyph glyph-name="guillemotleft" unicode="&#xab;" horiz-adv-x="985" 
d="M163 505l155 -300q5 -11 5 -20q0 -26 -24 -26q-14 0 -33 18l-328 309q-10 9 -10 16t14 17l455 326q18 13 33 13q28 0 28 -28q0 -14 -18 -33zM579 505l154 -300q5 -9 5 -20q0 -26 -24 -26q-14 0 -33 18l-328 309q-9 9 -9 16t14 17l455 326q18 13 33 13q28 0 28 -28
q0 -13 -19 -33z" />
    <glyph glyph-name="logicalnot" unicode="&#xac;" horiz-adv-x="1241" 
d="M84 635h1032v-596h-236v360h-796v236z" />
    <glyph glyph-name="uni00AD" unicode="&#xad;" horiz-adv-x="682" 
d="M91 635h466l-72 -266h-465z" />
    <glyph glyph-name="registered" unicode="&#xae;" horiz-adv-x="1530" 
d="M681 661v-200q0 -67 6 -74q10 -12 79 -12h34v-72h-430v72h23q68 0 77 8.5t9 77.5v447q0 67 -6 74q-10 12 -80 12h-23v72h450q147 0 209 -39q87 -54 87 -157q0 -76 -45 -122t-141 -67q104 -44 124 -165l7 -40q3 -19 4 -28q5 -34 12 -44.5t24 -10.5q39 0 39 84q0 3 -1 11
h72q1 -17 1 -24q0 -83 -49.5 -130.5t-135.5 -47.5q-124 0 -164 102q-13 34 -20 127q-7 85 -15 102q-22 44 -97 44h-50zM681 733h48q100 0 137 28t37 104q0 84 -52 113q-29 16 -81 16h-24q-45 0 -55 -9t-10 -50v-202zM764 1403q202 0 375 -106t264 -285q78 -154 78 -324
q0 -204 -106 -376q-105 -173 -285 -265q-154 -78 -335 -78q-193 0 -365 106q-173 105 -265 286q-78 153 -78 325q0 202 105 375q104 170 287 264q152 78 325 78zM764 1297q-245 0 -420 -179q-84 -85 -129 -198q-46 -113 -46 -234q0 -253 175 -432q83 -85 192 -132
q110 -47 221 -47q253 0 428 179q174 179 174 433q0 171 -87 318q-86 145 -238 225q-126 67 -270 67z" />
    <glyph glyph-name="macron" unicode="&#xaf;" horiz-adv-x="682" 
d="M351 1315h683l-44 -156h-683z" />
    <glyph glyph-name="degree" unicode="&#xb0;" horiz-adv-x="819" 
d="M457 1405q132 0 220 -97q80 -87 80 -216q0 -131 -86 -220q-90 -93 -222 -93q-142 0 -233 108q-73 87 -73 206q0 143 104 232q92 80 210 80zM454 1288q-80 0 -136 -54q-60 -59 -60 -143q0 -80 56.5 -137.5t135.5 -57.5t132 53q58 58 58 143q0 78 -51 135q-56 61 -135 61z
" />
    <glyph glyph-name="plusminus" unicode="&#xb1;" horiz-adv-x="1241" 
d="M482 614h-398v236h398v399h236v-399h398v-236h-398v-290h-236v290zM84 0v236h1032v-236h-1032z" />
    <glyph glyph-name="twosuperior" unicode="&#xb2;" horiz-adv-x="704" 
d="M627 894l69 -23l-112 -294h-617v9q0 44 48.5 98.5t184.5 163.5q178 143 231 206q74 86 74 173q0 58 -39.5 93.5t-102.5 35.5q-48 0 -88.5 -23.5t-40.5 -51.5q0 -19 50 -39q72 -29 72 -94q0 -47 -31.5 -75.5t-83.5 -28.5q-67 0 -104 47q-33 41 -33 94q0 56 31 110.5
t81 87.5q92 60 225 60q132 0 211 -59q38 -29 61.5 -75t23.5 -94q0 -104 -101 -196q-60 -55 -192 -126q-110 -60 -236 -139h245q65 0 92.5 19.5t65.5 90.5z" />
    <glyph glyph-name="threesuperior" unicode="&#xb3;" horiz-adv-x="704" 
d="M485 1020q58 -15 89 -34q35 -21 58 -63t23 -87q0 -57 -29 -111t-79 -90q-104 -76 -262 -76q-120 0 -199 44q-43 25 -68.5 68.5t-25.5 91.5q0 57 35.5 92.5t92.5 35.5q49 0 81 -28t32 -72q0 -70 -74 -91q-19 -6 -19 -14q0 -19 34.5 -36t73.5 -17q87 0 131 69q45 71 45 172
q0 113 -84 113q-12 0 -40 -7q-17 -5 -32 -5q-52 0 -52 47q0 49 52 49q16 0 36 -6q22 -7 40 -7q50 0 87 39q62 67 62 152q0 55 -29.5 85.5t-81.5 30.5q-37 0 -68.5 -13t-31.5 -28q0 -4 8 -9q60 -40 60 -89q0 -38 -31.5 -65t-77.5 -27q-51 0 -83 31.5t-32 80.5q0 83 86 140
t211 57q128 0 213 -58q77 -54 77 -144q0 -81 -59.5 -138.5t-168.5 -82.5z" />
    <glyph glyph-name="acute" unicode="&#xb4;" horiz-adv-x="682" 
d="M355 1096l254 284q52 58 79 75.5t65 17.5q46 0 78 -31t32 -75q0 -60 -58 -91l-340 -180h-110z" />
    <glyph glyph-name="mu" unicode="&#xb5;" horiz-adv-x="1403" 
d="M80 853l13 96l519 30l-184 -624q-10 -31 -24 -84q-10 -34 -14 -49q-5 -18 -5 -28q0 -20 15.5 -35.5t34.5 -15.5q42 0 107 52t121 130q89 126 137 287l100 337h322l-189 -638q-34 -115 -34 -138q0 -28 28 -28q31 0 92 72q63 74 113 151l77 -57q-117 -183 -218 -262
t-218 -79q-198 0 -198 173q0 21 3 56q-65 -79 -122 -128q-120 -101 -253 -101q-100 0 -164 77q-16 -55 -16 -91q0 -21 6 -64q13 -90 13 -132q0 -70 -41 -126q-26 -36 -74 -59.5t-92 -23.5q-52 0 -85.5 27.5t-33.5 71.5t20 84.5t96 150.5q61 90 80 157l182 611q32 109 32 136
q0 39 -24.5 51.5t-101.5 12.5h-20z" />
    <glyph glyph-name="paragraph" unicode="&#xb6;" horiz-adv-x="1331" 
d="M516 666q-83 0 -134 12q-223 56 -223 274q0 133 83 272q97 161 268 220q102 35 253 35h591l-30 -111h-8q-36 0 -68.5 -8t-45.5 -20t-19.5 -30t-33.5 -119l-321 -1198q-30 -113 -30 -132q0 -45 102 -45h14l-30 -111h-747l30 111h13q90 0 116 44q8 16 40 133zM990 1368h-79
l-415 -1551h78zM706 1368q-59 0 -94 -13q-53 -21 -85.5 -67.5t-56.5 -135.5l-39 -147q-14 -51 -14 -101q0 -63 25.5 -90t84.5 -27h23z" />
    <glyph glyph-name="glyph121" unicode="&#xb7;" horiz-adv-x="588" 
d="M262 706q74 0 126 -52t52 -125q0 -75 -52.5 -127t-127.5 -52q-72 0 -124 52.5t-52 125.5q0 74 52 126t126 52z" />
    <glyph glyph-name="cedilla" unicode="&#xb8;" horiz-adv-x="682" 
d="M77 0h93l-93 -124q44 6 68 6q76 0 126.5 -43.5t50.5 -109.5q0 -87 -84 -135q-79 -45 -192 -45q-140 0 -224 58l45 73q89 -40 147 -40q45 0 73 21.5t28 55.5q0 32 -24.5 52.5t-62.5 20.5q-21 0 -59 -8l-34 35z" />
    <glyph glyph-name="onesuperior" unicode="&#xb9;" horiz-adv-x="704" 
d="M661 1446l-189 -687q-17 -61 -17 -73q0 -18 19 -23.5t82 -5.5h56l-11 -79h-558l11 79h76q78 0 91 10.5t35 91.5l126 455q8 30 8 44q0 27 -54 27h-127l20 74q97 1 201.5 26t166.5 61h64z" />
    <glyph glyph-name="ordmasculine" unicode="&#xba;" horiz-adv-x="729" 
d="M489 1510q136 0 216 -64t80 -173q0 -170 -142 -277q-122 -92 -295 -92q-133 0 -206 62q-82 69 -82 186q0 70 37 140t100 119q126 99 292 99zM484 1452q-88 0 -150 -134q-26 -59 -43.5 -133.5t-17.5 -128.5q0 -99 86 -99q90 0 146 128q29 66 48.5 144t19.5 128
q0 43 -24 69t-65 26z" />
    <glyph glyph-name="guillemotright" unicode="&#xbb;" horiz-adv-x="985" 
d="M284 513l-155 300q-5 9 -5 20q0 26 24 26q14 0 33 -18l328 -309q9 -9 9 -16t-13 -17l-456 -327q-17 -12 -33 -12q-11 0 -19.5 8.5t-8.5 18.5q0 14 19 34zM699 513l-154 300q-5 9 -5 20q0 26 24 26q13 0 33 -18l328 -309q9 -9 9 -16t-14 -17l-455 -327q-18 -12 -33 -12
q-11 0 -19.5 8.5t-8.5 18.5q0 14 19 34z" />
    <glyph glyph-name="onequarter" unicode="&#xbc;" horiz-adv-x="1763" 
d="M1231 1479h162l-859 -1479h-163zM1678 316l-16 -93h-155l-13 -43q-17 -61 -17 -74q0 -17 18 -22t78 -5h31l-12 -79h-482l12 79h37q76 0 89.5 11t37.5 94l11 39h-340v76l600 570h135l-159 -553h145zM1324 316l86 303l-313 -303h227zM661 1446l-189 -687q-17 -61 -17 -73
q0 -18 19 -23.5t82 -5.5h56l-11 -79h-558l11 79h76q78 0 91 10.5t35 91.5l126 455q8 30 8 44q0 27 -54 27h-127l20 74q97 1 201.5 26t166.5 61h64z" />
    <glyph glyph-name="onehalf" unicode="&#xbd;" horiz-adv-x="1763" 
d="M1240 1479h162l-859 -1479h-163zM661 1446l-189 -687q-17 -61 -17 -73q0 -18 19 -23.5t82 -5.5h56l-11 -79h-558l11 79h76q78 0 91 10.5t35 91.5l126 455q8 30 8 44q0 27 -54 27h-127l20 74q97 1 201.5 26t166.5 61h64zM1645 316l69 -22l-112 -294h-617v9q0 44 47.5 98
t185.5 164q178 143 231 206q74 86 74 173q0 58 -39.5 93.5t-102.5 35.5q-48 0 -88.5 -23.5t-40.5 -50.5q0 -13 8.5 -20t41.5 -20q72 -29 72 -93q0 -47 -32 -76t-83 -29q-67 0 -104 47q-33 40 -33 94q0 56 31 110.5t81 87.5q92 60 225 60q132 0 211 -59q38 -29 61.5 -75
t23.5 -94q0 -104 -101 -196q-60 -56 -192 -126q-113 -62 -236 -139h245q65 0 92.5 19t65.5 90z" />
    <glyph glyph-name="threequarters" unicode="&#xbe;" horiz-adv-x="1763" 
d="M1260 1479h162l-859 -1479h-163zM1679 316l-17 -93h-155l-12 -43q-18 -62 -18 -74q0 -17 18 -22t78 -5h31l-12 -79h-482l12 79h37q76 0 89.5 11.5t37.5 93.5l11 39h-340v76l600 570h135l-159 -553h146zM1324 316l86 303l-313 -303h227zM485 1020q58 -15 89 -34
q35 -21 58 -63t23 -87q0 -57 -29 -111t-79 -90q-104 -76 -262 -76q-120 0 -199 44q-43 25 -68.5 68.5t-25.5 91.5q0 57 35.5 92.5t92.5 35.5q49 0 81 -28t32 -72q0 -70 -74 -91q-19 -6 -19 -14q0 -19 34.5 -36t73.5 -17q87 0 131 69q45 71 45 172q0 113 -84 113
q-12 0 -40 -7q-17 -5 -32 -5q-52 0 -52 47q0 49 52 49q16 0 36 -6q22 -7 40 -7q50 0 87 39q62 67 62 152q0 55 -29.5 85.5t-81.5 30.5q-37 0 -68.5 -13t-31.5 -28q0 -4 8 -9q60 -40 60 -89q0 -38 -31.5 -65t-77.5 -27q-51 0 -83 31.5t-32 80.5q0 83 86 140t211 57
q128 0 213 -58q77 -54 77 -144q0 -81 -59.5 -138.5t-168.5 -82.5z" />
    <glyph glyph-name="questiondown" unicode="&#xbf;" horiz-adv-x="985" 
d="M262 409l-99 23q30 105 108 166.5t179 61.5q111 0 180 -75q68 -74 68 -170q0 -120 -79.5 -228t-230.5 -195q-101 -58 -135 -94t-34 -85q0 -76 61 -109q41 -22 88 -22q107 0 183 97q74 95 74 208q0 10 -2 42h97q4 -37 4 -54q0 -132 -88 -250q-104 -141 -292 -141
q-142 0 -241 85q-101 88 -101 232q0 128 80.5 225t269.5 198q100 54 126 79q29 30 29 69t-25.5 62t-68.5 23q-97 0 -151 -148zM577 1124q72 0 124 -52.5t52 -125.5q0 -74 -52 -126t-126 -52q-73 0 -125.5 52t-52.5 125q0 75 52.5 127t127.5 52z" />
    <glyph glyph-name="Agrave" unicode="&#xc0;" horiz-adv-x="1517" 
d="M985 1508l268 -1273q17 -83 64 -106q38 -18 121 -18h28l-15 -111h-765l15 111h32q102 0 136 16q35 15 35 48q0 15 -10 65l-41 211h-474l-95 -165q-29 -51 -29 -90q0 -85 167 -85h26l-15 -111h-587l15 111h11q69 0 141.5 56t131.5 154l713 1187h127zM828 562l-96 492
l-287 -492h383zM1047 1585h-101l-289 182q-61 38 -61 95q0 44 30.5 72t78.5 28q42 0 69 -17.5t64 -68.5z" />
    <glyph glyph-name="Aacute" unicode="&#xc1;" horiz-adv-x="1517" 
d="M985 1508l268 -1273q17 -83 64 -106q38 -18 121 -18h28l-15 -111h-765l15 111h32q102 0 136 16q35 15 35 48q0 15 -10 65l-41 211h-474l-95 -165q-29 -51 -29 -90q0 -85 167 -85h26l-15 -111h-587l15 111h11q69 0 141.5 56t131.5 154l713 1187h127zM828 562l-96 492
l-287 -492h383zM772 1584l254 285q52 58 79 75.5t65 17.5q46 0 78 -31t32 -75q0 -60 -59 -91l-339 -181h-110z" />
    <glyph glyph-name="Acircumflex" unicode="&#xc2;" horiz-adv-x="1517" 
d="M985 1508l268 -1273q17 -83 64 -106q38 -18 121 -18h28l-15 -111h-765l15 111h32q102 0 136 16q35 15 35 48q0 15 -10 65l-41 211h-474l-95 -165q-29 -51 -29 -90q0 -85 167 -85h26l-15 -111h-587l15 111h11q69 0 141.5 56t131.5 154l713 1187h127zM828 562l-96 492
l-287 -492h383zM563 1585l322 361h206l172 -361h-120l-185 180l-259 -180h-136z" />
    <glyph glyph-name="Atilde" unicode="&#xc3;" horiz-adv-x="1517" 
d="M985 1508l268 -1273q17 -83 64 -106q38 -18 121 -18h28l-15 -111h-765l15 111h32q102 0 136 16q35 15 35 48q0 15 -10 65l-41 211h-474l-95 -165q-29 -51 -29 -90q0 -85 167 -85h26l-15 -111h-587l15 111h11q69 0 141.5 56t131.5 154l713 1187h127zM828 562l-96 492
l-287 -492h383zM1209 1888h97q-3 -76 -53 -146q-79 -112 -199 -112q-64 0 -175 43q-110 42 -149 42q-70 0 -85 -85h-97q7 95 59 160q78 98 196 98q62 0 161 -39q109 -43 143 -43q79 0 102 82z" />
    <glyph glyph-name="Adieresis" unicode="&#xc4;" horiz-adv-x="1517" 
d="M985 1508l268 -1273q17 -83 64 -106q38 -18 121 -18h28l-15 -111h-765l15 111h32q102 0 136 16q35 15 35 48q0 15 -10 65l-41 211h-474l-95 -165q-29 -51 -29 -90q0 -85 167 -85h26l-15 -111h-587l15 111h11q69 0 141.5 56t131.5 154l713 1187h127zM828 562l-96 492
l-287 -492h383zM706 1911q60 0 103 -42.5t43 -103.5q0 -62 -43 -104.5t-105 -42.5q-60 0 -102.5 43t-42.5 104q0 60 43 103t104 43zM1146 1911q60 0 103 -42.5t43 -103.5q0 -62 -43 -104.5t-105 -42.5q-60 0 -102.5 43.5t-42.5 103.5t43 103t104 43z" />
    <glyph glyph-name="Aring" unicode="&#xc5;" horiz-adv-x="1517" 
d="M985 1508l268 -1273q17 -83 64 -106q38 -18 121 -18h28l-15 -111h-765l15 111h32q102 0 136 16q35 15 35 48q0 15 -10 65l-41 211h-474l-95 -165q-29 -51 -29 -90q0 -85 167 -85h26l-15 -111h-587l15 111h11q69 0 141.5 56t131.5 154l713 1187h127zM828 562l-96 492
l-287 -492h383zM952 2044q91 0 156 -64q64 -64 64 -156t-64 -156q-65 -64 -158 -64q-89 0 -154 64q-64 65 -64 156q0 93 64 156q66 64 156 64zM952 1934q-45 0 -77.5 -32.5t-32.5 -77.5t32 -77.5t77 -32.5q46 0 78.5 32t32.5 78t-32 78t-78 32z" />
    <glyph glyph-name="AE" unicode="&#xc6;" horiz-adv-x="1821" 
d="M1849 1479l-82 -501h-100q-1 191 -37 260q-67 130 -246 130h-22q-54 0 -77 -19.5t-39 -78.5l-120 -449h19q226 6 313 251l96 -14l-184 -689l-96 15q11 78 11 127q0 122 -73 168q-50 31 -93 31h-23l-129 -483q-11 -39 -11 -65q0 -51 96 -51h25q205 0 390 176
q105 101 172 243l102 -24l-136 -506h-1215l14 111h9q125 0 156 28q13 12 19.5 30.5t35.5 125.5l69 259h-350l-186 -297q-25 -40 -25 -68q0 -40 39 -58.5t126 -19.5l-14 -111h-449l15 111q43 10 67 33t78 105l602 922q41 63 41 107q0 42 -39.5 66t-107.5 24h-64l15 111h1408z
M723 665l182 681q2 6 2 8q1 13 -18 13q-14 0 -27 -19l-442 -683h303z" />
    <glyph glyph-name="Ccedilla" unicode="&#xc7;" horiz-adv-x="1554" 
d="M740 -31l-71 -97q43 6 68 6q76 0 126.5 -43.5t50.5 -109.5q0 -86 -84 -134q-80 -45 -192 -45q-139 0 -224 58l45 73q89 -40 147 -40q45 0 73 21.5t28 55.5q0 32 -24 52.5t-63 20.5q-22 0 -59 -8l-34 34l123 162q-178 23 -315 106q-139 84 -207 240q-56 127 -56 277
q0 242 135 468q135 227 369 347q189 97 392 97q237 0 378 -170l114 118h95l-118 -586l-101 13q-5 173 -47 295q-75 220 -291 220q-146 0 -260 -114q-113 -113 -195 -348q-82 -233 -82 -452q0 -171 82 -271q45 -55 115 -86q74 -32 155 -32q200 0 352 176q64 74 98 161h128
q-50 -160 -180 -291q-173 -174 -453 -174h-18z" />
    <glyph glyph-name="Egrave" unicode="&#xc8;" horiz-adv-x="1517" 
d="M1491 1479l-82 -501h-106q-3 178 -43 260q-63 130 -281 130h-77q-65 0 -89 -18.5t-41 -79.5l-120 -449h41q169 0 252 94q50 57 89 157l108 -14l-184 -688l-108 15q11 77 11 128q0 197 -194 197h-45l-129 -482q-11 -41 -11 -66q0 -51 110 -51h74q135 0 240 52
q106 51 201.5 150.5t153.5 217.5l108 -24l-136 -507h-1317l15 111h8q126 0 156 28q14 13 20.5 31t34.5 126l238 887q28 104 28 130q0 34 -30.5 44.5t-131.5 10.5h-38l15 111h1260zM1115 1585h-101l-289 182q-60 38 -60 95q0 44 30.5 72t77.5 28q42 0 69.5 -17.5t63.5 -68.5z
" />
    <glyph glyph-name="Eacute" unicode="&#xc9;" horiz-adv-x="1517" 
d="M1491 1479l-82 -501h-106q-3 178 -43 260q-63 130 -281 130h-77q-65 0 -89 -18.5t-41 -79.5l-120 -449h41q169 0 252 94q50 57 89 157l108 -14l-184 -688l-108 15q11 77 11 128q0 197 -194 197h-45l-129 -482q-11 -41 -11 -66q0 -51 110 -51h74q135 0 240 52
q106 51 201.5 150.5t153.5 217.5l108 -24l-136 -507h-1317l15 111h8q126 0 156 28q14 13 20.5 31t34.5 126l238 887q28 104 28 130q0 34 -30.5 44.5t-131.5 10.5h-38l15 111h1260zM799 1584l255 285q52 58 78.5 75.5t64.5 17.5q46 0 78 -31t32 -75q0 -60 -58 -91l-340 -181
h-110z" />
    <glyph glyph-name="Ecircumflex" unicode="&#xca;" horiz-adv-x="1517" 
d="M1491 1479l-82 -501h-106q-3 178 -43 260q-63 130 -281 130h-77q-65 0 -89 -18.5t-41 -79.5l-120 -449h41q169 0 252 94q50 57 89 157l108 -14l-184 -688l-108 15q11 77 11 128q0 197 -194 197h-45l-129 -482q-11 -41 -11 -66q0 -51 110 -51h74q135 0 240 52
q106 51 201.5 150.5t153.5 217.5l108 -24l-136 -507h-1317l15 111h8q126 0 156 28q14 13 20.5 31t34.5 126l238 887q28 104 28 130q0 34 -30.5 44.5t-131.5 10.5h-38l15 111h1260zM574 1585l322 361h207l172 -361h-121l-184 180l-259 -180h-137z" />
    <glyph glyph-name="Edieresis" unicode="&#xcb;" horiz-adv-x="1517" 
d="M1491 1479l-82 -501h-106q-3 178 -43 260q-63 130 -281 130h-77q-65 0 -89 -18.5t-41 -79.5l-120 -449h41q169 0 252 94q50 57 89 157l108 -14l-184 -688l-108 15q11 77 11 128q0 197 -194 197h-45l-129 -482q-11 -41 -11 -66q0 -51 110 -51h74q135 0 240 52
q106 51 201.5 150.5t153.5 217.5l108 -24l-136 -507h-1317l15 111h8q126 0 156 28q14 13 20.5 31t34.5 126l238 887q28 104 28 130q0 34 -30.5 44.5t-131.5 10.5h-38l15 111h1260zM716 1911q61 0 103.5 -42.5t42.5 -103.5q0 -62 -43 -104.5t-105 -42.5q-60 0 -102.5 43
t-42.5 104q0 60 43 103t104 43zM1157 1911q60 0 103 -42.5t43 -103.5q0 -62 -43 -104.5t-105 -42.5q-60 0 -102.5 43.5t-42.5 103.5t43 103t104 43z" />
    <glyph glyph-name="Igrave" unicode="&#xcc;" horiz-adv-x="909" 
d="M680 0h-764l15 111h14q126 0 156 28q14 13 20.5 31t34.5 126l238 887q28 104 28 129q0 35 -30.5 45.5t-131.5 10.5h-44l15 111h764l-15 -111h-14q-125 0 -156 -28q-13 -12 -19.5 -29.5t-35.5 -127.5l-238 -887q-28 -105 -28 -130q0 -34 31 -44.5t131 -10.5h44zM770 1585
h-101l-289 182q-60 38 -60 95q0 44 30.5 72t78.5 28q41 0 68.5 -17.5t63.5 -68.5z" />
    <glyph glyph-name="Iacute" unicode="&#xcd;" horiz-adv-x="909" 
d="M680 0h-764l15 111h14q126 0 156 28q14 13 20.5 31t34.5 126l238 887q28 104 28 129q0 35 -30.5 45.5t-131.5 10.5h-44l15 111h764l-15 -111h-14q-125 0 -156 -28q-13 -12 -19.5 -29.5t-35.5 -127.5l-238 -887q-28 -105 -28 -130q0 -34 31 -44.5t131 -10.5h44zM366 1584
l254 285q52 58 79 75.5t65 17.5q46 0 78 -31t32 -75q0 -60 -59 -91l-339 -181h-110z" />
    <glyph glyph-name="Icircumflex" unicode="&#xce;" horiz-adv-x="909" 
d="M680 0h-764l15 111h14q126 0 156 28q14 13 20.5 31t34.5 126l238 887q28 104 28 129q0 35 -30.5 45.5t-131.5 10.5h-44l15 111h764l-15 -111h-14q-125 0 -156 -28q-13 -12 -19.5 -29.5t-35.5 -127.5l-238 -887q-28 -105 -28 -130q0 -34 31 -44.5t131 -10.5h44zM280 1585
l321 361h207l172 -361h-120l-185 180l-259 -180h-136z" />
    <glyph glyph-name="Idieresis" unicode="&#xcf;" horiz-adv-x="909" 
d="M680 0h-764l15 111h14q126 0 156 28q14 13 20.5 31t34.5 126l238 887q28 104 28 129q0 35 -30.5 45.5t-131.5 10.5h-44l15 111h764l-15 -111h-14q-125 0 -156 -28q-13 -12 -19.5 -29.5t-35.5 -127.5l-238 -887q-28 -105 -28 -130q0 -34 31 -44.5t131 -10.5h44zM434 1911
q61 0 103.5 -42.5t42.5 -103.5q0 -62 -43 -104.5t-105 -42.5q-60 0 -102.5 43t-42.5 104q0 60 43 103t104 43zM874 1911q60 0 103 -42.5t43 -103.5q0 -62 -43 -104.5t-105 -42.5q-60 0 -102.5 43.5t-42.5 103.5t43 103t104 43z" />
    <glyph glyph-name="Eth" unicode="&#xd0;" horiz-adv-x="1706" 
d="M238 694h-190l34 129h190l100 360q28 100 28 130q0 34 -30.5 44.5t-131.5 10.5h-38l15 111h734q212 0 326 -41q189 -67 279 -221q77 -132 77 -321q0 -244 -115 -454q-142 -258 -415 -368q-185 -74 -516 -74h-685l15 111h8q126 0 156 28q14 13 20.5 31t35.5 126zM599 694
l-113 -434q-18 -76 -18 -94q0 -30 25 -42.5t83 -12.5h59q270 0 420 222q79 117 135 308q60 201 60 386q0 159 -69 244q-79 97 -237 97h-45q-71 0 -100 -25t-51 -104l-115 -416h309l-34 -129h-309z" />
    <glyph glyph-name="Ntilde" unicode="&#xd1;" horiz-adv-x="1745" 
d="M717 1479l549 -1038l159 594q44 173 44 221q0 54 -43.5 83t-124.5 29h-16l15 111h568l-15 -111q-103 -1 -166 -55q-40 -34 -57.5 -72.5t-66.5 -205.5l-286 -1064h-163l-606 1160l-184 -687q-44 -175 -44 -221q0 -112 179 -112h21l-15 -111h-582l15 111q105 3 165 55
q40 35 58 75t66 203l230 859q-19 36 -46 50.5t-75 14.5h-115l15 111h521zM1357 1888h97q-3 -76 -53 -146q-79 -112 -199 -112q-64 0 -175 43q-110 42 -149 42q-70 0 -85 -85h-97q7 95 59 160q78 98 196 98q62 0 161 -39q109 -43 143 -43q79 0 102 82z" />
    <glyph glyph-name="Ograve" unicode="&#xd2;" horiz-adv-x="1706" 
d="M1169 1585h-101l-289 182q-60 38 -60 95q0 44 30.5 72t78.5 28q41 0 68.5 -17.5t63.5 -68.5zM1004 1510q279 0 460 -186q169 -175 169 -421q0 -294 -181 -544q-155 -214 -391 -316q-171 -74 -361 -74q-296 0 -467 181q-159 168 -159 435q0 262 144 490q78 124 197 223
q255 212 589 212zM998 1399q-226 0 -383 -317q-67 -136 -118 -318q-57 -207 -57 -370q0 -129 57 -213q68 -101 203 -101q223 0 391 322q76 145 120.5 323.5t44.5 339.5q0 144 -54 227q-29 44 -75 71q-61 36 -129 36z" />
    <glyph glyph-name="Oacute" unicode="&#xd3;" horiz-adv-x="1706" 
d="M887 1584l255 285q52 58 78.5 75.5t64.5 17.5q46 0 78 -31t32 -75q0 -60 -58 -91l-340 -181h-110zM1004 1510q279 0 460 -186q169 -175 169 -421q0 -294 -181 -544q-155 -214 -391 -316q-171 -74 -361 -74q-296 0 -467 181q-159 168 -159 435q0 262 144 490
q78 124 197 223q255 212 589 212zM998 1399q-226 0 -383 -317q-67 -136 -118 -318q-57 -207 -57 -370q0 -129 57 -213q68 -101 203 -101q223 0 391 322q76 145 120.5 323.5t44.5 339.5q0 144 -54 227q-29 44 -75 71q-61 36 -129 36z" />
    <glyph glyph-name="Ocircumflex" unicode="&#xd4;" horiz-adv-x="1706" 
d="M662 1585l322 361h207l172 -361h-120l-185 180l-259 -180h-137zM1004 1510q279 0 460 -186q169 -175 169 -421q0 -294 -181 -544q-155 -214 -391 -316q-171 -74 -361 -74q-296 0 -467 181q-159 168 -159 435q0 262 144 490q78 124 197 223q255 212 589 212zM998 1399
q-226 0 -383 -317q-67 -136 -118 -318q-57 -207 -57 -370q0 -129 57 -213q68 -101 203 -101q223 0 391 322q76 145 120.5 323.5t44.5 339.5q0 144 -54 227q-29 44 -75 71q-61 36 -129 36z" />
    <glyph glyph-name="Otilde" unicode="&#xd5;" horiz-adv-x="1706" 
d="M1339 1888h97q-5 -77 -54 -146q-79 -112 -199 -112q-63 0 -175 43q-110 42 -149 42q-69 0 -84 -85h-97q7 95 59 160q77 98 195 98q62 0 161 -39q109 -43 143 -43q79 0 103 82zM1004 1510q279 0 460 -186q169 -175 169 -421q0 -294 -181 -544q-155 -214 -391 -316
q-171 -74 -361 -74q-296 0 -467 181q-159 168 -159 435q0 262 144 490q78 124 197 223q255 212 589 212zM998 1399q-226 0 -383 -317q-67 -136 -118 -318q-57 -207 -57 -370q0 -129 57 -213q68 -101 203 -101q223 0 391 322q76 145 120.5 323.5t44.5 339.5q0 144 -54 227
q-29 44 -75 71q-61 36 -129 36z" />
    <glyph glyph-name="Odieresis" unicode="&#xd6;" horiz-adv-x="1706" 
d="M832 1911q60 0 103 -42.5t43 -103.5q0 -62 -43 -104.5t-105 -42.5q-60 0 -102.5 43t-42.5 104q0 60 43 103t104 43zM1272 1911q60 0 103 -42.5t43 -103.5q0 -62 -43 -104.5t-105 -42.5q-60 0 -102.5 43t-42.5 104q0 60 43 103t104 43zM1004 1510q279 0 460 -186
q169 -175 169 -421q0 -294 -181 -544q-155 -214 -391 -316q-171 -74 -361 -74q-296 0 -467 181q-159 168 -159 435q0 262 144 490q78 124 197 223q255 212 589 212zM998 1399q-226 0 -383 -317q-67 -136 -118 -318q-57 -207 -57 -370q0 -129 57 -213q68 -101 203 -101
q223 0 391 322q76 145 120.5 323.5t44.5 339.5q0 144 -54 227q-29 44 -75 71q-61 36 -129 36z" />
    <glyph glyph-name="multiply" unicode="&#xd7;" horiz-adv-x="1241" 
d="M602 351l-351 -352l-167 166l352 352l-352 352l167 166l351 -351l352 351l166 -166l-351 -352l351 -351l-166 -167z" />
    <glyph glyph-name="Oslash" unicode="&#xd8;" horiz-adv-x="1706" 
d="M1335 1427l126 156h133l-176 -217q214 -181 214 -462q0 -295 -181 -545q-154 -214 -390 -316q-171 -74 -356 -74q-211 0 -354 86l-183 -225h-133l233 286q-194 172 -194 470q0 262 144 488q145 227 377 344q184 92 398 92q203 0 342 -83zM1211 1276q-18 33 -40 54
q-72 68 -175 68q-224 0 -381 -316q-68 -137 -118 -318q-57 -207 -57 -360q0 -33 5 -70zM1250 1160l-771 -948q70 -131 221 -131q223 0 391 321q70 133 115 301q50 188 50 349q0 54 -6 108z" />
    <glyph glyph-name="Ugrave" unicode="&#xd9;" horiz-adv-x="1706" 
d="M194 1368l15 111h769l-15 -111h-25q-125 0 -156 -28q-14 -13 -20 -30.5t-35 -126.5l-167 -622q-29 -109 -29 -181q0 -172 122 -241q75 -43 186 -43q161 0 276 120q51 54 81 117.5t63 185.5l138 516q44 174 44 221q0 54 -43.5 83t-124.5 29h-15l14 111h561l-15 -111
q-92 1 -160 -55q-39 -32 -56.5 -72t-67.5 -206l-152 -571q-66 -245 -212 -371q-145 -124 -411 -124q-216 0 -350 70q-120 63 -182 185q-47 92 -47 177q0 87 35 219l151 563q28 104 28 129q0 35 -30.5 45.5t-131.5 10.5h-38zM1237 1585h-101l-289 182q-61 38 -61 95
q0 44 30.5 72t78.5 28q42 0 69 -17.5t64 -68.5z" />
    <glyph glyph-name="Uacute" unicode="&#xda;" horiz-adv-x="1706" 
d="M194 1368l15 111h769l-15 -111h-25q-125 0 -156 -28q-14 -13 -20 -30.5t-35 -126.5l-167 -622q-29 -109 -29 -181q0 -172 122 -241q75 -43 186 -43q161 0 276 120q51 54 81 117.5t63 185.5l138 516q44 174 44 221q0 54 -43.5 83t-124.5 29h-15l14 111h561l-15 -111
q-92 1 -160 -55q-39 -32 -56.5 -72t-67.5 -206l-152 -571q-66 -245 -212 -371q-145 -124 -411 -124q-216 0 -350 70q-120 63 -182 185q-47 92 -47 177q0 87 35 219l151 563q28 104 28 129q0 35 -30.5 45.5t-131.5 10.5h-38zM955 1584l254 285q52 58 79 75.5t65 17.5
q46 0 78 -31t32 -75q0 -60 -58 -91l-340 -181h-110z" />
    <glyph glyph-name="Ucircumflex" unicode="&#xdb;" horiz-adv-x="1706" 
d="M194 1368l15 111h769l-15 -111h-25q-125 0 -156 -28q-14 -13 -20 -30.5t-35 -126.5l-167 -622q-29 -109 -29 -181q0 -172 122 -241q75 -43 186 -43q161 0 276 120q51 54 81 117.5t63 185.5l138 516q44 174 44 221q0 54 -43.5 83t-124.5 29h-15l14 111h561l-15 -111
q-92 1 -160 -55q-39 -32 -56.5 -72t-67.5 -206l-152 -571q-66 -245 -212 -371q-145 -124 -411 -124q-216 0 -350 70q-120 63 -182 185q-47 92 -47 177q0 87 35 219l151 563q28 104 28 129q0 35 -30.5 45.5t-131.5 10.5h-38zM750 1585l322 361h207l171 -361h-119l-185 180
l-259 -180h-137z" />
    <glyph glyph-name="Udieresis" unicode="&#xdc;" horiz-adv-x="1706" 
d="M194 1368l15 111h769l-15 -111h-25q-125 0 -156 -28q-14 -13 -20 -30.5t-35 -126.5l-167 -622q-29 -109 -29 -181q0 -172 122 -241q75 -43 186 -43q161 0 276 120q51 54 81 117.5t63 185.5l138 516q44 174 44 221q0 54 -43.5 83t-124.5 29h-15l14 111h561l-15 -111
q-92 1 -160 -55q-39 -32 -56.5 -72t-67.5 -206l-152 -571q-66 -245 -212 -371q-145 -124 -411 -124q-216 0 -350 70q-120 63 -182 185q-47 92 -47 177q0 87 35 219l151 563q28 104 28 129q0 35 -30.5 45.5t-131.5 10.5h-38zM892 1911q60 0 103 -42.5t43 -103.5
q0 -62 -43 -104.5t-105 -42.5q-60 0 -102.5 43t-42.5 104q0 60 43 103t104 43zM1333 1911q61 0 103.5 -42.5t42.5 -103.5q0 -62 -43 -104.5t-105 -42.5q-59 0 -102 43.5t-43 103.5t43 103t104 43z" />
    <glyph glyph-name="Yacute" unicode="&#xdd;" horiz-adv-x="1442" 
d="M808 777l325 430q35 45 35 88q0 34 -31 53.5t-86 19.5h-73l15 111h599l-15 -111q-93 -5 -148 -38q-73 -45 -167 -168l-409 -534l-89 -332q-28 -104 -28 -130q0 -34 31 -44.5t131 -10.5h53l-15 -111h-797l15 111h38q126 0 156 28q14 13 20.5 31t34.5 126l89 332l-240 622
q-27 72 -57 91q-40 27 -117 27h-47l15 111h749l-15 -111h-88q-52 0 -71 -10t-19 -38q0 -22 20 -71zM755 1584l255 285q52 58 78.5 75.5t64.5 17.5q46 0 78 -31t32 -75q0 -60 -58 -91l-340 -181h-110z" />
    <glyph glyph-name="Thorn" unicode="&#xde;" horiz-adv-x="1517" 
d="M686 0h-764l15 111h14q126 0 156 28q14 13 20.5 31t34.5 126l238 887q28 104 28 129q0 35 -30.5 45.5t-131.5 10.5h-44l15 111h764l-15 -111h-14q-125 0 -156 -28q-14 -13 -18.5 -26t-36.5 -131h125q144 0 232 -19t149 -63q146 -103 146 -300q0 -173 -105 -289
q-101 -110 -303 -149q-118 -23 -316 -23h-154l-12 -44q-28 -105 -28 -130q0 -34 31 -44.5t131 -10.5h44zM565 451h88q173 0 260 72q58 46 95.5 141t37.5 193q0 118 -63 170q-54 45 -128 45h-22q-63 0 -88 -20.5t-43 -87.5z" />
    <glyph glyph-name="germandbls" unicode="&#xdf;" horiz-adv-x="1175" 
d="M746 840q90 -36 140 -70q153 -106 153 -318q0 -144 -70 -268q-122 -214 -389 -214q-92 0 -175 33l33 110q43 -47 91 -47q86 0 133 148q69 218 69 399q0 131 -67 177q-17 12 -57 25q-51 18 -51 45q0 36 58 36q79 1 110 32q36 37 60 121t24 173t-31.5 141.5t-84.5 52.5
q-71 0 -116 -86.5t-81 -292.5l-119 -690q-57 -329 -175 -716l-337 -50q88 219 128 359t101 442l95 468q58 285 143 431q132 228 373 228q154 0 258 -85q108 -87 108 -238q0 -171 -138 -272q-67 -49 -186 -74z" />
    <glyph glyph-name="agrave" unicode="&#xe0;" horiz-adv-x="1366" 
d="M901 949h323l-202 -680q-20 -79 -20 -93q0 -13 9 -23t20 -10q26 0 90.5 69.5t121.5 159.5l80 -51q-51 -89 -135 -185q-146 -166 -294 -166q-62 0 -109 31.5t-61 82.5q-5 18 -5 66q-59 -77 -109 -112q-99 -67 -224 -67q-159 0 -258 106q-97 103 -97 264q0 226 159 418
q180 220 427 220q181 0 256 -127zM683 867q-125 0 -217 -196q-45 -93 -72.5 -203t-27.5 -192q0 -75 33.5 -118.5t90.5 -43.5q121 0 213 199q46 98 75.5 213t29.5 192q0 67 -34.5 108t-90.5 41zM919 1096h-101l-289 182q-61 38 -61 95q0 44 30.5 72t78.5 28q42 0 69 -17.5
t63 -68.5z" />
    <glyph glyph-name="aacute" unicode="&#xe1;" horiz-adv-x="1366" 
d="M901 949h323l-202 -680q-20 -79 -20 -93q0 -13 9 -23t20 -10q26 0 90.5 69.5t121.5 159.5l80 -51q-51 -89 -135 -185q-146 -166 -294 -166q-62 0 -109 31.5t-61 82.5q-5 18 -5 66q-59 -77 -109 -112q-99 -67 -224 -67q-159 0 -258 106q-97 103 -97 264q0 226 159 418
q180 220 427 220q181 0 256 -127zM683 867q-125 0 -217 -196q-45 -93 -72.5 -203t-27.5 -192q0 -75 33.5 -118.5t90.5 -43.5q121 0 213 199q46 98 75.5 213t29.5 192q0 67 -34.5 108t-90.5 41zM608 1096l254 284q52 58 79 75.5t65 17.5q46 0 78 -31t32 -75q0 -60 -59 -91
l-339 -180h-110z" />
    <glyph glyph-name="acircumflex" unicode="&#xe2;" horiz-adv-x="1366" 
d="M901 949h323l-202 -680q-20 -79 -20 -93q0 -13 9 -23t20 -10q26 0 90.5 69.5t121.5 159.5l80 -51q-51 -89 -135 -185q-146 -166 -294 -166q-62 0 -109 31.5t-61 82.5q-5 18 -5 66q-59 -77 -109 -112q-99 -67 -224 -67q-159 0 -258 106q-97 103 -97 264q0 226 159 418
q180 220 427 220q181 0 256 -127zM683 867q-125 0 -217 -196q-45 -93 -72.5 -203t-27.5 -192q0 -75 33.5 -118.5t90.5 -43.5q121 0 213 199q46 98 75.5 213t29.5 192q0 67 -34.5 108t-90.5 41zM417 1096l322 356h207l171 -356h-120l-185 175l-258 -175h-137z" />
    <glyph glyph-name="atilde" unicode="&#xe3;" horiz-adv-x="1366" 
d="M901 949h323l-202 -680q-20 -79 -20 -93q0 -13 9 -23t20 -10q26 0 90.5 69.5t121.5 159.5l80 -51q-51 -89 -135 -185q-146 -166 -294 -166q-62 0 -109 31.5t-61 82.5q-5 18 -5 66q-59 -77 -109 -112q-99 -67 -224 -67q-159 0 -258 106q-97 103 -97 264q0 226 159 418
q180 220 427 220q181 0 256 -127zM683 867q-125 0 -217 -196q-45 -93 -72.5 -203t-27.5 -192q0 -75 33.5 -118.5t90.5 -43.5q121 0 213 199q46 98 75.5 213t29.5 192q0 67 -34.5 108t-90.5 41zM1089 1399h97q-3 -76 -53 -146q-79 -112 -201 -112q-62 0 -173 43
q-109 42 -149 42q-70 0 -85 -85h-97q7 94 59 160q78 98 196 98q62 0 161 -39q109 -43 143 -43q78 0 102 82z" />
    <glyph glyph-name="adieresis" unicode="&#xe4;" horiz-adv-x="1366" 
d="M901 949h323l-202 -680q-20 -79 -20 -93q0 -13 9 -23t20 -10q26 0 90.5 69.5t121.5 159.5l80 -51q-51 -89 -135 -185q-146 -166 -294 -166q-62 0 -109 31.5t-61 82.5q-5 18 -5 66q-59 -77 -109 -112q-99 -67 -224 -67q-159 0 -258 106q-97 103 -97 264q0 226 159 418
q180 220 427 220q181 0 256 -127zM683 867q-125 0 -217 -196q-45 -93 -72.5 -203t-27.5 -192q0 -75 33.5 -118.5t90.5 -43.5q121 0 213 199q46 98 75.5 213t29.5 192q0 67 -34.5 108t-90.5 41zM566 1403q61 0 103.5 -42.5t42.5 -103.5q0 -62 -43 -104.5t-105 -42.5
q-59 0 -102 43.5t-43 103.5t43 103t104 43zM1006 1403q61 0 103.5 -42.5t42.5 -103.5q0 -62 -43 -104.5t-105 -42.5q-59 0 -102 43.5t-43 103.5t43 103t104 43z" />
    <glyph glyph-name="aring" unicode="&#xe5;" horiz-adv-x="1366" 
d="M901 949h323l-202 -680q-20 -79 -20 -93q0 -13 9 -23t20 -10q26 0 90.5 69.5t121.5 159.5l80 -51q-51 -89 -135 -185q-146 -166 -294 -166q-62 0 -109 31.5t-61 82.5q-5 18 -5 66q-59 -77 -109 -112q-99 -67 -224 -67q-159 0 -258 106q-97 103 -97 264q0 226 159 418
q180 220 427 220q181 0 256 -127zM683 867q-125 0 -217 -196q-45 -93 -72.5 -203t-27.5 -192q0 -75 33.5 -118.5t90.5 -43.5q121 0 213 199q46 98 75.5 213t29.5 192q0 67 -34.5 108t-90.5 41zM802 1526q91 0 156 -65q64 -64 64 -155q0 -92 -64 -156q-65 -65 -159 -65
q-88 0 -153 65q-64 64 -64 156t64 155q66 65 156 65zM802 1416q-45 0 -77.5 -32.5t-32.5 -78.5q0 -44 32.5 -77t76.5 -33q46 0 78.5 32t32.5 79q0 45 -32 77.5t-78 32.5z" />
    <glyph glyph-name="ae" unicode="&#xe6;" horiz-adv-x="1669" 
d="M654 200q-132 -230 -413 -230q-133 0 -208 58q-72 56 -72 155q0 142 150 221q102 53 208.5 79t343.5 57q36 127 36 196q0 60 -39 96q-57 51 -159 51q-46 0 -75 -9.5t-29 -25.5q0 -9 15 -26q45 -54 45 -97q0 -56 -44.5 -93.5t-112.5 -37.5q-77 0 -122 52q-39 44 -39 103
q0 102 98.5 166t256.5 64q133 0 218.5 -32.5t149.5 -108.5q79 66 184 103.5t211 37.5q150 0 248 -83q80 -68 80 -165q0 -211 -347 -312q-137 -40 -305 -49q-6 -58 -6 -91q0 -102 61 -152q45 -37 116 -37q149 0 312 167l70 -70q-190 -217 -472 -217q-294 0 -360 230zM637 438
q-142 -14 -221 -49q-132 -60 -132 -165q0 -47 29.5 -77.5t74.5 -30.5q103 0 178 117q33 51 71 205zM950 466q173 25 270 108q54 45 85 102.5t31 110.5q0 44 -24 70t-65 26q-127 0 -217 -182q-56 -112 -80 -235z" />
    <glyph glyph-name="ccedilla" unicode="&#xe7;" horiz-adv-x="1100" 
d="M408 -29l-71 -95q43 6 68 6q76 0 126 -43.5t50 -109.5q0 -87 -84 -135q-79 -45 -192 -45q-139 0 -223 58l45 73q89 -40 146 -40q45 0 73 21.5t28 55.5q0 32 -24 52.5t-63 20.5q-21 0 -59 -8l-34 35l127 163q-78 15 -133 46q-88 48 -135 132t-47 192q0 174 97 328
q99 156 267 237q132 64 277 64q154 0 251 -68q99 -70 99 -196q0 -86 -48 -138t-127 -52q-72 0 -116.5 41t-44.5 106q0 44 17.5 72t61.5 55q24 15 24 33q0 23 -24 37t-63 14q-131 0 -227 -178q-46 -86 -76 -203.5t-30 -213.5q0 -86 48 -141q46 -52 119 -52q147 0 321 205
l73 -62q-214 -268 -466 -268q-8 0 -31 1z" />
    <glyph glyph-name="egrave" unicode="&#xe8;" horiz-adv-x="1063" 
d="M809 257l71 -70q-190 -216 -466 -216q-211 0 -315 99q-103 97 -103 279q0 179 107 336q107 159 283 238q126 56 258 56q158 0 255 -83q80 -69 80 -165q0 -211 -348 -312q-136 -40 -304 -49q-6 -57 -6 -91q0 -101 61 -151q45 -37 116 -37q79 0 151 38.5t160 127.5z
M344 466q173 25 270 108q54 45 85 102.5t31 110.5q0 44 -24.5 70t-64.5 26q-127 0 -218 -182q-55 -111 -79 -235zM793 1096h-101l-289 182q-61 38 -61 95q0 44 30.5 72t78.5 28q42 0 69 -17.5t64 -68.5z" />
    <glyph glyph-name="eacute" unicode="&#xe9;" horiz-adv-x="1063" 
d="M809 257l71 -70q-190 -216 -466 -216q-211 0 -315 99q-103 97 -103 279q0 179 107 336q107 159 283 238q126 56 258 56q158 0 255 -83q80 -69 80 -165q0 -211 -348 -312q-136 -40 -304 -49q-6 -57 -6 -91q0 -101 61 -151q45 -37 116 -37q79 0 151 38.5t160 127.5z
M344 466q173 25 270 108q54 45 85 102.5t31 110.5q0 44 -24.5 70t-64.5 26q-127 0 -218 -182q-55 -111 -79 -235zM471 1096l255 284q51 58 78 75.5t65 17.5q46 0 78 -31t32 -75q0 -60 -58 -91l-340 -180h-110z" />
    <glyph glyph-name="ecircumflex" unicode="&#xea;" horiz-adv-x="1063" 
d="M809 257l71 -70q-190 -216 -466 -216q-211 0 -315 99q-103 97 -103 279q0 179 107 336q107 159 283 238q126 56 258 56q158 0 255 -83q80 -69 80 -165q0 -211 -348 -312q-136 -40 -304 -49q-6 -57 -6 -91q0 -101 61 -151q45 -37 116 -37q79 0 151 38.5t160 127.5z
M344 466q173 25 270 108q54 45 85 102.5t31 110.5q0 44 -24.5 70t-64.5 26q-127 0 -218 -182q-55 -111 -79 -235zM272 1096l322 356h206l172 -356h-120l-185 175l-259 -175h-136z" />
    <glyph glyph-name="edieresis" unicode="&#xeb;" horiz-adv-x="1063" 
d="M809 257l71 -70q-190 -216 -466 -216q-211 0 -315 99q-103 97 -103 279q0 179 107 336q107 159 283 238q126 56 258 56q158 0 255 -83q80 -68 80 -165q0 -211 -348 -312q-136 -40 -304 -49q-6 -58 -6 -91q0 -101 61 -151q45 -37 115 -37q80 0 151 37.5t161 128.5z
M344 466q173 25 270 108q54 45 85 102.5t31 110.5q0 44 -24.5 70t-64.5 26q-127 0 -218 -182q-55 -111 -79 -235zM428 1403q61 0 103.5 -42.5t42.5 -103.5q0 -62 -43 -104.5t-105 -42.5q-59 0 -102 43.5t-43 103.5t43 103t104 43zM868 1403q61 0 103.5 -42.5t42.5 -103.5
q0 -62 -43 -104.5t-105 -42.5q-59 0 -102 43.5t-43 103.5q0 61 43 103.5t104 42.5z" />
    <glyph glyph-name="igrave" unicode="&#xec;" horiz-adv-x="797" 
d="M639 979l-216 -729q-19 -68 -19 -87q0 -33 32 -33q61 0 207 231l80 -56q-105 -175 -206 -254.5t-219 -79.5q-113 0 -169 69q-43 52 -43 115q0 44 31 150l104 348q32 110 32 137q0 38 -24.5 50.5t-101.5 12.5h-49l14 96zM591 1096h-101l-289 182q-60 38 -60 95
q0 44 30.5 72t78.5 28q41 0 68.5 -17.5t63.5 -68.5z" />
    <glyph glyph-name="iacute" unicode="&#xed;" horiz-adv-x="797" 
d="M639 979l-216 -729q-19 -68 -19 -87q0 -33 32 -33q61 0 207 231l80 -56q-105 -175 -206 -254.5t-219 -79.5q-113 0 -169 69q-43 52 -43 115q0 44 31 150l104 348q32 110 32 137q0 38 -24.5 50.5t-101.5 12.5h-49l14 96zM309 1096l255 284q51 58 78.5 75.5t64.5 17.5
q46 0 78 -31t32 -75q0 -60 -58 -91l-340 -180h-110z" />
    <glyph glyph-name="icircumflex" unicode="&#xee;" horiz-adv-x="797" 
d="M639 979l-216 -729q-19 -68 -19 -87q0 -33 32 -33q61 0 207 231l80 -56q-105 -175 -206 -254.5t-219 -79.5q-113 0 -169 69q-43 52 -43 115q0 44 31 150l104 348q32 110 32 137q0 38 -24.5 50.5t-101.5 12.5h-49l14 96zM84 1096l322 356h207l171 -356h-119l-185 175
l-259 -175h-137z" />
    <glyph glyph-name="idieresis" unicode="&#xef;" horiz-adv-x="797" 
d="M639 979l-216 -729q-19 -68 -19 -87q0 -33 32 -33q61 0 207 231l80 -56q-105 -175 -206 -254.5t-219 -79.5q-113 0 -169 69q-43 52 -43 115q0 44 31 150l104 348q32 110 32 137q0 38 -24.5 50.5t-101.5 12.5h-49l14 96zM254 1403q61 0 103.5 -42.5t42.5 -103.5
q0 -62 -43 -104.5t-105 -42.5q-59 0 -102 43.5t-43 103.5t43 103t104 43zM694 1403q61 0 103.5 -42.5t42.5 -103.5q0 -62 -43 -104.5t-105 -42.5q-59 0 -102 43.5t-43 103.5q0 61 43 103.5t104 42.5z" />
    <glyph glyph-name="eth" unicode="&#xf0;" horiz-adv-x="1175" 
d="M802 962q-16 83 -52 159.5t-110 183.5l-283 -145l-55 104l260 132q-49 59 -163 134l69 67q116 -52 224 -134l292 150l55 -104l-256 -132q97 -109 157 -196q165 -241 165 -547q0 -278 -149 -447q-91 -104 -228 -161q-132 -55 -278 -55q-198 0 -308 104q-57 52 -89.5 135
t-32.5 173q0 166 103 316q98 142 255 217q133 63 278 63q72 0 146 -17zM654 883q-133 0 -225 -224q-40 -98 -66 -222t-26 -218q0 -75 34.5 -117.5t95.5 -42.5q135 0 219 214q43 110 72.5 240.5t29.5 214.5q0 63 -30 104q-38 51 -104 51z" />
    <glyph glyph-name="ntilde" unicode="&#xf1;" horiz-adv-x="1403" 
d="M584 979l-66 -271q80 102 140 154q133 117 280 117q113 0 176 -69q54 -59 54 -141q0 -95 -61 -262l-97 -262q-22 -60 -22 -76q0 -12 9 -22.5t21 -10.5q38 0 124 103q3 3 92 123l81 -52q-116 -179 -218.5 -259.5t-214.5 -80.5q-125 0 -178 79q-31 45 -31 106q0 42 7 71.5
t35 107.5l126 345q19 51 19 73q0 21 -19 37.5t-43 16.5q-76 0 -194 -142q-67 -81 -111.5 -171.5t-86.5 -232.5l-78 -260h-322l194 654q32 108 32 136q0 38 -25 50.5t-101 12.5h-49l14 96zM1070 1399h97q-3 -76 -53 -146q-79 -112 -201 -112q-62 0 -173 43q-109 42 -149 42
q-70 0 -85 -85h-97q7 94 59 160q78 98 196 98q62 0 161 -39q109 -43 143 -43q79 0 102 82z" />
    <glyph glyph-name="ograve" unicode="&#xf2;" horiz-adv-x="1175" 
d="M663 979q199 0 328 -111q114 -98 114 -285q0 -200 -120 -361q-97 -130 -256 -196q-132 -55 -279 -55q-197 0 -308 104q-56 52 -89 135t-33 173q0 165 103 317q96 140 255 216q132 63 285 63zM655 883q-133 0 -225 -224q-40 -98 -66 -222t-26 -216q0 -77 34 -119.5
t96 -42.5q134 0 218 214q43 108 72.5 239t29.5 213q0 66 -30 107q-37 51 -103 51zM828 1096h-101l-289 182q-61 38 -61 95q0 44 30.5 72t78.5 28q42 0 69.5 -17.5t63.5 -68.5z" />
    <glyph glyph-name="oacute" unicode="&#xf3;" horiz-adv-x="1175" 
d="M663 979q199 0 328 -111q114 -98 114 -285q0 -200 -120 -361q-97 -130 -256 -196q-132 -55 -279 -55q-197 0 -308 104q-56 52 -89 135t-33 173q0 165 103 317q96 140 255 216q132 63 285 63zM655 883q-133 0 -225 -224q-40 -98 -66 -222t-26 -216q0 -77 34 -119.5
t96 -42.5q134 0 218 214q43 108 72.5 239t29.5 213q0 66 -30 107q-37 51 -103 51zM560 1096l254 284q52 58 79 75.5t65 17.5q46 0 78 -31t32 -75q0 -60 -59 -91l-339 -180h-110z" />
    <glyph glyph-name="ocircumflex" unicode="&#xf4;" horiz-adv-x="1175" 
d="M663 979q199 0 328 -111q114 -98 114 -285q0 -200 -120 -361q-97 -130 -256 -196q-132 -55 -279 -55q-197 0 -308 104q-56 52 -89 135t-33 173q0 165 103 317q96 140 255 216q132 63 285 63zM655 883q-133 0 -225 -224q-40 -98 -66 -222t-26 -216q0 -77 34 -119.5
t96 -42.5q134 0 218 214q43 108 72.5 239t29.5 213q0 66 -30 107q-37 51 -103 51zM349 1096l322 356h207l172 -356h-120l-185 175l-259 -175h-137z" />
    <glyph glyph-name="otilde" unicode="&#xf5;" horiz-adv-x="1175" 
d="M663 979q199 0 328 -111q114 -98 114 -285q0 -200 -120 -361q-97 -130 -256 -196q-132 -55 -279 -55q-197 0 -308 104q-56 52 -89 135t-33 173q0 165 103 317q96 140 255 216q132 63 285 63zM655 883q-133 0 -225 -224q-40 -98 -66 -222t-26 -216q0 -77 34 -119.5
t96 -42.5q134 0 218 214q43 108 72.5 239t29.5 213q0 66 -30 107q-37 51 -103 51zM1004 1399h97q-3 -76 -53 -146q-79 -112 -201 -112q-63 0 -173 43q-109 42 -149 42q-70 0 -85 -85h-97q7 94 59 160q78 98 196 98q61 0 161 -39q109 -43 143 -43q78 0 102 82z" />
    <glyph glyph-name="odieresis" unicode="&#xf6;" horiz-adv-x="1175" 
d="M663 979q199 0 328 -111q114 -98 114 -285q0 -200 -120 -361q-97 -130 -256 -196q-132 -55 -279 -55q-197 0 -308 104q-56 52 -89 135t-33 173q0 165 103 317q96 140 255 216q132 63 285 63zM655 883q-133 0 -225 -224q-40 -98 -66 -222t-26 -216q0 -77 34 -119.5
t96 -42.5q134 0 218 214q43 108 72.5 239t29.5 213q0 66 -30 107q-37 51 -103 51zM497 1403q61 0 103.5 -42.5t42.5 -103.5q0 -62 -43 -104.5t-105 -42.5q-60 0 -102.5 43.5t-42.5 103.5t43 103t104 43zM937 1403q61 0 103.5 -42.5t42.5 -103.5q0 -62 -43 -104.5t-105 -42.5
q-59 0 -102 43.5t-43 103.5t43 103t104 43z" />
    <glyph glyph-name="divide" unicode="&#xf7;" horiz-adv-x="1241" 
d="M602 278q73 0 124 -57q44 -48 44 -113q0 -76 -56 -127q-49 -44 -114 -44q-77 0 -127 56q-44 49 -44 116q0 70 50.5 119.5t122.5 49.5zM602 1097q73 0 124 -57q44 -48 44 -113q0 -77 -56 -127q-49 -44 -114 -44q-76 0 -127 56q-44 49 -44 116q0 70 50.5 119.5t122.5 49.5z
M84 399v236h1032v-236h-1032z" />
    <glyph glyph-name="oslash" unicode="&#xf8;" horiz-adv-x="1175" 
d="M793 963l126 221h111l-143 -250q218 -97 218 -350q0 -201 -120 -362q-97 -130 -256 -196q-132 -55 -277 -55q-56 0 -111 9l-137 -238h-110l152 266q-51 22 -87 51q-64 53 -101.5 139.5t-37.5 184.5q0 166 103 316q98 142 255 217q132 63 274 63q65 0 141 -16zM733 857
q-38 26 -81 26q-130 0 -222 -224q-40 -97 -66 -221.5t-26 -216.5q0 -20 4 -45zM786 757l-389 -679q30 -19 70 -19q135 0 219 214q43 106 72.5 238t29.5 211q0 13 -2 35z" />
    <glyph glyph-name="ugrave" unicode="&#xf9;" horiz-adv-x="1403" 
d="M1222 949l-189 -638q-34 -114 -34 -137q0 -29 28 -29q31 0 92 72q63 74 113 151l77 -57q-122 -187 -220 -263.5t-216 -76.5q-198 0 -198 174q0 19 2 54q-65 -81 -121 -127q-121 -101 -253 -101q-107 0 -170 68q-55 59 -55 156q0 68 42 210l74 248q32 110 32 137
q0 38 -24.5 50.5t-101.5 12.5h-20l13 96l519 30l-184 -624q-43 -143 -43 -161q0 -19 15.5 -34.5t34.5 -15.5q42 0 107 52t120 130q90 126 138 286l100 337h322zM922 1096h-101l-289 182q-61 38 -61 95q0 44 30.5 72t78.5 28q42 0 69 -17.5t64 -68.5z" />
    <glyph glyph-name="uacute" unicode="&#xfa;" horiz-adv-x="1403" 
d="M1222 949l-189 -638q-34 -114 -34 -137q0 -29 28 -29q31 0 92 72q63 74 113 151l77 -57q-122 -187 -220 -263.5t-216 -76.5q-198 0 -198 174q0 19 2 54q-65 -81 -121 -127q-121 -101 -253 -101q-107 0 -170 68q-55 59 -55 156q0 68 42 210l74 248q32 110 32 137
q0 38 -24.5 50.5t-101.5 12.5h-20l13 96l519 30l-184 -624q-43 -143 -43 -161q0 -19 15.5 -34.5t34.5 -15.5q42 0 107 52t120 130q90 126 138 286l100 337h322zM626 1096l255 284q51 58 78.5 75.5t64.5 17.5q46 0 78 -31t32 -75q0 -60 -58 -91l-340 -180h-110z" />
    <glyph glyph-name="ucircumflex" unicode="&#xfb;" horiz-adv-x="1403" 
d="M1222 949l-189 -638q-34 -114 -34 -137q0 -29 28 -29q31 0 92 72q63 74 113 151l77 -57q-122 -187 -220 -263.5t-216 -76.5q-198 0 -198 174q0 19 2 54q-65 -81 -121 -127q-121 -101 -253 -101q-107 0 -170 68q-55 59 -55 156q0 68 42 210l74 248q32 110 32 137
q0 38 -24.5 50.5t-101.5 12.5h-20l13 96l519 30l-184 -624q-43 -143 -43 -161q0 -19 15.5 -34.5t34.5 -15.5q42 0 107 52t120 130q90 126 138 286l100 337h322zM408 1096l322 356h206l172 -356h-120l-185 175l-259 -175h-136z" />
    <glyph glyph-name="udieresis" unicode="&#xfc;" horiz-adv-x="1403" 
d="M1222 949l-189 -638q-34 -114 -34 -137q0 -29 28 -29q31 0 92 72q63 74 113 151l77 -57q-122 -187 -220 -263.5t-216 -76.5q-198 0 -198 174q0 19 2 54q-65 -81 -121 -127q-121 -101 -253 -101q-107 0 -170 68q-55 59 -55 156q0 68 42 210l74 248q32 110 32 137
q0 38 -24.5 50.5t-101.5 12.5h-20l13 96l519 30l-184 -624q-43 -143 -43 -161q0 -19 15.5 -34.5t34.5 -15.5q42 0 107 52t120 130q90 126 138 286l100 337h322zM577 1403q61 0 103.5 -42.5t42.5 -103.5q0 -62 -43 -104.5t-105 -42.5q-59 0 -102 43.5t-43 103.5
q0 61 43 103.5t104 42.5zM1018 1403q61 0 103.5 -42.5t42.5 -103.5q0 -62 -43 -104.5t-105 -42.5q-59 0 -102 43.5t-43 103.5q0 61 43 103.5t104 42.5z" />
    <glyph glyph-name="yacute" unicode="&#xfd;" horiz-adv-x="1063" 
d="M667 291q138 232 138 324q0 30 -7 49.5t-33 58.5q-42 64 -42 121q0 59 41 97t105 38t101.5 -34t37.5 -93q0 -115 -141 -398q-175 -349 -383 -612q-125 -157 -218 -209q-83 -47 -183 -47q-121 0 -176 69q-42 51 -42 117t40.5 107.5t104.5 41.5q62 0 101.5 -36.5
t39.5 -93.5q0 -21 -12 -57q-2 -8 -2 -13q0 -20 27 -20q40 0 106 52.5t120 127.5l59 82l-205 691q-18 58 -29 75.5t-31 17.5q-27 0 -46.5 -39.5t-62.5 -180.5l-89 27q98 425 331 425q112 0 160 -96q42 -82 77 -203zM443 1096l254 284q51 58 78.5 75.5t64.5 17.5q46 0 78 -31
t32 -75q0 -60 -58 -91l-340 -180h-109z" />
    <glyph glyph-name="thorn" unicode="&#xfe;" horiz-adv-x="1327" 
d="M778 1510l-187 -634q128 103 265 103q157 0 255 -101q97 -100 97 -269q0 -254 -184 -449q-178 -190 -405 -190q-92 0 -153.5 31.5t-103.5 100.5l-70 -235q-32 -108 -32 -132q0 -28 27.5 -40.5t89.5 -12.5h30l-13 -96h-636l14 96h8q100 0 130 28q14 13 21 31t39 126
l391 1322q31 104 31 132q0 38 -24.5 50.5t-101.5 12.5h-49l14 96zM749 837q-111 0 -198 -152q-48 -83 -89 -223.5t-41 -220.5q0 -64 41 -108t101 -44q114 0 197 161q52 101 86 225.5t34 211.5q0 64 -31 104q-36 46 -100 46z" />
    <glyph glyph-name="ydieresis" unicode="&#xff;" horiz-adv-x="1063" 
d="M667 291q138 232 138 324q0 30 -7 49.5t-33 58.5q-42 64 -42 121q0 59 41 97t105 38t101.5 -34t37.5 -93q0 -115 -141 -398q-175 -349 -383 -612q-125 -157 -218 -209q-83 -47 -183 -47q-121 0 -176 69q-42 51 -42 117t40.5 107.5t104.5 41.5q62 0 101.5 -36.5
t39.5 -93.5q0 -21 -12 -57q-2 -8 -2 -13q0 -20 27 -20q40 0 106 52.5t120 127.5l59 82l-205 691q-18 58 -29 75.5t-31 17.5q-27 0 -46.5 -39.5t-62.5 -180.5l-89 27q98 425 331 425q112 0 160 -96q42 -82 77 -203zM407 1403q61 0 103.5 -42.5t42.5 -103.5q0 -62 -43 -104.5
t-105 -42.5q-59 0 -102 43.5t-43 103.5q0 61 43 103.5t104 42.5zM847 1403q62 0 104.5 -42.5t42.5 -103.5q0 -62 -43 -104.5t-105 -42.5q-60 0 -102.5 43t-42.5 104t42.5 103.5t103.5 42.5z" />
    <glyph glyph-name="Amacron" unicode="&#x100;" horiz-adv-x="1517" 
d="M985 1508l268 -1273q17 -83 64 -106q38 -18 121 -18h28l-15 -111h-765l15 111h32q102 0 136 16q35 15 35 48q0 15 -10 65l-41 211h-474l-95 -165q-29 -51 -29 -90q0 -85 167 -85h26l-15 -111h-587l15 111h11q69 0 141.5 56t131.5 154l713 1187h127zM828 562l-96 492
l-287 -492h383zM650 1832h683l-44 -164h-683z" />
    <glyph glyph-name="amacron" unicode="&#x101;" horiz-adv-x="1366" 
d="M901 949h323l-202 -680q-20 -79 -20 -93q0 -13 9 -23t20 -10q26 0 90.5 69.5t121.5 159.5l80 -51q-51 -89 -135 -185q-146 -166 -294 -166q-62 0 -109 31.5t-61 82.5q-5 18 -5 66q-59 -77 -109 -112q-99 -67 -224 -67q-159 0 -258 106q-97 103 -97 264q0 226 159 418
q180 220 427 220q181 0 256 -127zM683 867q-125 0 -217 -196q-45 -93 -72.5 -203t-27.5 -192q0 -75 33.5 -118.5t90.5 -43.5q121 0 213 199q46 98 75.5 213t29.5 192q0 67 -34.5 108t-90.5 41zM452 1315h683l-44 -156h-683z" />
    <glyph glyph-name="Abreve" unicode="&#x102;" horiz-adv-x="1517" 
d="M985 1508l268 -1273q17 -83 64 -106q38 -18 121 -18h28l-15 -111h-765l15 111h32q102 0 136 16q35 15 35 48q0 15 -10 65l-41 211h-474l-95 -165q-29 -51 -29 -90q0 -85 167 -85h26l-15 -111h-587l15 111h11q69 0 141.5 56t131.5 154l713 1187h127zM828 562l-96 492
l-287 -492h383zM638 1928h102q6 -80 44 -121q49 -54 159 -54q127 0 202 77q46 48 59 98h94q-10 -116 -87 -209q-105 -127 -290 -127q-142 0 -215 75q-71 73 -71 207q0 23 3 54z" />
    <glyph glyph-name="abreve" unicode="&#x103;" horiz-adv-x="1366" 
d="M901 949h323l-202 -680q-20 -79 -20 -93q0 -13 9 -23t20 -10q26 0 90.5 69.5t121.5 159.5l80 -51q-51 -89 -135 -185q-146 -166 -294 -166q-62 0 -109 31.5t-61 82.5q-5 18 -5 66q-59 -77 -109 -112q-99 -67 -224 -67q-159 0 -258 106q-97 103 -97 264q0 226 159 418
q180 220 427 220q181 0 256 -127zM683 867q-125 0 -217 -196q-45 -93 -72.5 -203t-27.5 -192q0 -75 33.5 -118.5t90.5 -43.5q121 0 213 199q46 98 75.5 213t29.5 192q0 67 -34.5 108t-90.5 41zM483 1436h95q6 -80 44 -121q49 -54 162 -54q127 0 201 77q46 48 59 98h97
q-8 -114 -87 -209q-105 -127 -289 -127q-143 0 -214 75q-71 74 -71 202q0 21 3 59z" />
    <glyph glyph-name="Aogonek" unicode="&#x104;" horiz-adv-x="1517" 
d="M1466 111l-15 -111q-65 -62 -65 -128q0 -33 17 -53t45 -20q42 0 101 47l37 -63q-92 -137 -205 -137q-68 0 -112 46q-45 48 -45 122q0 106 90 186h-628l15 111h32q102 0 136 16q35 15 35 48q0 15 -10 65l-41 211h-474l-95 -165q-29 -51 -29 -90q0 -85 167 -85h26l-15 -111
h-587l15 111h11q69 0 141.5 56t131.5 154l713 1187h127l268 -1273q17 -83 64 -106q38 -18 121 -18h28zM828 562l-96 492l-287 -492h383z" />
    <glyph glyph-name="aogonek" unicode="&#x105;" horiz-adv-x="1366" 
d="M1243 372l80 -51q-11 -19 -110 -160q-120 -177 -140 -213.5t-20 -78.5q0 -30 17.5 -50t43.5 -20q43 0 102 47l38 -63q-92 -137 -206 -137q-68 0 -112 46q-45 48 -45 122q0 88 67 164q-36 -8 -62 -8q-63 0 -110.5 31t-61.5 83q-5 18 -5 66q-59 -77 -109 -112
q-99 -67 -224 -67q-159 0 -258 106q-97 103 -97 264q0 226 159 418q180 220 427 220q181 0 256 -127l28 97h323l-202 -680q-20 -79 -20 -93q0 -13 9 -23t20 -10q26 0 90.5 69.5t121.5 159.5zM683 867q-125 0 -217 -196q-45 -93 -72.5 -203t-27.5 -192q0 -75 33.5 -118.5
t90.5 -43.5q121 0 213 199q46 98 75.5 213t29.5 192q0 67 -34.5 108t-90.5 41z" />
    <glyph glyph-name="Cacute" unicode="&#x106;" horiz-adv-x="1554" 
d="M1555 1458l-118 -586l-101 13q-5 173 -47 295q-75 220 -291 220q-146 0 -260 -114q-113 -113 -195 -348q-82 -233 -82 -452q0 -171 82 -271q45 -55 115 -86q74 -32 155 -32q200 0 352 176q64 74 98 161h128q-50 -160 -180 -291q-173 -174 -457 -174q-201 0 -372 86
q-176 89 -254 266q-56 127 -56 277q0 242 135 468q135 227 369 347q189 97 392 97q237 0 378 -170l114 118h95zM852 1584l255 285q52 58 78.5 75.5t64.5 17.5q46 0 78 -31t32 -75q0 -60 -58 -91l-340 -181h-110z" />
    <glyph glyph-name="cacute" unicode="&#x107;" horiz-adv-x="1100" 
d="M832 300l73 -62q-111 -139 -225.5 -203t-249.5 -64q-182 0 -294 90q-130 105 -130 289q0 175 97 328q99 157 267 237q132 64 277 64q154 0 251 -68q99 -70 99 -196q0 -86 -48 -138t-127 -52q-72 0 -116.5 41t-44.5 106q0 44 17.5 72t61.5 55q24 15 24 33q0 23 -24 37
t-63 14q-131 0 -227 -178q-46 -86 -76 -203t-30 -213q0 -86 48 -141q46 -52 119 -52q147 0 321 204zM461 1096l254 284q52 58 79 75.5t65 17.5q46 0 78 -31t32 -75q0 -60 -59 -91l-339 -180h-110z" />
    <glyph glyph-name="Ccircumflex" unicode="&#x108;" horiz-adv-x="1554" 
d="M1555 1458l-118 -586l-101 13q-5 173 -47 295q-75 220 -291 220q-146 0 -260 -114q-113 -113 -195 -348q-82 -233 -82 -452q0 -171 82 -271q45 -55 115 -86q74 -32 155 -32q200 0 352 176q64 74 98 161h128q-50 -160 -180 -291q-173 -174 -457 -174q-201 0 -372 86
q-176 89 -254 266q-56 127 -56 277q0 242 135 468q135 227 369 347q189 97 392 97q237 0 378 -170l114 118h95zM586 1585l322 361h207l172 -361h-120l-185 180l-259 -180h-137z" />
    <glyph glyph-name="ccircumflex" unicode="&#x109;" horiz-adv-x="1100" 
d="M832 300l73 -62q-111 -139 -225.5 -203t-249.5 -64q-182 0 -294 90q-130 105 -130 289q0 175 97 328q99 157 267 237q132 64 277 64q154 0 251 -68q99 -70 99 -196q0 -86 -48 -138t-127 -52q-72 0 -116.5 41t-44.5 106q0 44 17.5 72t61.5 55q24 15 24 33q0 23 -24 37
t-63 14q-131 0 -227 -178q-46 -86 -76 -203t-30 -213q0 -86 48 -141q46 -52 119 -52q147 0 321 204zM251 1096l321 356h207l172 -356h-120l-185 175l-259 -175h-136z" />
    <glyph glyph-name="Cdotaccent" unicode="&#x10a;" horiz-adv-x="1554" 
d="M1555 1458l-118 -586l-101 13q-5 173 -47 295q-75 220 -291 220q-146 0 -260 -114q-113 -113 -195 -348q-82 -233 -82 -452q0 -171 82 -271q45 -55 115 -86q74 -32 155 -32q200 0 352 176q64 74 98 161h128q-50 -160 -180 -291q-173 -174 -457 -174q-201 0 -372 86
q-176 89 -254 266q-56 127 -56 277q0 242 135 468q135 227 369 347q189 97 392 97q237 0 378 -170l114 118h95zM991 1911q60 0 103 -42.5t43 -103.5q0 -62 -43 -104.5t-105 -42.5q-60 0 -102.5 43.5t-42.5 103.5t43 103t104 43z" />
    <glyph glyph-name="cdotaccent" unicode="&#x10b;" horiz-adv-x="1100" 
d="M832 300l73 -62q-111 -139 -225.5 -203t-249.5 -64q-182 0 -294 90q-130 105 -130 289q0 175 97 328q99 157 267 237q132 64 277 64q154 0 251 -68q99 -70 99 -196q0 -86 -48 -138t-127 -52q-72 0 -116.5 41t-44.5 106q0 44 17.5 72t61.5 55q24 15 24 33q0 23 -24 37
t-63 14q-131 0 -227 -178q-46 -86 -76 -203t-30 -213q0 -86 48 -141q46 -52 119 -52q147 0 321 204zM735 1403q61 0 103.5 -42.5t42.5 -103.5q0 -62 -43 -104.5t-105 -42.5q-59 0 -102 43.5t-43 103.5t43 103t104 43z" />
    <glyph glyph-name="Ccaron" unicode="&#x10c;" horiz-adv-x="1554" 
d="M1555 1458l-118 -586l-101 13q-5 173 -47 295q-75 220 -291 220q-146 0 -260 -114q-113 -113 -195 -348q-82 -233 -82 -452q0 -171 82 -271q45 -55 115 -86q74 -32 155 -32q200 0 352 176q64 74 98 161h128q-50 -160 -180 -291q-173 -174 -457 -174q-201 0 -372 86
q-176 89 -254 266q-56 127 -56 277q0 242 135 468q135 227 369 347q189 97 392 97q237 0 378 -170l114 118h95zM1426 1946l-322 -361h-209l-172 361h120l185 -180l259 180h139z" />
    <glyph glyph-name="ccaron" unicode="&#x10d;" horiz-adv-x="1100" 
d="M832 300l73 -62q-111 -139 -225.5 -203t-249.5 -64q-182 0 -294 90q-130 105 -130 289q0 175 97 328q99 157 267 237q132 64 277 64q154 0 251 -68q99 -70 99 -196q0 -86 -48 -138t-127 -52q-72 0 -116.5 41t-44.5 106q0 44 17.5 72t61.5 55q24 15 24 33q0 23 -24 37
t-63 14q-131 0 -227 -178q-46 -86 -76 -203t-30 -213q0 -86 48 -141q46 -52 119 -52q147 0 321 204zM1055 1456l-322 -360h-209l-172 360h120l185 -179l259 179h139z" />
    <glyph glyph-name="Dcaron" unicode="&#x10e;" horiz-adv-x="1706" 
d="M-100 0l15 111h8q126 0 156 28q14 13 20.5 31t35.5 126l237 887q28 103 28 129q0 35 -30.5 45.5t-131.5 10.5h-38l15 111h734q211 0 326 -41q189 -67 279 -221q77 -132 77 -321q0 -244 -115 -454q-142 -258 -415 -368q-185 -74 -516 -74h-685zM576 111h59q270 0 419 222
q80 117 136 308q60 201 60 386q0 159 -69 244q-79 97 -237 97h-45q-71 0 -100.5 -25.5t-50.5 -103.5l-262 -979q-18 -76 -18 -95q0 -29 25 -41.5t83 -12.5zM1338 1946l-322 -361h-209l-172 361h120l185 -180l259 180h139z" />
    <glyph glyph-name="dcaron" unicode="&#x10f;" horiz-adv-x="1599" 
d="M1359 1509l-367 -1240q-21 -79 -21 -93q0 -13 9 -23t21 -10q27 0 91.5 69t122.5 160l80 -51q-50 -88 -135 -185q-146 -166 -295 -166q-81 0 -129 44t-48 117q0 3 1 14q-64 -74 -110 -106q-97 -68 -222 -68q-160 0 -259 106q-97 103 -97 264q0 226 159 418q80 99 188 158
q111 62 238 62q182 0 256 -127l98 331q32 107 32 136q0 39 -24.5 51.5t-101.5 12.5h-65l14 96zM653 867q-125 0 -217 -196q-45 -93 -72.5 -203t-27.5 -192q0 -75 33 -118.5t90 -43.5q122 0 214 199q45 98 75 213t30 192q0 66 -35 107.5t-90 41.5zM1295 917q253 114 253 254
q-28 -6 -52 -6q-67 0 -104.5 38.5t-37.5 107.5q0 75 48.5 122t125.5 47q86 0 139.5 -59t53.5 -154q0 -144 -116 -260q-95 -97 -272 -164z" />
    <glyph glyph-name="Dcroat" unicode="&#x110;" horiz-adv-x="1706" 
d="M238 694h-190l34 129h190l100 360q28 100 28 130q0 34 -30.5 44.5t-131.5 10.5h-38l15 111h734q212 0 326 -41q189 -67 279 -221q77 -132 77 -321q0 -244 -115 -454q-142 -258 -415 -368q-185 -74 -516 -74h-685l15 111h8q126 0 156 28q14 13 20.5 31t35.5 126zM599 694
l-113 -434q-18 -76 -18 -94q0 -30 25 -42.5t83 -12.5h59q270 0 420 222q79 117 135 308q60 201 60 386q0 159 -69 244q-79 97 -237 97h-45q-71 0 -100 -25t-51 -104l-115 -416h309l-34 -129h-309z" />
    <glyph glyph-name="dcroat" unicode="&#x111;" horiz-adv-x="1366" 
d="M1280 1245h143l-37 -129h-144l-251 -847q-21 -79 -21 -93q0 -13 9 -23t21 -10q27 0 91.5 69t122.5 160l80 -51q-50 -88 -135 -185q-146 -166 -295 -166q-81 0 -129 44t-48 117q0 3 1 14q-64 -74 -110 -106q-97 -68 -222 -68q-160 0 -259 106q-97 103 -97 264
q0 226 159 418q180 220 426 220q182 0 256 -127l78 264h-255l37 129h256q14 54 14 74q0 39 -24.5 51.5t-101.5 12.5h-65l14 96l564 30zM652 867q-125 0 -217 -196q-45 -93 -72.5 -203t-27.5 -192q0 -75 33 -118.5t90 -43.5q122 0 214 199q45 98 75 213t30 192
q0 66 -35 107.5t-90 41.5z" />
    <glyph glyph-name="Emacron" unicode="&#x112;" horiz-adv-x="1517" 
d="M1491 1479l-82 -501h-106q-3 178 -43 260q-63 130 -281 130h-77q-65 0 -89 -18.5t-41 -79.5l-120 -449h41q169 0 252 94q50 57 89 157l108 -14l-184 -688l-108 15q11 77 11 128q0 197 -194 197h-45l-129 -482q-11 -41 -11 -66q0 -51 110 -51h74q135 0 240 52
q106 51 201.5 150.5t153.5 217.5l108 -24l-136 -507h-1317l15 111h8q126 0 156 28q14 13 20.5 31t34.5 126l238 887q28 104 28 130q0 34 -30.5 44.5t-131.5 10.5h-38l15 111h1260zM609 1832h683l-44 -164h-683z" />
    <glyph glyph-name="emacron" unicode="&#x113;" horiz-adv-x="1063" 
d="M809 257l71 -70q-190 -216 -466 -216q-211 0 -315 99q-103 97 -103 279q0 179 107 336q107 159 283 238q126 56 258 56q158 0 255 -83q80 -69 80 -165q0 -211 -348 -312q-136 -40 -304 -49q-6 -57 -6 -91q0 -101 61 -151q45 -37 116 -37q79 0 151 38.5t160 127.5z
M344 466q173 25 270 108q54 45 85 102.5t31 110.5q0 44 -24.5 70t-64.5 26q-127 0 -218 -182q-55 -111 -79 -235zM300 1315h683l-44 -156h-683z" />
    <glyph glyph-name="Ebreve" unicode="&#x114;" horiz-adv-x="1517" 
d="M1491 1479l-82 -501h-106q-3 178 -43 260q-63 130 -281 130h-77q-65 0 -89 -18.5t-41 -79.5l-120 -449h41q169 0 252 94q50 57 89 157l108 -14l-184 -688l-108 15q11 77 11 128q0 197 -194 197h-45l-129 -482q-11 -41 -11 -66q0 -51 110 -51h74q135 0 240 52
q106 51 201.5 150.5t153.5 217.5l108 -24l-136 -507h-1317l15 111h8q126 0 156 28q14 13 20.5 31t34.5 126l238 887q28 104 28 130q0 34 -30.5 44.5t-131.5 10.5h-38l15 111h1260zM616 1928h101q7 -80 44 -121q49 -54 160 -54q127 0 201 77q47 48 60 98h94q-9 -114 -88 -209
q-105 -127 -289 -127q-142 0 -215 75q-71 73 -71 207q0 21 3 54z" />
    <glyph glyph-name="ebreve" unicode="&#x115;" horiz-adv-x="1063" 
d="M809 257l71 -70q-190 -216 -466 -216q-211 0 -315 99q-103 97 -103 279q0 179 107 336q107 159 283 238q126 56 258 56q158 0 255 -83q80 -69 80 -165q0 -211 -348 -312q-136 -40 -304 -49q-6 -57 -6 -91q0 -101 61 -151q45 -37 116 -37q79 0 151 38.5t160 127.5z
M344 466q173 25 270 108q54 45 85 102.5t31 110.5q0 44 -24.5 70t-64.5 26q-127 0 -218 -182q-55 -111 -79 -235zM365 1436h95q7 -80 44 -121q49 -54 162 -54q127 0 202 77q46 48 59 98h96q-8 -114 -87 -209q-104 -127 -289 -127q-141 0 -214 75q-71 73 -71 200q0 21 3 61z
" />
    <glyph glyph-name="Edotaccent" unicode="&#x116;" horiz-adv-x="1517" 
d="M1491 1479l-82 -501h-106q-3 178 -43 260q-63 130 -281 130h-77q-65 0 -89 -18.5t-41 -79.5l-120 -449h41q169 0 252 94q50 57 89 157l108 -14l-184 -688l-108 15q11 77 11 128q0 197 -194 197h-45l-129 -482q-11 -41 -11 -66q0 -51 110 -51h74q135 0 240 52
q106 51 201.5 150.5t153.5 217.5l108 -24l-136 -507h-1317l15 111h8q126 0 156 28q14 13 20.5 31t34.5 126l238 887q28 104 28 130q0 34 -30.5 44.5t-131.5 10.5h-38l15 111h1260zM964 1911q60 0 103 -42.5t43 -103.5q0 -62 -43 -104.5t-105 -42.5q-60 0 -102.5 43
t-42.5 104q0 60 43 103t104 43z" />
    <glyph glyph-name="edotaccent" unicode="&#x117;" horiz-adv-x="1063" 
d="M809 257l71 -70q-190 -216 -466 -216q-211 0 -315 99q-103 97 -103 279q0 179 107 336q107 159 283 238q126 56 258 56q158 0 255 -83q80 -69 80 -165q0 -211 -348 -312q-136 -40 -304 -49q-6 -57 -6 -91q0 -101 61 -151q45 -37 116 -37q79 0 151 38.5t160 127.5z
M344 466q173 25 270 108q54 45 85 102.5t31 110.5q0 44 -24.5 70t-64.5 26q-127 0 -218 -182q-55 -111 -79 -235zM696 1403q61 0 103.5 -42.5t42.5 -103.5q0 -62 -43 -104.5t-105 -42.5q-59 0 -102 43.5t-43 103.5t43 103t104 43z" />
    <glyph glyph-name="Eogonek" unicode="&#x118;" horiz-adv-x="1517" 
d="M1369 507l-136 -507q-65 -61 -65 -128q0 -33 17 -53t45 -20q42 0 101 47l37 -63q-91 -137 -205 -137q-68 0 -112 46q-45 48 -45 122q0 105 90 186h-1180l15 111h8q126 0 156 28q14 13 20.5 31t34.5 126l238 887q28 104 28 130q0 34 -30.5 44.5t-131.5 10.5h-38l15 111
h1260l-82 -501h-106q-3 178 -43 260q-63 130 -281 130h-77q-65 0 -89 -18.5t-41 -79.5l-120 -449h41q169 0 252 94q50 57 89 157l108 -14l-184 -688l-108 15q11 77 11 128q0 197 -194 197h-45l-129 -482q-11 -41 -11 -66q0 -51 110 -51h74q135 0 240 52q106 51 201.5 150.5
t153.5 217.5z" />
    <glyph glyph-name="eogonek" unicode="&#x119;" horiz-adv-x="1063" 
d="M809 257l71 -70q-21 -25 -24.5 -27.5t-118.5 -96.5q-47 -39 -78 -94t-31 -101q0 -29 17.5 -49t43.5 -20q44 0 103 47l37 -63q-92 -137 -206 -137q-68 0 -112 46q-45 48 -45 122q0 90 70 167q-63 -10 -122 -10q-211 0 -315 99q-103 97 -103 279q0 179 107 336
q107 159 283 238q126 56 258 56q158 0 255 -83q80 -69 80 -165q0 -211 -348 -312q-136 -40 -304 -49q-6 -57 -6 -91q0 -101 61 -151q45 -37 116 -37q79 0 151 38.5t160 127.5zM344 466q173 25 270 108q54 45 85 102.5t31 110.5q0 44 -24.5 70t-64.5 26q-127 0 -218 -182
q-55 -111 -79 -235z" />
    <glyph glyph-name="Ecaron" unicode="&#x11a;" horiz-adv-x="1517" 
d="M1491 1479l-82 -501h-106q-3 178 -43 260q-63 130 -281 130h-77q-65 0 -89 -18.5t-41 -79.5l-120 -449h41q169 0 252 94q50 57 89 157l108 -14l-184 -688l-108 15q11 77 11 128q0 197 -194 197h-45l-129 -482q-11 -41 -11 -66q0 -51 110 -51h74q135 0 240 52
q106 51 201.5 150.5t153.5 217.5l108 -24l-136 -507h-1317l15 111h8q126 0 156 28q14 13 20.5 31t34.5 126l238 887q28 104 28 130q0 34 -30.5 44.5t-131.5 10.5h-38l15 111h1260zM1346 1946l-322 -361h-209l-172 361h120l185 -180l259 180h139z" />
    <glyph glyph-name="ecaron" unicode="&#x11b;" horiz-adv-x="1063" 
d="M809 257l71 -70q-190 -216 -466 -216q-211 0 -315 99q-103 97 -103 279q0 179 107 336q107 159 283 238q126 56 258 56q158 0 255 -83q80 -69 80 -165q0 -211 -348 -312q-136 -40 -304 -49q-6 -57 -6 -91q0 -101 61 -151q45 -37 116 -37q79 0 151 38.5t160 127.5z
M344 466q173 25 270 108q54 45 85 102.5t31 110.5q0 44 -24.5 70t-64.5 26q-127 0 -218 -182q-55 -111 -79 -235zM1016 1456l-322 -360h-209l-172 360h120l185 -179l259 179h139z" />
    <glyph glyph-name="Gcircumflex" unicode="&#x11c;" horiz-adv-x="1669" 
d="M1587 1464l-115 -579l-106 14q-3 155 -47 281q-77 218 -298 218q-245 0 -411 -311q-69 -130 -112.5 -302.5t-43.5 -315.5q0 -157 54 -258q32 -60 97 -97t138 -37q98 0 174.5 62.5t114.5 172.5q17 47 33 117t16 93q0 35 -29 45t-129 10h-57l15 111h762l-15 -111h-19
q-126 0 -156 -28q-14 -13 -20 -29.5t-35 -127.5l-114 -421h-97l-40 195q-163 -196 -436 -196q-222 0 -406 121q-111 74 -173 204q-62 131 -62 286q0 247 135 473q137 230 377 354q198 102 412 102q127 0 212.5 -37t166.5 -127l122 118h92zM639 1585l321 361h207l172 -361
h-120l-185 180l-259 -180h-136z" />
    <glyph glyph-name="gcircumflex" unicode="&#x11d;" horiz-adv-x="1251" 
d="M817 947q142 144 268 144q74 0 112 -43q36 -41 36 -95q0 -52 -30.5 -85t-77.5 -33q-71 0 -104 87q-13 36 -34 36q-31 0 -69 -51q161 -93 161 -265q0 -113 -79 -195q-76 -80 -218 -111q-69 -15 -132 -15q-82 0 -240 19q-45 6 -70 6q-40 0 -67.5 -18.5t-27.5 -45.5
q0 -60 99 -69q290 -28 364 -45q112 -27 162 -83q51 -59 51 -158q0 -174 -161 -262q-144 -80 -408 -80q-270 0 -392 78q-95 61 -95 150q0 151 258 198q-69 38 -96 74t-27 91q0 81 62.5 144t182.5 101q-103 86 -103 200q0 160 129 259.5t335 99.5q110 0 211 -33zM650 883
q-87 0 -136 -88q-59 -106 -59 -228q0 -69 35.5 -108t97.5 -39q88 0 136 98q53 109 53 220q0 58 -30 97q-37 48 -97 48zM288 -57q-171 0 -171 -118q0 -72 61.5 -108t183.5 -36q96 0 152 11t102 39q58 35 58 94q0 69 -90 92q-38 9 -132.5 17.5t-163.5 8.5zM255 1096l322 356
h207l172 -356h-120l-185 175l-259 -175h-137z" />
    <glyph glyph-name="Gbreve" unicode="&#x11e;" horiz-adv-x="1669" 
d="M1586 1464l-115 -579l-106 14q-3 155 -47 281q-77 218 -298 218q-245 0 -411 -311q-69 -130 -112.5 -302.5t-43.5 -315.5q0 -157 54 -258q32 -60 97 -97t138 -37q98 0 174.5 62.5t114.5 172.5q17 47 33 117t16 93q0 35 -29 45t-129 10h-57l15 111h762l-15 -111h-19
q-126 0 -156 -28q-14 -13 -20 -29.5t-35 -127.5l-114 -421h-97l-40 195q-163 -196 -436 -196q-222 0 -406 121q-111 74 -173 204q-62 131 -62 286q0 247 135 473q137 230 377 354q198 102 412 102q127 0 212.5 -37t166.5 -127l122 118h92zM755 1928h101q7 -80 44 -121
q49 -54 160 -54q127 0 201 77q46 48 60 98h94q-10 -116 -87 -209q-105 -127 -290 -127q-142 0 -215 75q-71 73 -71 207q0 23 3 54z" />
    <glyph glyph-name="gbreve" unicode="&#x11f;" horiz-adv-x="1251" 
d="M817 947q142 144 268 144q74 0 112 -43q36 -41 36 -95q0 -52 -30.5 -85t-77.5 -33q-71 0 -104 87q-13 36 -34 36q-31 0 -69 -51q161 -93 161 -265q0 -113 -79 -195q-76 -80 -218 -111q-69 -15 -132 -15q-82 0 -240 19q-45 6 -70 6q-40 0 -67.5 -18.5t-27.5 -45.5
q0 -60 99 -69q290 -28 364 -45q112 -27 162 -83q51 -59 51 -158q0 -174 -161 -262q-144 -80 -408 -80q-270 0 -392 78q-95 61 -95 150q0 151 258 198q-69 38 -96 74t-27 91q0 81 62.5 144t182.5 101q-103 86 -103 200q0 160 129 259.5t335 99.5q110 0 211 -33zM650 883
q-87 0 -136 -88q-59 -106 -59 -228q0 -69 35.5 -108t97.5 -39q88 0 136 98q53 109 53 220q0 58 -30 97q-37 48 -97 48zM288 -57q-171 0 -171 -118q0 -72 61.5 -108t183.5 -36q96 0 152 11t102 39q58 35 58 94q0 69 -90 92q-38 9 -132.5 17.5t-163.5 8.5zM425 1436h95
q7 -80 44 -121q50 -54 162 -54q127 0 202 77q46 48 59 98h97q-9 -114 -87 -209q-105 -127 -290 -127q-142 0 -214 75q-71 74 -71 202q0 19 3 59z" />
    <glyph glyph-name="Gdotaccent" unicode="&#x120;" horiz-adv-x="1669" 
d="M1587 1464l-115 -579l-106 14q-3 155 -47 281q-77 218 -298 218q-245 0 -411 -311q-69 -130 -112.5 -302.5t-43.5 -315.5q0 -157 54 -258q32 -60 97 -97t138 -37q98 0 174.5 62.5t114.5 172.5q17 47 33 117t16 93q0 35 -29 45t-129 10h-57l15 111h762l-15 -111h-19
q-126 0 -156 -28q-14 -13 -20 -29.5t-35 -127.5l-114 -421h-97l-40 195q-163 -196 -436 -196q-222 0 -406 121q-111 74 -173 204q-62 131 -62 286q0 247 135 473q137 230 377 354q198 102 412 102q127 0 212.5 -37t166.5 -127l122 118h92zM1012 1911q60 0 103 -42.5
t43 -103.5q0 -62 -43 -104.5t-105 -42.5q-60 0 -102.5 43.5t-42.5 103.5t43 103t104 43z" />
    <glyph glyph-name="gdotaccent" unicode="&#x121;" horiz-adv-x="1251" 
d="M817 947q142 144 268 144q74 0 112 -43q36 -41 36 -95q0 -52 -30.5 -85t-77.5 -33q-71 0 -104 87q-13 36 -34 36q-31 0 -69 -51q161 -93 161 -265q0 -113 -79 -195q-76 -80 -218 -111q-69 -15 -132 -15q-82 0 -240 19q-45 6 -70 6q-40 0 -67.5 -18.5t-27.5 -45.5
q0 -60 99 -69q290 -28 364 -45q112 -27 162 -83q51 -59 51 -158q0 -174 -161 -262q-144 -80 -408 -80q-270 0 -392 78q-95 61 -95 150q0 151 258 198q-69 38 -96 74t-27 91q0 81 62.5 144t182.5 101q-103 86 -103 200q0 160 129 259.5t335 99.5q110 0 211 -33zM650 883
q-87 0 -136 -88q-59 -106 -59 -228q0 -69 35.5 -108t97.5 -39q88 0 136 98q53 109 53 220q0 58 -30 97q-37 48 -97 48zM288 -57q-171 0 -171 -118q0 -72 61.5 -108t183.5 -36q96 0 152 11t102 39q58 35 58 94q0 69 -90 92q-38 9 -132.5 17.5t-163.5 8.5zM700 1403
q61 0 103.5 -42.5t42.5 -103.5q0 -62 -43 -104.5t-105 -42.5q-59 0 -102 43.5t-43 103.5q0 61 43 103.5t104 42.5z" />
    <glyph glyph-name="Gcommaaccent" unicode="&#x122;" horiz-adv-x="1669" 
d="M1586 1464l-115 -579l-106 14q-3 155 -47 281q-77 218 -298 218q-245 0 -411 -311q-69 -130 -112.5 -302.5t-43.5 -315.5q0 -157 54 -258q32 -60 97 -97t138 -37q98 0 174.5 62.5t114.5 172.5q17 47 33 117t16 93q0 35 -29 45t-129 10h-57l15 111h762l-15 -111h-19
q-126 0 -156 -28q-14 -13 -20 -29.5t-35 -127.5l-114 -421h-97l-40 195q-163 -196 -436 -196q-222 0 -406 121q-111 74 -173 204q-62 131 -62 286q0 247 135 473q137 230 377 354q198 102 412 102q127 0 212.5 -37t166.5 -127l122 118h92zM358 -685q252 113 253 253
q-29 -5 -51 -5q-68 0 -105.5 38t-37.5 107q0 75 48.5 122t125.5 47q86 0 139.5 -59t53.5 -153q0 -274 -388 -425z" />
    <glyph glyph-name="gcommaaccent" unicode="&#x123;" horiz-adv-x="1251" 
d="M817 947q142 144 268 144q74 0 112 -43q36 -41 36 -95q0 -52 -30.5 -85t-77.5 -33q-71 0 -104 87q-13 36 -34 36q-31 0 -69 -51q161 -93 161 -265q0 -113 -79 -195q-76 -80 -218 -111q-69 -15 -132 -15q-82 0 -240 19q-45 6 -70 6q-40 0 -67.5 -18.5t-27.5 -45.5
q0 -60 99 -69q290 -28 364 -45q112 -27 162 -83q51 -59 51 -158q0 -174 -161 -262q-144 -80 -408 -80q-270 0 -392 78q-95 61 -95 150q0 151 258 198q-69 38 -96 74t-27 91q0 81 62.5 144t182.5 101q-103 86 -103 200q0 160 129 259.5t335 99.5q110 0 211 -33zM650 883
q-87 0 -136 -88q-59 -106 -59 -228q0 -69 35.5 -108t97.5 -39q88 0 136 98q53 109 53 220q0 58 -30 97q-37 48 -97 48zM288 -57q-171 0 -171 -118q0 -72 61.5 -108t183.5 -36q96 0 152 11t102 39q58 35 58 94q0 69 -90 92q-38 9 -132.5 17.5t-163.5 8.5zM953 1650
q-252 -113 -252 -253q27 5 50 5q68 0 105.5 -38t37.5 -107q0 -75 -48 -122t-125 -47q-86 0 -139.5 59t-53.5 153q0 275 387 425z" />
    <glyph glyph-name="Hcircumflex" unicode="&#x124;" horiz-adv-x="1782" 
d="M1142 695h-524l-107 -399q-28 -106 -28 -130q0 -34 31 -44.5t131 -10.5h22l-15 -111h-736l15 111h8q126 0 156 28q14 13 20.5 31t34.5 126l238 887q28 104 28 129q0 35 -30.5 45.5t-131.5 10.5h-38l15 111h769l-15 -111h-25q-125 0 -156 -28q-13 -12 -19 -29.5
t-36 -127.5l-97 -362h524l97 362q27 103 27 129q0 35 -30.5 45.5t-131.5 10.5h-21l15 111h736l-15 -111h-9q-125 0 -156 -28q-13 -13 -19.5 -31t-35.5 -126l-237 -887q-28 -103 -28 -130q0 -34 31 -44.5t131 -10.5h45l-15 -111h-776l15 111h25q125 0 156 28q13 12 19.5 30.5
t35.5 126.5zM598 1585l322 361h207l171 -361h-120l-184 180l-259 -180h-137z" />
    <glyph glyph-name="hcircumflex" unicode="&#x125;" horiz-adv-x="1403" 
d="M769 1509l-224 -760q187 230 385 230q111 0 174 -69q54 -59 54 -141q0 -96 -61 -262l-96 -262q-22 -61 -22 -76q0 -13 8.5 -23t19.5 -10q39 0 125 103q4 5 92 123l81 -52q-118 -181 -219 -260.5t-214 -79.5q-125 0 -177 79q-31 45 -31 106q0 64 42 179l126 345
q17 47 17 74q0 20 -18.5 36.5t-40.5 16.5q-75 0 -192 -142q-67 -81 -111.5 -171t-86.5 -233l-78 -260h-322l351 1183q32 109 32 136q0 39 -24.5 51.5t-101.5 12.5h-49l14 96zM585 1585l322 361h207l172 -361h-120l-185 180l-259 -180h-137z" />
    <glyph glyph-name="Hbar" unicode="&#x126;" horiz-adv-x="1782" 
d="M332 974h-153l62 227h152q23 85 23 111q0 35 -30.5 45.5t-131.5 10.5h-38l15 111h769l-15 -111h-25q-125 0 -156 -28q-17 -16 -41 -105l-9 -34h523q23 84 23 111q0 35 -30.5 45.5t-131.5 10.5h-21l15 111h736l-15 -111h-9q-107 0 -138.5 -16.5t-48.5 -81.5
q-5 -18 -19 -69h154l-61 -227h-154l-181 -678q-28 -103 -28 -130q0 -34 31 -44.5t131 -10.5h45l-15 -111h-776l15 111h25q125 0 156 28q13 12 19.5 30.5t35.5 126.5l107 399h-524l-107 -399q-28 -106 -28 -130q0 -34 31 -44.5t131 -10.5h22l-15 -111h-736l15 111h8
q126 0 156 28q14 13 20.5 31t34.5 126zM693 974l-41 -153h524l41 153h-524z" />
    <glyph glyph-name="hbar" unicode="&#x127;" horiz-adv-x="1403" 
d="M703 1285h302l-61 -227h-308l-91 -309q187 230 384 230q112 0 175 -69q54 -60 54 -142q0 -95 -61 -261l-96 -262q-22 -59 -22 -77q0 -13 9 -23t20 -10q38 0 124 103q5 7 92 124l81 -52q-118 -181 -219 -260.5t-214 -79.5q-125 0 -177 79q-31 45 -31 106q0 64 42 179
l126 345q17 47 17 74q0 20 -18.5 36.5t-40.5 16.5q-75 0 -192 -142q-67 -81 -111.5 -171t-86.5 -233l-78 -260h-322l313 1058h-111l61 227h115q5 20 5 34q0 39 -24.5 51.5t-101.5 12.5h-49l14 96l547 30z" />
    <glyph glyph-name="Itilde" unicode="&#x128;" horiz-adv-x="909" 
d="M680 0h-764l15 111h14q126 0 156 28q14 13 20.5 31t34.5 126l238 887q28 104 28 129q0 35 -30.5 45.5t-131.5 10.5h-44l15 111h764l-15 -111h-14q-125 0 -156 -28q-13 -12 -19.5 -29.5t-35.5 -127.5l-238 -887q-28 -105 -28 -130q0 -34 31 -44.5t131 -10.5h44zM878 1888
h97q-3 -76 -53 -146q-79 -112 -199 -112q-64 0 -175 43q-110 42 -149 42q-70 0 -85 -85h-97q7 95 59 160q78 98 196 98q62 0 161 -39q109 -43 143 -43q79 0 102 82z" />
    <glyph glyph-name="itilde" unicode="&#x129;" horiz-adv-x="797" 
d="M638 979l-216 -729q-19 -68 -19 -87q0 -33 32 -33q61 0 207 231l80 -56q-105 -175 -206 -254.5t-219 -79.5q-113 0 -169 69q-43 52 -43 115q0 44 31 150l104 348q32 110 32 137q0 38 -24.5 50.5t-101.5 12.5h-49l14 96zM782 1399h96q-3 -76 -53 -146q-79 -112 -201 -112
q-62 0 -173 43q-109 42 -149 42q-70 0 -84 -85h-97q6 94 59 160q77 98 195 98q62 0 161 -39q109 -43 143 -43q79 0 103 82z" />
    <glyph glyph-name="Imacron" unicode="&#x12a;" horiz-adv-x="909" 
d="M680 0h-764l15 111h14q126 0 156 28q14 13 20.5 31t34.5 126l238 887q28 104 28 129q0 35 -30.5 45.5t-131.5 10.5h-44l15 111h764l-15 -111h-14q-125 0 -156 -28q-13 -12 -19.5 -29.5t-35.5 -127.5l-238 -887q-28 -105 -28 -130q0 -34 31 -44.5t131 -10.5h44zM349 1832
h683l-44 -164h-683z" />
    <glyph glyph-name="imacron" unicode="&#x12b;" horiz-adv-x="797" 
d="M639 979l-216 -729q-19 -68 -19 -87q0 -33 32 -33q61 0 207 231l80 -56q-105 -175 -206 -254.5t-219 -79.5q-113 0 -169 69q-43 52 -43 115q0 44 31 150l104 348q32 110 32 137q0 38 -24.5 50.5t-101.5 12.5h-49l14 96zM167 1315h683l-44 -156h-683z" />
    <glyph glyph-name="Ibreve" unicode="&#x12c;" horiz-adv-x="909" 
d="M680 0h-764l15 111h14q126 0 156 28q14 13 20.5 31t34.5 126l238 887q28 104 28 129q0 35 -30.5 45.5t-131.5 10.5h-44l15 111h764l-15 -111h-14q-125 0 -156 -28q-13 -12 -19.5 -29.5t-35.5 -127.5l-238 -887q-28 -105 -28 -130q0 -34 31 -44.5t131 -10.5h44zM383 1928
h102q6 -79 43 -121q50 -54 160 -54q127 0 202 77q46 48 59 98h94q-9 -114 -88 -209q-105 -127 -289 -127q-142 0 -215 75q-71 73 -71 207q0 22 3 54z" />
    <glyph glyph-name="ibreve" unicode="&#x12d;" horiz-adv-x="797" 
d="M639 979l-216 -729q-19 -68 -19 -87q0 -33 32 -33q61 0 207 231l80 -56q-105 -175 -206 -254.5t-219 -79.5q-113 0 -169 69q-43 52 -43 115q0 44 31 150l104 348q32 110 32 137q0 38 -24.5 50.5t-101.5 12.5h-49l14 96zM173 1436h95q6 -79 44 -121q49 -54 162 -54
q126 0 201 77q46 48 59 98h97q-9 -114 -87 -209q-105 -127 -289 -127q-144 0 -215 75q-71 74 -71 202q0 19 4 59z" />
    <glyph glyph-name="Iogonek" unicode="&#x12e;" horiz-adv-x="909" 
d="M995 1479l-15 -111h-14q-125 0 -156 -28q-13 -12 -19.5 -29.5t-35.5 -127.5l-238 -887q-28 -105 -28 -130q0 -34 31 -44.5t131 -10.5h44l-15 -111q-65 -61 -65 -128q0 -33 17 -53t45 -20q42 0 101 47l37 -63q-91 -137 -205 -137q-68 0 -112 46q-45 48 -45 122
q0 105 90 186h-627l15 111h14q126 0 156 28q14 13 20.5 31t34.5 126l238 887q28 104 28 129q0 35 -30.5 45.5t-131.5 10.5h-44l15 111h764z" />
    <glyph glyph-name="iogonek" unicode="&#x12f;" horiz-adv-x="797" 
d="M622 361l80 -56q-51 -84 -85 -126t-128 -136q-90 -89 -90 -175q0 -29 17.5 -49t43.5 -20q44 0 102 47l38 -63q-92 -137 -206 -137q-68 0 -112 46q-45 48 -45 122q0 84 61 157q-84 -1 -136 25q-42 21 -69.5 65.5t-27.5 92.5q0 45 31 151l104 348q32 110 32 137
q0 38 -24.5 50.5t-101.5 12.5h-49l14 96l547 30l-216 -729q-19 -68 -19 -87q0 -33 32 -33q61 0 207 231zM507 1510q72 0 123 -51t51 -123q0 -73 -51 -123.5t-125 -50.5q-70 0 -121 51.5t-51 122.5q0 72 51 123t123 51z" />
    <glyph glyph-name="Idotaccent" unicode="&#x130;" horiz-adv-x="909" 
d="M680 0h-764l15 111h14q126 0 156 28q14 13 20.5 31t34.5 126l238 887q28 104 28 129q0 35 -30.5 45.5t-131.5 10.5h-44l15 111h764l-15 -111h-14q-125 0 -156 -28q-13 -12 -19.5 -29.5t-35.5 -127.5l-238 -887q-28 -105 -28 -130q0 -34 31 -44.5t131 -10.5h44zM681 1911
q60 0 103 -42.5t43 -103.5q0 -62 -43 -104.5t-105 -42.5q-60 0 -102.5 43.5t-42.5 103.5t43 103t104 43z" />
    <glyph glyph-name="dotlessi" unicode="&#x131;" horiz-adv-x="797" 
d="M639 979l-216 -729q-19 -68 -19 -87q0 -33 32 -33q61 0 207 231l80 -56q-105 -175 -206 -254.5t-219 -79.5q-113 0 -169 69q-43 52 -43 115q0 44 31 150l104 348q32 110 32 137q0 38 -24.5 50.5t-101.5 12.5h-49l14 96z" />
    <glyph glyph-name="IJ" unicode="&#x132;" horiz-adv-x="2275" 
d="M680 0h-764l15 111h14q126 0 156 28q14 13 20.5 31t34.5 126l238 887q28 104 28 129q0 35 -30.5 45.5t-131.5 10.5h-44l15 111h764l-15 -111h-14q-125 0 -156 -28q-13 -12 -19.5 -29.5t-35.5 -127.5l-238 -887q-28 -105 -28 -130q0 -34 31 -44.5t131 -10.5h44zM1590 1368
l15 111h775l-15 -111h-9q-125 0 -156 -28q-13 -13 -19.5 -31t-35.5 -126l-167 -623q-53 -199 -66.5 -240t-39.5 -90q-75 -136 -194.5 -198.5t-304.5 -62.5q-222 0 -350 93q-132 95 -132 284q0 164 99 259q69 66 172 66q99 0 161 -55q59 -53 59 -143q0 -101 -73 -154
q-49 -36 -105 -36q-46 0 -90 26q-34 19 -48 19q-36 0 -36 -51q0 -69 47 -120q29 -31 79 -51t101 -20q97 0 178 68q78 66 124 199q11 30 51 180l174 650q28 103 28 130q0 34 -30.5 44.5t-131.5 10.5h-60z" />
    <glyph glyph-name="ij" unicode="&#x133;" horiz-adv-x="1554" 
d="M618 979l-216 -729q-19 -68 -19 -87q0 -33 32 -33q61 0 207 231l80 -56q-105 -175 -206 -254.5t-219 -79.5q-113 0 -169 69q-43 52 -43 115q0 44 31 150l104 348q32 110 32 137q0 38 -24.5 50.5t-101.5 12.5h-49l14 96zM507 1510q72 0 123 -51t51 -123q0 -73 -51 -123.5
t-125 -50.5q-70 0 -121 51.5t-51 122.5q0 72 51 123t123 51zM1402 1510q72 0 123 -50.5t51 -123.5t-51 -123.5t-125 -50.5q-70 0 -121 51.5t-51 122.5q0 72 51 123t123 51zM1532 979l-245 -825q-47 -160 -81.5 -235.5t-92.5 -147.5q-149 -185 -366 -185q-79 0 -148 28
t-106 75q-45 56 -45 126q0 77 44 123.5t116 46.5q69 0 109 -39q42 -41 42 -115q0 -39 -11 -58t-46 -41q-13 -8 -13 -20q0 -25 35 -25q60 0 100.5 65t94.5 248l194 653q32 109 32 136q0 39 -24.5 51.5t-101.5 12.5h-65l14 96z" />
    <glyph glyph-name="Jcircumflex" unicode="&#x134;" horiz-adv-x="1366" 
d="M681 1368l15 111h775l-15 -111h-9q-125 0 -155 -28q-14 -13 -20 -30.5t-36 -126.5l-167 -623q-53 -199 -66.5 -240t-39.5 -90q-75 -136 -194.5 -198.5t-304.5 -62.5q-222 0 -350 93q-132 95 -132 284q0 164 99 259q69 66 172 66q99 0 161 -55q59 -53 59 -143
q0 -101 -73 -154q-50 -36 -105 -36q-45 0 -90 26q-34 19 -48 19q-36 0 -36 -51q0 -69 47 -120q29 -31 79 -51t101 -20q97 0 178 68q79 66 125 199q10 29 50 180l175 650q27 103 27 129q0 35 -30.5 45.5t-131.5 10.5h-60zM727 1585l322 361h207l172 -361h-120l-185 180
l-259 -180h-137z" />
    <glyph glyph-name="jcircumflex" unicode="&#x135;" horiz-adv-x="758" 
d="M735 979l-244 -825q-47 -159 -81.5 -235t-93.5 -148q-148 -185 -365 -185q-79 0 -148 28t-106 75q-45 56 -45 126q0 76 44 123t115 47q69 0 109 -39q42 -41 42 -115q0 -39 -11 -58t-45 -41q-13 -8 -13 -20q0 -25 35 -25q60 0 100.5 65t94.5 248l194 653q32 109 32 137
q0 38 -24.5 50.5t-101.5 12.5h-65l14 96zM154 1096l322 356h206l172 -356h-120l-185 175l-259 -175h-136z" />
    <glyph glyph-name="Kcommaaccent" unicode="&#x136;" horiz-adv-x="1593" 
d="M625 722l547 510q60 55 60 86q0 50 -84 50h-72l15 111h613l-15 -111q-106 -5 -178.5 -39.5t-172.5 -126.5l-333 -306l293 -632q50 -107 83.5 -130t138.5 -23h30l-15 -111h-768l15 111h64q69 0 95.5 10t26.5 36q0 15 -22 62l-208 438l-173 -159l-54 -202
q-28 -104 -28 -130q0 -34 31 -44.5t131 -10.5h22l-15 -111l-736 1l15 111h8q126 0 156 28q14 13 20 30.5t36 126.5l237 886q28 105 28 129q0 35 -30.5 45.5t-131.5 10.5h-38l15 111h769l-15 -111h-25q-125 0 -156 -28q-14 -13 -20 -30t-35 -127zM402 -685q253 114 253 253
q-28 -5 -51 -5q-68 0 -105.5 38t-37.5 107q0 75 48.5 122t125.5 47q86 0 139.5 -59t53.5 -153q0 -275 -388 -425z" />
    <glyph glyph-name="kcommaaccent" unicode="&#x137;" horiz-adv-x="1327" 
d="M759 1509l-221 -749q90 93 158 139q116 80 252 80q108 0 171 -52q71 -57 71 -149q0 -147 -189 -251q-82 -46 -209 -87q65 -37 90.5 -82t34.5 -139q5 -55 11.5 -69.5t25.5 -14.5q39 0 84 61q40 55 70 128l88 -47q-46 -95 -92 -157q-111 -149 -278 -149q-88 0 -144 46
q-64 53 -64 173q0 56 10 113q7 44 7 68q0 15 -10 34q-27 -2 -43 -2q-74 0 -74 59q0 29 20 46t53 17q34 0 96 -27q232 77 232 219q0 42 -26.5 67t-70.5 25q-69 0 -147 -68q-99 -86 -161 -195.5t-117 -294.5l-75 -251h-322l351 1183q32 109 32 136q0 39 -24.5 51.5
t-101.5 12.5h-49l14 96zM119 -685q253 114 253 253q-29 -5 -51 -5q-68 0 -105.5 38t-37.5 107q0 75 48.5 122t125.5 47q86 0 139.5 -59t53.5 -153q0 -275 -388 -425z" />
    <glyph glyph-name="kgreenlandic" unicode="&#x138;" horiz-adv-x="1327" 
d="M585 299l-1 -3q-35 -116 -35 -147q0 -25 26 -35t90 -10l-27 -104h-595l28 104h7q114 0 144 28q13 12 19 29t37 135l102 380q35 132 35 146q0 24 -21 34q-28 12 -111 12h-7l28 104h594l-28 -104q-98 0 -127 -28q-13 -12 -19.5 -31t-37.5 -133l-60 -225l386 275
q76 54 76 93q0 46 -109 46h-25l28 104h602l-28 -104h-47q-108 0 -248 -96l-226 -156l200 -379q47 -89 67 -108q24 -22 78 -22l-28 -104h-627l28 104h21q93 0 93 58q0 23 -12 45l-113 204z" />
    <glyph glyph-name="Lacute" unicode="&#x139;" horiz-adv-x="1442" 
d="M1265 546l107 -24l-140 -522h-1316l15 111h8q126 0 156 28q14 13 20.5 31t34.5 126l238 887q28 104 28 129q0 35 -30.5 45.5t-131.5 10.5h-38l15 111h782l-15 -111h-38q-125 0 -156 -28q-13 -13 -19.5 -30.5t-35.5 -126.5l-238 -887q-28 -106 -28 -132q0 -30 23.5 -41.5
t85.5 -11.5h74q135 0 240 52q111 54 208.5 158t150.5 225zM632 1584l254 285q52 58 79 75.5t65 17.5q46 0 78 -31t32 -75q0 -60 -59 -91l-339 -181h-110z" />
    <glyph glyph-name="lacute" unicode="&#x13a;" horiz-adv-x="797" 
d="M758 1509l-373 -1259q-20 -68 -20 -86q0 -34 31 -34q39 0 105 76q67 78 114 156l80 -57q-68 -118 -176 -220q-121 -114 -258 -114q-115 0 -167 69q-41 54 -41 117q0 60 46 216l240 810q32 108 32 136q0 39 -24.5 51.5t-101.5 12.5h-49l14 96zM309 1584l254 285
q52 58 79 75.5t65 17.5q46 0 78 -31t32 -75q0 -60 -58 -91l-340 -181h-110z" />
    <glyph glyph-name="Lcommaaccent" unicode="&#x13b;" horiz-adv-x="1442" 
d="M1265 546l107 -24l-140 -522h-1316l15 111h8q126 0 156 28q14 13 20.5 31t34.5 126l238 887q28 104 28 129q0 35 -30.5 45.5t-131.5 10.5h-38l15 111h782l-15 -111h-38q-125 0 -156 -28q-13 -13 -19.5 -30.5t-35.5 -126.5l-238 -887q-28 -106 -28 -132q0 -30 23.5 -41.5
t85.5 -11.5h74q135 0 240 52q111 54 208.5 158t150.5 225zM327 -685q252 114 253 253q-29 -5 -51 -5q-68 0 -105.5 38t-37.5 108q0 74 48.5 121t125.5 47q86 0 139.5 -59t53.5 -153q0 -274 -388 -425z" />
    <glyph glyph-name="lcommaaccent" unicode="&#x13c;" horiz-adv-x="797" 
d="M758 1509l-372 -1259q-20 -68 -20 -86q0 -34 31 -34q39 0 104 76q67 78 115 156l80 -57q-68 -118 -177 -220q-120 -114 -257 -114q-115 0 -167 69q-41 54 -41 117q0 62 46 216l240 810q32 110 32 136q0 39 -24.5 51.5t-101.5 12.5h-49l13 96zM-146 -685q253 114 253 253
q-29 -5 -51 -5q-68 0 -105.5 38t-37.5 107q0 75 48.5 122t125.5 47q86 0 139.5 -59t53.5 -153q0 -274 -388 -425z" />
    <glyph glyph-name="Lcaron" unicode="&#x13d;" horiz-adv-x="1442" 
d="M1265 546l107 -24l-140 -522h-1316l15 111h8q126 0 156 28q14 13 20.5 31t34.5 126l238 887q28 104 28 129q0 35 -30.5 45.5t-131.5 10.5h-38l15 111h782l-15 -111h-38q-125 0 -156 -28q-13 -13 -19.5 -30.5t-35.5 -126.5l-238 -887q-28 -106 -28 -132q0 -30 23.5 -41.5
t85.5 -11.5h74q135 0 240 52q111 54 208.5 158t150.5 225zM1180 917q251 114 253 254q-29 -6 -52 -6q-67 0 -104.5 38.5t-37.5 107.5q0 75 48 122t126 47q86 0 139.5 -59t53.5 -154q0 -274 -388 -424z" />
    <glyph glyph-name="lcaron" unicode="&#x13e;" horiz-adv-x="979" 
d="M759 1509l-373 -1259q-20 -68 -20 -86q0 -34 31 -34q39 0 105 76q67 78 114 156l80 -57q-68 -118 -176 -220q-121 -114 -258 -114q-115 0 -167 69q-41 54 -41 117q0 60 46 216l240 810q32 108 32 136q0 39 -24.5 51.5t-101.5 12.5h-49l14 96zM693 917q253 114 253 254
q-28 -6 -52 -6q-67 0 -104.5 38.5t-37.5 107.5q0 75 48.5 122t125.5 47q86 0 139.5 -59t53.5 -154q0 -274 -388 -424z" />
    <glyph glyph-name="Ldot" unicode="&#x13f;" horiz-adv-x="1442" 
d="M1265 546l107 -24l-140 -522h-1316l15 111h8q126 0 156 28q14 13 20.5 31t34.5 126l238 887q28 104 28 129q0 35 -30.5 45.5t-131.5 10.5h-38l15 111h782l-15 -111h-38q-125 0 -156 -28q-13 -13 -19.5 -30.5t-35.5 -126.5l-238 -887q-28 -106 -28 -132q0 -30 23.5 -41.5
t85.5 -11.5h74q135 0 240 52q111 54 208.5 158t150.5 225zM1040 834q64 0 108 -44t44 -107q0 -64 -44.5 -108t-108.5 -44q-62 0 -106 45t-44 107q0 63 44.5 107t106.5 44z" />
    <glyph glyph-name="ldot" unicode="&#x140;" horiz-adv-x="797" 
d="M760 1509l-373 -1259q-20 -68 -20 -86q0 -34 31 -34q39 0 105 76q67 78 114 156l80 -57q-68 -118 -176 -220q-121 -114 -258 -114q-115 0 -167 69q-41 54 -41 117q0 60 46 216l240 810q32 108 32 136q0 39 -24.5 51.5t-101.5 12.5h-49l14 96zM788 834q63 0 107 -44
t44 -107q0 -64 -44.5 -108t-108.5 -44q-62 0 -106 45t-44 107q0 63 44.5 107t107.5 44z" />
    <glyph glyph-name="Lslash" unicode="&#x141;" horiz-adv-x="1442" 
d="M205 499l-206 -121l34 169l218 121l137 515q28 104 28 129q0 35 -30.5 45.5t-131.5 10.5h-38l15 111h782l-15 -111h-38q-125 0 -156 -28q-14 -13 -18 -24.5t-37 -132.5l-96 -350l388 217l-46 -168l-387 -219l-97 -367q-28 -108 -28 -131q0 -31 23.5 -42.5t85.5 -11.5h74
q135 0 240 52q111 54 208.5 158t150.5 225l107 -24l-140 -522h-1316l15 111h8q126 0 156 28q14 13 19.5 28t35.5 129z" />
    <glyph glyph-name="lslash" unicode="&#x142;" horiz-adv-x="797" 
d="M629 903l185 110l-53 -174l-184 -111l-142 -478q-21 -69 -21 -87q0 -33 32 -33q44 0 125 100q62 78 94 132l80 -57q-67 -117 -177 -220q-121 -114 -258 -114q-115 0 -167 69q-41 54 -41 116q0 60 47 217l69 232l-164 -101l49 174l167 101l120 404q33 110 33 136
q0 39 -24.5 51.5t-101.5 12.5h-49l14 96l548 30z" />
    <glyph glyph-name="Nacute" unicode="&#x143;" horiz-adv-x="1745" 
d="M717 1479l549 -1038l159 594q44 173 44 221q0 54 -43.5 83t-124.5 29h-16l15 111h568l-15 -111q-103 -1 -166 -55q-40 -34 -57.5 -72.5t-66.5 -205.5l-286 -1064h-163l-606 1160l-184 -687q-44 -175 -44 -221q0 -112 179 -112h21l-15 -111h-582l15 111q105 3 165 55
q40 35 58 75t66 203l230 859q-19 36 -46 50.5t-75 14.5h-115l15 111h521zM947 1584l255 285q52 59 78.5 76t64.5 17q46 0 78 -31t32 -75q0 -60 -58 -91l-340 -181h-110z" />
    <glyph glyph-name="nacute" unicode="&#x144;" horiz-adv-x="1403" 
d="M584 979l-66 -271q80 102 140 154q133 117 280 117q113 0 176 -69q54 -59 54 -141q0 -95 -61 -262l-97 -262q-22 -60 -22 -76q0 -12 9 -22.5t21 -10.5q38 0 124 103q3 3 92 123l81 -52q-116 -179 -218.5 -259.5t-214.5 -80.5q-125 0 -178 79q-31 45 -31 106q0 42 7 71.5
t35 107.5l126 345q19 51 19 73q0 21 -19 37.5t-43 16.5q-76 0 -194 -142q-67 -81 -111.5 -171.5t-86.5 -232.5l-78 -260h-322l194 654q32 108 32 136q0 38 -25 50.5t-101 12.5h-49l14 96zM612 1096l255 284q51 58 78 75.5t65 17.5q46 0 78 -31t32 -75q0 -60 -58 -91
l-340 -180h-110z" />
    <glyph glyph-name="Ncommaaccent" unicode="&#x145;" horiz-adv-x="1745" 
d="M717 1479l549 -1038l159 594q44 173 44 221q0 54 -43.5 83t-124.5 29h-16l15 111h568l-15 -111q-103 -1 -166 -55q-40 -34 -57.5 -72.5t-66.5 -205.5l-286 -1064h-163l-606 1160l-184 -687q-44 -175 -44 -221q0 -112 179 -112h21l-15 -111h-582l15 111q105 3 165 55
q40 35 58 75t66 203l230 859q-19 36 -46 50.5t-75 14.5h-115l15 111h521zM396 -685q253 114 253 253q-29 -5 -51 -5q-68 0 -105.5 38t-37.5 107q0 75 48.5 122t125.5 47q86 0 139.5 -59t53.5 -153q0 -275 -388 -425z" />
    <glyph glyph-name="ncommaaccent" unicode="&#x146;" horiz-adv-x="1403" 
d="M584 979l-66 -271q80 102 140 154q133 117 280 117q113 0 176 -69q54 -59 54 -141q0 -95 -61 -262l-97 -262q-22 -60 -22 -76q0 -12 9 -22.5t21 -10.5q38 0 124 103q3 3 92 123l81 -52q-116 -179 -218.5 -259.5t-214.5 -80.5q-125 0 -178 79q-31 45 -31 106q0 42 7 71.5
t35 107.5l126 345q19 51 19 73q0 21 -19 37.5t-43 16.5q-76 0 -194 -142q-67 -81 -111.5 -171.5t-86.5 -232.5l-78 -260h-322l194 654q32 108 32 136q0 38 -25 50.5t-101 12.5h-49l14 96zM157 -685q252 114 252 253q-28 -5 -50 -5q-68 0 -105.5 38t-37.5 107q0 75 48 122
t126 47q85 0 138.5 -59t53.5 -153q0 -275 -387 -425z" />
    <glyph glyph-name="Ncaron" unicode="&#x147;" horiz-adv-x="1745" 
d="M717 1479l549 -1038l159 594q44 173 44 221q0 54 -43.5 83t-124.5 29h-16l15 111h568l-15 -111q-103 -1 -166 -55q-40 -34 -57.5 -72.5t-66.5 -205.5l-286 -1064h-163l-606 1160l-184 -687q-44 -175 -44 -221q0 -112 179 -112h21l-15 -111h-582l15 111q105 3 165 55
q40 35 58 75t66 203l230 859q-19 36 -46 50.5t-75 14.5h-115l15 111h521zM1520 1946l-321 -361h-209l-172 361h120l185 -180l259 180h138z" />
    <glyph glyph-name="ncaron" unicode="&#x148;" horiz-adv-x="1403" 
d="M584 979l-66 -271q80 102 140 154q133 117 280 117q113 0 176 -69q54 -59 54 -141q0 -95 -61 -262l-97 -262q-22 -60 -22 -76q0 -12 9 -22.5t21 -10.5q38 0 124 103q3 3 92 123l81 -52q-116 -179 -218.5 -259.5t-214.5 -80.5q-125 0 -178 79q-31 45 -31 106q0 42 7 71.5
t35 107.5l126 345q19 51 19 73q0 21 -19 37.5t-43 16.5q-76 0 -194 -142q-67 -81 -111.5 -171.5t-86.5 -232.5l-78 -260h-322l194 654q32 108 32 136q0 38 -25 50.5t-101 12.5h-49l14 96zM1186 1456l-322 -360h-209l-172 360h120l185 -179l259 179h139z" />
    <glyph glyph-name="napostrophe" unicode="&#x149;" horiz-adv-x="1667" 
d="M132 855q280 127 281 282q-30 -6 -55 -6q-77 0 -118.5 42t-41.5 120q0 83 53.5 135t139.5 52q96 0 155 -65t59 -171q0 -161 -128 -290q-106 -107 -303 -182zM995 979l-66 -271q80 102 139 154q133 117 281 117q113 0 176 -69q54 -59 54 -141q0 -94 -62 -262l-96 -262
q-22 -59 -22 -76q0 -12 9 -22.5t20 -10.5q38 0 124 103l93 123l80 -52q-118 -181 -219 -260.5t-213 -79.5q-126 0 -179 79q-30 45 -30 106q0 64 42 179l126 345q19 53 19 73q0 21 -19 37.5t-43 16.5q-76 0 -194 -142q-67 -80 -111.5 -170.5t-87.5 -233.5l-77 -260h-322
l193 654q32 106 32 136q0 38 -24.5 50.5t-101.5 12.5h-49l14 96z" />
    <glyph glyph-name="Eng" unicode="&#x14a;" horiz-adv-x="1745" 
d="M717 1479l549 -1038l159 594q44 174 44 221q0 54 -43.5 83t-124.5 29h-16l15 111h568l-15 -111q-103 -1 -166 -55q-40 -34 -57.5 -72.5t-66.5 -205.5l-223 -830q-20 -73 -74.5 -205.5t-97.5 -209.5q-112 -204 -350 -204q-79 0 -148 28t-107 75q-44 56 -44 126
q0 76 43.5 123t115.5 47q69 0 109 -39q42 -41 42 -115q0 -39 -11 -58t-45 -41q-13 -8 -13 -20q0 -25 35 -25q50 0 84 44q29 37 52 93.5t59 175.5l39 133l-521 998l-184 -687q-44 -175 -44 -221q0 -112 179 -112h21l-15 -111h-582l15 111q105 3 165 55q40 35 58 75t66 203
l230 859q-19 36 -46 50.5t-75 14.5h-115l15 111h521z" />
    <glyph glyph-name="eng" unicode="&#x14b;" horiz-adv-x="1270" 
d="M370 0h-322l194 654q32 108 32 137q0 38 -24.5 50t-101.5 12h-49l14 96l513 30l-66 -271q107 135 181 189q111 82 246 82q120 0 192 -62t72 -166q0 -50 -10 -90t-52 -154l-149 -414q-73 -200 -116 -270q-85 -138 -209 -211q-102 -60 -213 -60q-81 0 -152 33t-107 88
t-36 115q0 64 40 104.5t103 40.5q58 0 94 -37t36 -96q0 -63 -47 -98q-14 -11 -14 -22q0 -25 40 -25q45 0 80 40q31 35 55 85.5t70 177.5l260 721q16 43 16 70q0 25 -21.5 41t-54.5 16q-101 0 -218 -142q-67 -80 -111.5 -171.5t-86.5 -232.5z" />
    <glyph glyph-name="Omacron" unicode="&#x14c;" horiz-adv-x="1706" 
d="M1004 1510q279 0 460 -186q169 -175 169 -421q0 -294 -181 -544q-155 -214 -391 -316q-171 -74 -361 -74q-296 0 -467 181q-159 168 -159 435q0 262 144 490q78 124 197 223q255 212 589 212zM998 1399q-226 0 -383 -317q-67 -136 -118 -318q-57 -207 -57 -370
q0 -129 57 -213q68 -101 203 -101q223 0 391 322q76 145 120.5 323.5t44.5 339.5q0 144 -54 227q-29 44 -75 71q-61 36 -129 36zM758 1832h683l-44 -164h-683z" />
    <glyph glyph-name="omacron" unicode="&#x14d;" horiz-adv-x="1175" 
d="M663 979q199 0 328 -111q114 -98 114 -285q0 -200 -120 -361q-97 -130 -256 -196q-132 -55 -279 -55q-197 0 -308 104q-56 52 -89 135t-33 173q0 165 103 317q96 140 255 216q132 63 285 63zM655 883q-133 0 -225 -224q-40 -98 -66 -222t-26 -216q0 -77 34 -119.5
t96 -42.5q134 0 218 214q43 108 72.5 239t29.5 213q0 66 -30 107q-37 51 -103 51zM356 1315h683l-44 -156h-683z" />
    <glyph glyph-name="Obreve" unicode="&#x14e;" horiz-adv-x="1706" 
d="M1004 1510q279 0 460 -186q169 -175 169 -421q0 -294 -181 -544q-155 -214 -391 -316q-171 -74 -361 -74q-296 0 -467 181q-159 168 -159 435q0 262 144 490q78 124 197 223q255 212 589 212zM998 1399q-226 0 -383 -317q-67 -136 -118 -318q-57 -207 -57 -370
q0 -129 57 -213q68 -101 203 -101q223 0 391 322q76 145 120.5 323.5t44.5 339.5q0 144 -54 227q-29 44 -75 71q-61 36 -129 36zM751 1928h101q7 -80 44 -121q49 -54 160 -54q127 0 201 77q46 48 59 98h94q-8 -114 -87 -209q-105 -127 -290 -127q-138 0 -211.5 72.5
t-73.5 209.5q0 23 3 54z" />
    <glyph glyph-name="obreve" unicode="&#x14f;" horiz-adv-x="1175" 
d="M663 979q199 0 328 -111q114 -98 114 -285q0 -200 -120 -361q-97 -130 -256 -196q-132 -55 -279 -55q-197 0 -308 104q-56 52 -89 135t-33 173q0 165 103 317q96 140 255 216q132 63 285 63zM655 883q-133 0 -225 -224q-40 -98 -66 -222t-26 -216q0 -77 34 -119.5
t96 -42.5q134 0 218 214q43 108 72.5 239t29.5 213q0 66 -30 107q-37 51 -103 51zM419 1436h96q5 -79 44 -121q49 -54 161 -54q127 0 202 77q46 48 59 98h97q-9 -114 -87 -209q-105 -127 -290 -127q-143 0 -214 75q-71 74 -71 202q0 19 3 59z" />
    <glyph glyph-name="Ohungarumlaut" unicode="&#x150;" horiz-adv-x="1706" 
d="M1004 1510q279 0 460 -186q169 -175 169 -421q0 -294 -181 -544q-155 -214 -391 -316q-171 -74 -361 -74q-296 0 -467 181q-159 168 -159 435q0 262 144 490q78 124 197 223q255 212 589 212zM998 1399q-226 0 -383 -317q-67 -136 -118 -318q-57 -207 -57 -370
q0 -129 57 -213q68 -101 203 -101q223 0 391 322q76 145 120.5 323.5t44.5 339.5q0 144 -54 227q-29 44 -75 71q-61 36 -129 36zM559 1584l255 285q52 58 78.5 75.5t64.5 17.5q46 0 78 -31t32 -75q0 -60 -58 -91l-340 -181h-110zM971 1584l255 285q51 58 78 75.5t65 17.5
q46 0 78 -31t32 -75q0 -60 -58 -91l-340 -181h-110z" />
    <glyph glyph-name="ohungarumlaut" unicode="&#x151;" horiz-adv-x="1175" 
d="M663 979q199 0 328 -111q114 -98 114 -285q0 -200 -120 -361q-97 -130 -256 -196q-132 -55 -279 -55q-197 0 -308 104q-56 52 -89 135t-33 173q0 165 103 317q96 140 255 216q132 63 285 63zM655 883q-133 0 -225 -224q-40 -98 -66 -222t-26 -216q0 -77 34 -119.5
t96 -42.5q134 0 218 214q43 108 72.5 239t29.5 213q0 66 -30 107q-37 51 -103 51zM293 1109l252 251q63 63 85.5 77.5t60.5 14.5q46 0 78 -30.5t32 -75.5q0 -66 -58 -91l-340 -146h-110zM705 1109l252 251q62 63 85 77.5t61 14.5q46 0 78 -30.5t32 -75.5q0 -66 -58 -91
l-340 -146h-110z" />
    <glyph glyph-name="OE" unicode="&#x152;" horiz-adv-x="1972" 
d="M2007 1479l-82 -501h-100q-1 190 -37 259q-68 131 -224 131h-35q-42 0 -64.5 -21.5t-37.5 -76.5l-120 -449h20q196 0 292 251l96 -14l-184 -688l-96 15q11 76 11 125q0 119 -65 169q-40 31 -81 31h-23l-129 -482q-11 -40 -11 -66q0 -23 22.5 -37t60.5 -14h58q76 0 175 50
t176 127q107 108 170 243l102 -24l-136 -507h-1137q-230 0 -373 99q-96 67 -148 173q-68 140 -68 304q0 267 151 501q169 261 439 356q74 27 149 36.5t201 9.5h1028zM812 322l207 772q24 90 24 154q0 120 -142 120q-101 0 -178.5 -56.5t-148.5 -183.5q-85 -148 -136 -335
t-51 -347q0 -152 55 -243q29 -48 68 -69q44 -23 112 -23q79 0 118 44q40 47 72 167z" />
    <glyph glyph-name="oe" unicode="&#x153;" horiz-adv-x="1745" 
d="M952 842q163 137 368 137q162 0 259 -83q80 -69 80 -165q0 -211 -348 -312q-135 -40 -304 -49q-7 -56 -7 -89q0 -89 47.5 -139.5t130.5 -50.5q79 0 151 38.5t160 127.5l71 -70q-189 -216 -456 -216q-106 0 -175 27t-140 95q-58 -43 -94 -63q-105 -59 -269 -59
q-205 0 -314 104q-57 54 -89.5 136t-32.5 172q0 166 103 316q98 143 255 217q132 63 282 63q107 0 183 -32t139 -105zM625 883q-133 0 -225 -224q-40 -98 -66 -222t-26 -216q0 -77 34 -119.5t96 -42.5q134 0 218 214q43 108 72.5 239t29.5 213q0 66 -30 107q-37 51 -103 51z
M1024 466q95 14 155.5 38t113.5 70q54 45 85 102.5t31 110.5q0 44 -24 70t-65 26q-127 0 -217 -182q-55 -112 -79 -235z" />
    <glyph glyph-name="Racute" unicode="&#x154;" horiz-adv-x="1630" 
d="M624 717l-113 -421q-28 -104 -28 -130q0 -34 31 -44.5t131 -10.5h53l-15 -111h-767l14 111h9q125 0 156 28q13 13 19.5 31t35.5 126l238 887q27 102 27 129q0 35 -30.5 45.5t-130.5 10.5h-38l14 111h710q292 0 434 -65q69 -32 114 -101q50 -77 50 -176
q0 -175 -148.5 -276.5t-438.5 -124.5q291 -77 284 -364v-70q0 -101 1.5 -120.5t12.5 -33.5q15 -21 36 -21q40 0 72 42t75 153l88 -42q-104 -310 -359 -310q-146 0 -228 101q-65 78 -65 191q0 66 15 170q10 69 10 120q0 165 -209 165h-60zM653 828h69q139 0 196 11.5
t110 51.5q60 45 96 120.5t36 156.5q0 200 -220 200h-51q-55 0 -77 -15t-35 -62zM726 1584l254 285q52 58 79 75.5t65 17.5q46 0 78 -31t32 -75q0 -60 -58 -91l-340 -181h-110z" />
    <glyph glyph-name="racute" unicode="&#x155;" horiz-adv-x="1063" 
d="M583 979l-62 -261q63 95 111 144q113 117 250 117q87 0 139 -49t52 -131q0 -77 -48 -125q-44 -44 -105 -44q-50 0 -88.5 27.5t-49.5 71.5q-6 24 -6 64q0 26 -20 26q-29 0 -84 -53q-73 -72 -144.5 -204.5t-114.5 -277.5l-85 -284h-322l194 653q32 109 32 137
q0 38 -24.5 50.5t-101.5 12.5h-49l14 96zM442 1096l255 284q51 58 78 75.5t65 17.5q46 0 78 -31t32 -75q0 -60 -58 -91l-340 -180h-110z" />
    <glyph glyph-name="Rcommaaccent" unicode="&#x156;" horiz-adv-x="1630" 
d="M624 717l-113 -421q-28 -104 -28 -130q0 -34 31 -44.5t131 -10.5h53l-15 -111h-767l14 111h9q125 0 156 28q13 13 19.5 31t35.5 126l238 887q27 102 27 129q0 35 -30.5 45.5t-130.5 10.5h-38l14 111h710q292 0 434 -65q69 -32 114 -101q50 -77 50 -176
q0 -175 -148.5 -276.5t-438.5 -124.5q291 -77 284 -364v-70q0 -101 1.5 -120.5t12.5 -33.5q15 -21 36 -21q40 0 72 42t75 153l88 -42q-104 -310 -359 -310q-146 0 -228 101q-65 78 -65 191q0 66 15 170q10 69 10 120q0 165 -209 165h-60zM653 828h69q139 0 196 11.5
t110 51.5q60 45 96 120.5t36 156.5q0 200 -220 200h-51q-55 0 -77 -15t-35 -62zM339 -685q253 114 253 253q-29 -5 -51 -5q-68 0 -105.5 38t-37.5 107q0 75 48.5 122t125.5 47q86 0 139.5 -59t53.5 -153q0 -274 -388 -425z" />
    <glyph glyph-name="rcommaaccent" unicode="&#x157;" horiz-adv-x="1063" 
d="M583 979l-62 -261q63 95 111 144q113 117 250 117q87 0 139 -49t52 -131q0 -78 -48 -125q-45 -44 -106 -44q-35 0 -69 16.5t-52 42.5q-27 40 -23 89l1 15q2 26 -20 26q-29 0 -83 -53q-75 -73 -146 -204.5t-114 -277.5l-85 -284h-322l194 653q32 109 32 137
q0 38 -24.5 50.5t-101.5 12.5h-49l14 96zM-164 -685q253 114 253 253q-29 -5 -51 -5q-68 0 -105.5 38t-37.5 107q0 75 48.5 122t125.5 47q86 0 139.5 -59t53.5 -153q0 -274 -388 -425z" />
    <glyph glyph-name="Rcaron" unicode="&#x158;" horiz-adv-x="1630" 
d="M624 717l-113 -421q-28 -104 -28 -130q0 -34 31 -44.5t131 -10.5h53l-15 -111h-767l14 111h9q125 0 156 28q13 13 19.5 31t35.5 126l238 887q27 102 27 129q0 35 -30.5 45.5t-130.5 10.5h-38l14 111h710q292 0 434 -65q69 -32 114 -101q50 -77 50 -176
q0 -175 -148.5 -276.5t-438.5 -124.5q291 -77 284 -364v-70q0 -101 1.5 -120.5t12.5 -33.5q15 -21 36 -21q40 0 72 42t75 153l88 -42q-104 -310 -359 -310q-146 0 -228 101q-65 78 -65 191q0 66 15 170q10 69 10 120q0 165 -209 165h-60zM653 828h69q139 0 196 11.5
t110 51.5q60 45 96 120.5t36 156.5q0 200 -220 200h-51q-55 0 -77 -15t-35 -62zM1299 1946l-321 -361h-209l-172 361h120l185 -180l259 180h138z" />
    <glyph glyph-name="rcaron" unicode="&#x159;" horiz-adv-x="1063" 
d="M583 979l-62 -261q63 95 111 144q113 117 250 117q87 0 139 -49t52 -131q0 -77 -48 -125q-44 -44 -105 -44q-50 0 -88.5 27.5t-49.5 71.5q-6 24 -6 64q0 26 -20 26q-29 0 -84 -53q-73 -72 -144.5 -204.5t-114.5 -277.5l-85 -284h-322l194 653q32 109 32 137
q0 38 -24.5 50.5t-101.5 12.5h-49l14 96zM1016 1456l-322 -360h-209l-172 360h120l185 -179l259 179h139z" />
    <glyph glyph-name="Sacute" unicode="&#x15a;" horiz-adv-x="1403" 
d="M1364 1464l-90 -539l-108 19q-3 158 -51 252q-45 92 -130 145q-90 57 -207 57t-200 -52q-92 -56 -92 -169q0 -88 65 -148q41 -38 164 -79q236 -78 355 -147q183 -106 183 -346q0 -222 -175 -359q-165 -129 -422 -129q-140 0 -242 37.5t-203 126.5l-118 -133h-91l102 579
l107 -15q-1 -190 70 -299q122 -185 369 -185q169 0 256 84q64 61 64 147q0 91 -71 146.5t-278 125.5q-129 44 -189 75t-109 78q-114 109 -114 277q0 154 91 282q73 103 191 159t262 56q233 0 410 -157l108 111h93zM612 1584l255 285q51 58 78 75.5t65 17.5q46 0 78 -31
t32 -75q0 -60 -58 -91l-340 -181h-110z" />
    <glyph glyph-name="sacute" unicode="&#x15b;" horiz-adv-x="985" 
d="M530 979q173 0 284 -80q81 -57 81 -148q0 -64 -39.5 -103.5t-102.5 -39.5q-61 0 -101 35t-40 89q0 25 7 40t31 44q12 15 12 23q0 18 -34.5 31t-79.5 13q-82 0 -133 -34.5t-51 -88.5q0 -42 34.5 -72.5t125.5 -69.5q101 -44 154 -78q139 -89 139 -235q0 -106 -70 -193
q-54 -68 -153.5 -105t-225.5 -37q-167 0 -273 71q-91 62 -91 165q0 66 39 106.5t103 40.5q66 0 105 -37q41 -40 41 -91q0 -31 -10 -49t-43 -46q-9 -8 -9 -19q0 -23 36 -37.5t93 -14.5q101 0 155 53q39 38 39 87q0 41 -27 69.5t-91 55.5q-126 53 -173 82q-147 90 -147 248
q0 150 111.5 237.5t303.5 87.5zM403 1096l255 284q51 58 78 75.5t65 17.5q46 0 78 -31t32 -75q0 -60 -58 -91l-340 -180h-110z" />
    <glyph glyph-name="Scircumflex" unicode="&#x15c;" horiz-adv-x="1403" 
d="M1364 1464l-90 -539l-108 19q-3 158 -51 252q-45 92 -130 145q-90 57 -207 57t-200 -52q-92 -56 -92 -169q0 -88 65 -148q41 -38 164 -79q236 -78 355 -147q183 -106 183 -346q0 -222 -175 -359q-165 -129 -422 -129q-140 0 -242 37.5t-203 126.5l-118 -133h-91l102 579
l107 -15q-1 -190 70 -299q122 -185 369 -185q169 0 256 84q64 61 64 147q0 91 -71 146.5t-278 125.5q-129 44 -189 75t-109 78q-114 109 -114 277q0 154 91 282q73 103 191 159t262 56q233 0 410 -157l108 111h93zM389 1585l322 361h207l171 -361h-120l-184 180l-259 -180
h-137z" />
    <glyph glyph-name="scircumflex" unicode="&#x15d;" horiz-adv-x="985" 
d="M530 979q173 0 284 -80q81 -57 81 -148q0 -64 -39.5 -103.5t-102.5 -39.5q-61 0 -101 35t-40 89q0 25 7 40t31 44q12 15 12 23q0 18 -34.5 31t-79.5 13q-82 0 -133 -34.5t-51 -88.5q0 -42 34.5 -72.5t125.5 -69.5q101 -44 154 -78q139 -89 139 -235q0 -106 -70 -193
q-54 -68 -153.5 -105t-225.5 -37q-167 0 -273 71q-91 62 -91 165q0 66 39 106.5t103 40.5q66 0 105 -37q41 -40 41 -91q0 -31 -10 -49t-43 -46q-9 -8 -9 -19q0 -23 36 -37.5t93 -14.5q101 0 155 53q39 38 39 87q0 41 -27 69.5t-91 55.5q-126 53 -173 82q-147 90 -147 248
q0 150 111.5 237.5t303.5 87.5zM199 1096l321 356h207l172 -356h-120l-185 175l-259 -175h-136z" />
    <glyph glyph-name="Scedilla" unicode="&#x15e;" horiz-adv-x="1403" 
d="M1364 1464l-90 -539l-108 19q-3 158 -51 252q-45 92 -130 145q-90 57 -207 57t-200 -52q-92 -56 -92 -169q0 -88 65 -148q41 -38 164 -79q236 -78 355 -147q183 -106 183 -346q0 -139 -75 -252q-91 -136 -268 -197q-113 -39 -254 -39q-21 0 -52 2l-71 -99q42 6 64 6
q79 0 130 -43t51 -110q0 -86 -84 -134q-80 -45 -192 -45q-140 0 -224 58l45 73q88 -40 147 -40q45 0 73 21.5t28 56.5q0 31 -24.5 51.5t-62.5 20.5q-22 0 -60 -8l-34 34l128 167q-166 28 -307 153l-118 -133h-91l102 579l107 -15q-1 -190 70 -299q122 -185 369 -185
q169 0 256 84q64 61 64 147q0 91 -71 146.5t-278 125.5q-129 44 -189 75t-109 78q-114 109 -114 277q0 154 91 282q73 103 191 159t262 56q233 0 410 -157l108 111h93z" />
    <glyph glyph-name="scedilla" unicode="&#x15f;" horiz-adv-x="985" 
d="M340 -29l-71 -95q44 6 68 6q76 0 126.5 -43.5t50.5 -109.5q0 -87 -84 -135q-79 -45 -192 -45q-140 0 -224 58l46 73q88 -40 146 -40q45 0 73 21.5t28 55.5q0 32 -24.5 52.5t-62.5 20.5q-21 0 -59 -8l-34 35l127 163q-97 19 -159 62q-91 61 -91 164q0 66 39 106.5
t103 40.5q66 0 105 -37q41 -40 41 -91q0 -31 -10 -49t-43 -46q-9 -8 -9 -19q0 -23 36 -37.5t93 -14.5q101 0 155 53q39 38 39 87q0 41 -27 69.5t-91 55.5q-126 53 -173 82q-147 90 -147 247q0 150 111 238t298 88q180 0 290 -80q81 -58 81 -148q0 -64 -39.5 -103.5
t-102.5 -39.5q-61 0 -101 35t-40 89q0 25 7 40t31 44q12 15 12 23q0 18 -34.5 31t-79.5 13q-82 0 -133 -34.5t-51 -88.5q0 -42 34.5 -72.5t125.5 -69.5q101 -44 154 -78q139 -89 139 -235q0 -106 -70 -193q-53 -67 -152.5 -104.5t-222.5 -37.5q-8 0 -32 1z" />
    <glyph glyph-name="Scaron" unicode="&#x160;" horiz-adv-x="1403" 
d="M1364 1464l-90 -539l-108 19q-3 158 -51 252q-45 92 -130 145q-90 57 -207 57t-200 -52q-92 -56 -92 -169q0 -88 65 -148q41 -38 164 -79q236 -78 355 -147q183 -106 183 -346q0 -222 -175 -359q-165 -129 -422 -129q-140 0 -242 37.5t-203 126.5l-118 -133h-91l102 579
l107 -15q-1 -190 70 -299q122 -185 369 -185q169 0 256 84q64 61 64 147q0 91 -71 146.5t-278 125.5q-129 44 -189 75t-109 78q-114 109 -114 277q0 154 91 282q73 103 191 159t262 56q233 0 410 -157l108 111h93zM1240 1946l-322 -361h-208l-172 361h120l185 -180l259 180
h138z" />
    <glyph glyph-name="scaron" unicode="&#x161;" horiz-adv-x="985" 
d="M977 1456l-322 -360h-209l-172 360h120l185 -179l259 179h139zM530 979q173 0 284 -80q81 -57 81 -148q0 -64 -39.5 -103.5t-102.5 -39.5q-61 0 -101 35t-40 89q0 25 7 40t31 44q12 15 12 23q0 18 -34.5 31t-79.5 13q-82 0 -133 -34.5t-51 -88.5q0 -42 34.5 -72.5
t125.5 -69.5q101 -44 154 -78q139 -89 139 -235q0 -106 -70 -193q-54 -68 -153.5 -105t-225.5 -37q-167 0 -273 71q-91 62 -91 165q0 66 39 106.5t103 40.5q66 0 105 -37q41 -40 41 -91q0 -31 -10 -49t-43 -46q-9 -8 -9 -19q0 -23 36 -37.5t93 -14.5q101 0 155 53
q39 38 39 87q0 41 -27 69.5t-91 55.5q-126 53 -173 82q-147 90 -147 248q0 150 111.5 237.5t303.5 87.5z" />
    <glyph glyph-name="Tcommaaccent" unicode="&#x162;" horiz-adv-x="1479" 
d="M1560 1479l-89 -579l-110 9q7 82 7 123q0 162 -63 249t-180 87q-44 0 -56 -13t-30 -80l-263 -979q-28 -106 -28 -130q0 -34 31 -44.5t131 -10.5h53l-15 -111h-813l15 111h54q126 0 156 28q14 13 20.5 31t34.5 126l267 993q8 32 8 49q0 30 -58 30q-88 0 -147 -37
q-152 -97 -293 -431l-102 33l146 546h1324zM263 -685q253 114 253 253q-29 -5 -51 -5q-68 0 -105.5 38t-37.5 107q0 75 48.5 122t125.5 47q86 0 139.5 -59t53.5 -153q0 -275 -388 -425z" />
    <glyph glyph-name="tcommaaccent" unicode="&#x163;" horiz-adv-x="833" 
d="M614 373l76 -54q-89 -134 -140 -189q-148 -159 -307 -159q-95 0 -150 61q-44 49 -44 108t52 233l133 450h-178l37 126h178l113 382h323l-114 -382h234l-37 -126h-234l-143 -482q-42 -143 -42 -168q0 -15 9.5 -26t21.5 -11q31 0 94 70.5t118 166.5zM-128 -685
q253 114 253 253q-29 -5 -51 -5q-68 0 -105.5 38t-37.5 107q0 75 48.5 122t125.5 47q86 0 139.5 -59t53.5 -153q0 -274 -388 -425z" />
    <glyph glyph-name="Tcaron" unicode="&#x164;" horiz-adv-x="1479" 
d="M1560 1479l-89 -579l-110 9q7 82 7 123q0 162 -63 249t-180 87q-44 0 -56 -13t-30 -80l-263 -979q-28 -106 -28 -130q0 -34 31 -44.5t131 -10.5h53l-15 -111h-813l15 111h54q126 0 156 28q14 13 20.5 31t34.5 126l267 993q8 32 8 49q0 30 -58 30q-88 0 -147 -37
q-152 -97 -293 -431l-102 33l146 546h1324zM1347 1946l-322 -361h-209l-172 361h120l185 -180l259 180h139z" />
    <glyph glyph-name="tcaron" unicode="&#x165;" horiz-adv-x="979" 
d="M609 373l76 -54q-89 -134 -140 -189q-148 -159 -307 -159q-95 0 -149 61q-45 49 -45 108t52 233l133 450h-179l38 126h178l113 382h323l-114 -382h159q187 101 187 222q-28 -6 -52 -6q-67 0 -104.5 38.5t-37.5 107.5q0 75 48.5 122t125.5 47q86 0 139.5 -59t53.5 -154
q0 -238 -306 -390l-16 -54h-234l-143 -482q-42 -143 -42 -168q0 -15 9.5 -26t21.5 -11q31 0 93 69.5t119 167.5z" />
    <glyph glyph-name="Tbar" unicode="&#x166;" horiz-adv-x="1479" 
d="M916 819h289l-35 -129h-288l-106 -394q-28 -106 -28 -130q0 -34 31 -44.5t131 -10.5h53l-15 -111h-813l15 111h54q126 0 156 28q14 13 20.5 31t34.5 126l106 394h-283l35 129h283l126 470q8 32 8 46q0 33 -59 33q-87 0 -146 -37q-152 -97 -293 -431l-102 33l146 546h1324
l-89 -579l-110 9q6 72 6 114q0 169 -61.5 257t-180.5 88q-44 0 -56 -13t-30 -80z" />
    <glyph glyph-name="tbar" unicode="&#x167;" horiz-adv-x="833" 
d="M518 697h248l-37 -124h-248l-68 -232q-42 -140 -42 -173q0 -32 30 -32q32 0 93 68.5t119 169.5l76 -55q-9 -12 -13 -19q-70 -105 -99.5 -141.5t-79.5 -79.5q-123 -108 -254 -108q-89 0 -143 53q-51 50 -51 121q0 56 51 229l59 199h-167l37 124h167l37 126h-178l37 126
h178l114 382h322l-113 -382h236l-37 -126h-237z" />
    <glyph glyph-name="Utilde" unicode="&#x168;" horiz-adv-x="1706" 
d="M194 1368l15 111h769l-15 -111h-25q-125 0 -156 -28q-14 -13 -20 -30.5t-35 -126.5l-167 -622q-29 -109 -29 -181q0 -172 122 -241q75 -43 186 -43q161 0 276 120q51 54 81 117.5t63 185.5l138 516q44 174 44 221q0 54 -43.5 83t-124.5 29h-15l14 111h561l-15 -111
q-92 1 -160 -55q-39 -32 -56.5 -72t-67.5 -206l-152 -571q-66 -245 -212 -371q-145 -124 -411 -124q-216 0 -350 70q-120 63 -182 185q-47 92 -47 177q0 87 35 219l151 563q28 104 28 129q0 35 -30.5 45.5t-131.5 10.5h-38zM1396 1888h97q-4 -77 -53 -146
q-79 -112 -200 -112q-63 0 -175 43q-110 42 -149 42q-69 0 -84 -85h-97q7 95 59 160q78 98 196 98q62 0 160 -39q109 -43 143 -43q79 0 103 82z" />
    <glyph glyph-name="utilde" unicode="&#x169;" horiz-adv-x="1403" 
d="M1222 949l-189 -638q-34 -114 -34 -137q0 -29 28 -29q31 0 92 72q63 74 113 151l77 -57q-122 -187 -220 -263.5t-216 -76.5q-198 0 -198 174q0 19 2 54q-65 -81 -121 -127q-121 -101 -253 -101q-107 0 -170 68q-55 59 -55 156q0 68 42 210l74 248q32 110 32 137
q0 38 -24.5 50.5t-101.5 12.5h-20l13 96l519 30l-184 -624q-43 -143 -43 -161q0 -19 15.5 -34.5t34.5 -15.5q42 0 107 52t120 130q90 126 138 286l100 337h322zM1083 1399h97q-4 -76 -53 -146q-79 -112 -202 -112q-62 0 -172 43q-110 42 -149 42q-70 0 -85 -85h-97
q7 94 59 160q78 98 196 98q61 0 160 -39q109 -43 144 -43q78 0 102 82z" />
    <glyph glyph-name="Umacron" unicode="&#x16a;" horiz-adv-x="1706" 
d="M194 1368l15 111h769l-15 -111h-25q-125 0 -156 -28q-14 -13 -20 -30.5t-35 -126.5l-167 -622q-29 -109 -29 -181q0 -172 122 -241q75 -43 186 -43q161 0 276 120q51 54 81 117.5t63 185.5l138 516q44 174 44 221q0 54 -43.5 83t-124.5 29h-15l14 111h561l-15 -111
q-92 1 -160 -55q-39 -32 -56.5 -72t-67.5 -206l-152 -571q-66 -245 -212 -371q-145 -124 -411 -124q-216 0 -350 70q-120 63 -182 185q-47 92 -47 177q0 87 35 219l151 563q28 104 28 129q0 35 -30.5 45.5t-131.5 10.5h-38zM867 1832h683l-44 -164h-683z" />
    <glyph glyph-name="umacron" unicode="&#x16b;" horiz-adv-x="1403" 
d="M1222 949l-189 -638q-34 -114 -34 -137q0 -29 28 -29q31 0 92 72q63 74 113 151l77 -57q-122 -187 -220 -263.5t-216 -76.5q-198 0 -198 174q0 19 2 54q-65 -81 -121 -127q-121 -101 -253 -101q-107 0 -170 68q-55 59 -55 156q0 68 42 210l74 248q32 110 32 137
q0 38 -24.5 50.5t-101.5 12.5h-20l13 96l519 30l-184 -624q-43 -143 -43 -161q0 -19 15.5 -34.5t34.5 -15.5q42 0 107 52t120 130q90 126 138 286l100 337h322zM470 1315h683l-44 -156h-683z" />
    <glyph glyph-name="Ubreve" unicode="&#x16c;" horiz-adv-x="1706" 
d="M194 1368l15 111h769l-15 -111h-25q-125 0 -156 -28q-14 -13 -20 -30.5t-35 -126.5l-167 -622q-29 -109 -29 -181q0 -172 122 -241q75 -43 186 -43q161 0 276 120q51 54 81 117.5t63 185.5l138 516q44 174 44 221q0 54 -43.5 83t-124.5 29h-15l14 111h561l-15 -111
q-92 1 -160 -55q-39 -32 -56.5 -72t-67.5 -206l-152 -571q-66 -245 -212 -371q-145 -124 -411 -124q-216 0 -350 70q-120 63 -182 185q-47 92 -47 177q0 87 35 219l151 563q28 104 28 129q0 35 -30.5 45.5t-131.5 10.5h-38zM835 1928h101q6 -79 44 -121q49 -54 160 -54
q126 0 201 77q46 48 59 98h94q-8 -114 -87 -209q-106 -127 -290 -127q-142 0 -215 75q-71 73 -71 207q0 23 4 54z" />
    <glyph glyph-name="ubreve" unicode="&#x16d;" horiz-adv-x="1403" 
d="M1222 949l-189 -638q-34 -114 -34 -137q0 -29 28 -29q31 0 92 72q63 74 113 151l77 -57q-122 -187 -220 -263.5t-216 -76.5q-198 0 -198 174q0 19 2 54q-65 -81 -121 -127q-121 -101 -253 -101q-107 0 -170 68q-55 59 -55 156q0 68 42 210l74 248q32 110 32 137
q0 38 -24.5 50.5t-101.5 12.5h-20l13 96l519 30l-184 -624q-43 -143 -43 -161q0 -19 15.5 -34.5t34.5 -15.5q42 0 107 52t120 130q90 126 138 286l100 337h322zM493 1436h95q7 -80 44 -121q49 -54 162 -54q127 0 201 77q46 48 59 98h97q-8 -114 -87 -209
q-104 -127 -289 -127q-142 0 -214 75q-71 73 -71 202q0 20 3 59z" />
    <glyph glyph-name="Uring" unicode="&#x16e;" horiz-adv-x="1706" 
d="M194 1368l15 111h769l-15 -111h-25q-125 0 -156 -28q-14 -13 -20 -30.5t-35 -126.5l-167 -622q-29 -109 -29 -181q0 -172 122 -241q75 -43 186 -43q161 0 276 120q51 54 81 117.5t63 185.5l138 516q44 174 44 221q0 54 -43.5 83t-124.5 29h-15l14 111h561l-15 -111
q-92 1 -160 -55q-39 -32 -56.5 -72t-67.5 -206l-152 -571q-66 -245 -212 -371q-145 -124 -411 -124q-216 0 -350 70q-120 63 -182 185q-47 92 -47 177q0 87 35 219l151 563q28 104 28 129q0 35 -30.5 45.5t-131.5 10.5h-38zM1176 2044q92 0 157 -64q64 -65 64 -156t-64 -156
q-65 -64 -159 -64q-89 0 -153 64q-65 65 -65 156q0 93 65 156q65 64 155 64zM1177 1934q-46 0 -78.5 -32.5t-32.5 -77.5t32.5 -77.5t76.5 -32.5q47 0 79.5 32t32.5 78t-32.5 78t-77.5 32z" />
    <glyph glyph-name="uring" unicode="&#x16f;" horiz-adv-x="1403" 
d="M1222 949l-189 -638q-34 -114 -34 -137q0 -29 28 -29q31 0 92 72q63 74 113 151l77 -57q-122 -187 -220 -263.5t-216 -76.5q-198 0 -198 174q0 19 2 54q-65 -81 -121 -127q-121 -101 -253 -101q-107 0 -170 68q-55 59 -55 156q0 68 42 210l74 248q32 110 32 137
q0 38 -24.5 50.5t-101.5 12.5h-20l13 96l519 30l-184 -624q-43 -143 -43 -161q0 -19 15.5 -34.5t34.5 -15.5q42 0 107 52t120 130q90 126 138 286l100 337h322zM834 1526q91 0 156 -65q64 -64 64 -155q0 -92 -64 -156q-65 -65 -159 -65q-88 0 -153 65q-64 64 -64 156t64 155
q66 65 156 65zM834 1416q-45 0 -77.5 -32.5t-32.5 -78.5q0 -44 32 -77t77 -33q46 0 78.5 32t32.5 79q0 45 -32 77.5t-78 32.5z" />
    <glyph glyph-name="Uhungarumlaut" unicode="&#x170;" horiz-adv-x="1706" 
d="M194 1368l15 111h769l-15 -111h-25q-125 0 -156 -28q-14 -13 -20 -30.5t-35 -126.5l-167 -622q-29 -109 -29 -181q0 -172 122 -241q75 -43 186 -43q161 0 276 120q51 54 81 117.5t63 185.5l138 516q44 174 44 221q0 54 -43.5 83t-124.5 29h-15l14 111h561l-15 -111
q-92 1 -160 -55q-39 -32 -56.5 -72t-67.5 -206l-152 -571q-66 -245 -212 -371q-145 -124 -411 -124q-216 0 -350 70q-120 63 -182 185q-47 92 -47 177q0 87 35 219l151 563q28 104 28 129q0 35 -30.5 45.5t-131.5 10.5h-38zM764 1584l254 285q52 58 79 75.5t65 17.5
q46 0 78 -31t32 -75q0 -60 -59 -91l-339 -181h-110zM1175 1584l255 285q52 59 78.5 76t64.5 17q46 0 78 -31t32 -75q0 -60 -58 -91l-340 -181h-110z" />
    <glyph glyph-name="uhungarumlaut" unicode="&#x171;" horiz-adv-x="1403" 
d="M1222 949l-189 -638q-34 -114 -34 -137q0 -29 28 -29q31 0 92 72q63 74 113 151l77 -57q-122 -187 -220 -263.5t-216 -76.5q-198 0 -198 174q0 19 2 54q-65 -81 -121 -127q-121 -101 -253 -101q-107 0 -170 68q-55 59 -55 156q0 68 42 210l74 248q32 110 32 137
q0 38 -24.5 50.5t-101.5 12.5h-20l13 96l519 30l-184 -624q-43 -143 -43 -161q0 -19 15.5 -34.5t34.5 -15.5q42 0 107 52t120 130q90 126 138 286l100 337h322zM408 1109l251 251q63 63 86 77.5t61 14.5q46 0 78 -30.5t32 -75.5q0 -65 -59 -91l-339 -146h-110zM819 1109
l252 251q62 63 85 77.5t61 14.5q46 0 78 -31t32 -75q0 -66 -58 -91l-340 -146h-110z" />
    <glyph glyph-name="Uogonek" unicode="&#x172;" horiz-adv-x="1706" 
d="M1272 1479h561l-15 -111q-92 1 -160 -55q-39 -32 -56.5 -72t-67.5 -206l-152 -571q-42 -154 -82.5 -215.5t-192.5 -199.5q-36 -33 -63 -86.5t-27 -92.5q0 -31 18 -51t45 -20q42 0 101 47l37 -63q-92 -137 -205 -137q-68 0 -112 47q-45 47 -45 121q0 91 72 169
q-87 -14 -171 -14q-215 0 -348 70q-120 63 -182 185q-47 92 -47 177q0 87 35 219l151 563q28 104 28 129q0 35 -30.5 45.5t-131.5 10.5h-38l15 111h769l-15 -111h-25q-125 0 -156 -28q-14 -13 -20 -30.5t-35 -126.5l-167 -622q-29 -109 -29 -181q0 -172 122 -241
q75 -43 186 -43q161 0 276 120q51 54 81 117.5t63 185.5l138 516q44 174 44 221q0 54 -43.5 83t-124.5 29h-15z" />
    <glyph glyph-name="uogonek" unicode="&#x173;" horiz-adv-x="1403" 
d="M900 949h322l-189 -638q-34 -114 -34 -137q0 -29 28 -29q31 0 92 72q63 74 113 151l77 -57q-49 -75 -65 -95.5t-105 -123.5q-44 -52 -76 -118t-32 -107q0 -28 17.5 -48t43.5 -20q43 0 102 47l37 -63q-92 -137 -205 -137q-68 0 -112 46q-45 48 -45 122q0 87 64 161
q-31 -4 -58 -4q-200 0 -200 174q0 19 2 54q-65 -81 -121 -127q-121 -101 -253 -101q-107 0 -170 68q-55 59 -55 156q0 68 42 210l74 248q32 110 32 137q0 38 -24.5 50.5t-101.5 12.5h-20l13 96l519 30l-184 -624q-43 -143 -43 -161q0 -19 15.5 -34.5t34.5 -15.5q42 0 107 52
t120 130q90 126 138 286z" />
    <glyph glyph-name="Wcircumflex" unicode="&#x174;" horiz-adv-x="1933" 
d="M1397 564l264 637q26 62 26 93q0 33 -30.5 53.5t-80.5 20.5h-37l15 111h482l-15 -111q-93 -13 -144.5 -69t-125.5 -226l-478 -1102h-133l-140 990l-454 -990h-136l-176 1320q-6 46 -31 61.5t-91 15.5h-30l15 111h620l-15 -111h-31q-55 0 -73 -14.5t-18 -59.5q0 -15 2 -33
l90 -721l303 675l-6 61q-6 53 -35.5 72.5t-104.5 19.5h-33l15 111h637l-15 -111h-45q-53 0 -73 -12.5t-20 -44.5q0 -17 5 -55zM772 1585l322 361h207l171 -361h-120l-184 180l-259 -180h-137z" />
    <glyph glyph-name="wcircumflex" unicode="&#x175;" horiz-adv-x="1706" 
d="M1202 949l-142 -479q-49 -194 -49 -238q0 -45 33.5 -80.5t76.5 -35.5q51 0 110 41.5t106 111.5q125 185 125 336q0 30 -13.5 49.5t-76.5 76.5q-59 54 -59 115t38.5 97t102.5 36q73 0 116 -50q44 -50 44 -133q0 -111 -41 -254t-107 -257q-101 -179 -239 -257
q-102 -58 -212 -58q-182 0 -268 134q-26 41 -40 107q-67 -88 -130 -140q-124 -101 -285 -101q-132 0 -193 68q-54 60 -54 158q0 68 42 209l73 248q32 108 32 137q0 38 -24.5 50.5t-101.5 12.5h-21l14 96l520 30l-183 -617q-30 -102 -30 -141q0 -31 22 -53t53 -22
q115 0 210 151q25 40 63 130t58 158l108 364h322zM663 1096l322 356h207l172 -356h-120l-185 175l-259 -175h-137z" />
    <glyph glyph-name="Ycircumflex" unicode="&#x176;" horiz-adv-x="1442" 
d="M808 777l325 430q35 45 35 88q0 34 -31 53.5t-86 19.5h-73l15 111h599l-15 -111q-93 -5 -148 -38q-73 -45 -167 -168l-409 -534l-89 -332q-28 -104 -28 -130q0 -34 31 -44.5t131 -10.5h53l-15 -111h-797l15 111h38q126 0 156 28q14 13 20.5 31t34.5 126l89 332l-240 622
q-27 72 -57 91q-40 27 -117 27h-47l15 111h749l-15 -111h-88q-52 0 -71 -10t-19 -38q0 -22 20 -71zM509 1585l322 361h207l172 -361h-120l-185 180l-259 -180h-137z" />
    <glyph glyph-name="ycircumflex" unicode="&#x177;" horiz-adv-x="1063" 
d="M667 291q138 232 138 324q0 30 -7 49.5t-33 58.5q-42 64 -42 121q0 59 41 97t105 38t101.5 -34t37.5 -93q0 -115 -141 -398q-175 -349 -383 -612q-125 -157 -218 -209q-83 -47 -183 -47q-121 0 -176 69q-42 51 -42 117t40.5 107.5t104.5 41.5q62 0 101.5 -36.5
t39.5 -93.5q0 -21 -12 -57q-2 -8 -2 -13q0 -20 27 -20q40 0 106 52.5t120 127.5l59 82l-205 691q-18 58 -29 75.5t-31 17.5q-27 0 -46.5 -39.5t-62.5 -180.5l-89 27q98 425 331 425q112 0 160 -96q42 -82 77 -203zM258 1096l322 356h207l172 -356h-120l-185 175l-259 -175
h-137z" />
    <glyph glyph-name="Ydieresis" unicode="&#x178;" horiz-adv-x="1442" 
d="M808 777l325 430q35 45 35 88q0 34 -31 53.5t-86 19.5h-73l15 111h599l-15 -111q-93 -5 -148 -38q-73 -45 -167 -168l-409 -534l-89 -332q-28 -104 -28 -130q0 -34 31 -44.5t131 -10.5h53l-15 -111h-797l15 111h38q126 0 156 28q14 13 20.5 31t34.5 126l89 332l-240 622
q-27 72 -57 91q-40 27 -117 27h-47l15 111h749l-15 -111h-88q-52 0 -71 -10t-19 -38q0 -22 20 -71zM672 1911q60 0 103 -42.5t43 -103.5q0 -62 -43 -104.5t-105 -42.5q-60 0 -102.5 43t-42.5 104q0 60 43 103t104 43zM1112 1911q60 0 103 -42.5t43 -103.5q0 -62 -43 -104.5
t-105 -42.5q-59 0 -102 43.5t-43 103.5t43 103t104 43z" />
    <glyph glyph-name="Zacute" unicode="&#x179;" horiz-adv-x="1442" 
d="M1465 1479l-16 -111l-1045 -1257h185q168 0 287 57q110 53 193.5 145t161.5 245l104 -25l-143 -533h-1251l17 112l1038 1256h-163q-199 0 -334.5 -93.5t-259.5 -314.5l-99 20l134 499h1191zM769 1584l254 285q52 58 79 75.5t65 17.5q46 0 78 -31t32 -75q0 -60 -59 -91
l-339 -181h-110z" />
    <glyph glyph-name="zacute" unicode="&#x17a;" horiz-adv-x="1063" 
d="M851 346l90 -33q-40 -130 -118 -215q-120 -128 -293 -128q-82 0 -147.5 24t-206.5 105q-29 17 -43 17q-28 0 -29 -58q-1 -41 -21.5 -64.5t-55.5 -23.5q-29 0 -47.5 19.5t-18.5 50.5q0 73 136 229q86 98 165.5 160.5t196.5 124.5q148 77 170.5 90t87.5 56
q-85 -29 -166 -29q-57 0 -186 21q-81 14 -116 14q-48 0 -71 -21.5t-59 -99.5l-87 30q128 364 407 364q61 0 121.5 -19t153.5 -68q67 -36 89 -36q26 0 44 64q16 59 56 59q25 0 43.5 -20t18.5 -47q0 -56 -62 -146.5t-170 -192.5q-71 -68 -133 -107t-244 -132q-67 -34 -130 -76
q119 21 184 21q93 0 195 -32q94 -29 112 -29q76 0 134 128zM442 1096l255 284q51 58 78 75.5t65 17.5q46 0 78 -31t32 -75q0 -60 -58 -91l-340 -180h-110z" />
    <glyph glyph-name="Zdotaccent" unicode="&#x17b;" horiz-adv-x="1442" 
d="M1465 1479l-16 -111l-1045 -1257h185q168 0 287 57q110 53 193.5 145t161.5 245l104 -25l-143 -533h-1251l17 112l1038 1256h-163q-199 0 -334.5 -93.5t-259.5 -314.5l-99 20l134 499h1191zM865 1911q60 0 103 -42.5t43 -103.5q0 -62 -43 -104.5t-105 -42.5
q-60 0 -102.5 43.5t-42.5 103.5t43 103t104 43z" />
    <glyph glyph-name="zdotaccent" unicode="&#x17c;" horiz-adv-x="1063" 
d="M851 346l90 -33q-40 -130 -118 -215q-120 -128 -293 -128q-82 0 -147.5 24t-206.5 105q-29 17 -43 17q-28 0 -29 -58q-1 -41 -21.5 -64.5t-55.5 -23.5q-29 0 -47.5 19.5t-18.5 50.5q0 73 136 229q86 98 165.5 160.5t196.5 124.5q148 77 170.5 90t87.5 56
q-85 -29 -166 -29q-57 0 -186 21q-81 14 -116 14q-48 0 -71 -21.5t-59 -99.5l-87 30q128 364 407 364q61 0 121.5 -19t153.5 -68q67 -36 89 -36q26 0 44 64q16 59 56 59q25 0 43.5 -20t18.5 -47q0 -56 -62 -146.5t-170 -192.5q-71 -68 -133 -107t-244 -132q-67 -34 -130 -76
q119 21 184 21q93 0 195 -32q94 -29 112 -29q76 0 134 128zM580 1403q61 0 103.5 -42.5t42.5 -103.5q0 -62 -43 -104.5t-105 -42.5q-59 0 -102 43.5t-43 103.5q0 61 43 103.5t104 42.5z" />
    <glyph glyph-name="Zcaron" unicode="&#x17d;" horiz-adv-x="1442" 
d="M1465 1479l-16 -111l-1045 -1257h185q168 0 287 57q110 53 193.5 145t161.5 245l104 -25l-143 -533h-1251l17 112l1038 1256h-163q-199 0 -334.5 -93.5t-259.5 -314.5l-99 20l134 499h1191zM1294 1946l-321 -361h-209l-172 361h120l185 -180l259 180h138z" />
    <glyph glyph-name="zcaron" unicode="&#x17e;" horiz-adv-x="1063" 
d="M1016 1456l-322 -360h-209l-172 360h120l185 -179l259 179h139zM851 346l90 -33q-40 -130 -118 -215q-120 -128 -293 -128q-82 0 -147.5 24t-206.5 105q-29 17 -43 17q-28 0 -29 -58q-1 -41 -21.5 -64.5t-55.5 -23.5q-29 0 -47.5 19.5t-18.5 50.5q0 73 136 229
q86 98 165.5 160.5t196.5 124.5q148 77 170.5 90t87.5 56q-85 -29 -166 -29q-57 0 -186 21q-81 14 -116 14q-48 0 -71 -21.5t-59 -99.5l-87 30q128 364 407 364q61 0 121.5 -19t153.5 -68q67 -36 89 -36q26 0 44 64q16 59 56 59q25 0 43.5 -20t18.5 -47q0 -56 -62 -146.5
t-170 -192.5q-71 -68 -133 -107t-244 -132q-67 -34 -130 -76q119 21 184 21q93 0 195 -32q94 -29 112 -29q76 0 134 128z" />
    <glyph glyph-name="longs" unicode="&#x17f;" horiz-adv-x="797" 
d="M865 949l-33 -126h-256l-97 -439q-101 -460 -207 -752l-370 -51q88 139 239 689l131 553h-202l34 126h201q76 274 189 398q150 162 352 162q124 0 199 -61q82 -65 82 -163q0 -71 -44.5 -116.5t-113.5 -45.5q-61 0 -100.5 38t-39.5 97q0 52 48 116q9 11 9 19q0 20 -43 20
q-79 0 -127 -92q-39 -74 -91 -287l-21 -85h261z" />
    <glyph glyph-name="florin" unicode="&#x192;" horiz-adv-x="1175" 
d="M1060 913l-17 -117h-284l-32 -186q-22 -132 -85 -440q-55 -268 -177 -425q-128 -164 -314 -164q-106 0 -162 60q-45 47 -45 114q0 70 45.5 116.5t112.5 46.5q51 0 84 -29t33 -74q0 -63 -38 -103q-15 -16 -15 -21q0 -18 29 -18q63 0 101 92q21 53 62 317l47 283l70 431
h-242l17 117h249q56 255 146 390q64 96 157.5 151.5t191.5 55.5q92 0 153 -51q57 -48 57 -130q0 -69 -41.5 -112t-106.5 -43q-58 0 -92.5 31.5t-34.5 84.5q0 41 40 90q9 11 9 23q0 13 -23 13q-47 0 -79 -51q-24 -38 -37 -88t-31 -177l-28 -187h280z" />
    <glyph glyph-name="Aringacute" unicode="&#x1fa;" horiz-adv-x="1517" 
d="M985 1508l268 -1273q17 -83 64 -106q38 -18 121 -18h28l-15 -111h-765l15 111h32q102 0 136 16q35 15 35 48q0 15 -10 65l-41 211h-474l-95 -165q-29 -51 -29 -90q0 -85 167 -85h26l-15 -111h-587l15 111h11q69 0 141.5 56t131.5 154l713 1187h127zM828 562l-96 492
l-288 -492h384zM952 2044q91 0 156 -64q64 -64 64 -156t-64 -156q-65 -64 -158 -64q-89 0 -154 64q-64 65 -64 156q0 93 64 156q66 64 156 64zM952 1934q-45 0 -77.5 -32.5t-32.5 -77.5t32 -77.5t77 -32.5q46 0 78.5 32t32.5 78t-32 78t-78 32zM553 1955l255 285
q51 58 78 75.5t65 17.5q46 0 78 -31t32 -75q0 -60 -58 -91l-340 -181h-110z" />
    <glyph glyph-name="aringacute" unicode="&#x1fb;" horiz-adv-x="1366" 
d="M379 1481l255 284q51 58 78 75.5t65 17.5q46 0 78 -31t32 -75q0 -60 -58 -91l-340 -180h-110zM718 1526q91 0 156 -65q64 -64 64 -155q0 -92 -64 -156q-65 -65 -159 -65q-88 0 -152 65q-65 64 -65 156t65 155q66 65 155 65zM718 1416q-45 0 -77.5 -32.5t-32.5 -78.5
q0 -44 32.5 -77t76.5 -33q46 0 78.5 32t32.5 79q0 45 -32 77.5t-78 32.5zM901 949h323l-202 -680q-20 -79 -20 -93q0 -13 9 -23t20 -10q26 0 89 68t123 161l80 -51q-51 -89 -135 -185q-146 -166 -295 -166q-61 0 -108 31.5t-61 82.5q-5 18 -5 66q-59 -77 -109 -112
q-99 -67 -224 -67q-159 0 -258 106q-97 103 -97 264q0 226 159 418q180 220 427 220q181 0 256 -127zM683 867q-125 0 -217 -196q-45 -93 -72.5 -203t-27.5 -192q0 -75 33.5 -118.5t90.5 -43.5q121 0 213 199q46 98 75.5 213t29.5 192q0 67 -34.5 108t-90.5 41z" />
    <glyph glyph-name="AEacute" unicode="&#x1fc;" horiz-adv-x="1821" 
d="M1849 1479l-82 -501h-100q-1 191 -37 260q-67 130 -246 130h-22q-54 0 -77 -19.5t-39 -78.5l-120 -449h19q227 6 313 252l96 -15l-184 -689l-96 15q11 78 11 127q0 122 -73 168q-50 31 -93 31h-23l-129 -483q-11 -39 -11 -65q0 -51 96 -51h25q205 0 390 176
q105 101 172 243l102 -24l-136 -506h-1215l14 111h9q126 0 156 28q13 12 20 31t35 125l69 259h-350l-186 -297q-25 -40 -25 -68q0 -40 39 -58.5t126 -19.5l-14 -111h-449l15 111q43 10 67 33t78 105l602 922q41 63 41 107q0 42 -39.5 66t-107.5 24h-64l15 111h1408zM723 665
l182 681q2 6 2 8q1 13 -18 13q-14 0 -27 -19l-442 -683h303zM1008 1584l255 285q52 59 78.5 76t64.5 17q46 0 78 -31t32 -75q0 -60 -58 -91l-340 -181h-110z" />
    <glyph glyph-name="aeacute" unicode="&#x1fd;" horiz-adv-x="1669" 
d="M654 200q-132 -230 -413 -230q-133 0 -208 58q-72 56 -72 155q0 142 150 221q101 53 208 79.5t344 56.5q36 127 36 196q0 60 -39 96q-57 51 -159 51q-46 0 -75 -9.5t-29 -25.5q0 -9 15 -26q45 -54 45 -97q0 -57 -44.5 -94t-111.5 -37q-78 0 -123 52q-39 44 -39 103
q0 102 98.5 166t256.5 64q133 0 218.5 -32.5t149.5 -108.5q79 66 184 103.5t211 37.5q150 0 248 -83q80 -68 80 -165q0 -211 -347 -312q-137 -40 -305 -49q-6 -58 -6 -91q0 -102 61 -152q45 -37 116 -37q149 0 312 167l70 -70q-190 -217 -472 -217q-294 0 -360 230zM637 438
q-142 -14 -221 -49q-132 -60 -132 -165q0 -47 29.5 -77.5t74.5 -30.5q103 0 178 117q33 51 71 205zM950 466q173 25 270 108q54 45 85 102.5t31 110.5q0 44 -24 70t-65 26q-127 0 -217 -182q-56 -112 -80 -235zM761 1096l255 284q51 58 78.5 75.5t64.5 17.5q46 0 78 -31
t32 -75q0 -60 -58 -91l-340 -180h-110z" />
    <glyph glyph-name="Oslashacute" unicode="&#x1fe;" horiz-adv-x="1706" 
d="M1335 1427l126 156h133l-176 -217q214 -181 214 -462q0 -295 -181 -545q-154 -214 -390 -316q-171 -74 -356 -74q-211 0 -354 86l-183 -225h-133l233 286q-194 172 -194 470q0 262 144 488q145 227 377 344q184 92 398 92q203 0 342 -83zM1211 1276q-18 33 -40 54
q-72 68 -175 68q-224 0 -381 -316q-68 -137 -118 -318q-57 -207 -57 -360q0 -33 5 -70zM1250 1160l-771 -948q70 -131 221 -131q223 0 391 321q70 133 115 301q50 188 50 349q0 54 -6 108zM951 1584l255 285q52 59 78.5 76t64.5 17q46 0 78 -31t32 -76q0 -59 -58 -90
l-340 -181h-110z" />
    <glyph glyph-name="oslashacute" unicode="&#x1ff;" horiz-adv-x="1175" 
d="M793 963l126 221h111l-143 -250q218 -97 218 -350q0 -202 -120 -362q-97 -130 -256 -196q-132 -55 -277 -55q-56 0 -111 9l-137 -238h-110l152 266q-51 22 -87 51q-64 53 -101.5 139.5t-37.5 184.5q0 166 103 316q98 142 255 217q132 63 274 63q65 0 141 -16zM733 857
q-38 26 -81 26q-130 0 -222 -224q-40 -97 -66 -221.5t-26 -216.5q0 -20 4 -45zM786 757l-389 -679q30 -19 70 -19q135 0 219 214q43 106 72.5 238t29.5 211q0 13 -2 35zM490 1096l255 284q51 58 78 75.5t65 17.5q46 0 78 -31t32 -75q0 -60 -58 -91l-340 -180h-110z" />
    <glyph glyph-name="Scommaaccent" unicode="&#x218;" horiz-adv-x="1403" 
d="M1364 1464l-90 -539l-108 19q-3 158 -51 252q-45 92 -130 145q-90 57 -207 57t-200 -52q-92 -56 -92 -169q0 -88 65 -148q41 -38 164 -79q236 -78 355 -147q183 -106 183 -346q0 -222 -175 -359q-165 -129 -422 -129q-140 0 -242 37.5t-203 126.5l-118 -133h-91l102 579
l107 -15q-1 -190 70 -299q122 -185 369 -185q169 0 256 84q64 61 64 147q0 91 -71 146.5t-278 125.5q-129 44 -189 75t-109 78q-114 109 -114 277q0 154 91 282q73 103 191 159t262 56q233 0 410 -157l108 111h93zM225 -685q253 114 253 253q-28 -5 -51 -5q-68 0 -105.5 38
t-37.5 107q0 75 48.5 122t125.5 47q86 0 139.5 -59t53.5 -153q0 -275 -388 -425z" />
    <glyph glyph-name="scommaaccent" unicode="&#x219;" horiz-adv-x="985" 
d="M530 979q173 0 284 -80q81 -57 81 -148q0 -64 -39.5 -103.5t-102.5 -39.5q-61 0 -101 35t-40 89q0 25 6.5 40t30.5 44q13 15 13 23q0 18 -34.5 31t-79.5 13q-82 0 -133 -34.5t-51 -88.5q0 -42 34.5 -72.5t125.5 -69.5q101 -44 154 -78q140 -89 140 -235q0 -106 -70 -193
q-55 -67 -154.5 -104.5t-225.5 -37.5q-167 0 -273 71q-91 62 -91 165q0 66 39 106.5t103 40.5q66 0 105 -37q41 -40 41 -91q0 -31 -10 -49t-43 -46q-9 -8 -9 -19q0 -23 36 -37.5t93 -14.5q101 0 156 53q39 39 39 87q0 41 -27 69.5t-91 55.5q-127 53 -174 82
q-147 90 -147 248q0 150 111.5 237.5t303.5 87.5zM0 -685q253 114 253 253q-29 -5 -51 -5q-68 0 -105.5 38t-37.5 107q0 75 48.5 122t125.5 47q86 0 139.5 -59t53.5 -153q0 -274 -388 -425z" />
    <glyph glyph-name="uni021A" unicode="&#x21a;" horiz-adv-x="1479" 
d="M1560 1479l-89 -579l-110 9q7 82 7 123q0 162 -63 249t-180 87q-44 0 -56 -13t-30 -80l-263 -979q-28 -106 -28 -130q0 -34 31 -44.5t131 -10.5h53l-15 -111h-813l15 111h54q126 0 156 28q14 13 20.5 31t34.5 126l267 993q8 32 8 49q0 30 -58 30q-88 0 -147 -37
q-152 -97 -293 -431l-102 33l146 546h1324zM263 -685q253 114 253 253q-29 -5 -51 -5q-68 0 -105.5 38t-37.5 107q0 75 48.5 122t125.5 47q86 0 139.5 -59t53.5 -153q0 -275 -388 -425z" />
    <glyph glyph-name="uni021B" unicode="&#x21b;" horiz-adv-x="833" 
d="M614 373l76 -54q-89 -134 -140 -189q-148 -159 -307 -159q-95 0 -150 61q-44 49 -44 108t52 233l133 450h-178l37 126h178l113 382h323l-114 -382h234l-37 -126h-234l-143 -482q-42 -143 -42 -168q0 -15 9.5 -26t21.5 -11q31 0 94 70.5t118 166.5zM-128 -685
q253 114 253 253q-29 -5 -51 -5q-68 0 -105.5 38t-37.5 107q0 75 48.5 122t125.5 47q86 0 139.5 -59t53.5 -153q0 -274 -388 -425z" />
    <glyph glyph-name="circumflex" unicode="&#x2c6;" horiz-adv-x="682" 
d="M288 1096l322 356h207l171 -356h-120l-184 175l-259 -175h-137z" />
    <glyph glyph-name="caron" unicode="&#x2c7;" horiz-adv-x="682" 
d="M1073 1456l-321 -360h-209l-172 360h120l185 -179l259 179h138z" />
    <glyph glyph-name="uni02C9" unicode="&#x2c9;" horiz-adv-x="682" 
d="M351 1315h683l-44 -156h-683z" />
    <glyph glyph-name="breve" unicode="&#x2d8;" horiz-adv-x="682" 
d="M376 1436h95q7 -80 44 -121q50 -54 162 -54q127 0 202 77q46 48 59 98h97q-9 -114 -87 -209q-105 -127 -290 -127q-143 0 -214 75q-71 74 -71 202q0 19 3 59z" />
    <glyph glyph-name="dotaccent" unicode="&#x2d9;" horiz-adv-x="682" 
d="M444 1403q61 0 103.5 -42.5t42.5 -103.5q0 -62 -43 -104.5t-105 -42.5q-60 0 -102.5 43.5t-42.5 103.5t43 103t104 43z" />
    <glyph glyph-name="ring" unicode="&#x2da;" horiz-adv-x="682" 
d="M664 1526q91 0 156 -65q64 -64 64 -155q0 -92 -64 -156q-65 -65 -159 -65q-88 0 -152 65q-65 64 -65 156t65 155q65 65 155 65zM664 1416q-45 0 -77.5 -32.5t-32.5 -78.5q0 -45 32.5 -77.5t76.5 -32.5q46 0 78.5 32t32.5 79q0 45 -32 77.5t-78 32.5z" />
    <glyph glyph-name="ogonek" unicode="&#x2db;" horiz-adv-x="682" 
d="M366 0q-65 -61 -65 -128q0 -33 17 -53t44 -20q43 0 102 47l37 -63q-91 -137 -205 -137q-68 0 -112 46q-45 48 -45 122q0 105 90 186h137z" />
    <glyph glyph-name="tilde" unicode="&#x2dc;" horiz-adv-x="682" 
d="M954 1399h97q-4 -76 -53 -146q-79 -112 -202 -112q-62 0 -172 43q-110 42 -149 42q-70 0 -85 -85h-97q7 94 59 160q78 98 195 98q62 0 161 -39q109 -43 144 -43q78 0 102 82z" />
    <glyph glyph-name="hungarumlaut" unicode="&#x2dd;" horiz-adv-x="682" 
d="M180 1109l252 251q62 63 85 77.5t61 14.5q46 0 78 -30.5t32 -75.5q0 -66 -58 -91l-340 -146h-110zM592 1109l251 251q63 63 86 77.5t60 14.5q46 0 78 -30.5t32 -75.5q0 -66 -58 -91l-340 -146h-109z" />
    <glyph glyph-name="tonos" unicode="&#x384;" horiz-adv-x="588" 
d="M490 1073l-81 26l50 414q18 150 130 150q54 0 92 -36t38 -88q0 -43 -30 -99z" />
    <glyph glyph-name="dieresistonos" unicode="&#x385;" horiz-adv-x="588" 
d="M415 1073l-78 33l85 408q29 138 132 138q54 0 92 -36t38 -87q0 -48 -39 -108zM126 1403q61 0 103.5 -42.5t42.5 -103.5q0 -62 -43 -104.5t-105 -42.5q-60 0 -102.5 43.5t-42.5 103.5t43 103t104 43zM810 1403q61 0 103.5 -42.5t42.5 -103.5q0 -62 -43 -104.5t-105 -42.5
q-59 0 -102 43.5t-43 103.5q0 61 43 103.5t104 42.5z" />
    <glyph glyph-name="Alphatonos" unicode="&#x386;" horiz-adv-x="1589" 
d="M1057 1508l268 -1273q17 -83 64 -106q38 -18 121 -18h28l-15 -111h-765l15 111h32q102 0 136 16q35 15 35 48q0 15 -10 65l-41 211h-474l-95 -165q-29 -51 -29 -90q0 -85 167 -85h26l-15 -111h-587l15 111h11q69 0 141.5 56t131.5 154l713 1187h127zM900 562l-96 492
l-288 -492h384zM403 1073l-81 26l50 414q18 150 130 150q54 0 92 -36t38 -88q0 -44 -30 -99z" />
    <glyph glyph-name="uni0387" unicode="&#x387;" horiz-adv-x="588" 
d="M262 706q74 0 126 -52t52 -125q0 -75 -52.5 -127t-127.5 -52q-72 0 -124 52.5t-52 125.5q0 74 52 126t126 52z" />
    <glyph glyph-name="Epsilontonos" unicode="&#x388;" horiz-adv-x="1751" 
d="M1724 1479l-82 -501h-106q-3 178 -43 260q-63 130 -281 130h-77q-64 0 -88.5 -18.5t-41.5 -79.5l-120 -449h41q169 0 252 94q51 57 89 158l108 -15l-184 -688l-108 15q11 76 11 127q0 198 -194 198h-45l-129 -482q-11 -42 -11 -66q0 -51 110 -51h74q136 0 241 52
q105 51 201 151t153 217l108 -24l-136 -507h-1317l15 111h8q126 0 156 28q14 13 20.5 31t35.5 126l237 887q28 103 28 130q0 34 -30.5 44.5t-131.5 10.5h-38l15 111h1260zM190 1073l-81 26l50 414q18 150 130 150q54 0 92 -36t38 -88q0 -43 -30 -99z" />
    <glyph glyph-name="Etatonos" unicode="&#x389;" horiz-adv-x="2016" 
d="M1375 695h-523l-107 -399q-28 -104 -28 -130q0 -34 31 -44.5t131 -10.5h22l-15 -111h-736l14 111h9q125 0 156 28q13 13 19.5 31t35.5 126l238 887q28 105 28 129q0 35 -30.5 45.5t-131.5 10.5h-38l15 111h768l-14 -111h-25q-126 0 -156 -28q-14 -13 -20 -30t-35 -127
l-97 -362h523l97 362q28 104 28 129q0 35 -30.5 45.5t-131.5 10.5h-22l15 111h736l-15 -111h-8q-125 0 -156 -28q-13 -12 -19 -29t-36 -128l-238 -887q-28 -105 -28 -130q0 -34 31 -44.5t131 -10.5h46l-16 -111h-776l15 111h25q126 0 156 28q14 13 19.5 28.5t35.5 128.5z
M190 1073l-81 26l50 414q18 150 130 150q54 0 92 -36t38 -88q0 -43 -30 -99z" />
    <glyph glyph-name="Iotatonos" unicode="&#x38a;" horiz-adv-x="1143" 
d="M914 0h-765l15 111h15q125 0 156 28q13 13 19.5 31t35.5 126l238 887q27 103 27 129q0 35 -30.5 45.5t-131.5 10.5h-44l15 111h765l-15 -111h-15q-125 0 -156 -28q-13 -12 -19 -30t-36 -127l-237 -887q-28 -103 -28 -130q0 -34 31 -44.5t131 -10.5h44zM190 1073l-81 26
l50 414q18 150 130 150q54 0 92 -36t38 -88q0 -43 -30 -99z" />
    <glyph glyph-name="Omicrontonos" unicode="&#x38c;" horiz-adv-x="1795" 
d="M1093 1510q279 0 460 -186q169 -175 169 -421q0 -294 -181 -544q-155 -214 -391 -316q-171 -74 -361 -74q-296 0 -467 181q-159 168 -159 435q0 262 144 490q78 124 197 223q255 212 589 212zM1087 1399q-226 0 -383 -317q-67 -136 -118 -318q-57 -208 -57 -370
q0 -129 57 -213q68 -101 203 -101q223 0 391 322q76 145 120.5 323.5t44.5 339.5q0 144 -54 227q-29 44 -75 71q-61 36 -129 36zM190 1073l-81 26l50 414q18 150 130 150q54 0 92 -36t38 -88q0 -43 -30 -99z" />
    <glyph glyph-name="Upsilontonos" unicode="&#x38e;" horiz-adv-x="1823" 
d="M1188 777l326 430q34 44 34 88q0 34 -30.5 53.5t-85.5 19.5h-74l15 111h599l-14 -111q-94 -5 -148 -38q-74 -45 -168 -168l-408 -534l-89 -332q-28 -105 -28 -130q0 -34 31 -44.5t131 -10.5h53l-15 -111h-797l15 111h38q125 0 156 28q14 13 20 31t35 126l89 332l-240 622
q-27 72 -57 91q-40 27 -118 27h-46l15 111h749l-15 -111h-88q-52 0 -71 -10t-19 -38q0 -22 19 -71zM190 1073l-81 26l50 414q18 150 130 150q54 0 92 -36t38 -88q0 -43 -30 -99z" />
    <glyph glyph-name="Omegatonos" unicode="&#x38f;" horiz-adv-x="1882" 
d="M716 297l-80 -297h-632l-4 507l114 24q9 -143 69 -207.5t182 -64.5h125l9 33q-104 47 -169 120q-113 130 -113 325q0 186 93 353q140 253 430 356q184 65 401 65q328 0 498 -152q76 -67 120 -165q48 -107 48 -231q0 -239 -156.5 -416.5t-434.5 -254.5l-9 -33h125
q124 0 226 71.5t162 200.5l107 -24l-161 -507h-744l79 297q92 37 178 123q127 128 192 340q46 152 46 313q0 177 -78 255q-72 72 -209 72q-199 0 -341 -184q-78 -101 -127 -260q-50 -162 -50 -326q0 -106 29.5 -201t74.5 -132zM210 1073l-80 26l49 414q18 150 131 150
q54 0 92 -36t38 -88q0 -42 -31 -99z" />
    <glyph glyph-name="iotadieresistonos" unicode="&#x390;" horiz-adv-x="868" 
d="M638 979l-216 -729q-20 -68 -20 -87q0 -33 32 -33q62 0 208 231l80 -56q-105 -174 -206.5 -254t-218.5 -80q-114 0 -170 69q-43 52 -43 115q0 43 32 150l103 348q33 110 33 137q0 38 -24.5 50.5t-101.5 12.5h-49l13 96zM491 1073l-78 33l85 408q29 138 132 138
q54 0 92 -36t38 -87q0 -48 -39 -108zM202 1403q61 0 103.5 -42.5t42.5 -103.5q0 -62 -43 -104.5t-105 -42.5q-60 0 -102.5 43.5t-42.5 103.5t43 103t104 43zM886 1403q61 0 103.5 -42.5t42.5 -103.5q0 -62 -43 -104.5t-105 -42.5q-59 0 -102 43.5t-43 103.5q0 61 43 103.5
t104 42.5z" />
    <glyph glyph-name="Alpha" unicode="&#x391;" horiz-adv-x="1517" 
d="M985 1508l268 -1273q17 -83 64 -106q38 -18 121 -18h28l-15 -111h-765l15 111h32q102 0 136 16q35 15 35 48q0 15 -10 65l-41 211h-474l-95 -165q-29 -51 -29 -90q0 -85 167 -85h26l-15 -111h-587l15 111h11q69 0 141.5 56t131.5 154l713 1187h127zM828 562l-96 492
l-288 -492h384z" />
    <glyph glyph-name="Beta" unicode="&#x392;" horiz-adv-x="1554" 
d="M1001 753q396 -68 396 -354q0 -163 -118 -266q-71 -61 -213 -97t-313 -36h-856l15 111h8q126 0 156 28q14 12 20.5 30.5t34.5 126.5l238 887q28 103 28 129q0 35 -30.5 45.5t-131.5 10.5h-38l15 111h721q262 0 382 -72q159 -94 159 -278q0 -203 -209 -304
q-113 -55 -264 -72zM631 813h62q110 0 164.5 11t99.5 42q61 42 97 111q44 87 44 185q0 95 -42 143q-54 63 -156 63h-31q-55 0 -78.5 -23.5t-43.5 -99.5zM601 702l-121 -452q-15 -56 -15 -77q0 -62 109 -62h67q162 0 250 76q53 45 83.5 123t30.5 168q0 127 -76 181
q-37 27 -80 35t-145 8h-103z" />
    <glyph glyph-name="Gamma" unicode="&#x393;" horiz-adv-x="1422" 
d="M1491 1479l-82 -501h-106q-3 178 -43 260q-63 130 -281 130h-77q-65 0 -89 -18.5t-41 -79.5l-261 -974q-28 -105 -28 -130q0 -34 31 -44.5t131 -10.5h44l-15 -111h-758l15 111h8q126 0 156 28q14 13 20.5 31t34.5 126l238 887q28 104 28 130q0 34 -30.5 44.5t-131.5 10.5
h-38l15 111h1260z" />
    <glyph glyph-name="uni0394" unicode="&#x394;" horiz-adv-x="1391" 
d="M-123 0l906 1508h127l317 -1508h-1350zM202 273h482q116 0 116 63q0 18 -9 65l-134 653z" />
    <glyph glyph-name="Epsilon" unicode="&#x395;" horiz-adv-x="1517" 
d="M1491 1479l-82 -501h-106q-3 178 -43 260q-63 130 -281 130h-77q-65 0 -89 -18.5t-41 -79.5l-120 -449h41q169 0 252 94q50 57 89 158l108 -15l-184 -688l-108 15q11 77 11 128q0 197 -194 197h-45l-129 -482q-11 -41 -11 -66q0 -51 110 -51h74q135 0 240 52
q106 51 201.5 150.5t153.5 217.5l108 -24l-136 -507h-1317l15 111h8q126 0 156 28q14 13 20.5 31t34.5 126l238 887q28 104 28 130q0 34 -30.5 44.5t-131.5 10.5h-38l15 111h1260z" />
    <glyph glyph-name="Zeta" unicode="&#x396;" horiz-adv-x="1442" 
d="M1465 1479l-16 -111l-1045 -1257h185q168 0 287 57q110 53 193.5 145t161.5 245l104 -25l-143 -533h-1251l17 112l1038 1256h-163q-199 0 -334.5 -93.5t-259.5 -314.5l-99 20l134 499h1191z" />
    <glyph glyph-name="Eta" unicode="&#x397;" horiz-adv-x="1782" 
d="M1142 695h-524l-107 -399q-28 -106 -28 -130q0 -34 31 -44.5t131 -10.5h22l-15 -111h-736l15 111h8q126 0 156 28q14 13 20.5 31t34.5 126l238 887q28 104 28 129q0 35 -30.5 45.5t-131.5 10.5h-38l15 111h769l-15 -111h-25q-125 0 -156 -28q-13 -13 -19.5 -30
t-35.5 -127l-97 -362h524l97 362q27 103 27 129q0 35 -30.5 45.5t-131.5 10.5h-21l15 111h736l-15 -111h-9q-125 0 -156 -28q-13 -13 -19.5 -31t-35.5 -126l-237 -887q-28 -103 -28 -130q0 -34 31 -44.5t131 -10.5h45l-15 -111h-776l15 111h25q125 0 156 28q13 12 19.5 30.5
t35.5 126.5z" />
    <glyph glyph-name="Theta" unicode="&#x398;" horiz-adv-x="1706" 
d="M1004 1510q279 0 460 -186q169 -175 169 -420q0 -295 -181 -545q-155 -214 -391 -316q-171 -74 -361 -74q-296 0 -467 181q-159 168 -159 435q0 262 144 490q78 124 197 223q255 212 589 212zM998 1399q-226 0 -383 -317q-77 -154 -126 -348.5t-49 -342.5q0 -125 57 -210
q68 -101 203 -101q223 0 391 322q77 145 121 323.5t44 340.5q0 143 -54 226q-29 44 -75 71q-61 36 -129 36zM647 491h-111l133 497h111q-7 -36 -7 -65q0 -59 29.5 -93.5t80.5 -34.5q126 0 180 193h111l-133 -497h-111q7 37 7 64q0 128 -110 128q-138 0 -180 -192z" />
    <glyph glyph-name="Iota" unicode="&#x399;" horiz-adv-x="909" 
d="M680 0h-764l15 111h14q126 0 156 28q14 13 20.5 31t34.5 126l238 887q28 104 28 129q0 35 -30.5 45.5t-131.5 10.5h-44l15 111h764l-15 -111h-14q-125 0 -156 -28q-13 -13 -19.5 -30t-35.5 -127l-238 -887q-28 -105 -28 -130q0 -34 31 -44.5t131 -10.5h44z" />
    <glyph glyph-name="Kappa" unicode="&#x39a;" horiz-adv-x="1593" 
d="M625 722l547 510q60 55 60 86q0 50 -84 50h-72l15 111h613l-15 -111q-105 -5 -178 -39.5t-173 -126.5l-333 -306l293 -632q50 -107 83.5 -130t138.5 -23h30l-15 -111h-768l15 111h64q69 0 95.5 10t26.5 36q0 15 -22 62l-208 438l-173 -159l-54 -202q-28 -104 -28 -130
q0 -34 31 -44.5t131 -10.5h22l-15 -111l-736 1l15 111h8q126 0 156 28q14 13 20 30.5t36 126.5l237 886q28 105 28 129q0 35 -30.5 45.5t-131.5 10.5h-38l15 111h769l-15 -111h-25q-125 0 -156 -28q-14 -13 -20 -30.5t-35 -126.5z" />
    <glyph glyph-name="Lambda" unicode="&#x39b;" horiz-adv-x="1575" 
d="M985 1508l268 -1273q17 -83 64 -106q38 -18 121 -18h28l-15 -111h-765l15 111h32q102 0 136 16q35 15 35 48q0 16 -10 65l-162 814l-448 -768q-29 -50 -29 -90q0 -85 167 -85h26l-15 -111h-587l15 111h11q69 0 141.5 56t131.5 154l713 1187h127z" />
    <glyph glyph-name="Mu" unicode="&#x39c;" horiz-adv-x="1933" 
d="M831 1479l72 -948l569 948h552l-15 -111h-9q-126 0 -156 -28q-13 -12 -19 -30t-36 -127l-238 -887q-27 -103 -27 -130q0 -34 31 -44.5t131 -10.5h38l-15 -111h-753l15 111h9q125 0 156 28q13 13 19.5 31.5t35.5 125.5l229 856l-690 -1152h-129l-81 1160l-191 -716
q-44 -175 -44 -221q0 -54 43 -82.5t124 -29.5l-15 -111h-486l15 111q80 1 127 70.5t98 262.5l199 739q27 103 27 129q0 35 -30.5 45.5t-131.5 10.5h-38l15 111h599z" />
    <glyph glyph-name="Nu" unicode="&#x39d;" horiz-adv-x="1745" 
d="M717 1479l549 -1038l159 594q44 172 44 220q0 55 -43.5 84t-124.5 29h-16l15 111h568l-15 -111q-103 -1 -166 -55q-40 -34 -57.5 -72.5t-66.5 -205.5l-286 -1064h-163l-606 1160l-184 -687q-44 -175 -44 -221q0 -112 179 -112h21l-15 -111h-582l15 111q105 3 165 55
q40 35 58 75t66 203l230 859q-19 36 -46 50.5t-75 14.5h-115l15 111h521z" />
    <glyph glyph-name="Xi" unicode="&#x39e;" horiz-adv-x="1533" 
d="M313 1479h1193l-69 -501h-106q-4 108 -38 155q-53 73 -187 73h-515q-107 0 -176.5 -51.5t-130.5 -176.5h-106zM1289 531l107 -24l-135 -507h-1261l33 507l121 24q-1 -15 -1 -23q0 -114 70 -174.5t202 -60.5h505q247 0 359 258zM627 1001q0 -72 22 -116q22 -42 65 -67
t93 -25q168 0 248 208h108l-139 -531h-112q0 212 -173 212t-255 -212h-108l139 531h112z" />
    <glyph glyph-name="Omicron" unicode="&#x39f;" horiz-adv-x="1706" 
d="M1004 1510q279 0 460 -186q169 -175 169 -421q0 -294 -181 -544q-155 -214 -391 -316q-171 -74 -361 -74q-296 0 -467 181q-159 168 -159 435q0 262 144 490q78 124 197 223q255 212 589 212zM998 1399q-226 0 -383 -317q-67 -136 -118 -318q-57 -207 -57 -370
q0 -129 57 -213q68 -101 203 -101q223 0 391 322q76 145 120.5 323.5t44.5 339.5q0 144 -54 227q-29 44 -75 71q-61 36 -129 36z" />
    <glyph glyph-name="Pi" unicode="&#x3a0;" horiz-adv-x="1782" 
d="M231 1479h1637l-15 -111h-9q-125 0 -156 -28q-13 -13 -19.5 -31t-35.5 -126l-237 -887q-28 -103 -28 -130q0 -34 31 -44.5t131 -10.5h45l-15 -111h-776l15 111h25q125 0 156 28q13 12 19.5 30.5t35.5 126.5l234 872q27 102 27 129q0 34 -30 45t-124 11h-190
q-121 0 -152 -28q-13 -12 -19 -28.5t-36 -128.5l-234 -872q-28 -106 -28 -130q0 -34 31 -44.5t131 -10.5h22l-15 -111h-736l15 111h8q126 0 156 28q14 13 20.5 31t34.5 126l238 887q28 103 28 129q0 35 -30.5 45.5t-131.5 10.5h-38z" />
    <glyph glyph-name="Rho" unicode="&#x3a1;" horiz-adv-x="1517" 
d="M607 636l-91 -340q-28 -104 -28 -130q0 -34 31 -44.5t131 -10.5h53l-15 -111h-766l15 111h7q125 0 156 28q14 13 20 31t35 126l238 887q28 105 28 129q0 35 -30.5 45.5t-131.5 10.5h-31l15 111h646q177 0 284.5 -21.5t175.5 -70.5q148 -106 148 -296q0 -167 -105 -283
q-101 -110 -303 -149q-118 -23 -316 -23h-166zM637 747h100q173 0 260 72q58 47 95.5 142t37.5 194q0 115 -63 168q-22 19 -59 32t-69 13h-34q-64 0 -88 -20.5t-43 -87.5z" />
    <glyph glyph-name="Sigma" unicode="&#x3a3;" horiz-adv-x="1456" 
d="M558 665l-251 699l31 115h1173l-109 -499l-108 -21q-9 173 -59 266q-45 81 -118 111q-72 30 -230 30h-177l185 -575l-597 -518h401q145 0 214 25q88 32 160.5 101t113.5 159l104 -25l-143 -533h-1257l32 118z" />
    <glyph glyph-name="Tau" unicode="&#x3a4;" horiz-adv-x="1479" 
d="M1560 1479l-89 -579l-110 9q7 82 7 123q0 162 -63 249t-180 87q-44 0 -56 -13t-30 -80l-263 -979q-28 -106 -28 -130q0 -34 31 -44.5t131 -10.5h53l-15 -111h-813l15 111h54q126 0 156 28q14 13 20.5 31t34.5 126l267 993q8 32 8 49q0 30 -58 30q-88 0 -147 -37
q-152 -97 -293 -431l-102 33l146 546h1324z" />
    <glyph glyph-name="Upsilon" unicode="&#x3a5;" horiz-adv-x="1442" 
d="M808 777l325 430q35 45 35 88q0 34 -31 53.5t-86 19.5h-73l15 111h599l-15 -111q-93 -5 -148 -38q-73 -45 -167 -168l-409 -534l-89 -332q-28 -104 -28 -130q0 -34 31 -44.5t131 -10.5h53l-15 -111h-797l15 111h38q126 0 156 28q14 13 20.5 31t34.5 126l89 332l-240 622
q-27 72 -57 91q-40 27 -117 27h-47l15 111h749l-15 -111h-88q-52 0 -71 -10t-19 -38q0 -22 20 -71z" />
    <glyph glyph-name="Phi" unicode="&#x3a6;" horiz-adv-x="1875" 
d="M643 242h-36q-607 -8 -607 415q0 192 111 328q117 143 360 207q174 45 396 45h42q2 8 8 33q6 24 6 42q0 35 -30.5 45.5t-131.5 10.5h-44l15 111h753l-14 -111h-15q-107 0 -139 -16.5t-48 -81.5q-3 -10 -10 -34q160 0 282 -20q362 -62 362 -396q0 -191 -110 -327
q-114 -140 -362 -206q-171 -46 -395 -46q-7 0 -42 1q-15 -55 -15 -76q0 -34 31 -44.5t131 -10.5h45l-15 -111h-754l15 111h14q126 0 156 28q18 16 37 87zM879 1124q-175 -7 -299 -79q-108 -63 -166 -192q-48 -107 -48 -231q0 -165 109 -226q73 -41 198 -43zM1023 355
q186 11 300 78q110 66 166 193q48 107 48 231q0 165 -109 226q-67 37 -198 43z" />
    <glyph glyph-name="Chi" unicode="&#x3a7;" horiz-adv-x="1517" 
d="M926 827l271 -603q31 -69 69.5 -91t130.5 -22h46l-15 -111h-792l14 111h84q60 0 82 9.5t22 35.5q0 16 -22 67l-148 349l-278 -271q-62 -61 -62 -109q0 -81 135 -81h45l-15 -111h-641l15 111q91 2 154 39q76 43 149 115l443 437l-258 572q-27 60 -54 77t-97 17h-75l15 111
h767l-15 -111h-68q-63 0 -86.5 -8.5t-23.5 -32.5q0 -18 19 -58l141 -311l253 250q48 47 48 95q0 65 -122 65h-34l15 111h622l-14 -111q-109 -6 -171 -39t-180 -146z" />
    <glyph glyph-name="Psi" unicode="&#x3a8;" horiz-adv-x="2056" 
d="M1234 0h-765l15 111h15q125 0 155 28q14 13 20.5 31t35.5 126l43 160q-240 0 -358 47q-98 39 -147 113q-50 75 -50 164q0 103 37 242l43 161q22 80 22 104q0 81 -110 81h-26l30 111h111q176 0 238 -31q48 -24 75.5 -70.5t27.5 -105.5q0 -42 -13 -89l-53 -200
q-35 -129 -35 -212q0 -183 240 -193l162 605q28 104 28 130q0 34 -31 44.5t-131 10.5h-44l15 111h765l-15 -111h-15q-125 0 -156 -28q-13 -12 -19 -30t-36 -127l-162 -605q183 8 272.5 93.5t150.5 311.5l53 200q44 161 153.5 228.5t328.5 67.5h116l-29 -111h-26
q-92 0 -125 -29q-21 -19 -30.5 -43t-32.5 -113l-43 -161q-45 -170 -93 -259q-85 -159 -260 -233t-468 -74l-43 -160q-27 -103 -27 -131q0 -33 31 -43.5t131 -10.5h44z" />
    <glyph glyph-name="uni03A9" unicode="&#x3a9;" horiz-adv-x="1814" 
d="M648 297l-80 -297h-632l-4 507l114 24q9 -143 69 -207.5t182 -64.5h125l9 33q-104 47 -169 120q-113 130 -113 325q0 186 93 353q140 253 430 356q184 65 401 65q328 0 498 -152q76 -67 120 -165q48 -107 48 -231q0 -239 -156.5 -416.5t-434.5 -254.5l-9 -33h125
q124 0 226 71.5t162 200.5l107 -24l-161 -507h-744l79 297q92 37 178 123q127 128 192 340q46 152 46 313q0 177 -78 255q-72 72 -209 72q-199 0 -341 -184q-78 -101 -127 -260q-50 -162 -50 -326q0 -106 29.5 -201t74.5 -132z" />
    <glyph glyph-name="Iotadieresis" unicode="&#x3aa;" horiz-adv-x="909" 
d="M680 0h-764l15 111h14q126 0 156 28q14 13 20.5 31t34.5 126l238 887q28 104 28 129q0 35 -30.5 45.5t-131.5 10.5h-44l15 111h764l-15 -111h-14q-125 0 -156 -28q-13 -13 -19.5 -30t-35.5 -127l-238 -887q-28 -105 -28 -130q0 -34 31 -44.5t131 -10.5h44zM434 1911
q61 0 103.5 -42.5t42.5 -103.5q0 -62 -43 -104.5t-105 -42.5q-60 0 -102.5 43t-42.5 104q0 60 43 103t104 43zM874 1911q60 0 103 -42.5t43 -103.5q0 -62 -43 -104.5t-105 -42.5q-60 0 -102.5 43.5t-42.5 103.5t43 103t104 43z" />
    <glyph glyph-name="Upsilondieresis" unicode="&#x3ab;" horiz-adv-x="1442" 
d="M808 777l325 430q35 45 35 88q0 34 -31 53.5t-86 19.5h-73l15 111h599l-15 -111q-93 -5 -148 -38q-73 -45 -167 -168l-409 -534l-89 -332q-28 -104 -28 -130q0 -34 31 -44.5t131 -10.5h53l-15 -111h-797l15 111h38q126 0 156 28q14 13 20.5 31t34.5 126l89 332l-240 622
q-27 72 -57 91q-40 27 -117 27h-47l15 111h749l-15 -111h-88q-52 0 -71 -10t-19 -38q0 -22 20 -71zM672 1911q60 0 103 -42.5t43 -103.5q0 -62 -43 -104.5t-105 -42.5q-60 0 -102.5 43t-42.5 104q0 60 43 103t104 43zM1112 1911q60 0 103 -42.5t43 -103.5q0 -62 -43 -104.5
t-105 -42.5q-59 0 -102 43.5t-43 103.5t43 103t104 43z" />
    <glyph glyph-name="alphatonos" unicode="&#x3ac;" horiz-adv-x="1377" 
d="M1290 277q-47 -95 -93 -157q-52 -71 -125 -110.5t-150 -39.5q-89 0 -136 53t-46 154q-32 -45 -61 -77q-118 -131 -307 -131q-153 0 -240 85q-101 98 -101 297q0 128 43.5 247t122.5 208q153 173 399 173q280 0 334 -196l88 166h277l-294 -472l6 -231q3 -112 46 -112
q31 0 72.5 53.5t76.5 136.5zM725 459l-6 245q-5 178 -97 178q-122 0 -204 -233q-69 -197 -69 -395q0 -195 91 -195q32 0 58 24q54 48 87 109zM730 1073l-79 33l85 408q29 138 132 138q54 0 92 -36t38 -87q0 -48 -39 -108z" />
    <glyph glyph-name="epsilontonos" unicode="&#x3ad;" horiz-adv-x="1100" 
d="M647 521l-37 -126h-92q-83 0 -128.5 -41t-45.5 -116q0 -58 35 -93q48 -50 130 -50q149 0 323 205l73 -63q-114 -141 -228.5 -204t-258.5 -63q-157 0 -266 52q-61 30 -101 82q-45 59 -45 135q0 124 109 192q58 37 168 47q-76 13 -122 67t-46 130q0 142 151 227
q135 77 348 77q189 0 284 -69q99 -70 99 -195q0 -86 -48 -138t-128 -52q-71 0 -115.5 41t-44.5 106q0 44 17.5 72t61.5 55q24 15 24 33q0 51 -92 51q-83 0 -139 -41q-80 -59 -80 -170q0 -71 40 -111t110 -40h44zM645 1073l-78 33l85 408q29 138 132 138q54 0 92 -36t38 -87
q0 -48 -40 -108z" />
    <glyph glyph-name="etatonos" unicode="&#x3ae;" horiz-adv-x="1318" 
d="M518 708q81 103 140 154q133 117 280 117q114 0 177 -69q53 -58 53 -153q0 -109 -49 -250l-89 -262q-66 -191 -131 -310.5t-144 -195.5q-68 -65 -158.5 -109t-155.5 -44q-34 0 -34 22q0 12 26 31q56 41 100 133t135 357l40 119l143 431q9 27 9 69q0 24 -18.5 41t-43.5 17
q-76 0 -194 -142q-67 -80 -111.5 -171t-86.5 -233l-78 -260h-322l160 540q30 100 30 179q0 44 -29.5 69t-81.5 25q-41 0 -53.5 4.5t-12.5 18.5q0 46 105.5 95t204.5 49q119 0 168 -60q37 -46 37 -100q0 -46 -16 -112zM768 1073l-79 33l86 408q28 138 131 138q54 0 92 -36
t38 -87q0 -48 -39 -108z" />
    <glyph glyph-name="iotatonos" unicode="&#x3af;" horiz-adv-x="797" 
d="M618 979l-216 -729q-19 -68 -19 -87q0 -33 32 -33q61 0 207 231l80 -56q-105 -175 -206 -254.5t-219 -79.5q-113 0 -169 69q-43 52 -43 115q0 44 31 150l104 348q32 110 32 137q0 38 -24.5 50.5t-101.5 12.5h-49l14 96zM469 1073l-79 33l85 408q29 138 132 138
q54 0 92 -36t38 -87q0 -48 -39 -108z" />
    <glyph glyph-name="upsilondieresistonos" unicode="&#x3b0;" horiz-adv-x="1247" 
d="M79 853l14 96l519 30l-174 -587q-25 -84 -25 -140q0 -77 47 -120q48 -44 124 -44q152 0 273 170q117 163 117 315q0 118 -75 166q-46 30 -59 52q-16 28 -16 64q0 54 39.5 91.5t95.5 37.5q80 0 129 -63.5t49 -167.5q0 -135 -64.5 -300t-164.5 -283q-168 -200 -426 -200
q-172 0 -280 92q-100 84 -100 227q0 57 23 136l68 228q32 108 32 137q0 38 -24.5 50.5t-101.5 12.5h-20zM729 1073l-78 33l85 408q29 138 131 138q54 0 92 -36t38 -88q0 -48 -39 -107zM440 1403q61 0 103.5 -42.5t42.5 -103.5q0 -62 -43 -104.5t-105 -42.5q-59 0 -102 43.5
t-43 103.5t43 103t104 43zM1124 1403q61 0 103.5 -42.5t42.5 -103.5q0 -62 -43 -104.5t-105 -42.5q-59 0 -102 43.5t-43 103.5q0 61 43 103.5t104 42.5z" />
    <glyph glyph-name="alpha" unicode="&#x3b1;" horiz-adv-x="1377" 
d="M1290 277q-47 -95 -93 -157q-52 -71 -125 -110.5t-150 -39.5q-89 0 -136 53t-46 154q-32 -45 -61 -77q-118 -131 -307 -131q-153 0 -240 85q-101 98 -101 297q0 128 43.5 247t122.5 208q153 173 399 173q280 0 334 -196l88 166h277l-294 -472l6 -231q3 -112 46 -112
q31 0 72.5 53.5t76.5 136.5zM725 459l-6 245q-5 178 -97 178q-122 0 -204 -233q-69 -197 -69 -395q0 -195 91 -195q32 0 58 24q54 48 87 109z" />
    <glyph glyph-name="beta" unicode="&#x3b2;" horiz-adv-x="1320" 
d="M317 87q-59 -237 -138 -455l-370 -51q88 139 239 690l125 528l-1 3l63 235q31 113 72 186t108 132q173 153 451 153q209 0 326 -96q115 -96 115 -249q0 -127 -79 -229q-52 -68 -113.5 -98t-191.5 -51q233 -32 233 -283q0 -211 -163 -378q-152 -156 -387 -156
q-199 0 -289 119zM602 838h61q85 0 133 20q101 44 159 189q36 90 36 178q0 187 -157 187q-133 0 -205 -146q-23 -46 -64 -197l-128 -478q-59 -221 -59 -315q0 -83 38 -124q40 -45 111 -45q123 0 215 130q42 59 69.5 144.5t27.5 155.5q0 104 -60 146q-41 29 -141 29h-70z" />
    <glyph glyph-name="gamma" unicode="&#x3b3;" horiz-adv-x="1092" 
d="M562 176q41 51 160 193q51 62 81.5 129.5t30.5 118.5q0 45 -40 106q-43 64 -43 120q0 59 41 97.5t104 38.5q74 0 108 -38t34 -120q0 -104 -62 -234q-43 -91 -93 -162.5t-195 -249.5q-77 -94 -143 -191l-1 -7q-19 -162 -24.5 -195t-19.5 -68q-52 -128 -160 -128
q-55 0 -92 34.5t-37 85.5q0 34 6 56.5t35 96.5q25 65 46 130q-4 398 -31 578t-83 180q-27 0 -47 -39t-63 -181l-88 27q98 425 330 425q83 0 136 -61q73 -84 103 -325q14 -119 14 -249q0 -86 -7 -168z" />
    <glyph glyph-name="delta" unicode="&#x3b4;" horiz-adv-x="1214" 
d="M494 959l-7 7q-98 94 -129 143t-31 109q0 133 138 212t370 79q228 0 328 -87q64 -56 64 -140q0 -67 -43 -111q-46 -48 -119 -48q-58 0 -95 33.5t-37 85.5q0 48 44 95q8 9 8 17q0 26 -40 42t-105 16q-75 0 -124 -25q-70 -37 -70 -101q0 -40 19 -71.5t80 -93.5l181 -184
q161 -164 161 -387q0 -281 -208 -441q-178 -138 -427 -138q-199 0 -310 104q-57 53 -89.5 135.5t-32.5 172.5q0 196 134 358t340 218zM589 868q-91 -45 -159 -209q-39 -97 -65.5 -221.5t-26.5 -216.5q0 -77 34.5 -119.5t96.5 -42.5q103 0 178 131q41 73 69 166t28 158
q0 133 -69 246q-24 39 -86 108z" />
    <glyph glyph-name="epsilon" unicode="&#x3b5;" horiz-adv-x="1100" 
d="M647 521l-37 -126h-92q-83 0 -128.5 -41t-45.5 -116q0 -58 35 -93q48 -50 130 -50q149 0 323 205l73 -63q-114 -141 -228.5 -204t-258.5 -63q-157 0 -266 52q-61 30 -101 82q-45 59 -45 135q0 124 109 192q58 37 168 47q-76 13 -122 67t-46 130q0 142 151 227
q135 77 348 77q189 0 284 -69q99 -70 99 -195q0 -86 -48 -138t-128 -52q-71 0 -115.5 41t-44.5 106q0 44 17.5 72t61.5 55q24 15 24 33q0 51 -92 51q-83 0 -139 -41q-80 -59 -80 -170q0 -71 40 -111t110 -40h44z" />
    <glyph glyph-name="zeta" unicode="&#x3b6;" horiz-adv-x="943" 
d="M740 1288q-69 2 -104 2q-136 3 -194 15q-44 9 -67 9q-47 0 -100 -97l-32 -60l-112 12l131 340q348 -49 644 -49q153 0 248 29q44 14 59 14q30 0 30 -25q0 -28 -19 -44t-135 -84q-130 -77 -282.5 -210.5t-258.5 -262.5q-195 -239 -195 -473q0 -93 39 -147.5t130 -88.5
l93 -35q79 -29 114 -69t35 -99q0 -143 -154 -258q-161 -121 -365 -121q-125 0 -193 49q-56 41 -56 106q0 47 32.5 76.5t84.5 29.5q42 0 63 -14t57 -67q43 -63 112 -63q66 0 117.5 44.5t51.5 101.5q0 37 -21 60t-69 37l-126 37q-107 32 -180 99q-112 102 -112 282
q0 288 287 576q95 95 182.5 163t264.5 185z" />
    <glyph glyph-name="eta" unicode="&#x3b7;" horiz-adv-x="1318" 
d="M518 708q81 103 140 154q133 117 280 117q114 0 177 -69q53 -58 53 -153q0 -109 -49 -250l-89 -262q-66 -191 -131 -310.5t-144 -195.5q-68 -65 -158.5 -109t-155.5 -44q-34 0 -34 22q0 12 26 31q56 41 100 133t135 357l40 119l143 431q9 27 9 69q0 24 -18.5 41t-43.5 17
q-76 0 -194 -142q-67 -80 -111.5 -171t-86.5 -233l-78 -260h-322l160 540q30 100 30 179q0 44 -29.5 69t-81.5 25q-41 0 -53.5 4.5t-12.5 18.5q0 46 105.5 95t204.5 49q119 0 168 -60q37 -46 37 -100q0 -46 -16 -112z" />
    <glyph glyph-name="theta" unicode="&#x3b8;" horiz-adv-x="1232" 
d="M804 802q70 285 70 421q0 86 -30.5 137.5t-80.5 51.5q-84 0 -169.5 -155.5t-166.5 -454.5h377zM772 676h-376q-67 -298 -67 -428q0 -190 104 -190q60 0 112.5 60.5t108.5 194.5q56 132 118 363zM772 1509q129 0 233 -81q159 -124 159 -415q0 -188 -55 -375
q-64 -220 -188 -385q-113 -150 -264 -224q-119 -59 -246 -59q-126 0 -217 75q-98 82 -135 264q-18 87 -18 192q0 155 45 314q93 331 303 525q182 169 383 169z" />
    <glyph glyph-name="iota" unicode="&#x3b9;" horiz-adv-x="797" 
d="M618 979l-216 -729q-19 -68 -19 -87q0 -33 32 -33q61 0 207 231l80 -56q-105 -175 -206 -254.5t-219 -79.5q-113 0 -169 69q-43 52 -43 115q0 44 31 150l104 348q32 110 32 137q0 38 -24.5 50.5t-101.5 12.5h-49l14 96z" />
    <glyph glyph-name="kappa" unicode="&#x3ba;" horiz-adv-x="1348" 
d="M491 551l18 -2q7 -1 16 -1q69 0 123.5 39.5t103.5 124.5q67 114 87 141.5t60 61.5q78 64 181 64q85 0 136 -44.5t51 -120.5q0 -68 -44.5 -113t-112.5 -45q-107 0 -123 101q-5 29 -25 29q-53 0 -117 -121q-37 -71 -65.5 -103.5t-71.5 -52.5q122 -33 167.5 -94t57.5 -206
q5 -74 37 -74q40 0 84 61q39 54 70 128l88 -47q-46 -94 -92 -157q-111 -149 -278 -149q-88 0 -144 46q-64 53 -64 169q0 59 10 117q7 45 7 68q0 52 -74 52h-123l-126 -423h-322l194 654q32 108 32 136q0 38 -25 50.5t-101 12.5h-49l14 96l548 30z" />
    <glyph glyph-name="lambda" unicode="&#x3bb;" horiz-adv-x="994" 
d="M906 422l88 -26q-42 -183 -101 -278q-92 -147 -229 -147q-76 0 -124 49.5t-88 168.5q-63 186 -93 559q-109 -187 -146.5 -271.5t-37.5 -141.5q0 -30 7.5 -50t32.5 -58q43 -65 43 -121q0 -60 -41 -98t-105 -38q-65 0 -102 34.5t-37 94.5q0 90 80 278q46 107 80 172.5
t137 247.5q212 371 212 519q0 70 -43 70q-32 0 -32 -43q0 -4 2 -20v-10q0 -57 -38 -95.5t-95 -38.5q-60 0 -98.5 39.5t-38.5 100.5q0 84 62.5 137t160.5 53q150 0 206 -106q27 -51 35 -153q2 -15 9 -206q13 -370 84 -658q12 -47 33 -98.5t37 -70.5q12 -14 30 -14
q28 0 47.5 39.5t62.5 179.5z" />
    <glyph glyph-name="uni03BC" unicode="&#x3bc;" horiz-adv-x="1403" 
d="M182 0q-5 -19 -5 -40q0 -22 18 -138q4 -24 4 -45q0 -68 -35 -119q-49 -72 -134 -72q-50 0 -80.5 33t-30.5 87q0 67 53 193q62 147 80.5 205.5t30.5 141.5q9 64 37 159l73 248q33 110 33 137q0 38 -25 50.5t-101 12.5h-21l14 96l519 30l-185 -624q-42 -143 -42 -162
t15.5 -34.5t34.5 -15.5q42 0 107 52.5t120 129.5q90 126 138 287l100 337h322l-189 -638q-34 -115 -34 -137q0 -29 29 -29t91 72q63 74 112 151l78 -57q-69 -106 -137 -183q-75 -85 -143.5 -121.5t-155.5 -36.5q-198 0 -198 175q0 20 2 54q-64 -79 -121 -128
q-120 -101 -254 -101q-63 0 -120 30z" />
    <glyph glyph-name="nu" unicode="&#x3bd;" horiz-adv-x="1119" 
d="M594 214q143 168 191.5 249.5t48.5 153.5q0 45 -40 106q-43 64 -43 120q0 59 41 97.5t104 38.5q74 0 108 -38.5t34 -120.5q0 -106 -63 -237q-45 -92 -100 -171t-194 -247q-85 -103 -145 -194h-183q-39 448 -74 612t-93 164q-29 0 -48.5 -38.5t-63.5 -181.5l-88 27
q98 425 330 425q76 0 122.5 -47.5t76.5 -156.5q41 -148 79 -561z" />
    <glyph glyph-name="xi" unicode="&#x3be;" horiz-adv-x="1024" 
d="M234 1509q348 -49 644 -49q154 0 248 29q43 14 59 14q30 0 30 -24q0 -33 -47.5 -56t-231.5 -76q-162 -47 -272 -150q-95 -89 -95 -213q0 -108 70.5 -167.5t197.5 -59.5h42l-34 -126h-109q-178 0 -259 -46q-124 -71 -124 -212q0 -87 54 -139q37 -37 115 -66l93 -35
q79 -30 114 -69.5t35 -98.5q0 -143 -154 -258q-161 -121 -365 -121q-125 0 -193 49q-56 41 -56 106q0 47 32.5 76.5t84.5 29.5q42 0 63 -14t57 -67q43 -63 112 -63q66 0 117.5 44.5t51.5 101.5q0 37 -21 60t-69 37l-126 37q-292 86 -292 342q0 94 42.5 175.5t117.5 130.5
q78 51 209 72q-69 30 -111 96t-42 147q0 114 82 205t232 142q-77 3 -122 12q-44 9 -66 9q-47 0 -100 -97l-32 -60l-112 12z" />
    <glyph glyph-name="omicron" unicode="&#x3bf;" horiz-adv-x="1175" 
d="M663 979q199 0 328 -111q114 -98 114 -285q0 -201 -120 -361q-97 -130 -256 -196q-132 -55 -279 -55q-197 0 -308 104q-56 52 -89 135t-33 173q0 165 103 317q96 140 255 216q132 63 285 63zM655 883q-133 0 -225 -224q-40 -98 -66 -222t-26 -216q0 -77 34 -119.5
t96 -42.5q134 0 218 214q43 108 72.5 239t29.5 213q0 66 -30 107q-37 51 -103 51z" />
    <glyph glyph-name="pi" unicode="&#x3c0;" horiz-adv-x="1585" 
d="M870 744h-193q-2 -6 -11 -46q-41 -161 -119.5 -316.5t-162.5 -241.5q-72 -73 -165 -122t-158 -49q-32 0 -32 23q0 14 28 36q127 90 296 702l3 14h-32q-118 0 -220 -102q-52 -53 -76 -53q-28 0 -28 25q0 20 53 96t99 121q72 71 150.5 94.5t241.5 23.5h655q128 0 196 13
t127 49q27 17 37 17q26 0 26 -28q0 -14 -41 -66l-154 -190h-198l-119 -403q-43 -144 -43 -169q0 -14 9.5 -25t21.5 -11q31 0 93.5 69.5t118.5 167.5l76 -54q-88 -134 -140 -189q-148 -159 -308 -159q-94 0 -148 61q-45 49 -45 106q0 45 6.5 74.5t45.5 160.5z" />
    <glyph glyph-name="rho" unicode="&#x3c1;" horiz-adv-x="1265" 
d="M295 107q-63 -255 -143 -475l-370 -51q98 174 239 690l68 246q77 280 272 385q143 77 334 77q209 0 327 -107q121 -110 121 -291q0 -164 -85 -313q-98 -171 -260 -248q-105 -50 -230 -50q-171 0 -243 91q-11 13 -30 46zM690 883q-120 0 -207 -163q-45 -86 -86 -239
t-41 -239q0 -64 41 -108t101 -44q114 0 197 161q52 102 86 226.5t34 214.5q0 92 -32.5 141.5t-92.5 49.5z" />
    <glyph glyph-name="uni03C2" unicode="&#x3c2;" horiz-adv-x="1100" 
d="M522 168l93 -35q79 -30 114 -69.5t35 -98.5q0 -143 -154 -258q-161 -121 -365 -121q-125 0 -193 49q-56 41 -56 106q0 47 32.5 76.5t84.5 29.5q42 0 63 -14t57 -67q43 -63 112 -63q66 0 117.5 44.5t51.5 101.5q0 37 -21 60t-69 37l-126 37q-292 86 -292 369q0 172 97 326
q99 156 267 237q132 64 277 64q154 0 251 -68q99 -70 99 -196q0 -86 -48 -138t-127 -52q-72 0 -116.5 41t-44.5 106q0 44 17.5 72t61.5 55q24 15 24 33q0 23 -24 37t-63 14q-131 0 -227 -169q-43 -76 -70 -168t-27 -163q0 -151 169 -215z" />
    <glyph glyph-name="sigma" unicode="&#x3c3;" horiz-adv-x="1335" 
d="M1322 949q13 -33 13 -44q0 -45 -73 -87q-64 -37 -177 -37q-4 0 -25 1q45 -85 45 -201q0 -199 -120 -359q-97 -130 -256 -196q-132 -55 -279 -55q-197 0 -308 104q-57 52 -89.5 135t-32.5 173q0 166 103 316q99 143 255 217q133 63 296 63q52 0 84.5 -4.5t125.5 -24.5
q112 -25 231 -25q92 0 207 24zM655 883q-133 0 -225 -224q-40 -98 -66 -222t-26 -216q0 -77 34 -119.5t96 -42.5q134 0 218 214q43 108 72.5 239t29.5 213q0 66 -30 107q-37 51 -103 51z" />
    <glyph glyph-name="tau" unicode="&#x3c4;" horiz-adv-x="1242" 
d="M414 744h-145q-118 0 -220 -102q-52 -53 -76 -53q-28 0 -28 25q0 20 53 96t99 121q72 71 150.5 94.5t241.5 23.5h367q128 0 195.5 13t126.5 49q27 17 37 17q26 0 26 -28q0 -14 -40 -66l-155 -190h-309l-120 -403q-42 -142 -42 -169q0 -14 9.5 -25t21.5 -11q31 0 93 69
t119 168l75 -54q-93 -141 -139 -189q-148 -159 -308 -159q-94 0 -148 61q-45 49 -45 106q0 62 51 235z" />
    <glyph glyph-name="upsilon" unicode="&#x3c5;" horiz-adv-x="1247" 
d="M79 853l14 96l519 30l-174 -587q-25 -84 -25 -140q0 -77 47 -120q48 -44 124 -44q152 0 273 170q117 163 117 315q0 118 -75 166q-46 30 -59 52q-16 28 -16 64q0 54 39.5 91.5t95.5 37.5q80 0 129 -63.5t49 -167.5q0 -135 -64.5 -300t-164.5 -283q-168 -200 -426 -200
q-172 0 -280 92q-100 84 -100 227q0 57 23 136l68 228q32 108 32 137q0 38 -24.5 50.5t-101.5 12.5h-20z" />
    <glyph glyph-name="phi" unicode="&#x3c6;" horiz-adv-x="1567" 
d="M452 -21q-157 16 -242 61q-100 53 -149 158q-41 88 -41 194q0 178 109 327q89 123 228 197q99 52 172 52q22 0 22 -14q0 -9 -14 -29q-100 -136 -153 -295t-53 -318q0 -100 36 -156t115 -78l169 571q44 149 128 228q109 102 288 102q181 0 294 -99q124 -108 124 -296
q0 -229 -148 -398q-71 -82 -168.5 -128.5t-243.5 -68.5q-75 -11 -163 -16l-31 -106q-32 -106 -32 -133t27.5 -39.5t88.5 -12.5h31l-14 -96h-625l14 96h8q100 0 131 28q13 13 20 30.5t39 126.5zM790 67q90 12 149 45t103 96q62 86 97.5 211t35.5 253q0 211 -84 211
q-32 0 -54.5 -29.5t-42.5 -96.5z" />
    </font>
</defs>
</svg>
