<?xml version="1.0" standalone="no"?>
<!DOCTYPE svg PUBLIC "-//W3C//DTD SVG 1.1//EN" "http://www.w3.org/Graphics/SVG/1.1/DTD/svg11.dtd" >
<svg xmlns="http://www.w3.org/2000/svg" xmlns:xlink="http://www.w3.org/1999/xlink" version="1.1">
<metadata>
Created by FontForge 20201107 at Thu Jul 17 00:25:37 2025
 By 
Copyright 2006, 2009 for TeX Gyre extensions by B. Jackowski and J.M. Nowacki (on behalf of TeX users groups). This work is released under the GUST Font License --  see http://tug.org/fonts/licenses/GUST-FONT-LICENSE.txt for details.
</metadata>
<defs>
<font id="TeXGyreSchola-Italic" horiz-adv-x="681" >
  <font-face 
    font-family="TeXGyreSchola"
    font-weight="400"
    font-style="italic"
    font-stretch="normal"
    units-per-em="2048"
    panose-1="0 0 5 0 0 0 0 0 0 0"
    ascent="1634"
    descent="-414"
    x-height="963"
    cap-height="1479"
    bbox="-1108 -655 2800 2314"
    underline-thickness="86"
    underline-position="-208"
    slope="-15"
    unicode-range="U+0020-FB04"
  />
<missing-glyph horiz-adv-x="573" 
 />
    <glyph glyph-name="I_J" unicode="IJ" horiz-adv-x="1904" 
d="M797 0h-635l10 96q91 2 122 7t50 22q13 13 19.5 31t27.5 96l262 975q21 83 21 100q0 34 -31.5 44.5t-132.5 10.5h-45l12 97h635l-10 -97q-92 -2 -123 -6.5t-49 -21.5q-13 -13 -18.5 -28.5t-28.5 -98.5l-262 -975q-21 -82 -21 -98q0 -35 31.5 -46.5t132.5 -11.5h45z
M2191 1382h-37q-62 0 -87.5 -6t-41.5 -22q-13 -13 -19.5 -30.5t-27.5 -96.5l-223 -834q-59 -218 -183 -321t-329 -103q-185 0 -288 85t-103 239q0 125 72 211t176 86q72 0 117 -40.5t45 -105.5q0 -63 -38 -103t-98 -40q-20 0 -58 17.5t-64 17.5q-23 0 -38.5 -19t-15.5 -47
q0 -91 72 -152t178 -61q129 0 206 89t134 303l209 778q20 82 20 100q0 34 -31 44.5t-130 10.5h-62l13 97h643z" />
    <glyph glyph-name="i_j" unicode="ij" horiz-adv-x="1329" 
d="M829 287q-76 -118 -127 -174q-124 -142 -253 -142q-60 0 -101 36.5t-41 90.5q0 33 8 70.5t37 136.5l119 400q18 67 18 90q0 34 -26.5 48.5t-89.5 14.5h-49l8 74l393 31l-217 -732q-25 -89 -25 -114q0 -19 10 -31t25 -12q41 0 106.5 65t141.5 183zM805 1249
q0 -41 -29.5 -70.5t-70.5 -29.5t-71 29.5t-30 70.5t30 71t71 30t70.5 -30t29.5 -71zM1505 963l-243 -820q-65 -221 -92.5 -288t-73.5 -125q-125 -144 -293 -144q-95 0 -152 44.5t-57 119.5q0 54 32 88.5t83 34.5q43 0 70.5 -26.5t27.5 -69.5q0 -25 -16 -56q-11 -18 -11 -28
q0 -14 13 -25.5t30 -11.5q136 0 221 334q29 120 52 188l155 527q19 64 19 88q0 35 -27 50t-90 15h-72l9 74zM1583 1249q0 -41 -29.5 -70.5t-70.5 -29.5t-71 29.5t-30 70.5t30 71t71 30t70.5 -30t29.5 -71z" />
    <glyph glyph-name="f_k" unicode="fk" horiz-adv-x="1738" 
d="M1559 274q-96 -160 -176.5 -232.5t-165.5 -72.5q-152 0 -152 205l2 100v76q0 56 -33 56q-4 -1 -41 -5l-28 -2q-19 0 -32 13t-13 32q0 56 63 56q29 0 55 -11l27 -6q21 0 86 33q105 53 152 104.5t47 114.5q0 44 -27.5 74.5t-67.5 30.5q-58 0 -132 -51t-142 -138
q-49 -62 -101 -171.5t-83 -213.5l-78 -266h-178l362 1227q-23 -13 -51 -13q-44 0 -75.5 27.5t-31.5 65.5q0 26 19 57q14 23 14 37q0 15 -14.5 25t-34.5 10q-57 0 -100 -42.5t-80 -133.5q-30 -70 -46 -123t-54 -205h264l-29 -96h-258l-127 -506q-35 -138 -106 -374t-107 -333
l-225 -37q191 427 303 893l84 357h-182l26 96h178q38 141 69 220t75 151q123 204 321 204q61 0 113 -22l317 24l-254 -856q104 161 201 235.5t203 74.5q85 0 143 -54.5t58 -132.5q0 -102 -96.5 -189.5t-278.5 -152.5q50 -40 70.5 -91.5t27.5 -158.5q4 -61 12.5 -80.5
t30.5 -19.5q37 0 81 48t132 183z" />
    <glyph glyph-name="f_f" unicode="ff" horiz-adv-x="1404" 
d="M1554 1323q0 -46 -31.5 -77.5t-78.5 -31.5q-44 0 -75.5 27.5t-31.5 65.5q0 26 19 57q14 23 14 37q0 15 -14.5 25t-34.5 10q-57 0 -100 -42.5t-80 -133.5q-30 -71 -47 -125.5t-54 -202.5h265l-29 -96h-258l-127 -506q-35 -138 -106 -374t-107 -333l-225 -37
q191 427 303 893l84 357h-414l-127 -506q-35 -138 -106 -374t-107 -333l-225 -37q191 427 303 893l84 357h-182l26 96h178q38 141 69 220t75 151q123 204 321 204q98 0 163 -52.5t65 -131.5q0 -46 -32 -77.5t-79 -31.5q-44 0 -75.5 27.5t-31.5 65.5q0 26 19 57q14 23 14 37
q0 15 -14.5 25t-34.5 10q-57 0 -100 -42.5t-80 -133.5q-30 -70 -46 -123t-54 -205h413q38 141 69 220t75 151q123 204 321 204q98 0 162.5 -52t64.5 -132z" />
    <glyph glyph-name="f_i" unicode="fi" horiz-adv-x="1251" 
d="M1155 287q-91 -154 -189 -235t-194 -81q-59 0 -99 37t-40 92q0 35 7.5 69t39.5 136l111 377q24 84 24 106q0 26 -25.5 37t-89.5 11h-258l-127 -506q-32 -130 -105 -371.5t-108 -335.5l-225 -37q173 363 303 893l84 357h-182l27 96h178q55 183 79.5 240.5t77.5 130.5
q149 204 406 204q113 0 183.5 -49t70.5 -127q0 -50 -33 -83.5t-82 -33.5q-45 0 -76.5 27t-31.5 66q0 28 16 57t16 37q0 37 -73 37q-170 0 -260 -178q-32 -61 -55 -127t-60 -201h184q170 0 402 29l-217 -730q-25 -94 -25 -114q0 -19 10 -31t25 -12q41 0 109 67.5t141 182.5z
" />
    <glyph glyph-name="f_l" unicode="fl" horiz-adv-x="1251" 
d="M1163 287q-187 -318 -383 -318q-61 0 -97 39t-36 105q0 47 10 96.5t45 165.5l254 856q-47 24 -47 76q0 12 16.5 49t16.5 47q0 33 -88 33q-95 0 -161 -42.5t-113 -133.5q-55 -110 -115 -328h293l-27 -96h-289l-127 -506q-32 -130 -105 -371.5t-108 -335.5l-225 -37
q173 368 303 893l84 357h-182l27 96h178q58 189 81 244t78 127q78 107 177 155.5t237 48.5q67 0 133 -14l224 14l-379 -1276q-20 -67 -23.5 -82t-3.5 -34q0 -18 10 -29.5t27 -11.5q43 0 111 67.5t141 182.5z" />
    <glyph glyph-name="f_f_i" unicode="&#xfb00;i" horiz-adv-x="1851" 
d="M1726 287q-91 -154 -189 -235t-194 -81q-59 0 -99 37t-40 92q0 35 7.5 69t39.5 136l111 377q24 84 24 106q0 26 -25 37t-89 11h-258l-127 -506q-32 -130 -105 -371.5t-108 -335.5l-225 -37q173 363 303 893l84 357h-410l-127 -506q-35 -138 -106 -374t-107 -333l-225 -37
q191 427 303 893l84 357h-182l26 96h178q38 141 69 220t75 151q123 204 321 204q98 0 163 -52.5t65 -131.5q0 -46 -32 -77.5t-79 -31.5q-44 0 -75.5 27.5t-31.5 65.5q0 26 19 57q14 23 14 37q0 15 -14.5 25t-34.5 10q-57 0 -100 -42.5t-80 -133.5q-30 -70 -46 -123t-54 -205
h409q55 182 80 240t78 131q149 204 405 204q113 0 183.5 -49t70.5 -127q0 -50 -32.5 -83.5t-81.5 -33.5q-46 0 -77.5 27.5t-31.5 65.5q0 28 16.5 57t16.5 37q0 37 -74 37q-170 0 -260 -178q-32 -61 -55 -127t-60 -201h185q169 0 401 29l-217 -730q-25 -94 -25 -114
q0 -19 10 -31t25 -12q41 0 109 67.5t141 182.5z" />
    <glyph glyph-name="f_f_l" unicode="ffl" horiz-adv-x="1851" 
d="M1714 287q-187 -318 -383 -318q-61 0 -97 39t-36 105q0 47 10 96.5t45 165.5l254 856q-47 24 -47 76q0 12 16.5 49t16.5 47q0 33 -88 33q-95 0 -161.5 -42.5t-113.5 -133.5q-53 -106 -114 -328h293l-27 -96h-289l-127 -506q-32 -130 -105 -371.5t-108 -335.5l-225 -37
q173 368 303 893l84 357h-389l-127 -506q-35 -138 -106 -374t-107 -333l-225 -37q191 427 303 893l84 357h-182l26 96h178q38 141 69 220t75 151q123 204 321 204q98 0 163 -52.5t65 -131.5q0 -46 -32 -77.5t-79 -31.5q-44 0 -75.5 27.5t-31.5 65.5q0 26 19 57q14 23 14 37
q0 15 -14.5 25t-34.5 10q-57 0 -100 -42.5t-80 -133.5q-30 -70 -46 -123t-54 -205h389q58 189 81 244t78 127q78 107 177 155.5t237 48.5q67 0 133 -14l223 14l-378 -1276q-20 -67 -23.5 -82t-3.5 -34q0 -18 10 -29.5t27 -11.5q43 0 111 67.5t141 182.5z" />
    <glyph glyph-name=".notdef" horiz-adv-x="573" 
 />
    <glyph glyph-name=".null" horiz-adv-x="0" 
 />
    <glyph glyph-name="nonmarkingreturn" horiz-adv-x="682" 
 />
    <glyph glyph-name="space" unicode=" " horiz-adv-x="569" 
 />
    <glyph glyph-name="exclam" unicode="!" 
d="M647 1391q0 -46 -13.5 -82.5t-88.5 -196.5q-75 -166 -132.5 -330t-125.5 -409l-74 20q75 283 111.5 484.5t50.5 404.5q7 107 47.5 167t103.5 60q54 0 87.5 -32.5t33.5 -85.5zM315 96q0 -54 -37.5 -90.5t-91.5 -36.5q-51 0 -88 37.5t-37 89.5t37.5 89.5t89.5 37.5
t89.5 -37.5t37.5 -89.5z" />
    <glyph glyph-name="quotedbl" unicode="&#x22;" horiz-adv-x="819" 
d="M498 1411q0 -25 -27 -65l-225 -302l-41 21l114 358q23 76 87 76q37 0 64.5 -26.5t27.5 -61.5zM809 1411q0 -27 -27 -65l-225 -302l-41 21l115 358q12 40 32 58t54 18q37 0 64.5 -26.5t27.5 -61.5z" />
    <glyph glyph-name="numbersign" unicode="#" horiz-adv-x="1138" 
d="M1018 451h-225l-66 -451h-133l65 451h-251l-66 -451h-133l65 451h-206v114h223l43 303h-211v115h227l62 422h133l-62 -422h252l62 422h133l-62 -422h205v-115h-221l-43 -303h209v-114zM676 565l43 303h-252l-43 -303h252z" />
    <glyph glyph-name="dollar" unicode="$" horiz-adv-x="1138" 
d="M969 408q0 -120 -69 -219.5t-193 -159.5q-64 -30 -126 -43.5t-149 -14.5h-14l-68 -247h-88l70 253q-146 25 -236 112t-90 204q0 83 44.5 134.5t113.5 51.5q56 0 91.5 -33.5t35.5 -87.5q0 -88 -101 -116q-24 -6 -32 -13.5t-8 -23.5q0 -43 60 -86t142 -58l152 562l-12 6
l-13 4q-129 54 -198.5 147t-69.5 213q0 178 142.5 302t348.5 124h15l55 203h88l-57 -211q135 -25 215 -107t80 -196q0 -73 -37 -115.5t-100 -42.5q-51 0 -85 32t-34 79q0 38 16 62.5t53 43.5q35 18 35 43q0 34 -48 67t-118 48l-143 -530q94 -38 135 -64q197 -127 197 -323z
M559 827l135 506q-149 -1 -234 -71.5t-85 -192.5q0 -78 47 -142.5t127 -95.5zM788 334q0 174 -178 246q-14 7 -26 10l-144 -537q72 3 138 21q95 29 152.5 100.5t57.5 159.5z" />
    <glyph glyph-name="percent" unicode="%" horiz-adv-x="1705" 
d="M1333 1479l-848 -1479h-102l741 1300q-61 -34 -103.5 -47.5t-94.5 -13.5q-57 0 -133 25q8 -47 8 -74q0 -126 -62.5 -250t-167 -203.5t-215.5 -79.5q-114 0 -188 72t-74 182q0 88 41 184.5t106 174.5t153.5 129t176.5 51q62 0 104.5 -22t82.5 -74q78 -45 149 -45
q99 0 185 43.5t147 126.5h94zM731 1202q0 36 -12 88q-46 18 -73.5 36t-57.5 52q-67 -24 -101.5 -57.5t-93.5 -136.5q-71 -125 -99 -197t-28 -129q0 -56 33.5 -91.5t87.5 -35.5q81 0 161.5 69.5t131.5 179.5t51 222zM1622 578q0 -83 -34.5 -178.5t-91.5 -177.5t-142 -136.5
t-176 -54.5q-115 0 -191 70.5t-76 177.5q0 123 66.5 249t177 209.5t227.5 83.5q104 0 172 -68.5t68 -174.5zM1550 573q0 72 -38.5 122t-94.5 50q-95 0 -186 -151q-152 -245 -152 -367q0 -51 35 -87t86 -36q82 0 164 69.5t134 179.5t52 220z" />
    <glyph glyph-name="ampersand" unicode="&#x26;" horiz-adv-x="1744" 
d="M1542 256q-94 -148 -194 -217.5t-218 -69.5q-82 0 -143.5 27.5t-122.5 91.5q-213 -119 -409 -119q-183 0 -294.5 104.5t-111.5 274.5q0 165 109 284.5t381 235.5q-17 130 -17 191q0 204 105 327t278 123q138 0 225 -74t87 -194q0 -138 -101.5 -227.5t-353.5 -161.5
q43 -181 100 -326t117 -227q104 97 164.5 184.5t60.5 141.5q0 100 -131 100h-35l13 88h532l-10 -88q-102 -10 -160 -58t-170 -208q-98 -139 -205 -238q51 -58 93.5 -82t93.5 -24q69 0 122 39t126 145zM1071 1247q0 72 -46.5 120t-115.5 48q-85 0 -134.5 -69.5t-49.5 -188.5
q0 -81 20 -217q149 49 237.5 128.5t88.5 178.5zM803 164q-88 140 -146.5 284.5t-101.5 327.5q-139 -70 -204.5 -162t-65.5 -213q0 -81 30.5 -151.5t95 -118t150.5 -47.5q114 0 242 80z" />
    <glyph glyph-name="quotesingle" unicode="'" horiz-adv-x="569" 
d="M537 1415q0 -29 -29 -69l-234 -302l-41 21l119 358q23 76 88 76q38 0 67.5 -26t29.5 -58z" />
    <glyph glyph-name="parenleft" unicode="(" 
d="M817 1460q-128 -67 -205 -136t-137 -171q-106 -184 -168.5 -427t-62.5 -476q0 -136 25.5 -238t92.5 -233l-43 -31q-237 295 -237 688q0 230 92 448t255.5 382.5t367.5 240.5z" />
    <glyph glyph-name="parenright" unicode=")" 
d="M543 819q0 -228 -91.5 -446t-255 -383t-366.5 -242l-20 47q130 69 206 137.5t134 169.5q107 184 169 427.5t62 478.5q0 133 -25.5 235t-91.5 234l43 30q236 -294 236 -688z" />
    <glyph glyph-name="asterisk" unicode="*" horiz-adv-x="1024" 
d="M834 764q0 -37 -23.5 -60.5t-60.5 -23.5q-68 0 -97 80q-25 70 -40 96t-56 68l-47 49l-18 -68q-13 -47 -13 -84q0 -26 10 -104q1 -6 2 -14.5t2 -14.5t1 -10q0 -37 -27 -64.5t-64 -27.5q-34 0 -57.5 26.5t-23.5 63.5t34 76q49 61 63.5 86.5t29.5 79.5l18 65l-68 -16
q-44 -13 -73.5 -30.5t-89.5 -64.5q-25 -20 -40.5 -27t-35.5 -7q-37 0 -63.5 24.5t-26.5 59.5t27.5 62.5t64.5 27.5q7 0 39 -4q76 -13 100 -13q34 0 88 13l66 18l-47 49q-38 35 -68.5 52.5t-97.5 41.5q-80 33 -80 97q0 36 24 60t60 24q67 0 96 -80q27 -73 42 -99t54 -65
l47 -49l19 67q12 44 12 86q0 35 -10 103q-4 32 -4 41q0 35 27.5 62.5t62.5 27.5q34 0 58 -26.5t24 -63.5q0 -36 -35 -76q-48 -56 -62.5 -82t-29.5 -84l-19 -65l68 16q46 13 76.5 31t87.5 63q43 35 76 35q37 0 63.5 -24.5t26.5 -59.5t-28.5 -62.5t-63.5 -27.5q-7 0 -39 4
q-66 14 -97 14q-27 0 -92 -14l-65 -18l49 -50q33 -33 64 -51t98 -43q43 -17 62.5 -39.5t19.5 -56.5z" />
    <glyph glyph-name="plus" unicode="+" horiz-adv-x="1241" 
d="M1149 430h-457v-457h-164v457h-456v164h456v457h164v-457h457v-164z" />
    <glyph glyph-name="comma" unicode="," horiz-adv-x="569" 
d="M309 59q0 -119 -98 -228t-264 -173l-27 63q113 52 179.5 121.5t80.5 147.5q-14 -2 -35 -2q-52 0 -83 29t-31 79q0 54 40 90.5t97 36.5q61 0 101 -46.5t40 -117.5z" />
    <glyph glyph-name="hyphen" unicode="-" 
d="M485 399h-419l45 170h419z" />
    <glyph glyph-name="period" unicode="." horiz-adv-x="569" 
d="M289 96q0 -54 -37.5 -90.5t-91.5 -36.5q-51 0 -88 37.5t-37 89.5t37.5 89.5t89.5 37.5t89.5 -37.5t37.5 -89.5z" />
    <glyph glyph-name="slash" unicode="/" horiz-adv-x="1241" 
d="M954 1479l-548 -1700h-119l549 1700h118z" />
    <glyph glyph-name="zero" unicode="0" horiz-adv-x="1138" 
d="M1079 930q0 -186 -55 -363t-145 -308t-212 -210.5t-251 -79.5q-157 0 -257 141.5t-100 364.5q0 178 53 353.5t140.5 310.5t211 219t255.5 84q161 0 260.5 -141.5t99.5 -370.5zM881 1087q0 134 -42 203.5t-124 69.5q-78 0 -151.5 -72t-128 -186.5t-96.5 -252.5
t-63.5 -275.5t-21.5 -249.5q0 -130 45 -201.5t127 -71.5q88 0 166 84.5t129 210t88.5 271.5t54.5 268.5t17 201.5z" />
    <glyph glyph-name="one" unicode="1" horiz-adv-x="1138" 
d="M860 0h-758l11 96h88q139 0 172 29q12 13 19 30.5t28 96.5l219 819q20 74 20 92q0 28 -22.5 34.5t-116.5 6.5h-141l24 90q110 0 252.5 46.5t225.5 109.5h59l-322 -1198q-18 -84 -18 -100q0 -34 31.5 -45t130.5 -11h110z" />
    <glyph glyph-name="two" unicode="2" horiz-adv-x="1138" 
d="M965 395l-158 -395h-879q9 61 58.5 126.5t176.5 184t410 363.5q139 121 195.5 216t56.5 210q0 107 -66 173t-173 66q-103 0 -197 -60t-94 -126q0 -18 10.5 -29t46.5 -30q51 -28 72.5 -56.5t21.5 -68.5q0 -56 -38 -93.5t-95 -37.5q-72 0 -114.5 51t-42.5 137
q0 109 67 205.5t180 153.5t242 57q177 0 286 -99.5t109 -259.5q0 -122 -54 -218t-177 -191q-29 -23 -346 -244q-230 -162 -303 -256h475q74 0 109.5 27.5t93.5 128.5l53 94z" />
    <glyph glyph-name="three" unicode="3" horiz-adv-x="1138" 
d="M938 451q0 -205 -156.5 -343.5t-388.5 -138.5q-184 0 -290.5 87t-106.5 237q0 80 39.5 128t105.5 48q54 0 92.5 -37.5t38.5 -89.5q0 -81 -84 -119q-25 -11 -33 -19.5t-8 -25.5q0 -49 64 -86t149 -37q164 0 260.5 123.5t96.5 310.5q0 95 -45 154t-117 59q-16 0 -60.5 -6
t-58.5 -6q-28 0 -43.5 14t-15.5 39q0 28 18.5 43t50.5 15q23 -8 119 -8q101 0 183.5 109.5t82.5 244.5q0 95 -58 149t-161 54q-72 0 -135 -32t-63 -69q0 -10 35.5 -59.5t35.5 -79.5q0 -51 -32.5 -84t-83.5 -33q-57 0 -93 39.5t-36 102.5q0 82 56 152.5t151 112.5t204 42
q170 0 277.5 -90.5t107.5 -235.5q0 -120 -71 -211t-199 -137q-28 -8 -70 -23q242 -78 242 -294z" />
    <glyph glyph-name="four" unicode="4" horiz-adv-x="1138" 
d="M897 0h-637l12 96h37q139 0 172 29q11 10 16.5 25t30.5 102l33 125h-577v86l954 987h111l-258 -963h233l-29 -110h-233l-35 -125q-20 -73 -20 -100q0 -34 31.5 -45t131.5 -11h37zM592 487l174 652l-633 -652h459z" />
    <glyph glyph-name="five" unicode="5" horiz-adv-x="1138" 
d="M983 561q0 -160 -80.5 -296.5t-219 -216t-300.5 -79.5q-163 0 -269 88.5t-106 223.5q0 74 45.5 124t112.5 50q54 0 88.5 -32.5t34.5 -82.5q0 -66 -53 -104l-14 -6q-62 -32 -64 -52q0 -51 65 -88t154 -37q104 0 192 65t139.5 176.5t51.5 242.5q0 127 -62 195.5t-176 68.5
q-116 0 -211 -74q-9 -115 -90 -115q-31 0 -52.5 20.5t-21.5 49.5t17 50t65 52l187 658q226 -60 420 -60q111 0 233 52l21 8q6 0 11 -8t5 -17q0 -48 -50.5 -98t-140 -84.5t-188.5 -34.5q-109 0 -268 33l-115 -387q77 37 134 52t124 15q167 0 274 -99t107 -253z" />
    <glyph glyph-name="six" unicode="6" horiz-adv-x="1138" 
d="M1008 524q0 -148 -69 -275t-192.5 -203.5t-273.5 -76.5q-187 0 -293 129t-106 355q0 168 58.5 344.5t155 319t234.5 234t285 91.5q136 0 224.5 -68.5t88.5 -173.5q0 -69 -39 -111t-102 -42q-53 0 -86 30.5t-33 79.5q0 24 22.5 78t22.5 61q0 29 -28 46.5t-74 17.5
q-109 0 -207 -92t-166 -242.5t-106 -339.5q126 193 338 193q154 0 250 -99t96 -256zM793 512q0 119 -52 183.5t-147 64.5q-141 0 -235.5 -128t-94.5 -319q0 -123 55.5 -191.5t153.5 -68.5q135 0 227.5 132t92.5 327z" />
    <glyph glyph-name="seven" unicode="7" horiz-adv-x="1138" 
d="M1149 1380l-193 -299q-214 -346 -293 -518t-155 -461q-20 -72 -52 -102.5t-87 -30.5t-87 31.5t-32 87.5q0 102 127 307q75 123 120 189.5t242 343.5l224 319h-347q-70 0 -110.5 -3.5t-76 -12.5t-61 -31t-48 -51.5t-54.5 -81.5l-49 -82l-76 25l199 432l51 -2l207 -13
q111 -6 195 -6q171 0 356 21v-62z" />
    <glyph glyph-name="eight" unicode="8" horiz-adv-x="1138" 
d="M983 428q0 -199 -153 -329t-388 -130q-196 0 -311 87t-115 235q0 140 95 249.5t276 178.5q-83 60 -118.5 125.5t-35.5 159.5q0 185 135.5 311.5t333.5 126.5q164 0 270.5 -90.5t106.5 -229.5q0 -123 -68 -202.5t-241 -161.5q121 -79 167 -154t46 -176zM926 1135
q0 95 -68 157t-172 62q-120 0 -204.5 -74t-84.5 -178q0 -87 64.5 -154.5t220.5 -142.5q106 37 175 130.5t69 199.5zM805 336q0 103 -75.5 170.5t-264.5 157.5q-283 -128 -283 -349q0 -118 76 -187t207 -69q144 0 242 80t98 197z" />
    <glyph glyph-name="nine" unicode="9" horiz-adv-x="1138" 
d="M1063 930q0 -127 -36.5 -263.5t-104.5 -260t-156.5 -222t-203 -157t-234.5 -58.5q-136 0 -225 68t-89 172q0 66 39.5 108.5t100.5 42.5q53 0 87.5 -33.5t34.5 -84.5q0 -25 -25.5 -72t-25.5 -53q0 -28 28 -45t75 -17q157 0 283.5 168.5t193.5 476.5q-137 -174 -334 -174
q-148 0 -248 98t-100 244q0 104 40.5 207t109 184.5t169.5 132t213 50.5q191 0 299.5 -136.5t108.5 -375.5zM868 1087q0 123 -58.5 196t-156.5 73q-88 0 -161 -66t-112.5 -172.5t-39.5 -228.5q0 -116 52 -179t149 -63q141 0 234 125t93 315z" />
    <glyph glyph-name="colon" unicode=":" horiz-adv-x="569" 
d="M340 96q0 -54 -37.5 -90.5t-91.5 -36.5q-51 0 -88 37.5t-37 89.5t37 89.5t90 37.5t90 -37.5t37 -89.5zM520 821q0 -54 -37.5 -90.5t-91.5 -36.5q-51 0 -88 37.5t-37 89.5q0 53 37 90t90 37t90 -37t37 -90z" />
    <glyph glyph-name="semicolon" unicode=";" horiz-adv-x="569" 
d="M360 59q0 -119 -97.5 -227t-264.5 -174l-27 66q233 106 260 266q-14 -2 -34 -2q-53 0 -84 29.5t-31 78.5q0 54 40 90.5t97 36.5q61 0 101 -46.5t40 -117.5zM535 821q0 -54 -37.5 -90.5t-91.5 -36.5q-51 0 -88 37.5t-37 89.5q0 53 37.5 90t89.5 37t89.5 -37t37.5 -90z" />
    <glyph glyph-name="less" unicode="&#x3c;" horiz-adv-x="1241" 
d="M1067 -31l-950 469v148l950 469v-185l-729 -358l729 -358v-185z" />
    <glyph glyph-name="equal" unicode="=" horiz-adv-x="1241" 
d="M1149 614h-1077v164h1077v-164zM1149 246h-1077v164h1077v-164z" />
    <glyph glyph-name="greater" unicode="&#x3e;" horiz-adv-x="1241" 
d="M1067 438l-950 -469v185l729 358l-729 358v185l950 -469v-148z" />
    <glyph glyph-name="question" unicode="?" horiz-adv-x="909" 
d="M854 1225q0 -130 -76.5 -223t-298.5 -236q-73 -47 -105 -89.5t-32 -90.5q0 -46 25 -73.5t67 -27.5q62 0 98 34t62 116l74 -12q-19 -97 -83.5 -156t-152.5 -59q-86 0 -139 56t-53 148q0 109 72.5 209t252.5 238q88 68 124 119.5t36 109.5t-44.5 97.5t-109.5 39.5
q-120 0 -190 -85t-70 -263h-78q-2 23 -2 49q0 167 96.5 275t247.5 108q123 0 201 -79t78 -205zM463 96q0 -54 -37.5 -90.5t-91.5 -36.5q-51 0 -88 37.5t-37 89.5t37.5 89.5t89.5 37.5t89.5 -37.5t37.5 -89.5z" />
    <glyph glyph-name="at" unicode="@" horiz-adv-x="1529" 
d="M1438 385q-75 -174 -250 -294t-383 -120t-379.5 99.5t-270 273.5t-98.5 385q0 164 58.5 308.5t158.5 247.5t238 162.5t293 59.5q186 0 344 -82.5t250 -224.5t92 -309q0 -143 -73.5 -281t-191.5 -223.5t-241 -85.5q-63 0 -102 36.5t-39 96.5q0 25 2 41
q-60 -89 -109.5 -125.5t-111.5 -36.5q-107 0 -181.5 85.5t-74.5 219.5q0 121 59.5 236.5t155.5 186.5t196 71q58 0 99.5 -35t60.5 -98l33 115h180l-149 -592q-9 -37 -9 -62q0 -22 15.5 -35.5t40.5 -13.5q50 0 109.5 44.5t108.5 112.5t82 158t33 173q0 101 -44.5 196.5
t-119.5 167.5t-181 116t-222 44q-139 0 -259 -50t-204.5 -137.5t-133 -211t-48.5 -265.5q0 -190 83 -341.5t231.5 -236.5t334.5 -85q155 0 280.5 78.5t211.5 230.5h125zM901 881q0 68 -24.5 107.5t-67.5 39.5q-51 0 -100.5 -52.5t-82.5 -127.5t-53 -155t-20 -138
q0 -75 26 -117.5t72 -42.5q59 0 119 82.5t95.5 196t35.5 207.5z" />
    <glyph glyph-name="A" unicode="A" horiz-adv-x="1441" 
d="M1358 0h-617l11 96h47q85 0 109 14t24 60q0 16 -8 66l-47 251h-523l-112 -196q-37 -61 -37 -113q0 -46 31 -64t110 -18h49l-12 -96h-551l10 96q83 0 152 56.5t151 191.5l676 1165h84l256 -1288q15 -80 43 -102.5t113 -22.5h51zM860 584l-117 587l-333 -587h450z" />
    <glyph glyph-name="B" unicode="B" horiz-adv-x="1478" 
d="M1290 422q0 -200 -155 -311t-455 -111h-743l10 96h30q118 0 150 29q12 12 18 28t29 99l262 975q19 78 19 100q0 34 -31 44.5t-131 10.5h-53l12 97h616q251 0 375.5 -89t124.5 -253q0 -149 -104 -245t-295 -132q163 -49 242 -132.5t79 -205.5zM1124 1167
q0 112 -57.5 163.5t-183.5 51.5h-60q-79 0 -103.5 -22.5t-49.5 -116.5l-119 -436h170q198 0 300.5 96.5t102.5 263.5zM1040 461q0 127 -91 188.5t-294 61.5h-129l-131 -488q-12 -46 -12 -71q0 -32 30 -44t113 -12h103q203 0 307 103.5t104 261.5z" />
    <glyph glyph-name="C" unicode="C" horiz-adv-x="1478" 
d="M1298 420q-100 -235 -250 -343t-364 -108q-274 0 -438 165t-164 439q0 176 69 348t181.5 300.5t264 208t308.5 79.5q118 0 202 -38t157 -125l122 118h74l-114 -573h-84q-10 281 -94.5 405.5t-245.5 124.5q-87 0 -167.5 -41.5t-143.5 -111.5t-115 -163t-86.5 -196.5
t-53 -210.5t-18.5 -206q0 -188 98 -305t283 -117q166 0 280 87t215 300z" />
    <glyph glyph-name="D" unicode="D" horiz-adv-x="1593" 
d="M1505 891q0 -206 -97 -404.5t-261 -328.5q-107 -85 -248 -121.5t-358 -36.5h-619l10 96h41q70 0 95.5 6t44.5 23q12 12 18 28t29 99l262 975q18 74 18 100q0 34 -31 44.5t-130 10.5h-54l13 97h593q173 0 279 -24.5t182 -82.5q103 -77 158 -201t55 -280zM1257 1001
q0 381 -385 381h-61q-82 0 -106.5 -21t-49.5 -112l-272 -1024q-12 -46 -12 -63q0 -34 22 -50t72 -16h65q287 0 422 117q124 108 214.5 342.5t90.5 445.5z" />
    <glyph glyph-name="E" unicode="E" horiz-adv-x="1478" 
d="M1315 502l-160 -502h-1231l10 96h39q70 0 96.5 6t45.5 23q13 13 19.5 30.5t27.5 96.5l262 975q18 74 18 100q0 34 -31 44.5t-130 10.5h-54l13 97h1196l-80 -494h-92v72q0 96 -19.5 161t-58.5 100t-88.5 49.5t-118.5 14.5h-119q-51 0 -78 -2.5t-50 -9t-35 -24t-21 -40
t-21 -65.5l-112 -420h67q146 0 222.5 59t121.5 197l93 -12l-183 -684l-92 16q19 90 19 142q0 96 -47.5 141t-159.5 45h-66l-121 -451q-22 -86 -22 -112q0 -37 31.5 -51.5t111.5 -14.5h111q110 0 186.5 16.5t147 63t130 123.5t128.5 203l10 16z" />
    <glyph glyph-name="F" unicode="F" horiz-adv-x="1366" 
d="M1350 985h-93v72q0 107 -16.5 163.5t-58.5 94.5q-76 67 -209 67h-107q-43 0 -66.5 -1t-46.5 -7t-34 -13.5t-22.5 -25.5t-18 -38t-16.5 -56l-113 -420h67q146 0 223 59t122 197l92 -12l-183 -684l-92 16q19 90 19 142q0 96 -47.5 141t-159.5 45h-66l-127 -473
q-20 -84 -20 -100q0 -34 31.5 -45t130.5 -11h53l-10 -96h-652l11 96h45q48 0 74.5 3.5t36.5 8.5t24 17q13 13 19.5 30.5t27.5 96.5l262 975q19 78 19 100q0 34 -31 44.5t-131 10.5h-54l13 97h1184z" />
    <glyph glyph-name="G" unicode="G" horiz-adv-x="1593" 
d="M1550 584h-43q-61 0 -85 -5.5t-44 -21.5q-15 -12 -22.5 -30t-30.5 -99l-123 -457h-90l-25 166q-96 -91 -197 -129.5t-247 -38.5q-264 0 -413.5 156t-149.5 434q0 136 43.5 274.5t123.5 258.5t184.5 214.5t235 148.5t265.5 54q124 0 214.5 -40.5t170.5 -131.5l127 127h69
l-112 -575l-86 14q-4 257 -99.5 387.5t-267.5 130.5q-278 0 -461 -346q-72 -138 -114.5 -305.5t-42.5 -314.5q0 -186 97 -292t267 -106q148 0 246.5 78.5t138.5 229.5l37 163v11q0 26 -35 35.5t-127 9.5h-67l10 96h666z" />
    <glyph glyph-name="H" unicode="H" horiz-adv-x="1705" 
d="M1460 0h-649l10 96h35q71 0 98.5 6.5t46.5 22.5q12 12 18.5 29t29.5 98l125 473h-658l-127 -473q-20 -84 -20 -100q0 -34 31 -45t130 -11h54l-11 -96h-651l10 96h31q71 0 101.5 6.5t48.5 22.5q13 13 19.5 30.5t27.5 96.5l262 975q18 74 18 100q0 34 -31 44.5t-130 10.5
h-54l13 97h649l-10 -97h-35q-72 0 -100 -6t-44 -22q-14 -11 -19.5 -26.5t-27.5 -100.5l-110 -406h659l109 406q20 70 20 100q0 34 -31 44.5t-131 10.5h-53l10 97h652l-11 -97h-34q-72 0 -99.5 -6t-46.5 -22q-12 -10 -18 -26t-29 -101l-262 -975q-19 -74 -19 -100
q0 -34 31.5 -45t130.5 -11h54z" />
    <glyph glyph-name="I" unicode="I" horiz-adv-x="833" 
d="M567 0h-635l11 96q91 2 122 7t50 22q13 13 19.5 31t27.5 96l262 975q20 79 20 100q0 34 -31 44.5t-132 10.5h-45l12 97h635l-11 -97q-92 -2 -123 -6.5t-49 -21.5q-13 -13 -18.5 -28.5t-28.5 -98.5l-262 -975q-20 -78 -20 -98q0 -35 31.5 -46.5t132.5 -11.5h45z" />
    <glyph glyph-name="J" unicode="J" horiz-adv-x="1251" 
d="M1313 1382h-37q-62 0 -87.5 -6t-41.5 -22q-13 -13 -19.5 -30.5t-27.5 -96.5l-223 -834q-59 -218 -183 -321t-329 -103q-185 0 -288.5 85.5t-103.5 238.5q0 125 72 211t176 86q72 0 117 -40.5t45 -105.5q0 -63 -37.5 -103t-97.5 -40q-20 0 -59 17.5t-64 17.5
q-23 0 -38 -19t-15 -47q0 -91 72 -152t178 -61q129 0 206 89t134 303l208 778q21 86 21 100q0 34 -31 44.5t-131 10.5h-61l12 97h643z" />
    <glyph glyph-name="K" unicode="K" horiz-adv-x="1517" 
d="M1415 0h-670l11 96h67q82 0 111 7.5t29 29.5q0 12 -33 80l-240 504l-231 -191l-74 -274q-20 -84 -20 -100q0 -34 31 -45t130 -11h54l-11 -96h-651l10 96h39q70 0 96.5 6t45.5 23q12 11 19 28.5t28 98.5l262 975q18 74 18 100q0 34 -31 44.5t-131 10.5h-53l12 97h650
l-11 -97h-34q-72 0 -100 -6t-44 -22q-14 -10 -20 -26t-29 -101l-139 -527l590 492q110 89 110 139q0 29 -26 40t-95 11h-45l13 97h614l-10 -97q-123 -9 -207 -49.5t-205 -150.5l-385 -322l311 -645q17 -36 24 -51t21.5 -32.5t21 -21.5t29.5 -9t39.5 -5h57.5h63z" />
    <glyph glyph-name="L" unicode="L" horiz-adv-x="1366" 
d="M1290 502l-160 -502h-1206l10 96h39q70 0 96.5 6t45.5 23q13 13 19.5 30.5t27.5 96.5l262 975q18 74 18 100q0 34 -31 44.5t-130 10.5h-54l13 97h688l-13 -97h-45q-142 0 -170 -28q-14 -12 -19.5 -28t-27.5 -99l-256 -953q-22 -84 -22 -112q0 -37 31.5 -51.5t111.5 -14.5
h86q218 0 342.5 87t259.5 335z" />
    <glyph glyph-name="M" unicode="M" horiz-adv-x="1933" 
d="M1677 0h-649l10 96h35q71 0 99 6.5t47 22.5q12 12 18 28t29 99l270 1010l-791 -1262h-73l-127 1233l-211 -789q-34 -139 -40.5 -170.5t-6.5 -64.5q0 -113 182 -113l-10 -96h-512l10 96q77 2 119 29.5t74 97.5t73 221l209 783q21 82 21 100q0 34 -31 44.5t-131 10.5h-53
l10 97h495l109 -1106l698 1106h443l-11 -97h-28q-73 0 -103.5 -6t-48.5 -22q-12 -10 -18 -26t-29 -101l-260 -975q-20 -68 -20 -100q0 -34 31 -45t130 -11h54z" />
    <glyph glyph-name="N" unicode="N" horiz-adv-x="1669" 
d="M1749 1382q-55 -2 -89.5 -11t-64 -28.5t-51.5 -61t-41.5 -98t-44.5 -149.5l-284 -1063h-80l-570 1231l-202 -758q-37 -144 -43.5 -173.5t-6.5 -61.5q0 -59 36.5 -86t127.5 -27h43l-12 -96h-565l10 96q47 1 78.5 6t60 20t47 37t38.5 63.5t36 92t37 129.5l233 873
q-12 41 -36 53t-97 12h-106l10 97h432l518 -1131l185 686q34 138 40.5 170t6.5 66q0 112 -185 112l13 97h536z" />
    <glyph glyph-name="O" unicode="O" horiz-adv-x="1593" 
d="M1505 922q0 -180 -69 -354t-184.5 -305.5t-277 -212.5t-335.5 -81q-255 0 -406 161t-151 433q0 187 72.5 362.5t190 302.5t273.5 204t318 77q245 0 407 -165t162 -422zM1266 1016q0 88 -18.5 159.5t-56.5 127.5t-101.5 87t-147.5 31q-207 0 -367 -204
q-100 -129 -175.5 -368t-75.5 -425q0 -169 86 -268t233 -99q120 0 226 63t175 175q96 154 159 358.5t63 362.5z" />
    <glyph glyph-name="P" unicode="P" horiz-adv-x="1366" 
d="M1358 1108q0 -121 -58 -217.5t-165 -155.5q-75 -40 -131 -55.5t-149 -22t-292 -6.5h-57l-107 -399q-14 -50 -20 -100q0 -34 31.5 -45t130.5 -11h53l-10 -96h-652l11 96h30q71 0 101.5 6.5t48.5 22.5q12 12 18 28t29 99l262 975q19 78 19 100q0 34 -31 44.5t-131 10.5h-53
l12 97h604q139 0 238.5 -26.5t157 -77t84 -116.5t26.5 -151zM1128 1130q0 137 -68 194.5t-229 57.5h-24q-63 0 -89.5 -20t-41.5 -78l-144 -536h60q132 -1 209 4q163 17 245 120t82 258z" />
    <glyph glyph-name="Q" unicode="Q" horiz-adv-x="1593" 
d="M1348 -123q-72 -134 -148 -198t-176 -64q-103 0 -169.5 79t-66.5 202q0 36 9 88q-77 -15 -135 -15q-270 0 -425 160t-155 440q0 182 69.5 355.5t184.5 301t270.5 205.5t319.5 78q124 0 230 -41t183.5 -116.5t121.5 -188t44 -248.5q0 -512 -485 -860v-45q2 -127 24 -182
t78 -55q40 0 80 39t74 110zM1260 1034q0 385 -328 385q-129 0 -245.5 -94.5t-194.5 -242t-124 -325.5t-46 -347q0 -91 17 -150t60 -113q-18 60 -18 105q0 129 84.5 212t216.5 83q134 0 215 -80t96 -229q123 169 195 383t72 413zM811 92q18 101 18 148q0 94 -48 150t-130 56
q-83 0 -138.5 -58t-55.5 -146q0 -86 52.5 -134.5t147.5 -48.5q73 0 154 33z" />
    <glyph glyph-name="R" unicode="R" horiz-adv-x="1517" 
d="M1378 270q-60 -163 -127.5 -232t-165.5 -69q-97 0 -157 69t-60 179q0 36 13 205q6 64 6 110q0 100 -54.5 142.5t-183.5 42.5h-141l-125 -465q-16 -57 -21 -100q0 -34 31.5 -45t130.5 -11h54l-11 -96h-651l10 96h33q71 0 99.5 6.5t47.5 22.5q13 13 20 31.5t28 95.5
l262 975q18 74 18 100q0 34 -31 44.5t-131 10.5h-53l12 97h656q279 0 403.5 -86.5t124.5 -249.5q0 -99 -56.5 -186.5t-152.5 -137.5q-56 -28 -125 -44.5t-188 -29.5q112 -41 161.5 -119t49.5 -212q0 -11 -1 -35.5t-1 -38.5l-2 -104q-3 -125 61 -125q43 0 74.5 41t69.5 149z
M1169 1157q0 107 -70.5 166t-199.5 59h-100q-72 0 -98 -22t-48 -100l-121 -447h160q130 0 191 11t118 44q168 100 168 289z" />
    <glyph glyph-name="S" unicode="S" horiz-adv-x="1366" 
d="M1165 438q0 -203 -156 -336t-395 -133q-247 0 -421 160l-121 -129h-72l113 584l82 -15q-2 -23 -2 -57q0 -206 114.5 -330.5t304.5 -124.5q158 0 257.5 81.5t99.5 211.5q0 112 -90 178q-29 18 -160 74l-176 74q-171 71 -236 159t-65 216q0 193 142 325.5t349 132.5
q219 0 373 -151l111 106h77l-110 -534l-86 14q2 18 2 41q0 202 -94.5 319t-257.5 117q-136 0 -228 -77t-92 -191q0 -79 56 -138t178 -106l174 -69q183 -74 256 -162.5t73 -239.5z" />
    <glyph glyph-name="T" unicode="T" horiz-adv-x="1402" 
d="M1401 915l-86 11q4 84 4 143q0 166 -57 239.5t-193 73.5h-29q-47 0 -63.5 -18t-38.5 -96l-272 -1016q-19 -74 -19 -100q0 -34 31.5 -45t130.5 -11h76l-13 -96h-708l10 96h45q139 0 172 29q13 13 19.5 30.5t27.5 96.5l279 1044q10 38 10 52q0 34 -68 34h-28
q-58 0 -101.5 -12.5t-84 -39t-83.5 -81t-87.5 -125.5t-108.5 -186l-84 12l180 529h1225z" />
    <glyph glyph-name="U" unicode="U" horiz-adv-x="1669" 
d="M1751 1382q-50 -2 -78 -5.5t-56.5 -18.5t-43.5 -33t-35 -62.5t-35 -92.5t-39 -136l-114 -432q-34 -129 -66 -219.5t-72.5 -164.5t-86 -119t-109 -75.5t-138.5 -42.5t-176 -12q-250 0 -381 100t-131 291q0 94 41 242l168 625q19 78 19 100q0 34 -31 44.5t-131 10.5h-51
l10 97h651l-12 -97h-37q-71 0 -98 -6t-43 -22q-14 -11 -19 -24.5t-28 -102.5l-185 -682q-12 -41 -20 -105t-8 -106q0 -131 86.5 -204t242.5 -73q234 0 357 172q36 51 61 121t72 244l119 440q34 138 40.5 170t6.5 66q0 59 -46 85.5t-145 26.5l13 97h538z" />
    <glyph glyph-name="V" unicode="V" horiz-adv-x="1441" 
d="M1571 1382q-76 -7 -124 -34t-99 -92t-134 -205l-608 -1082h-76l-239 1213q-25 123 -55.5 161.5t-104.5 38.5h-57l14 97h604l-10 -97h-70q-75 0 -99 -12.5t-24 -52.5q0 -27 17 -107l178 -893l457 822q63 110 63 159q0 44 -36 64t-117 20h-37l10 97h557z" />
    <glyph glyph-name="W" unicode="W" horiz-adv-x="1896" 
d="M1982 1382q-104 -23 -154 -76t-122 -216l-487 -1121h-78l-144 1035l-465 -1035h-71l-162 1233q-17 126 -39 148q-25 32 -98 32h-53l10 97h547l-13 -97h-41q-64 0 -88 -13.5t-24 -47.5q0 -22 10 -94l111 -826l344 785l-15 102q-4 27 -5.5 38t-8.5 25t-13.5 17.5t-24 8
t-36.5 5t-55 0.5h-37l10 97h570l-11 -97h-39q-74 0 -99 -11t-25 -44q0 -15 4 -55l110 -871l334 770q47 111 47 148q0 63 -131 63h-35l11 97h477z" />
    <glyph glyph-name="X" unicode="X" horiz-adv-x="1441" 
d="M1321 0h-657l12 96h63q74 0 99.5 9.5t25.5 37.5q0 25 -12 52l-184 438l-310 -326q-79 -82 -79 -139q0 -72 127 -72h43l-13 -96h-586l11 96q106 14 173.5 55t182.5 162l404 424l-213 502q-41 96 -76 119.5t-135 23.5h-50l11 97h645l-10 -97h-37q-138 0 -138 -57
q0 -13 21 -65l147 -353l250 256q54 57 76.5 93t22.5 67q0 59 -107 59h-41l10 97h580l-10 -97q-107 -3 -175.5 -40.5t-187.5 -157.5l-373 -381l238 -557q17 -39 27 -60.5t24.5 -41t25 -27t32 -13.5t42 -7t58.5 -1h53z" />
    <glyph glyph-name="Y" unicode="Y" horiz-adv-x="1402" 
d="M1542 1382q-110 -6 -176.5 -49t-173.5 -178l-410 -524l-102 -379q-21 -88 -21 -100q0 -34 31.5 -45t132.5 -11h74l-10 -96h-711l12 96h45q141 0 170 29q14 12 20 29t28 98l102 379l-246 610q-35 86 -75.5 113.5t-131.5 27.5h-34l10 97h631l-11 -97h-57q-67 0 -96 -11.5
t-29 -37.5q0 -21 23 -78l204 -510l349 447q53 63 53 111q0 37 -35 58t-96 21h-47l10 97h577z" />
    <glyph glyph-name="Z" unicode="Z" horiz-adv-x="1366" 
d="M1251 524l-168 -524h-1134l12 78l1092 1304h-197q-248 0 -362 -86q-60 -43 -92 -88t-148 -241l-84 22l166 490h1030l-12 -80l-1094 -1303h277q100 0 170 11.5t132.5 39.5t114.5 81.5t102 129t109 191.5z" />
    <glyph glyph-name="bracketleft" unicode="[" 
d="M424 -156l-18 -65h-474l457 1700h451l-19 -68h-276l-420 -1567h299z" />
    <glyph glyph-name="backslash" unicode="\" horiz-adv-x="1241" 
d="M1069 0h-111l-776 1450h111z" />
    <glyph glyph-name="bracketright" unicode="]" 
d="M735 1479l-456 -1700h-449l18 67h275l420 1567h-299l18 66h473z" />
    <glyph glyph-name="asciicircum" unicode="^" horiz-adv-x="1241" 
d="M1135 651h-179l-333 637l-338 -637h-179l429 828h174z" />
    <glyph glyph-name="underscore" unicode="_" horiz-adv-x="1024" 
d="M1024 -252h-1024v86h1024v-86z" />
    <glyph glyph-name="grave" unicode="`" 
d="M596 1075h-80l-221 197q-30 34 -8 80q15 29 48 50t62 21q23 0 37 -12.5t33 -48.5z" />
    <glyph glyph-name="a" unicode="a" horiz-adv-x="1175" 
d="M1071 289q-38 -84 -100 -170q-108 -150 -240 -150q-56 0 -90.5 36.5t-34.5 96.5q0 27 10 66q-76 -110 -146 -154.5t-165 -44.5q-137 0 -220 91.5t-83 242.5q0 122 44 245.5t122 225.5q148 189 338 189q100 0 170 -60t80 -155l55 184h178l-205 -688q-22 -80 -22 -111
q0 -21 12.5 -36t30.5 -15q40 0 92 62.5t111 179.5zM592 258q47 96 75.5 209t28.5 201q0 85 -41.5 133.5t-113.5 48.5q-95 0 -164 -72q-82 -83 -135.5 -226t-53.5 -278q0 -94 43.5 -147t120.5 -53t135 44.5t105 139.5z" />
    <glyph glyph-name="b" unicode="b" horiz-adv-x="1138" 
d="M999 614q0 -139 -53 -264.5t-153 -222.5q-85 -82 -179.5 -120t-214.5 -38q-152 0 -242.5 79.5t-90.5 213.5q0 64 28 162l246 827q18 67 18 88q0 35 -26.5 50.5t-89.5 15.5h-49l8 74l393 30l-217 -733q87 102 159.5 144.5t161.5 42.5q136 0 218.5 -95.5t82.5 -253.5z
M797 625q0 100 -44 156.5t-122 56.5q-152 0 -271 -187q-54 -89 -87 -200t-33 -205t46.5 -146.5t129.5 -52.5q156 0 270 189q111 186 111 389z" />
    <glyph glyph-name="c" unicode="c" horiz-adv-x="909" 
d="M758 225q-164 -256 -396 -256q-160 0 -256 101t-96 270q0 161 76 305.5t202 231t267 86.5q110 0 188 -65t78 -157q0 -66 -36.5 -109.5t-92.5 -43.5q-47 0 -77.5 28t-30.5 72q0 36 16.5 57.5t58.5 40.5q33 11 33 31q0 26 -40.5 47t-90.5 21q-128 0 -235 -152
q-59 -85 -93 -198.5t-34 -223.5q0 -116 49.5 -179.5t140.5 -63.5q154 0 309 202z" />
    <glyph glyph-name="d" unicode="d" horiz-adv-x="1251" 
d="M1155 287q-86 -163 -173.5 -240.5t-184.5 -77.5q-68 0 -104 38t-36 108q0 29 2 45q-68 -99 -147.5 -145t-183.5 -46q-143 0 -232.5 94t-89.5 244q0 167 80 319t212 244.5t277 92.5q54 0 103 -20t82 -54q31 -34 51 -94l135 456q19 65 19 90q0 34 -27 49t-90 15h-64l9 74
l407 30l-364 -1228q-31 -112 -31 -148q0 -55 51 -55t100 50.5t138 195.5zM756 684q0 81 -49.5 133.5t-124.5 52.5q-152 0 -269 -202q-49 -86 -78.5 -189.5t-29.5 -191.5q0 -100 50 -160.5t132 -60.5q149 0 252 198q49 93 83 215.5t34 204.5z" />
    <glyph glyph-name="e" unicode="e" horiz-adv-x="909" 
d="M743 182q-165 -213 -401 -213q-166 0 -260 94.5t-94 260.5q0 123 47.5 240.5t124.5 204.5t182 140.5t215 53.5q108 0 176 -58.5t68 -152.5q0 -89 -63.5 -164.5t-182.5 -128.5q-70 -31 -133 -50t-240 -61q-4 -54 -4 -69q0 -98 53.5 -155.5t145.5 -57.5q80 0 153.5 39.5
t163.5 132.5zM629 764q0 53 -31 85t-82 32q-114 0 -201 -122.5t-122 -330.5q89 19 127 30t81 31q111 50 169.5 120.5t58.5 154.5z" />
    <glyph glyph-name="f" unicode="f" 
d="M963 1323q0 -46 -32 -77.5t-79 -31.5q-44 0 -75.5 27.5t-31.5 65.5q0 26 19 57q14 23 14 37q0 15 -14.5 25t-34.5 10q-57 0 -100 -42.5t-80 -133.5q-30 -70 -46 -123t-54 -205h264l-29 -96h-258l-127 -506q-35 -138 -106 -374t-107 -333l-225 -37q191 427 303 893l84 357
h-182l26 96h178q38 141 69 220t75 151q123 204 321 204q98 0 163 -52.5t65 -131.5z" />
    <glyph glyph-name="g" unicode="g" horiz-adv-x="1099" 
d="M817 -82q0 -72 -36.5 -135.5t-102.5 -106.5q-75 -49 -171 -69.5t-249 -20.5q-126 0 -205 18.5t-141 61.5q-34 26 -54 66.5t-20 83.5q0 51 27.5 96.5t73.5 73.5q33 21 65 32.5t96 24.5q-60 29 -86 64.5t-26 87.5q0 37 18.5 74.5t48.5 62.5q34 30 73.5 44t111.5 23
q-127 68 -127 213q0 141 125 246t294 105q88 0 177 -39q80 63 129.5 86.5t103.5 23.5t91.5 -31.5t37.5 -74.5q0 -38 -24 -64t-58 -26q-25 0 -39 9.5t-39 43.5q-23 33 -53 33q-32 0 -76 -39q121 -86 121 -228q0 -69 -36.5 -141t-96.5 -119q-109 -86 -276 -86q-43 0 -148 15
q-44 6 -84 6q-54 0 -88.5 -23.5t-34.5 -58.5q0 -53 76 -72q36 -8 225 -18q103 -6 162 -18.5t109 -39.5q51 -28 78.5 -76t27.5 -108zM721 721q0 75 -47 119.5t-127 44.5q-110 0 -179 -88t-69 -226q0 -86 48 -135t132 -49q98 0 158 70q38 47 61 119.5t23 144.5zM659 -141
q0 77 -75 106q-35 15 -126.5 28t-160.5 13q-138 0 -215.5 -46.5t-77.5 -129.5q0 -158 291 -158q175 0 269.5 48t94.5 139z" />
    <glyph glyph-name="h" unicode="h" horiz-adv-x="1251" 
d="M1137 272q-83 -146 -180 -224.5t-193 -78.5q-61 0 -102 44t-41 110q0 61 36 170l109 319q31 98 31 144q0 37 -25 60.5t-65 23.5q-148 0 -293 -211q-55 -78 -83.5 -143t-68.5 -201l-84 -285h-178l371 1251q18 65 18 90q0 34 -27 49t-90 15h-63l8 74l408 30l-244 -823
q104 144 196.5 210.5t188.5 66.5q88 0 147.5 -57.5t59.5 -143.5q0 -93 -49 -230l-97 -282q-39 -109 -39 -137q0 -17 11 -28t26 -11q97 0 252 241z" />
    <glyph glyph-name="i" unicode="i" 
d="M578 287q-76 -118 -127 -174q-124 -142 -254 -142q-60 0 -101 36.5t-41 90.5q0 33 8 70.5t37 136.5l119 400q19 71 19 90q0 34 -27 48.5t-90 14.5h-49l8 74l393 31l-217 -732q-25 -89 -25 -114q0 -19 10 -31t25 -12q41 0 106.5 65t141.5 183zM553 1249q0 -41 -29.5 -70.5
t-70.5 -29.5t-71 29.5t-30 70.5t30 71t71 30t70.5 -30t29.5 -71z" />
    <glyph glyph-name="j" unicode="j" horiz-adv-x="645" 
d="M571 963l-243 -820q-65 -221 -92.5 -288t-73.5 -125q-125 -144 -293 -144q-95 0 -152 44.5t-57 119.5q0 54 32 88.5t83 34.5q43 0 70.5 -26.5t27.5 -69.5q0 -25 -16 -56q-11 -18 -11 -28q0 -14 13 -25.5t30 -11.5q137 0 222 334q31 130 51 188l155 527q19 64 19 88
q0 35 -27 50t-90 15h-72l9 74zM649 1249q0 -41 -29.5 -70.5t-70.5 -29.5t-70.5 29.5t-29.5 70.5t29.5 71t70.5 30t70.5 -30t29.5 -71z" />
    <glyph glyph-name="k" unicode="k" horiz-adv-x="1138" 
d="M1008 274q-96 -160 -176.5 -232.5t-165.5 -72.5q-152 0 -152 205l2 100v76q0 56 -33 56q-4 -1 -41 -5l-28 -2q-19 0 -32 13t-13 32q0 56 63 56q29 0 55 -11l27 -6q21 0 86 33q105 53 152 104.5t47 114.5q0 44 -27 74.5t-67 30.5q-58 0 -132.5 -51.5t-142.5 -137.5
q-49 -62 -101 -171.5t-83 -213.5l-78 -266h-178l370 1251q19 71 19 90q0 34 -27 49t-90 15h-63l8 74l407 30l-254 -856q104 161 201 235.5t203 74.5q85 0 143 -54.5t58 -132.5q0 -102 -96.5 -189.5t-278.5 -152.5q50 -40 70.5 -91.5t27.5 -158.5q4 -61 12.5 -80.5
t30.5 -19.5q37 0 81 48t132 183z" />
    <glyph glyph-name="l" unicode="l" 
d="M549 287q-187 -318 -383 -318q-61 0 -97 39t-36 105q0 48 9.5 93.5t45.5 166.5l260 878q19 65 19 90q0 34 -27 49t-90 15h-64l9 74l407 30l-379 -1280q-26 -85 -26 -112q0 -19 9.5 -31t26.5 -12q43 0 109.5 65t142.5 183z" />
    <glyph glyph-name="m" unicode="m" horiz-adv-x="1820" 
d="M1714 268q-99 -144 -155 -200q-105 -99 -203 -99q-71 0 -115.5 40t-44.5 104q0 44 8.5 77.5t48.5 151.5l95 291q28 89 28 131q0 36 -21 56t-59 20q-58 0 -129 -47.5t-127 -122.5q-93 -125 -168 -373l-88 -297h-178l164 555q41 128 41 205q0 38 -23 59t-63 21
q-115 0 -239 -158t-193 -393l-84 -289h-178l209 705q16 59 16 88q0 35 -26.5 50t-88.5 15h-49l6 74l373 31l-59 -277q108 154 188.5 215.5t177.5 61.5q85 0 142 -54.5t57 -136.5q0 -40 -12 -98q178 289 395 289q83 0 136.5 -52.5t53.5 -134.5q0 -76 -24 -153l-129 -398
q-25 -82 -25 -100q0 -20 13 -35.5t30 -15.5q77 0 236 237z" />
    <glyph glyph-name="n" unicode="n" horiz-adv-x="1251" 
d="M1151 276q-86 -150 -182 -228.5t-193 -78.5q-61 0 -102 43.5t-41 108.5q0 62 37 172l108 319q31 98 31 144q0 35 -23.5 59.5t-58.5 24.5q-66 0 -142.5 -56.5t-142.5 -154.5q-55 -81 -83 -145t-68 -199l-84 -285h-178l209 705q18 67 18 90q0 34 -27 48.5t-90 14.5h-49
l8 74l371 31l-59 -277q103 141 195.5 209t182.5 68q82 0 139.5 -58.5t57.5 -140.5q0 -95 -49 -232l-96 -282q-39 -106 -39 -137q0 -17 11 -28t26 -11q48 0 113 62.5t141 182.5z" />
    <glyph glyph-name="o" unicode="o" horiz-adv-x="1024" 
d="M922 575q0 -114 -46 -230t-128 -208q-148 -168 -373 -168q-167 0 -266 104t-99 279q0 256 172 434q171 177 377 177q149 0 256 -114t107 -274zM631 250q41 85 68.5 194t27.5 189q0 119 -47 185.5t-131 66.5q-115 0 -201 -111q-63 -85 -108 -235t-45 -277
q0 -105 46.5 -160t135.5 -55q81 0 141 48.5t113 154.5z" />
    <glyph glyph-name="p" unicode="p" horiz-adv-x="1175" 
d="M1036 629q0 -126 -43 -248.5t-121 -220.5q-147 -191 -368 -191q-101 0 -152 37.5t-92 143.5l-100 -334q-23 -84 -23 -103q0 -30 28.5 -41.5t102.5 -11.5h25l-8 -74h-492l8 74q41 2 59.5 3t40 8t29 13.5t19.5 28t17.5 40.5t17.5 63l262 889q18 59 18 90q0 34 -27 48.5
t-90 14.5h-49l8 74l373 31l-30 -175q69 85 148 130t157 45q60 0 117.5 -28.5t97.5 -78.5q67 -84 67 -227zM748 295q96 200 96 379q0 81 -42.5 130.5t-111.5 49.5q-61 0 -122.5 -41.5t-112.5 -118.5q-58 -89 -100 -217t-42 -217q0 -82 48.5 -135t123.5 -53q82 0 145.5 54
t117.5 169z" />
    <glyph glyph-name="q" unicode="q" horiz-adv-x="1138" 
d="M799 -414h-504l8 74q47 1 67.5 1.5t45 8t32 13t20.5 28t18.5 41.5t17.5 64l88 297q-133 -142 -283 -142q-61 0 -123 24.5t-100 63.5q-40 38 -63 102.5t-23 135.5q0 170 78 324.5t206.5 248t270.5 93.5q157 0 262 -142l125 142h80l-340 -1147q-23 -82 -23 -103
q0 -30 29 -41.5t103 -11.5h16zM639 313q37 80 63.5 190t26.5 185q0 86 -46 140.5t-118 54.5q-73 0 -146 -60.5t-130 -169.5q-41 -78 -67.5 -182t-26.5 -188q0 -95 44 -154t115 -59q82 0 156.5 63.5t128.5 179.5z" />
    <glyph glyph-name="r" unicode="r" horiz-adv-x="909" 
d="M887 811q0 -57 -34 -94t-87 -37q-63 0 -88 45q-8 12 -8 66q0 47 -37 47q-70 0 -176.5 -161t-163.5 -353l-96 -324h-179l209 705q21 78 21 96q0 57 -119 57h-49l8 74l371 31l-47 -238q82 127 154.5 182.5t158.5 55.5q70 0 116 -43t46 -109z" />
    <glyph glyph-name="s" unicode="s" horiz-adv-x="909" 
d="M729 285q0 -140 -110 -228t-287 -88q-154 0 -244 62.5t-90 169.5q0 60 34 98.5t85 38.5q44 0 74 -29.5t30 -72.5q0 -27 -7.5 -42.5t-35.5 -46.5q-14 -11 -14 -30q0 -31 50 -50.5t128 -19.5q106 0 169.5 49t63.5 131q0 53 -29 83t-116 65q-93 37 -160 69q-67 35 -104 89.5
t-37 119.5q0 134 105 222t266 88q132 0 217.5 -59.5t85.5 -153.5q0 -56 -32.5 -90.5t-84.5 -34.5q-46 0 -76 26.5t-30 67.5q0 24 5.5 38t26.5 44q11 18 11 28q0 25 -37.5 40.5t-96.5 15.5q-89 0 -148.5 -47t-59.5 -117q0 -60 34 -92.5t134 -67.5q82 -30 112.5 -43.5
t65.5 -36.5q102 -70 102 -196z" />
    <glyph glyph-name="t" unicode="t" horiz-adv-x="720" 
d="M584 287q-70 -114 -103 -158q-54 -72 -132 -116t-150 -44q-61 0 -104.5 45.5t-43.5 110.5q0 57 39 194l154 517h-193l29 96h192l101 340h178l-100 -340h223l-29 -96h-223l-195 -654q-6 -24 -6 -47q0 -26 12.5 -41.5t34.5 -15.5q51 0 105 53t149 197z" />
    <glyph glyph-name="u" unicode="u" horiz-adv-x="1251" 
d="M1139 276q-108 -168 -192.5 -237.5t-178.5 -69.5q-57 0 -94 38t-37 97q0 50 25 140q-91 -141 -182.5 -207t-198.5 -66q-87 0 -141 52.5t-54 136.5q0 46 8 78t56 190l81 277q17 63 17 88q0 35 -26 50t-89 15h-49l6 74l395 31l-200 -672q-23 -79 -23 -117q0 -37 25.5 -62.5
t62.5 -25.5q109 0 232 152.5t186 365.5l96 328h178l-202 -680q-25 -92 -25 -121q0 -20 12 -34.5t27 -14.5q31 0 89.5 60.5t133.5 170.5z" />
    <glyph glyph-name="v" unicode="v" horiz-adv-x="1062" 
d="M911 801q0 -120 -50.5 -281.5t-127.5 -286.5q-168 -266 -381 -266q-110 0 -185 77.5t-75 191.5q0 102 39 233l70 236q20 62 20 94q0 59 -117 59h-34l6 74l379 31l-140 -474q-49 -163 -49 -253q0 -68 39 -114t96 -46q80 0 160.5 72t140.5 196q40 82 65.5 167.5t25.5 137.5
q0 33 -10.5 54t-47.5 63q-43 49 -43 94q0 42 27 72.5t65 30.5q54 0 90.5 -47t36.5 -115z" />
    <glyph glyph-name="w" unicode="w" horiz-adv-x="1593" 
d="M1450 801q0 -125 -55.5 -293.5t-139.5 -298.5q-82 -125 -167 -182.5t-189 -57.5q-101 0 -161 60t-60 161q0 18 4 84q-53 -79 -84 -118t-72 -80q-104 -107 -241 -107q-100 0 -159.5 54t-59.5 145q0 65 34 174l107 363q16 53 16 88t-25.5 50t-88.5 15h-35l8 74l379 31
l-178 -601q-30 -100 -35.5 -125.5t-5.5 -60.5q0 -41 31 -69.5t75 -28.5q104 0 213 153q121 167 178 359l103 342h178l-133 -443q-47 -164 -47 -266q0 -68 30 -106.5t82 -38.5q145 0 285 262q40 77 66 165t26 146q0 32 -10 53t-47 62q-25 28 -34 48t-9 46q0 43 27 73t67 30
q54 0 90.5 -47t36.5 -115z" />
    <glyph glyph-name="x" unicode="x" horiz-adv-x="1024" 
d="M934 256q-41 -72 -55 -93.5t-41 -53.5q-70 -86 -110 -113t-97 -27q-76 0 -119.5 48t-69.5 163l-30 137l-62 -110q-134 -238 -282 -238q-61 0 -98.5 35t-37.5 92q0 52 29.5 85.5t75.5 33.5q38 0 59 -19.5t29 -60.5q6 -41 31 -41q52 0 141 162l92 164l-24 119
q-30 147 -38 178t-22 57q-6 12 -19 21.5t-24 9.5q-26 0 -58.5 -34t-109.5 -146l-59 43q122 176 153 211q75 84 142 84q63 0 100.5 -56t63.5 -188l22 -113l59 107q50 93 65 115.5t48 58.5q32 35 75.5 55.5t84.5 20.5q51 0 84 -35.5t33 -89.5q0 -51 -28 -81t-75 -30
q-28 0 -42 10t-27 41q-12 27 -35 27q-56 0 -129 -137l-90 -166l39 -195q28 -128 48.5 -170.5t55.5 -42.5q27 0 56.5 25t74.5 86q31 42 57 86z" />
    <glyph glyph-name="y" unicode="y" horiz-adv-x="1024" 
d="M930 856q0 -51 -27 -119t-115 -237q-115 -224 -227 -412t-184 -281q-91 -114 -176 -167.5t-174 -53.5q-79 0 -134 44.5t-55 107.5q0 46 31.5 78t75.5 32q30 0 54 -17t34 -46q6 -16 6 -80q0 -33 39 -33q41 0 98.5 41.5t118.5 116.5q38 49 117 172q-61 349 -146 664
q-34 131 -78 131q-26 0 -51 -37t-82 -160l-63 29q127 334 266 334q66 0 112 -75.5t81 -242.5l90 -432q99 157 156 293t57 213q0 30 -13 106q-4 24 -4 35q0 41 30 72t71 31t66.5 -30t25.5 -77z" />
    <glyph glyph-name="z" unicode="z" horiz-adv-x="948" 
d="M795 285q-47 -145 -137.5 -230.5t-194.5 -85.5q-100 0 -244 66q-100 47 -119.5 55t-38.5 8q-12 0 -15 -5.5t-3 -29.5q0 -44 -16 -69t-45 -25q-23 0 -36.5 13t-13.5 36q0 46 39 116t109 147q89 96 165.5 154t299.5 196q55 35 82.5 57.5t68.5 65.5q-72 -17 -104 -17
q-47 0 -76.5 6t-112.5 35q-96 29 -122 29q-77 0 -168 -164l-68 35q145 285 338 285q33 0 67 -11.5t105 -46.5q92 -47 147 -47q22 0 33.5 11t20.5 42q15 52 49 52q21 0 35 -13.5t14 -34.5q0 -40 -45 -116t-117 -158q-74 -85 -148 -143.5t-194 -126.5q-120 -70 -166 -104
t-82 -79q66 19 101 19q43 0 78 -8.5t129 -40.5q94 -33 137 -33q51 0 93 44t83 140z" />
    <glyph glyph-name="braceleft" unicode="{" 
d="M346 -162l-16 -59h-43q-85 0 -133 47t-48 131q0 73 35 195l47 180q19 67 23 89t4 52q0 93 -100 127l14 57q100 29 144 84.5t75 188.5l66 241q28 103 60 161.5t79 90.5q35 25 93 40.5t114 15.5h20l-16 -60q-85 -9 -132 -67.5t-85 -204.5l-72 -262q-34 -120 -81.5 -175.5
t-139.5 -80.5q55 -22 80.5 -54t25.5 -79q0 -44 -26 -138l-60 -227q-30 -111 -30 -172q0 -54 26.5 -86t75.5 -35z" />
    <glyph glyph-name="bar" unicode="|" horiz-adv-x="1241" 
d="M692 -221h-164v1700h164v-1700z" />
    <glyph glyph-name="braceright" unicode="}" 
d="M465 657l-16 -57q-99 -28 -144.5 -83.5t-77.5 -188.5l-63 -242q-28 -102 -61 -161t-80 -91q-33 -25 -91 -40t-116 -15h-17l17 59q83 9 130 68t85 205l71 262q32 119 80.5 175t139.5 81q-105 42 -105 133q0 40 25 137l61 227q31 115 31 174q0 52 -28 84t-75 35l17 60h43
q82 0 132 -47t50 -123q0 -67 -37 -203l-47 -180q-18 -66 -22.5 -89t-4.5 -53q0 -46 27 -80t76 -47z" />
    <glyph glyph-name="asciitilde" unicode="~" horiz-adv-x="1241" 
d="M1116 557q-57 -100 -135 -159.5t-152 -59.5q-38 0 -81.5 13.5t-120.5 49.5l-95 48q-91 42 -112 49.5t-51 7.5q-43 0 -89 -35t-87 -98l-109 78q57 100 135 159.5t152 59.5q38 0 80 -14t122 -52l95 -45q81 -39 106.5 -48t56.5 -9q43 0 89.5 35t87.5 98z" />
    <glyph glyph-name="uni00A0" unicode="&#xa0;" 
 />
    <glyph glyph-name="exclamdown" unicode="&#xa1;" 
d="M565 -319q-7 -107 -47.5 -167.5t-103.5 -60.5q-54 0 -87.5 33t-33.5 86q0 45 13 81t89 197q75 166 132.5 330.5t125.5 409.5l74 -21q-75 -283 -112 -484.5t-50 -403.5zM879 866q0 -52 -37.5 -89.5t-89.5 -37.5t-89.5 37.5t-37.5 89.5q0 54 37.5 90.5t91.5 36.5
q51 0 88 -37.5t37 -89.5z" />
    <glyph glyph-name="cent" unicode="&#xa2;" horiz-adv-x="1138" 
d="M877 231q-89 -132 -198 -199t-224 -61l-111 -247h-88l117 260q-115 34 -181.5 130t-66.5 228q0 121 45.5 235.5t121 198.5t178 134.5t210.5 50.5q52 0 115 -25l112 254h88l-131 -297q72 -63 72 -150q0 -66 -38 -108.5t-97 -42.5q-39 0 -62 18l-239 -538q98 10 161.5 51.5
t151.5 152.5zM805 819q0 26 -40 46t-93 20q-151 0 -260 -217q-93 -188 -93 -349q0 -162 101 -225l285 637q12 29 26.5 42.5t42.5 19.5q21 5 26 9t5 17z" />
    <glyph glyph-name="sterling" unicode="&#xa3;" horiz-adv-x="1138" 
d="M1069 279q-64 -160 -157.5 -235t-227.5 -75q-78 0 -141.5 25.5t-161.5 97.5q-64 -70 -112 -96.5t-113 -26.5q-75 0 -123.5 46.5t-48.5 117.5q0 72 51.5 123t126.5 51q74 0 184 -43q31 97 31 191q0 67 -17 211h-258l11 88h239q-4 72 -4 114q0 264 133 419t338 155
q129 0 213 -69t84 -175q0 -80 -40.5 -130t-104.5 -50q-51 0 -83 30.5t-32 77.5q0 64 62 109q31 24 38 32t7 23q0 34 -33.5 54t-89.5 20q-145 0 -213 -129.5t-68 -386.5q0 -53 2 -94h279l-11 -88h-270q0 -233 -104 -451q142 -74 262 -74q91 0 157 39t123 127zM305 154
q-46 38 -79 53.5t-70 15.5q-39 0 -66 -26t-27 -64q0 -40 27 -64t70 -24q93 0 145 109z" />
    <glyph glyph-name="currency" unicode="&#xa4;" horiz-adv-x="1138" 
d="M1085 297l-104 -107l-104 105q-135 -102 -302 -102q-173 0 -309 106l-108 -109l-107 107l109 109q-107 141 -107 309q0 80 27 159t76 142l-105 104l107 105l102 -105q136 103 301 103q168 0 309 -107l111 109l104 -105l-108 -108q106 -136 106 -312q0 -166 -102 -301z
M915 709q0 143 -101.5 244.5t-244.5 101.5t-244.5 -101.5t-101.5 -244.5q0 -142 101 -245.5t241 -103.5q146 0 248 101.5t102 247.5z" />
    <glyph glyph-name="yen" unicode="&#xa5;" horiz-adv-x="1138" 
d="M1266 1346q-94 -20 -142 -59t-143 -171l-258 -362h246l-11 -88h-299l-2 -4l-43 -160h299l-10 -88h-311l-45 -162q-19 -89 -19 -100q0 -34 32 -45t130 -11h55l-10 -96h-649l10 96h27q141 0 170 29q13 12 19 27.5t28 99.5l45 162h-303l10 88h316l43 160l-2 4h-299l10 88
h258l-164 450q-49 142 -164 142h-8l10 96h524l-10 -96h-28q-68 0 -97.5 -12t-29.5 -38q0 -23 22 -79l156 -441l262 379q32 44 42.5 66.5t10.5 46.5q0 35 -36 56.5t-97 21.5h-18l10 96h473z" />
    <glyph glyph-name="brokenbar" unicode="&#xa6;" horiz-adv-x="1241" 
d="M692 799h-164v680h164v-680zM692 -221h-164v680h164v-680z" />
    <glyph glyph-name="section" unicode="&#xa7;" horiz-adv-x="1024" 
d="M893 528q0 -117 -80 -195.5t-197 -78.5q-38 0 -98 14q60 -100 82.5 -160.5t22.5 -121.5q0 -127 -93.5 -210t-236.5 -83q-135 0 -225.5 69t-90.5 172q0 57 34 93t85 36q50 0 81.5 -30.5t31.5 -79.5q0 -52 -45 -94q-19 -17 -19 -31q0 -28 42.5 -49t95.5 -21q75 0 121.5 48
t46.5 126q0 66 -30.5 130.5t-119.5 177.5l-125 159q-113 141 -113 279q0 115 81.5 192.5t201.5 77.5q45 0 100 -18q-64 93 -88 154t-24 130q0 135 92.5 215t247.5 80q133 0 221 -68t88 -171q0 -57 -32.5 -94t-84.5 -37q-49 0 -82.5 32.5t-33.5 79.5q0 34 12.5 55.5
t50.5 53.5q12 9 12 18q0 26 -42.5 46t-98.5 20q-85 0 -134.5 -47t-49.5 -127q0 -61 35 -129t131 -193l116 -153q111 -143 111 -267zM737 471q0 76 -78 184l-86 117q-38 51 -90 80t-106 29q-69 0 -112.5 -41.5t-43.5 -106.5q0 -68 53 -139l99 -137q58 -82 96.5 -108.5
t97.5 -26.5q69 0 119.5 44t50.5 105z" />
    <glyph glyph-name="dieresis" unicode="&#xa8;" 
d="M377 1249q0 -41 -30 -70.5t-71 -29.5t-70.5 29.5t-29.5 70.5t29.5 71t70.5 30t71 -30t30 -71zM766 1249q0 -41 -29.5 -70.5t-70.5 -29.5t-71 29.5t-30 70.5t30 71t71 30t70.5 -30t29.5 -71z" />
    <glyph glyph-name="copyright" unicode="&#xa9;" horiz-adv-x="1529" 
d="M1481 694q0 -196 -97.5 -362.5t-264.5 -263.5t-363 -97t-362.5 97t-263.5 263.5t-97 362.5t97 363t263.5 264.5t362.5 97.5t363 -97.5t264.5 -264.5t97.5 -363zM1391 694q0 129 -50.5 246.5t-135.5 202.5t-202.5 135.5t-246.5 50.5t-246 -50.5t-202 -135.5t-135 -202.5
t-50 -246.5t50 -246t135 -202t202 -135t246 -50t246.5 50t202.5 135t135.5 202t50.5 246zM1147 1071l-60 -305h-55q-9 145 -57.5 209.5t-138.5 64.5q-72 0 -133.5 -45.5t-99.5 -116.5t-58.5 -153.5t-18.5 -159.5q2 -94 56.5 -153.5t156.5 -59.5q94 0 157 45t118 156l57 -23
q-55 -125 -140 -182t-210 -57q-159 0 -257 86.5t-102 230.5q-3 123 61 236t173 182.5t229 69.5q126 0 207 -84l66 59h49z" />
    <glyph glyph-name="ordfeminine" unicode="&#xaa;" horiz-adv-x="864" 
d="M750 676h-580v82h580v-82zM864 1096q-46 -92 -102.5 -141.5t-116.5 -49.5q-37 0 -59.5 22.5t-22.5 57.5q0 9 6 39q-51 -67 -95.5 -93t-106.5 -26q-89 0 -143 55t-54 144q0 151 100 272t224 121q67 0 112 -35t53 -94l37 111h115l-133 -410q-14 -46 -14 -65q0 -12 8 -21.5
t20 -9.5q25 0 56.5 33.5t76.5 109.5zM621 1321q0 51 -27.5 80t-73.5 29q-62 0 -116.5 -54.5t-83.5 -133t-29 -155.5q0 -57 28 -88.5t78 -31.5q63 0 116 59.5t80.5 140t27.5 154.5z" />
    <glyph glyph-name="guillemotleft" unicode="&#xab;" horiz-adv-x="872" 
d="M668 209q0 -15 -9.5 -25t-23.5 -10q-15 0 -37 31l-223 293l381 295q38 30 49 30q7 0 12.5 -7.5t5.5 -18.5q0 -14 -16.5 -33.5t-108.5 -114.5l-159 -172l125 -244q4 -16 4 -24zM262 209q0 -15 -9.5 -25t-23.5 -10t-36 31l-87 117l-137 176l381 295q38 30 49 30
q8 0 13.5 -8t5.5 -18q0 -14 -16.5 -33.5t-108.5 -114.5l-160 -172l125 -244q4 -16 4 -24z" />
    <glyph glyph-name="logicalnot" unicode="&#xac;" horiz-adv-x="1241" 
d="M1149 778v-450h-164v286h-913v164h1077z" />
    <glyph glyph-name="uni00AD" unicode="&#xad;" 
d="M485 399h-419l45 170h419z" />
    <glyph glyph-name="registered" unicode="&#xae;" horiz-adv-x="1529" 
d="M1481 694q0 -196 -97.5 -362.5t-264.5 -263.5t-363 -97t-362.5 97t-263.5 263.5t-97 362.5t97 363t263.5 264.5t362.5 97.5t363 -97.5t264.5 -264.5t97.5 -363zM1391 694q0 129 -50.5 246.5t-135.5 202.5t-202.5 135.5t-246.5 50.5t-246 -50.5t-202 -135.5t-135 -202.5
t-50 -246.5t50 -246t135 -202t202 -135t246 -50t246.5 50t202.5 135t135.5 202t50.5 246zM1178 909q1 -52 -30 -98t-87 -72q-58 -27 -160 -37q57 -23 83 -62.5t28 -104.5v-39v-54q0 -59 28 -59q23 0 39.5 20.5t36.5 77.5l51 -18q-32 -89 -70.5 -126.5t-97.5 -37.5
t-96.5 36.5t-38.5 96.5q0 25 4 107q2 20 2 55q-1 49 -30.5 69.5t-98.5 20.5h-73l-64 -235q-3 -12 -5 -22.5t-3 -18.5t-2 -11q1 -15 17 -18.5t69 -3.5h33l-6 -60h-375l6 60h20q64 0 76 12q7 6 10.5 15t14.5 49l135 503q8 40 8 50q0 16 -15 20t-69 4h-33l7 59h374
q163 0 236.5 -45.5t75.5 -132.5zM1022 918q-1 52 -40 81t-108 29h-57q-36 0 -49.5 -11t-24.5 -48l-59 -226h80q70 0 104.5 6t65.5 23q91 51 88 146z" />
    <glyph glyph-name="macron" unicode="&#xaf;" 
d="M768 1198h-616l22 105h617z" />
    <glyph glyph-name="degree" unicode="&#xb0;" horiz-adv-x="819" 
d="M758 1092q0 -132 -89 -223t-218 -91t-218.5 92t-89.5 224q0 130 91.5 220.5t222.5 90.5q127 0 214 -90.5t87 -222.5zM641 1092q0 81 -54.5 138.5t-131.5 57.5q-83 0 -140 -57t-57 -139q0 -81 57.5 -139t135.5 -58q80 0 135 57t55 140z" />
    <glyph glyph-name="plusminus" unicode="&#xb1;" horiz-adv-x="1241" 
d="M1149 594h-457v-283h-164v283h-456v164h456v456h164v-456h457v-164zM1149 0h-1077v164h1077v-164z" />
    <glyph glyph-name="two.superior" unicode="&#xb2;" 
d="M678 834l-105 -244h-573q7 56 76 123t340 286q86 69 121.5 125t35.5 121q0 61 -40.5 98t-108.5 37q-61 0 -118.5 -33.5t-57.5 -68.5q0 -9 6 -15t27 -16q33 -17 47 -35.5t14 -44.5q0 -35 -26 -59.5t-64 -24.5q-49 0 -78 32.5t-29 86.5q0 101 95 176.5t221 75.5
q117 0 189.5 -60.5t72.5 -158.5q0 -72 -36 -130.5t-114 -115.5q-41 -29 -221 -145q-141 -91 -182 -137h291q45 0 66.5 15t54.5 73l36 61z" />
    <glyph glyph-name="three.superior" unicode="&#xb3;" 
d="M616 862q0 -124 -102 -207.5t-254 -83.5q-120 0 -189 53t-69 144q0 50 27 80.5t71 30.5q37 0 63.5 -24t26.5 -56q0 -53 -57 -76q-22 -10 -22 -21q0 -26 39 -45.5t92 -19.5q99 0 160 68.5t61 179.5q0 54 -28.5 86.5t-74.5 32.5q-2 0 -47 -5q-10 -2 -26 -2q-20 0 -32.5 10
t-12.5 27q0 19 14 30t37 11l45 -2l29 -2q64 0 116 62t52 139q0 54 -36 84t-100 30q-43 0 -81.5 -17t-38.5 -36q0 -9 16 -22q29 -29 29 -60q0 -32 -23 -53.5t-57 -21.5q-38 0 -63 25t-25 65q0 76 79.5 132t186.5 56q113 0 184.5 -55.5t71.5 -143.5q0 -72 -48.5 -128.5
t-133.5 -82.5l-23 -8q69 -22 106 -66.5t37 -107.5z" />
    <glyph glyph-name="acute" unicode="&#xb4;" 
d="M711 1352q0 -46 -52 -80l-325 -197h-80l283 287q37 36 58 48.5t44 12.5q29 0 50.5 -21t21.5 -50z" />
    <glyph glyph-name="uni00B5" unicode="&#xb5;" horiz-adv-x="1251" 
d="M1139 276q-108 -168 -192.5 -237.5t-178.5 -69.5q-57 0 -94 38t-37 97q0 50 25 140q-89 -140 -181 -206.5t-196 -66.5q-58 0 -96 22.5t-66 72.5q-17 -54 -20 -77t-5 -87q-3 -110 -9 -150.5t-26 -87.5q-22 -48 -61.5 -80.5t-77.5 -32.5q-29 0 -48 23t-19 57q0 47 19 93
t87 161q54 97 72 156l196 664q17 63 17 88q0 35 -26 50t-89 15h-49l6 74l395 31l-200 -672q-23 -79 -23 -117q0 -37 25.5 -62.5t62.5 -25.5q109 0 232 152.5t186 365.5l96 328h178l-202 -680q-25 -92 -25 -121q0 -20 12 -34.5t27 -14.5q31 0 89.5 60.5t133.5 170.5z" />
    <glyph glyph-name="paragraph" unicode="&#xb6;" horiz-adv-x="1331" 
d="M874 -295h-694l6 74h11q101 0 133 28q11 13 19 34t34 116l188 707h-67q-309 0 -309 268q0 123 55.5 246t144.5 198q76 64 152.5 83.5t253.5 19.5h520l-6 -74q-91 -4 -116.5 -18.5t-37.5 -63.5l-366 -1366q-31 -117 -31 -133q0 -23 22.5 -31.5t94.5 -13.5zM590 731
l180 674q-104 0 -161 -55.5t-95 -196.5l-45 -168q-20 -78 -20 -133q0 -57 26.5 -89t73.5 -32h41zM614 -219l435 1624h-146l-434 -1624h145z" />
    <glyph glyph-name="periodcentered" unicode="&#xb7;" horiz-adv-x="569" 
d="M401 512q0 -52 -37.5 -89.5t-89.5 -37.5t-89.5 37.5t-37.5 89.5t37.5 89.5t89.5 37.5t89.5 -37.5t37.5 -89.5z" />
    <glyph glyph-name="cedilla" unicode="&#xb8;" 
d="M440 -264q0 -80 -69.5 -129t-184.5 -49q-102 0 -180 34l37 68q77 -25 127 -25q52 0 83.5 22.5t31.5 59.5t-27 58.5t-72 21.5q-26 0 -67 -12l-19 12l121 213h72l-80 -141q43 6 61 6q73 0 119.5 -38.5t46.5 -100.5z" />
    <glyph glyph-name="one.superior" unicode="&#xb9;" 
d="M580 590h-492l8 69h64q84 0 102 15q6 6 10 16t17 55l139 486q3 3 8.5 24t5.5 29q0 11 -13 13.5t-69 2.5h-98l19 66q71 0 161 27t142 65h49l-205 -715q-12 -49 -12 -57q0 -17 18 -22t78 -5h78z" />
    <glyph glyph-name="ordmasculine" unicode="&#xba;" horiz-adv-x="761" 
d="M752 674h-582v82h582v-82zM762 1268q0 -142 -105 -252.5t-256 -110.5q-109 0 -170 61.5t-61 170.5q0 143 107.5 251.5t248.5 108.5q97 0 166.5 -67.5t69.5 -161.5zM635 1307q0 67 -30.5 105t-84.5 38q-63 0 -116.5 -55.5t-83 -140t-29.5 -173.5q0 -129 119 -129
q57 0 109.5 50t84 132.5t31.5 172.5z" />
    <glyph glyph-name="guillemotright" unicode="&#xbb;" horiz-adv-x="872" 
d="M414 498l-381 -293q-39 -31 -49 -31q-7 0 -13 8t-6 19q0 13 15.5 31.5t107.5 115.5l162 172l-125 244q-4 12 -4 24q0 15 9.5 25t23.5 10q15 0 36 -30zM819 498l-381 -293q-39 -31 -49 -31q-7 0 -12.5 8t-5.5 19q0 13 15.5 31.5t107.5 115.5l161 172l-125 244q-4 12 -4 24
q0 15 9.5 25t23.5 10q16 0 37 -30z" />
    <glyph glyph-name="onequarter" unicode="&#xbc;" horiz-adv-x="1708" 
d="M1352 1450l-785 -1450h-110l784 1450h111zM1669 223h-147l-21 -69q-12 -47 -12 -56q0 -17 17.5 -21.5t78.5 -4.5h31l-8 -72h-414l8 72h31q72 0 91.5 8t29.5 45l28 98h-362v62l604 583h82l-162 -565h146zM559 590h-491l8 69h63q85 0 103 15q8 8 26 71l140 486q3 3 8.5 24
t5.5 29q0 11 -13 13.5t-69 2.5h-98l18 66q71 0 161 27t142 65h49l-204 -715q-13 -53 -13 -57q0 -17 18 -22t79 -5h77zM1505 657l-368 -354h268z" />
    <glyph glyph-name="onehalf" unicode="&#xbd;" horiz-adv-x="1708" 
d="M1337 1450l-784 -1450h-111l785 1450h110zM559 590h-491l8 69h63q85 0 103 15q8 8 26 71l140 486q3 3 8.5 24t5.5 29q0 11 -13 13.5t-69 2.5h-98l18 66q71 0 161 27t142 65h49l-204 -715q-13 -53 -13 -57q0 -17 18 -22t79 -5h77zM1683 244l-104 -244h-573q7 57 76.5 125
t338.5 285q86 69 122 124.5t36 120.5q0 62 -41 99t-108 37q-61 0 -119 -34t-58 -69q0 -9 6 -15t27 -16q33 -18 47.5 -35.5t14.5 -43.5q0 -35 -26.5 -59.5t-64.5 -24.5q-49 0 -77.5 32t-28.5 86q0 101 94.5 176.5t220.5 75.5q117 0 190 -60.5t73 -158.5q0 -72 -36 -130.5
t-114 -115.5q-41 -29 -221 -145q-141 -91 -182 -137h290q45 0 66.5 15t54.5 73l37 61z" />
    <glyph glyph-name="threequarters" unicode="&#xbe;" horiz-adv-x="1708" 
d="M1376 1450l-784 -1450h-111l785 1450h110zM1669 223h-147l-21 -69q-12 -47 -12 -56q0 -17 17.5 -21.5t78.5 -4.5h31l-8 -72h-414l8 72h31q72 0 91.5 8t29.5 45l28 98h-362v62l604 583h82l-162 -565h146zM616 862q0 -124 -102 -207.5t-254 -83.5q-120 0 -189 53t-69 144
q0 50 27 80.5t71 30.5q37 0 63.5 -24t26.5 -56q0 -53 -57 -76q-22 -10 -22 -21q0 -26 39 -45.5t92 -19.5q99 0 160 68.5t61 179.5q0 54 -28.5 86.5t-74.5 32.5q-2 0 -47 -5q-10 -2 -26 -2q-20 0 -32.5 10t-12.5 27q0 19 14 30t37 11l45 -2l29 -2q64 0 116 62t52 139
q0 54 -36 84t-100 30q-43 0 -81.5 -17t-38.5 -36q0 -9 16 -22q29 -29 29 -60q0 -32 -23 -53.5t-57 -21.5q-38 0 -63 25t-25 65q0 76 79.5 132t186.5 56q113 0 184.5 -55.5t71.5 -143.5q0 -72 -48.5 -128.5t-133.5 -82.5l-23 -8q69 -22 106 -66.5t37 -107.5zM1505 657
l-368 -354h268z" />
    <glyph glyph-name="questiondown" unicode="&#xbf;" horiz-adv-x="909" 
d="M936 -164q0 -167 -96.5 -275t-247.5 -108q-123 0 -201 79.5t-78 205.5q0 130 76.5 223t298.5 236q73 47 105 89.5t32 90.5q0 46 -24.5 73t-67.5 27q-63 0 -98.5 -33.5t-61.5 -115.5l-73 12q19 97 83 156t152 59q86 0 139.5 -56.5t53.5 -148.5q0 -109 -73 -208.5
t-253 -237.5q-88 -67 -124 -119t-36 -111q0 -58 44.5 -97.5t109.5 -39.5q120 0 190 85t70 263h78q2 -23 2 -49zM958 866q0 -52 -37 -89.5t-90 -37.5q-52 0 -89 37t-37 90q0 54 37.5 90.5t91.5 36.5q51 0 87.5 -37.5t36.5 -89.5z" />
    <glyph glyph-name="Agrave" unicode="&#xc0;" horiz-adv-x="1441" 
d="M1358 0h-617l11 96h47q85 0 109 14t24 60q0 16 -8 66l-47 251h-523l-112 -196q-37 -61 -37 -113q0 -46 31 -64t110 -18h49l-12 -96h-551l10 96q83 0 152 56.5t151 191.5l676 1165h84l256 -1288q15 -80 43 -102.5t113 -22.5h51zM860 584l-117 587l-333 -587h450z
M1100 1567h-96l-297 176q-21 12 -27.5 33t4.5 41q15 26 51 44.5t70 18.5q28 0 49 -11.5t45 -43.5z" />
    <glyph glyph-name="Aacute" unicode="&#xc1;" horiz-adv-x="1441" 
d="M1358 0h-617l11 96h47q85 0 109 14t24 60q0 16 -8 66l-47 251h-523l-112 -196q-37 -61 -37 -113q0 -46 31 -64t110 -18h49l-12 -96h-551l10 96q83 0 152 56.5t151 191.5l676 1165h84l256 -1288q15 -80 43 -102.5t113 -22.5h51zM860 584l-117 587l-333 -587h450z
M1206 1817q0 -21 -17 -41.5t-44 -32.5l-391 -176h-97l340 258q70 55 123 55q34 0 60 -18.5t26 -44.5z" />
    <glyph glyph-name="Acircumflex" unicode="&#xc2;" horiz-adv-x="1441" 
d="M1358 0h-617l11 96h47q85 0 109 14t24 60q0 16 -8 66l-47 251h-523l-112 -196q-37 -61 -37 -113q0 -46 31 -64t110 -18h49l-12 -96h-551l10 96q83 0 152 56.5t151 191.5l676 1165h84l256 -1288q15 -80 43 -102.5t113 -22.5h51zM860 584l-117 587l-333 -587h450z
M1241 1569h-88l-213 192l-334 -192h-88l377 311h123z" />
    <glyph glyph-name="Atilde" unicode="&#xc3;" horiz-adv-x="1441" 
d="M1358 0h-617l11 96h47q85 0 109 14t24 60q0 16 -8 66l-47 251h-523l-112 -196q-37 -61 -37 -113q0 -46 31 -64t110 -18h49l-12 -96h-551l10 96q83 0 152 56.5t151 191.5l676 1165h84l256 -1288q15 -80 43 -102.5t113 -22.5h51zM860 584l-117 587l-333 -587h450z
M1255 1833q-10 -89 -66 -152t-124 -63q-34 0 -63.5 7.5t-112.5 39.5q-117 43 -152 43q-68 0 -92 -92h-61q19 102 67 158.5t117 56.5q49 0 205 -53q85 -31 121 -31q65 0 100 86h61z" />
    <glyph glyph-name="Adieresis" unicode="&#xc4;" horiz-adv-x="1441" 
d="M1358 0h-617l11 96h47q85 0 109 14t24 60q0 16 -8 66l-47 251h-523l-112 -196q-37 -61 -37 -113q0 -46 31 -64t110 -18h49l-12 -96h-551l10 96q83 0 152 56.5t151 191.5l676 1165h84l256 -1288q15 -80 43 -102.5t113 -22.5h51zM860 584l-117 587l-333 -587h450zM827 1724
q0 -41 -29.5 -70.5t-70.5 -29.5t-70.5 29.5t-29.5 70.5t29.5 71t70.5 30t70.5 -30t29.5 -71zM1217 1724q0 -41 -30 -70.5t-71 -29.5t-70.5 29.5t-29.5 70.5t29.5 71t70.5 30t71 -30t30 -71z" />
    <glyph glyph-name="Aring" unicode="&#xc5;" horiz-adv-x="1441" 
d="M1358 0h-617l11 96h47q85 0 109 14t24 60q0 16 -8 66l-47 251h-523l-112 -196q-37 -61 -37 -113q0 -46 31 -64t110 -18h49l-12 -96h-551l10 96q83 0 152 56.5t151 191.5l676 1165h84l256 -1288q15 -80 43 -102.5t113 -22.5h51zM860 584l-117 587l-333 -587h450z
M1133 1757q0 -86 -60.5 -145.5t-146.5 -59.5q-82 0 -141.5 61t-59.5 144t60 143t145 60q83 0 143 -60t60 -143zM1059 1757q0 53 -38.5 91t-90.5 38q-54 0 -92.5 -38t-38.5 -91q0 -54 38 -92.5t91 -38.5q56 0 93.5 38t37.5 93z" />
    <glyph glyph-name="AE" unicode="&#xc6;" horiz-adv-x="1781" 
d="M1673 502l-160 -502h-1089l12 96h37q71 0 98 6.5t43 22.5q14 12 20.5 29t27.5 98l86 317h-392l-194 -280q-51 -74 -51 -119q0 -25 13.5 -41t38.5 -23t49 -9t56 -1l-12 -96h-444l10 96q38 0 71 22t70 72l655 943q76 111 76 163q0 47 -36.5 66.5t-127.5 19.5h-55l10 97
h1297l-80 -494h-92l2 145q0 252 -242 252h-55q-80 0 -106.5 -24t-51.5 -117l-113 -420h56q63 0 106 13.5t75 47t53.5 78t45.5 117.5l95 -12l-185 -684l-92 16q19 80 19 144q0 100 -28.5 142t-115.5 42h-55l-121 -451q-25 -88 -25 -114q0 -64 132 -64h45q130 0 230.5 49
t173.5 139.5t138 233.5zM772 666l170 634q17 62 11 73q-4 7 -13 7q-22 0 -47 -41l-473 -673h352z" />
    <glyph glyph-name="Ccedilla" unicode="&#xc7;" horiz-adv-x="1478" 
d="M1298 420q-99 -232 -248.5 -341.5t-357.5 -109.5h-35l-59 -100q44 6 59 6q75 0 121.5 -38.5t46.5 -100.5q0 -80 -70 -129t-184 -49q-102 0 -180 34l37 68q77 -25 127 -25q51 0 83 22.5t32 59.5q0 35 -27.5 57.5t-71.5 22.5q-23 0 -69 -12l-17 12l103 178
q-239 34 -372.5 191.5t-133.5 406.5q0 176 69 348t181.5 300.5t264 208t308.5 79.5q118 0 202 -38t157 -125l122 118h74l-114 -573h-84q-10 281 -94.5 405.5t-245.5 124.5q-87 0 -167.5 -41.5t-143.5 -111.5t-115 -163t-86.5 -196.5t-53 -210.5t-18.5 -206q0 -188 98 -305
t283 -117q166 0 280 87t215 300z" />
    <glyph glyph-name="Egrave" unicode="&#xc8;" horiz-adv-x="1478" 
d="M1315 502l-160 -502h-1231l10 96h39q70 0 96.5 6t45.5 23q13 13 19.5 30.5t27.5 96.5l262 975q18 74 18 100q0 34 -31 44.5t-130 10.5h-54l13 97h1196l-80 -494h-92v72q0 96 -19.5 161t-58.5 100t-88.5 49.5t-118.5 14.5h-119q-51 0 -78 -2.5t-50 -9t-35 -24t-21 -40
t-21 -65.5l-112 -420h67q146 0 222.5 59t121.5 197l93 -12l-183 -684l-92 16q19 90 19 142q0 96 -47.5 141t-159.5 45h-66l-121 -451q-22 -86 -22 -112q0 -37 31.5 -51.5t111.5 -14.5h111q110 0 186.5 16.5t147 63t130 123.5t128.5 203l10 16zM1083 1567h-96l-297 176
q-21 12 -27 33t5 41q15 26 50.5 44.5t69.5 18.5q29 0 50 -12t45 -43z" />
    <glyph glyph-name="Eacute" unicode="&#xc9;" horiz-adv-x="1478" 
d="M1315 502l-160 -502h-1231l10 96h39q70 0 96.5 6t45.5 23q13 13 19.5 30.5t27.5 96.5l262 975q18 74 18 100q0 34 -31 44.5t-130 10.5h-54l13 97h1196l-80 -494h-92v72q0 96 -19.5 161t-58.5 100t-88.5 49.5t-118.5 14.5h-119q-51 0 -78 -2.5t-50 -9t-35 -24t-21 -40
t-21 -65.5l-112 -420h67q146 0 222.5 59t121.5 197l93 -12l-183 -684l-92 16q19 90 19 142q0 96 -47.5 141t-159.5 45h-66l-121 -451q-22 -86 -22 -112q0 -37 31.5 -51.5t111.5 -14.5h111q110 0 186.5 16.5t147 63t130 123.5t128.5 203l10 16zM1190 1817q0 -20 -17.5 -41
t-44.5 -33l-391 -176h-96l340 258q70 55 123 55q34 0 60 -18.5t26 -44.5z" />
    <glyph glyph-name="Ecircumflex" unicode="&#xca;" horiz-adv-x="1478" 
d="M1315 502l-160 -502h-1231l10 96h39q70 0 96.5 6t45.5 23q13 13 19.5 30.5t27.5 96.5l262 975q18 74 18 100q0 34 -31 44.5t-130 10.5h-54l13 97h1196l-80 -494h-92v72q0 96 -19.5 161t-58.5 100t-88.5 49.5t-118.5 14.5h-119q-51 0 -78 -2.5t-50 -9t-35 -24t-21 -40
t-21 -65.5l-112 -420h67q146 0 222.5 59t121.5 197l93 -12l-183 -684l-92 16q19 90 19 142q0 96 -47.5 141t-159.5 45h-66l-121 -451q-22 -86 -22 -112q0 -37 31.5 -51.5t111.5 -14.5h111q110 0 186.5 16.5t147 63t130 123.5t128.5 203l10 16zM1225 1569h-88l-213 192
l-334 -192h-88l377 311h122z" />
    <glyph glyph-name="Edieresis" unicode="&#xcb;" horiz-adv-x="1478" 
d="M1315 502l-160 -502h-1231l10 96h39q70 0 96.5 6t45.5 23q13 13 19.5 30.5t27.5 96.5l262 975q18 74 18 100q0 34 -31 44.5t-130 10.5h-54l13 97h1196l-80 -494h-92v72q0 96 -19.5 161t-58.5 100t-88.5 49.5t-118.5 14.5h-119q-51 0 -78 -2.5t-50 -9t-35 -24t-21 -40
t-21 -65.5l-112 -420h67q146 0 222.5 59t121.5 197l93 -12l-183 -684l-92 16q19 90 19 142q0 96 -47.5 141t-159.5 45h-66l-121 -451q-22 -86 -22 -112q0 -37 31.5 -51.5t111.5 -14.5h111q110 0 186.5 16.5t147 63t130 123.5t128.5 203l10 16zM811 1724q0 -41 -29.5 -70.5
t-70.5 -29.5t-71 29.5t-30 70.5t30 71t71 30t70.5 -30t29.5 -71zM1200 1724q0 -41 -29.5 -70.5t-70.5 -29.5t-71 29.5t-30 70.5t30 71t71 30t70.5 -30t29.5 -71z" />
    <glyph glyph-name="Igrave" unicode="&#xcc;" horiz-adv-x="833" 
d="M567 0h-635l11 96q91 2 122 7t50 22q13 13 19.5 31t27.5 96l262 975q20 79 20 100q0 34 -31 44.5t-132 10.5h-45l12 97h635l-11 -97q-92 -2 -123 -6.5t-49 -21.5q-13 -13 -18.5 -28.5t-28.5 -98.5l-262 -975q-20 -78 -20 -98q0 -35 31.5 -46.5t132.5 -11.5h45zM850 1567
h-96l-297 176q-21 12 -27.5 33t4.5 41q15 26 51 44.5t70 18.5q28 0 49 -11.5t45 -43.5z" />
    <glyph glyph-name="Iacute" unicode="&#xcd;" horiz-adv-x="833" 
d="M567 0h-635l11 96q91 2 122 7t50 22q13 13 19.5 31t27.5 96l262 975q20 79 20 100q0 34 -31 44.5t-132 10.5h-45l12 97h635l-11 -97q-92 -2 -123 -6.5t-49 -21.5q-13 -13 -18.5 -28.5t-28.5 -98.5l-262 -975q-20 -78 -20 -98q0 -35 31.5 -46.5t132.5 -11.5h45zM956 1817
q0 -21 -17 -41.5t-44 -32.5l-391 -176h-96l340 258q70 55 122 55q34 0 60 -18.5t26 -44.5z" />
    <glyph glyph-name="Icircumflex" unicode="&#xce;" horiz-adv-x="833" 
d="M567 0h-635l11 96q91 2 122 7t50 22q13 13 19.5 31t27.5 96l262 975q20 79 20 100q0 34 -31 44.5t-132 10.5h-45l12 97h635l-11 -97q-92 -2 -123 -6.5t-49 -21.5q-13 -13 -18.5 -28.5t-28.5 -98.5l-262 -975q-20 -78 -20 -98q0 -35 31.5 -46.5t132.5 -11.5h45zM991 1569
h-88l-213 192l-334 -192h-88l377 311h123z" />
    <glyph glyph-name="Idieresis" unicode="&#xcf;" horiz-adv-x="833" 
d="M567 0h-635l11 96q91 2 122 7t50 22q13 13 19.5 31t27.5 96l262 975q20 79 20 100q0 34 -31 44.5t-132 10.5h-45l12 97h635l-11 -97q-92 -2 -123 -6.5t-49 -21.5q-13 -13 -18.5 -28.5t-28.5 -98.5l-262 -975q-20 -78 -20 -98q0 -35 31.5 -46.5t132.5 -11.5h45zM578 1724
q0 -41 -30 -70.5t-71 -29.5t-70.5 29.5t-29.5 70.5t29.5 71t70.5 30t71 -30t30 -71zM967 1724q0 -41 -30 -70.5t-71 -29.5t-70.5 29.5t-29.5 70.5t29.5 71t70.5 30t71 -30t30 -71z" />
    <glyph glyph-name="Eth" unicode="&#xd0;" horiz-adv-x="1593" 
d="M1505 891q0 -206 -97 -404.5t-261 -328.5q-104 -83 -245.5 -120.5t-346.5 -37.5h-633l10 96h37q70 0 97.5 6.5t46.5 22.5q13 13 19.5 30.5t27.5 96.5l123 473h-209l24 96h211l113 406q18 67 18 100q0 34 -31 44.5t-130 10.5h-54l13 97h593q173 0 279 -24.5t182 -82.5
q103 -77 158 -201t55 -280zM1255 983q0 204 -92.5 301.5t-290.5 97.5h-61q-72 0 -90 -8q-31 -13 -51 -75q-7 -20 -15 -50l-116 -428h405l-24 -96h-408l-129 -500q-14 -49 -12 -71q0 -58 94 -58h65q288 0 420 117q125 113 215 340.5t90 429.5z" />
    <glyph glyph-name="Ntilde" unicode="&#xd1;" horiz-adv-x="1669" 
d="M1749 1382q-55 -2 -89.5 -11t-64 -28.5t-51.5 -61t-41.5 -98t-44.5 -149.5l-284 -1063h-80l-570 1231l-202 -758q-37 -144 -43.5 -173.5t-6.5 -61.5q0 -59 36.5 -86t127.5 -27h43l-12 -96h-565l10 96q47 1 78.5 6t60 20t47 37t38.5 63.5t36 92t37 129.5l233 873
q-12 41 -36 53t-97 12h-106l10 97h432l518 -1131l185 686q34 138 40.5 170t6.5 66q0 112 -185 112l13 97h536zM1434 1833q-10 -89 -66.5 -152t-124.5 -63q-34 0 -63.5 7.5t-112.5 39.5q-117 43 -152 43q-68 0 -92 -92h-61q19 102 67 158.5t117 56.5q49 0 205 -53
q85 -31 121 -31q65 0 100 86h62z" />
    <glyph glyph-name="Ograve" unicode="&#xd2;" horiz-adv-x="1593" 
d="M1505 922q0 -180 -69 -354t-184.5 -305.5t-277 -212.5t-335.5 -81q-255 0 -406 161t-151 433q0 187 72.5 362.5t190 302.5t273.5 204t318 77q245 0 407 -165t162 -422zM1266 1016q0 88 -18.5 159.5t-56.5 127.5t-101.5 87t-147.5 31q-207 0 -367 -204
q-100 -129 -175.5 -368t-75.5 -425q0 -169 86 -268t233 -99q120 0 226 63t175 175q96 154 159 358.5t63 362.5zM1231 1567h-96l-297 176q-21 12 -27.5 33t4.5 41q15 26 51 44.5t70 18.5q28 0 49 -11.5t45 -43.5z" />
    <glyph glyph-name="Oacute" unicode="&#xd3;" horiz-adv-x="1593" 
d="M1505 922q0 -180 -69 -354t-184.5 -305.5t-277 -212.5t-335.5 -81q-255 0 -406 161t-151 433q0 187 72.5 362.5t190 302.5t273.5 204t318 77q245 0 407 -165t162 -422zM1266 1016q0 88 -18.5 159.5t-56.5 127.5t-101.5 87t-147.5 31q-207 0 -367 -204
q-100 -129 -175.5 -368t-75.5 -425q0 -169 86 -268t233 -99q120 0 226 63t175 175q96 154 159 358.5t63 362.5zM1337 1817q0 -21 -17 -41.5t-44 -32.5l-391 -176h-97l340 258q70 55 123 55q34 0 60 -18.5t26 -44.5z" />
    <glyph glyph-name="Ocircumflex" unicode="&#xd4;" horiz-adv-x="1593" 
d="M1505 922q0 -180 -69 -354t-184.5 -305.5t-277 -212.5t-335.5 -81q-255 0 -406 161t-151 433q0 187 72.5 362.5t190 302.5t273.5 204t318 77q245 0 407 -165t162 -422zM1266 1016q0 88 -18.5 159.5t-56.5 127.5t-101.5 87t-147.5 31q-207 0 -367 -204
q-100 -129 -175.5 -368t-75.5 -425q0 -169 86 -268t233 -99q120 0 226 63t175 175q96 154 159 358.5t63 362.5zM1372 1569h-88l-213 192l-334 -192h-88l377 311h123z" />
    <glyph glyph-name="Otilde" unicode="&#xd5;" horiz-adv-x="1593" 
d="M1505 922q0 -180 -69 -354t-184.5 -305.5t-277 -212.5t-335.5 -81q-255 0 -406 161t-151 433q0 187 72.5 362.5t190 302.5t273.5 204t318 77q245 0 407 -165t162 -422zM1266 1016q0 88 -18.5 159.5t-56.5 127.5t-101.5 87t-147.5 31q-207 0 -367 -204
q-100 -129 -175.5 -368t-75.5 -425q0 -169 86 -268t233 -99q120 0 226 63t175 175q96 154 159 358.5t63 362.5zM1386 1833q-10 -89 -66 -152t-124 -63q-34 0 -63.5 7.5t-112.5 39.5q-117 43 -152 43q-68 0 -92 -92h-61q19 102 67 158.5t117 56.5q49 0 205 -53
q85 -31 121 -31q65 0 100 86h61z" />
    <glyph glyph-name="Odieresis" unicode="&#xd6;" horiz-adv-x="1593" 
d="M1505 922q0 -180 -69 -354t-184.5 -305.5t-277 -212.5t-335.5 -81q-255 0 -406 161t-151 433q0 187 72.5 362.5t190 302.5t273.5 204t318 77q245 0 407 -165t162 -422zM1266 1016q0 88 -18.5 159.5t-56.5 127.5t-101.5 87t-147.5 31q-207 0 -367 -204
q-100 -129 -175.5 -368t-75.5 -425q0 -169 86 -268t233 -99q120 0 226 63t175 175q96 154 159 358.5t63 362.5zM958 1724q0 -41 -29.5 -70.5t-70.5 -29.5t-70.5 29.5t-29.5 70.5t29.5 71t70.5 30t70.5 -30t29.5 -71zM1348 1724q0 -41 -30 -70.5t-71 -29.5t-70.5 29.5
t-29.5 70.5t29.5 71t70.5 30t71 -30t30 -71z" />
    <glyph glyph-name="multiply" unicode="&#xd7;" horiz-adv-x="1241" 
d="M1049 188l-115 -114l-324 321l-323 -321l-115 114l322 324l-322 324l115 114l323 -321l324 321l115 -114l-322 -324z" />
    <glyph glyph-name="Oslash" unicode="&#xd8;" horiz-adv-x="1593" 
d="M1505 924q0 -181 -69 -355t-184 -306t-276 -213t-335 -81q-191 0 -328 90l-192 -237h-119l242 297q-162 159 -162 446q0 184 69.5 358.5t184.5 302.5t271 205.5t321 77.5q203 0 350 -108l108 135h119l-157 -195q157 -164 157 -417zM1196 1298q-38 58 -105.5 89.5
t-154.5 31.5q-205 0 -361 -202q-100 -130 -175.5 -368t-75.5 -421q0 -96 28 -172zM1260 1042q0 85 -23 162l-838 -1036q83 -109 246 -109q95 0 181.5 42.5t153 116t120.5 170.5t88.5 207t53 224t18.5 223z" />
    <glyph glyph-name="Ugrave" unicode="&#xd9;" horiz-adv-x="1669" 
d="M1751 1382q-50 -2 -78 -5.5t-56.5 -18.5t-43.5 -33t-35 -62.5t-35 -92.5t-39 -136l-114 -432q-34 -129 -66 -219.5t-72.5 -164.5t-86 -119t-109 -75.5t-138.5 -42.5t-176 -12q-250 0 -381 100t-131 291q0 94 41 242l168 625q19 78 19 100q0 34 -31 44.5t-131 10.5h-51
l10 97h651l-12 -97h-37q-71 0 -98 -6t-43 -22q-14 -11 -19 -24.5t-28 -102.5l-185 -682q-12 -41 -20 -105t-8 -106q0 -131 86.5 -204t242.5 -73q234 0 357 172q36 51 61 121t72 244l119 440q34 138 40.5 170t6.5 66q0 59 -46 85.5t-145 26.5l13 97h538zM1270 1567h-96
l-297 176q-21 12 -27.5 33t4.5 41q15 26 51 44.5t70 18.5q28 0 49 -11.5t45 -43.5z" />
    <glyph glyph-name="Uacute" unicode="&#xda;" horiz-adv-x="1669" 
d="M1751 1382q-50 -2 -78 -5.5t-56.5 -18.5t-43.5 -33t-35 -62.5t-35 -92.5t-39 -136l-114 -432q-34 -129 -66 -219.5t-72.5 -164.5t-86 -119t-109 -75.5t-138.5 -42.5t-176 -12q-250 0 -381 100t-131 291q0 94 41 242l168 625q19 78 19 100q0 34 -31 44.5t-131 10.5h-51
l10 97h651l-12 -97h-37q-71 0 -98 -6t-43 -22q-14 -11 -19 -24.5t-28 -102.5l-185 -682q-12 -41 -20 -105t-8 -106q0 -131 86.5 -204t242.5 -73q234 0 357 172q36 51 61 121t72 244l119 440q34 138 40.5 170t6.5 66q0 59 -46 85.5t-145 26.5l13 97h538zM1376 1817
q0 -21 -17 -41.5t-44 -32.5l-391 -176h-97l340 258q70 55 123 55q34 0 60 -18.5t26 -44.5z" />
    <glyph glyph-name="Ucircumflex" unicode="&#xdb;" horiz-adv-x="1669" 
d="M1751 1382q-50 -2 -78 -5.5t-56.5 -18.5t-43.5 -33t-35 -62.5t-35 -92.5t-39 -136l-114 -432q-34 -129 -66 -219.5t-72.5 -164.5t-86 -119t-109 -75.5t-138.5 -42.5t-176 -12q-250 0 -381 100t-131 291q0 94 41 242l168 625q19 78 19 100q0 34 -31 44.5t-131 10.5h-51
l10 97h651l-12 -97h-37q-71 0 -98 -6t-43 -22q-14 -11 -19 -24.5t-28 -102.5l-185 -682q-12 -41 -20 -105t-8 -106q0 -131 86.5 -204t242.5 -73q234 0 357 172q36 51 61 121t72 244l119 440q34 138 40.5 170t6.5 66q0 59 -46 85.5t-145 26.5l13 97h538zM1411 1569h-88
l-213 192l-334 -192h-88l377 311h123z" />
    <glyph glyph-name="Udieresis" unicode="&#xdc;" horiz-adv-x="1669" 
d="M1751 1382q-50 -2 -78 -5.5t-56.5 -18.5t-43.5 -33t-35 -62.5t-35 -92.5t-39 -136l-114 -432q-34 -129 -66 -219.5t-72.5 -164.5t-86 -119t-109 -75.5t-138.5 -42.5t-176 -12q-250 0 -381 100t-131 291q0 94 41 242l168 625q19 78 19 100q0 34 -31 44.5t-131 10.5h-51
l10 97h651l-12 -97h-37q-71 0 -98 -6t-43 -22q-14 -11 -19 -24.5t-28 -102.5l-185 -682q-12 -41 -20 -105t-8 -106q0 -131 86.5 -204t242.5 -73q234 0 357 172q36 51 61 121t72 244l119 440q34 138 40.5 170t6.5 66q0 59 -46 85.5t-145 26.5l13 97h538zM997 1724
q0 -41 -29.5 -70.5t-70.5 -29.5t-70.5 29.5t-29.5 70.5t29.5 71t70.5 30t70.5 -30t29.5 -71zM1386 1724q0 -41 -29.5 -70.5t-70.5 -29.5t-70.5 29.5t-29.5 70.5t29.5 71t70.5 30t70.5 -30t29.5 -71z" />
    <glyph glyph-name="Yacute" unicode="&#xdd;" horiz-adv-x="1402" 
d="M1542 1382q-110 -6 -176.5 -49t-173.5 -178l-410 -524l-102 -379q-21 -88 -21 -100q0 -34 31.5 -45t132.5 -11h74l-10 -96h-711l12 96h45q141 0 170 29q14 12 20 29t28 98l102 379l-246 610q-35 86 -75.5 113.5t-131.5 27.5h-34l10 97h631l-11 -97h-57q-67 0 -96 -11.5
t-29 -37.5q0 -21 23 -78l204 -510l349 447q53 63 53 111q0 37 -35 58t-96 21h-47l10 97h577zM1245 1817q0 -21 -17 -41.5t-44 -32.5l-391 -176h-97l340 258q70 55 123 55q34 0 60 -18.5t26 -44.5z" />
    <glyph glyph-name="Thorn" unicode="&#xde;" horiz-adv-x="1366" 
d="M1278 840q0 -123 -58 -219.5t-165 -155.5q-104 -55 -205 -69.5t-387 -14.5h-37l-35 -129q-20 -78 -20 -98q0 -35 31.5 -46.5t132.5 -11.5h45l-13 -96h-635l11 96q90 2 121.5 7t50.5 22q11 11 17 25.5t20 65.5q6 23 10 36l262 977q20 79 20 98q0 34 -31 44.5t-132 10.5
h-45l12 97h635l-11 -97q-36 0 -59 -0.5t-45 -4t-33.5 -4.5t-24 -10.5t-16.5 -13t-11.5 -20t-9.5 -24.5t-9 -34.5t-11 -41.5l-6 -19h125q139 0 238.5 -26.5t157 -77t84 -116t26.5 -150.5zM1049 862q0 137 -68 194.5t-229 57.5h-25q-63 0 -89.5 -20t-41.5 -78l-143 -539h39
q149 -1 229 4q111 11 186 66t108.5 134.5t33.5 180.5z" />
    <glyph glyph-name="germandbls" unicode="&#xdf;" horiz-adv-x="1138" 
d="M961 506q0 -98 -30 -193.5t-82 -171.5t-130.5 -123t-169.5 -47q-95 0 -156 49.5t-61 126.5q0 52 30.5 85.5t77.5 33.5q41 0 71 -25.5t30 -60.5q0 -15 -14.5 -54t-14.5 -50t13 -20t30 -9q49 0 102.5 91t88 223.5t34.5 248.5q0 96 -44 144.5t-152 68.5q-31 5 -45.5 15
t-14.5 30q0 15 12 27t27 12q2 0 5.5 -0.5t19 -3.5t39.5 -6q31 -6 65 -6q85 0 148 107.5t63 252.5q0 87 -43.5 136t-120.5 49q-76 0 -132.5 -54.5t-100.5 -171.5q-16 -39 -32.5 -98t-72.5 -275q-21 -83 -34 -132l-72 -293q-98 -429 -234 -789l-217 -37q97 157 265 774l90 359
q66 261 115 393.5t112 220.5q126 174 324 174q148 0 236.5 -80t88.5 -213q0 -277 -303 -380q98 -66 143.5 -145t45.5 -183z" />
    <glyph glyph-name="agrave" unicode="&#xe0;" horiz-adv-x="1175" 
d="M1071 289q-38 -84 -100 -170q-108 -150 -240 -150q-56 0 -90.5 36.5t-34.5 96.5q0 27 10 66q-76 -110 -146 -154.5t-165 -44.5q-137 0 -220 91.5t-83 242.5q0 122 44 245.5t122 225.5q148 189 338 189q100 0 170 -60t80 -155l55 184h178l-205 -688q-22 -80 -22 -111
q0 -21 12.5 -36t30.5 -15q40 0 92 62.5t111 179.5zM592 258q47 96 75.5 209t28.5 201q0 85 -41.5 133.5t-113.5 48.5q-95 0 -164 -72q-82 -83 -135.5 -226t-53.5 -278q0 -94 43.5 -147t120.5 -53t135 44.5t105 139.5zM772 1075h-80l-221 197q-30 34 -8 80q15 29 48 50t62 21
q23 0 37 -12.5t33 -48.5z" />
    <glyph glyph-name="aacute" unicode="&#xe1;" horiz-adv-x="1175" 
d="M1071 289q-38 -84 -100 -170q-108 -150 -240 -150q-56 0 -90.5 36.5t-34.5 96.5q0 27 10 66q-76 -110 -146 -154.5t-165 -44.5q-137 0 -220 91.5t-83 242.5q0 122 44 245.5t122 225.5q148 189 338 189q100 0 170 -60t80 -155l55 184h178l-205 -688q-22 -80 -22 -111
q0 -21 12.5 -36t30.5 -15q40 0 92 62.5t111 179.5zM592 258q47 96 75.5 209t28.5 201q0 85 -41.5 133.5t-113.5 48.5q-95 0 -164 -72q-82 -83 -135.5 -226t-53.5 -278q0 -94 43.5 -147t120.5 -53t135 44.5t105 139.5zM887 1352q0 -47 -51 -80l-326 -197h-80l283 287
q37 36 58 48.5t44 12.5q29 0 50.5 -21t21.5 -50z" />
    <glyph glyph-name="acircumflex" unicode="&#xe2;" horiz-adv-x="1175" 
d="M1071 289q-38 -84 -100 -170q-108 -150 -240 -150q-56 0 -90.5 36.5t-34.5 96.5q0 27 10 66q-76 -110 -146 -154.5t-165 -44.5q-137 0 -220 91.5t-83 242.5q0 122 44 245.5t122 225.5q148 189 338 189q100 0 170 -60t80 -155l55 184h178l-205 -688q-22 -80 -22 -111
q0 -21 12.5 -36t30.5 -15q40 0 92 62.5t111 179.5zM592 258q47 96 75.5 209t28.5 201q0 85 -41.5 133.5t-113.5 48.5q-95 0 -164 -72q-82 -83 -135.5 -226t-53.5 -278q0 -94 43.5 -147t120.5 -53t135 44.5t105 139.5zM901 1077h-74l-176 213l-278 -213h-74l313 346h103z" />
    <glyph glyph-name="atilde" unicode="&#xe3;" horiz-adv-x="1175" 
d="M1071 289q-38 -84 -100 -170q-108 -150 -240 -150q-56 0 -90.5 36.5t-34.5 96.5q0 27 10 66q-76 -110 -146 -154.5t-165 -44.5q-137 0 -220 91.5t-83 242.5q0 122 44 245.5t122 225.5q148 189 338 189q100 0 170 -60t80 -155l55 184h178l-205 -688q-22 -80 -22 -111
q0 -21 12.5 -36t30.5 -15q40 0 92 62.5t111 179.5zM592 258q47 96 75.5 209t28.5 201q0 85 -41.5 133.5t-113.5 48.5q-95 0 -164 -72q-82 -83 -135.5 -226t-53.5 -278q0 -94 43.5 -147t120.5 -53t135 44.5t105 139.5zM983 1358q-10 -89 -66 -152t-124 -63q-35 0 -64.5 7.5
t-112.5 39.5q-117 43 -151 43q-68 0 -92 -92h-62q19 101 67.5 158t117.5 57q48 0 204 -53q85 -31 121 -31q66 0 101 86h61z" />
    <glyph glyph-name="adieresis" unicode="&#xe4;" horiz-adv-x="1175" 
d="M1071 289q-38 -84 -100 -170q-108 -150 -240 -150q-56 0 -90.5 36.5t-34.5 96.5q0 27 10 66q-76 -110 -146 -154.5t-165 -44.5q-137 0 -220 91.5t-83 242.5q0 122 44 245.5t122 225.5q148 189 338 189q100 0 170 -60t80 -155l55 184h178l-205 -688q-22 -80 -22 -111
q0 -21 12.5 -36t30.5 -15q40 0 92 62.5t111 179.5zM592 258q47 96 75.5 209t28.5 201q0 85 -41.5 133.5t-113.5 48.5q-95 0 -164 -72q-82 -83 -135.5 -226t-53.5 -278q0 -94 43.5 -147t120.5 -53t135 44.5t105 139.5zM553 1249q0 -41 -29.5 -70.5t-70.5 -29.5t-71 29.5
t-30 70.5t30 71t71 30t70.5 -30t29.5 -71zM942 1249q0 -41 -29.5 -70.5t-70.5 -29.5t-71 29.5t-30 70.5t30 71t71 30t70.5 -30t29.5 -71z" />
    <glyph glyph-name="aring" unicode="&#xe5;" horiz-adv-x="1175" 
d="M1071 289q-38 -84 -100 -170q-108 -150 -240 -150q-56 0 -90.5 36.5t-34.5 96.5q0 27 10 66q-76 -110 -146 -154.5t-165 -44.5q-137 0 -220 91.5t-83 242.5q0 122 44 245.5t122 225.5q148 189 338 189q100 0 170 -60t80 -155l55 184h178l-205 -688q-22 -80 -22 -111
q0 -21 12.5 -36t30.5 -15q40 0 92 62.5t111 179.5zM592 258q47 96 75.5 209t28.5 201q0 85 -41.5 133.5t-113.5 48.5q-95 0 -164 -72q-82 -83 -135.5 -226t-53.5 -278q0 -94 43.5 -147t120.5 -53t135 44.5t105 139.5zM850 1251q0 -86 -60 -145t-147 -59q-82 0 -141.5 60.5
t-59.5 143.5t60 143t145 60q83 0 143 -60t60 -143zM776 1251q0 53 -38 91t-91 38q-54 0 -92.5 -38t-38.5 -91q0 -54 38 -92.5t91 -38.5q55 0 93 38t38 93z" />
    <glyph glyph-name="ae" unicode="&#xe6;" horiz-adv-x="1478" 
d="M1307 186q-95 -113 -197.5 -165t-228.5 -52q-247 0 -291 217q-79 -118 -167.5 -167.5t-217.5 -49.5q-112 0 -177 54.5t-65 148.5q0 148 152 231t506 129q30 116 30 181q0 77 -56.5 123.5t-148.5 46.5q-59 0 -102 -19t-43 -45q0 -2 12.5 -16.5t25.5 -38.5t13 -49
q0 -46 -29.5 -74.5t-78.5 -28.5q-51 0 -81 31t-30 84q0 98 96 167t234 69q193 0 313 -150q162 150 354 150q107 0 171.5 -56.5t64.5 -150.5q0 -146 -134.5 -226t-473.5 -137q-19 -69 -19 -112q0 -100 51.5 -156.5t143.5 -56.5q172 0 315 172zM1190 768q0 49 -28.5 77.5
t-76.5 28.5q-103 0 -176 -95t-135 -304q100 16 172 38t129.5 56t86 83.5t28.5 115.5zM600 451q-228 -32 -337 -91t-109 -165q0 -54 35 -88.5t90 -34.5q118 0 193.5 87.5t127.5 291.5z" />
    <glyph glyph-name="ccedilla" unicode="&#xe7;" horiz-adv-x="909" 
d="M758 225q-72 -117 -171 -183t-208 -71l-55 -102q43 6 61 6q73 0 119.5 -38.5t46.5 -100.5q0 -80 -69.5 -129t-184.5 -49q-102 0 -180 34l37 68q73 -25 129 -25q51 0 81.5 22.5t30.5 59.5q0 35 -27 57.5t-71 22.5q-27 0 -68 -12l-18 12l96 174q-143 23 -220 118t-77 249
q0 162 76 307t202 231.5t267 86.5q110 0 188 -65t78 -157q0 -66 -36.5 -109.5t-92.5 -43.5q-47 0 -77.5 28t-30.5 72q0 36 16.5 57.5t58.5 40.5q33 11 33 31q0 26 -40.5 47t-90.5 21q-137 0 -237 -152q-53 -80 -89 -206t-36 -230t53.5 -166.5t142.5 -62.5q75 0 147.5 48
t155.5 154z" />
    <glyph glyph-name="egrave" unicode="&#xe8;" horiz-adv-x="909" 
d="M743 182q-165 -213 -401 -213q-166 0 -260 94.5t-94 260.5q0 123 47.5 240.5t124.5 204.5t182 140.5t215 53.5q108 0 176 -58.5t68 -152.5q0 -89 -63.5 -164.5t-182.5 -128.5q-70 -31 -133 -50t-240 -61q-4 -54 -4 -69q0 -98 53.5 -155.5t145.5 -57.5q80 0 153.5 39.5
t163.5 132.5zM629 764q0 53 -31 85t-82 32q-114 0 -201 -122.5t-122 -330.5q89 19 127 30t81 31q111 50 169.5 120.5t58.5 154.5zM784 1075h-79l-222 197q-30 34 -8 80q15 29 48 50t63 21q23 0 36.5 -12.5t32.5 -48.5z" />
    <glyph glyph-name="eacute" unicode="&#xe9;" horiz-adv-x="909" 
d="M743 182q-165 -213 -401 -213q-166 0 -260 94.5t-94 260.5q0 123 47.5 240.5t124.5 204.5t182 140.5t215 53.5q108 0 176 -58.5t68 -152.5q0 -89 -63.5 -164.5t-182.5 -128.5q-70 -31 -133 -50t-240 -61q-4 -54 -4 -69q0 -98 53.5 -155.5t145.5 -57.5q80 0 153.5 39.5
t163.5 132.5zM629 764q0 53 -31 85t-82 32q-114 0 -201 -122.5t-122 -330.5q89 19 127 30t81 31q111 50 169.5 120.5t58.5 154.5zM899 1352q0 -47 -51 -80l-326 -197h-80l283 287q37 36 58 48.5t44 12.5q29 0 50.5 -21t21.5 -50z" />
    <glyph glyph-name="ecircumflex" unicode="&#xea;" horiz-adv-x="909" 
d="M743 182q-165 -213 -401 -213q-166 0 -260 94.5t-94 260.5q0 123 47.5 240.5t124.5 204.5t182 140.5t215 53.5q108 0 176 -58.5t68 -152.5q0 -89 -63.5 -164.5t-182.5 -128.5q-70 -31 -133 -50t-240 -61q-4 -54 -4 -69q0 -98 53.5 -155.5t145.5 -57.5q80 0 153.5 39.5
t163.5 132.5zM629 764q0 53 -31 85t-82 32q-114 0 -201 -122.5t-122 -330.5q89 19 127 30t81 31q111 50 169.5 120.5t58.5 154.5zM913 1077h-73l-176 213l-279 -213h-74l314 346h102z" />
    <glyph glyph-name="edieresis" unicode="&#xeb;" horiz-adv-x="909" 
d="M743 182q-165 -213 -401 -213q-166 0 -260 94.5t-94 260.5q0 123 47.5 240.5t124.5 204.5t182 140.5t215 53.5q108 0 176 -58.5t68 -152.5q0 -89 -63.5 -164.5t-182.5 -128.5q-70 -31 -133 -50t-240 -61q-4 -54 -4 -69q0 -98 53.5 -155.5t145.5 -57.5q80 0 153.5 39.5
t163.5 132.5zM629 764q0 53 -31 85t-82 32q-114 0 -201 -122.5t-122 -330.5q89 19 127 30t81 31q111 50 169.5 120.5t58.5 154.5zM565 1249q0 -41 -29.5 -70.5t-70.5 -29.5t-70.5 29.5t-29.5 70.5t29.5 71t70.5 30t70.5 -30t29.5 -71zM954 1249q0 -41 -29.5 -70.5
t-70.5 -29.5t-70.5 29.5t-29.5 70.5t29.5 71t70.5 30t70.5 -30t29.5 -71z" />
    <glyph glyph-name="igrave" unicode="&#xec;" 
d="M578 287q-76 -118 -127 -174q-124 -142 -254 -142q-60 0 -101 36.5t-41 90.5q0 33 8 70.5t37 136.5l119 400q19 71 19 90q0 34 -27 48.5t-90 14.5h-49l8 74l393 31l-217 -732q-25 -89 -25 -114q0 -19 10 -31t25 -12q41 0 106.5 65t141.5 183zM578 1075h-80l-222 197
q-30 34 -8 80q15 29 48 50t63 21q23 0 37 -12.5t33 -48.5z" />
    <glyph glyph-name="iacute" unicode="&#xed;" 
d="M578 287q-76 -118 -127 -174q-124 -142 -254 -142q-60 0 -101 36.5t-41 90.5q0 33 8 70.5t37 136.5l119 400q19 71 19 90q0 34 -27 48.5t-90 14.5h-49l8 74l393 31l-217 -732q-25 -89 -25 -114q0 -19 10 -31t25 -12q41 0 106.5 65t141.5 183zM690 1352q0 -47 -51 -80
l-326 -197h-80l283 287q37 36 58 48.5t44 12.5q29 0 50.5 -21t21.5 -50z" />
    <glyph glyph-name="icircumflex" unicode="&#xee;" 
d="M578 287q-76 -118 -127 -174q-124 -142 -254 -142q-60 0 -101 36.5t-41 90.5q0 33 8 70.5t37 136.5l119 400q19 71 19 90q0 34 -27 48.5t-90 14.5h-49l8 74l393 31l-217 -732q-25 -89 -25 -114q0 -19 10 -31t25 -12q41 0 106.5 65t141.5 183zM707 1077h-74l-176 213
l-279 -213h-74l314 346h102z" />
    <glyph glyph-name="idieresis" unicode="&#xef;" 
d="M578 287q-76 -118 -127 -174q-124 -142 -254 -142q-60 0 -101 36.5t-41 90.5q0 33 8 70.5t37 136.5l119 400q19 71 19 90q0 34 -27 48.5t-90 14.5h-49l8 74l393 31l-217 -732q-25 -89 -25 -114q0 -19 10 -31t25 -12q41 0 106.5 65t141.5 183zM358 1249q0 -41 -29.5 -70.5
t-70.5 -29.5t-70.5 29.5t-29.5 70.5t29.5 71t70.5 30t70.5 -30t29.5 -71zM748 1249q0 -41 -30 -70.5t-71 -29.5t-70.5 29.5t-29.5 70.5t29.5 71t70.5 30t71 -30t30 -71z" />
    <glyph glyph-name="eth" unicode="&#xf0;" horiz-adv-x="1024" 
d="M922 598q0 -172 -75.5 -317.5t-201 -228.5t-270.5 -83q-167 0 -266 104t-99 281q0 159 78 300.5t205.5 225t267.5 83.5q66 0 139 -31l-6 12l-35 68q-50 95 -137 182l-276 -137l-35 71l248 125q-54 47 -150 123l78 80q105 -57 207 -135l291 145l37 -71l-258 -129
q258 -258 258 -668zM653 301q32 77 53 171.5t21 158.5q0 120 -46.5 187t-131.5 67q-98 0 -181 -94t-128 -236.5t-45 -292.5q0 -105 46.5 -160t135.5 -55t156.5 62t119.5 192z" />
    <glyph glyph-name="ntilde" unicode="&#xf1;" horiz-adv-x="1251" 
d="M1151 276q-86 -150 -182 -228.5t-193 -78.5q-61 0 -102 43.5t-41 108.5q0 62 37 172l108 319q31 98 31 144q0 35 -23.5 59.5t-58.5 24.5q-66 0 -142.5 -56.5t-142.5 -154.5q-55 -81 -83 -145t-68 -199l-84 -285h-178l209 705q18 67 18 90q0 34 -27 48.5t-90 14.5h-49
l8 74l371 31l-59 -277q103 141 195.5 209t182.5 68q82 0 139.5 -58.5t57.5 -140.5q0 -95 -49 -232l-96 -282q-39 -106 -39 -137q0 -17 11 -28t26 -11q48 0 113 62.5t141 182.5zM1092 1358q-10 -89 -66.5 -152t-124.5 -63q-34 0 -63.5 7.5t-112.5 39.5q-117 43 -152 43
q-68 0 -92 -92h-61q19 102 67 158.5t117 56.5q49 0 205 -53q85 -31 121 -31q65 0 100 86h62z" />
    <glyph glyph-name="ograve" unicode="&#xf2;" horiz-adv-x="1024" 
d="M922 575q0 -114 -46 -230t-128 -208q-148 -168 -373 -168q-167 0 -266 104t-99 279q0 256 172 434q171 177 377 177q149 0 256 -114t107 -274zM631 250q41 85 68.5 194t27.5 189q0 119 -47 185.5t-131 66.5q-115 0 -201 -111q-63 -85 -108 -235t-45 -277
q0 -105 46.5 -160t135.5 -55q81 0 141 48.5t113 154.5zM803 1075h-80l-221 197q-30 34 -8 80q15 29 48 50t62 21q23 0 37 -12.5t33 -48.5z" />
    <glyph glyph-name="oacute" unicode="&#xf3;" horiz-adv-x="1024" 
d="M922 575q0 -114 -46 -230t-128 -208q-148 -168 -373 -168q-167 0 -266 104t-99 279q0 256 172 434q171 177 377 177q149 0 256 -114t107 -274zM631 250q41 85 68.5 194t27.5 189q0 119 -47 185.5t-131 66.5q-115 0 -201 -111q-63 -85 -108 -235t-45 -277
q0 -105 46.5 -160t135.5 -55q81 0 141 48.5t113 154.5zM915 1352q0 -47 -51 -80l-325 -197h-80l282 287q37 35 58.5 48t44.5 13q29 0 50 -21t21 -50z" />
    <glyph glyph-name="ocircumflex" unicode="&#xf4;" horiz-adv-x="1024" 
d="M922 575q0 -114 -46 -230t-128 -208q-148 -168 -373 -168q-167 0 -266 104t-99 279q0 256 172 434q171 177 377 177q149 0 256 -114t107 -274zM631 250q41 85 68.5 194t27.5 189q0 119 -47 185.5t-131 66.5q-115 0 -201 -111q-63 -85 -108 -235t-45 -277
q0 -105 46.5 -160t135.5 -55q81 0 141 48.5t113 154.5zM932 1077h-74l-176 213l-279 -213h-73l313 346h102z" />
    <glyph glyph-name="otilde" unicode="&#xf5;" horiz-adv-x="1024" 
d="M922 575q0 -114 -46 -230t-128 -208q-148 -168 -373 -168q-167 0 -266 104t-99 279q0 256 172 434q171 177 377 177q149 0 256 -114t107 -274zM631 250q41 85 68.5 194t27.5 189q0 119 -47 185.5t-131 66.5q-115 0 -201 -111q-63 -85 -108 -235t-45 -277
q0 -105 46.5 -160t135.5 -55q81 0 141 48.5t113 154.5zM1014 1358q-10 -89 -66.5 -152t-124.5 -63q-34 0 -63.5 7.5t-112.5 39.5q-117 43 -151 43q-69 0 -93 -92h-61q19 102 67 158.5t117 56.5q49 0 205 -53q85 -31 121 -31q65 0 100 86h62z" />
    <glyph glyph-name="odieresis" unicode="&#xf6;" horiz-adv-x="1024" 
d="M922 575q0 -114 -46 -230t-128 -208q-148 -168 -373 -168q-167 0 -266 104t-99 279q0 256 172 434q171 177 377 177q149 0 256 -114t107 -274zM631 250q41 85 68.5 194t27.5 189q0 119 -47 185.5t-131 66.5q-115 0 -201 -111q-63 -85 -108 -235t-45 -277
q0 -105 46.5 -160t135.5 -55q81 0 141 48.5t113 154.5zM584 1249q0 -41 -30 -70.5t-71 -29.5t-70.5 29.5t-29.5 70.5t29.5 71t70.5 30t71 -30t30 -71zM973 1249q0 -41 -30 -70.5t-71 -29.5t-70.5 29.5t-29.5 70.5t29.5 71t70.5 30t71 -30t30 -71z" />
    <glyph glyph-name="divide" unicode="&#xf7;" horiz-adv-x="1241" 
d="M1149 430h-1077v164h1077v-164zM737 883q0 -54 -37 -90.5t-90 -36.5t-90 36.5t-37 90.5q0 53 37.5 90t89.5 37t89.5 -37t37.5 -90zM737 143q0 -54 -37 -90.5t-90 -36.5t-90 36.5t-37 90.5q0 53 37.5 90t89.5 37t89.5 -37t37.5 -90z" />
    <glyph glyph-name="oslash" unicode="&#xf8;" horiz-adv-x="1024" 
d="M901 578q0 -88 -26 -176.5t-75.5 -165.5t-115.5 -137t-153 -95t-181 -35q-58 0 -131 17l-131 -232h-88l147 264q-157 102 -157 336q0 158 77.5 299.5t204.5 225.5t267 84q65 0 129 -25l106 184h88l-127 -221q78 -59 122 -143.5t44 -179.5zM623 856q-45 29 -97 29
q-95 0 -177.5 -94t-128.5 -236.5t-46 -290.5q0 -75 33 -143zM610 250q43 88 70 195.5t27 193.5t-31 156l-412 -727q46 -21 92 -21q81 0 141 48.5t113 154.5z" />
    <glyph glyph-name="ugrave" unicode="&#xf9;" horiz-adv-x="1251" 
d="M1139 276q-108 -168 -192.5 -237.5t-178.5 -69.5q-57 0 -94 38t-37 97q0 50 25 140q-91 -141 -182.5 -207t-198.5 -66q-87 0 -141 52.5t-54 136.5q0 46 8 78t56 190l81 277q17 63 17 88q0 35 -26 50t-89 15h-49l6 74l395 31l-200 -672q-23 -79 -23 -117q0 -37 25.5 -62.5
t62.5 -25.5q109 0 232 152.5t186 365.5l96 328h178l-202 -680q-25 -92 -25 -121q0 -20 12 -34.5t27 -14.5q31 0 89.5 60.5t133.5 170.5zM874 1075h-79l-222 197q-30 34 -8 80q15 29 48 50t63 21q23 0 36.5 -12.5t32.5 -48.5z" />
    <glyph glyph-name="uacute" unicode="&#xfa;" horiz-adv-x="1251" 
d="M1139 276q-108 -168 -192.5 -237.5t-178.5 -69.5q-57 0 -94 38t-37 97q0 50 25 140q-91 -141 -182.5 -207t-198.5 -66q-87 0 -141 52.5t-54 136.5q0 46 8 78t56 190l81 277q17 63 17 88q0 35 -26 50t-89 15h-49l6 74l395 31l-200 -672q-23 -79 -23 -117q0 -37 25.5 -62.5
t62.5 -25.5q109 0 232 152.5t186 365.5l96 328h178l-202 -680q-25 -92 -25 -121q0 -20 12 -34.5t27 -14.5q31 0 89.5 60.5t133.5 170.5zM987 1352q0 -47 -51 -80l-326 -197h-80l283 287q37 36 58 48.5t44 12.5q29 0 50.5 -21t21.5 -50z" />
    <glyph glyph-name="ucircumflex" unicode="&#xfb;" horiz-adv-x="1251" 
d="M1139 276q-108 -168 -192.5 -237.5t-178.5 -69.5q-57 0 -94 38t-37 97q0 50 25 140q-91 -141 -182.5 -207t-198.5 -66q-87 0 -141 52.5t-54 136.5q0 46 8 78t56 190l81 277q17 63 17 88q0 35 -26 50t-89 15h-49l6 74l395 31l-200 -672q-23 -79 -23 -117q0 -37 25.5 -62.5
t62.5 -25.5q109 0 232 152.5t186 365.5l96 328h178l-202 -680q-25 -92 -25 -121q0 -20 12 -34.5t27 -14.5q31 0 89.5 60.5t133.5 170.5zM1004 1077h-74l-176 213l-279 -213h-74l314 346h102z" />
    <glyph glyph-name="udieresis" unicode="&#xfc;" horiz-adv-x="1251" 
d="M1139 276q-108 -168 -192.5 -237.5t-178.5 -69.5q-57 0 -94 38t-37 97q0 50 25 140q-91 -141 -182.5 -207t-198.5 -66q-87 0 -141 52.5t-54 136.5q0 46 8 78t56 190l81 277q17 63 17 88q0 35 -26 50t-89 15h-49l6 74l395 31l-200 -672q-23 -79 -23 -117q0 -37 25.5 -62.5
t62.5 -25.5q109 0 232 152.5t186 365.5l96 328h178l-202 -680q-25 -92 -25 -121q0 -20 12 -34.5t27 -14.5q31 0 89.5 60.5t133.5 170.5zM655 1249q0 -41 -29.5 -70.5t-70.5 -29.5t-70.5 29.5t-29.5 70.5t29.5 71t70.5 30t70.5 -30t29.5 -71zM1044 1249q0 -41 -29.5 -70.5
t-70.5 -29.5t-70.5 29.5t-29.5 70.5t29.5 71t70.5 30t70.5 -30t29.5 -71z" />
    <glyph glyph-name="yacute" unicode="&#xfd;" horiz-adv-x="1024" 
d="M930 856q0 -51 -27 -119t-115 -237q-115 -224 -227 -412t-184 -281q-91 -114 -176 -167.5t-174 -53.5q-79 0 -134 44.5t-55 107.5q0 46 31.5 78t75.5 32q30 0 54 -17t34 -46q6 -16 6 -80q0 -33 39 -33q41 0 98.5 41.5t118.5 116.5q38 49 117 172q-61 349 -146 664
q-34 131 -78 131q-26 0 -51 -37t-82 -160l-63 29q127 334 266 334q66 0 112 -75.5t81 -242.5l90 -432q99 157 156 293t57 213q0 30 -13 106q-4 24 -4 35q0 41 30 72t71 31t66.5 -30t25.5 -77zM864 1352q0 -47 -51 -80l-326 -197h-79l282 287q37 35 58.5 48t44.5 13
q29 0 50 -21t21 -50z" />
    <glyph glyph-name="thorn" unicode="&#xfe;" horiz-adv-x="1175" 
d="M1036 629q0 -97 -26 -194t-74.5 -180t-113 -147.5t-147 -101.5t-171.5 -37q-101 0 -152 37.5t-94 143.5l-98 -334q-23 -86 -23 -105q0 -29 28.5 -40t102.5 -11h25l-8 -74h-492l8 74q41 2 59.5 3t40 8.5t28 13t18.5 28t17 40.5t18 63l428 1435q18 66 18 88q0 35 -27 50.5
t-90 15.5h-65l8 74l408 30l-213 -721q69 85 148 130t157 45q120 0 201 -91t81 -243zM748 295q96 200 96 379q0 81 -42.5 130.5t-111.5 49.5q-71 0 -142 -59t-122 -147t-83 -193t-32 -195q0 -81 49 -134.5t123 -53.5q82 0 146 54t119 169z" />
    <glyph glyph-name="ydieresis" unicode="&#xff;" horiz-adv-x="1024" 
d="M930 856q0 -51 -27 -119t-115 -237q-115 -224 -227 -412t-184 -281q-91 -114 -176 -167.5t-174 -53.5q-79 0 -134 44.5t-55 107.5q0 46 31.5 78t75.5 32q30 0 54 -17t34 -46q6 -16 6 -80q0 -33 39 -33q41 0 98.5 41.5t118.5 116.5q38 49 117 172q-61 349 -146 664
q-34 131 -78 131q-26 0 -51 -37t-82 -160l-63 29q127 334 266 334q66 0 112 -75.5t81 -242.5l90 -432q99 157 156 293t57 213q0 30 -13 106q-4 24 -4 35q0 41 30 72t71 31t66.5 -30t25.5 -77zM530 1249q0 -41 -29.5 -70.5t-70.5 -29.5t-70.5 29.5t-29.5 70.5t29.5 71
t70.5 30t70.5 -30t29.5 -71zM920 1249q0 -41 -30 -70.5t-71 -29.5t-70.5 29.5t-29.5 70.5t29.5 71t70.5 30t71 -30t30 -71z" />
    <glyph glyph-name="Amacron" unicode="&#x100;" horiz-adv-x="1441" 
d="M1358 0h-617l11 96h47q85 0 109 14t24 60q0 16 -8 66l-47 251h-523l-112 -196q-37 -61 -37 -113q0 -46 31 -64t110 -18h49l-12 -96h-551l10 96q83 0 152 56.5t151 191.5l676 1165h84l256 -1288q15 -80 43 -102.5t113 -22.5h51zM860 584l-117 587l-333 -587h450z
M1219 1673h-617l23 105h616z" />
    <glyph glyph-name="amacron" unicode="&#x101;" horiz-adv-x="1175" 
d="M1071 289q-38 -84 -100 -170q-108 -150 -240 -150q-56 0 -90.5 36.5t-34.5 96.5q0 27 10 66q-76 -110 -146 -154.5t-165 -44.5q-137 0 -220 91.5t-83 242.5q0 122 44 245.5t122 225.5q148 189 338 189q100 0 170 -60t80 -155l55 184h178l-205 -688q-22 -80 -22 -111
q0 -21 12.5 -36t30.5 -15q40 0 92 62.5t111 179.5zM592 258q47 96 75.5 209t28.5 201q0 85 -41.5 133.5t-113.5 48.5q-95 0 -164 -72q-82 -83 -135.5 -226t-53.5 -278q0 -94 43.5 -147t120.5 -53t135 44.5t105 139.5zM944 1198h-616l22 105h617z" />
    <glyph glyph-name="Abreve" unicode="&#x102;" horiz-adv-x="1441" 
d="M1358 0h-617l11 96h47q85 0 109 14t24 60q0 16 -8 66l-47 251h-523l-112 -196q-37 -61 -37 -113q0 -46 31 -64t110 -18h49l-12 -96h-551l10 96q83 0 152 56.5t151 191.5l676 1165h84l256 -1288q15 -80 43 -102.5t113 -22.5h51zM860 584l-117 587l-333 -587h450z
M1290 1872q-32 -134 -143 -213.5t-266 -79.5q-162 0 -256 86t-72 207h74q6 -83 76.5 -129.5t187.5 -46.5q111 0 194 45t129 131h76z" />
    <glyph glyph-name="abreve" unicode="&#x103;" horiz-adv-x="1175" 
d="M1071 289q-38 -84 -100 -170q-108 -150 -240 -150q-56 0 -90.5 36.5t-34.5 96.5q0 27 10 66q-76 -110 -146 -154.5t-165 -44.5q-137 0 -220 91.5t-83 242.5q0 122 44 245.5t122 225.5q148 189 338 189q100 0 170 -60t80 -155l55 184h178l-205 -688q-22 -80 -22 -111
q0 -21 12.5 -36t30.5 -15q40 0 92 62.5t111 179.5zM592 258q47 96 75.5 209t28.5 201q0 85 -41.5 133.5t-113.5 48.5q-95 0 -164 -72q-82 -83 -135.5 -226t-53.5 -278q0 -94 43.5 -147t120.5 -53t135 44.5t105 139.5zM946 1413q-28 -149 -120.5 -237.5t-221.5 -88.5
q-121 0 -197.5 77.5t-76.5 199.5q0 29 2 49h61q4 -92 63 -144t156 -52q93 0 163 50.5t108 145.5h63z" />
    <glyph glyph-name="Aogonek" unicode="&#x104;" horiz-adv-x="1441" 
d="M1280 -291q-49 -66 -117.5 -115t-122.5 -49q-62 0 -114 55.5t-56 131.5q7 122 164 268h-293l11 96h47q85 0 109 14t24 60q0 16 -8 66l-47 251h-523l-112 -196q-37 -61 -37 -113q0 -46 31 -64t110 -18h49l-12 -96h-551l10 96q83 0 152 56.5t151 191.5l676 1165h84
l256 -1288q15 -80 43 -102.5t113 -22.5h51l-10 -96h-96q-92 0 -168 -59t-76 -134q0 -53 23 -88.5t67 -35.5q34 0 62 12.5t69 50.5zM860 584l-117 587l-333 -587h450z" />
    <glyph glyph-name="aogonek" unicode="&#x105;" horiz-adv-x="1175" 
d="M915 -291q-49 -66 -117 -115t-122 -49q-62 0 -114 55.5t-56 131.5q7 116 153 258q-53 37 -53 112q0 27 10 66q-76 -110 -146 -154.5t-165 -44.5q-137 0 -220 91.5t-83 242.5q0 122 44 245.5t122 225.5q148 189 338 189q100 0 170 -60t80 -155l55 184h178l-205 -688
q-22 -80 -22 -111q0 -21 12.5 -36t30.5 -15q40 0 92 62.5t111 179.5l63 -35q-38 -84 -100 -170q-77 -106 -162 -135q-64 -24 -110 -74t-46 -103t23 -88.5t67 -35.5q34 0 62 12.5t69 50.5zM592 258q47 96 75.5 209t28.5 201q0 85 -41.5 133.5t-113.5 48.5q-95 0 -164 -72
q-82 -83 -135.5 -226t-53.5 -278q0 -94 43.5 -147t120.5 -53t135 44.5t105 139.5z" />
    <glyph glyph-name="Cacute" unicode="&#x106;" horiz-adv-x="1478" 
d="M1298 420q-100 -235 -250 -343t-364 -108q-274 0 -438 165t-164 439q0 176 69 348t181.5 300.5t264 208t308.5 79.5q118 0 202 -38t157 -125l122 118h74l-114 -573h-84q-10 281 -94.5 405.5t-245.5 124.5q-87 0 -167.5 -41.5t-143.5 -111.5t-115 -163t-86.5 -196.5
t-53 -210.5t-18.5 -206q0 -188 98 -305t283 -117q166 0 280 87t215 300zM1343 1817q0 -21 -17 -41.5t-44 -32.5l-391 -176h-96l340 258q70 55 122 55q34 0 60 -18.5t26 -44.5z" />
    <glyph glyph-name="cacute" unicode="&#x107;" horiz-adv-x="909" 
d="M758 225q-164 -256 -396 -256q-160 0 -256 101t-96 270q0 161 76 305.5t202 231t267 86.5q110 0 188 -65t78 -157q0 -66 -36.5 -109.5t-92.5 -43.5q-47 0 -77.5 28t-30.5 72q0 36 16.5 57.5t58.5 40.5q33 11 33 31q0 26 -40.5 47t-90.5 21q-128 0 -235 -152
q-59 -85 -93 -198.5t-34 -223.5q0 -116 49.5 -179.5t140.5 -63.5q154 0 309 202zM907 1352q0 -47 -51 -80l-326 -197h-79l282 287q37 35 58.5 48t44.5 13q29 0 50 -21t21 -50z" />
    <glyph glyph-name="Ccircumflex" unicode="&#x108;" horiz-adv-x="1478" 
d="M1298 420q-100 -235 -250 -343t-364 -108q-274 0 -438 165t-164 439q0 176 69 348t181.5 300.5t264 208t308.5 79.5q118 0 202 -38t157 -125l122 118h74l-114 -573h-84q-10 281 -94.5 405.5t-245.5 124.5q-87 0 -167.5 -41.5t-143.5 -111.5t-115 -163t-86.5 -196.5
t-53 -210.5t-18.5 -206q0 -188 98 -305t283 -117q166 0 280 87t215 300zM1378 1569h-88l-213 192l-334 -192h-88l377 311h123z" />
    <glyph glyph-name="ccircumflex" unicode="&#x109;" horiz-adv-x="909" 
d="M758 225q-164 -256 -396 -256q-160 0 -256 101t-96 270q0 161 76 305.5t202 231t267 86.5q110 0 188 -65t78 -157q0 -66 -36.5 -109.5t-92.5 -43.5q-47 0 -77.5 28t-30.5 72q0 36 16.5 57.5t58.5 40.5q33 11 33 31q0 26 -40.5 47t-90.5 21q-128 0 -235 -152
q-59 -85 -93 -198.5t-34 -223.5q0 -116 49.5 -179.5t140.5 -63.5q154 0 309 202zM924 1077h-74l-176 213l-279 -213h-73l313 346h102z" />
    <glyph glyph-name="Cdotaccent" unicode="&#x10a;" horiz-adv-x="1478" 
d="M1298 420q-100 -235 -250 -343t-364 -108q-274 0 -438 165t-164 439q0 176 69 348t181.5 300.5t264 208t308.5 79.5q118 0 202 -38t157 -125l122 118h74l-114 -573h-84q-10 281 -94.5 405.5t-245.5 124.5q-87 0 -167.5 -41.5t-143.5 -111.5t-115 -163t-86.5 -196.5
t-53 -210.5t-18.5 -206q0 -188 98 -305t283 -117q166 0 280 87t215 300zM1159 1724q0 -41 -29.5 -70.5t-70.5 -29.5t-71 29.5t-30 70.5t30 71t71 30t70.5 -30t29.5 -71z" />
    <glyph glyph-name="cdotaccent" unicode="&#x10b;" horiz-adv-x="909" 
d="M758 225q-164 -256 -396 -256q-160 0 -256 101t-96 270q0 161 76 305.5t202 231t267 86.5q110 0 188 -65t78 -157q0 -66 -36.5 -109.5t-92.5 -43.5q-47 0 -77.5 28t-30.5 72q0 36 16.5 57.5t58.5 40.5q33 11 33 31q0 26 -40.5 47t-90.5 21q-128 0 -235 -152
q-59 -85 -93 -198.5t-34 -223.5q0 -116 49.5 -179.5t140.5 -63.5q154 0 309 202zM770 1249q0 -41 -29.5 -70.5t-70.5 -29.5t-71 29.5t-30 70.5t30 71t71 30t70.5 -30t29.5 -71z" />
    <glyph glyph-name="Ccaron" unicode="&#x10c;" horiz-adv-x="1478" 
d="M1298 420q-100 -235 -250 -343t-364 -108q-274 0 -438 165t-164 439q0 176 69 348t181.5 300.5t264 208t308.5 79.5q118 0 202 -38t157 -125l122 118h74l-114 -573h-84q-10 281 -94.5 405.5t-245.5 124.5q-87 0 -167.5 -41.5t-143.5 -111.5t-115 -163t-86.5 -196.5
t-53 -210.5t-18.5 -206q0 -188 98 -305t283 -117q166 0 280 87t215 300zM1460 1880l-377 -311h-122l-224 311h88l213 -192l334 192h88z" />
    <glyph glyph-name="ccaron" unicode="&#x10d;" horiz-adv-x="909" 
d="M758 225q-164 -256 -396 -256q-160 0 -256 101t-96 270q0 161 76 305.5t202 231t267 86.5q110 0 188 -65t78 -157q0 -66 -36.5 -109.5t-92.5 -43.5q-47 0 -77.5 28t-30.5 72q0 36 16.5 57.5t58.5 40.5q33 11 33 31q0 26 -40.5 47t-90.5 21q-128 0 -235 -152
q-59 -85 -93 -198.5t-34 -223.5q0 -116 49.5 -179.5t140.5 -63.5q154 0 309 202zM1004 1417l-326 -334h-105l-194 334h76l182 -200l291 200h76z" />
    <glyph glyph-name="Dcaron" unicode="&#x10e;" horiz-adv-x="1593" 
d="M1505 891q0 -206 -97 -404.5t-261 -328.5q-107 -85 -248 -121.5t-358 -36.5h-619l10 96h41q70 0 95.5 6t44.5 23q12 12 18 28t29 99l262 975q18 74 18 100q0 34 -31 44.5t-130 10.5h-54l13 97h593q173 0 279 -24.5t182 -82.5q103 -77 158 -201t55 -280zM1257 1001
q0 381 -385 381h-61q-82 0 -106.5 -21t-49.5 -112l-272 -1024q-12 -46 -12 -63q0 -34 22 -50t72 -16h65q287 0 422 117q124 108 214.5 342.5t90.5 445.5zM1343 1880l-376 -311h-123l-223 311h88l213 -192l333 192h88z" />
    <glyph glyph-name="dcaron" unicode="&#x10f;" horiz-adv-x="1251" 
d="M1155 287q-86 -163 -173.5 -240.5t-184.5 -77.5q-68 0 -104 38t-36 108q0 29 2 45q-68 -99 -147.5 -145t-183.5 -46q-143 0 -232.5 94t-89.5 244q0 167 80 319t212 244.5t277 92.5q54 0 103 -20t82 -54q31 -34 51 -94l135 456q19 65 19 90q0 34 -27 49t-90 15h-64l9 74
l407 30l-364 -1228q-31 -112 -31 -148q0 -55 51 -55t100 50.5t138 195.5zM756 684q0 81 -49.5 133.5t-124.5 52.5q-152 0 -269 -202q-49 -86 -78.5 -189.5t-29.5 -191.5q0 -100 50 -160.5t132 -60.5q149 0 252 198q49 93 83 215.5t34 204.5zM1513 1362q0 -106 -89 -205
t-238 -156l-25 58q102 46 162.5 108t71.5 131l-31 -2q-46 0 -74 27.5t-28 71.5q0 48 35 81t87 33q56 0 92.5 -41.5t36.5 -105.5z" />
    <glyph glyph-name="Dcroat" unicode="&#x110;" horiz-adv-x="1593" 
d="M1505 891q0 -206 -97 -404.5t-261 -328.5q-104 -83 -245.5 -120.5t-346.5 -37.5h-633l10 96h37q70 0 97.5 6.5t46.5 22.5q13 13 19.5 30.5t27.5 96.5l123 473h-209l24 96h211l113 406q18 67 18 100q0 34 -31 44.5t-130 10.5h-54l13 97h593q173 0 279 -24.5t182 -82.5
q103 -77 158 -201t55 -280zM1255 983q0 204 -92.5 301.5t-290.5 97.5h-61q-72 0 -90 -8q-31 -13 -51 -75q-7 -20 -15 -50l-116 -428h405l-24 -96h-408l-129 -500q-14 -49 -12 -71q0 -58 94 -58h65q288 0 420 117q125 113 215 340.5t90 429.5z" />
    <glyph glyph-name="dcroat" unicode="&#x111;" horiz-adv-x="1251" 
d="M1155 287q-86 -163 -173.5 -240.5t-184.5 -77.5q-68 0 -104 38t-36 108q0 29 2 45q-68 -99 -147.5 -145t-183.5 -46q-143 0 -232.5 94t-89.5 244q0 167 80 319t212 244.5t277 92.5q54 0 103 -20t82 -54q31 -34 51 -94l107 358h-254l20 96h262q19 64 19 90q0 35 -27 50.5
t-90 15.5h-64l9 74l407 30l-78 -260h178l-20 -96h-184l-260 -872q-31 -112 -31 -148q0 -55 51 -55t100 50.5t138 195.5zM756 684q0 81 -49.5 133.5t-124.5 52.5q-152 0 -269 -202q-49 -86 -78.5 -189.5t-29.5 -191.5q0 -100 50 -160.5t132 -60.5q149 0 252 198
q49 93 83 215.5t34 204.5z" />
    <glyph glyph-name="Emacron" unicode="&#x112;" horiz-adv-x="1478" 
d="M1315 502l-160 -502h-1231l10 96h39q70 0 96.5 6t45.5 23q13 13 19.5 30.5t27.5 96.5l262 975q18 74 18 100q0 34 -31 44.5t-130 10.5h-54l13 97h1196l-80 -494h-92v72q0 96 -19.5 161t-58.5 100t-88.5 49.5t-118.5 14.5h-119q-51 0 -78 -2.5t-50 -9t-35 -24t-21 -40
t-21 -65.5l-112 -420h67q146 0 222.5 59t121.5 197l93 -12l-183 -684l-92 16q19 90 19 142q0 96 -47.5 141t-159.5 45h-66l-121 -451q-22 -86 -22 -112q0 -37 31.5 -51.5t111.5 -14.5h111q110 0 186.5 16.5t147 63t130 123.5t128.5 203l10 16zM1202 1673h-616l22 105h617z
" />
    <glyph glyph-name="emacron" unicode="&#x113;" horiz-adv-x="909" 
d="M743 182q-165 -213 -401 -213q-166 0 -260 94.5t-94 260.5q0 123 47.5 240.5t124.5 204.5t182 140.5t215 53.5q108 0 176 -58.5t68 -152.5q0 -89 -63.5 -164.5t-182.5 -128.5q-70 -31 -133 -50t-240 -61q-4 -54 -4 -69q0 -98 53.5 -155.5t145.5 -57.5q80 0 153.5 39.5
t163.5 132.5zM629 764q0 53 -31 85t-82 32q-114 0 -201 -122.5t-122 -330.5q89 19 127 30t81 31q111 50 169.5 120.5t58.5 154.5zM956 1198h-616l22 105h617z" />
    <glyph glyph-name="Ebreve" unicode="&#x114;" horiz-adv-x="1478" 
d="M1315 502l-160 -502h-1231l10 96h39q70 0 96.5 6t45.5 23q13 13 19.5 30.5t27.5 96.5l262 975q18 74 18 100q0 34 -31 44.5t-130 10.5h-54l13 97h1196l-80 -494h-92v72q0 96 -19.5 161t-58.5 100t-88.5 49.5t-118.5 14.5h-119q-51 0 -78 -2.5t-50 -9t-35 -24t-21 -40
t-21 -65.5l-112 -420h67q146 0 222.5 59t121.5 197l93 -12l-183 -684l-92 16q19 90 19 142q0 96 -47.5 141t-159.5 45h-66l-121 -451q-22 -86 -22 -112q0 -37 31.5 -51.5t111.5 -14.5h111q110 0 186.5 16.5t147 63t130 123.5t128.5 203l10 16zM1274 1872
q-32 -134 -143.5 -213.5t-266.5 -79.5q-162 0 -255.5 85.5t-71.5 207.5h73q6 -83 76.5 -129.5t187.5 -46.5q111 0 195 45t129 131h76z" />
    <glyph glyph-name="ebreve" unicode="&#x115;" horiz-adv-x="909" 
d="M743 182q-165 -213 -401 -213q-166 0 -260 94.5t-94 260.5q0 123 47.5 240.5t124.5 204.5t182 140.5t215 53.5q108 0 176 -58.5t68 -152.5q0 -89 -63.5 -164.5t-182.5 -128.5q-70 -31 -133 -50t-240 -61q-4 -54 -4 -69q0 -98 53.5 -155.5t145.5 -57.5q80 0 153.5 39.5
t163.5 132.5zM629 764q0 53 -31 85t-82 32q-114 0 -201 -122.5t-122 -330.5q89 19 127 30t81 31q111 50 169.5 120.5t58.5 154.5zM958 1413q-28 -149 -120.5 -237.5t-221.5 -88.5q-121 0 -197.5 77.5t-76.5 199.5q0 29 2 49h62q4 -92 63 -144t156 -52q92 0 162 50.5
t108 145.5h63z" />
    <glyph glyph-name="Edotaccent" unicode="&#x116;" horiz-adv-x="1478" 
d="M1315 502l-160 -502h-1231l10 96h39q70 0 96.5 6t45.5 23q13 13 19.5 30.5t27.5 96.5l262 975q18 74 18 100q0 34 -31 44.5t-130 10.5h-54l13 97h1196l-80 -494h-92v72q0 96 -19.5 161t-58.5 100t-88.5 49.5t-118.5 14.5h-119q-51 0 -78 -2.5t-50 -9t-35 -24t-21 -40
t-21 -65.5l-112 -420h67q146 0 222.5 59t121.5 197l93 -12l-183 -684l-92 16q19 90 19 142q0 96 -47.5 141t-159.5 45h-66l-121 -451q-22 -86 -22 -112q0 -37 31.5 -51.5t111.5 -14.5h111q110 0 186.5 16.5t147 63t130 123.5t128.5 203l10 16zM1006 1724q0 -41 -30 -70.5
t-71 -29.5t-70.5 29.5t-29.5 70.5t29.5 71t70.5 30t71 -30t30 -71z" />
    <glyph glyph-name="edotaccent" unicode="&#x117;" horiz-adv-x="909" 
d="M743 182q-165 -213 -401 -213q-166 0 -260 94.5t-94 260.5q0 123 47.5 240.5t124.5 204.5t182 140.5t215 53.5q108 0 176 -58.5t68 -152.5q0 -89 -63.5 -164.5t-182.5 -128.5q-70 -31 -133 -50t-240 -61q-4 -54 -4 -69q0 -98 53.5 -155.5t145.5 -57.5q80 0 153.5 39.5
t163.5 132.5zM629 764q0 53 -31 85t-82 32q-114 0 -201 -122.5t-122 -330.5q89 19 127 30t81 31q111 50 169.5 120.5t58.5 154.5zM760 1249q0 -41 -30 -70.5t-71 -29.5t-70.5 29.5t-29.5 70.5t29.5 71t70.5 30t71 -30t30 -71z" />
    <glyph glyph-name="Eogonek" unicode="&#x118;" horiz-adv-x="1478" 
d="M1315 502l-160 -502h-129q-79 0 -145 -60t-66 -133q0 -53 23 -88.5t67 -35.5q34 0 62 12.5t69 50.5l41 -37q-49 -66 -117 -115t-122 -49q-62 0 -114 55.5t-56 131.5q4 69 46 133.5t117 134.5h-907l10 96h39q70 0 96.5 6t45.5 23q13 13 19.5 30.5t27.5 96.5l262 975
q18 74 18 100q0 34 -31 44.5t-130 10.5h-54l13 97h1196l-80 -494h-92v72q0 96 -19.5 161t-58.5 100t-88.5 49.5t-118.5 14.5h-119q-51 0 -78 -2.5t-50 -9t-35 -24t-21 -40t-21 -65.5l-112 -420h67q146 0 222.5 59t121.5 197l93 -12l-183 -684l-92 16q19 90 19 142
q0 96 -47.5 141t-159.5 45h-66l-121 -451q-22 -86 -22 -112q0 -37 31.5 -51.5t111.5 -14.5h111q110 0 186.5 16.5t147 63t130 123.5t128.5 203l10 16z" />
    <glyph glyph-name="eogonek" unicode="&#x119;" horiz-adv-x="909" 
d="M743 182q-115 -147 -266 -194q-61 -17 -102 -70t-41 -111q0 -53 23 -88.5t67 -35.5q34 0 62 12.5t69 50.5l41 -37q-49 -66 -117.5 -115t-122.5 -49q-62 0 -114 55.5t-56 131.5q8 112 133 237q-155 8 -243 101.5t-88 253.5q0 123 47.5 240.5t124.5 204.5t182 140.5
t215 53.5q108 0 176 -58.5t68 -152.5q0 -89 -63.5 -164.5t-182.5 -128.5q-70 -31 -133 -50t-240 -61q-4 -54 -4 -69q0 -98 53.5 -155.5t145.5 -57.5q80 0 153.5 39.5t163.5 132.5zM629 764q0 53 -31 85t-82 32q-114 0 -201 -122.5t-122 -330.5q89 19 127 30t81 31
q111 50 169.5 120.5t58.5 154.5z" />
    <glyph glyph-name="Ecaron" unicode="&#x11a;" horiz-adv-x="1478" 
d="M1315 502l-160 -502h-1231l10 96h39q70 0 96.5 6t45.5 23q13 13 19.5 30.5t27.5 96.5l262 975q18 74 18 100q0 34 -31 44.5t-130 10.5h-54l13 97h1196l-80 -494h-92v72q0 96 -19.5 161t-58.5 100t-88.5 49.5t-118.5 14.5h-119q-51 0 -78 -2.5t-50 -9t-35 -24t-21 -40
t-21 -65.5l-112 -420h67q146 0 222.5 59t121.5 197l93 -12l-183 -684l-92 16q19 90 19 142q0 96 -47.5 141t-159.5 45h-66l-121 -451q-22 -86 -22 -112q0 -37 31.5 -51.5t111.5 -14.5h111q110 0 186.5 16.5t147 63t130 123.5t128.5 203l10 16zM1307 1880l-377 -311h-123
l-223 311h88l213 -192l334 192h88z" />
    <glyph glyph-name="ecaron" unicode="&#x11b;" horiz-adv-x="909" 
d="M743 182q-165 -213 -401 -213q-166 0 -260 94.5t-94 260.5q0 123 47.5 240.5t124.5 204.5t182 140.5t215 53.5q108 0 176 -58.5t68 -152.5q0 -89 -63.5 -164.5t-182.5 -128.5q-70 -31 -133 -50t-240 -61q-4 -54 -4 -69q0 -98 53.5 -155.5t145.5 -57.5q80 0 153.5 39.5
t163.5 132.5zM629 764q0 53 -31 85t-82 32q-114 0 -201 -122.5t-122 -330.5q89 19 127 30t81 31q111 50 169.5 120.5t58.5 154.5zM993 1417l-325 -334h-105l-194 334h75l183 -200l291 200h75z" />
    <glyph glyph-name="Gcircumflex" unicode="&#x11c;" horiz-adv-x="1593" 
d="M1550 584h-43q-61 0 -85 -5.5t-44 -21.5q-15 -12 -22.5 -30t-30.5 -99l-123 -457h-90l-25 166q-96 -91 -197 -129.5t-247 -38.5q-264 0 -413.5 156t-149.5 434q0 136 43.5 274.5t123.5 258.5t184.5 214.5t235 148.5t265.5 54q124 0 214.5 -40.5t170.5 -131.5l127 127h69
l-112 -575l-86 14q-4 257 -99.5 387.5t-267.5 130.5q-278 0 -461 -346q-72 -138 -114.5 -305.5t-42.5 -314.5q0 -186 97 -292t267 -106q148 0 246.5 78.5t138.5 229.5l37 163v11q0 26 -35 35.5t-127 9.5h-67l10 96h666zM1372 1569h-88l-213 192l-334 -192h-88l377 311h123z
" />
    <glyph glyph-name="gcircumflex" unicode="&#x11d;" horiz-adv-x="1099" 
d="M817 -82q0 -72 -36.5 -135.5t-102.5 -106.5q-75 -49 -171 -69.5t-249 -20.5q-126 0 -205 18.5t-141 61.5q-34 26 -54 66.5t-20 83.5q0 51 27.5 96.5t73.5 73.5q33 21 65 32.5t96 24.5q-60 29 -86 64.5t-26 87.5q0 37 18.5 74.5t48.5 62.5q34 30 73.5 44t111.5 23
q-127 68 -127 213q0 141 125 246t294 105q88 0 177 -39q80 63 129.5 86.5t103.5 23.5t91.5 -31.5t37.5 -74.5q0 -38 -24 -64t-58 -26q-25 0 -39 9.5t-39 43.5q-23 33 -53 33q-32 0 -76 -39q121 -86 121 -228q0 -69 -36.5 -141t-96.5 -119q-109 -86 -276 -86q-43 0 -148 15
q-44 6 -84 6q-54 0 -88.5 -23.5t-34.5 -58.5q0 -53 76 -72q36 -8 225 -18q103 -6 162 -18.5t109 -39.5q51 -28 78.5 -76t27.5 -108zM721 721q0 75 -47 119.5t-127 44.5q-110 0 -179 -88t-69 -226q0 -86 48 -135t132 -49q98 0 158 70q38 47 61 119.5t23 144.5zM659 -141
q0 77 -75 106q-35 15 -126.5 28t-160.5 13q-138 0 -215.5 -46.5t-77.5 -129.5q0 -158 291 -158q175 0 269.5 48t94.5 139zM864 1077h-73l-177 213l-278 -213h-74l313 346h103z" />
    <glyph glyph-name="Gbreve" unicode="&#x11e;" horiz-adv-x="1593" 
d="M1550 584h-43q-61 0 -85 -5.5t-44 -21.5q-15 -12 -22.5 -30t-30.5 -99l-123 -457h-90l-25 166q-96 -91 -197 -129.5t-247 -38.5q-264 0 -413.5 156t-149.5 434q0 136 43.5 274.5t123.5 258.5t184.5 214.5t235 148.5t265.5 54q124 0 214.5 -40.5t170.5 -131.5l127 127h69
l-112 -575l-86 14q-4 257 -99.5 387.5t-267.5 130.5q-278 0 -461 -346q-72 -138 -114.5 -305.5t-42.5 -314.5q0 -186 97 -292t267 -106q148 0 246.5 78.5t138.5 229.5l37 163v11q0 26 -35 35.5t-127 9.5h-67l10 96h666zM1421 1872q-32 -134 -143 -213.5t-266 -79.5
q-162 0 -256 86t-72 207h74q6 -83 76.5 -129.5t187.5 -46.5q111 0 195 45t129 131h75z" />
    <glyph glyph-name="gbreve" unicode="&#x11f;" horiz-adv-x="1099" 
d="M817 -82q0 -72 -36.5 -135.5t-102.5 -106.5q-75 -49 -171 -69.5t-249 -20.5q-126 0 -205 18.5t-141 61.5q-34 26 -54 66.5t-20 83.5q0 51 27.5 96.5t73.5 73.5q33 21 65 32.5t96 24.5q-60 29 -86 64.5t-26 87.5q0 37 18.5 74.5t48.5 62.5q34 30 73.5 44t111.5 23
q-127 68 -127 213q0 141 125 246t294 105q88 0 177 -39q80 63 129.5 86.5t103.5 23.5t91.5 -31.5t37.5 -74.5q0 -38 -24 -64t-58 -26q-25 0 -39 9.5t-39 43.5q-23 33 -53 33q-32 0 -76 -39q121 -86 121 -228q0 -69 -36.5 -141t-96.5 -119q-109 -86 -276 -86q-43 0 -148 15
q-44 6 -84 6q-54 0 -88.5 -23.5t-34.5 -58.5q0 -53 76 -72q36 -8 225 -18q103 -6 162 -18.5t109 -39.5q51 -28 78.5 -76t27.5 -108zM721 721q0 75 -47 119.5t-127 44.5q-110 0 -179 -88t-69 -226q0 -86 48 -135t132 -49q98 0 158 70q38 47 61 119.5t23 144.5zM659 -141
q0 77 -75 106q-35 15 -126.5 28t-160.5 13q-138 0 -215.5 -46.5t-77.5 -129.5q0 -158 291 -158q175 0 269.5 48t94.5 139zM909 1413q-28 -149 -120.5 -237.5t-221.5 -88.5q-121 0 -197.5 77.5t-76.5 199.5q0 29 2 49h61q4 -92 63 -144t156 -52q93 0 163 50.5t108 145.5h63z
" />
    <glyph glyph-name="Gdotaccent" unicode="&#x120;" horiz-adv-x="1593" 
d="M1550 584h-43q-61 0 -85 -5.5t-44 -21.5q-15 -12 -22.5 -30t-30.5 -99l-123 -457h-90l-25 166q-96 -91 -197 -129.5t-247 -38.5q-264 0 -413.5 156t-149.5 434q0 136 43.5 274.5t123.5 258.5t184.5 214.5t235 148.5t265.5 54q124 0 214.5 -40.5t170.5 -131.5l127 127h69
l-112 -575l-86 14q-4 257 -99.5 387.5t-267.5 130.5q-278 0 -461 -346q-72 -138 -114.5 -305.5t-42.5 -314.5q0 -186 97 -292t267 -106q148 0 246.5 78.5t138.5 229.5l37 163v11q0 26 -35 35.5t-127 9.5h-67l10 96h666zM1153 1724q0 -41 -29.5 -70.5t-70.5 -29.5t-71 29.5
t-30 70.5t30 71t71 30t70.5 -30t29.5 -71z" />
    <glyph glyph-name="gdotaccent" unicode="&#x121;" horiz-adv-x="1099" 
d="M817 -82q0 -72 -36.5 -135.5t-102.5 -106.5q-75 -49 -171 -69.5t-249 -20.5q-126 0 -205 18.5t-141 61.5q-34 26 -54 66.5t-20 83.5q0 51 27.5 96.5t73.5 73.5q33 21 65 32.5t96 24.5q-60 29 -86 64.5t-26 87.5q0 37 18.5 74.5t48.5 62.5q34 30 73.5 44t111.5 23
q-127 68 -127 213q0 141 125 246t294 105q88 0 177 -39q80 63 129.5 86.5t103.5 23.5t91.5 -31.5t37.5 -74.5q0 -38 -24 -64t-58 -26q-25 0 -39 9.5t-39 43.5q-23 33 -53 33q-32 0 -76 -39q121 -86 121 -228q0 -69 -36.5 -141t-96.5 -119q-109 -86 -276 -86q-43 0 -148 15
q-44 6 -84 6q-54 0 -88.5 -23.5t-34.5 -58.5q0 -53 76 -72q36 -8 225 -18q103 -6 162 -18.5t109 -39.5q51 -28 78.5 -76t27.5 -108zM721 721q0 75 -47 119.5t-127 44.5q-110 0 -179 -88t-69 -226q0 -86 48 -135t132 -49q98 0 158 70q38 47 61 119.5t23 144.5zM659 -141
q0 77 -75 106q-35 15 -126.5 28t-160.5 13q-138 0 -215.5 -46.5t-77.5 -129.5q0 -158 291 -158q175 0 269.5 48t94.5 139zM711 1249q0 -41 -30 -70.5t-71 -29.5t-70.5 29.5t-29.5 70.5t29.5 71t70.5 30t71 -30t30 -71z" />
    <glyph glyph-name="Gcommaaccent" unicode="&#x122;" horiz-adv-x="1593" 
d="M1550 584h-43q-61 0 -85 -5.5t-44 -21.5q-15 -12 -22.5 -30t-30.5 -99l-123 -457h-90l-25 166q-96 -91 -197 -129.5t-247 -38.5q-264 0 -413.5 156t-149.5 434q0 136 43.5 274.5t123.5 258.5t184.5 214.5t235 148.5t265.5 54q124 0 214.5 -40.5t170.5 -131.5l127 127h69
l-112 -575l-86 14q-4 257 -99.5 387.5t-267.5 130.5q-278 0 -461 -346q-72 -138 -114.5 -305.5t-42.5 -314.5q0 -186 97 -292t267 -106q148 0 246.5 78.5t138.5 229.5l37 163v11q0 26 -35 35.5t-127 9.5h-67l10 96h666zM696 -229q0 -106 -89 -205t-238 -156l-25 58
q102 46 162.5 108t71.5 131l-31 -2q-46 0 -74.5 27t-28.5 71q0 48 35.5 81.5t87.5 33.5q56 0 92.5 -41.5t36.5 -105.5z" />
    <glyph glyph-name="gcommaaccent" unicode="&#x123;" horiz-adv-x="1099" 
d="M829 1546q-102 -45 -162 -107.5t-71 -131.5l31 2q46 0 74 -27.5t28 -71.5q0 -48 -35.5 -81t-87.5 -33q-56 0 -92.5 41.5t-36.5 105.5q0 106 89.5 205t238.5 156zM817 -82q0 -72 -36.5 -135.5t-102.5 -106.5q-75 -49 -171 -69.5t-249 -20.5q-126 0 -205 18.5t-141 61.5
q-34 26 -54 66.5t-20 83.5q0 51 27.5 96.5t73.5 73.5q33 21 65 32.5t96 24.5q-60 29 -86 64.5t-26 87.5q0 37 18.5 74.5t48.5 62.5q34 30 73.5 44t111.5 23q-127 68 -127 213q0 141 125 246t294 105q88 0 177 -39q80 63 129.5 86.5t103.5 23.5t91.5 -31.5t37.5 -74.5
q0 -38 -24 -64t-58 -26q-25 0 -39 9.5t-39 43.5q-23 33 -53 33q-32 0 -76 -39q121 -86 121 -228q0 -69 -36.5 -141t-96.5 -119q-109 -86 -276 -86q-43 0 -148 15q-44 6 -84 6q-54 0 -88.5 -23.5t-34.5 -58.5q0 -53 76 -72q36 -8 225 -18q103 -6 162 -18.5t109 -39.5
q51 -28 78.5 -76t27.5 -108zM721 721q0 75 -47 119.5t-127 44.5q-110 0 -179 -88t-69 -226q0 -86 48 -135t132 -49q98 0 158 70q38 47 61 119.5t23 144.5zM659 -141q0 77 -75 106q-35 15 -126.5 28t-160.5 13q-138 0 -215.5 -46.5t-77.5 -129.5q0 -158 291 -158
q175 0 269.5 48t94.5 139z" />
    <glyph glyph-name="Hcircumflex" unicode="&#x124;" horiz-adv-x="1705" 
d="M1460 0h-649l10 96h35q71 0 98.5 6.5t46.5 22.5q12 12 18.5 29t29.5 98l125 473h-658l-127 -473q-20 -84 -20 -100q0 -34 31 -45t130 -11h54l-11 -96h-651l10 96h31q71 0 101.5 6.5t48.5 22.5q13 13 19.5 30.5t27.5 96.5l262 975q18 74 18 100q0 34 -31 44.5t-130 10.5
h-54l13 97h649l-10 -97h-35q-72 0 -100 -6t-44 -22q-14 -11 -19.5 -26.5t-27.5 -100.5l-110 -406h659l109 406q20 70 20 100q0 34 -31 44.5t-131 10.5h-53l10 97h652l-11 -97h-34q-72 0 -99.5 -6t-46.5 -22q-12 -10 -18 -26t-29 -101l-262 -975q-19 -74 -19 -100
q0 -34 31.5 -45t130.5 -11h54zM1434 1569h-88l-213 192l-334 -192h-88l376 311h123z" />
    <glyph glyph-name="hcircumflex" unicode="&#x125;" horiz-adv-x="1251" 
d="M1137 272q-83 -146 -180 -224.5t-193 -78.5q-61 0 -102 44t-41 110q0 61 36 170l109 319q31 98 31 144q0 37 -25 60.5t-65 23.5q-148 0 -293 -211q-55 -78 -83.5 -143t-68.5 -201l-84 -285h-178l371 1251q18 65 18 90q0 34 -27 49t-90 15h-63l8 74l408 30l-244 -823
q104 144 196.5 210.5t188.5 66.5q88 0 147.5 -57.5t59.5 -143.5q0 -93 -49 -230l-97 -282q-39 -109 -39 -137q0 -17 11 -28t26 -11q97 0 252 241zM1417 1599h-88l-213 193l-334 -193h-88l377 312h123z" />
    <glyph glyph-name="Hbar" unicode="&#x126;" horiz-adv-x="1705" 
d="M1759 1067h-264l-219 -815q-19 -74 -19 -100q0 -34 31.5 -45t130.5 -11h54l-13 -96h-649l10 96h35q71 0 98.5 6.5t46.5 22.5q12 12 18.5 29t29.5 98l125 473h-658l-127 -473q-20 -84 -20 -100q0 -34 31 -45t130 -11h54l-11 -96h-651l10 96h31q71 0 101.5 6.5t48.5 22.5
q13 13 19.5 30.5t27.5 96.5l219 815h-240v86h262l21 74q18 74 18 100q0 34 -31 44.5t-130 10.5h-54l13 97h649l-10 -97h-35q-72 0 -100 -6t-44 -22q-14 -11 -19.5 -26.5t-27.5 -100.5l-20 -74h657l21 74q20 70 20 100q0 34 -31 44.5t-131 10.5h-53l10 97h652l-11 -97h-34
q-72 0 -99.5 -6t-46.5 -22q-12 -10 -18 -26t-29 -101l-20 -74h239zM1200 821l66 246h-658l-67 -246h659z" />
    <glyph glyph-name="hbar" unicode="&#x127;" horiz-adv-x="1417" 
d="M1407 272q-83 -146 -180 -224.5t-193 -78.5q-61 0 -102 44t-41 110q0 58 37 170l108 319q31 98 31 144q0 37 -25 60.5t-65 23.5q-148 0 -293 -211q-55 -78 -83.5 -143t-68.5 -201l-83 -285h-179l293 989l-215 -63v73l240 70l53 182q18 65 18 90q0 34 -26.5 49t-89.5 15
h-64l8 74l408 30l-113 -383l441 131v-73l-465 -137l-107 -361q104 144 196.5 210.5t188.5 66.5q88 0 147.5 -57.5t59.5 -143.5q0 -93 -49 -230l-96 -282q-39 -109 -39 -137q0 -17 11 -28t26 -11q97 0 252 241z" />
    <glyph glyph-name="Itilde" unicode="&#x128;" horiz-adv-x="833" 
d="M567 0h-635l11 96q91 2 122 7t50 22q13 13 19.5 31t27.5 96l262 975q20 79 20 100q0 34 -31 44.5t-132 10.5h-45l12 97h635l-11 -97q-92 -2 -123 -6.5t-49 -21.5q-13 -13 -18.5 -28.5t-28.5 -98.5l-262 -975q-20 -78 -20 -98q0 -35 31.5 -46.5t132.5 -11.5h45zM1006 1833
q-10 -89 -66.5 -152t-124.5 -63q-34 0 -63.5 7.5t-112.5 39.5q-117 43 -152 43q-68 0 -92 -92h-61q19 102 67 158.5t117 56.5q49 0 205 -53q85 -31 121 -31q65 0 100 86h62z" />
    <glyph glyph-name="itilde" unicode="&#x129;" 
d="M578 287q-76 -118 -127 -174q-124 -142 -254 -142q-60 0 -101 36.5t-41 90.5q0 33 8 70.5t37 136.5l119 400q19 71 19 90q0 34 -27 48.5t-90 14.5h-49l8 74l393 31l-217 -732q-25 -89 -25 -114q0 -19 10 -31t25 -12q41 0 106.5 65t141.5 183zM788 1358q-10 -89 -66 -152
t-124 -63q-34 0 -63.5 7.5t-112.5 39.5q-117 43 -152 43q-68 0 -92 -92h-61q19 102 67 158.5t117 56.5q49 0 205 -53q85 -31 121 -31q65 0 100 86h61z" />
    <glyph glyph-name="Imacron" unicode="&#x12a;" horiz-adv-x="833" 
d="M567 0h-635l11 96q91 2 122 7t50 22q13 13 19.5 31t27.5 96l262 975q20 79 20 100q0 34 -31 44.5t-132 10.5h-45l12 97h635l-11 -97q-92 -2 -123 -6.5t-49 -21.5q-13 -13 -18.5 -28.5t-28.5 -98.5l-262 -975q-20 -78 -20 -98q0 -35 31.5 -46.5t132.5 -11.5h45zM969 1673
h-617l23 105h616z" />
    <glyph glyph-name="imacron" unicode="&#x12b;" 
d="M578 287q-76 -118 -127 -174q-124 -142 -254 -142q-60 0 -101 36.5t-41 90.5q0 33 8 70.5t37 136.5l119 400q19 71 19 90q0 34 -27 48.5t-90 14.5h-49l8 74l393 31l-217 -732q-25 -89 -25 -114q0 -19 10 -31t25 -12q41 0 106.5 65t141.5 183zM750 1198h-617l23 105h616z
" />
    <glyph glyph-name="Ibreve" unicode="&#x12c;" horiz-adv-x="833" 
d="M567 0h-635l11 96q91 2 122 7t50 22q13 13 19.5 31t27.5 96l262 975q20 79 20 100q0 34 -31 44.5t-132 10.5h-45l12 97h635l-11 -97q-92 -2 -123 -6.5t-49 -21.5q-13 -13 -18.5 -28.5t-28.5 -98.5l-262 -975q-20 -78 -20 -98q0 -35 31.5 -46.5t132.5 -11.5h45zM1040 1872
q-32 -134 -143 -213.5t-266 -79.5q-162 0 -256 86t-72 207h74q6 -83 76.5 -129.5t187.5 -46.5q111 0 195 45t129 131h75z" />
    <glyph glyph-name="ibreve" unicode="&#x12d;" 
d="M578 287q-76 -118 -127 -174q-124 -142 -254 -142q-60 0 -101 36.5t-41 90.5q0 33 8 70.5t37 136.5l119 400q19 71 19 90q0 34 -27 48.5t-90 14.5h-49l8 74l393 31l-217 -732q-25 -89 -25 -114q0 -19 10 -31t25 -12q41 0 106.5 65t141.5 183zM752 1413
q-28 -149 -120.5 -237.5t-221.5 -88.5q-121 0 -198 77.5t-77 199.5q0 29 2 49h62q4 -92 63 -144t156 -52q92 0 162 50.5t108 145.5h64z" />
    <glyph glyph-name="Iogonek" unicode="&#x12e;" horiz-adv-x="833" 
d="M489 -291q-49 -66 -117 -115t-122 -49q-62 0 -114 55.5t-56 131.5q7 122 164 268h-312l11 96q91 2 122 7t50 22q13 13 19.5 31t27.5 96l262 975q20 79 20 100q0 34 -31 44.5t-132 10.5h-45l12 97h635l-11 -97q-92 -2 -123 -6.5t-49 -21.5q-13 -13 -18.5 -28.5
t-28.5 -98.5l-262 -975q-20 -78 -20 -98q0 -35 31.5 -46.5t132.5 -11.5h45l-13 -96h-98q-91 0 -166.5 -59t-75.5 -134q0 -53 23 -88.5t67 -35.5q35 0 63 12.5t69 50.5z" />
    <glyph glyph-name="iogonek" unicode="&#x12f;" 
d="M422 -291q-49 -66 -117.5 -115t-122.5 -49q-62 0 -113.5 56t-54.5 131q3 63 39 121.5t101 123.5q-43 12 -71 45.5t-28 75.5q0 33 8 70.5t37 136.5l119 400q19 71 19 90q0 34 -27 48.5t-90 14.5h-49l8 74l393 31l-217 -732q-25 -89 -25 -114q0 -19 10 -31t25 -12
q41 0 106.5 65t141.5 183l64 -35q-76 -118 -127 -174q-72 -84 -150 -119q-61 -27 -101 -79.5t-40 -107.5q0 -53 23 -88.5t67 -35.5q34 0 62 12.5t69 50.5zM553 1249q0 -41 -29.5 -70.5t-70.5 -29.5t-71 29.5t-30 70.5t30 71t71 30t70.5 -30t29.5 -71z" />
    <glyph glyph-name="Idotaccent" unicode="&#x130;" horiz-adv-x="833" 
d="M567 0h-635l11 96q91 2 122 7t50 22q13 13 19.5 31t27.5 96l262 975q20 79 20 100q0 34 -31 44.5t-132 10.5h-45l12 97h635l-11 -97q-92 -2 -123 -6.5t-49 -21.5q-13 -13 -18.5 -28.5t-28.5 -98.5l-262 -975q-20 -78 -20 -98q0 -35 31.5 -46.5t132.5 -11.5h45zM772 1724
q0 -41 -29.5 -70.5t-70.5 -29.5t-71 29.5t-30 70.5t30 71t71 30t70.5 -30t29.5 -71z" />
    <glyph glyph-name="dotlessi" unicode="&#x131;" 
d="M578 287q-76 -118 -127 -174q-124 -142 -254 -142q-60 0 -101 36.5t-41 90.5q0 33 8 70.5t37 136.5l119 400q19 71 19 90q0 34 -27 48.5t-90 14.5h-49l8 74l393 31l-217 -732q-25 -89 -25 -114q0 -19 10 -31t25 -12q41 0 106.5 65t141.5 183z" />
    <glyph glyph-name="Jcircumflex" unicode="&#x134;" horiz-adv-x="1251" 
d="M1313 1382h-37q-62 0 -87.5 -6t-41.5 -22q-13 -13 -19.5 -30.5t-27.5 -96.5l-223 -834q-59 -218 -183 -321t-329 -103q-185 0 -288.5 85.5t-103.5 238.5q0 125 72 211t176 86q72 0 117 -40.5t45 -105.5q0 -63 -37.5 -103t-97.5 -40q-20 0 -59 17.5t-64 17.5
q-23 0 -38 -19t-15 -47q0 -91 72 -152t178 -61q129 0 206 89t134 303l208 778q21 86 21 100q0 34 -31 44.5t-131 10.5h-61l12 97h643zM1440 1569h-88l-213 192l-334 -192h-88l377 311h123z" />
    <glyph glyph-name="jcircumflex" unicode="&#x135;" horiz-adv-x="645" 
d="M571 963l-243 -820q-65 -221 -92.5 -288t-73.5 -125q-125 -144 -293 -144q-95 0 -152 44.5t-57 119.5q0 54 32 88.5t83 34.5q43 0 70.5 -26.5t27.5 -69.5q0 -25 -16 -56q-11 -18 -11 -28q0 -14 13 -25.5t30 -11.5q137 0 222 334q31 130 51 188l155 527q19 64 19 88
q0 35 -27 50t-90 15h-72l9 74zM803 1077h-74l-176 213l-279 -213h-73l313 346h102z" />
    <glyph glyph-name="Kcommaaccent" unicode="&#x136;" horiz-adv-x="1517" 
d="M1415 0h-670l11 96h67q82 0 111 7.5t29 29.5q0 12 -33 80l-240 504l-231 -191l-74 -274q-20 -84 -20 -100q0 -34 31 -45t130 -11h54l-11 -96h-651l10 96h39q70 0 96.5 6t45.5 23q12 11 19 28.5t28 98.5l262 975q18 74 18 100q0 34 -31 44.5t-131 10.5h-53l12 97h650
l-11 -97h-34q-72 0 -100 -6t-44 -22q-14 -10 -20 -26t-29 -101l-139 -527l590 492q110 89 110 139q0 29 -26 40t-95 11h-45l13 97h614l-10 -97q-123 -9 -207 -49.5t-205 -150.5l-385 -322l311 -645q17 -36 24 -51t21.5 -32.5t21 -21.5t29.5 -9t39.5 -5h57.5h63zM764 -229
q0 -106 -89.5 -205t-238.5 -156l-24 58q102 45 162 107.5t71 131.5l-31 -2q-46 0 -74 27t-28 71q0 48 35.5 81.5t87.5 33.5q56 0 92.5 -41.5t36.5 -105.5z" />
    <glyph glyph-name="kcommaaccent" unicode="&#x137;" horiz-adv-x="1138" 
d="M1008 274q-96 -160 -176.5 -232.5t-165.5 -72.5q-152 0 -152 205l2 100v76q0 56 -33 56q-4 -1 -41 -5l-28 -2q-19 0 -32 13t-13 32q0 56 63 56q29 0 55 -11l27 -6q21 0 86 33q105 53 152 104.5t47 114.5q0 44 -27 74.5t-67 30.5q-58 0 -132.5 -51.5t-142.5 -137.5
q-49 -62 -101 -171.5t-83 -213.5l-78 -266h-178l370 1251q19 71 19 90q0 34 -27 49t-90 15h-63l8 74l407 30l-254 -856q104 161 201 235.5t203 74.5q85 0 143 -54.5t58 -132.5q0 -102 -96.5 -189.5t-278.5 -152.5q50 -40 70.5 -91.5t27.5 -158.5q4 -61 12.5 -80.5
t30.5 -19.5q37 0 81 48t132 183zM528 -229q0 -106 -89 -205t-238 -156l-25 58q102 46 162.5 108t71.5 131l-31 -2q-46 0 -74.5 27t-28.5 71q0 48 35.5 81.5t87.5 33.5q56 0 92.5 -41.5t36.5 -105.5z" />
    <glyph glyph-name="Lacute" unicode="&#x139;" horiz-adv-x="1366" 
d="M1290 502l-160 -502h-1206l10 96h39q70 0 96.5 6t45.5 23q13 13 19.5 30.5t27.5 96.5l262 975q18 74 18 100q0 34 -31 44.5t-130 10.5h-54l13 97h688l-13 -97h-45q-142 0 -170 -28q-14 -12 -19.5 -28t-27.5 -99l-256 -953q-22 -84 -22 -112q0 -37 31.5 -51.5t111.5 -14.5
h86q218 0 342.5 87t259.5 335zM942 1817q0 -21 -17 -41.5t-44 -32.5l-392 -176h-96l340 258q70 55 123 55q34 0 60 -18.5t26 -44.5z" />
    <glyph glyph-name="lacute" unicode="&#x13a;" 
d="M549 287q-187 -318 -383 -318q-61 0 -97 39t-36 105q0 48 9.5 93.5t45.5 166.5l260 878q19 65 19 90q0 34 -27 49t-90 15h-64l9 74l407 30l-379 -1280q-26 -85 -26 -112q0 -19 9.5 -31t26.5 -12q43 0 109.5 65t142.5 183zM821 1847q0 -20 -17 -40.5t-44 -32.5l-391 -177
h-97l340 258q72 56 123 56q34 0 60 -19t26 -45z" />
    <glyph glyph-name="Lcommaaccent" unicode="&#x13b;" horiz-adv-x="1366" 
d="M1290 502l-160 -502h-1206l10 96h39q70 0 96.5 6t45.5 23q13 13 19.5 30.5t27.5 96.5l262 975q18 74 18 100q0 34 -31 44.5t-130 10.5h-54l13 97h688l-13 -97h-45q-142 0 -170 -28q-14 -12 -19.5 -28t-27.5 -99l-256 -953q-22 -84 -22 -112q0 -37 31.5 -51.5t111.5 -14.5
h86q218 0 342.5 87t259.5 335zM791 -229q0 -106 -89.5 -205t-238.5 -156l-25 58q102 46 162.5 108t71.5 131l-31 -2q-46 0 -74 27t-28 71q0 48 35.5 81.5t87.5 33.5q56 0 92.5 -41.5t36.5 -105.5z" />
    <glyph glyph-name="lcommaaccent" unicode="&#x13c;" 
d="M549 287q-187 -318 -383 -318q-61 0 -97 39t-36 105q0 48 9.5 93.5t45.5 166.5l260 878q19 65 19 90q0 34 -27 49t-90 15h-64l9 74l407 30l-379 -1280q-26 -85 -26 -112q0 -19 9.5 -31t26.5 -12q43 0 109.5 65t142.5 183zM201 -229q0 -106 -89.5 -205t-238.5 -156l-25 58
q102 46 162.5 108t71.5 131l-31 -2q-46 0 -74 27t-28 71q0 48 35.5 81.5t87.5 33.5q56 0 92.5 -41.5t36.5 -105.5z" />
    <glyph glyph-name="Lcaron" unicode="&#x13d;" horiz-adv-x="1366" 
d="M1290 502l-160 -502h-1206l10 96h39q70 0 96.5 6t45.5 23q13 13 19.5 30.5t27.5 96.5l262 975q18 74 18 100q0 34 -31 44.5t-130 10.5h-54l13 97h688l-13 -97h-45q-142 0 -170 -28q-14 -12 -19.5 -28t-27.5 -99l-256 -953q-22 -84 -22 -112q0 -37 31.5 -51.5t111.5 -14.5
h86q218 0 342.5 87t259.5 335zM1255 1331q0 -106 -89 -204.5t-238 -155.5l-25 57q102 45 162.5 108t71.5 132l-31 -2q-46 0 -74 27t-28 71q0 48 35 81.5t87 33.5q56 0 92.5 -42t36.5 -106z" />
    <glyph glyph-name="lcaron" unicode="&#x13e;" 
d="M549 287q-187 -318 -383 -318q-61 0 -97 39t-36 105q0 48 9.5 93.5t45.5 166.5l260 878q19 65 19 90q0 34 -27 49t-90 15h-64l9 74l407 30l-379 -1280q-26 -85 -26 -112q0 -19 9.5 -31t26.5 -12q43 0 109.5 65t142.5 183zM915 1362q0 -106 -89 -205t-238 -156l-25 58
q102 46 162.5 108t71.5 131l-31 -2q-46 0 -74 27.5t-28 71.5q0 48 35 81t87 33q56 0 92.5 -41.5t36.5 -105.5z" />
    <glyph glyph-name="Ldot" unicode="&#x13f;" horiz-adv-x="1366" 
d="M1290 502l-160 -502h-1206l10 96h39q70 0 96.5 6t45.5 23q13 13 19.5 30.5t27.5 96.5l262 975q18 74 18 100q0 34 -31 44.5t-130 10.5h-54l13 97h688l-13 -97h-45q-142 0 -170 -28q-14 -12 -19.5 -28t-27.5 -99l-256 -953q-22 -84 -22 -112q0 -37 31.5 -51.5t111.5 -14.5
h86q218 0 342.5 87t259.5 335zM1202 786q0 -41 -29.5 -70.5t-70.5 -29.5t-71 29.5t-30 70.5t30 71t71 30t70.5 -30t29.5 -71z" />
    <glyph glyph-name="ldot" unicode="&#x140;" 
d="M549 287q-187 -318 -383 -318q-61 0 -97 39t-36 105q0 48 9.5 93.5t45.5 166.5l260 878q19 65 19 90q0 34 -27 49t-90 15h-64l9 74l407 30l-379 -1280q-26 -85 -26 -112q0 -19 9.5 -31t26.5 -12q43 0 109.5 65t142.5 183zM739 786q0 -41 -29.5 -70.5t-70.5 -29.5
t-70.5 29.5t-29.5 70.5t29.5 71t70.5 30t70.5 -30t29.5 -71z" />
    <glyph glyph-name="Lslash" unicode="&#x141;" horiz-adv-x="1366" 
d="M1290 502l-160 -502h-1206l10 96h35q71 0 99 6.5t47 22.5q13 13 19.5 30.5t27.5 96.5l76 276l-246 -141l37 133l243 139l152 568q18 74 18 100q0 34 -31 44.5t-130 10.5h-54l13 97h688l-13 -97h-45q-142 0 -170 -28q-14 -12 -19.5 -28t-27.5 -99l-118 -439l405 234
l-39 -131l-401 -234l-103 -383q-22 -84 -22 -112q0 -37 31.5 -51.5t111.5 -14.5h86q96 0 171 16.5t132.5 46t110 84t94 117t94.5 158.5z" />
    <glyph glyph-name="lslash" unicode="&#x142;" 
d="M553 287q-187 -318 -383 -318q-61 0 -97 39t-36 105q0 50 8 88t49 174l92 315l-227 -153l37 122l227 154l131 438q23 82 23 97q0 57 -121 57h-66l9 74l409 30l-176 -577l252 170l-35 -123l-252 -170l-168 -580q-21 -63 -24.5 -78t-3.5 -34t10 -31t27 -12q43 0 109 64
t145 184z" />
    <glyph glyph-name="Nacute" unicode="&#x143;" horiz-adv-x="1669" 
d="M1749 1382q-55 -2 -89.5 -11t-64 -28.5t-51.5 -61t-41.5 -98t-44.5 -149.5l-284 -1063h-80l-570 1231l-202 -758q-37 -144 -43.5 -173.5t-6.5 -61.5q0 -59 36.5 -86t127.5 -27h43l-12 -96h-565l10 96q47 1 78.5 6t60 20t47 37t38.5 63.5t36 92t37 129.5l233 873
q-12 41 -36 53t-97 12h-106l10 97h432l518 -1131l185 686q34 138 40.5 170t6.5 66q0 112 -185 112l13 97h536zM1384 1817q0 -21 -17 -41.5t-44 -32.5l-391 -176h-96l340 258q70 55 122 55q34 0 60 -18.5t26 -44.5z" />
    <glyph glyph-name="nacute" unicode="&#x144;" horiz-adv-x="1251" 
d="M1151 276q-86 -150 -182 -228.5t-193 -78.5q-61 0 -102 43.5t-41 108.5q0 62 37 172l108 319q31 98 31 144q0 35 -23.5 59.5t-58.5 24.5q-66 0 -142.5 -56.5t-142.5 -154.5q-55 -81 -83 -145t-68 -199l-84 -285h-178l209 705q18 67 18 90q0 34 -27 48.5t-90 14.5h-49
l8 74l371 31l-59 -277q103 141 195.5 209t182.5 68q82 0 139.5 -58.5t57.5 -140.5q0 -95 -49 -232l-96 -282q-39 -106 -39 -137q0 -17 11 -28t26 -11q48 0 113 62.5t141 182.5zM995 1352q0 -47 -51 -80l-326 -197h-79l282 287q37 35 58.5 48t44.5 13q29 0 50 -21t21 -50z
" />
    <glyph glyph-name="Ncommaaccent" unicode="&#x145;" horiz-adv-x="1669" 
d="M1749 1382q-55 -2 -89.5 -11t-64 -28.5t-51.5 -61t-41.5 -98t-44.5 -149.5l-284 -1063h-80l-570 1231l-202 -758q-37 -144 -43.5 -173.5t-6.5 -61.5q0 -59 36.5 -86t127.5 -27h43l-12 -96h-565l10 96q47 1 78.5 6t60 20t47 37t38.5 63.5t36 92t37 129.5l233 873
q-12 41 -36 53t-97 12h-106l10 97h432l518 -1131l185 686q34 138 40.5 170t6.5 66q0 112 -185 112l13 97h536zM743 -229q0 -106 -89 -205t-238 -156l-25 58q102 46 162.5 108t71.5 131l-31 -2q-46 0 -74 27t-28 71q0 48 35 81.5t87 33.5q56 0 92.5 -41.5t36.5 -105.5z" />
    <glyph glyph-name="ncommaaccent" unicode="&#x146;" horiz-adv-x="1251" 
d="M1151 276q-86 -150 -182 -228.5t-193 -78.5q-61 0 -102 43.5t-41 108.5q0 62 37 172l108 319q31 98 31 144q0 35 -23.5 59.5t-58.5 24.5q-66 0 -142.5 -56.5t-142.5 -154.5q-55 -81 -83 -145t-68 -199l-84 -285h-178l209 705q18 67 18 90q0 34 -27 48.5t-90 14.5h-49
l8 74l371 31l-59 -277q103 141 195.5 209t182.5 68q82 0 139.5 -58.5t57.5 -140.5q0 -95 -49 -232l-96 -282q-39 -106 -39 -137q0 -17 11 -28t26 -11q48 0 113 62.5t141 182.5zM528 -229q0 -106 -89 -205t-238 -156l-25 58q102 46 162.5 108t71.5 131l-31 -2q-46 0 -74.5 27
t-28.5 71q0 48 35.5 81.5t87.5 33.5q56 0 92.5 -41.5t36.5 -105.5z" />
    <glyph glyph-name="Ncaron" unicode="&#x147;" horiz-adv-x="1669" 
d="M1749 1382q-55 -2 -89.5 -11t-64 -28.5t-51.5 -61t-41.5 -98t-44.5 -149.5l-284 -1063h-80l-570 1231l-202 -758q-37 -144 -43.5 -173.5t-6.5 -61.5q0 -59 36.5 -86t127.5 -27h43l-12 -96h-565l10 96q47 1 78.5 6t60 20t47 37t38.5 63.5t36 92t37 129.5l233 873
q-12 41 -36 53t-97 12h-106l10 97h432l518 -1131l185 686q34 138 40.5 170t6.5 66q0 112 -185 112l13 97h536zM1501 1880l-377 -311h-123l-223 311h88l213 -192l334 192h88z" />
    <glyph glyph-name="ncaron" unicode="&#x148;" horiz-adv-x="1251" 
d="M1151 276q-86 -150 -182 -228.5t-193 -78.5q-61 0 -102 43.5t-41 108.5q0 62 37 172l108 319q31 98 31 144q0 35 -23.5 59.5t-58.5 24.5q-66 0 -142.5 -56.5t-142.5 -154.5q-55 -81 -83 -145t-68 -199l-84 -285h-178l209 705q18 67 18 90q0 34 -27 48.5t-90 14.5h-49
l8 74l371 31l-59 -277q103 141 195.5 209t182.5 68q82 0 139.5 -58.5t57.5 -140.5q0 -95 -49 -232l-96 -282q-39 -106 -39 -137q0 -17 11 -28t26 -11q48 0 113 62.5t141 182.5zM1090 1417l-326 -334h-105l-194 334h76l182 -200l291 200h76z" />
    <glyph glyph-name="Eng" unicode="&#x14a;" horiz-adv-x="1669" 
d="M1749 1382q-55 -2 -89.5 -11t-64 -28.5t-51.5 -61t-41.5 -98t-44.5 -149.5l-284 -1063q-33 -126 -106 -235t-177 -178.5t-213 -69.5q-95 0 -152 44.5t-57 119.5q0 54 32 88.5t83 34.5q43 0 70.5 -27t27.5 -70q0 -24 -16 -55q-11 -18 -11 -29q0 -14 13 -25t30 -11
q68 0 130.5 38.5t109.5 104t82 142.5t57 163l-553 1196l-202 -758q-37 -144 -43.5 -173.5t-6.5 -61.5q0 -59 36.5 -86t127.5 -27h43l-12 -96h-565l10 96q47 1 78.5 6t60 20t47 37t38.5 63.5t36 92t37 129.5l233 873q-12 41 -36 53t-97 12h-106l10 97h432l518 -1131l185 686
q34 138 40.5 170t6.5 66q0 112 -185 112l13 97h536z" />
    <glyph glyph-name="eng" unicode="&#x14b;" horiz-adv-x="1251" 
d="M936 532l-96 -282q-19 -71 -34 -121t-37 -118t-43.5 -116t-50 -103t-60 -91.5t-69 -68t-82.5 -47t-95 -15.5q-75 0 -120.5 35.5t-45.5 95.5q0 43 25.5 70.5t66.5 27.5q34 0 56 -21t22 -54q0 -16 -13 -46q-8 -11 -8 -22t10.5 -20t22.5 -9q26 0 52 27.5t52.5 84.5t48.5 112
t48.5 145t42.5 146.5t41 150.5l108 319q31 98 31 144q0 35 -23.5 59.5t-58.5 24.5q-66 0 -142.5 -56.5t-142.5 -154.5q-55 -81 -83 -145t-68 -199l-84 -285h-178l209 705q18 67 18 90q0 34 -27 48.5t-90 14.5h-49l8 74l371 31l-59 -277q103 141 195.5 209t182.5 68
q82 0 139.5 -58.5t57.5 -140.5q0 -95 -49 -232z" />
    <glyph glyph-name="Omacron" unicode="&#x14c;" horiz-adv-x="1593" 
d="M1505 922q0 -180 -69 -354t-184.5 -305.5t-277 -212.5t-335.5 -81q-255 0 -406 161t-151 433q0 187 72.5 362.5t190 302.5t273.5 204t318 77q245 0 407 -165t162 -422zM1266 1016q0 88 -18.5 159.5t-56.5 127.5t-101.5 87t-147.5 31q-207 0 -367 -204
q-100 -129 -175.5 -368t-75.5 -425q0 -169 86 -268t233 -99q120 0 226 63t175 175q96 154 159 358.5t63 362.5zM1350 1673h-617l23 105h616z" />
    <glyph glyph-name="omacron" unicode="&#x14d;" horiz-adv-x="1024" 
d="M922 575q0 -114 -46 -230t-128 -208q-148 -168 -373 -168q-167 0 -266 104t-99 279q0 256 172 434q171 177 377 177q149 0 256 -114t107 -274zM631 250q41 85 68.5 194t27.5 189q0 119 -47 185.5t-131 66.5q-115 0 -201 -111q-63 -85 -108 -235t-45 -277
q0 -105 46.5 -160t135.5 -55q81 0 141 48.5t113 154.5zM975 1198h-617l23 105h616z" />
    <glyph glyph-name="Obreve" unicode="&#x14e;" horiz-adv-x="1593" 
d="M1505 922q0 -180 -69 -354t-184.5 -305.5t-277 -212.5t-335.5 -81q-255 0 -406 161t-151 433q0 187 72.5 362.5t190 302.5t273.5 204t318 77q245 0 407 -165t162 -422zM1266 1016q0 88 -18.5 159.5t-56.5 127.5t-101.5 87t-147.5 31q-207 0 -367 -204
q-100 -129 -175.5 -368t-75.5 -425q0 -169 86 -268t233 -99q120 0 226 63t175 175q96 154 159 358.5t63 362.5zM1421 1872q-32 -134 -143 -213.5t-266 -79.5q-162 0 -256 86t-72 207h74q6 -83 76.5 -129.5t187.5 -46.5q111 0 195 45t129 131h75z" />
    <glyph glyph-name="obreve" unicode="&#x14f;" horiz-adv-x="1024" 
d="M922 575q0 -114 -46 -230t-128 -208q-148 -168 -373 -168q-167 0 -266 104t-99 279q0 256 172 434q171 177 377 177q149 0 256 -114t107 -274zM631 250q41 85 68.5 194t27.5 189q0 119 -47 185.5t-131 66.5q-115 0 -201 -111q-63 -85 -108 -235t-45 -277
q0 -105 46.5 -160t135.5 -55q81 0 141 48.5t113 154.5zM977 1413q-28 -149 -120.5 -237.5t-221.5 -88.5q-121 0 -198 77.5t-77 199.5q0 29 2 49h62q4 -92 63 -144t156 -52q92 0 162 50.5t108 145.5h64z" />
    <glyph glyph-name="Ohungarumlaut" unicode="&#x150;" horiz-adv-x="1593" 
d="M1505 922q0 -180 -69 -354t-184.5 -305.5t-277 -212.5t-335.5 -81q-255 0 -406 161t-151 433q0 187 72.5 362.5t190 302.5t273.5 204t318 77q245 0 407 -165t162 -422zM1266 1016q0 88 -18.5 159.5t-56.5 127.5t-101.5 87t-147.5 31q-207 0 -367 -204
q-100 -129 -175.5 -368t-75.5 -425q0 -169 86 -268t233 -99q120 0 226 63t175 175q96 154 159 358.5t63 362.5zM1270 1868q0 -20 -14.5 -43.5t-36.5 -36.5l-326 -195h-84l287 285q38 37 58.5 49t43.5 12q29 0 50.5 -21t21.5 -50zM1579 1868q0 -22 -14 -44.5t-37 -35.5
l-326 -195h-84l287 285q38 37 58.5 49t43.5 12q29 0 50.5 -21t21.5 -50z" />
    <glyph glyph-name="ohungarumlaut" unicode="&#x151;" horiz-adv-x="1024" 
d="M922 575q0 -114 -46 -230t-128 -208q-148 -168 -373 -168q-167 0 -266 104t-99 279q0 256 172 434q171 177 377 177q149 0 256 -114t107 -274zM631 250q41 85 68.5 194t27.5 189q0 119 -47 185.5t-131 66.5q-115 0 -201 -111q-63 -85 -108 -235t-45 -277
q0 -105 46.5 -160t135.5 -55q81 0 141 48.5t113 154.5zM885 1352q0 -20 -14.5 -43.5t-36.5 -36.5l-326 -195h-84l287 285q38 37 58.5 49t43.5 12q29 0 50.5 -21t21.5 -50zM1194 1352q0 -22 -14 -44.5t-37 -35.5l-326 -195h-84l287 285q38 37 58.5 49t43.5 12q29 0 50.5 -21
t21.5 -50z" />
    <glyph glyph-name="OE" unicode="&#x152;" horiz-adv-x="2009" 
d="M1862 502l-160 -502h-1043q-288 0 -436.5 154t-148.5 428q0 241 119.5 456t318.5 334q98 58 215.5 82.5t300.5 24.5h944l-80 -494h-92v41q0 21 1 47t1.5 36t-0.5 21q0 252 -241 252h-58q-80 0 -106 -23.5t-51 -117.5l-113 -420h55q83 0 135 27.5t83 79.5t63 149l92 -12
l-182 -684l-93 16q19 83 19 146q0 99 -28 140.5t-115 41.5h-56l-121 -451q-22 -78 -22 -114q0 -64 129 -64h45q175 0 287 74.5t211 267.5l43 80zM874 338l207 774q27 103 27 141q0 65 -49.5 99t-143.5 34q-242 0 -417 -292q-75 -128 -123.5 -307t-48.5 -330
q0 -161 87.5 -262t227.5 -101q100 0 147.5 49.5t85.5 194.5z" />
    <glyph glyph-name="oe" unicode="&#x153;" horiz-adv-x="1593" 
d="M1417 182q-86 -112 -182.5 -162.5t-222.5 -50.5q-105 0 -173.5 34.5t-119.5 111.5q-143 -146 -363 -146q-167 0 -261.5 104t-94.5 289q0 114 46.5 224.5t122 193t176.5 133t204 50.5q189 0 303 -181q77 84 176.5 132.5t204.5 48.5q106 0 174 -59.5t68 -151.5
q0 -89 -63.5 -164.5t-182.5 -128.5q-72 -31 -134.5 -50t-238.5 -61q-4 -54 -4 -69q0 -98 53.5 -155.5t145.5 -57.5q82 0 154 39t163 133zM623 248q94 196 94 409q0 103 -47 163.5t-129 60.5q-98 0 -181 -92.5t-128.5 -234.5t-45.5 -292q0 -106 47 -162.5t136 -56.5
q81 0 141 48.5t113 156.5zM1303 764q0 51 -30.5 82t-80.5 31q-115 0 -205.5 -125.5t-118.5 -323.5q226 52 330.5 134.5t104.5 201.5z" />
    <glyph glyph-name="Racute" unicode="&#x154;" horiz-adv-x="1517" 
d="M1378 270q-60 -163 -127.5 -232t-165.5 -69q-97 0 -157 69t-60 179q0 36 13 205q6 64 6 110q0 100 -54.5 142.5t-183.5 42.5h-141l-125 -465q-16 -57 -21 -100q0 -34 31.5 -45t130.5 -11h54l-11 -96h-651l10 96h33q71 0 99.5 6.5t47.5 22.5q13 13 20 31.5t28 95.5
l262 975q18 74 18 100q0 34 -31 44.5t-131 10.5h-53l12 97h656q279 0 403.5 -86.5t124.5 -249.5q0 -99 -56.5 -186.5t-152.5 -137.5q-56 -28 -125 -44.5t-188 -29.5q112 -41 161.5 -119t49.5 -212q0 -11 -1 -35.5t-1 -38.5l-2 -104q-3 -125 61 -125q43 0 74.5 41t69.5 149z
M1169 1157q0 107 -70.5 166t-199.5 59h-100q-72 0 -98 -22t-48 -100l-121 -447h160q130 0 191 11t118 44q168 100 168 289zM1204 1817q0 -21 -17 -41.5t-44 -32.5l-391 -176h-97l340 258q70 55 123 55q34 0 60 -18.5t26 -44.5z" />
    <glyph glyph-name="racute" unicode="&#x155;" horiz-adv-x="909" 
d="M887 811q0 -57 -34 -94t-87 -37q-63 0 -88 45q-8 12 -8 66q0 47 -37 47q-70 0 -176.5 -161t-163.5 -353l-96 -324h-179l209 705q21 78 21 96q0 57 -119 57h-49l8 74l371 31l-47 -238q82 127 154.5 182.5t158.5 55.5q70 0 116 -43t46 -109zM780 1352q0 -47 -51 -80
l-326 -197h-79l282 287q37 35 58.5 48t44.5 13q29 0 50 -21t21 -50z" />
    <glyph glyph-name="Rcommaaccent" unicode="&#x156;" horiz-adv-x="1517" 
d="M1378 270q-60 -163 -127.5 -232t-165.5 -69q-97 0 -157 69t-60 179q0 36 13 205q6 64 6 110q0 100 -54.5 142.5t-183.5 42.5h-141l-125 -465q-16 -57 -21 -100q0 -34 31.5 -45t130.5 -11h54l-11 -96h-651l10 96h33q71 0 99.5 6.5t47.5 22.5q13 13 20 31.5t28 95.5
l262 975q18 74 18 100q0 34 -31 44.5t-131 10.5h-53l12 97h656q279 0 403.5 -86.5t124.5 -249.5q0 -99 -56.5 -186.5t-152.5 -137.5q-56 -28 -125 -44.5t-188 -29.5q112 -41 161.5 -119t49.5 -212q0 -11 -1 -35.5t-1 -38.5l-2 -104q-3 -125 61 -125q43 0 74.5 41t69.5 149z
M1169 1157q0 107 -70.5 166t-199.5 59h-100q-72 0 -98 -22t-48 -100l-121 -447h160q130 0 191 11t118 44q168 100 168 289zM563 -229q0 -106 -89 -205t-238 -156l-25 58q102 45 162 107.5t71 131.5l-30 -2q-46 0 -74.5 27t-28.5 71q0 48 35.5 81.5t87.5 33.5
q56 0 92.5 -41.5t36.5 -105.5z" />
    <glyph glyph-name="rcommaaccent" unicode="&#x157;" horiz-adv-x="909" 
d="M887 811q0 -57 -34 -94t-87 -37q-63 0 -88 45q-8 12 -8 66q0 47 -37 47q-70 0 -176.5 -161t-163.5 -353l-96 -324h-179l209 705q21 78 21 96q0 57 -119 57h-49l8 74l371 31l-47 -238q82 127 154.5 182.5t158.5 55.5q70 0 116 -43t46 -109zM219 -229q0 -106 -89.5 -205
t-238.5 -156l-24 58q102 45 162 107.5t71 131.5l-30 -2q-46 0 -74.5 27t-28.5 71q0 48 35.5 81.5t87.5 33.5q56 0 92.5 -41.5t36.5 -105.5z" />
    <glyph glyph-name="Rcaron" unicode="&#x158;" horiz-adv-x="1517" 
d="M1378 270q-60 -163 -127.5 -232t-165.5 -69q-97 0 -157 69t-60 179q0 36 13 205q6 64 6 110q0 100 -54.5 142.5t-183.5 42.5h-141l-125 -465q-16 -57 -21 -100q0 -34 31.5 -45t130.5 -11h54l-11 -96h-651l10 96h33q71 0 99.5 6.5t47.5 22.5q13 13 20 31.5t28 95.5
l262 975q18 74 18 100q0 34 -31 44.5t-131 10.5h-53l12 97h656q279 0 403.5 -86.5t124.5 -249.5q0 -99 -56.5 -186.5t-152.5 -137.5q-56 -28 -125 -44.5t-188 -29.5q112 -41 161.5 -119t49.5 -212q0 -11 -1 -35.5t-1 -38.5l-2 -104q-3 -125 61 -125q43 0 74.5 41t69.5 149z
M1169 1157q0 107 -70.5 166t-199.5 59h-100q-72 0 -98 -22t-48 -100l-121 -447h160q130 0 191 11t118 44q168 100 168 289zM1321 1880l-377 -311h-123l-223 311h88l213 -192l334 192h88z" />
    <glyph glyph-name="rcaron" unicode="&#x159;" horiz-adv-x="909" 
d="M887 811q0 -57 -34 -94t-87 -37q-63 0 -88 45q-8 12 -8 66q0 47 -37 47q-70 0 -176.5 -161t-163.5 -353l-96 -324h-179l209 705q21 78 21 96q0 57 -119 57h-49l8 74l371 31l-47 -238q82 127 154.5 182.5t158.5 55.5q70 0 116 -43t46 -109zM874 1417l-325 -334h-105
l-194 334h76l182 -200l291 200h75z" />
    <glyph glyph-name="Sacute" unicode="&#x15a;" horiz-adv-x="1366" 
d="M1165 438q0 -203 -156 -336t-395 -133q-247 0 -421 160l-121 -129h-72l113 584l82 -15q-2 -23 -2 -57q0 -206 114.5 -330.5t304.5 -124.5q158 0 257.5 81.5t99.5 211.5q0 112 -90 178q-29 18 -160 74l-176 74q-171 71 -236 159t-65 216q0 193 142 325.5t349 132.5
q219 0 373 -151l111 106h77l-110 -534l-86 14q2 18 2 41q0 202 -94.5 319t-257.5 117q-136 0 -228 -77t-92 -191q0 -79 56 -138t178 -106l174 -69q183 -74 256 -162.5t73 -239.5zM1223 1817q0 -20 -17.5 -41t-44.5 -33l-391 -176h-96l340 258q70 55 123 55q34 0 60 -18.5
t26 -44.5z" />
    <glyph glyph-name="sacute" unicode="&#x15b;" horiz-adv-x="909" 
d="M729 285q0 -140 -110 -228t-287 -88q-154 0 -244 62.5t-90 169.5q0 60 34 98.5t85 38.5q44 0 74 -29.5t30 -72.5q0 -27 -7.5 -42.5t-35.5 -46.5q-14 -11 -14 -30q0 -31 50 -50.5t128 -19.5q106 0 169.5 49t63.5 131q0 53 -29 83t-116 65q-93 37 -160 69q-67 35 -104 89.5
t-37 119.5q0 134 105 222t266 88q132 0 217.5 -59.5t85.5 -153.5q0 -56 -32.5 -90.5t-84.5 -34.5q-46 0 -76 26.5t-30 67.5q0 24 5.5 38t26.5 44q11 18 11 28q0 25 -37.5 40.5t-96.5 15.5q-89 0 -148.5 -47t-59.5 -117q0 -60 34 -92.5t134 -67.5q82 -30 112.5 -43.5
t65.5 -36.5q102 -70 102 -196zM864 1352q0 -47 -51 -80l-326 -197h-79l282 287q37 35 58.5 48t44.5 13q29 0 50 -21t21 -50z" />
    <glyph glyph-name="Scircumflex" unicode="&#x15c;" horiz-adv-x="1366" 
d="M1165 438q0 -203 -156 -336t-395 -133q-247 0 -421 160l-121 -129h-72l113 584l82 -15q-2 -23 -2 -57q0 -206 114.5 -330.5t304.5 -124.5q158 0 257.5 81.5t99.5 211.5q0 112 -90 178q-29 18 -160 74l-176 74q-171 71 -236 159t-65 216q0 193 142 325.5t349 132.5
q219 0 373 -151l111 106h77l-110 -534l-86 14q2 18 2 41q0 202 -94.5 319t-257.5 117q-136 0 -228 -77t-92 -191q0 -79 56 -138t178 -106l174 -69q183 -74 256 -162.5t73 -239.5zM1257 1569h-88l-213 192l-333 -192h-88l376 311h123z" />
    <glyph glyph-name="scircumflex" unicode="&#x15d;" horiz-adv-x="909" 
d="M729 285q0 -140 -110 -228t-287 -88q-154 0 -244 62.5t-90 169.5q0 60 34 98.5t85 38.5q44 0 74 -29.5t30 -72.5q0 -27 -7.5 -42.5t-35.5 -46.5q-14 -11 -14 -30q0 -31 50 -50.5t128 -19.5q106 0 169.5 49t63.5 131q0 53 -29 83t-116 65q-93 37 -160 69q-67 35 -104 89.5
t-37 119.5q0 134 105 222t266 88q132 0 217.5 -59.5t85.5 -153.5q0 -56 -32.5 -90.5t-84.5 -34.5q-46 0 -76 26.5t-30 67.5q0 24 5.5 38t26.5 44q11 18 11 28q0 25 -37.5 40.5t-96.5 15.5q-89 0 -148.5 -47t-59.5 -117q0 -60 34 -92.5t134 -67.5q82 -30 112.5 -43.5
t65.5 -36.5q102 -70 102 -196zM881 1077h-74l-176 213l-279 -213h-73l313 346h102z" />
    <glyph glyph-name="Scedilla" unicode="&#x15e;" horiz-adv-x="1366" 
d="M1165 438q0 -204 -154 -336t-397 -133l-59 -100q44 6 61 6q73 0 119.5 -38.5t46.5 -100.5q0 -82 -69 -130t-185 -48q-100 0 -180 34l37 68q77 -25 127 -25q52 0 83.5 22.5t31.5 59.5t-27 58.5t-72 21.5q-26 0 -67 -12l-19 12l103 176q-95 8 -192 50.5t-160 105.5
l-121 -129h-72l113 584l82 -15q-2 -23 -2 -57q0 -202 108 -324q116 -131 311 -131q158 0 257.5 81.5t99.5 211.5q0 112 -90 178q-39 25 -160 74l-176 74q-149 63 -205 125q-96 107 -96 250q0 193 142 325.5t349 132.5q219 0 373 -151l111 106h77l-110 -534l-86 14q2 18 2 41
q0 202 -94.5 319t-257.5 117q-136 0 -228 -77t-92 -191q0 -78 56.5 -137.5t177.5 -106.5l174 -69q183 -72 256 -161.5t73 -240.5z" />
    <glyph glyph-name="scedilla" unicode="&#x15f;" horiz-adv-x="909" 
d="M729 285q0 -137 -105.5 -224.5t-277.5 -91.5l-59 -100q43 6 59 6q75 0 121.5 -38.5t46.5 -100.5q0 -80 -69.5 -129t-184.5 -49q-102 0 -180 34l37 68q77 -25 127 -25q51 0 82.5 22.5t31.5 59.5t-27 58.5t-71 21.5q-26 0 -70 -12l-16 12l100 174q-132 14 -204 73.5
t-72 156.5q0 60 34 98.5t85 38.5q44 0 74 -29.5t30 -72.5q0 -27 -7.5 -42.5t-35.5 -46.5q-14 -11 -14 -30q0 -31 50 -50.5t128 -19.5q106 0 169.5 49t63.5 131q0 53 -29 83t-116 65q-93 37 -160 69q-67 35 -104 89.5t-37 119.5q0 132 105 221t260 89q137 0 223 -59t86 -154
q0 -56 -32.5 -90.5t-84.5 -34.5q-46 0 -76 26.5t-30 67.5q0 24 5.5 38t26.5 44q11 18 11 28q0 25 -37.5 40.5t-96.5 15.5q-89 0 -148.5 -47t-59.5 -117q0 -60 34 -92.5t134 -67.5q82 -30 112.5 -43.5t65.5 -36.5q102 -70 102 -196z" />
    <glyph glyph-name="Scaron" unicode="&#x160;" horiz-adv-x="1366" 
d="M1165 438q0 -203 -156 -336t-395 -133q-247 0 -421 160l-121 -129h-72l113 584l82 -15q-2 -23 -2 -57q0 -206 114.5 -330.5t304.5 -124.5q158 0 257.5 81.5t99.5 211.5q0 112 -90 178q-29 18 -160 74l-176 74q-171 71 -236 159t-65 216q0 193 142 325.5t349 132.5
q219 0 373 -151l111 106h77l-110 -534l-86 14q2 18 2 41q0 202 -94.5 319t-257.5 117q-136 0 -228 -77t-92 -191q0 -79 56 -138t178 -106l174 -69q183 -74 256 -162.5t73 -239.5zM1339 1880l-376 -311h-123l-224 311h89l213 -192l333 192h88z" />
    <glyph glyph-name="scaron" unicode="&#x161;" horiz-adv-x="909" 
d="M729 285q0 -140 -110 -228t-287 -88q-154 0 -244 62.5t-90 169.5q0 60 34 98.5t85 38.5q44 0 74 -29.5t30 -72.5q0 -27 -7.5 -42.5t-35.5 -46.5q-14 -11 -14 -30q0 -31 50 -50.5t128 -19.5q106 0 169.5 49t63.5 131q0 53 -29 83t-116 65q-93 37 -160 69q-67 35 -104 89.5
t-37 119.5q0 134 105 222t266 88q132 0 217.5 -59.5t85.5 -153.5q0 -56 -32.5 -90.5t-84.5 -34.5q-46 0 -76 26.5t-30 67.5q0 24 5.5 38t26.5 44q11 18 11 28q0 25 -37.5 40.5t-96.5 15.5q-89 0 -148.5 -47t-59.5 -117q0 -60 34 -92.5t134 -67.5q82 -30 112.5 -43.5
t65.5 -36.5q102 -70 102 -196zM961 1417l-326 -334h-105l-194 334h76l182 -200l291 200h76z" />
    <glyph glyph-name="Tcedilla" unicode="&#x162;" horiz-adv-x="1402" 
d="M1401 915l-86 11q4 84 4 143q0 166 -57 239.5t-193 73.5h-29q-47 0 -63.5 -18t-38.5 -96l-272 -1016q-19 -74 -19 -100q0 -34 31.5 -45t130.5 -11h76l-13 -96h-340l-73 -131q44 6 61 6q73 0 119.5 -38.5t46.5 -100.5q0 -80 -69.5 -129t-184.5 -49q-102 0 -180 34l37 68
q77 -25 127 -25q52 0 83 22.5t31 59.5t-27 58.5t-71 21.5q-26 0 -67 -12l-19 12l115 203h-297l10 96h45q139 0 172 29q13 13 19.5 30.5t27.5 96.5l279 1044q10 38 10 52q0 34 -68 34h-28q-58 0 -101.5 -12.5t-84 -39t-83.5 -81t-87.5 -125.5t-108.5 -186l-84 12l180 529
h1225z" />
    <glyph glyph-name="tcedilla" unicode="&#x163;" horiz-adv-x="720" 
d="M584 287q-70 -114 -103 -158q-53 -69 -127.5 -113t-144.5 -47l-57 -100q43 6 61 6q73 0 119.5 -38.5t46.5 -100.5q0 -80 -69.5 -129t-184.5 -49q-102 0 -180 34l37 68q77 -25 127 -25q52 0 83 22.5t31 59.5t-27 58.5t-71 21.5q-27 0 -68 -12l-18 12l104 183
q-41 19 -66.5 58t-25.5 87q0 57 39 194l154 517h-193l29 96h192l101 340h178l-100 -340h223l-29 -96h-223l-195 -654q-6 -24 -6 -47q0 -26 12.5 -41.5t34.5 -15.5q51 0 105 53t149 197z" />
    <glyph glyph-name="Tcaron" unicode="&#x164;" horiz-adv-x="1402" 
d="M1401 915l-86 11q4 84 4 143q0 166 -57 239.5t-193 73.5h-29q-47 0 -63.5 -18t-38.5 -96l-272 -1016q-19 -74 -19 -100q0 -34 31.5 -45t130.5 -11h76l-13 -96h-708l10 96h45q139 0 172 29q13 13 19.5 30.5t27.5 96.5l279 1044q10 38 10 52q0 34 -68 34h-28
q-58 0 -101.5 -12.5t-84 -39t-83.5 -81t-87.5 -125.5t-108.5 -186l-84 12l180 529h1225zM1350 1880l-377 -311h-123l-223 311h88l213 -192l334 192h88z" />
    <glyph glyph-name="tcaron" unicode="&#x165;" horiz-adv-x="720" 
d="M584 287q-70 -114 -103 -158q-54 -72 -132 -116t-150 -44q-61 0 -104.5 45.5t-43.5 110.5q0 57 39 194l154 517h-193l29 96h192l101 340h178l-100 -340h223l-29 -96h-223l-195 -654q-6 -24 -6 -47q0 -26 12.5 -41.5t34.5 -15.5q51 0 105 53t149 197zM887 1364
q0 -106 -89.5 -204.5t-238.5 -155.5l-24 57q102 45 162 107.5t71 131.5l-31 -2q-46 0 -74 27.5t-28 71.5q0 48 35.5 81t87.5 33q56 0 92.5 -41.5t36.5 -105.5z" />
    <glyph glyph-name="Utilde" unicode="&#x168;" horiz-adv-x="1669" 
d="M1751 1382q-50 -2 -78 -5.5t-56.5 -18.5t-43.5 -33t-35 -62.5t-35 -92.5t-39 -136l-114 -432q-34 -129 -66 -219.5t-72.5 -164.5t-86 -119t-109 -75.5t-138.5 -42.5t-176 -12q-250 0 -381 100t-131 291q0 94 41 242l168 625q19 78 19 100q0 34 -31 44.5t-131 10.5h-51
l10 97h651l-12 -97h-37q-71 0 -98 -6t-43 -22q-14 -11 -19 -24.5t-28 -102.5l-185 -682q-12 -41 -20 -105t-8 -106q0 -131 86.5 -204t242.5 -73q234 0 357 172q36 51 61 121t72 244l119 440q34 138 40.5 170t6.5 66q0 59 -46 85.5t-145 26.5l13 97h538zM1425 1833
q-10 -89 -66 -152t-124 -63q-34 0 -63.5 7.5t-112.5 39.5q-117 43 -152 43q-68 0 -92 -92h-61q19 102 67 158.5t117 56.5q49 0 205 -53q85 -31 121 -31q65 0 100 86h61z" />
    <glyph glyph-name="utilde" unicode="&#x169;" horiz-adv-x="1251" 
d="M1139 276q-108 -168 -192.5 -237.5t-178.5 -69.5q-57 0 -94 38t-37 97q0 50 25 140q-91 -141 -182.5 -207t-198.5 -66q-87 0 -141 52.5t-54 136.5q0 46 8 78t56 190l81 277q17 63 17 88q0 35 -26 50t-89 15h-49l6 74l395 31l-200 -672q-23 -79 -23 -117q0 -37 25.5 -62.5
t62.5 -25.5q109 0 232 152.5t186 365.5l96 328h178l-202 -680q-25 -92 -25 -121q0 -20 12 -34.5t27 -14.5q31 0 89.5 60.5t133.5 170.5zM1085 1358q-10 -89 -66 -152t-124 -63q-34 0 -63.5 7.5t-112.5 39.5q-117 43 -152 43q-68 0 -92 -92h-61q19 102 67 158.5t117 56.5
q49 0 205 -53q85 -31 121 -31q65 0 100 86h61z" />
    <glyph glyph-name="Umacron" unicode="&#x16a;" horiz-adv-x="1669" 
d="M1751 1382q-50 -2 -78 -5.5t-56.5 -18.5t-43.5 -33t-35 -62.5t-35 -92.5t-39 -136l-114 -432q-34 -129 -66 -219.5t-72.5 -164.5t-86 -119t-109 -75.5t-138.5 -42.5t-176 -12q-250 0 -381 100t-131 291q0 94 41 242l168 625q19 78 19 100q0 34 -31 44.5t-131 10.5h-51
l10 97h651l-12 -97h-37q-71 0 -98 -6t-43 -22q-14 -11 -19 -24.5t-28 -102.5l-185 -682q-12 -41 -20 -105t-8 -106q0 -131 86.5 -204t242.5 -73q234 0 357 172q36 51 61 121t72 244l119 440q34 138 40.5 170t6.5 66q0 59 -46 85.5t-145 26.5l13 97h538zM1389 1673h-617
l23 105h616z" />
    <glyph glyph-name="umacron" unicode="&#x16b;" horiz-adv-x="1251" 
d="M1139 276q-108 -168 -192.5 -237.5t-178.5 -69.5q-57 0 -94 38t-37 97q0 50 25 140q-91 -141 -182.5 -207t-198.5 -66q-87 0 -141 52.5t-54 136.5q0 46 8 78t56 190l81 277q17 63 17 88q0 35 -26 50t-89 15h-49l6 74l395 31l-200 -672q-23 -79 -23 -117q0 -37 25.5 -62.5
t62.5 -25.5q109 0 232 152.5t186 365.5l96 328h178l-202 -680q-25 -92 -25 -121q0 -20 12 -34.5t27 -14.5q31 0 89.5 60.5t133.5 170.5zM1047 1198h-617l23 105h616z" />
    <glyph glyph-name="Ubreve" unicode="&#x16c;" horiz-adv-x="1669" 
d="M1751 1382q-50 -2 -78 -5.5t-56.5 -18.5t-43.5 -33t-35 -62.5t-35 -92.5t-39 -136l-114 -432q-34 -129 -66 -219.5t-72.5 -164.5t-86 -119t-109 -75.5t-138.5 -42.5t-176 -12q-250 0 -381 100t-131 291q0 94 41 242l168 625q19 78 19 100q0 34 -31 44.5t-131 10.5h-51
l10 97h651l-12 -97h-37q-71 0 -98 -6t-43 -22q-14 -11 -19 -24.5t-28 -102.5l-185 -682q-12 -41 -20 -105t-8 -106q0 -131 86.5 -204t242.5 -73q234 0 357 172q36 51 61 121t72 244l119 440q34 138 40.5 170t6.5 66q0 59 -46 85.5t-145 26.5l13 97h538zM1460 1872
q-32 -134 -143 -213.5t-266 -79.5q-162 0 -256 86t-72 207h74q6 -83 76.5 -129.5t187.5 -46.5q111 0 194 45t129 131h76z" />
    <glyph glyph-name="ubreve" unicode="&#x16d;" horiz-adv-x="1251" 
d="M1139 276q-108 -168 -192.5 -237.5t-178.5 -69.5q-57 0 -94 38t-37 97q0 50 25 140q-91 -141 -182.5 -207t-198.5 -66q-87 0 -141 52.5t-54 136.5q0 46 8 78t56 190l81 277q17 63 17 88q0 35 -26 50t-89 15h-49l6 74l395 31l-200 -672q-23 -79 -23 -117q0 -37 25.5 -62.5
t62.5 -25.5q109 0 232 152.5t186 365.5l96 328h178l-202 -680q-25 -92 -25 -121q0 -20 12 -34.5t27 -14.5q31 0 89.5 60.5t133.5 170.5zM1049 1413q-28 -149 -120.5 -237.5t-221.5 -88.5q-121 0 -198 77.5t-77 199.5q0 29 2 49h62q4 -92 63 -144t156 -52q92 0 162 50.5
t108 145.5h64z" />
    <glyph glyph-name="Uring" unicode="&#x16e;" horiz-adv-x="1669" 
d="M1751 1382q-50 -2 -78 -5.5t-56.5 -18.5t-43.5 -33t-35 -62.5t-35 -92.5t-39 -136l-114 -432q-34 -129 -66 -219.5t-72.5 -164.5t-86 -119t-109 -75.5t-138.5 -42.5t-176 -12q-250 0 -381 100t-131 291q0 94 41 242l168 625q19 78 19 100q0 34 -31 44.5t-131 10.5h-51
l10 97h651l-12 -97h-37q-71 0 -98 -6t-43 -22q-14 -11 -19 -24.5t-28 -102.5l-185 -682q-12 -41 -20 -105t-8 -106q0 -131 86.5 -204t242.5 -73q234 0 357 172q36 51 61 121t72 244l119 440q34 138 40.5 170t6.5 66q0 59 -46 85.5t-145 26.5l13 97h538zM1303 1757
q0 -86 -60.5 -145.5t-146.5 -59.5q-82 0 -141.5 61t-59.5 144t60 143t145 60q83 0 143 -60t60 -143zM1229 1757q0 53 -38.5 91t-90.5 38q-54 0 -92.5 -38t-38.5 -91q0 -54 38 -92.5t91 -38.5q56 0 93.5 38t37.5 93z" />
    <glyph glyph-name="uring" unicode="&#x16f;" horiz-adv-x="1251" 
d="M1139 276q-108 -168 -192.5 -237.5t-178.5 -69.5q-57 0 -94 38t-37 97q0 50 25 140q-91 -141 -182.5 -207t-198.5 -66q-87 0 -141 52.5t-54 136.5q0 46 8 78t56 190l81 277q17 63 17 88q0 35 -26 50t-89 15h-49l6 74l395 31l-200 -672q-23 -79 -23 -117q0 -37 25.5 -62.5
t62.5 -25.5q109 0 232 152.5t186 365.5l96 328h178l-202 -680q-25 -92 -25 -121q0 -20 12 -34.5t27 -14.5q31 0 89.5 60.5t133.5 170.5zM952 1251q0 -86 -60 -145t-147 -59q-82 0 -141 60.5t-59 143.5t60 143t145 60q83 0 142.5 -60t59.5 -143zM879 1251q0 53 -38.5 91
t-90.5 38q-54 0 -93 -38t-39 -91q0 -54 38.5 -92.5t91.5 -38.5q56 0 93.5 38t37.5 93z" />
    <glyph glyph-name="Uhungarumlaut" unicode="&#x170;" horiz-adv-x="1669" 
d="M1751 1382q-50 -2 -78 -5.5t-56.5 -18.5t-43.5 -33t-35 -62.5t-35 -92.5t-39 -136l-114 -432q-34 -129 -66 -219.5t-72.5 -164.5t-86 -119t-109 -75.5t-138.5 -42.5t-176 -12q-250 0 -381 100t-131 291q0 94 41 242l168 625q19 78 19 100q0 34 -31 44.5t-131 10.5h-51
l10 97h651l-12 -97h-37q-71 0 -98 -6t-43 -22q-14 -11 -19 -24.5t-28 -102.5l-185 -682q-12 -41 -20 -105t-8 -106q0 -131 86.5 -204t242.5 -73q234 0 357 172q36 51 61 121t72 244l119 440q34 138 40.5 170t6.5 66q0 59 -46 85.5t-145 26.5l13 97h538zM1309 1868
q0 -20 -15 -43t-37 -37l-325 -195h-84l287 285q38 37 58.5 49t43.5 12q29 0 50.5 -21t21.5 -50zM1618 1868q0 -22 -14 -44.5t-37 -35.5l-326 -195h-84l287 285q38 37 58.5 49t43.5 12q29 0 50.5 -21t21.5 -50z" />
    <glyph glyph-name="uhungarumlaut" unicode="&#x171;" horiz-adv-x="1251" 
d="M1139 276q-108 -168 -192.5 -237.5t-178.5 -69.5q-57 0 -94 38t-37 97q0 50 25 140q-91 -141 -182.5 -207t-198.5 -66q-87 0 -141 52.5t-54 136.5q0 46 8 78t56 190l81 277q17 63 17 88q0 35 -26 50t-89 15h-49l6 74l395 31l-200 -672q-23 -79 -23 -117q0 -37 25.5 -62.5
t62.5 -25.5q109 0 232 152.5t186 365.5l96 328h178l-202 -680q-25 -92 -25 -121q0 -20 12 -34.5t27 -14.5q31 0 89.5 60.5t133.5 170.5zM956 1352q0 -20 -14.5 -43.5t-36.5 -36.5l-325 -195h-84l286 285q38 37 59 49t44 12q29 0 50 -21t21 -50zM1266 1352q0 -22 -14.5 -44.5
t-37.5 -35.5l-325 -195h-84l287 285q38 37 58.5 49t43.5 12q29 0 50.5 -21t21.5 -50z" />
    <glyph glyph-name="Uogonek" unicode="&#x172;" horiz-adv-x="1669" 
d="M1751 1382q-50 -2 -78 -5.5t-56.5 -18.5t-43.5 -33t-35 -62.5t-35 -92.5t-39 -136l-114 -432q-43 -165 -85 -271t-98.5 -182.5t-129 -115t-175.5 -53.5q-76 -11 -134 -61.5t-58 -111.5q0 -53 23 -88.5t67 -35.5q34 0 62 12.5t69 50.5l41 -37q-49 -66 -117.5 -115
t-122.5 -49q-62 0 -114 55.5t-56 131.5q8 112 133 237q-228 11 -346.5 110.5t-118.5 280.5q0 94 41 242l168 625q19 78 19 100q0 34 -31 44.5t-131 10.5h-51l10 97h651l-12 -97h-37q-71 0 -98 -6t-43 -22q-14 -11 -19 -24.5t-28 -102.5l-185 -682q-12 -41 -20 -105t-8 -106
q0 -131 86.5 -204t242.5 -73q234 0 357 172q36 51 61 121t72 244l119 440q34 138 40.5 170t6.5 66q0 59 -46 85.5t-145 26.5l13 97h538z" />
    <glyph glyph-name="uogonek" unicode="&#x173;" horiz-adv-x="1251" 
d="M987 -291q-49 -65 -118.5 -114.5t-123.5 -49.5q-62 0 -112.5 55.5t-54.5 131.5q5 112 141 245q-37 15 -59.5 49t-22.5 78q0 50 25 140q-91 -141 -182.5 -207t-198.5 -66q-87 0 -141 52.5t-54 136.5q0 46 8 78t56 190l81 277q17 63 17 88q0 35 -26 50t-89 15h-49l6 74
l395 31l-200 -672q-23 -79 -23 -117q0 -37 25.5 -62.5t62.5 -25.5q109 0 232 152.5t186 365.5l96 328h178l-202 -680q-25 -92 -25 -121q0 -20 12 -34.5t27 -14.5q31 0 89.5 60.5t133.5 170.5l62 -37q-77 -119 -139.5 -186.5t-122.5 -95.5q-65 -31 -108.5 -81.5t-43.5 -105.5
q0 -53 23 -88.5t67 -35.5q34 0 62 12.5t69 50.5z" />
    <glyph glyph-name="Wcircumflex" unicode="&#x174;" horiz-adv-x="1896" 
d="M1982 1382q-104 -23 -154 -76t-122 -216l-487 -1121h-78l-144 1035l-465 -1035h-71l-162 1233q-17 126 -39 148q-25 32 -98 32h-53l10 97h547l-13 -97h-41q-64 0 -88 -13.5t-24 -47.5q0 -22 10 -94l111 -826l344 785l-15 102q-4 27 -5.5 38t-8.5 25t-13.5 17.5t-24 8
t-36.5 5t-55 0.5h-37l10 97h570l-11 -97h-39q-74 0 -99 -11t-25 -44q0 -15 4 -55l110 -871l334 770q47 111 47 148q0 63 -131 63h-35l11 97h477zM1452 1569h-88l-213 192l-334 -192h-88l377 311h123z" />
    <glyph glyph-name="wcircumflex" unicode="&#x175;" horiz-adv-x="1593" 
d="M1450 801q0 -125 -55.5 -293.5t-139.5 -298.5q-82 -125 -167 -182.5t-189 -57.5q-101 0 -161 60t-60 161q0 18 4 84q-53 -79 -84 -118t-72 -80q-104 -107 -241 -107q-100 0 -159.5 54t-59.5 145q0 65 34 174l107 363q16 53 16 88t-25.5 50t-88.5 15h-35l8 74l379 31
l-178 -601q-30 -100 -35.5 -125.5t-5.5 -60.5q0 -41 31 -69.5t75 -28.5q104 0 213 153q121 167 178 359l103 342h178l-133 -443q-47 -164 -47 -266q0 -68 30 -106.5t82 -38.5q145 0 285 262q40 77 66 165t26 146q0 32 -10 53t-47 62q-25 28 -34 48t-9 46q0 43 27 73t67 30
q54 0 90.5 -47t36.5 -115zM1198 1077h-74l-176 213l-278 -213h-74l313 346h103z" />
    <glyph glyph-name="Ycircumflex" unicode="&#x176;" horiz-adv-x="1402" 
d="M1542 1382q-110 -6 -176.5 -49t-173.5 -178l-410 -524l-102 -379q-21 -88 -21 -100q0 -34 31.5 -45t132.5 -11h74l-10 -96h-711l12 96h45q141 0 170 29q14 12 20 29t28 98l102 379l-246 610q-35 86 -75.5 113.5t-131.5 27.5h-34l10 97h631l-11 -97h-57q-67 0 -96 -11.5
t-29 -37.5q0 -21 23 -78l204 -510l349 447q53 63 53 111q0 37 -35 58t-96 21h-47l10 97h577zM1280 1569h-88l-213 192l-334 -192h-88l377 311h123z" />
    <glyph glyph-name="ycircumflex" unicode="&#x177;" horiz-adv-x="1024" 
d="M930 856q0 -51 -27 -119t-115 -237q-115 -224 -227 -412t-184 -281q-91 -114 -176 -167.5t-174 -53.5q-79 0 -134 44.5t-55 107.5q0 46 31.5 78t75.5 32q30 0 54 -17t34 -46q6 -16 6 -80q0 -33 39 -33q41 0 98.5 41.5t118.5 116.5q38 49 117 172q-61 349 -146 664
q-34 131 -78 131q-26 0 -51 -37t-82 -160l-63 29q127 334 266 334q66 0 112 -75.5t81 -242.5l90 -432q99 157 156 293t57 213q0 30 -13 106q-4 24 -4 35q0 41 30 72t71 31t66.5 -30t25.5 -77zM879 1077h-74l-176 213l-279 -213h-74l314 346h102z" />
    <glyph glyph-name="Ydieresis" unicode="&#x178;" horiz-adv-x="1402" 
d="M1542 1382q-110 -6 -176.5 -49t-173.5 -178l-410 -524l-102 -379q-21 -88 -21 -100q0 -34 31.5 -45t132.5 -11h74l-10 -96h-711l12 96h45q141 0 170 29q14 12 20 29t28 98l102 379l-246 610q-35 86 -75.5 113.5t-131.5 27.5h-34l10 97h631l-11 -97h-57q-67 0 -96 -11.5
t-29 -37.5q0 -21 23 -78l204 -510l349 447q53 63 53 111q0 37 -35 58t-96 21h-47l10 97h577zM866 1724q0 -41 -29.5 -70.5t-70.5 -29.5t-70.5 29.5t-29.5 70.5t29.5 71t70.5 30t70.5 -30t29.5 -71zM1255 1724q0 -41 -29.5 -70.5t-70.5 -29.5t-70.5 29.5t-29.5 70.5t29.5 71
t70.5 30t70.5 -30t29.5 -71z" />
    <glyph glyph-name="Zacute" unicode="&#x179;" horiz-adv-x="1366" 
d="M1251 524l-168 -524h-1134l12 78l1092 1304h-197q-248 0 -362 -86q-60 -43 -92 -88t-148 -241l-84 22l166 490h1030l-12 -80l-1094 -1303h277q100 0 170 11.5t132.5 39.5t114.5 81.5t102 129t109 191.5zM1202 1817q0 -21 -17 -41.5t-44 -32.5l-391 -176h-97l340 258
q70 55 123 55q34 0 60 -18.5t26 -44.5z" />
    <glyph glyph-name="zacute" unicode="&#x17a;" horiz-adv-x="948" 
d="M795 285q-47 -145 -137.5 -230.5t-194.5 -85.5q-100 0 -244 66q-100 47 -119.5 55t-38.5 8q-12 0 -15 -5.5t-3 -29.5q0 -44 -16 -69t-45 -25q-23 0 -36.5 13t-13.5 36q0 46 39 116t109 147q89 96 165.5 154t299.5 196q55 35 82.5 57.5t68.5 65.5q-72 -17 -104 -17
q-47 0 -76.5 6t-112.5 35q-96 29 -122 29q-77 0 -168 -164l-68 35q145 285 338 285q33 0 67 -11.5t105 -46.5q92 -47 147 -47q22 0 33.5 11t20.5 42q15 52 49 52q21 0 35 -13.5t14 -34.5q0 -40 -45 -116t-117 -158q-74 -85 -148 -143.5t-194 -126.5q-120 -70 -166 -104
t-82 -79q66 19 101 19q43 0 78 -8.5t129 -40.5q94 -33 137 -33q51 0 93 44t83 140zM842 1352q0 -47 -51 -80l-326 -197h-80l283 287q37 36 58 48.5t44 12.5q29 0 50.5 -21t21.5 -50z" />
    <glyph glyph-name="Zdotaccent" unicode="&#x17b;" horiz-adv-x="1366" 
d="M1251 524l-168 -524h-1134l12 78l1092 1304h-197q-248 0 -362 -86q-60 -43 -92 -88t-148 -241l-84 22l166 490h1030l-12 -80l-1094 -1303h277q100 0 170 11.5t132.5 39.5t114.5 81.5t102 129t109 191.5zM1018 1724q0 -41 -29.5 -70.5t-70.5 -29.5t-71 29.5t-30 70.5
t30 71t71 30t70.5 -30t29.5 -71z" />
    <glyph glyph-name="zdotaccent" unicode="&#x17c;" horiz-adv-x="948" 
d="M795 285q-47 -145 -137.5 -230.5t-194.5 -85.5q-100 0 -244 66q-100 47 -119.5 55t-38.5 8q-12 0 -15 -5.5t-3 -29.5q0 -44 -16 -69t-45 -25q-23 0 -36.5 13t-13.5 36q0 46 39 116t109 147q89 96 165.5 154t299.5 196q55 35 82.5 57.5t68.5 65.5q-72 -17 -104 -17
q-47 0 -76.5 6t-112.5 35q-96 29 -122 29q-77 0 -168 -164l-68 35q145 285 338 285q33 0 67 -11.5t105 -46.5q92 -47 147 -47q22 0 33.5 11t20.5 42q15 52 49 52q21 0 35 -13.5t14 -34.5q0 -40 -45 -116t-117 -158q-74 -85 -148 -143.5t-194 -126.5q-120 -70 -166 -104
t-82 -79q66 19 101 19q43 0 78 -8.5t129 -40.5q94 -33 137 -33q51 0 93 44t83 140zM702 1249q0 -41 -29.5 -70.5t-70.5 -29.5t-70.5 29.5t-29.5 70.5t29.5 71t70.5 30t70.5 -30t29.5 -71z" />
    <glyph glyph-name="Zcaron" unicode="&#x17d;" horiz-adv-x="1366" 
d="M1251 524l-168 -524h-1134l12 78l1092 1304h-197q-248 0 -362 -86q-60 -43 -92 -88t-148 -241l-84 22l166 490h1030l-12 -80l-1094 -1303h277q100 0 170 11.5t132.5 39.5t114.5 81.5t102 129t109 191.5zM1319 1880l-377 -311h-123l-223 311h88l213 -192l334 192h88z" />
    <glyph glyph-name="zcaron" unicode="&#x17e;" horiz-adv-x="948" 
d="M795 285q-47 -145 -137.5 -230.5t-194.5 -85.5q-100 0 -244 66q-100 47 -119.5 55t-38.5 8q-12 0 -15 -5.5t-3 -29.5q0 -44 -16 -69t-45 -25q-23 0 -36.5 13t-13.5 36q0 46 39 116t109 147q89 96 165.5 154t299.5 196q55 35 82.5 57.5t68.5 65.5q-72 -17 -104 -17
q-47 0 -76.5 6t-112.5 35q-96 29 -122 29q-77 0 -168 -164l-68 35q145 285 338 285q33 0 67 -11.5t105 -46.5q92 -47 147 -47q22 0 33.5 11t20.5 42q15 52 49 52q21 0 35 -13.5t14 -34.5q0 -40 -45 -116t-117 -158q-74 -85 -148 -143.5t-194 -126.5q-120 -70 -166 -104
t-82 -79q66 19 101 19q43 0 78 -8.5t129 -40.5q94 -33 137 -33q51 0 93 44t83 140zM936 1417l-326 -334h-104l-195 334h76l182 -200l291 200h76z" />
    <glyph glyph-name="longs" unicode="&#x17f;" 
d="M963 1323q0 -46 -32 -77.5t-79 -31.5q-44 0 -75.5 27.5t-31.5 65.5q0 26 19 57q14 23 14 37q0 15 -14.5 25t-34.5 10q-57 0 -100 -42.5t-80 -133.5q-30 -70 -46 -123t-54 -205l-150 -602q-35 -138 -106 -374t-107 -333l-225 -37q191 427 303 893l84 357h-182l26 96h178
q38 141 69 220t75 151q123 204 321 204q98 0 163 -52.5t65 -131.5z" />
    <glyph glyph-name="Ereversed" unicode="&#x18e;" horiz-adv-x="1478" 
d="M1577 1479l-39 -97h-53q-100 0 -137 -10.5t-56 -44.5q-14 -28 -35 -100l-260 -975q-22 -76 -25 -98t5 -29q8 -16 31.5 -22.5t93.5 -6.5h39l-41 -96h-1231l108 502l93 16l2 -16q2 -167 38 -253.5t113 -119.5t223 -33h111q79 0 118.5 14.5t59.5 51.5q13 23 39 112l121 451
h-66q-111 0 -183 -45t-124 -141q-31 -55 -57 -142l-100 -16l184 684l98 12q-28 -138 16.5 -197t190.5 -59h68l112 420q10 36 14 56t2 38t-9 25.5t-27 13.5t-43 7t-66 1h-119q-69 0 -126 -14.5t-115.5 -49.5t-112.5 -100t-106 -161l-37 -72h-92l184 494h1196z" />
    <glyph glyph-name="florin" unicode="&#x192;" horiz-adv-x="1138" 
d="M1153 1352q0 -57 -35 -94t-90 -37q-43 0 -71.5 25t-28.5 63q0 20 5.5 34t24.5 39q13 20 13 25q0 9 -9.5 14.5t-23.5 5.5q-44 0 -87 -35.5t-71 -95.5q-26 -54 -44.5 -121t-47.5 -202l-18 -86h278l-10 -88h-283l-98 -518q-38 -203 -74 -310.5t-94 -193.5
q-131 -191 -319 -191q-83 0 -135 43.5t-52 112.5q0 56 36 92.5t91 36.5q43 0 71 -26t28 -66q0 -21 -6.5 -34t-28.5 -38q-8 -8 -8 -18q0 -9 8 -15t20 -6q46 0 90 35t70 92q30 65 50 144t56 276l109 584h-246l10 88h250l21 88q22 104 64.5 208.5t88.5 164.5q122 159 308 159
q86 0 137 -42t51 -113z" />
    <glyph glyph-name="Ohorn" unicode="&#x1a0;" horiz-adv-x="1593" 
d="M1505 922q0 -180 -69 -354t-184.5 -305.5t-277 -212.5t-335.5 -81q-255 0 -406 161t-151 433q0 187 72.5 362.5t190 302.5t273.5 204t318 77q152 0 281 -69q30 19 45 39q-33 20 -45.5 29t-23.5 26t-11 39q0 43 33.5 71.5t74.5 28.5q52 0 85.5 -36t33.5 -85
q0 -45 -30.5 -91.5t-78.5 -76.5q104 -91 154.5 -202t50.5 -260zM1266 1016q0 88 -18.5 159.5t-56.5 127.5t-101.5 87t-147.5 31q-207 0 -367 -204q-100 -129 -175.5 -368t-75.5 -425q0 -169 86 -268t233 -99q120 0 226 63t175 175q96 154 159 358.5t63 362.5z" />
    <glyph glyph-name="ohorn" unicode="&#x1a1;" horiz-adv-x="1024" 
d="M922 575q0 -86 -25.5 -173.5t-74.5 -165t-114.5 -137.5t-152 -95t-180.5 -35q-167 0 -266 104t-99 279q0 123 47.5 237.5t124.5 195.5t176.5 129.5t200.5 48.5q115 0 209 -72q22 12 47 41q-33 20 -45.5 29t-23.5 26t-11 39q0 43 34 71.5t75 28.5q52 0 85.5 -35.5
t33.5 -84.5q0 -53 -36.5 -101t-95.5 -78q91 -113 91 -252zM631 250q41 85 68.5 194t27.5 189q0 119 -47 185.5t-131 66.5q-98 0 -181 -94t-128 -236.5t-45 -292.5q0 -105 46.5 -160t135.5 -55q81 0 141 48.5t113 154.5z" />
    <glyph glyph-name="Uhorn" unicode="&#x1af;" horiz-adv-x="1617" 
d="M1792 1552q0 -79 -72 -138t-176 -81l-194 -731q-41 -155 -51.5 -190t-32.5 -90q-73 -191 -207.5 -272t-356.5 -81q-250 0 -381 100t-131 291q0 94 41 242l168 625q19 78 19 100q0 34 -31 44.5t-131 10.5h-51l10 97h651l-12 -97h-8q-142 0 -170 -28q-14 -11 -19 -24.5
t-28 -102.5l-185 -682q-12 -41 -20 -105t-8 -106q0 -131 86.5 -204t242.5 -73q234 0 357 172q37 50 61 118t72 247l119 440q24 89 34 134t11.5 59.5t1.5 42.5q0 59 -46 85.5t-145 26.5l13 97h360l-16 -58q48 20 78 58q-33 20 -45.5 29t-23.5 26t-11 39q0 43 33.5 71.5
t74.5 28.5q52 0 85.5 -36t33.5 -85z" />
    <glyph glyph-name="uhorn" unicode="&#x1b0;" horiz-adv-x="1239" 
d="M1139 276q-108 -168 -192.5 -237.5t-178.5 -69.5q-57 0 -94 38t-37 97q0 50 25 140q-91 -141 -182.5 -207t-198.5 -66q-87 0 -141 52.5t-54 136.5v18.5t1 17.5t1.5 16t4 19t5.5 21.5t8.5 29.5t11 36.5t14.5 49t18 60.5l81 277q17 63 17 88q0 35 -26 50t-89 15h-49l6 74
l395 31l-200 -672q-23 -79 -23 -117q0 -37 25.5 -62.5t62.5 -25.5q109 0 232 152.5t186 365.5l96 328h178l-18 -58q51 22 80 58q-33 20 -45.5 29t-23.5 26t-11 39q0 43 34 71.5t75 28.5q52 0 85 -35.5t33 -84.5q0 -80 -73 -140t-179 -78l-159 -536q-25 -82 -25 -121
q0 -20 12 -34.5t27 -14.5q31 0 89.5 60.5t133.5 170.5z" />
    <glyph glyph-name="Acaron" unicode="&#x1cd;" horiz-adv-x="1441" 
d="M1358 0h-617l11 96h47q85 0 109 14t24 60q0 16 -8 66l-47 251h-523l-112 -196q-37 -61 -37 -113q0 -46 31 -64t110 -18h49l-12 -96h-551l10 96q83 0 152 56.5t151 191.5l676 1165h84l256 -1288q15 -80 43 -102.5t113 -22.5h51zM860 584l-117 587l-333 -587h450z
M1323 1880l-377 -311h-123l-223 311h88l213 -192l334 192h88z" />
    <glyph glyph-name="acaron" unicode="&#x1ce;" horiz-adv-x="1175" 
d="M1071 289q-38 -84 -100 -170q-108 -150 -240 -150q-56 0 -90.5 36.5t-34.5 96.5q0 27 10 66q-76 -110 -146 -154.5t-165 -44.5q-137 0 -220 91.5t-83 242.5q0 122 44 245.5t122 225.5q148 189 338 189q100 0 170 -60t80 -155l55 184h178l-205 -688q-22 -80 -22 -111
q0 -21 12.5 -36t30.5 -15q40 0 92 62.5t111 179.5zM592 258q47 96 75.5 209t28.5 201q0 85 -41.5 133.5t-113.5 48.5q-95 0 -164 -72q-82 -83 -135.5 -226t-53.5 -278q0 -94 43.5 -147t120.5 -53t135 44.5t105 139.5zM981 1417l-326 -334h-104l-195 334h76l182 -200l291 200
h76z" />
    <glyph glyph-name="Icaron" unicode="&#x1cf;" horiz-adv-x="833" 
d="M567 0h-635l11 96q91 2 122 7t50 22q13 13 19.5 31t27.5 96l262 975q20 79 20 100q0 34 -31 44.5t-132 10.5h-45l12 97h635l-11 -97q-92 -2 -123 -6.5t-49 -21.5q-13 -13 -18.5 -28.5t-28.5 -98.5l-262 -975q-20 -78 -20 -98q0 -35 31.5 -46.5t132.5 -11.5h45zM1073 1880
l-377 -311h-123l-223 311h88l213 -192l334 192h88z" />
    <glyph glyph-name="icaron" unicode="&#x1d0;" 
d="M578 287q-76 -118 -127 -174q-124 -142 -254 -142q-60 0 -101 36.5t-41 90.5q0 33 8 70.5t37 136.5l119 400q19 71 19 90q0 34 -27 48.5t-90 14.5h-49l8 74l393 31l-217 -732q-25 -89 -25 -114q0 -19 10 -31t25 -12q41 0 106.5 65t141.5 183zM786 1417l-325 -334h-105
l-194 334h76l182 -200l291 200h75z" />
    <glyph glyph-name="Ocaron" unicode="&#x1d1;" horiz-adv-x="1593" 
d="M1505 922q0 -180 -69 -354t-184.5 -305.5t-277 -212.5t-335.5 -81q-255 0 -406 161t-151 433q0 187 72.5 362.5t190 302.5t273.5 204t318 77q245 0 407 -165t162 -422zM1266 1016q0 88 -18.5 159.5t-56.5 127.5t-101.5 87t-147.5 31q-207 0 -367 -204
q-100 -129 -175.5 -368t-75.5 -425q0 -169 86 -268t233 -99q120 0 226 63t175 175q96 154 159 358.5t63 362.5zM1454 1880l-377 -311h-123l-223 311h88l213 -192l334 192h88z" />
    <glyph glyph-name="ocaron" unicode="&#x1d2;" horiz-adv-x="1024" 
d="M922 575q0 -114 -46 -230t-128 -208q-148 -168 -373 -168q-167 0 -266 104t-99 279q0 256 172 434q171 177 377 177q149 0 256 -114t107 -274zM631 250q41 85 68.5 194t27.5 189q0 119 -47 185.5t-131 66.5q-115 0 -201 -111q-63 -85 -108 -235t-45 -277
q0 -105 46.5 -160t135.5 -55q81 0 141 48.5t113 154.5zM1012 1417l-326 -334h-104l-195 334h76l182 -200l291 200h76z" />
    <glyph glyph-name="Ucaron" unicode="&#x1d3;" horiz-adv-x="1669" 
d="M1751 1382q-50 -2 -78 -5.5t-56.5 -18.5t-43.5 -33t-35 -62.5t-35 -92.5t-39 -136l-114 -432q-34 -129 -66 -219.5t-72.5 -164.5t-86 -119t-109 -75.5t-138.5 -42.5t-176 -12q-250 0 -381 100t-131 291q0 94 41 242l168 625q19 78 19 100q0 34 -31 44.5t-131 10.5h-51
l10 97h651l-12 -97h-37q-71 0 -98 -6t-43 -22q-14 -11 -19 -24.5t-28 -102.5l-185 -682q-12 -41 -20 -105t-8 -106q0 -131 86.5 -204t242.5 -73q234 0 357 172q36 51 61 121t72 244l119 440q34 138 40.5 170t6.5 66q0 59 -46 85.5t-145 26.5l13 97h538zM1493 1880l-377 -311
h-123l-223 311h88l213 -192l334 192h88z" />
    <glyph glyph-name="ucaron" unicode="&#x1d4;" horiz-adv-x="1251" 
d="M1139 276q-108 -168 -192.5 -237.5t-178.5 -69.5q-57 0 -94 38t-37 97q0 50 25 140q-91 -141 -182.5 -207t-198.5 -66q-87 0 -141 52.5t-54 136.5q0 46 8 78t56 190l81 277q17 63 17 88q0 35 -26 50t-89 15h-49l6 74l395 31l-200 -672q-23 -79 -23 -117q0 -37 25.5 -62.5
t62.5 -25.5q109 0 232 152.5t186 365.5l96 328h178l-202 -680q-25 -92 -25 -121q0 -20 12 -34.5t27 -14.5q31 0 89.5 60.5t133.5 170.5zM1083 1417l-325 -334h-105l-194 334h76l182 -200l291 200h75z" />
    <glyph glyph-name="Udieresisacute" unicode="&#x1d7;" horiz-adv-x="1669" 
d="M1751 1382q-50 -2 -78 -5.5t-56.5 -18.5t-43.5 -33t-35 -62.5t-35 -92.5t-39 -136l-114 -432q-34 -129 -66 -219.5t-72.5 -164.5t-86 -119t-109 -75.5t-138.5 -42.5t-176 -12q-250 0 -381 100t-131 291q0 94 41 242l168 625q19 78 19 100q0 34 -31 44.5t-131 10.5h-51
l10 97h651l-12 -97h-37q-71 0 -98 -6t-43 -22q-14 -11 -19 -24.5t-28 -102.5l-185 -682q-12 -41 -20 -105t-8 -106q0 -131 86.5 -204t242.5 -73q234 0 357 172q36 51 61 121t72 244l119 440q34 138 40.5 170t6.5 66q0 59 -46 85.5t-145 26.5l13 97h538zM997 1724
q0 -41 -29.5 -70.5t-70.5 -29.5t-70.5 29.5t-29.5 70.5t29.5 71t70.5 30t70.5 -30t29.5 -71zM1386 1724q0 -41 -29.5 -70.5t-70.5 -29.5t-70.5 29.5t-29.5 70.5t29.5 71t70.5 30t70.5 -30t29.5 -71zM1468 2163q0 -21 -17 -41.5t-44 -32.5l-391 -176h-96l340 258
q70 55 122 55q34 0 60 -18.5t26 -44.5z" />
    <glyph glyph-name="udieresisacute" unicode="&#x1d8;" horiz-adv-x="1251" 
d="M1139 276q-108 -168 -192.5 -237.5t-178.5 -69.5q-57 0 -94 38t-37 97q0 50 25 140q-91 -141 -182.5 -207t-198.5 -66q-87 0 -141 52.5t-54 136.5q0 46 8 78t56 190l81 277q17 63 17 88q0 35 -26 50t-89 15h-49l6 74l395 31l-200 -672q-23 -79 -23 -117q0 -37 25.5 -62.5
t62.5 -25.5q109 0 232 152.5t186 365.5l96 328h178l-202 -680q-25 -92 -25 -121q0 -20 12 -34.5t27 -14.5q31 0 89.5 60.5t133.5 170.5zM655 1249q0 -41 -29.5 -70.5t-70.5 -29.5t-70.5 29.5t-29.5 70.5t29.5 71t70.5 30t70.5 -30t29.5 -71zM1044 1249q0 -41 -29.5 -70.5
t-70.5 -29.5t-70.5 29.5t-29.5 70.5t29.5 71t70.5 30t70.5 -30t29.5 -71zM1120 1657q0 -21 -17 -41.5t-44 -32.5l-391 -176h-97l340 258q70 55 123 55q34 0 60 -18.5t26 -44.5z" />
    <glyph glyph-name="Udieresiscaron" unicode="&#x1d9;" horiz-adv-x="1669" 
d="M1751 1382q-50 -2 -78 -5.5t-56.5 -18.5t-43.5 -33t-35 -62.5t-35 -92.5t-39 -136l-114 -432q-34 -129 -66 -219.5t-72.5 -164.5t-86 -119t-109 -75.5t-138.5 -42.5t-176 -12q-250 0 -381 100t-131 291q0 94 41 242l168 625q19 78 19 100q0 34 -31 44.5t-131 10.5h-51
l10 97h651l-12 -97h-37q-71 0 -98 -6t-43 -22q-14 -11 -19 -24.5t-28 -102.5l-185 -682q-12 -41 -20 -105t-8 -106q0 -131 86.5 -204t242.5 -73q234 0 357 172q36 51 61 121t72 244l119 440q34 138 40.5 170t6.5 66q0 59 -46 85.5t-145 26.5l13 97h538zM997 1724
q0 -41 -29.5 -70.5t-70.5 -29.5t-70.5 29.5t-29.5 70.5t29.5 71t70.5 30t70.5 -30t29.5 -71zM1386 1724q0 -41 -29.5 -70.5t-70.5 -29.5t-70.5 29.5t-29.5 70.5t29.5 71t70.5 30t70.5 -30t29.5 -71zM1585 2226l-377 -311h-123l-223 311h88l213 -192l334 192h88z" />
    <glyph glyph-name="udieresiscaron" unicode="&#x1da;" horiz-adv-x="1251" 
d="M1139 276q-108 -168 -192.5 -237.5t-178.5 -69.5q-57 0 -94 38t-37 97q0 50 25 140q-91 -141 -182.5 -207t-198.5 -66q-87 0 -141 52.5t-54 136.5q0 46 8 78t56 190l81 277q17 63 17 88q0 35 -26 50t-89 15h-49l6 74l395 31l-200 -672q-23 -79 -23 -117q0 -37 25.5 -62.5
t62.5 -25.5q109 0 232 152.5t186 365.5l96 328h178l-202 -680q-25 -92 -25 -121q0 -20 12 -34.5t27 -14.5q31 0 89.5 60.5t133.5 170.5zM655 1249q0 -41 -29.5 -70.5t-70.5 -29.5t-70.5 29.5t-29.5 70.5t29.5 71t70.5 30t70.5 -30t29.5 -71zM1044 1249q0 -41 -29.5 -70.5
t-70.5 -29.5t-70.5 29.5t-29.5 70.5t29.5 71t70.5 30t70.5 -30t29.5 -71zM1237 1720l-377 -311h-123l-223 311h88l213 -192l334 192h88z" />
    <glyph glyph-name="Udieresisgrave" unicode="&#x1db;" horiz-adv-x="1669" 
d="M1751 1382q-50 -2 -78 -5.5t-56.5 -18.5t-43.5 -33t-35 -62.5t-35 -92.5t-39 -136l-114 -432q-34 -129 -66 -219.5t-72.5 -164.5t-86 -119t-109 -75.5t-138.5 -42.5t-176 -12q-250 0 -381 100t-131 291q0 94 41 242l168 625q19 78 19 100q0 34 -31 44.5t-131 10.5h-51
l10 97h651l-12 -97h-37q-71 0 -98 -6t-43 -22q-14 -11 -19 -24.5t-28 -102.5l-185 -682q-12 -41 -20 -105t-8 -106q0 -131 86.5 -204t242.5 -73q234 0 357 172q36 51 61 121t72 244l119 440q34 138 40.5 170t6.5 66q0 59 -46 85.5t-145 26.5l13 97h538zM997 1724
q0 -41 -29.5 -70.5t-70.5 -29.5t-70.5 29.5t-29.5 70.5t29.5 71t70.5 30t70.5 -30t29.5 -71zM1386 1724q0 -41 -29.5 -70.5t-70.5 -29.5t-70.5 29.5t-29.5 70.5t29.5 71t70.5 30t70.5 -30t29.5 -71zM1362 1913h-96l-297 176q-21 12 -27.5 33t4.5 41q15 26 51 44.5t70 18.5
q28 0 49 -11.5t45 -43.5z" />
    <glyph glyph-name="udieresisgrave" unicode="&#x1dc;" horiz-adv-x="1251" 
d="M1139 276q-108 -168 -192.5 -237.5t-178.5 -69.5q-57 0 -94 38t-37 97q0 50 25 140q-91 -141 -182.5 -207t-198.5 -66q-87 0 -141 52.5t-54 136.5q0 46 8 78t56 190l81 277q17 63 17 88q0 35 -26 50t-89 15h-49l6 74l395 31l-200 -672q-23 -79 -23 -117q0 -37 25.5 -62.5
t62.5 -25.5q109 0 232 152.5t186 365.5l96 328h178l-202 -680q-25 -92 -25 -121q0 -20 12 -34.5t27 -14.5q31 0 89.5 60.5t133.5 170.5zM655 1249q0 -41 -29.5 -70.5t-70.5 -29.5t-70.5 29.5t-29.5 70.5t29.5 71t70.5 30t70.5 -30t29.5 -71zM1044 1249q0 -41 -29.5 -70.5
t-70.5 -29.5t-70.5 29.5t-29.5 70.5t29.5 71t70.5 30t70.5 -30t29.5 -71zM1014 1407h-96l-297 176q-21 12 -27.5 33t4.5 41q15 26 51 44.5t70 18.5q28 0 49 -11.5t45 -43.5z" />
    <glyph glyph-name="eturned" unicode="&#x1dd;" horiz-adv-x="909" 
d="M836 608q0 -164 -79.5 -312t-211.5 -237.5t-279 -89.5q-107 0 -175 58.5t-68 152.5q0 89 63 164.5t182 128.5q70 31 133 50t240 61q4 54 4 69q0 98 -53.5 155.5t-145.5 57.5q-80 0 -153.5 -39.5t-163.5 -132.5l-49 56q165 213 401 213q166 0 260.5 -94.5t94.5 -260.5z
M631 504q-140 -30 -209 -62q-111 -50 -169 -120t-58 -154q0 -53 30.5 -85t81.5 -32q114 0 201.5 122.5t122.5 330.5z" />
    <glyph glyph-name="Gcaron" unicode="&#x1e6;" horiz-adv-x="1593" 
d="M1550 584h-43q-61 0 -85 -5.5t-44 -21.5q-15 -12 -22.5 -30t-30.5 -99l-123 -457h-90l-25 166q-96 -91 -197 -129.5t-247 -38.5q-264 0 -413.5 156t-149.5 434q0 136 43.5 274.5t123.5 258.5t184.5 214.5t235 148.5t265.5 54q124 0 214.5 -40.5t170.5 -131.5l127 127h69
l-112 -575l-86 14q-4 257 -99.5 387.5t-267.5 130.5q-278 0 -461 -346q-72 -138 -114.5 -305.5t-42.5 -314.5q0 -186 97 -292t267 -106q148 0 246.5 78.5t138.5 229.5l37 163v11q0 26 -35 35.5t-127 9.5h-67l10 96h666zM1454 1880l-377 -311h-123l-223 311h88l213 -192
l334 192h88z" />
    <glyph glyph-name="gcaron" unicode="&#x1e7;" horiz-adv-x="1099" 
d="M817 -82q0 -72 -36.5 -135.5t-102.5 -106.5q-75 -49 -171 -69.5t-249 -20.5q-126 0 -205 18.5t-141 61.5q-34 26 -54 66.5t-20 83.5q0 51 27.5 96.5t73.5 73.5q33 21 65 32.5t96 24.5q-60 29 -86 64.5t-26 87.5q0 37 18.5 74.5t48.5 62.5q34 30 73.5 44t111.5 23
q-127 68 -127 213q0 141 125 246t294 105q88 0 177 -39q80 63 129.5 86.5t103.5 23.5t91.5 -31.5t37.5 -74.5q0 -38 -24 -64t-58 -26q-25 0 -39 9.5t-39 43.5q-23 33 -53 33q-32 0 -76 -39q121 -86 121 -228q0 -69 -36.5 -141t-96.5 -119q-109 -86 -276 -86q-43 0 -148 15
q-44 6 -84 6q-54 0 -88.5 -23.5t-34.5 -58.5q0 -53 76 -72q36 -8 225 -18q103 -6 162 -18.5t109 -39.5q51 -28 78.5 -76t27.5 -108zM721 721q0 75 -47 119.5t-127 44.5q-110 0 -179 -88t-69 -226q0 -86 48 -135t132 -49q98 0 158 70q38 47 61 119.5t23 144.5zM659 -141
q0 77 -75 106q-35 15 -126.5 28t-160.5 13q-138 0 -215.5 -46.5t-77.5 -129.5q0 -158 291 -158q175 0 269.5 48t94.5 139zM944 1417l-326 -334h-104l-195 334h76l183 -200l290 200h76z" />
    <glyph glyph-name="Oogonek" unicode="&#x1ea;" horiz-adv-x="1593" 
d="M1505 922q0 -205 -85 -397t-236.5 -331.5t-337.5 -193.5q-89 -28 -153 -79t-64 -114q0 -53 23 -88.5t67 -35.5q34 0 62 12.5t69 50.5l41 -37q-49 -66 -117.5 -115t-122.5 -49q-62 0 -114 55.5t-56 131.5q8 112 133 237q-245 9 -388.5 169t-143.5 425q0 187 72.5 362.5
t190 302.5t273.5 204t318 77q245 0 407 -165t162 -422zM1266 1016q0 88 -18.5 159.5t-56.5 127.5t-101.5 87t-147.5 31q-207 0 -367 -204q-100 -129 -175.5 -368t-75.5 -425q0 -169 86 -268t233 -99q120 0 226 63t175 175q96 154 159 358.5t63 362.5z" />
    <glyph glyph-name="oogonek" unicode="&#x1eb;" horiz-adv-x="1024" 
d="M922 575q0 -114 -46 -230t-128 -208q-70 -78 -168 -125q-84 -39 -140.5 -91.5t-56.5 -113.5q0 -53 23 -88.5t67 -35.5q34 0 62 12.5t69 50.5l41 -37q-49 -66 -117 -115t-122 -49q-62 0 -114 55.5t-56 131.5q8 112 133 237q-164 1 -261.5 105.5t-97.5 277.5q0 256 172 434
q171 177 377 177q149 0 256 -114t107 -274zM631 250q41 85 68.5 194t27.5 189q0 119 -47 185.5t-131 66.5q-115 0 -201 -111q-63 -85 -108 -235t-45 -277q0 -105 46.5 -160t135.5 -55q81 0 141 48.5t113 154.5z" />
    <glyph glyph-name="jcaron" unicode="&#x1f0;" horiz-adv-x="645" 
d="M571 963l-243 -820q-65 -221 -92.5 -288t-73.5 -125q-125 -144 -293 -144q-95 0 -152 44.5t-57 119.5q0 54 32 88.5t83 34.5q43 0 70.5 -26.5t27.5 -69.5q0 -25 -16 -56q-11 -18 -11 -28q0 -14 13 -25.5t30 -11.5q137 0 222 334q31 130 51 188l155 527q19 64 19 88
q0 35 -27 50t-90 15h-72l9 74zM883 1417l-326 -334h-104l-195 334h76l182 -200l291 200h76z" />
    <glyph glyph-name="Gacute" unicode="&#x1f4;" horiz-adv-x="1593" 
d="M1550 584h-43q-61 0 -85 -5.5t-44 -21.5q-15 -12 -22.5 -30t-30.5 -99l-123 -457h-90l-25 166q-96 -91 -197 -129.5t-247 -38.5q-264 0 -413.5 156t-149.5 434q0 136 43.5 274.5t123.5 258.5t184.5 214.5t235 148.5t265.5 54q124 0 214.5 -40.5t170.5 -131.5l127 127h69
l-112 -575l-86 14q-4 257 -99.5 387.5t-267.5 130.5q-278 0 -461 -346q-72 -138 -114.5 -305.5t-42.5 -314.5q0 -186 97 -292t267 -106q148 0 246.5 78.5t138.5 229.5l37 163v11q0 26 -35 35.5t-127 9.5h-67l10 96h666zM1337 1817q0 -21 -17 -41.5t-44 -32.5l-391 -176h-97
l340 258q70 55 123 55q34 0 60 -18.5t26 -44.5z" />
    <glyph glyph-name="gacute" unicode="&#x1f5;" horiz-adv-x="1099" 
d="M817 -82q0 -72 -36.5 -135.5t-102.5 -106.5q-75 -49 -171 -69.5t-249 -20.5q-126 0 -205 18.5t-141 61.5q-34 26 -54 66.5t-20 83.5q0 51 27.5 96.5t73.5 73.5q33 21 65 32.5t96 24.5q-60 29 -86 64.5t-26 87.5q0 37 18.5 74.5t48.5 62.5q34 30 73.5 44t111.5 23
q-127 68 -127 213q0 141 125 246t294 105q88 0 177 -39q80 63 129.5 86.5t103.5 23.5t91.5 -31.5t37.5 -74.5q0 -38 -24 -64t-58 -26q-25 0 -39 9.5t-39 43.5q-23 33 -53 33q-32 0 -76 -39q121 -86 121 -228q0 -69 -36.5 -141t-96.5 -119q-109 -86 -276 -86q-43 0 -148 15
q-44 6 -84 6q-54 0 -88.5 -23.5t-34.5 -58.5q0 -53 76 -72q36 -8 225 -18q103 -6 162 -18.5t109 -39.5q51 -28 78.5 -76t27.5 -108zM721 721q0 75 -47 119.5t-127 44.5q-110 0 -179 -88t-69 -226q0 -86 48 -135t132 -49q98 0 158 70q38 47 61 119.5t23 144.5zM659 -141
q0 77 -75 106q-35 15 -126.5 28t-160.5 13q-138 0 -215.5 -46.5t-77.5 -129.5q0 -158 291 -158q175 0 269.5 48t94.5 139zM848 1352q0 -47 -51 -80l-326 -197h-80l283 287q37 36 58 48.5t44 12.5q29 0 50.5 -21t21.5 -50z" />
    <glyph glyph-name="Aringacute" unicode="&#x1fa;" horiz-adv-x="1441" 
d="M1358 0h-617l11 96h47q85 0 109 14t24 60q0 16 -8 66l-47 251h-523l-112 -196q-37 -61 -37 -113q0 -46 31 -64t110 -18h49l-12 -96h-551l10 96q83 0 152 56.5t151 191.5l676 1165h84l256 -1288q15 -80 43 -102.5t113 -22.5h51zM860 584l-117 587l-333 -587h450z
M1323 2251q0 -21 -17 -41.5t-44 -32.5l-392 -176h-96l340 258q70 55 123 55q34 0 60 -18.5t26 -44.5zM1133 1757q0 -86 -60.5 -145.5t-146.5 -59.5q-82 0 -141.5 61t-59.5 144t60 143t145 60q83 0 143 -60t60 -143zM1059 1757q0 53 -38.5 91t-90.5 38q-54 0 -92.5 -38
t-38.5 -91q0 -54 38 -92.5t91 -38.5q56 0 93.5 38t37.5 93z" />
    <glyph glyph-name="aringacute" unicode="&#x1fb;" horiz-adv-x="1175" 
d="M1071 289q-38 -84 -100 -170q-108 -150 -240 -150q-56 0 -90.5 36.5t-34.5 96.5q0 27 10 66q-76 -110 -146 -154.5t-165 -44.5q-137 0 -220 91.5t-83 242.5q0 122 44 245.5t122 225.5q148 189 338 189q100 0 170 -60t80 -155l55 184h178l-205 -688q-22 -80 -22 -111
q0 -21 12.5 -36t30.5 -15q40 0 92 62.5t111 179.5zM592 258q47 96 75.5 209t28.5 201q0 85 -41.5 133.5t-113.5 48.5q-95 0 -164 -72q-82 -83 -135.5 -226t-53.5 -278q0 -94 43.5 -147t120.5 -53t135 44.5t105 139.5zM1038 1735q0 -21 -17 -41.5t-44 -32.5l-391 -176h-97
l340 258q70 55 123 55q34 0 60 -18.5t26 -44.5zM848 1241q0 -86 -60.5 -145.5t-146.5 -59.5q-82 0 -141.5 61t-59.5 144t60 143t145 60q83 0 143 -60t60 -143zM774 1241q0 53 -38 91t-91 38q-54 0 -92.5 -38t-38.5 -91q0 -54 38 -92.5t91 -38.5q55 0 93 38t38 93z" />
    <glyph glyph-name="AEacute" unicode="&#x1fc;" horiz-adv-x="1781" 
d="M1673 502l-160 -502h-1089l12 96h37q71 0 98 6.5t43 22.5q14 12 20.5 29t27.5 98l86 317h-392l-194 -280q-51 -74 -51 -119q0 -25 13.5 -41t38.5 -23t49 -9t56 -1l-12 -96h-444l10 96q38 0 71 22t70 72l655 943q76 111 76 163q0 47 -36.5 66.5t-127.5 19.5h-55l10 97
h1297l-80 -494h-92l2 145q0 252 -242 252h-55q-80 0 -106.5 -24t-51.5 -117l-113 -420h56q63 0 106 13.5t75 47t53.5 78t45.5 117.5l95 -12l-185 -684l-92 16q19 80 19 144q0 100 -28.5 142t-115.5 42h-55l-121 -451q-25 -88 -25 -114q0 -64 132 -64h45q130 0 230.5 49
t173.5 139.5t138 233.5zM772 666l170 634q17 62 11 73q-4 7 -13 7q-22 0 -47 -41l-473 -673h352zM1456 1817q0 -21 -17 -41.5t-44 -32.5l-391 -176h-97l340 258q70 55 123 55q34 0 60 -18.5t26 -44.5z" />
    <glyph glyph-name="aeacute" unicode="&#x1fd;" horiz-adv-x="1478" 
d="M1307 186q-95 -113 -197.5 -165t-228.5 -52q-247 0 -291 217q-79 -118 -167.5 -167.5t-217.5 -49.5q-112 0 -177 54.5t-65 148.5q0 148 152 231t506 129q30 116 30 181q0 77 -56.5 123.5t-148.5 46.5q-59 0 -102 -19t-43 -45q0 -2 12.5 -16.5t25.5 -38.5t13 -49
q0 -46 -29.5 -74.5t-78.5 -28.5q-51 0 -81 31t-30 84q0 98 96 167t234 69q193 0 313 -150q162 150 354 150q107 0 171.5 -56.5t64.5 -150.5q0 -146 -134.5 -226t-473.5 -137q-19 -69 -19 -112q0 -100 51.5 -156.5t143.5 -56.5q172 0 315 172zM1190 768q0 49 -28.5 77.5
t-76.5 28.5q-103 0 -176 -95t-135 -304q100 16 172 38t129.5 56t86 83.5t28.5 115.5zM600 451q-228 -32 -337 -91t-109 -165q0 -54 35 -88.5t90 -34.5q118 0 193.5 87.5t127.5 291.5zM1313 1352q0 -47 -51 -80l-326 -197h-80l283 287q37 36 58 48.5t44 12.5q29 0 50.5 -21
t21.5 -50z" />
    <glyph glyph-name="Oslashacute" unicode="&#x1fe;" horiz-adv-x="1593" 
d="M1505 924q0 -181 -69 -355t-184 -306t-276 -213t-335 -81q-191 0 -328 90l-192 -237h-119l242 297q-162 159 -162 446q0 184 69.5 358.5t184.5 302.5t271 205.5t321 77.5q203 0 350 -108l108 135h119l-157 -195q157 -164 157 -417zM1196 1298q-38 58 -105.5 89.5
t-154.5 31.5q-205 0 -361 -202q-100 -130 -175.5 -368t-75.5 -421q0 -96 28 -172zM1260 1042q0 85 -23 162l-838 -1036q83 -109 246 -109q95 0 181.5 42.5t153 116t120.5 170.5t88.5 207t53 224t18.5 223zM1544 1817q0 -21 -17 -41.5t-44 -32.5l-391 -176h-97l340 258
q70 55 123 55q34 0 60 -18.5t26 -44.5z" />
    <glyph glyph-name="oslashacute" unicode="&#x1ff;" horiz-adv-x="1024" 
d="M901 578q0 -88 -26 -176.5t-75.5 -165.5t-115.5 -137t-153 -95t-181 -35q-58 0 -131 17l-131 -232h-88l147 264q-157 102 -157 336q0 158 77.5 299.5t204.5 225.5t267 84q65 0 129 -25l106 184h88l-127 -221q78 -59 122 -143.5t44 -179.5zM623 856q-45 29 -97 29
q-95 0 -177.5 -94t-128.5 -236.5t-46 -290.5q0 -75 33 -143zM610 250q43 88 70 195.5t27 193.5t-31 156l-412 -727q46 -21 92 -21q81 0 141 48.5t113 154.5zM1085 1352q0 -47 -51 -80l-325 -197h-80l282 287q37 35 58.5 48t44.5 13q29 0 50 -21t21 -50z" />
    <glyph glyph-name="Adblgrave" unicode="&#x200;" horiz-adv-x="1441" 
d="M1358 0h-617l11 96h47q85 0 109 14t24 60q0 16 -8 66l-47 251h-523l-112 -196q-37 -61 -37 -113q0 -46 31 -64t110 -18h49l-12 -96h-551l10 96q83 0 152 56.5t151 191.5l676 1165h84l256 -1288q15 -80 43 -102.5t113 -22.5h51zM860 584l-117 587l-333 -587h450z
M1094 1593h-84l-222 195q-14 14 -16 37t8 43q15 29 47.5 50t61.5 21q23 0 36.5 -12t32.5 -49zM784 1593h-84l-221 195q-15 14 -17.5 36t9.5 44q15 29 47.5 50t61.5 21q23 0 36.5 -12t32.5 -49z" />
    <glyph glyph-name="adblgrave" unicode="&#x201;" horiz-adv-x="1175" 
d="M1071 289q-38 -84 -100 -170q-108 -150 -240 -150q-56 0 -90.5 36.5t-34.5 96.5q0 27 10 66q-76 -110 -146 -154.5t-165 -44.5q-137 0 -220 91.5t-83 242.5q0 122 44 245.5t122 225.5q148 189 338 189q100 0 170 -60t80 -155l55 184h178l-205 -688q-22 -80 -22 -111
q0 -21 12.5 -36t30.5 -15q40 0 92 62.5t111 179.5zM592 258q47 96 75.5 209t28.5 201q0 85 -41.5 133.5t-113.5 48.5q-95 0 -164 -72q-82 -83 -135.5 -226t-53.5 -278q0 -94 43.5 -147t120.5 -53t135 44.5t105 139.5zM809 1077h-84l-221 195q-14 14 -16 37t8 43q15 29 47 50
t61 21q23 0 37 -12t33 -49zM500 1077h-84l-221 195q-15 14 -18 36t9 44q15 29 47.5 50t61.5 21q23 0 37 -12t33 -49z" />
    <glyph glyph-name="Edblgrave" unicode="&#x204;" horiz-adv-x="1478" 
d="M1315 502l-160 -502h-1231l10 96h39q70 0 96.5 6t45.5 23q13 13 19.5 30.5t27.5 96.5l262 975q18 74 18 100q0 34 -31 44.5t-130 10.5h-54l13 97h1196l-80 -494h-92v72q0 96 -19.5 161t-58.5 100t-88.5 49.5t-118.5 14.5h-119q-51 0 -78 -2.5t-50 -9t-35 -24t-21 -40
t-21 -65.5l-112 -420h67q146 0 222.5 59t121.5 197l93 -12l-183 -684l-92 16q19 90 19 142q0 96 -47.5 141t-159.5 45h-66l-121 -451q-22 -86 -22 -112q0 -37 31.5 -51.5t111.5 -14.5h111q110 0 186.5 16.5t147 63t130 123.5t128.5 203l10 16zM1077 1593h-84l-221 195
q-14 14 -16 37t8 43q15 29 47 50t61 21q23 0 37 -12t33 -49zM768 1593h-84l-221 195q-15 14 -17.5 36t9.5 44q15 29 47 50t61 21q23 0 37 -12t33 -49z" />
    <glyph glyph-name="edblgrave" unicode="&#x205;" horiz-adv-x="909" 
d="M743 182q-165 -213 -401 -213q-166 0 -260 94.5t-94 260.5q0 123 47.5 240.5t124.5 204.5t182 140.5t215 53.5q108 0 176 -58.5t68 -152.5q0 -89 -63.5 -164.5t-182.5 -128.5q-70 -31 -133 -50t-240 -61q-4 -54 -4 -69q0 -98 53.5 -155.5t145.5 -57.5q80 0 153.5 39.5
t163.5 132.5zM629 764q0 53 -31 85t-82 32q-114 0 -201 -122.5t-122 -330.5q89 19 127 30t81 31q111 50 169.5 120.5t58.5 154.5zM821 1077h-84l-221 195q-14 14 -16 37t8 43q15 29 47 50t61 21q23 0 37 -12t33 -49zM512 1077h-84l-221 195q-15 14 -17.5 36t9.5 44
q15 29 47 50t61 21q23 0 37 -12t33 -49z" />
    <glyph glyph-name="Idblgrave" unicode="&#x208;" horiz-adv-x="833" 
d="M567 0h-635l11 96q91 2 122 7t50 22q13 13 19.5 31t27.5 96l262 975q20 79 20 100q0 34 -31 44.5t-132 10.5h-45l12 97h635l-11 -97q-92 -2 -123 -6.5t-49 -21.5q-13 -13 -18.5 -28.5t-28.5 -98.5l-262 -975q-20 -78 -20 -98q0 -35 31.5 -46.5t132.5 -11.5h45zM844 1593
h-84l-221 195q-14 14 -16.5 37t7.5 43q15 29 47.5 50t61.5 21q23 0 37 -12t33 -49zM535 1593h-84l-222 195q-15 14 -17.5 36t9.5 44q15 29 47.5 50t61.5 21q23 0 36.5 -12t32.5 -49z" />
    <glyph glyph-name="idblgrave" unicode="&#x209;" 
d="M578 287q-76 -118 -127 -174q-124 -142 -254 -142q-60 0 -101 36.5t-41 90.5q0 33 8 70.5t37 136.5l119 400q19 71 19 90q0 34 -27 48.5t-90 14.5h-49l8 74l393 31l-217 -732q-25 -89 -25 -114q0 -19 10 -31t25 -12q41 0 106.5 65t141.5 183zM614 1077h-84l-221 195
q-14 14 -16 37t8 43q15 29 47.5 50t61.5 21q23 0 36.5 -12t32.5 -49zM305 1077h-84l-221 195q-15 14 -17.5 36t9.5 44q15 29 47 50t61 21q23 0 37 -12t33 -49z" />
    <glyph glyph-name="Odblgrave" unicode="&#x20c;" horiz-adv-x="1593" 
d="M1505 922q0 -180 -69 -354t-184.5 -305.5t-277 -212.5t-335.5 -81q-255 0 -406 161t-151 433q0 187 72.5 362.5t190 302.5t273.5 204t318 77q245 0 407 -165t162 -422zM1266 1016q0 88 -18.5 159.5t-56.5 127.5t-101.5 87t-147.5 31q-207 0 -367 -204
q-100 -129 -175.5 -368t-75.5 -425q0 -169 86 -268t233 -99q120 0 226 63t175 175q96 154 159 358.5t63 362.5zM1225 1593h-84l-221 195q-14 14 -16.5 37t7.5 43q15 29 47.5 50t61.5 21q23 0 37 -12t33 -49zM915 1593h-84l-221 195q-15 14 -17.5 36t9.5 44q15 29 47.5 50
t61.5 21q23 0 36.5 -12t32.5 -49z" />
    <glyph glyph-name="odblgrave" unicode="&#x20d;" horiz-adv-x="1024" 
d="M922 575q0 -114 -46 -230t-128 -208q-148 -168 -373 -168q-167 0 -266 104t-99 279q0 256 172 434q171 177 377 177q149 0 256 -114t107 -274zM631 250q41 85 68.5 194t27.5 189q0 119 -47 185.5t-131 66.5q-115 0 -201 -111q-63 -85 -108 -235t-45 -277
q0 -105 46.5 -160t135.5 -55q81 0 141 48.5t113 154.5zM840 1077h-84l-221 195q-14 14 -16.5 37t7.5 43q15 29 47.5 50t61.5 21q23 0 37 -12t33 -49zM530 1077h-84l-221 195q-15 14 -17.5 36t9.5 44q15 29 47.5 50t61.5 21q23 0 36.5 -12t32.5 -49z" />
    <glyph glyph-name="Rdblgrave" unicode="&#x210;" horiz-adv-x="1517" 
d="M1378 270q-60 -163 -127.5 -232t-165.5 -69q-97 0 -157 69t-60 179q0 36 13 205q6 64 6 110q0 100 -54.5 142.5t-183.5 42.5h-141l-125 -465q-16 -57 -21 -100q0 -34 31.5 -45t130.5 -11h54l-11 -96h-651l10 96h33q71 0 99.5 6.5t47.5 22.5q13 13 20 31.5t28 95.5
l262 975q18 74 18 100q0 34 -31 44.5t-131 10.5h-53l12 97h656q279 0 403.5 -86.5t124.5 -249.5q0 -99 -56.5 -186.5t-152.5 -137.5q-56 -28 -125 -44.5t-188 -29.5q112 -41 161.5 -119t49.5 -212q0 -11 -1 -35.5t-1 -38.5l-2 -104q-3 -125 61 -125q43 0 74.5 41t69.5 149z
M1169 1157q0 107 -70.5 166t-199.5 59h-100q-72 0 -98 -22t-48 -100l-121 -447h160q130 0 191 11t118 44q168 100 168 289zM1092 1593h-84l-222 195q-14 14 -16 37t8 43q15 29 47.5 50t61.5 21q23 0 36.5 -12t32.5 -49zM782 1593h-84l-221 195q-15 14 -17.5 36t9.5 44
q15 29 47.5 50t61.5 21q23 0 36.5 -12t32.5 -49z" />
    <glyph glyph-name="rdblgrave" unicode="&#x211;" horiz-adv-x="909" 
d="M887 811q0 -57 -34 -94t-87 -37q-63 0 -88 45q-8 12 -8 66q0 47 -37 47q-70 0 -176.5 -161t-163.5 -353l-96 -324h-179l209 705q21 78 21 96q0 57 -119 57h-49l8 74l371 31l-47 -238q82 127 154.5 182.5t158.5 55.5q70 0 116 -43t46 -109zM702 1077h-84l-221 195
q-14 14 -16 37t8 43q15 29 47.5 50t61.5 21q23 0 36.5 -12t32.5 -49zM393 1077h-84l-221 195q-15 14 -17.5 36t9.5 44q15 29 47 50t61 21q23 0 37 -12t33 -49z" />
    <glyph glyph-name="Udblgrave" unicode="&#x214;" horiz-adv-x="1669" 
d="M1751 1382q-50 -2 -78 -5.5t-56.5 -18.5t-43.5 -33t-35 -62.5t-35 -92.5t-39 -136l-114 -432q-34 -129 -66 -219.5t-72.5 -164.5t-86 -119t-109 -75.5t-138.5 -42.5t-176 -12q-250 0 -381 100t-131 291q0 94 41 242l168 625q19 78 19 100q0 34 -31 44.5t-131 10.5h-51
l10 97h651l-12 -97h-37q-71 0 -98 -6t-43 -22q-14 -11 -19 -24.5t-28 -102.5l-185 -682q-12 -41 -20 -105t-8 -106q0 -131 86.5 -204t242.5 -73q234 0 357 172q36 51 61 121t72 244l119 440q34 138 40.5 170t6.5 66q0 59 -46 85.5t-145 26.5l13 97h538zM1264 1593h-84
l-222 195q-14 14 -16 37t8 43q15 29 47.5 50t61.5 21q23 0 36.5 -12t32.5 -49zM954 1593h-84l-221 195q-15 14 -17.5 36t9.5 44q15 29 47.5 50t61.5 21q23 0 36.5 -12t32.5 -49z" />
    <glyph glyph-name="udblgrave" unicode="&#x215;" horiz-adv-x="1251" 
d="M1139 276q-108 -168 -192.5 -237.5t-178.5 -69.5q-57 0 -94 38t-37 97q0 50 25 140q-91 -141 -182.5 -207t-198.5 -66q-87 0 -141 52.5t-54 136.5q0 46 8 78t56 190l81 277q17 63 17 88q0 35 -26 50t-89 15h-49l6 74l395 31l-200 -672q-23 -79 -23 -117q0 -37 25.5 -62.5
t62.5 -25.5q109 0 232 152.5t186 365.5l96 328h178l-202 -680q-25 -92 -25 -121q0 -20 12 -34.5t27 -14.5q31 0 89.5 60.5t133.5 170.5zM911 1077h-84l-221 195q-14 14 -16 37t8 43q15 29 47.5 50t61.5 21q23 0 36.5 -12t32.5 -49zM602 1077h-84l-221 195q-15 14 -17.5 36
t9.5 44q15 29 47 50t61 21q23 0 37 -12t33 -49z" />
    <glyph glyph-name="uni0218" unicode="&#x218;" horiz-adv-x="1366" 
d="M1165 438q0 -203 -156 -336t-395 -133q-247 0 -421 160l-121 -129h-72l113 584l82 -15q-2 -23 -2 -57q0 -206 114.5 -330.5t304.5 -124.5q158 0 257.5 81.5t99.5 211.5q0 112 -90 178q-29 18 -160 74l-176 74q-171 71 -236 159t-65 216q0 193 142 325.5t349 132.5
q219 0 373 -151l111 106h77l-110 -534l-86 14q2 18 2 41q0 202 -94.5 319t-257.5 117q-136 0 -228 -77t-92 -191q0 -79 56 -138t178 -106l174 -69q183 -74 256 -162.5t73 -239.5zM584 -229q0 -106 -89.5 -205t-238.5 -156l-25 58q102 46 162.5 108t71.5 131l-31 -2
q-46 0 -74 27t-28 71q0 48 35.5 81.5t87.5 33.5q56 0 92.5 -41.5t36.5 -105.5z" />
    <glyph glyph-name="uni0219" unicode="&#x219;" horiz-adv-x="909" 
d="M729 285q0 -140 -110 -228t-287 -88q-154 0 -244 62.5t-90 169.5q0 60 34 98.5t85 38.5q44 0 74 -29.5t30 -72.5q0 -27 -7.5 -42.5t-35.5 -46.5q-14 -11 -14 -30q0 -31 50 -50.5t128 -19.5q106 0 169.5 49t63.5 131q0 53 -29 83t-116 65q-93 37 -160 69q-67 35 -104 89.5
t-37 119.5q0 134 105 222t266 88q132 0 217.5 -59.5t85.5 -153.5q0 -56 -32.5 -90.5t-84.5 -34.5q-46 0 -76 26.5t-30 67.5q0 24 5.5 38t26.5 44q11 18 11 28q0 25 -37.5 40.5t-96.5 15.5q-89 0 -148.5 -47t-59.5 -117q0 -60 34 -92.5t134 -67.5q82 -30 112.5 -43.5
t65.5 -36.5q102 -70 102 -196zM397 -229q0 -106 -89 -205t-238 -156l-25 58q102 46 162.5 108t71.5 131l-31 -2q-46 0 -74.5 27t-28.5 71q0 48 35.5 81.5t87.5 33.5q56 0 92.5 -41.5t36.5 -105.5z" />
    <glyph glyph-name="uni021A" unicode="&#x21a;" horiz-adv-x="1402" 
d="M1401 915l-86 11q4 84 4 143q0 166 -57 239.5t-193 73.5h-29q-47 0 -63.5 -18t-38.5 -96l-272 -1016q-19 -74 -19 -100q0 -34 31.5 -45t130.5 -11h76l-13 -96h-708l10 96h45q139 0 172 29q13 13 19.5 30.5t27.5 96.5l279 1044q10 38 10 52q0 34 -68 34h-28
q-58 0 -101.5 -12.5t-84 -39t-83.5 -81t-87.5 -125.5t-108.5 -186l-84 12l180 529h1225zM592 -229q0 -106 -89.5 -205t-238.5 -156l-24 58q102 45 162 107.5t71 131.5l-31 -2q-46 0 -74 27t-28 71q0 48 35.5 81.5t87.5 33.5q56 0 92.5 -41.5t36.5 -105.5z" />
    <glyph glyph-name="uni021B" unicode="&#x21b;" horiz-adv-x="720" 
d="M584 287q-70 -114 -103 -158q-54 -72 -132 -116t-150 -44q-61 0 -104.5 45.5t-43.5 110.5q0 57 39 194l154 517h-193l29 96h192l101 340h178l-100 -340h223l-29 -96h-223l-195 -654q-6 -24 -6 -47q0 -26 12.5 -41.5t34.5 -15.5q51 0 105 53t149 197zM313 -229
q0 -106 -89 -205t-238 -156l-25 58q102 46 162.5 108t71.5 131l-31 -2q-46 0 -74.5 27t-28.5 71q0 48 35.5 81.5t87.5 33.5q56 0 92.5 -41.5t36.5 -105.5z" />
    <glyph glyph-name="uni0237" unicode="&#x237;" horiz-adv-x="645" 
d="M571 963l-243 -820q-65 -221 -92.5 -288t-73.5 -125q-125 -144 -293 -144q-95 0 -152 44.5t-57 119.5q0 54 32 88.5t83 34.5q43 0 70.5 -26.5t27.5 -69.5q0 -25 -16 -56q-11 -18 -11 -28q0 -14 13 -25.5t30 -11.5q137 0 222 334q31 130 51 188l155 527q19 64 19 88
q0 35 -27 50t-90 15h-72l9 74z" />
    <glyph glyph-name="ereversed" unicode="&#x258;" horiz-adv-x="909" 
d="M760 324q-89 -166 -234 -260.5t-311 -94.5q-238 0 -287 213l78 56q39 -93 92 -132.5t133 -39.5q92 0 176 57t138 156q11 18 33 69q-155 42 -208 61t-106 50q-90 52 -113 128t25 165q49 93 148.5 152t207.5 59q110 0 186.5 -53.5t107 -140.5t15 -204.5t-80.5 -240.5z
M610 428q75 207 53.5 330t-135.5 123q-51 0 -98.5 -32t-75.5 -85q-46 -85 -25.5 -155t105.5 -120q33 -20 65 -31t111 -30z" />
    <glyph glyph-name="schwa" unicode="&#x259;" horiz-adv-x="909" 
d="M836 608q0 -164 -79.5 -312t-211.5 -237.5t-279 -89.5q-107 0 -175 58.5t-68 152.5q0 89 63 164.5t182 128.5q70 31 133 50t240 61q4 54 4 69q0 98 -53.5 155.5t-145.5 57.5q-80 0 -153.5 -39.5t-163.5 -132.5l-49 56q165 213 401 213q166 0 260.5 -94.5t94.5 -260.5z
M631 504q-140 -30 -209 -62q-111 -50 -169 -120t-58 -154q0 -53 30.5 -85t81.5 -32q114 0 201.5 122.5t122.5 330.5z" />
    <glyph glyph-name="ringhalfright" unicode="&#x2be;" horiz-adv-x="731" 
d="M750 1192q1 -170 -113.5 -301t-263.5 -131q-82 0 -139.5 48t-57.5 116q0 51 30.5 84.5t74.5 33.5q38 0 63 -23.5t25 -60.5q0 -29 -13.5 -46.5t-48.5 -32.5q-10 -3 -10 -7q-1 -8 9.5 -14.5t27 -10t33.5 -3.5q77 0 143 94q39 54 60.5 126.5t23.5 145.5q0 68 -29.5 107
t-81.5 39q-97 0 -194 -129q-6 -6 -13 -6q-6 0 -10 4l-39 30q-8 4 -8 13l2 8q117 178 279 178q114 0 182 -71t68 -191z" />
    <glyph glyph-name="ringhalfleft" unicode="&#x2bf;" horiz-adv-x="731" 
d="M698 938q-117 -178 -278 -178q-114 0 -182 71t-68 191q-1 170 113.5 301t263.5 131q82 0 139 -48t57 -116q0 -52 -30.5 -85.5t-73.5 -33.5q-38 0 -63 23.5t-25 60.5q0 30 13 47.5t48 32.5q12 4 13 6q0 12 -23 20.5t-49 8.5q-77 0 -143 -94q-39 -54 -60.5 -126.5
t-23.5 -145.5q2 -69 30 -107.5t80 -38.5q98 0 195 129q6 6 12 6t10 -4l39 -31q8 -4 8 -12z" />
    <glyph glyph-name="circumflex" unicode="&#x2c6;" 
d="M725 1077h-74l-176 213l-278 -213h-74l313 346h103z" />
    <glyph glyph-name="caron" unicode="&#x2c7;" 
d="M805 1417l-326 -334h-104l-195 334h76l182 -200l291 200h76z" />
    <glyph glyph-name="breve" unicode="&#x2d8;" 
d="M770 1413q-28 -149 -120.5 -237.5t-221.5 -88.5q-121 0 -197.5 77.5t-76.5 199.5q0 29 2 49h61q4 -92 63 -144t156 -52q93 0 163 50.5t108 145.5h63z" />
    <glyph glyph-name="dotaccent" unicode="&#x2d9;" 
d="M571 1249q0 -41 -29.5 -70.5t-70.5 -29.5t-70.5 29.5t-29.5 70.5t29.5 71t70.5 30t70.5 -30t29.5 -71z" />
    <glyph glyph-name="ring" unicode="&#x2da;" 
d="M674 1251q0 -86 -60 -145t-147 -59q-82 0 -141.5 60.5t-59.5 143.5t60 143t145 60q83 0 143 -60t60 -143zM600 1251q0 53 -38 91t-91 38q-54 0 -92.5 -38t-38.5 -91q0 -54 38 -92.5t91 -38.5q55 0 93 38t38 93z" />
    <glyph glyph-name="ogonek" unicode="&#x2db;" 
d="M522 -291q-49 -66 -117 -115t-122 -49q-62 0 -114 55.5t-56 131.5q4 71 49 137t125 141h73q-58 -71 -79 -115.5t-21 -87.5q0 -53 23 -88.5t67 -35.5q34 0 62 12.5t69 50.5z" />
    <glyph glyph-name="tilde" unicode="&#x2dc;" 
d="M807 1358q-10 -89 -66.5 -152t-124.5 -63q-34 0 -63.5 7.5t-112.5 39.5q-117 43 -151 43q-68 0 -92 -92h-62q19 102 67 158.5t117 56.5q49 0 205 -53q85 -31 121 -31q65 0 100 86h62z" />
    <glyph glyph-name="hungarumlaut" unicode="&#x2dd;" 
d="M678 1352q0 -20 -14.5 -43.5t-36.5 -36.5l-326 -195h-84l287 285q38 37 58.5 49t43.5 12q29 0 50.5 -21t21.5 -50zM987 1352q0 -22 -14 -44.5t-37 -35.5l-326 -195h-84l287 285q38 37 58.5 49t43.5 12q29 0 50.5 -21t21.5 -50z" />
    <glyph glyph-name="uni0300" unicode="&#x300;" horiz-adv-x="0" 
d="M-127 1075h-80l-221 197q-30 34 -8 80q15 29 48 50t62 21q23 0 37 -12.5t33 -48.5z" />
    <glyph glyph-name="uni0301" unicode="&#x301;" horiz-adv-x="0" 
d="M-12 1352q0 -47 -51 -80l-326 -197h-80l283 287q37 36 58 48.5t44 12.5q29 0 50.5 -21t21.5 -50z" />
    <glyph glyph-name="uni0302" unicode="&#x302;" horiz-adv-x="0" 
d="M2 1077h-74l-176 213l-278 -213h-74l313 346h103z" />
    <glyph glyph-name="uni0303" unicode="&#x303;" horiz-adv-x="0" 
d="M84 1358q-10 -89 -66 -152t-124 -63q-35 0 -64.5 7.5t-112.5 39.5q-117 43 -151 43q-68 0 -92 -92h-62q19 101 67.5 158t117.5 57q48 0 204 -53q85 -31 121 -31q66 0 101 86h61z" />
    <glyph glyph-name="uni0304" unicode="&#x304;" horiz-adv-x="0" 
d="M45 1198h-616l22 105h617z" />
    <glyph glyph-name="uni0306" unicode="&#x306;" horiz-adv-x="0" 
d="M47 1413q-28 -149 -120.5 -237.5t-221.5 -88.5q-121 0 -197.5 77.5t-76.5 199.5q0 29 2 49h61q4 -92 63 -144t156 -52q93 0 163 50.5t108 145.5h63z" />
    <glyph glyph-name="uni0307" unicode="&#x307;" horiz-adv-x="0" 
d="M-152 1249q0 -41 -29.5 -70.5t-70.5 -29.5t-70.5 29.5t-29.5 70.5t29.5 71t70.5 30t70.5 -30t29.5 -71z" />
    <glyph glyph-name="uni0308" unicode="&#x308;" horiz-adv-x="0" 
d="M-346 1249q0 -41 -29.5 -70.5t-70.5 -29.5t-71 29.5t-30 70.5t30 71t71 30t70.5 -30t29.5 -71zM43 1249q0 -41 -29.5 -70.5t-70.5 -29.5t-71 29.5t-30 70.5t30 71t71 30t70.5 -30t29.5 -71z" />
    <glyph glyph-name="uni0309" unicode="&#x309;" horiz-adv-x="0" 
d="M-35 1321q0 -53 -31 -82.5t-133 -77.5q-50 -24 -66 -41.5t-28 -66.5h-67l10 37q2 9 5 21.5t4 17t6.5 14t13 16t23.5 19t37.5 27t55.5 36.5h-2q43 30 43 64q0 25 -19.5 43t-54.5 18q-49 0 -69 -12q24 -32 24 -51q0 -31 -30.5 -55.5t-65.5 -24.5q-30 0 -47.5 17t-17.5 44
q0 69 76.5 116.5t177.5 47.5q74 0 114.5 -38t40.5 -89z" />
    <glyph glyph-name="uni030A" unicode="&#x30a;" horiz-adv-x="0" 
d="M-49 1251q0 -86 -60 -145t-147 -59q-82 0 -141.5 60.5t-59.5 143.5t60 143t145 60q83 0 143 -60t60 -143zM-123 1251q0 53 -38.5 91t-90.5 38q-54 0 -92.5 -38t-38.5 -91q0 -54 38 -92.5t91 -38.5q56 0 93.5 38t37.5 93z" />
    <glyph glyph-name="uni030B" unicode="&#x30b;" horiz-adv-x="0" 
d="M-45 1352q0 -20 -14.5 -43.5t-36.5 -36.5l-326 -195h-84l287 285q38 37 58.5 49t43.5 12q29 0 50.5 -21t21.5 -50zM264 1352q0 -22 -14 -44.5t-37 -35.5l-326 -195h-84l287 285q38 37 59 49t44 12q29 0 50 -21t21 -50z" />
    <glyph glyph-name="uni030C" unicode="&#x30c;" horiz-adv-x="0" 
d="M82 1417l-326 -334h-104l-195 334h76l182 -200l291 200h76z" />
    <glyph glyph-name="uni030F" unicode="&#x30f;" horiz-adv-x="0" 
d="M-90 1077h-84l-221 195q-14 14 -16 37t8 43q15 29 47 50t61 21q23 0 37 -12t33 -49zM-399 1077h-84l-222 195q-15 14 -17.5 36t9.5 44q15 29 47.5 50t61.5 21q23 0 36.5 -12t32.5 -49z" />
    </font>
</defs>
</svg>
