<?xml version="1.0" encoding="UTF-8"?>
<svg id="Layer_1" xmlns="http://www.w3.org/2000/svg" version="1.1" viewBox="0 0 512 512">
  <!-- Generator: Adobe Illustrator 29.5.1, SVG Export Plug-In . SVG Version: 2.1.0 Build 141)  -->
  <path d="M443.9,131.35c6.7-1.4,11.27.86,10.23,8.19-.65,4.6-5.48,8.08-6.49,11.53-2.78,9.49,2.75,11.2-8.54,18.46-23.67,15.23-60.75,26.03-87.16,36.83-19.38,7.93-38.06,17.29-57.07,25.92-10.54,4.78-22.3,7.42-31.71,14.29l-29.15,57.84c-4.61,6.85-13.47,16.3-21.74,18.25-37.27,8.81-60.26,21.81-94.37,36.61-7.99,3.47-31.49,14.28-38.41,15.58-11.07,2.09-29.92-10.43-17.78-20.77,6.92-5.89,22.14-10.54,30.2-15.79,10.8-7.04-9.85-7.2-13.71-8.67-8.15-3.13-6.47-13.48,2.49-14.54,7.83-.92,24.61,1.61,32.78,3.26,5.66,1.14,10.56,5.61,16.77,3.29,8.07-4.43,16.45-8.54,24.98-12.01,15.4-6.26,43.65-12.65,56.32-20.68,1.94-1.23,4.25-3.58,5.41-5.59,1.87-3.22,8.08-20.67,7.1-23.57-1.07-3.16-12.27-3.33-15.88-4.14-6.74-1.51-22.37-7.42-27.49-7.58-11.08-.36-35.64,17.29-44.49,15.66-7.45-1.37-6.27-9.71-10.44-13.64-1.28-1.2-20.33-13.63-21.8-14.2-2.59-1-3.83-1.15-6.46-.02-5.71,2.46-15.97,24.88-23.75,30.24-4.31,2.96-12.37,3.5-13.49-2.54-1.26-6.8,7.9-14.61,11.8-20.14,6.55-9.28,21.59-33.97,33.71-34.36,2.5-.08,4.23.8,6.45,1.57,14.6,5.06,30.73,20.5,45.76,26.27,7.29,1.2,16.42-5.77,23.74-5.78,4.87,0,14.64,5.18,20.28,6.71,4.15,1.13,11.83,3.05,15.88,3.2,3.38.13,14.69-1.86,17.29-3.46,3.98-2.45,15.43-18.82,12.13-23.05-1.92-2.46-33.57-10.32-38.87-13.2-6.78.02-22.65,8.67-26.69-.22-4.71-10.36,14-14.81,21.23-15.73,12.46-1.59,25.42,7.1,37.46,10.02,28.11,6.83,58.75-1.43,85.77-9.78,25.04-7.74,49.89-19.02,73.35-30.64,9.54-4.72,36.99-22.08,44.36-23.62Z"/>
  <path d="M474.89,189.34c10.77-3.36,16.08,7.86,6.98,13.97-10.36,6.95-30.04,12.31-42.37,17.62-22.83,9.84-45.17,21.18-68.78,29.21-9.37,3.19-22.59,5.26-31.09,8.9-1.43.61-2.48,1.3-3.42,2.56l3.76,2.22,42.62,8.25c3.21-.38,13.72-7.8,16.93-10.14,6.06-4.43,14.08-14.37,22.05-13.79,5.68.41,32.13,14.28,35.17,18.91,4.27,6.49-1.09,13.96-8.12,15-9.33,1.37-22.51-9.9-31.85-11.92-4.61.25-21.94,15.21-27.66,18.4-10.87,6.07-12.13-.13-21.7-3.13-15.31-4.8-35.78-5.66-51.57-3.15-6.67,1.06-20.11,4.5-24.07,9.93-2.27,3.11-8.93,18.17-9.39,21.7-1.21,9.17,9.88,2.98,14.44,2.34,11.18-1.58,40-3.49,49.66,1.12,8.16,3.89,5.87,14.59-3.78,14.87-16.98.48-32.49-3.68-50.03,1.88-12.23,3.87-19.33,13.66-29.79,19.2-15.77,8.35-37.4,15.08-54.34,22.65-25.4,11.34-50.32,23.94-75.64,35.35-7.32,3.3-29.01,13.72-35.44,14.62-10.39,1.46-13-10.05-2.94-16,8.72-5.16,22.6-9.1,32.37-13.62,41.82-19.33,83.62-39,126.24-56.73,1.81-1.55,3.59-3.08,4.81-5.19,5.82-10.04,9.78-28.54,14.76-40.23,21.67-50.86,53.28-45.22,98.74-61.24,35.18-12.4,68.32-30.85,103.44-43.53Z"/>
  <path d="M281.95,75.31c6.13-.76,15.84,6.18,21.15,9.4,4.81,2.92,10.49,6.66,15,10s17.29,12.78,18.05,17.99c1.25,8.59-7.52,18.14-16.68,14.64-10.7-4.08-25.54-18.74-36.75-24.24-4.96-2.43-6.02-2.64-10.86.19-6.09,3.56-17.18,19.07-21.2,19.82-9.26,1.74-24.02-15.77-31.86-14.98-3.51.35-14.14,8.32-17.07,11.02-5.98,5.51-10.42,15.8-18.47,17.53-8.62,1.86-28.83,2.5-37.58,1.46-5.78-.68-9.39-5.21-6.95-11,3.45-8.18,28.41-5.16,35.97-6.02s11.84-9.44,17.49-14.51c3.83-3.44,8.92-6.61,13.02-9.97,5.12-4.19,11.11-13.43,19-12.12s21.31,12.77,29.4,11.57,20.15-19.76,28.33-20.78Z"/>
</svg>