<?xml version="1.0" encoding="UTF-8"?>
<svg id="Layer_1" xmlns="http://www.w3.org/2000/svg" version="1.1" viewBox="0 0 512 512">
  <!-- Generator: Adobe Illustrator 29.5.1, SVG Export Plug-In . SVG Version: 2.1.0 Build 141)  -->
  <path d="M93.67,91.63c3.08-.62,13.89,2.91,17.16,4.43,6.77,3.13,23.26,18.08,28.67,18.39,3.52.2,9.21-5,13.16-6.74,10.72-4.74,27.09-8.3,38.75-8.33,13.45-.03,15.28,13.08,2.92,15-7.55,1.17-14.58.72-22.4,2.59-6.02,1.44-18.8,4.85-11.5,12.49,3.62,3.78,16.85,13.05,21.76,16.23,18.36,11.9,15.9,3.51,28.81-6.64,14.35-11.28,44.14-20.55,61.93-16.1,4.19,1.05,9.14,4.29,13.57,4.43,4.69.14,13.29-2.61,18.87-2.95,13.82-.84,27.12.74,39.21,7.87,5.81,3.43,18.32,13.39,10.85,20.18-5.9,5.37-9.99-1.92-14.19-4.84-8.21-5.7-23.78-10.12-33.61-7.96-8.48,1.86-1,15.79-12.2,15.83-2.21,0-15.34-3.11-18.06-3.99-6.63-2.13-12.82-6.97-20-9-13.91-3.92-24.19-1.31-35.76,7.12-4.31,3.14-10.76,8.66-9.66,14.29.92,4.74,29.26,24.75,35,30.01,6.31,5.79,17.33,17.2,19.52,25.48,1.35,5.11,1.39,11.25,2.97,17.03,6.27,22.96,10.47,11.93,25.71,7.72,13.09-3.61,21.85-3.98,32.79,4.77,6.09,4.87,13.31,17.13,18.03,19.97,5.58,3.36,17.42.95,19.56,8.52,3.31,11.69-19.27,8.4-24.82,6.74-5.23-1.57-14.82-8.83-19.69-12.31-9.16-6.53-13.86-16.02-26.06-11.88-22.29,7.56-21.93,25.09-35.05,40.94-6.32,7.63-27.51,25.04-26.02,35,.48,3.22,9.51,5.5,12.72,7.36,5.52,3.19,10.73,7.78,16.29,10.71,5.21,2.74,36.7,11.49,20.96,20.88-12.79,7.63-30.34-9.48-42.38-13.46-5.72-1.89-11.7-2.14-17.54-3.46-5.5-1.24-7.95-4.25-14.25-3.27-13.34,2.08-48.83,30.97-62.01,39.98-9.53,6.5-23.87,13.44-32.05,19.95-6.51,5.18-11.19,17.09-22.17,9.83-8.16-5.39-3.5-11.87,2.59-16.42,48.4-33.53,102.1-63.02,142.92-106.04,18.28-19.26,26.88-34.93,16.15-62.2-6.58-16.73-41.97-36.71-57.08-47.91-14.33-10.62-28.75-21.27-42.99-32-10.59-7.98-25.82-22.71-36.18-28.81-10.64-6.27-15.49-2.68-24.73-15.26-4.48-6.1-12.8-21.65-.44-24.15Z"/>
  <path d="M66.66,133.62c2.13-.33,3.22.75,4.77,1.85,4.41,3.14,11.5,12.92,16.49,17.5,13.57,12.45,29.59,21.76,44.32,32.67,26.57,19.67,70.7,48.44,90.2,73.78,8.35,10.86,1.4,20.48-5.55,29.49-8.55,11.08-22.73,23.74-34.24,31.75-29,20.19-54.97,38.5-88.95,50.04-13.59,4.61-23.9,11.22-36.7,1.16-14.62-11.5,9.55-20.01,18.57-24.29,19.72-9.35,42.8-16.2,60.28-29.71,9.2-7.11-.74-11.27-7.67-14.19s-24.15-7.18-31.76-7.31c-12.48-.22-15.28,12.98-21.22,13.92-8,1.27-8.41-10.15-4.73-15.79,12.82-19.65,51.12-18.11,70.13-9.23,6.33,2.96,13.59,10.26,18.57,12.43,6.37,2.77,17.32-6.23,21.76-10.72,2.39-2.42,4.32-4.24,4.07-8.03-.41-6.18-20.7-19.2-26.83-20.25-13.79-2.37-17.98,7.58-28.76,8.76-6.12.67-28.84-.46-27.34-10.27,1.37-8.96,14.17-4.66,19.33-4.65,10,.03,12.41-11.71,21.44-13.63,10.01-2.13,23.28,2.65,33.5,3.5l1.54-2.43c-.66-3.03-26.73-22.51-31.07-24.93s-17.57-8-21.9-9.13c-7.91-2.07-12.72,6.37-19.78,7.35-6.29.87-11.07-3.99-8-10.06s19.2-8.67,9.26-17.73c-11.61-10.58-38.27-25-44.22-39.76-1.87-4.64-1.43-11.18,4.46-12.08Z"/>
</svg>